<svg width="30" height="19" viewBox="0 0 30 19" fill="none" xmlns="http://www.w3.org/2000/svg">
<path d="M29.4166 14.6426C29.3265 14.6951 29.2239 14.7223 29.1197 14.7213C29.0153 14.7214 28.9128 14.6941 28.8223 14.6419C28.7319 14.5898 28.6568 14.5148 28.6046 14.4244L25.4652 8.93221C23.599 10.2927 21.4862 11.2773 19.2442 11.8312L20.2135 17.5921C20.2392 17.7474 20.2022 17.9065 20.1106 18.0346C20.0191 18.1626 19.8804 18.249 19.7251 18.2749C19.6923 18.2806 19.659 18.2836 19.6256 18.2838C19.4853 18.2836 19.3495 18.2337 19.2425 18.1429C19.1354 18.0522 19.064 17.9264 19.0408 17.788L18.0893 12.0732C15.9633 12.4372 13.7909 12.4372 11.6649 12.0732L10.7135 17.788C10.6901 17.9279 10.6173 18.0549 10.5084 18.1458C10.3995 18.2368 10.2616 18.2857 10.1197 18.2838C10.0864 18.2836 10.0531 18.2806 10.0203 18.2749C9.86497 18.249 9.72629 18.1626 9.63471 18.0346C9.54313 17.9065 9.50615 17.7474 9.53189 17.5921L10.4938 11.8282C8.25252 11.275 6.14017 10.2915 4.27424 8.93221L1.13479 14.4244C1.0826 14.5148 1.00751 14.5898 0.917078 14.6419C0.82665 14.6941 0.72408 14.7214 0.619707 14.7213C0.51547 14.7223 0.412902 14.6951 0.322832 14.6426C0.255117 14.6037 0.195744 14.5518 0.148114 14.4899C0.100485 14.428 0.0655345 14.3573 0.0452652 14.2819C0.0249959 14.2065 0.0198059 14.1278 0.0299925 14.0504C0.040179 13.9729 0.0655422 13.8983 0.104629 13.8307L3.32275 8.19893C2.16122 7.24316 1.10077 6.17078 0.158066 4.99862C0.102722 4.93884 0.0602699 4.86832 0.0333517 4.79143C0.00643354 4.71454 -0.00437493 4.63294 0.00159844 4.5517C0.00757181 4.47045 0.0301992 4.39131 0.0680732 4.31919C0.105947 4.24706 0.158258 4.1835 0.22175 4.13247C0.285242 4.08143 0.358557 4.044 0.437135 4.02251C0.515712 4.00102 0.597871 3.99594 0.678499 4.00756C0.759128 4.01919 0.836502 4.04729 0.905806 4.0901C0.975111 4.13291 1.03486 4.18953 1.08135 4.25643C3.62557 7.40479 8.08463 11.1588 14.8697 11.1588C21.6548 11.1588 26.1138 7.40479 28.6581 4.25495C28.7045 4.18805 28.7643 4.13143 28.8336 4.08862C28.9029 4.0458 28.9803 4.01771 29.0609 4.00608C29.1415 3.99445 29.2237 3.99954 29.3023 4.02103C29.3809 4.04252 29.4542 4.07994 29.5177 4.13098C29.5812 4.18202 29.6335 4.24558 29.6713 4.3177C29.7092 4.38982 29.7318 4.46897 29.7378 4.55021C29.7438 4.63146 29.733 4.71306 29.7061 4.78995C29.6791 4.86683 29.6367 4.93736 29.5813 4.99713C28.6386 6.1693 27.5782 7.24168 26.4167 8.19745L29.6348 13.8307C29.6739 13.8983 29.6992 13.9729 29.7094 14.0504C29.7196 14.1278 29.7144 14.2065 29.6941 14.2819C29.6739 14.3573 29.6389 14.428 29.5913 14.4899C29.5437 14.5518 29.4843 14.6037 29.4166 14.6426Z" fill="#CB3D45"/>
</svg>
