<svg width="30" height="20" viewBox="0 0 30 20" fill="none" xmlns="http://www.w3.org/2000/svg">
<path d="M29.4166 4.3574C29.3265 4.30492 29.2239 4.27774 29.1197 4.27872C29.0153 4.27857 28.9128 4.30593 28.8223 4.35805C28.7319 4.41017 28.6568 4.48521 28.6046 4.5756L25.4652 10.0678C23.599 8.70732 21.4862 7.72271 19.2442 7.1688L20.2135 1.40794C20.2392 1.25264 20.2022 1.09347 20.1106 0.96543C20.0191 0.837388 19.8804 0.750953 19.7251 0.72513C19.6923 0.719375 19.659 0.716395 19.6256 0.716224C19.4853 0.716406 19.3495 0.766303 19.2425 0.857062C19.1354 0.947822 19.064 1.07357 19.0408 1.212L18.0893 6.92685C15.9633 6.56276 13.7909 6.56276 11.6649 6.92685L10.7135 1.212C10.6901 1.07205 10.6173 0.945107 10.5084 0.854161C10.3995 0.763215 10.2616 0.714281 10.1197 0.716224C10.0864 0.716395 10.0531 0.719375 10.0203 0.72513C9.86497 0.750953 9.72629 0.837388 9.63471 0.96543C9.54313 1.09347 9.50615 1.25264 9.53189 1.40794L10.4938 7.17177C8.25252 7.72496 6.14017 8.70854 4.27424 10.0678L1.13479 4.5756C1.0826 4.48521 1.00751 4.41017 0.917078 4.35805C0.82665 4.30593 0.72408 4.27857 0.619707 4.27872C0.51547 4.27774 0.412902 4.30492 0.322832 4.3574C0.255117 4.39631 0.195744 4.4482 0.148114 4.5101C0.100485 4.57199 0.0655345 4.64268 0.0452652 4.7181C0.0249959 4.79352 0.0198059 4.8722 0.0299925 4.94964C0.040179 5.02707 0.0655422 5.10173 0.104629 5.16935L3.32275 10.8011C2.16122 11.7568 1.10077 12.8292 0.158066 14.0014C0.102722 14.0612 0.0602699 14.1317 0.0333517 14.2086C0.00643354 14.2855 -0.00437493 14.3671 0.00159844 14.4483C0.00757181 14.5295 0.0301992 14.6087 0.0680732 14.6808C0.105947 14.7529 0.158258 14.8165 0.22175 14.8675C0.285242 14.9186 0.358557 14.956 0.437135 14.9775C0.515712 14.999 0.597871 15.0041 0.678499 14.9924C0.759128 14.9808 0.836502 14.9527 0.905806 14.9099C0.975111 14.8671 1.03486 14.8105 1.08135 14.7436C3.62557 11.5952 8.08463 7.84122 14.8697 7.84122C21.6548 7.84122 26.1138 11.5952 28.6581 14.7451C28.7045 14.812 28.7643 14.8686 28.8336 14.9114C28.9029 14.9542 28.9803 14.9823 29.0609 14.9939C29.1415 15.0055 29.2237 15.0005 29.3023 14.979C29.3809 14.9575 29.4542 14.9201 29.5177 14.869C29.5812 14.818 29.6335 14.7544 29.6713 14.6823C29.7092 14.6102 29.7318 14.531 29.7378 14.4498C29.7438 14.3685 29.733 14.2869 29.7061 14.2101C29.6791 14.1332 29.6367 14.0626 29.5813 14.0029C28.6386 12.8307 27.5782 11.7583 26.4167 10.8026L29.6348 5.16935C29.6739 5.10173 29.6992 5.02707 29.7094 4.94964C29.7196 4.8722 29.7144 4.79352 29.6941 4.7181C29.6739 4.64268 29.6389 4.57199 29.5913 4.5101C29.5437 4.4482 29.4843 4.39631 29.4166 4.3574Z" fill="#CB3D45"/>
<path d="M19.35 15C19.35 17.4024 17.4024 19.35 15 19.35C12.5976 19.35 10.65 17.4024 10.65 15C10.65 12.5976 12.5976 10.65 15 10.65C17.4024 10.65 19.35 12.5976 19.35 15Z" stroke="#CB3D45" stroke-width="1.3"/>
</svg>
