<svg width="20" height="20" viewBox="0 0 20 20" fill="none" xmlns="http://www.w3.org/2000/svg">
<path d="M15.8333 2.5H4.16667C3.24619 2.5 2.5 3.24619 2.5 4.16667V15.8333C2.5 16.7538 3.24619 17.5 4.16667 17.5H15.8333C16.7538 17.5 17.5 16.7538 17.5 15.8333V4.16667C17.5 3.24619 16.7538 2.5 15.8333 2.5Z" stroke="#951D24" stroke-width="1.5" stroke-linecap="round" stroke-linejoin="round"/>
<path d="M6.66699 6.66683H7.08366M6.87533 6.4585V6.87516M6.87533 9.79183V10.2085M6.87533 13.1252V13.5418M12.917 6.66683H13.3337M13.1253 6.4585V6.87516M13.1253 9.79183V10.2085M13.1253 13.1252V13.5418M6.66699 10.0002H7.08366M12.917 10.0002H13.3337M6.66699 13.3335H7.08366M12.917 13.3335H13.3337" stroke="#951D24" stroke-width="1.5" stroke-linecap="round"/>
</svg>
