<svg width="20" height="20" viewBox="0 0 20 20" fill="none" xmlns="http://www.w3.org/2000/svg">
<path d="M3.33301 5.83333V14.1667C3.33301 16.0076 6.31778 17.5 9.99967 17.5C13.6816 17.5 16.6663 16.0076 16.6663 14.1667V5.83333M3.33301 5.83333C3.33301 7.67428 6.31778 9.16667 9.99967 9.16667C13.6816 9.16667 16.6663 7.67428 16.6663 5.83333M3.33301 5.83333C3.33301 3.99238 6.31778 2.5 9.99967 2.5C13.6816 2.5 16.6663 3.99238 16.6663 5.83333M16.6663 10C16.6663 11.8409 13.6816 13.3333 9.99967 13.3333C6.31778 13.3333 3.33301 11.8409 3.33301 10" stroke="#951D24" stroke-width="1.5"/>
</svg>
