<svg width="20" height="20" viewBox="0 0 20 20" fill="none" xmlns="http://www.w3.org/2000/svg">
<path d="M11.5991 7.99153C11.8705 8.30439 12.3442 8.33794 12.6571 8.06648C12.9699 7.79501 13.0035 7.32132 12.732 7.00847L11.5991 7.99153ZM8.40095 12.0085C8.12948 11.6956 7.6558 11.6621 7.34294 11.9335C7.03008 12.205 6.99653 12.6787 7.268 12.9915L8.40095 12.0085ZM10.75 5.83333C10.75 5.41912 10.4142 5.08333 10 5.08333C9.58579 5.08333 9.25 5.41912 9.25 5.83333H10.75ZM9.25 14.1667C9.24999 14.5809 9.58577 14.9167 9.99998 14.9167C10.4142 14.9167 10.75 14.5809 10.75 14.1667L9.25 14.1667ZM16.75 10C16.75 13.7279 13.7279 16.75 10 16.75V18.25C14.5563 18.25 18.25 14.5563 18.25 10H16.75ZM10 16.75C6.27208 16.75 3.25 13.7279 3.25 10H1.75C1.75 14.5563 5.44365 18.25 10 18.25V16.75ZM3.25 10C3.25 6.27208 6.27208 3.25 10 3.25V1.75C5.44365 1.75 1.75 5.44365 1.75 10H3.25ZM10 3.25C13.7279 3.25 16.75 6.27208 16.75 10H18.25C18.25 5.44365 14.5563 1.75 10 1.75V3.25ZM10 9.25C9.43706 9.25 8.96134 9.09653 8.64826 8.88781C8.32993 8.67559 8.25 8.46478 8.25 8.33333H6.75C6.75 9.12236 7.22971 9.74488 7.81621 10.1359C8.40795 10.5304 9.18223 10.75 10 10.75V9.25ZM8.25 8.33333C8.25 8.20188 8.32993 7.99108 8.64826 7.77886C8.96134 7.57014 9.43706 7.41667 10 7.41667V5.91667C9.18223 5.91667 8.40795 6.13629 7.81621 6.53078C7.22971 6.92178 6.75 7.54431 6.75 8.33333H8.25ZM10 7.41667C10.7704 7.41667 11.3456 7.69942 11.5991 7.99153L12.732 7.00847C12.121 6.30425 11.0803 5.91667 10 5.91667V7.41667ZM10 10.75C10.5629 10.75 11.0387 10.9035 11.3518 11.1122C11.6701 11.3244 11.75 11.5352 11.75 11.6667H13.25C13.25 10.8776 12.7703 10.2551 12.1838 9.86412C11.5921 9.46962 10.8178 9.25 10 9.25V10.75ZM9.25 5.83333V6.66667H10.75V5.83333H9.25ZM9.25002 13.3333L9.25 14.1667L10.75 14.1667L10.75 13.3333L9.25002 13.3333ZM10 12.5833C9.22965 12.5833 8.65441 12.3006 8.40095 12.0085L7.268 12.9915C7.87905 13.6958 8.91969 14.0833 10 14.0833L10 12.5833ZM11.75 11.6667C11.75 11.7981 11.6701 12.0089 11.3518 12.2211C11.0387 12.4299 10.563 12.5833 10 12.5833V14.0833C10.8178 14.0833 11.5921 13.8637 12.1838 13.4692C12.7703 13.0782 13.25 12.4557 13.25 11.6667H11.75ZM9.25 6.66667L9.25002 13.3333L10.75 13.3333L10.75 6.66666L9.25 6.66667Z" fill="#951D24"/>
</svg>
