<svg width="20" height="20" viewBox="0 0 20 20" fill="none" xmlns="http://www.w3.org/2000/svg">
<path d="M5.00033 15.8337C6.84127 15.8337 8.33366 14.3413 8.33366 12.5003C8.33366 10.6594 6.84127 9.16699 5.00033 9.16699C3.15938 9.16699 1.66699 10.6594 1.66699 12.5003C1.66699 14.3413 3.15938 15.8337 5.00033 15.8337Z" stroke="#C4A767" stroke-width="1.5" stroke-linecap="round" stroke-linejoin="round"/>
<path d="M15.0003 15.8337C16.8413 15.8337 18.3337 14.3413 18.3337 12.5003C18.3337 10.6594 16.8413 9.16699 15.0003 9.16699C13.1594 9.16699 11.667 10.6594 11.667 12.5003C11.667 14.3413 13.1594 15.8337 15.0003 15.8337Z" stroke="#C4A767" stroke-width="1.5" stroke-linecap="round" stroke-linejoin="round"/>
<path d="M5 12.5003L6.66667 6.66699H12.9167M5 4.16699H7.5M15 12.5003L12.5 4.16699H15.8333H16.25C16.5815 4.16699 16.8995 4.29869 17.1339 4.53311C17.3683 4.76753 17.5 5.08547 17.5 5.41699C17.5 5.74851 17.3683 6.06646 17.1339 6.30088C16.8995 6.5353 16.5815 6.66699 16.25 6.66699H15.8333" stroke="#C4A767" stroke-width="1.5" stroke-linecap="round" stroke-linejoin="round"/>
</svg>
