<svg width="20" height="20" viewBox="0 0 20 20" fill="none" xmlns="http://www.w3.org/2000/svg">
<path d="M9.99967 7.5C13.6816 7.5 16.6663 6.38071 16.6663 5C16.6663 3.61929 13.6816 2.5 9.99967 2.5C6.31778 2.5 3.33301 3.61929 3.33301 5C3.33301 6.38071 6.31778 7.5 9.99967 7.5Z" stroke="#C4A767" stroke-width="1.5" stroke-linecap="round" stroke-linejoin="round"/>
<path d="M5.03051 10C3.97467 10.4417 3.33301 11.0267 3.33301 11.6667C3.33301 13.0475 6.31801 14.1667 9.99967 14.1667C13.6813 14.1667 16.6663 13.0475 16.6663 11.6667C16.6663 11.0267 16.0247 10.4417 14.9688 10" stroke="#C4A767" stroke-width="1.5" stroke-linecap="round" stroke-linejoin="round"/>
<path d="M3.33301 5V8.33333C3.33301 9.71417 6.31801 10.8333 9.99967 10.8333C13.6813 10.8333 16.6663 9.71417 16.6663 8.33333V5M3.33301 11.6667V15C3.33301 16.3808 6.31801 17.5 9.99967 17.5C13.6813 17.5 16.6663 16.3808 16.6663 15V11.6667" stroke="#C4A767" stroke-width="1.5" stroke-linecap="round" stroke-linejoin="round"/>
</svg>
