<svg width="30" height="30" viewBox="0 0 30 30" fill="none" xmlns="http://www.w3.org/2000/svg">
<rect width="30" height="30" rx="15" fill="#C4A767" fill-opacity="0.15"/>
<path d="M11.8 21.4H18.2M7 10.2C7 9.77563 7.16857 9.36866 7.46863 9.0686C7.76869 8.76855 8.17565 8.59998 8.6 8.59998H21.4C21.8243 8.59998 22.2313 8.76855 22.5314 9.0686C22.8314 9.36866 23 9.77563 23 10.2V17.4C23 17.8243 22.8314 18.2313 22.5314 18.5313C22.2313 18.8314 21.8243 19 21.4 19H8.6C8.17565 19 7.76869 18.8314 7.46863 18.5313C7.16857 18.2313 7 17.8243 7 17.4V10.2Z" stroke="#D8D8D4" stroke-width="1.5" stroke-linecap="round" stroke-linejoin="round"/>
</svg>
