<svg width="20" height="20" viewBox="0 0 20 20" fill="none" xmlns="http://www.w3.org/2000/svg">
<path d="M11.667 15.8333C14.8095 15.8333 16.3812 15.8333 17.357 14.8567C18.3337 13.8808 18.3337 12.3092 18.3337 9.16667C18.3337 6.02417 18.3337 4.4525 17.357 3.47667C16.3812 2.5 14.8095 2.5 11.667 2.5H8.33366C5.19116 2.5 3.61949 2.5 2.64366 3.47667C1.66699 4.4525 1.66699 6.02417 1.66699 9.16667C1.66699 12.3092 1.66699 13.8808 2.64366 14.8567C3.18783 15.4017 3.91699 15.6425 5.00033 15.7483" stroke="#951D24" stroke-width="1.5" stroke-linecap="round" stroke-linejoin="round"/>
<path d="M8.33402 7.07016C8.75069 6.24516 9.16736 5.8335 10.0007 5.8335C11.039 5.8335 11.6674 6.65766 11.6674 7.48183C11.6674 8.306 11.2507 8.34266 10.0007 9.16683V10.0002M10.0007 12.0835V12.5002M11.6674 15.8335C10.6374 15.8335 9.50236 16.2502 8.46652 16.7877C6.80152 17.6518 5.96902 18.0843 5.55902 17.8085C5.14902 17.5335 5.22652 16.6793 5.38236 14.9718L5.41736 14.5835" stroke="#951D24" stroke-width="1.5" stroke-linecap="round"/>
</svg>
