<svg width="38" height="38" viewBox="0 0 38 38" fill="none" xmlns="http://www.w3.org/2000/svg">
<rect width="38" height="38" rx="19" fill="#1E120D" fill-opacity="0.6"/>
<path d="M23.9998 16.4995C23.9998 15.2995 24.9998 14.9995 25.5198 14.9995C26.3588 14.9995 26.9998 15.6715 26.9998 16.4995V22.9995C26.9998 26.9995 23.8658 28.9995 19.9998 28.9995C16.1338 28.9995 14.8038 27.9995 11.8038 22.9995L10.2328 20.3945C9.69685 19.5265 10.1258 18.4005 11.1138 18.0805C11.4369 17.975 11.7846 17.9713 12.1098 18.0701C12.435 18.1688 12.722 18.3652 12.9318 18.6325L14.9998 21.0325M14.9998 20.9995V12.5195" stroke="white" stroke-opacity="0.7" stroke-width="1.5" stroke-linecap="round" stroke-linejoin="round"/>
<path d="M23.9999 18V14.5C23.9999 14.1022 23.8418 13.7206 23.5605 13.4393C23.2792 13.158 22.8977 13 22.4999 13C22.1021 13 21.7205 13.158 21.4392 13.4393C21.1579 13.7206 20.9999 14.1022 20.9999 14.5V18V13.5C20.9999 13.1022 20.8418 12.7206 20.5605 12.4393C20.2792 12.158 19.8977 12 19.4999 12C19.1021 12 18.7205 12.158 18.4392 12.4393C18.1579 12.7206 17.9999 13.1022 17.9999 13.5V18V9.5C17.9999 9.10218 17.8418 8.72064 17.5605 8.43934C17.2792 8.15804 16.8977 8 16.4999 8C16.1021 8 15.7205 8.15804 15.4392 8.43934C15.1579 8.72064 14.9999 9.10218 14.9999 9.5V18" stroke="white" stroke-opacity="0.7" stroke-width="1.5" stroke-linecap="round" stroke-linejoin="round"/>
</svg>
