<svg width="17" height="20" viewBox="0 0 17 20" fill="none" xmlns="http://www.w3.org/2000/svg">
<path d="M10.2775 3.17533L5.66667 1.66699L6.5 5.00033L2.025 8.72949C1.86065 8.86638 1.72842 9.03775 1.6377 9.23145C1.54697 9.42515 1.49996 9.63643 1.5 9.85033C1.5 10.3645 1.9475 10.757 2.43917 10.672L6.5 10.0003L4.7525 15.8337H13.5975L14.6667 11.0462C15.4275 7.63949 13.5117 4.20449 10.2775 3.17533ZM2.33333 17.5003C2.33333 17.0583 2.50893 16.6344 2.82149 16.3218C3.13405 16.0093 3.55797 15.8337 4 15.8337H14C14.442 15.8337 14.866 16.0093 15.1785 16.3218C15.4911 16.6344 15.6667 17.0583 15.6667 17.5003V18.3337H2.33333V17.5003Z" stroke="#C4A767" stroke-width="1.5" stroke-linecap="round" stroke-linejoin="round"/>
</svg>
