<svg width="18" height="18" viewBox="0 0 18 18" fill="none" xmlns="http://www.w3.org/2000/svg">
<path d="M14.8333 1.5H3.16667C2.24619 1.5 1.5 2.24619 1.5 3.16667V14.8333C1.5 15.7538 2.24619 16.5 3.16667 16.5H14.8333C15.7538 16.5 16.5 15.7538 16.5 14.8333V3.16667C16.5 2.24619 15.7538 1.5 14.8333 1.5Z" stroke="#C4A767" stroke-width="1.5" stroke-linecap="round" stroke-linejoin="round"/>
<path d="M5.66675 5.66634H6.08341M5.87508 5.45801V5.87467M5.87508 8.79134V9.20801M5.87508 12.1247V12.5413M11.9167 5.66634H12.3334M12.1251 5.45801V5.87467M12.1251 8.79134V9.20801M12.1251 12.1247V12.5413M5.66675 8.99967H6.08341M11.9167 8.99967H12.3334M5.66675 12.333H6.08341M11.9167 12.333H12.3334" stroke="#C4A767" stroke-width="1.5" stroke-linecap="round"/>
</svg>
