<svg width="21" height="20" viewBox="0 0 21 20" fill="none" xmlns="http://www.w3.org/2000/svg">
<path d="M18 15.8334V10.2226C18 9.77043 17.908 9.32303 17.7297 8.90757C17.5513 8.49211 17.2903 8.11728 16.9625 7.80588L11.6483 2.75838C11.3386 2.46412 10.9277 2.30005 10.5004 2.30005C10.0732 2.30005 9.66225 2.46412 9.3525 2.75838L4.0375 7.80588C3.70971 8.11728 3.4487 8.49211 3.27034 8.90757C3.09198 9.32303 3 9.77043 3 10.2226V15.8334C3 16.2754 3.17559 16.6993 3.48816 17.0119C3.80072 17.3245 4.22464 17.5001 4.66667 17.5001H16.3333C16.7754 17.5001 17.1993 17.3245 17.5118 17.0119C17.8244 16.6993 18 16.2754 18 15.8334Z" stroke="#D8D8D4" stroke-opacity="0.8" stroke-width="1.5" stroke-linecap="round" stroke-linejoin="round"/>
<path d="M8 12.5C8 12.058 8.1756 11.6341 8.48816 11.3215C8.80072 11.009 9.22464 10.8334 9.66667 10.8334H11.3333C11.7754 10.8334 12.1993 11.009 12.5118 11.3215C12.8244 11.6341 13 12.058 13 12.5V17.5H8V12.5Z" stroke="#D8D8D4" stroke-opacity="0.8" stroke-width="1.5" stroke-linecap="round" stroke-linejoin="round"/>
</svg>
