<svg width="24" height="24" viewBox="0 0 24 24" fill="none" xmlns="http://www.w3.org/2000/svg">
<path d="M8.8 18.8H15.2M4 7.6C4 7.17565 4.16857 6.76869 4.46863 6.46863C4.76869 6.16857 5.17565 6 5.6 6H18.4C18.8243 6 19.2313 6.16857 19.5314 6.46863C19.8314 6.76869 20 7.17565 20 7.6V14.8C20 15.2243 19.8314 15.6313 19.5314 15.9314C19.2313 16.2314 18.8243 16.4 18.4 16.4H5.6C5.17565 16.4 4.76869 16.2314 4.46863 15.9314C4.16857 15.6313 4 15.2243 4 14.8V7.6Z" stroke="#D8D8D4" stroke-opacity="0.5" stroke-width="1.5" stroke-linecap="round" stroke-linejoin="round"/>
<path d="M12.0002 6.69995V15.7M4.7002 11.5H19.2002" stroke="#D8D8D4" stroke-opacity="0.5" stroke-width="1.5"/>
</svg>
