<svg width="20" height="20" viewBox="0 0 20 20" fill="none" xmlns="http://www.w3.org/2000/svg">
<g clip-path="url(#clip0_959_10473)">
<path d="M13.9324 16.46L13.3991 12.19C13.3235 11.5852 13.0296 11.0288 12.5725 10.6255C12.1155 10.2222 11.5269 9.99977 10.9174 10H9.08074C8.47151 10.0002 7.88331 10.2228 7.42664 10.6261C6.96998 11.0293 6.67629 11.5855 6.60074 12.19L6.06657 16.46C6.03726 16.6946 6.05819 16.9327 6.12797 17.1586C6.19776 17.3845 6.3148 17.593 6.47133 17.7701C6.62786 17.9473 6.82029 18.0892 7.03585 18.1863C7.25141 18.2834 7.48516 18.3335 7.72157 18.3333H12.2782C12.5146 18.3334 12.7482 18.2832 12.9637 18.186C13.1792 18.0889 13.3715 17.947 13.5279 17.7698C13.6844 17.5927 13.8013 17.3843 13.8711 17.1584C13.9408 16.9326 13.9617 16.6945 13.9324 16.46Z" stroke="#C4A767" stroke-width="1.5" stroke-linecap="round" stroke-linejoin="round"/>
<path d="M10 6.66699C11.3807 6.66699 12.5 5.5477 12.5 4.16699C12.5 2.78628 11.3807 1.66699 10 1.66699C8.61929 1.66699 7.5 2.78628 7.5 4.16699C7.5 5.5477 8.61929 6.66699 10 6.66699Z" stroke="#C4A767" stroke-width="1.5"/>
<path d="M3.33268 9.16732C4.25316 9.16732 4.99935 8.42113 4.99935 7.50065C4.99935 6.58018 4.25316 5.83398 3.33268 5.83398C2.41221 5.83398 1.66602 6.58018 1.66602 7.50065C1.66602 8.42113 2.41221 9.16732 3.33268 9.16732Z" stroke="#C4A767" stroke-width="1.5"/>
<path d="M16.6667 9.16732C17.5871 9.16732 18.3333 8.42113 18.3333 7.50065C18.3333 6.58018 17.5871 5.83398 16.6667 5.83398C15.7462 5.83398 15 6.58018 15 7.50065C15 8.42113 15.7462 9.16732 16.6667 9.16732Z" stroke="#C4A767" stroke-width="1.5"/>
<path d="M3.33316 11.667H3.07816C2.68363 11.6669 2.30187 11.8069 2.00081 12.0618C1.69974 12.3168 1.49889 12.6703 1.43399 13.0595L1.15649 14.7262C1.11667 14.9649 1.12935 15.2095 1.19363 15.4429C1.25792 15.6763 1.37229 15.8929 1.52877 16.0776C1.68525 16.2623 1.88009 16.4108 2.09974 16.5125C2.31939 16.6143 2.55858 16.667 2.80066 16.667H5.83316M16.6665 11.667H16.9215C17.316 11.6669 17.6978 11.8069 17.9988 12.0618C18.2999 12.3168 18.5008 12.6703 18.5657 13.0595L18.8432 14.7262C18.883 14.9649 18.8703 15.2095 18.806 15.4429C18.7417 15.6763 18.6274 15.8929 18.4709 16.0776C18.3144 16.2623 18.1196 16.4108 17.8999 16.5125C17.6803 16.6143 17.4411 16.667 17.199 16.667H14.1665" stroke="#C4A767" stroke-width="1.5" stroke-linecap="round" stroke-linejoin="round"/>
</g>
<defs>
<clipPath id="clip0_959_10473">
<rect width="20" height="20" fill="white"/>
</clipPath>
</defs>
</svg>
