<svg width="21" height="14" viewBox="0 0 21 14" fill="none" xmlns="http://www.w3.org/2000/svg">
<path d="M20.5916 10.9498C20.5286 10.9866 20.4568 11.0056 20.3838 11.0049C20.3107 11.005 20.2389 10.9858 20.1756 10.9494C20.1123 10.9129 20.0598 10.8604 20.0232 10.7971L17.8256 6.95255C16.5193 7.90488 15.0403 8.5941 13.4709 8.98184L14.1494 13.0144C14.1674 13.1232 14.1416 13.2346 14.0774 13.3242C14.0133 13.4138 13.9163 13.4743 13.8076 13.4924C13.7846 13.4964 13.7613 13.4985 13.7379 13.4986C13.6397 13.4985 13.5447 13.4636 13.4697 13.4001C13.3948 13.3365 13.3448 13.2485 13.3286 13.1516L12.6625 9.15121C11.1743 9.40607 9.65365 9.40607 8.16546 9.15121L7.49942 13.1516C7.48304 13.2496 7.43212 13.3384 7.35588 13.4021C7.27963 13.4657 7.18311 13.5 7.0838 13.4986C7.06046 13.4985 7.03717 13.4964 7.01418 13.4924C6.90548 13.4743 6.8084 13.4138 6.7443 13.3242C6.68019 13.2346 6.6543 13.1232 6.67233 13.0144L7.34564 8.97976C5.77676 8.59253 4.29812 7.90402 2.99197 6.95255L0.79435 10.7971C0.757819 10.8604 0.705255 10.9129 0.641955 10.9494C0.578655 10.9858 0.506856 11.005 0.433795 11.0049C0.360829 11.0056 0.289032 10.9866 0.225982 10.9498C0.178582 10.9226 0.137021 10.8863 0.10368 10.8429C0.0703394 10.7996 0.0458742 10.7501 0.0316856 10.6973C0.0174971 10.6445 0.0138641 10.5895 0.0209947 10.5353C0.0281253 10.4811 0.0458795 10.4288 0.0732402 10.3815L2.32593 6.43925C1.51285 5.77021 0.77054 5.01955 0.110646 4.19903C0.0719052 4.15719 0.0421889 4.10782 0.0233462 4.054C0.00450348 4.00018 -0.00306245 3.94306 0.00111891 3.88619C0.00530027 3.82932 0.0211394 3.77392 0.0476513 3.72343C0.0741631 3.67294 0.11078 3.62845 0.155225 3.59273C0.199669 3.557 0.25099 3.5308 0.305994 3.51576C0.360999 3.50072 0.41851 3.49716 0.47495 3.5053C0.53139 3.51343 0.585551 3.5331 0.634064 3.56307C0.682577 3.59304 0.724405 3.63267 0.756943 3.6795C2.5379 5.88335 5.65924 8.51114 10.4088 8.51114C15.1583 8.51114 18.2797 5.88335 20.0606 3.67846C20.0932 3.63163 20.135 3.592 20.1835 3.56203C20.232 3.53206 20.2862 3.5124 20.3426 3.50426C20.3991 3.49612 20.4566 3.49968 20.5116 3.51472C20.5666 3.52976 20.6179 3.55596 20.6624 3.59169C20.7068 3.62741 20.7434 3.6719 20.7699 3.72239C20.7964 3.77288 20.8123 3.82828 20.8165 3.88515C20.8207 3.94202 20.8131 3.99914 20.7942 4.05296C20.7754 4.10678 20.7457 4.15615 20.7069 4.19799C20.047 5.01851 19.3047 5.76918 18.4917 6.43821L20.7443 10.3815C20.7717 10.4288 20.7895 10.4811 20.7966 10.5353C20.8037 10.5895 20.8001 10.6445 20.7859 10.6973C20.7717 10.7501 20.7472 10.7996 20.7139 10.8429C20.6806 10.8863 20.639 10.9226 20.5916 10.9498Z" fill="#747474"/>
</svg>
