<svg width="20" height="20" viewBox="0 0 20 20" fill="none" xmlns="http://www.w3.org/2000/svg">
<path d="M1.66699 6.66683H18.3337M1.66699 5.00016C1.66699 4.55814 1.84259 4.13421 2.15515 3.82165C2.46771 3.50909 2.89163 3.3335 3.33366 3.3335H16.667C17.109 3.3335 17.5329 3.50909 17.8455 3.82165C18.1581 4.13421 18.3337 4.55814 18.3337 5.00016V15.0002C18.3337 15.4422 18.1581 15.8661 17.8455 16.1787C17.5329 16.4912 17.109 16.6668 16.667 16.6668H3.33366C2.89163 16.6668 2.46771 16.4912 2.15515 16.1787C1.84259 15.8661 1.66699 15.4422 1.66699 15.0002V10.0002V5.00016Z" stroke="#951D24" stroke-width="1.5" stroke-linecap="round" stroke-linejoin="round"/>
<path d="M1.66699 10H7.50032C7.50032 10.8333 8.00032 12.5 10.0003 12.5C12.0003 12.5 12.5003 10.8333 12.5003 10H18.3337" stroke="#951D24" stroke-width="1.5" stroke-linecap="round" stroke-linejoin="round"/>
</svg>
