<svg width="20" height="20" viewBox="0 0 20 20" fill="none" xmlns="http://www.w3.org/2000/svg">
<path d="M1.66699 6.66634H18.3337M1.66699 4.99967C1.66699 4.55765 1.84259 4.13372 2.15515 3.82116C2.46771 3.5086 2.89163 3.33301 3.33366 3.33301H16.667C17.109 3.33301 17.5329 3.5086 17.8455 3.82116C18.1581 4.13372 18.3337 4.55765 18.3337 4.99967V14.9997C18.3337 15.4417 18.1581 15.8656 17.8455 16.1782C17.5329 16.4907 17.109 16.6663 16.667 16.6663H3.33366C2.89163 16.6663 2.46771 16.4907 2.15515 16.1782C1.84259 15.8656 1.66699 15.4417 1.66699 14.9997V9.99967V4.99967Z" stroke="#C4A767" stroke-width="1.5" stroke-linecap="round" stroke-linejoin="round"/>
<path d="M1.66699 10H7.50032C7.50032 10.8333 8.00032 12.5 10.0003 12.5C12.0003 12.5 12.5003 10.8333 12.5003 10H18.3337" stroke="#C4A767" stroke-width="1.5" stroke-linecap="round" stroke-linejoin="round"/>
</svg>
