<svg width="20" height="20" viewBox="0 0 20 20" fill="none" xmlns="http://www.w3.org/2000/svg">
<path d="M15.833 13.3332L16.558 3.55407C16.5974 3.09648 16.4554 2.64173 16.1627 2.28778C15.87 1.93383 15.4501 1.70898 14.9932 1.66167C14.5364 1.61436 14.0792 1.74836 13.7202 2.03483C13.3612 2.32129 13.1291 2.73729 13.0738 3.19324L12.4997 7.49991M3.33301 13.3332V9.99991C3.33301 9.55788 3.5086 9.13396 3.82116 8.8214C4.13372 8.50883 4.55765 8.33324 4.99967 8.33324C5.4417 8.33324 5.86563 8.50883 6.17819 8.8214C6.49075 9.13396 6.66634 9.55788 6.66634 9.99991V12.4999V9.58324C6.66634 9.14121 6.84194 8.71729 7.1545 8.40473C7.46706 8.09217 7.89098 7.91657 8.33301 7.91657C8.77504 7.91657 9.19896 8.09217 9.51152 8.40473C9.82408 8.71729 9.99967 9.14121 9.99967 9.58324V10.8332" stroke="#C4A767" stroke-width="1.5" stroke-linecap="round" stroke-linejoin="round"/>
<path d="M13.3333 10.8333V9.16667C13.3333 8.72464 13.1577 8.30072 12.8452 7.98816C12.5326 7.6756 12.1087 7.5 11.6667 7.5C11.2246 7.5 10.8007 7.6756 10.4882 7.98816C10.1756 8.30072 10 8.72464 10 9.16667V10.8333" stroke="#C4A767" stroke-width="1.5" stroke-linecap="round" stroke-linejoin="round"/>
<path d="M15.833 13.333C15.3863 16.6663 13.0347 18.333 9.58301 18.333C6.13134 18.333 3.33301 16.6663 3.33301 13.333" stroke="#C4A767" stroke-width="1.5"/>
<path d="M11.41 14.1663H9.16667C8.72464 14.1663 8.30072 13.9907 7.98816 13.6782C7.6756 13.3656 7.5 12.9417 7.5 12.4997C7.5 12.0576 7.6756 11.6337 7.98816 11.3212C8.30072 11.0086 8.72464 10.833 9.16667 10.833H12.5C14.3417 10.833 16.25 12.4997 15.4167 14.9997" stroke="#C4A767" stroke-width="1.5" stroke-linecap="round" stroke-linejoin="round"/>
</svg>
