<svg width="32" height="22" viewBox="0 0 32 22" fill="none" xmlns="http://www.w3.org/2000/svg">
<path d="M1.83301 3.91659C1.83301 3.16514 2.13152 2.44447 2.66287 1.91312C3.19422 1.38176 3.91489 1.08325 4.66634 1.08325H27.333C28.0845 1.08325 28.8051 1.38176 29.3365 1.91312C29.8678 2.44447 30.1663 3.16514 30.1663 3.91659V18.0833C30.1663 18.8347 29.8678 19.5554 29.3365 20.0867C28.8051 20.6181 28.0845 20.9166 27.333 20.9166H4.66634C3.91489 20.9166 3.19422 20.6181 2.66287 20.0867C2.13152 19.5554 1.83301 18.8347 1.83301 18.0833V3.91659Z" stroke="#C4A767" stroke-width="2" stroke-linecap="round" stroke-linejoin="round"/>
<path d="M16 15.25C18.3472 15.25 20.25 13.3472 20.25 11C20.25 8.65279 18.3472 6.75 16 6.75C13.6528 6.75 11.75 8.65279 11.75 11C11.75 13.3472 13.6528 15.25 16 15.25Z" stroke="#C4A767" stroke-width="2" stroke-linecap="round" stroke-linejoin="round"/>
<path d="M1.83301 6.74992C3.3359 6.74992 4.77724 6.1529 5.83995 5.09019C6.90265 4.02748 7.49967 2.58615 7.49967 1.08325M24.4997 20.9166C24.4997 19.4137 25.0967 17.9724 26.1594 16.9096C27.2221 15.8469 28.6634 15.2499 30.1663 15.2499" stroke="#C4A767" stroke-width="2" stroke-linecap="round" stroke-linejoin="round"/>
</svg>
