<svg width="20" height="20" viewBox="0 0 20 20" fill="none" xmlns="http://www.w3.org/2000/svg">
<path d="M12.9163 3.33398H14.9997C15.4417 3.33398 15.8656 3.50958 16.1782 3.82214C16.4907 4.1347 16.6663 4.55862 16.6663 5.00065V15.834C16.6663 16.276 16.4907 16.6999 16.1782 17.0125C15.8656 17.3251 15.4417 17.5007 14.9997 17.5007H4.99967C4.55765 17.5007 4.13372 17.3251 3.82116 17.0125C3.5086 16.6999 3.33301 16.276 3.33301 15.834V5.00065C3.33301 4.55862 3.5086 4.1347 3.82116 3.82214C4.13372 3.50958 4.55765 3.33398 4.99967 3.33398H7.08301" stroke="#C4A767" stroke-width="1.5" stroke-linecap="round" stroke-linejoin="round"/>
<path d="M7.18352 2.92949C7.27364 2.56893 7.4817 2.24883 7.77462 2.02008C8.06755 1.79133 8.42852 1.66705 8.80018 1.66699H11.1977C11.5693 1.66705 11.9303 1.79133 12.2232 2.02008C12.5162 2.24883 12.7242 2.56893 12.8143 2.92949L13.3327 5.00033H6.66602L7.18352 2.92949Z" stroke="#C4A767" stroke-width="1.5" stroke-linecap="round" stroke-linejoin="round"/>
<path d="M7.5 10H12.5M7.5 13.3333H12.5" stroke="#C4A767" stroke-width="1.5" stroke-linecap="round"/>
</svg>
