<svg width="21" height="14" viewBox="0 0 21 14" fill="none" xmlns="http://www.w3.org/2000/svg">
<path d="M20.5916 3.05018C20.5286 3.01345 20.4568 2.99442 20.3838 2.99511C20.3107 2.995 20.2389 3.01415 20.1756 3.05064C20.1123 3.08712 20.0598 3.13965 20.0232 3.20292L17.8256 7.04745C16.5193 6.09512 15.0403 5.4059 13.4709 5.01816L14.1494 0.98556C14.1674 0.876849 14.1416 0.765431 14.0774 0.675802C14.0133 0.586172 13.9163 0.525667 13.8076 0.507591C13.7846 0.503563 13.7613 0.501477 13.7379 0.501357C13.6397 0.501484 13.5447 0.536413 13.4697 0.599944C13.3948 0.663476 13.3448 0.751501 13.3286 0.848404L12.6625 4.84879C11.1743 4.59393 9.65365 4.59393 8.16546 4.84879L7.49942 0.848404C7.48304 0.750437 7.43212 0.661576 7.35587 0.597914C7.27963 0.534251 7.18311 0.499997 7.08379 0.501357C7.06045 0.501477 7.03717 0.503563 7.01418 0.507591C6.90547 0.525667 6.8084 0.586172 6.74429 0.675802C6.68019 0.765431 6.6543 0.876849 6.67233 0.98556L7.34564 5.02024C5.77676 5.40747 4.29811 6.09598 2.99197 7.04745L0.794349 3.20292C0.757819 3.13965 0.705255 3.08712 0.641955 3.05064C0.578655 3.01415 0.506856 2.995 0.433795 2.99511C0.360829 2.99442 0.289032 3.01345 0.225982 3.05018C0.178582 3.07742 0.137021 3.11374 0.10368 3.15707C0.0703394 3.20039 0.0458742 3.24987 0.0316856 3.30267C0.0174971 3.35547 0.0138641 3.41054 0.0209947 3.46475C0.0281253 3.51895 0.0458795 3.57121 0.0732402 3.61855L2.32593 7.56075C1.51285 8.22979 0.77054 8.98045 0.110646 9.80097C0.0719052 9.84281 0.0421889 9.89218 0.0233462 9.946C0.00450348 9.99982 -0.00306245 10.0569 0.00111891 10.1138C0.00530027 10.1707 0.0211394 10.2261 0.0476513 10.2766C0.0741631 10.3271 0.11078 10.3715 0.155225 10.4073C0.199669 10.443 0.25099 10.4692 0.305994 10.4842C0.360999 10.4993 0.41851 10.5028 0.474949 10.4947C0.531389 10.4866 0.585551 10.4669 0.634064 10.4369C0.682577 10.407 0.724404 10.3673 0.756943 10.3205C2.5379 8.11665 5.65924 5.48886 10.4088 5.48886C15.1583 5.48886 18.2797 8.11665 20.0606 10.3215C20.0932 10.3684 20.135 10.408 20.1835 10.438C20.232 10.4679 20.2862 10.4876 20.3426 10.4957C20.3991 10.5039 20.4566 10.5003 20.5116 10.4853C20.5666 10.4702 20.6179 10.444 20.6624 10.4083C20.7068 10.3726 20.7434 10.3281 20.7699 10.2776C20.7964 10.2271 20.8123 10.1717 20.8165 10.1149C20.8206 10.058 20.8131 10.0009 20.7942 9.94704C20.7754 9.89322 20.7457 9.84385 20.7069 9.80201C20.047 8.98149 19.3047 8.23082 18.4917 7.56179L20.7443 3.61855C20.7717 3.57121 20.7895 3.51895 20.7966 3.46475C20.8037 3.41054 20.8001 3.35547 20.7859 3.30267C20.7717 3.24987 20.7472 3.20039 20.7139 3.15707C20.6806 3.11374 20.639 3.07742 20.5916 3.05018Z" fill="#747474"/>
<path d="M13.5 10.5C13.5 12.1569 12.1569 13.5 10.5 13.5C8.84315 13.5 7.5 12.1569 7.5 10.5C7.5 8.84315 8.84315 7.5 10.5 7.5C12.1569 7.5 13.5 8.84315 13.5 10.5Z" stroke="#747474"/>
</svg>
