<svg width="21" height="20" viewBox="0 0 21 20" fill="none" xmlns="http://www.w3.org/2000/svg">
<path d="M13.8337 7.08338C14.9445 8.56505 14.9445 11.4351 13.8337 12.9167M16.3337 4.16672C19.657 7.34005 19.677 12.6809 16.3337 15.8334M2.16699 12.4659V7.53338C2.16699 7.05505 2.54033 6.66672 3.00033 6.66672H5.98866C6.09894 6.66633 6.20799 6.6436 6.30925 6.59992C6.41051 6.55624 6.50187 6.4925 6.57783 6.41255L9.07783 3.58922C9.60283 3.04255 10.5003 3.43005 10.5003 4.20255V15.7976C10.5003 16.5759 9.59199 16.9601 9.07033 16.4026L6.57866 13.5951C6.50249 13.5128 6.4102 13.4472 6.30755 13.4021C6.2049 13.3571 6.09408 13.3337 5.98199 13.3334H3.00033C2.54033 13.3334 2.16699 12.9451 2.16699 12.4659Z" stroke="#D8D8D4" stroke-opacity="0.8" stroke-width="1.5" stroke-linecap="round" stroke-linejoin="round"/>
</svg>
