<svg width="34" height="34" viewBox="0 0 34 34" fill="none" xmlns="http://www.w3.org/2000/svg">
<g clip-path="url(#clip0_1142_16373)">
<path d="M15.123 8.94375L19.0879 29.3411C19.3764 30.8252 18.4071 32.2621 16.923 32.5506C15.7874 32.7714 14.6355 32.2544 14.0457 31.2591L8.94302 22.5066M27.9245 17.7348C30.4545 17.243 32.1068 14.7934 31.615 12.2634C31.1232 9.73344 28.6736 8.08115 26.1436 8.57293M8.94302 22.5066C6.57543 22.002 4.62048 20.1322 4.12945 17.6061C3.47375 14.2328 5.67679 10.9666 9.05009 10.3109L11.8477 9.76712C18.1092 8.54999 23.1242 5.61954 24.9564 2.46503L29.1118 23.8427C26.2313 21.6042 20.4837 20.7658 14.2222 21.9829L11.4246 22.5267C10.5774 22.6914 9.73701 22.6757 8.94302 22.5066Z" stroke="#C4A767" stroke-width="2" stroke-linecap="round" stroke-linejoin="round"/>
</g>
<defs>
<clipPath id="clip0_1142_16373">
<rect width="34" height="34" fill="white"/>
</clipPath>
</defs>
</svg>
