<svg width="32" height="32" viewBox="0 0 32 32" fill="none" xmlns="http://www.w3.org/2000/svg">
<path d="M14.6886 2.73C15.142 1.53434 16.8576 1.53434 17.3123 2.73L20.2448 10.8532C20.3471 11.1178 20.5273 11.3452 20.7615 11.5053C20.9957 11.6654 21.2729 11.7507 21.5566 11.7499H28.7632C30.0949 11.7499 30.6757 13.4074 29.6288 14.2192L24.5005 18.8333C24.2708 19.0098 24.1029 19.2547 24.0209 19.5326C23.939 19.8105 23.9472 20.1073 24.0443 20.3803L25.9171 28.3178C26.3733 29.5928 24.8971 30.6879 23.7808 29.9031L16.8151 25.4831C16.5765 25.3154 16.292 25.2255 16.0005 25.2255C15.7089 25.2255 15.4244 25.3154 15.1859 25.4831L8.22014 29.9031C7.10522 30.6879 5.62764 29.5914 6.08381 28.3178L7.95664 20.3803C8.05379 20.1073 8.06198 19.8105 7.98003 19.5326C7.89808 19.2547 7.7302 19.0098 7.50047 18.8333L2.37214 14.2192C1.32381 13.4074 1.90747 11.7499 3.23631 11.7499H10.4429C10.7266 11.7509 11.004 11.6656 11.2382 11.5055C11.4725 11.3454 11.6526 11.1179 11.7547 10.8532L14.6886 2.73Z" stroke="#C4A767" stroke-width="2" stroke-linecap="round" stroke-linejoin="round"/>
</svg>
