<svg width="20" height="20" viewBox="0 0 20 20" fill="none" xmlns="http://www.w3.org/2000/svg">
<g clip-path="url(#clip0_600_5182)">
<path d="M4.16699 3.33317C4.16699 2.89114 4.34259 2.46722 4.65515 2.15466C4.96771 1.8421 5.39163 1.6665 5.83366 1.6665H14.167C14.609 1.6665 15.0329 1.8421 15.3455 2.15466C15.6581 2.46722 15.8337 2.89114 15.8337 3.33317V7.49984C15.8337 9.04693 15.2191 10.5307 14.1251 11.6246C13.0312 12.7186 11.5474 13.3332 10.0003 13.3332C8.45323 13.3332 6.9695 12.7186 5.87554 11.6246C4.78157 10.5307 4.16699 9.04693 4.16699 7.49984V3.33317ZM7.50033 18.3332H12.5003L10.0003 14.1665L7.50033 18.3332Z" stroke="#951D24" stroke-width="1.5" stroke-linecap="round" stroke-linejoin="round"/>
<path d="M4.16699 3.33301H3.33366C2.89163 3.33301 2.46771 3.5086 2.15515 3.82116C1.84259 4.13372 1.66699 4.55765 1.66699 4.99967V6.03217C1.66698 6.63799 1.83207 7.23236 2.14451 7.75139C2.45696 8.27042 2.90495 8.69449 3.44033 8.97801L4.58366 9.58301M15.8337 3.33301H16.667C17.109 3.33301 17.5329 3.5086 17.8455 3.82116C18.1581 4.13372 18.3337 4.55765 18.3337 4.99967V5.53051C18.3337 6.28781 18.1274 7.03082 17.7368 7.67964C17.3463 8.32847 16.7862 8.85859 16.117 9.21301L15.417 9.58301" stroke="#951D24" stroke-width="1.5" stroke-linejoin="round"/>
</g>
<defs>
<clipPath id="clip0_600_5182">
<rect width="20" height="20" fill="white"/>
</clipPath>
</defs>
</svg>
