<svg width="20" height="20" viewBox="0 0 20 20" fill="none" xmlns="http://www.w3.org/2000/svg">
<g clip-path="url(#clip0_959_10286)">
<path d="M4.16699 3.33366C4.16699 2.89163 4.34259 2.46771 4.65515 2.15515C4.96771 1.84259 5.39163 1.66699 5.83366 1.66699H14.167C14.609 1.66699 15.0329 1.84259 15.3455 2.15515C15.6581 2.46771 15.8337 2.89163 15.8337 3.33366V7.50033C15.8337 9.04742 15.2191 10.5312 14.1251 11.6251C13.0312 12.7191 11.5474 13.3337 10.0003 13.3337C8.45323 13.3337 6.9695 12.7191 5.87554 11.6251C4.78157 10.5312 4.16699 9.04742 4.16699 7.50033V3.33366ZM7.50033 18.3337H12.5003L10.0003 14.167L7.50033 18.3337Z" stroke="#C4A767" stroke-width="1.5" stroke-linecap="round" stroke-linejoin="round"/>
<path d="M4.16699 3.33398H3.33366C2.89163 3.33398 2.46771 3.50958 2.15515 3.82214C1.84259 4.1347 1.66699 4.55862 1.66699 5.00065V6.03315C1.66698 6.63897 1.83207 7.23333 2.14451 7.75236C2.45696 8.27139 2.90495 8.69546 3.44033 8.97898L4.58366 9.58398M15.8337 3.33398H16.667C17.109 3.33398 17.5329 3.50958 17.8455 3.82214C18.1581 4.1347 18.3337 4.55862 18.3337 5.00065V5.53148C18.3337 6.28879 18.1274 7.03179 17.7368 7.68062C17.3463 8.32945 16.7862 8.85956 16.117 9.21398L15.417 9.58398" stroke="#C4A767" stroke-width="1.5" stroke-linejoin="round"/>
</g>
<defs>
<clipPath id="clip0_959_10286">
<rect width="20" height="20" fill="white"/>
</clipPath>
</defs>
</svg>
