<svg width="20" height="20" viewBox="0 0 20 20" fill="none" xmlns="http://www.w3.org/2000/svg">
<path d="M6.99963 10.0001L8.99963 12.0001L12.9996 8.00012M5.83437 2.69717C6.55191 2.63991 7.23309 2.35775 7.78095 1.89087C9.05944 0.801351 10.9398 0.801351 12.2183 1.89087C12.7662 2.35775 13.4474 2.63991 14.1649 2.69717C15.8393 2.83079 17.169 4.16043 17.3026 5.83486C17.3598 6.55239 17.642 7.23358 18.1089 7.78144C19.1984 9.05993 19.1984 10.9403 18.1089 12.2188C17.642 12.7667 17.3598 13.4479 17.3026 14.1654C17.169 15.8398 15.8393 17.1695 14.1649 17.3031C13.4474 17.3603 12.7662 17.6425 12.2183 18.1094C10.9398 19.1989 9.05944 19.1989 7.78095 18.1094C7.23309 17.6425 6.55191 17.3603 5.83437 17.3031C4.15994 17.1695 2.8303 15.8398 2.69668 14.1654C2.63942 13.4478 2.35727 12.7667 1.89038 12.2188C0.800862 10.9403 0.800862 9.05993 1.89038 7.78144C2.35727 7.23358 2.63942 6.55239 2.69668 5.83486C2.8303 4.16043 4.15994 2.83079 5.83437 2.69717Z" stroke="#565656" stroke-width="2" stroke-linecap="round" stroke-linejoin="round"/>
</svg>
