<svg width="20" height="20" viewBox="0 0 20 20" fill="none" xmlns="http://www.w3.org/2000/svg">
<path d="M1.66699 6.66667L2.75366 7.53583C3.13223 7.83863 3.57229 8.0552 4.04315 8.17046C4.51402 8.28573 5.00436 8.2969 5.47998 8.2032C5.95561 8.1095 6.40508 7.91319 6.79704 7.62795C7.18901 7.34272 7.51405 6.97542 7.74949 6.55167L10.0003 2.5L12.2512 6.55167C12.4867 6.97548 12.8118 7.34282 13.2039 7.62807C13.5959 7.91331 14.0455 8.10959 14.5212 8.20321C14.997 8.29683 15.4874 8.28554 15.9583 8.17014C16.4292 8.05473 16.8693 7.83798 17.2478 7.535L18.3337 6.66667L16.872 13.975C16.8082 14.2939 16.6724 14.5941 16.475 14.8526C16.2775 15.1111 16.0237 15.3211 15.7328 15.4667C13.953 16.3567 11.9903 16.82 10.0003 16.82C8.01034 16.82 6.04769 16.3567 4.26783 15.4667C3.97693 15.3211 3.7231 15.1111 3.52568 14.8526C3.32827 14.5941 3.19248 14.2939 3.12866 13.975L1.66699 6.66667Z" stroke="#C4A767" stroke-width="1.5" stroke-linecap="round" stroke-linejoin="round"/>
<path d="M6.66699 12.5C8.83033 13.6108 11.1703 13.6108 13.3337 12.5" stroke="#C4A767" stroke-width="1.5" stroke-linecap="round" stroke-linejoin="round"/>
</svg>
