<svg width="21" height="15" viewBox="0 0 21 15" fill="none" xmlns="http://www.w3.org/2000/svg">
<g clip-path="url(#clip0_927_24677)">
<mask id="mask0_927_24677" style="mask-type:alpha" maskUnits="userSpaceOnUse" x="0" y="0" width="21" height="15">
<path d="M19 0H2C0.89543 0 0 0.89543 0 2V13C0 14.1046 0.89543 15 2 15H19C20.1046 15 21 14.1046 21 13V2C21 0.89543 20.1046 0 19 0Z" fill="white"/>
</mask>
<g mask="url(#mask0_927_24677)">
<path d="M19 0H2C0.89543 0 0 0.89543 0 2V13C0 14.1046 0.89543 15 2 15H19C20.1046 15 21 14.1046 21 13V2C21 0.89543 20.1046 0 19 0Z" fill="#D0091E"/>
<path fill-rule="evenodd" clip-rule="evenodd" d="M0 8H21V15H0V8Z" fill="black"/>
<path fill-rule="evenodd" clip-rule="evenodd" d="M13.31 9.58586C13.744 9.00386 14 8.28186 14 7.49986C14 6.03286 13.097 4.77686 11.817 4.25586L11.212 5.10286C12.246 5.40986 13 6.36686 13 7.49986C13 8.09386 12.793 8.63986 12.447 9.06786L8.99999 6.99986L11.696 9.69586C11.341 9.88986 10.933 9.99986 10.5 9.99986C9.65999 9.99986 8.91699 9.58586 8.46399 8.94986L7.85899 9.79686C8.49999 10.5339 9.44499 10.9999 10.5 10.9999C11.21 10.9999 11.872 10.7879 12.424 10.4239L13 10.9999L14 9.99986L13.31 9.58586ZM8.99999 4.99986H9.99999V5.99986H8.99999V4.99986Z" fill="#FAD800"/>
<path d="M19 0.5H2C1.17157 0.5 0.5 1.17157 0.5 2V13C0.5 13.8284 1.17157 14.5 2 14.5H19C19.8284 14.5 20.5 13.8284 20.5 13V2C20.5 1.17157 19.8284 0.5 19 0.5Z" stroke="black" stroke-opacity="0.1"/>
</g>
</g>
<defs>
<clipPath id="clip0_927_24677">
<rect width="21" height="15" fill="white"/>
</clipPath>
</defs>
</svg>
