<svg width="21" height="15" viewBox="0 0 21 15" fill="none" xmlns="http://www.w3.org/2000/svg">
<g clip-path="url(#clip0_927_24745)">
<mask id="mask0_927_24745" style="mask-type:alpha" maskUnits="userSpaceOnUse" x="0" y="0" width="21" height="15">
<path d="M19 0H2C0.89543 0 0 0.89543 0 2V13C0 14.1046 0.89543 15 2 15H19C20.1046 15 21 14.1046 21 13V2C21 0.89543 20.1046 0 19 0Z" fill="white"/>
</mask>
<g mask="url(#mask0_927_24745)">
<path d="M19 0H2C0.89543 0 0 0.89543 0 2V13C0 14.1046 0.89543 15 2 15H19C20.1046 15 21 14.1046 21 13V2C21 0.89543 20.1046 0 19 0Z" fill="#DE2910"/>
<path fill-rule="evenodd" clip-rule="evenodd" d="M10.155 7.51434C7.44299 6.36634 8.64499 2.83034 11.24 3.00634C10.714 3.27634 10.638 3.78034 10.938 4.24634C11.274 4.77034 10.908 5.61134 10.454 5.81634C9.70799 6.15134 9.55899 7.04634 10.154 7.51434H10.155ZM10.382 7.39234C10.635 4.45934 14.372 4.50934 15.002 7.03034C14.584 6.61534 14.082 6.69834 13.73 7.12834C13.337 7.60834 12.424 7.51834 12.09 7.15134C11.54 6.54734 10.64 6.68134 10.382 7.39334V7.39234ZM10.474 7.68534C13.354 7.07034 14.398 10.6573 12.171 11.9993C12.447 11.4763 12.221 11.0193 11.707 10.8093C11.133 10.5733 10.951 9.67434 11.205 9.24734C11.623 8.54434 11.231 7.72434 10.475 7.68434L10.474 7.68534ZM6.74999 10.9803C7.32999 11.0803 7.69499 10.7233 7.73599 10.1703C7.78299 9.55034 8.58099 9.10034 9.06599 9.21034C9.86399 9.39034 10.523 8.76434 10.326 8.03234C11.802 10.5823 8.71299 12.6823 6.74899 10.9793L6.74999 10.9803ZM6.15299 5.50034C6.26799 6.07834 6.73099 6.29034 7.26299 6.13034C7.85799 5.95234 8.56499 6.53634 8.63599 7.03034C8.75399 7.83834 9.57399 8.22834 10.186 7.78434C8.33599 10.0743 5.26599 7.94434 6.15299 5.49934V5.50034Z" fill="white"/>
<path d="M19 0.5H2C1.17157 0.5 0.5 1.17157 0.5 2V13C0.5 13.8284 1.17157 14.5 2 14.5H19C19.8284 14.5 20.5 13.8284 20.5 13V2C20.5 1.17157 19.8284 0.5 19 0.5Z" stroke="black" stroke-opacity="0.1"/>
</g>
</g>
<defs>
<clipPath id="clip0_927_24745">
<rect width="21" height="15" fill="white"/>
</clipPath>
</defs>
</svg>
