<svg width="21" height="15" viewBox="0 0 21 15" fill="none" xmlns="http://www.w3.org/2000/svg">
<g clip-path="url(#clip0_927_24791)">
<mask id="mask0_927_24791" style="mask-type:alpha" maskUnits="userSpaceOnUse" x="0" y="0" width="21" height="15">
<path d="M19 0H2C0.89543 0 0 0.89543 0 2V13C0 14.1046 0.89543 15 2 15H19C20.1046 15 21 14.1046 21 13V2C21 0.89543 20.1046 0 19 0Z" fill="white"/>
</mask>
<g mask="url(#mask0_927_24791)">
<path d="M19 0H2C0.89543 0 0 0.89543 0 2V13C0 14.1046 0.89543 15 2 15H19C20.1046 15 21 14.1046 21 13V2C21 0.89543 20.1046 0 19 0Z" fill="#006331"/>
<path fill-rule="evenodd" clip-rule="evenodd" d="M10.498 7.25002L9.028 8.02302L9.30799 6.38602L8.12 5.22602L9.76299 4.98902L10.498 3.49902L11.232 4.98902L12.875 5.22602L11.685 6.38602L11.967 8.02202" fill="#FFC500"/>
<path fill-rule="evenodd" clip-rule="evenodd" d="M14.965 5.93752C14.988 6.12152 15 6.30952 15 6.49952C15 8.98452 12.985 10.9995 10.5 10.9995C8.015 10.9995 6 8.98452 6 6.49952C6 6.30952 6.012 6.12152 6.035 5.93652C6.312 7.66452 8.205 8.99952 10.5 8.99952C12.795 8.99952 14.688 7.66352 14.965 5.93652V5.93752Z" fill="#FFC500"/>
<path d="M19 0.5H2C1.17157 0.5 0.5 1.17157 0.5 2V13C0.5 13.8284 1.17157 14.5 2 14.5H19C19.8284 14.5 20.5 13.8284 20.5 13V2C20.5 1.17157 19.8284 0.5 19 0.5Z" stroke="black" stroke-opacity="0.1"/>
</g>
</g>
<defs>
<clipPath id="clip0_927_24791">
<rect width="21" height="15" fill="white"/>
</clipPath>
</defs>
</svg>
