<svg width="70" height="48" viewBox="0 0 70 48" fill="none" xmlns="http://www.w3.org/2000/svg">
<path d="M41.8749 5.35472L41.0605 6.62716L40.8969 6.88278L40.0969 8.13275L39.918 8.41224L39.1342 9.63693L38.9409 9.9389L38.1714 11.1411L37.962 11.4684L37.4352 12.2914L37.2078 12.6467L36.984 12.9964L36.2451 14.1509L36.0051 14.5259L35.3363 15.5708L35.081 15.9697L34.3735 17.075L34.103 17.4977L33.4108 18.5792L33.125 19.0258L32.947 19.3039C32.7564 19.6016 32.6131 19.9155 32.4786 20.231C32.3738 20.4784 32.2973 20.7281 32.2256 20.9827C31.7023 22.8482 32.0698 24.8438 33.2212 26.3865C33.418 26.6494 33.6227 26.9093 33.8648 27.1417C34.1307 27.3989 34.4326 27.6278 34.7505 27.841C34.7934 27.8701 34.8285 27.9082 34.8723 27.9359L35.3494 28.2382L36.1823 28.7659L36.7992 29.1567L37.6095 29.67L38.2475 30.0743L38.9562 30.5232L39.614 30.94L40.3833 31.4274L41.0637 31.8585L41.8119 32.3325L41.9234 32.4031L42.5135 32.777L43.2391 33.2367L43.9618 33.6946L44.6648 34.1399L45.4102 34.6121L46.092 35.0441L46.8585 35.5297L47.5192 35.9483L48.3083 36.4482L48.9463 36.8525L48.9718 36.8686C49.2174 37.0242 49.4769 37.1333 49.7333 37.2504C49.9302 37.3395 50.1233 37.4284 50.3253 37.4971C50.5769 37.5815 50.8314 37.6519 51.0878 37.7038C51.2478 37.7361 51.4056 37.7591 51.5653 37.7793C51.812 37.8093 52.0589 37.8295 52.3064 37.8304C52.4824 37.8313 52.6567 37.8194 52.8314 37.8037C53.0719 37.7844 53.3128 37.7613 53.5487 37.7153C53.7192 37.6813 53.8839 37.6316 54.0515 37.5838C54.2841 37.518 54.5181 37.453 54.7422 37.3601C54.9088 37.292 55.0657 37.2019 55.2264 37.1182C55.4492 37.0026 55.6762 36.8958 55.885 36.7557C56.0502 36.6432 56.1944 36.5016 56.35 36.3732C56.5617 36.1974 56.772 36.0208 56.9613 35.815C57.1215 35.6421 57.2628 35.4493 57.4049 35.2551C57.4821 35.15 57.574 35.0622 57.645 34.9512L57.9551 34.4667L58.3938 33.7813L58.9179 32.9625L59.3727 32.2518L59.8806 31.4583L60.3516 30.7224L60.8433 29.9541L61.2757 29.2786L61.7521 28.5342L62.1342 27.9373L62.2555 27.7477L62.7158 27.0286L63.2353 26.2169L63.6794 25.523L64.2142 24.6874L64.6421 24.0189L65.1931 23.1579L65.6048 22.5147L66.172 21.6285L66.5676 21.0105L66.6242 20.922C66.8265 20.606 66.9838 20.2734 67.1225 19.9389C67.2551 19.6202 67.3471 19.2935 67.4228 18.9645C67.8277 17.2096 67.4625 15.3654 66.4095 13.9107C66.257 13.6995 66.0815 13.5055 65.9015 13.3125C65.5866 12.9768 65.238 12.6691 64.8415 12.4021C64.7915 12.3685 64.7525 12.324 64.7003 12.2909L64.418 12.112L63.3875 11.4592L62.9908 11.2079L61.9391 10.5416L61.5622 10.3028L60.4894 9.62308L60.1336 9.39771L59.0396 8.7046L58.7051 8.49265L57.6492 7.82368L57.5913 7.78701L57.2779 7.58847L56.2248 6.92129L55.9298 6.73437L54.7765 6.0037L54.5026 5.83019L53.3281 5.0861L53.074 4.92513L51.8784 4.16762L51.6455 4.02005L50.6009 3.35825C50.5472 3.32426 50.4888 3.307 50.4343 3.27442C50.367 3.23379 50.2945 3.20759 50.2269 3.17066C49.846 2.96291 49.453 2.79882 49.0503 2.67789C48.989 2.65885 48.9265 2.64492 48.8658 2.62817C48.4918 2.52743 48.1172 2.46179 47.7367 2.43001C47.68 2.42565 47.6233 2.4213 47.5657 2.41834C47.199 2.39921 46.838 2.41135 46.4768 2.45492C46.4226 2.46205 46.3694 2.46779 46.3152 2.47493C45.9575 2.52859 45.6087 2.61161 45.2652 2.72363C45.2131 2.73996 45.1609 2.7563 45.1093 2.77493C44.7835 2.89028 44.4728 3.03487 44.1676 3.20475C44.1157 3.23309 44.0648 3.26002 44.0143 3.28925C43.6759 3.48938 43.3596 3.72325 43.0611 3.98814C43.0105 4.03308 42.9561 4.07163 42.9069 4.11746C42.5837 4.42398 42.2872 4.76319 42.0279 5.14367C41.9959 5.19052 41.9553 5.22602 41.9248 5.27377L41.8749 5.35472ZM42.6452 5.73219C42.78 5.52152 42.9439 5.34303 43.1001 5.15778C43.2148 5.77526 43.3276 6.38956 43.4423 7.00703C43.1224 7.15967 42.8067 7.31499 42.4994 7.49138C42.4211 7.10225 42.3442 6.71401 42.2659 6.32487L42.6452 5.73219ZM50.4281 4.25747C50.5098 4.70011 50.5911 5.14047 50.6728 5.58311C50.3251 5.5622 49.975 5.55749 49.6278 5.56058C49.4981 4.91386 49.3689 4.26941 49.2383 3.62409C49.5468 3.74652 49.8507 3.8917 50.1415 4.07593L50.4281 4.25747ZM64.2424 13.0095C64.3892 13.1025 64.5072 13.2187 64.6408 13.3231C65.0791 15.7011 65.5145 18.0555 65.9445 20.3907C65.9283 20.416 65.9209 20.4429 65.9048 20.4682L65.3636 21.3137C64.7857 18.4347 64.2031 15.5291 63.6184 12.6142L64.2424 13.0095ZM66.7258 17.7905C66.6994 18.4331 66.5657 19.0729 66.301 19.6849C65.9015 17.6927 65.5 15.6914 65.0964 13.6808C65.6067 14.1699 66.001 14.7474 66.2783 15.3712C66.4281 16.1787 66.577 16.9876 66.7258 17.7905ZM57.7148 33.2643C57.6593 32.9883 57.6054 32.7192 57.5499 32.4433C57.7286 32.3314 57.9136 32.2315 58.087 32.1124C58.1152 32.2606 58.142 32.4078 58.1688 32.555L57.7148 33.2643ZM56.9265 34.496C56.8726 34.5803 56.8025 34.6464 56.7438 34.7257C56.6338 34.1783 56.5244 33.6333 56.4134 33.0813C56.5944 32.9907 56.7783 32.9079 56.955 32.8086C57.0326 33.2328 57.1127 33.6626 57.1899 34.0845L56.9265 34.496ZM55.6985 35.8164C55.5507 35.0832 55.4033 34.3463 55.2554 33.6071C55.4391 33.534 55.622 33.4623 55.8004 33.3819C55.9261 34.0596 56.0516 34.7471 56.1738 35.4148C56.0251 35.5634 55.8616 35.6887 55.6985 35.8164ZM54.5739 36.5133C54.4085 35.6899 54.2424 34.8583 54.0748 34.0258C54.2598 33.9692 54.4424 33.9072 54.6258 33.8438C54.7737 34.6481 54.9225 35.451 55.0673 36.2416C54.904 36.3355 54.7436 36.4372 54.5739 36.5133ZM38.0157 28.9207C38.0002 28.8457 37.9856 28.7693 37.97 28.6944C38.0656 28.824 38.1658 28.9526 38.267 29.0798L38.0157 28.9207ZM35.1094 27.0478C34.6274 24.6421 34.1398 22.2171 33.6522 19.7862C33.6575 19.7777 33.6592 19.7689 33.6646 19.7605L34.328 18.724C34.882 21.724 35.4298 24.6965 35.9698 27.6284L35.3289 27.2224C35.2503 27.1686 35.188 27.1016 35.1094 27.0478ZM32.8651 22.1597C32.9222 21.5405 33.0895 20.9319 33.3687 20.3468C33.7551 22.4432 34.1382 24.5198 34.5183 26.5825C34.0811 26.1713 33.7428 25.6925 33.4706 25.1785C33.2698 24.1748 33.0675 23.1702 32.8651 22.1597ZM41.5602 9.12301C41.8528 8.90766 42.1517 8.70419 42.4583 8.51349C42.5307 8.46856 42.6031 8.42364 42.6746 8.38012C42.9772 8.19874 43.2866 8.03155 43.6008 7.87533C43.673 7.84011 43.7437 7.80399 43.8172 7.76966C44.1284 7.62136 44.4445 7.48403 44.7659 7.36C44.8373 7.33218 44.9101 7.30527 44.9829 7.27834C45.2809 7.16912 45.5805 7.06678 45.8841 6.97684C45.957 6.95592 46.0305 6.9373 46.1025 6.91778C46.4302 6.82734 46.7571 6.74429 47.0905 6.67913C47.1649 6.66511 47.239 6.65479 47.3126 6.64217C47.6455 6.58072 47.9791 6.52756 48.3163 6.4905C48.3909 6.48248 48.4679 6.47994 48.5439 6.47281C48.8827 6.44265 49.2219 6.41479 49.5626 6.40953C49.641 6.40789 49.7186 6.41366 49.7976 6.41432C50.1407 6.41455 50.4857 6.41797 50.8307 6.4431C50.9121 6.44925 50.9932 6.46512 51.0746 6.47128C51.4248 6.50369 51.7733 6.5389 52.1209 6.59724C52.2066 6.61208 52.2898 6.63714 52.3755 6.65198C52.7298 6.71849 53.0841 6.791 53.4353 6.88714C53.5268 6.91156 53.6148 6.94758 53.7045 6.97481C54.0652 7.08091 54.4237 7.19352 54.778 7.33117C54.8749 7.36887 54.9692 7.41679 55.0666 7.45679C55.4338 7.60848 55.7975 7.77179 56.1543 7.95835C56.2599 8.01342 56.3625 8.07641 56.4663 8.13429C56.7096 8.2687 56.9546 8.39431 57.1917 8.54456C57.2962 8.61074 57.3898 8.68777 57.4924 8.75676C57.6092 8.8347 57.7196 8.91645 57.8322 8.99771C58.2291 9.28273 58.6064 9.58293 58.9646 9.90064C59.0899 10.0116 59.2249 10.1169 59.3453 10.2327C59.7736 10.6422 60.1613 11.0812 60.5269 11.536C60.6876 11.7345 60.8441 11.9363 60.9933 12.1433C61.5142 12.8701 61.959 13.6414 62.3251 14.4458C63.2598 16.5007 63.6831 18.7626 63.5371 21.0211C63.4902 21.7454 63.3721 22.4661 63.2071 23.1828C63.1178 23.5703 63.0107 23.9545 62.8874 24.3363C62.7531 24.7507 62.5969 25.159 62.4207 25.5646C62.2932 25.8568 62.1633 26.1496 62.0138 26.4359C61.8586 26.7343 61.6893 27.0297 61.5093 27.3203C61.4765 27.3746 61.4503 27.431 61.4162 27.4844C61.2993 27.667 61.1663 27.8314 61.0442 28.0067C60.8922 28.2224 60.7465 28.4439 60.5846 28.6473C60.4244 28.8479 60.2487 29.0326 60.08 29.2218C59.9062 29.4157 59.7339 29.6106 59.5516 29.7931C59.3793 29.9662 59.1984 30.128 59.0175 30.2897C58.8407 30.4482 58.6634 30.6043 58.4794 30.7522C58.2964 30.8988 58.1085 31.0404 57.9197 31.1773C57.7414 31.3071 57.5611 31.4338 57.3761 31.5554C57.1847 31.6809 56.9903 31.7986 56.7955 31.914C56.6143 32.0203 56.4312 32.1234 56.2457 32.221C56.0483 32.3249 55.8479 32.421 55.6447 32.5154C55.4604 32.6019 55.2769 32.687 55.0891 32.7634C54.8862 32.8481 54.6783 32.9217 54.4719 32.9962C54.2844 33.0629 54.1001 33.1337 53.9096 33.1927C53.7012 33.258 53.4896 33.3095 53.2786 33.3634C53.0884 33.4126 52.9011 33.4696 52.7079 33.5111C52.4962 33.5566 52.2796 33.5852 52.0644 33.6206C51.8706 33.6537 51.6788 33.6961 51.4852 33.7195C51.2681 33.7457 51.0491 33.7531 50.8312 33.771C50.6574 33.7853 50.4833 33.8032 50.3102 33.8101C50.0904 33.8188 49.8697 33.8133 49.6501 33.8123C49.4486 33.811 49.2462 33.8111 49.0449 33.8C48.8228 33.7876 48.5999 33.7668 48.378 33.7446C48.1696 33.7231 47.9625 33.7025 47.7544 33.6713C47.5299 33.6376 47.3047 33.5957 47.0814 33.5509C46.8661 33.5092 46.6511 33.4638 46.4369 33.411C46.2096 33.3539 45.9839 33.2879 45.7601 33.2191C45.5363 33.1504 45.3125 33.0816 45.0912 33.0026C44.862 32.9205 44.6357 32.8246 44.4094 32.7286C44.1752 32.6296 43.9406 32.5342 43.7108 32.4222C43.4781 32.3083 43.252 32.1749 43.0232 32.0458C42.8099 31.9264 42.594 31.8173 42.3851 31.6849C42.3498 31.6626 42.3186 31.6369 42.2842 31.6131C42.0451 31.4597 41.8197 31.2912 41.5947 31.125C41.3165 30.9211 41.052 30.7081 40.7943 30.4876C40.5589 30.2852 40.3211 30.0832 40.1021 29.8674C39.7887 29.5603 39.4918 29.24 39.2127 28.9072C38.957 28.6031 38.7173 28.2894 38.4905 27.968C38.1099 27.4249 37.7836 26.8529 37.488 26.2669C37.0892 25.4734 36.7696 24.6491 36.5316 23.7996C36.3807 22.9815 36.2282 22.1565 36.0771 21.3324C36.0089 20.5864 35.9917 19.8353 36.0459 19.084C36.1039 18.3114 36.2339 17.541 36.4254 16.78C36.4867 16.5385 36.5583 16.2996 36.6321 16.0602C36.803 15.5111 37.0107 14.9696 37.2544 14.437C37.3285 14.2747 37.3918 14.1076 37.4725 13.9475C37.6798 13.5399 37.9067 13.1388 38.1584 12.7456C38.1692 12.7287 38.1819 12.7151 38.1927 12.6982C38.2646 12.5858 38.3465 12.4858 38.4217 12.3775C38.6691 12.019 38.9287 11.6722 39.2022 11.3441C39.276 11.2566 39.3532 11.1733 39.4275 11.0881C39.6923 10.7861 39.9685 10.4971 40.2552 10.2228C40.328 10.1525 40.4027 10.0853 40.4769 10.0159C40.7571 9.76104 41.0458 9.51759 41.3436 9.28781C41.414 9.23369 41.4876 9.17765 41.5602 9.12301ZM40.7755 8.65347L41.1243 8.10854C41.139 8.19091 41.1546 8.27187 41.1694 8.35425C41.0358 8.45126 40.9057 8.55237 40.7755 8.65347ZM35.3083 17.1954C35.3309 17.3183 35.3534 17.4412 35.376 17.564C35.159 18.7866 35.1135 20.0231 35.2103 21.2451C35.0117 20.2567 34.8144 19.2691 34.6153 18.2783L35.3083 17.1954ZM35.9096 24.7281C36.2396 25.7129 36.6834 26.6593 37.22 27.5599C37.2797 27.882 37.3396 28.2101 37.3993 28.5321L36.5678 28.0054C36.3489 26.9152 36.1295 25.8228 35.9096 24.7281ZM46.6153 34.3195C46.8242 34.3651 47.0329 34.4203 47.2435 34.457C47.2651 34.5753 47.2875 34.6921 47.309 34.8104L46.6272 34.3784C46.6226 34.3577 46.6194 34.3379 46.6153 34.3195ZM47.9265 34.5462C48.1299 34.5725 48.3325 34.6001 48.5352 34.6181C48.6019 34.982 48.671 35.3515 48.7371 35.7132L48.0764 35.2946C48.0257 35.0453 47.9763 34.7969 47.9265 34.5462ZM49.2119 34.652C49.4098 34.6589 49.6063 34.665 49.8036 34.6636C49.9164 35.2779 50.0326 35.9023 50.1425 36.5088C49.9325 36.4152 49.7234 36.3203 49.5217 36.1984C49.4189 35.6832 49.3157 35.1717 49.2119 34.652ZM50.4756 34.6491C50.6458 34.6405 50.8144 34.625 50.9822 34.6109C51.1243 35.3839 51.2668 36.1532 51.4059 36.9125C51.2344 36.8828 51.0692 36.8216 50.9016 36.7766C50.76 36.071 50.6187 35.3616 50.4756 34.6491ZM51.6496 34.554C51.8394 34.5301 52.0265 34.4888 52.2157 34.4567C52.3714 35.3015 52.5261 36.1417 52.6782 36.9704C52.4965 36.9816 52.3172 36.9766 52.1336 36.9688C51.9738 36.1708 51.8114 35.3612 51.6496 34.554ZM52.8731 34.3441C53.0593 34.3042 53.2434 34.2491 53.4305 34.2018C53.5873 35.0572 53.744 35.9066 53.8987 36.7468C53.7271 36.798 53.5583 36.8509 53.3831 36.8859C53.2135 36.0442 53.0433 35.1942 52.8731 34.3441ZM58.6605 31.6783C58.7062 31.6441 58.751 31.6112 58.7953 31.5761L58.6776 31.7601C58.6728 31.7334 58.6667 31.7059 58.6605 31.6783ZM64.4009 22.8179C64.3563 22.5962 64.3122 22.3768 64.2676 22.1551C64.4441 20.9029 64.4653 19.6391 64.3156 18.3974C64.5356 19.585 64.7503 20.7593 64.9672 21.9331L64.4009 22.8179ZM64.0062 16.717C63.6674 15.3121 63.117 13.9586 62.3723 12.7012C62.3049 12.3663 62.2375 12.0314 62.1701 11.6966L63.2006 12.3495C63.4701 13.8131 63.7398 15.2671 64.0062 16.717ZM61.8495 11.8626C61.6809 11.6176 61.4908 11.3847 61.3062 11.1493L61.7734 11.4453C61.7987 11.5856 61.8234 11.7237 61.8495 11.8626ZM52.1944 5.74765C52.1664 5.60551 52.1374 5.46478 52.1093 5.32264L53.0777 5.93615C52.7829 5.86978 52.4903 5.7969 52.1944 5.74765ZM51.9594 5.72115C51.6059 5.66894 51.2526 5.62275 50.9002 5.59685C50.8212 5.19941 50.7413 4.80337 50.6615 4.40734L51.8572 5.16484C51.8898 5.34938 51.9248 5.53342 51.9594 5.72115ZM49.4076 5.55731C49.0629 5.56589 48.7206 5.60168 48.3786 5.63376C48.221 4.8509 48.0643 4.07263 47.9095 3.29155C48.2898 3.33904 48.6681 3.42075 49.0366 3.55162C49.1603 4.22019 49.2826 4.88786 49.4076 5.55731ZM48.1631 5.6512C47.8213 5.68928 47.4841 5.74804 47.1474 5.80911C46.9778 4.96737 46.8102 4.12883 46.6411 3.28939C46.9996 3.25003 47.3612 3.24618 47.7226 3.27974C47.8697 4.06976 48.0178 4.85838 48.1631 5.6512ZM46.9383 5.84443C46.6017 5.9115 46.2696 5.99326 45.9382 6.08332C45.7695 5.24017 45.6005 4.40073 45.4314 3.56129C45.7688 3.44339 46.1138 3.35998 46.4689 3.31054C46.6246 4.15534 46.7812 4.99873 46.9383 5.84443ZM45.7314 6.13983C45.4227 6.22849 45.1183 6.32584 44.8151 6.43378C44.6564 5.64632 44.4997 4.86206 44.3415 4.07689C44.6353 3.89385 44.9426 3.73916 45.2631 3.61654C45.4192 4.45763 45.5762 5.29733 45.7314 6.13983ZM44.6106 6.51151C44.2849 6.63286 43.9636 6.76288 43.6468 6.90761C43.5175 6.25718 43.3864 5.60954 43.2561 4.96052C43.5381 4.65948 43.8444 4.39166 44.1763 4.16764C44.3205 4.94986 44.4664 5.72929 44.6106 6.51151ZM42.2936 7.61761C41.9818 7.80103 41.6733 7.98854 41.3754 8.19661C41.3506 8.07426 41.3257 7.95191 41.3022 7.83046L42.1023 6.58048C42.1662 6.92696 42.2296 7.27114 42.2936 7.61761Z" fill="white"/>
<path d="M45.306 10.2703C44.9086 11.3096 45.1414 12.4835 45.8683 13.3131C45.9886 13.4506 46.1245 13.5762 46.2718 13.6932C46.3497 13.7544 46.4208 13.8231 46.5069 13.8776C46.7342 14.0216 46.9754 14.1192 47.2216 14.1962C47.3427 14.2334 47.4628 14.272 47.5854 14.2944C47.8911 14.3499 48.1993 14.3458 48.5035 14.3076C48.6179 14.2932 48.7313 14.2802 48.8431 14.2543C49.1411 14.1825 49.424 14.0597 49.6904 13.9008C49.7963 13.8376 49.897 13.7672 49.9961 13.6898C50.255 13.4867 50.4928 13.2485 50.6798 12.9564C50.7086 12.9114 50.7251 12.8607 50.751 12.814C50.8451 12.6485 50.9237 12.4792 50.9831 12.3057C51.3272 11.2939 51.0956 10.174 50.3944 9.37242C50.2916 9.25401 50.1774 9.14415 50.0535 9.04003C49.9567 8.95891 49.8639 8.87446 49.7538 8.80471C49.4983 8.64283 49.2254 8.53907 48.9475 8.46172C48.856 8.4373 48.7662 8.40407 48.6716 8.38757C48.337 8.32758 47.9978 8.33373 47.6665 8.38637C47.5832 8.39874 47.4993 8.40881 47.4176 8.42807C47.0896 8.50651 46.7768 8.64192 46.4896 8.82713C46.4099 8.87729 46.3359 8.93702 46.2619 8.99676C46.003 9.19986 45.7684 9.43617 45.5823 9.7269C45.5518 9.77465 45.5343 9.82675 45.5075 9.87489C45.4322 10.0049 45.3593 10.1343 45.306 10.2703Z" fill="white"/>
<path d="M56.3033 19.9212C56.4893 20.1358 56.6988 20.3356 56.95 20.4947C57.0418 20.5529 57.1401 20.5915 57.2353 20.638C57.4028 20.7204 57.5741 20.7875 57.7511 20.8365C58.015 20.9109 58.2852 20.9537 58.5545 20.9546C58.7146 20.9554 58.8735 20.9396 59.0313 20.9132C59.2622 20.8779 59.4871 20.821 59.7045 20.7357C59.8568 20.6743 60.0019 20.5964 60.144 20.5108C60.3929 20.3605 60.6207 20.1752 60.8207 19.9525C60.9273 19.8325 61.0325 19.7116 61.1215 19.5726C61.1502 19.5276 61.1659 19.4783 61.1918 19.4316C61.9255 18.1396 61.5884 16.5087 60.4235 15.6009C60.347 15.5406 60.2787 15.4737 60.1955 15.4209C60.1206 15.3735 60.0416 15.3451 59.9637 15.3057C59.6661 15.1507 59.3555 15.0408 59.0355 14.992C58.9037 14.9717 58.7718 14.967 58.638 14.9652C58.3728 14.961 58.1092 14.9855 57.8528 15.0481C57.7277 15.0794 57.606 15.1207 57.4853 15.1666C57.2039 15.2746 56.9429 15.4251 56.7027 15.6144C56.584 15.7069 56.4685 15.8036 56.3636 15.9148C56.2401 16.0457 56.1238 16.1872 56.0231 16.3445C55.8883 16.5552 55.7936 16.7775 55.7172 17.0054C55.3805 18.012 55.6077 19.1232 56.3033 19.9212Z" fill="white"/>
<path d="M42.2389 18.8015C42.4371 19.0435 42.6642 19.2683 42.9437 19.4454C43.0411 19.5071 43.1446 19.547 43.2464 19.5957C43.3946 19.6679 43.5449 19.7276 43.6981 19.7733C43.9836 19.8574 44.2734 19.9068 44.564 19.9054C44.7046 19.9057 44.8426 19.8885 44.9824 19.8684C45.2565 19.8309 45.5258 19.7666 45.7802 19.6573C45.9127 19.5991 46.0387 19.5231 46.1625 19.4475C46.432 19.2807 46.674 19.0669 46.8846 18.8153C46.9629 18.7209 47.0469 18.63 47.1152 18.5232C47.152 18.4656 47.1735 18.4042 47.2052 18.3454C47.9049 17.0693 47.5784 15.4807 46.4484 14.5773C46.3615 14.5084 46.2843 14.4338 46.1883 14.373C46.1445 14.3453 46.095 14.3297 46.0503 14.3034C45.7341 14.1247 45.3995 13.9996 45.0562 13.9439C44.9444 13.9264 44.8316 13.926 44.7191 13.9219C44.4092 13.9071 44.1024 13.9338 43.8046 14.0117C43.6979 14.0388 43.5942 14.0738 43.4924 14.1119C43.1916 14.2254 42.9119 14.3896 42.6572 14.5954C42.5577 14.6765 42.4577 14.7552 42.3682 14.8486C42.2396 14.9843 42.1197 15.1314 42.0163 15.2929C41.8635 15.5316 41.7631 15.7878 41.6841 16.0476C41.4024 17.0023 41.6117 18.033 42.2389 18.8015Z" fill="white"/>
<path d="M52.0075 23.7243C52.0253 23.9724 52.0768 24.2143 52.1524 24.4497C52.3331 25.0044 52.6737 25.5044 53.1589 25.8809C53.2354 25.9412 53.3036 26.0081 53.3869 26.0609C53.514 26.1414 53.6479 26.1986 53.781 26.2573C54.0247 26.3663 54.2749 26.4498 54.5311 26.4897C54.7206 26.519 54.9089 26.5317 55.0992 26.5259C55.3302 26.5183 55.5564 26.478 55.7808 26.4188C55.9617 26.3716 56.1368 26.3088 56.3046 26.2296C56.5285 26.1247 56.7364 25.9859 56.9322 25.8257C57.1024 25.6868 57.256 25.5275 57.3933 25.35C57.448 25.28 57.5103 25.2169 57.5598 25.1396C57.7288 24.8756 57.8356 24.5939 57.9122 24.3068C58.1499 23.427 57.9778 22.487 57.4424 21.7549C57.2264 21.4601 56.9604 21.1968 56.6343 20.9903C56.5933 20.9643 56.5489 20.95 56.5062 20.9269C56.3371 20.8316 56.1641 20.7516 55.9868 20.6906C55.7179 20.5992 55.4421 20.5528 55.1642 20.5406C55.0085 20.5327 54.8545 20.5378 54.6993 20.554C54.4376 20.5816 54.1825 20.6391 53.9366 20.732C53.7878 20.7878 53.6472 20.8586 53.5096 20.9372C53.2601 21.0792 53.0241 21.2494 52.8197 21.4634C52.6903 21.6005 52.568 21.7481 52.4628 21.9124C52.453 21.9279 52.4473 21.946 52.4374 21.9615C52.0998 22.5075 51.9656 23.1233 52.0075 23.7243Z" fill="white"/>
<path d="M39.1719 24.8453C39.2422 24.8997 39.3043 24.9608 39.3806 25.0091C39.4907 25.0788 39.6091 25.1262 39.7245 25.1816C39.9885 25.3054 40.2611 25.3972 40.5419 25.4389C40.7101 25.4645 40.8788 25.4766 41.0478 25.4731C41.2988 25.4683 41.5454 25.4272 41.7877 25.3616C41.9479 25.319 42.1061 25.2672 42.2569 25.1989C42.5025 25.088 42.7268 24.936 42.9376 24.7616C43.0868 24.637 43.2241 24.497 43.3494 24.3415C43.4177 24.2564 43.4927 24.1796 43.552 24.0869C43.7273 23.813 43.8385 23.5183 43.9148 23.2192C44.1363 22.3587 43.9698 21.4439 43.4556 20.7253C43.2375 20.4213 42.9625 20.1504 42.6265 19.9375C42.57 19.9018 42.5083 19.8804 42.4492 19.8489C42.3003 19.7684 42.1506 19.6953 41.9944 19.6417C41.7068 19.5424 41.4087 19.4937 41.1118 19.4832C40.9761 19.4782 40.843 19.4847 40.7077 19.4977C40.4279 19.5257 40.1506 19.5869 39.8877 19.6908C39.7583 19.741 39.6372 19.8064 39.5156 19.8754C39.243 20.0285 38.9931 20.2175 38.7757 20.4549C38.6595 20.5806 38.5495 20.7122 38.4551 20.8597C38.4497 20.8681 38.4471 20.8784 38.4417 20.8868C37.6184 22.201 37.9582 23.9145 39.1719 24.8453Z" fill="white"/>
<path d="M49.1302 30.9947C49.3265 31.2336 49.5512 31.4529 49.8265 31.6273C49.8434 31.6381 49.8602 31.6428 49.8772 31.6535C50.0747 31.7727 50.2804 31.8636 50.4936 31.9335C50.711 32.0061 50.9315 32.0491 51.1543 32.0699C51.3637 32.09 51.5716 32.0875 51.7786 32.0647C51.988 32.0414 52.1913 31.9965 52.3914 31.9318C52.5916 31.8671 52.7833 31.7813 52.9682 31.6754C53.1668 31.5604 53.3539 31.4262 53.5232 31.267C53.6985 31.1017 53.8627 30.9195 53.9975 30.7089C54.0128 30.685 54.0201 30.658 54.0354 30.6342C54.2494 30.2782 54.3796 29.8949 54.4331 29.5044C54.5232 28.8429 54.3837 28.1742 54.0512 27.5964C53.8662 27.2778 53.6234 26.9937 53.3218 26.7552C53.2391 26.6891 53.1638 26.6176 53.072 26.5595C52.8956 26.4477 52.7117 26.3569 52.5226 26.2864C52.3336 26.216 52.1403 26.1646 51.9465 26.1327C51.7061 26.0929 51.4638 26.0933 51.2241 26.1112C51.0466 26.1251 50.8708 26.1519 50.6976 26.1961C50.4649 26.256 50.2416 26.3475 50.0281 26.4609C49.8569 26.5518 49.6952 26.6586 49.5432 26.7814C49.3451 26.9422 49.1671 27.1274 49.0109 27.3404C48.9757 27.3891 48.9325 27.4288 48.9001 27.4794C48.7698 27.683 48.675 27.8993 48.6002 28.1185C48.2598 29.103 48.4694 30.1951 49.1302 30.9947Z" fill="white"/>
<path d="M0.301226 43.5512C0.866885 45.4027 2.2526 46.8896 4.05835 47.5756C4.36629 47.6921 4.67923 47.802 5.00892 47.8686C5.37208 47.9436 5.75029 47.9752 6.13354 47.9852C6.18709 47.9868 6.23563 48.0002 6.28918 48.0002H6.85483H7.84222H8.57358H9.53418H10.2906H11.1308H11.9106H12.8227H13.6294H14.5146H14.6469H15.3464H16.2066H17.0635H17.8969H18.7805H19.5889H20.4976H21.2808H22.2163H22.9728H23.0029C23.2941 48.0002 23.5702 47.9535 23.8514 47.9152C24.0656 47.8853 24.2764 47.857 24.484 47.807C24.7417 47.7438 24.9944 47.6672 25.2387 47.5739C25.391 47.5156 25.5366 47.4507 25.6822 47.3824C25.9065 47.2759 26.1257 47.161 26.3349 47.0294C26.4839 46.9362 26.6244 46.833 26.765 46.7264C26.9575 46.5815 27.1482 46.4334 27.3223 46.2685C27.4478 46.1486 27.56 46.0188 27.6754 45.8889C27.8361 45.7091 27.9984 45.5292 28.1373 45.3311C28.1691 45.2861 28.2059 45.2429 28.2361 45.1962C28.3013 45.098 28.3465 44.9864 28.4068 44.8832C28.4101 44.8782 28.4118 44.8732 28.4151 44.8682C28.5406 44.6518 28.6745 44.4403 28.775 44.2105C28.8001 44.1522 28.8151 44.089 28.8385 44.029C28.8854 43.9125 28.9122 43.7876 28.9524 43.6677C28.9557 43.6594 28.9574 43.6494 28.9607 43.6411C29.0444 43.3797 29.1264 43.1183 29.1749 42.8435C29.1883 42.7653 29.1883 42.682 29.2 42.6021C29.2201 42.4639 29.2318 42.324 29.2419 42.1842C29.2435 42.1675 29.2452 42.1509 29.2469 42.1342C29.2553 42.0043 29.2854 41.8811 29.2854 41.7496V41.1752V40.8838V40.4475V40.3626V39.3919V39.0722V38.6643V38.5494V37.6086V37.259V36.8793V36.7345V35.8237V35.4457V35.0944V35.0228V34.1403V33.6325V33.4327V33.3112V33.2079V32.3554V31.8209V31.5262V31.393V30.5705V30.1109V29.8429V29.5781V28.7856V28.2977V28.0579V27.7649V27.0023V25.9517V25.219V25.1158C29.2854 24.7412 29.2385 24.3765 29.1749 24.0202C29.1147 23.6805 29.0159 23.3559 28.9021 23.0378C28.2963 21.3412 26.9926 19.9808 25.3191 19.3165C25.0764 19.2199 24.8237 19.15 24.5676 19.085C24.1225 18.9701 23.6606 18.8969 23.1836 18.8836C23.1234 18.8819 23.0665 18.8652 23.0046 18.8652H22.6698H21.4482H20.9779H19.7311H19.2843H18.0124H17.5906H16.2936H15.897H14.6452H14.5766H14.205H12.9566H12.6068H11.2395H10.9149H9.52248H9.22123H7.80374H7.52427H6.28583C6.22224 18.8652 6.16365 18.8819 6.10006 18.8836C6.0214 18.8852 5.9461 18.9019 5.86745 18.9069C5.434 18.9352 5.01394 19.0068 4.60894 19.12C4.54702 19.1366 4.48676 19.1583 4.42651 19.1766C4.05666 19.2915 3.70522 19.4364 3.36716 19.6145C3.31696 19.6412 3.26676 19.6678 3.21655 19.6961C2.8969 19.8759 2.59901 20.0791 2.31785 20.3088C2.27601 20.3438 2.23418 20.3771 2.19234 20.4121C1.91955 20.6468 1.67019 20.9049 1.44091 21.183C1.40577 21.2246 1.37063 21.2662 1.33716 21.3095C1.12462 21.5809 0.940529 21.8706 0.774848 22.1753C0.746397 22.227 0.717942 22.2769 0.691165 22.3285C0.513769 22.6782 0.373183 23.0445 0.264403 23.4274C0.245994 23.4924 0.220898 23.554 0.204163 23.6189C0.0970557 24.0502 0.0301146 24.4947 0.0167263 24.956C0.0150527 25.0126 0 25.0642 0 25.1208V25.2141V26.7226V27.0256V28.5075V28.8388V30.2908V30.6488V32.074V32.4603V33.436V33.8573V34.2735V35.6422V36.0868V37.3256V37.7984V39.1088V39.61V40.8921V41.4216V41.7513C0 42.1059 0.0485388 42.4456 0.105439 42.7836C0.152299 43.045 0.224243 43.2981 0.301226 43.5512ZM0.856845 41.7479V40.5191C2.94376 42.7536 5.01059 44.9681 7.0473 47.151H6.28749C6.1921 47.151 6.10174 47.1277 6.00802 47.1227C4.30268 45.3527 2.58394 43.5662 0.86019 41.7762C0.858516 41.7679 0.856845 41.7579 0.856845 41.7479ZM0.856845 26.1248C1.09784 26.3829 1.33716 26.6393 1.57983 26.8974C1.41582 27.2188 1.25683 27.5418 1.11793 27.8765C1.0309 27.7865 0.943881 27.6966 0.85853 27.6067V26.1248H0.856845ZM0.856845 25.1191C0.856845 24.8694 0.898694 24.6313 0.930491 24.3915C1.36059 24.8511 1.78734 25.309 2.21744 25.7685C2.03001 26.0666 1.84759 26.3679 1.68358 26.6809C1.40745 26.3946 1.13298 26.1082 0.856845 25.8235V25.1191ZM6.62388 19.7161C6.93182 20.0458 7.23809 20.3738 7.54602 20.7034C7.24144 20.8733 6.94353 21.0548 6.65233 21.2429C6.19378 20.7667 5.73691 20.2922 5.28004 19.8176C5.60638 19.756 5.94108 19.7161 6.28583 19.7161H6.62388ZM23.0029 19.7161C23.1769 19.7161 23.3393 19.751 23.5083 19.766C25.1618 21.5376 26.8002 23.2909 28.4235 25.0326C28.4235 25.0625 28.4319 25.0892 28.4319 25.1191V26.1215C26.3901 24.0019 24.33 21.8623 22.2632 19.7161H23.0029ZM27.6788 22.4201C28.0035 22.9762 28.2344 23.5873 28.3432 24.245C26.9307 22.7781 25.5115 21.3045 24.0857 19.8243C24.7802 19.9658 25.4245 20.2406 25.9952 20.6185C26.5575 21.2196 27.1198 21.8224 27.6788 22.4201ZM28.4319 39.5601C28.3164 39.4402 28.1992 39.3186 28.0838 39.1987C28.0955 39.1704 28.1122 39.1438 28.1239 39.1172C28.226 39.2271 28.3298 39.3369 28.4319 39.4468V39.5601ZM28.4319 40.2894C28.2361 40.0862 28.0453 39.8881 27.8495 39.6833C27.8846 39.6083 27.9231 39.5368 27.9566 39.4602C28.1156 39.63 28.2729 39.7982 28.4319 39.968V40.2894ZM28.4319 41.3433C28.1239 41.0236 27.816 40.7039 27.5081 40.3843C27.5215 40.3593 27.5315 40.3343 27.5449 40.3093C27.8394 40.6257 28.139 40.9454 28.4319 41.2601V41.3433ZM28.4034 42.041C28.0152 41.638 27.6286 41.2368 27.237 40.8288C27.2771 40.7622 27.319 40.6973 27.3591 40.6307C27.7173 41.0136 28.0737 41.3949 28.4319 41.7779C28.4285 41.8678 28.4068 41.9527 28.4034 42.041ZM28.2796 42.9701C27.7993 42.4722 27.3206 41.9744 26.8403 41.4765C26.8537 41.4549 26.8654 41.4332 26.8788 41.4116C27.3507 41.9161 27.8277 42.4289 28.2913 42.9268C28.2896 42.9401 28.2829 42.9551 28.2796 42.9701ZM28.1089 43.5195C27.5884 42.9801 27.0663 42.4373 26.5424 41.8928C26.586 41.8328 26.6345 41.7762 26.6763 41.7146C27.175 42.2491 27.6738 42.7819 28.1725 43.3164C28.1507 43.383 28.1323 43.4513 28.1089 43.5195ZM27.7892 44.2438C27.2236 43.6577 26.6596 43.0716 26.0956 42.4855C26.1107 42.4672 26.1241 42.4472 26.1391 42.4289C26.6981 43.0283 27.257 43.6261 27.806 44.2155C27.7993 44.2255 27.7942 44.2338 27.7892 44.2438ZM27.5365 44.7084C26.9525 44.1023 26.3634 43.4896 25.7726 42.8768C25.8195 42.8219 25.873 42.7719 25.9199 42.717C26.4905 43.3281 27.0579 43.9358 27.6269 44.5452C27.5934 44.5968 27.57 44.6568 27.5365 44.7084ZM9.46891 47.151C9.41535 47.096 9.36181 47.0394 9.30826 46.9845C9.45888 47.0428 9.61285 47.0977 9.76681 47.151H9.46891ZM2.49525 39.9097C2.12707 39.227 1.82081 38.5077 1.57145 37.7635C1.4928 37.527 1.42417 37.2873 1.35723 37.0458C1.20494 36.4914 1.0878 35.9236 1.0058 35.3442C0.980695 35.166 0.94387 34.9928 0.925461 34.813C0.880275 34.3585 0.855185 33.8989 0.855185 33.4327C0.855185 33.4127 0.85853 33.3944 0.85853 33.3744C0.85853 33.2412 0.873581 33.113 0.878602 32.9815C0.893663 32.5469 0.925457 32.1157 0.97901 31.6927C0.994072 31.5795 1.01416 31.4696 1.0309 31.3564C1.09115 30.9601 1.16813 30.5688 1.26185 30.1842C1.28528 30.086 1.31205 29.9894 1.33716 29.8912C1.4359 29.5265 1.54802 29.1669 1.67521 28.8139C1.70533 28.7273 1.73714 28.6424 1.77061 28.5575C1.90115 28.2194 2.04339 27.8881 2.19903 27.5634C2.23585 27.4868 2.27266 27.4102 2.30948 27.3353C2.46679 27.0206 2.63749 26.7143 2.81824 26.4145C2.86007 26.3463 2.90026 26.278 2.94377 26.2097C3.12619 25.9184 3.31863 25.6336 3.52281 25.3572C3.56799 25.2956 3.61487 25.234 3.66173 25.1724C3.85418 24.921 4.05164 24.6746 4.26083 24.4365C4.31104 24.3799 4.36292 24.3249 4.41313 24.27C4.64073 24.0185 4.87169 23.7738 5.1177 23.5407C5.17126 23.4891 5.22981 23.4408 5.28504 23.3892C5.53273 23.1594 5.78543 22.9363 6.04985 22.7248C6.10843 22.6782 6.17204 22.6349 6.23228 22.5883C6.50173 22.3818 6.77283 22.177 7.05734 21.9905C7.1226 21.9472 7.19121 21.9106 7.25815 21.869C7.54768 21.6842 7.84055 21.5043 8.14513 21.3412C8.21709 21.3029 8.29408 21.2729 8.36605 21.2346C8.67733 21.0748 8.99197 20.9182 9.31663 20.7817C9.39696 20.7484 9.48063 20.7234 9.56097 20.6918C9.89567 20.5586 10.2337 20.4304 10.5818 20.3238C10.6722 20.2955 10.7659 20.2789 10.8563 20.2539C11.2178 20.1506 11.5826 20.0557 11.9541 19.9808C12.0562 19.9608 12.1617 19.9508 12.2654 19.9342C12.657 19.8659 13.052 19.8093 13.4536 19.776C13.5725 19.766 13.6929 19.7644 13.8118 19.7577C14.0879 19.7411 14.3624 19.7161 14.6435 19.7161C14.7674 19.7161 14.8879 19.7311 15.0117 19.7344C15.1523 19.7377 15.2895 19.7477 15.4284 19.756C15.9171 19.7843 16.3974 19.836 16.871 19.9125C17.0367 19.9392 17.2074 19.9558 17.3714 19.9891C17.9538 20.1057 18.5178 20.2689 19.0717 20.457C19.3144 20.5386 19.5554 20.6252 19.793 20.7201C20.6248 21.0548 21.4164 21.4677 22.1594 21.9506C24.0589 23.1844 25.6371 24.866 26.7332 26.8508C27.0847 27.4868 27.3742 28.1578 27.6219 28.8505C27.7557 29.2251 27.8729 29.6064 27.975 29.9944C27.9968 30.076 28.0185 30.1559 28.0386 30.2375C28.067 30.3557 28.1055 30.4706 28.1306 30.5905C28.1792 30.8169 28.2093 31.05 28.2461 31.2798C28.2963 31.5945 28.3448 31.9108 28.3733 32.2322C28.3766 32.2788 28.3766 32.3271 28.38 32.3721C28.3884 32.4753 28.39 32.5785 28.3951 32.6834C28.4051 32.8716 28.4218 33.0581 28.4235 33.2495C28.4252 33.3128 28.4335 33.3744 28.4335 33.4377C28.4335 33.6541 28.4101 33.8639 28.4001 34.0787C28.3984 34.1104 28.3967 34.1437 28.3951 34.1753C28.39 34.2769 28.3867 34.3801 28.38 34.4817C28.3699 34.6099 28.3716 34.7398 28.3582 34.8646C28.3314 35.1194 28.2829 35.3692 28.2428 35.6189C28.2344 35.6705 28.2277 35.7221 28.2193 35.7737C28.2026 35.872 28.1925 35.9719 28.1741 36.0701C28.1541 36.175 28.129 36.2799 28.1072 36.3848C28.0553 36.6229 27.99 36.856 27.9248 37.0908C27.9131 37.1324 27.9047 37.1757 27.8913 37.2173C27.8645 37.3106 27.8461 37.4088 27.8177 37.5021C27.7892 37.5936 27.7507 37.6786 27.7206 37.7685C27.6453 37.9916 27.5633 38.2097 27.4779 38.4262C27.4646 38.4611 27.4528 38.4961 27.4395 38.5311C27.4043 38.6193 27.3759 38.7126 27.3374 38.7991C27.3022 38.8791 27.2587 38.9556 27.2236 39.0356C27.1299 39.242 27.0294 39.4468 26.9257 39.6483C26.9106 39.6783 26.8972 39.7083 26.8822 39.7382C26.8387 39.8215 26.8018 39.9097 26.7566 39.9913C26.7165 40.0629 26.668 40.1312 26.6278 40.2028C26.5173 40.3959 26.4002 40.5841 26.2797 40.7722C26.263 40.7972 26.2496 40.8238 26.2328 40.8488C26.1826 40.9271 26.1391 41.0103 26.0872 41.0886C26.042 41.1535 25.9918 41.2151 25.9467 41.2784C25.8211 41.4582 25.6856 41.6314 25.5517 41.8029C25.535 41.8262 25.5182 41.8478 25.4998 41.8711C25.4429 41.9444 25.391 42.021 25.3325 42.0926C25.2839 42.1525 25.232 42.2091 25.1835 42.2691C25.0429 42.4356 24.8923 42.5921 24.7434 42.7503C24.6095 42.8935 24.4823 43.0417 24.3434 43.1799C24.1894 43.3314 24.0221 43.4712 23.8597 43.6161C23.7141 43.746 23.5752 43.8858 23.4246 44.0091C23.2556 44.1472 23.0748 44.2705 22.9008 44.402C22.7619 44.5069 22.6263 44.6151 22.4824 44.7134C22.3017 44.8382 22.1125 44.9515 21.9268 45.068C21.7561 45.1746 21.5854 45.2828 21.4097 45.3811C21.2155 45.4909 21.0164 45.5908 20.8172 45.6907C20.6298 45.784 20.4424 45.8772 20.2516 45.9622C20.0441 46.0537 19.8315 46.1386 19.619 46.2202C19.4148 46.3002 19.209 46.3767 18.9998 46.4467C18.7772 46.5199 18.5513 46.5849 18.3253 46.6481C18.0994 46.7097 17.8735 46.7714 17.6442 46.823C17.4049 46.8763 17.1639 46.9162 16.9196 46.9562C16.6685 46.9978 16.4192 47.0428 16.1648 47.0711C15.9071 47.0994 15.6443 47.1077 15.3816 47.121C15.1372 47.1343 14.8962 47.1577 14.6485 47.1577C14.6067 47.1577 14.5665 47.151 14.5247 47.151C14.2402 47.1477 13.959 47.1277 13.6796 47.1077C13.3348 47.0844 12.9968 47.0461 12.6604 46.9978C12.3508 46.9529 12.0428 46.9096 11.7399 46.8446C11.3098 46.7514 10.8847 46.6415 10.4714 46.51C10.0931 46.3901 9.71996 46.2535 9.3568 46.1037C8.74261 45.8489 8.15854 45.5409 7.59288 45.2029C6.82807 44.7467 6.11178 44.2205 5.45241 43.6294C4.88507 43.0217 4.31272 42.409 3.74204 41.7979C3.27512 41.1985 2.85507 40.5741 2.49525 39.9097ZM8.06313 46.4284C8.28739 46.6698 8.515 46.9129 8.73926 47.1527H7.75353C6.98203 46.3518 6.20717 45.5476 5.43065 44.74C6.23897 45.3944 7.12427 45.9555 8.06313 46.4284ZM19.6391 47.1094C19.8399 47.0361 20.0457 46.9712 20.2432 46.8896C20.3252 46.9778 20.4072 47.0644 20.4892 47.1527H19.6809C19.6658 47.1377 19.6525 47.1227 19.6391 47.1094ZM20.8658 46.5999C21.0515 46.5133 21.2373 46.4284 21.418 46.3351C21.6707 46.6065 21.9285 46.8813 22.1795 47.151H21.3963C21.2189 46.9678 21.0448 46.7847 20.8658 46.5999ZM22.0088 46.0038C22.1795 45.9039 22.3485 45.804 22.5142 45.6974C22.941 46.1553 23.3744 46.6198 23.7961 47.0727C23.5685 47.106 23.3409 47.1377 23.105 47.1427C22.7401 46.763 22.3753 46.3851 22.0088 46.0038ZM23.0732 45.3244C23.2121 45.2262 23.346 45.123 23.4799 45.0214C24.0171 45.5958 24.5526 46.1703 25.0798 46.7364C24.9208 46.803 24.7467 46.8396 24.5811 46.8912C24.0807 46.3718 23.5769 45.8489 23.0732 45.3244ZM24.012 44.6168C24.1593 44.4953 24.2949 44.3604 24.4371 44.2322C25.0245 44.8616 25.6086 45.4876 26.1843 46.1053C26.037 46.2119 25.8831 46.3035 25.7241 46.3951C25.1584 45.8073 24.5844 45.2129 24.012 44.6168ZM24.9291 43.7859C25.0647 43.6511 25.1902 43.5079 25.3224 43.368C25.9165 44.0057 26.5073 44.6384 27.0914 45.2645C26.9742 45.3994 26.8604 45.5342 26.7315 45.6575C26.1358 45.0381 25.5316 44.412 24.9291 43.7859ZM28.3733 38.4445C28.3934 38.3912 28.4135 38.3396 28.4319 38.2863V38.5044C28.4135 38.4844 28.3934 38.4645 28.3733 38.4445ZM28.4319 27.1771C28.4319 27.1771 28.4319 27.1821 28.4319 27.1855V27.9064C28.2746 27.7432 28.1189 27.5817 27.9616 27.4186C27.4344 26.268 26.77 25.1907 25.9734 24.2233C26.7985 25.1075 27.6152 25.9833 28.4319 26.8574V27.1771ZM24.8053 22.9696C23.761 21.9656 22.5661 21.118 21.2591 20.457C21.0214 20.2106 20.7838 19.9642 20.5461 19.7177H21.7678C22.7853 20.805 23.7961 21.889 24.8053 22.9696ZM20.3654 20.0274C20.0909 19.9109 19.8047 19.816 19.5219 19.7161H20.0759C20.1729 19.8193 20.2683 19.9225 20.3654 20.0274ZM8.92 20.0291C8.81959 19.9242 8.71917 19.821 8.61875 19.7161H9.76681C9.48231 19.816 9.19614 19.9109 8.92 20.0291ZM8.70578 20.1307C8.37944 20.2755 8.05644 20.4254 7.74516 20.5919C7.464 20.2988 7.18285 20.0075 6.90169 19.7161H8.31919C8.44805 19.8543 8.57692 19.9925 8.70578 20.1307ZM6.46489 21.3561C6.17872 21.5476 5.9093 21.7607 5.63818 21.9705C5.08257 21.3944 4.53029 20.8217 3.97802 20.2456C4.32444 20.0824 4.68759 19.9508 5.06916 19.8626C5.5344 20.3621 5.99965 20.8583 6.46489 21.3561ZM5.46747 22.1004C5.19971 22.3152 4.947 22.545 4.69597 22.7764C4.09851 22.157 3.5044 21.5393 2.91029 20.9216C3.19145 20.6968 3.49435 20.502 3.81734 20.3355C4.36627 20.9232 4.91688 21.511 5.46747 22.1004ZM4.53864 22.9196C4.29096 23.156 4.05501 23.4025 3.82406 23.6556C3.2266 23.0345 2.63249 22.4184 2.03504 21.799C2.25595 21.5193 2.50193 21.2646 2.77472 21.0331C3.36214 21.6608 3.94955 22.2886 4.53864 22.9196ZM3.68011 23.8121C3.46757 24.0518 3.26342 24.2983 3.06594 24.5514C2.50697 23.9719 1.95134 23.3942 1.39405 22.8164C1.543 22.505 1.71874 22.2103 1.92291 21.9356C2.50865 22.56 3.0927 23.186 3.68011 23.8121ZM2.9354 24.7262C2.7262 25.0026 2.52537 25.284 2.33626 25.5754C1.87604 25.0958 1.41582 24.6196 0.955593 24.1418C1.0309 23.7371 1.14469 23.3475 1.30368 22.9812C1.84758 23.5623 2.39149 24.1434 2.9354 24.7262ZM1.02755 28.1179C0.967307 28.2711 0.912072 28.4259 0.856845 28.5808V27.9364C0.913745 27.9963 0.970654 28.0579 1.02755 28.1179ZM0.856845 38.7076C0.942195 38.7991 1.02755 38.8907 1.1129 38.9823C1.58986 40.1295 2.21912 41.1968 2.9605 42.1758C2.25928 41.4482 1.55807 40.7206 0.855185 39.9896L0.856845 38.7076ZM5.25828 47.0478C4.66752 46.9345 4.12194 46.7114 3.61653 46.4234C2.9036 45.6841 2.19234 44.9448 1.47773 44.2022C1.19156 43.6494 1.00413 43.0467 0.923801 42.404C2.38146 43.9658 3.82405 45.5126 5.25828 47.0478Z" fill="white"/>
<path d="M5.27166 27.5284C5.50094 28.6074 6.32097 29.4665 7.37363 29.7795C7.54935 29.8328 7.73179 29.8661 7.9209 29.8861C8.02298 29.8961 8.12172 29.9177 8.22715 29.9177C8.49492 29.9177 8.7493 29.8711 8.99531 29.8062C9.11748 29.7729 9.23964 29.7412 9.35512 29.6946C9.64297 29.5781 9.90237 29.4116 10.1383 29.2168C10.227 29.1435 10.3174 29.0736 10.3961 28.9903C10.6086 28.7705 10.781 28.5158 10.9199 28.2411C10.9751 28.1312 11.0236 28.0179 11.0638 27.9014C11.1743 27.59 11.2462 27.2603 11.2462 26.9123C11.2462 26.8624 11.2345 26.8141 11.2312 26.7642C11.2211 26.576 11.1977 26.3912 11.1542 26.213C10.8998 25.1657 10.0931 24.3382 9.0589 24.0385C8.90828 23.9952 8.75432 23.9636 8.59534 23.9436C8.47149 23.9286 8.351 23.9053 8.22381 23.9053C7.91922 23.9053 7.62968 23.9635 7.35187 24.0485C7.2615 24.0768 7.16612 24.0968 7.07909 24.1334C6.76447 24.2616 6.48332 24.4497 6.23229 24.6712C6.16869 24.7261 6.10508 24.7794 6.04651 24.841C5.81389 25.0841 5.62145 25.3639 5.47919 25.6736C5.43903 25.7601 5.41056 25.85 5.37876 25.94C5.27165 26.2463 5.20139 26.571 5.20139 26.9123C5.20139 26.9723 5.21645 27.0272 5.2198 27.0855C5.23319 27.2354 5.24154 27.3852 5.27166 27.5284Z" fill="white"/>
<path d="M11.5893 34.2934C11.8604 35.1858 12.5315 35.9051 13.4017 36.2348C13.6561 36.3314 13.9256 36.388 14.2067 36.413C14.2954 36.4213 14.3791 36.4396 14.4695 36.4396C14.6937 36.4396 14.9096 36.4113 15.1205 36.3647C15.2962 36.3264 15.4669 36.2748 15.6292 36.2065C15.8702 36.105 16.0895 35.9668 16.2953 35.8102C16.4242 35.712 16.5463 35.6088 16.6585 35.4906C16.8359 35.3041 16.9831 35.0926 17.107 34.8662C17.1907 34.7146 17.2609 34.5581 17.3178 34.3916C17.4183 34.0969 17.4852 33.7872 17.4886 33.4609C17.4886 33.4509 17.4919 33.4426 17.4919 33.4326C17.4919 33.1678 17.4467 32.9164 17.3815 32.6716C17.1154 31.6726 16.3489 30.8834 15.3631 30.5753C15.1439 30.5071 14.9146 30.4621 14.677 30.4455C14.6067 30.4405 14.5414 30.4238 14.4712 30.4238C14.1783 30.4238 13.8988 30.4788 13.631 30.557C13.4921 30.597 13.3549 30.6403 13.2243 30.7002C12.9599 30.8201 12.7206 30.9816 12.5031 31.1698C12.4043 31.2547 12.3106 31.3446 12.2236 31.4428C12.0295 31.6593 11.8654 31.8991 11.7416 32.1638C11.6797 32.2953 11.6312 32.4335 11.5893 32.5767C11.5073 32.8481 11.4487 33.1312 11.4487 33.4292C11.4487 33.4725 11.4604 33.5141 11.4621 33.5574C11.4722 33.8155 11.519 34.0586 11.5893 34.2934Z" fill="white"/>
<path d="M19.4667 42.7352C19.788 42.8668 20.1378 42.9384 20.5026 42.9517C20.5377 42.9534 20.5712 42.9617 20.608 42.9617C20.8172 42.9617 21.0197 42.94 21.2172 42.9001C21.4431 42.8535 21.6574 42.7752 21.8632 42.6803C22.0557 42.5921 22.2347 42.4822 22.4038 42.3573C22.5711 42.2324 22.7234 42.0909 22.8623 41.9344C23.0012 41.7778 23.1217 41.608 23.2255 41.4249C23.3376 41.2301 23.4246 41.0219 23.4916 40.8038C23.5652 40.5574 23.6137 40.3026 23.6221 40.0362C23.6221 40.0096 23.6305 39.9846 23.6305 39.9563C23.6305 39.6116 23.5602 39.2869 23.4514 38.9772C23.1602 38.1481 22.5226 37.482 21.7042 37.1623C21.408 37.0475 21.09 36.9809 20.7587 36.9642C20.7084 36.9609 20.6599 36.9492 20.6097 36.9492C20.357 36.9492 20.1143 36.9908 19.8784 37.0491C19.6876 37.0974 19.5035 37.1623 19.3278 37.2456C19.1085 37.3488 18.9077 37.4804 18.7203 37.6319C18.5814 37.7435 18.4542 37.865 18.337 37.9982C18.1781 38.1797 18.0425 38.3812 17.9304 38.5959C17.84 38.7691 17.768 38.9523 17.7145 39.1437C17.6425 39.3935 17.594 39.6533 17.5906 39.9247C17.5906 39.9346 17.5873 39.9446 17.5873 39.9546C17.5873 40.286 17.6542 40.6007 17.7563 40.8987C18.0358 41.7296 18.6583 42.4039 19.4667 42.7352Z" fill="white"/>
</svg>
