<svg width="21" height="15" viewBox="0 0 21 15" fill="none" xmlns="http://www.w3.org/2000/svg">
<g clip-path="url(#clip0_927_24844)">
<mask id="mask0_927_24844" style="mask-type:alpha" maskUnits="userSpaceOnUse" x="0" y="0" width="21" height="15">
<path d="M19 0H2C0.89543 0 0 0.89543 0 2V13C0 14.1046 0.89543 15 2 15H19C20.1046 15 21 14.1046 21 13V2C21 0.89543 20.1046 0 19 0Z" fill="white"/>
</mask>
<g mask="url(#mask0_927_24844)">
<path d="M19 0H2C0.89543 0 0 0.89543 0 2V13C0 14.1046 0.89543 15 2 15H19C20.1046 15 21 14.1046 21 13V2C21 0.89543 20.1046 0 19 0Z" fill="#FFD400"/>
<path fill-rule="evenodd" clip-rule="evenodd" d="M7 0H21V3H7V0ZM7 6H21V9H7V6ZM0 12H21V15H0V12Z" fill="#007558"/>
<path fill-rule="evenodd" clip-rule="evenodd" d="M0 0H9V9H0V0Z" fill="#D70F3B"/>
<path fill-rule="evenodd" clip-rule="evenodd" d="M4.44 5.8968L2.932 6.68981L3.22 5.0098L2 3.8228L3.686 3.5778L4.44 2.0498L5.194 3.5768L6.88 3.8218L5.66 5.0118L5.948 6.68981" fill="white"/>
<path d="M19 0.5H2C1.17157 0.5 0.5 1.17157 0.5 2V13C0.5 13.8284 1.17157 14.5 2 14.5H19C19.8284 14.5 20.5 13.8284 20.5 13V2C20.5 1.17157 19.8284 0.5 19 0.5Z" stroke="black" stroke-opacity="0.1"/>
</g>
</g>
<defs>
<clipPath id="clip0_927_24844">
<rect width="21" height="15" fill="white"/>
</clipPath>
</defs>
</svg>
