<svg width="117" height="21" viewBox="0 0 117 21" fill="none" xmlns="http://www.w3.org/2000/svg">
<path d="M14.9697 6.33628H15.6235L17.4867 4.46399L17.5782 3.66909C16.5108 2.72241 15.2209 2.06478 13.8304 1.75833C12.4398 1.45188 10.9944 1.50673 9.63075 1.91769C8.26712 2.32864 7.03025 3.08215 6.03699 4.10702C5.04372 5.13189 4.32686 6.3943 3.9541 7.77498C4.16167 7.68949 4.3916 7.67562 4.60785 7.73556L8.3342 7.11804C8.3342 7.11804 8.52379 6.80271 8.62185 6.82242C9.42029 5.94124 10.5237 5.40007 11.7062 5.30969C12.8888 5.21932 14.0609 5.58658 14.9828 6.33628H14.9697Z" fill="#EA4335"/>
<path d="M20.1405 7.7751C19.7123 6.19031 18.833 4.76561 17.6105 3.67578L14.9956 6.30355C15.5406 6.75103 15.9773 7.31704 16.2729 7.95887C16.5685 8.6007 16.7151 9.3016 16.7018 10.0087V10.4751C17.0075 10.4751 17.3101 10.5356 17.5925 10.6532C17.8748 10.7707 18.1314 10.943 18.3475 11.1601C18.5636 11.3773 18.7351 11.6351 18.852 11.9189C18.969 12.2026 19.0292 12.5067 19.0292 12.8138C19.0292 13.121 18.969 13.4251 18.852 13.7088C18.7351 13.9926 18.5636 14.2504 18.3475 14.4676C18.1314 14.6847 17.8748 14.857 17.5925 14.9745C17.3101 15.0921 17.0075 15.1526 16.7018 15.1526H12.0472L11.583 15.6256V18.4307L12.0472 18.8971H16.7018C18.0016 18.9073 19.2702 18.4968 20.3198 17.7263C21.3694 16.9558 22.1444 15.8663 22.5301 14.6189C22.9157 13.3716 22.8916 12.0326 22.4613 10.8C22.0309 9.56751 21.2172 8.50689 20.1405 7.7751Z" fill="#4285F4"/>
<path d="M7.38687 18.8708H12.0415V15.1262H7.38687C7.05524 15.1262 6.7275 15.0545 6.42586 14.916L5.77211 15.1197L3.89586 16.992L3.73242 17.6489C4.78458 18.4473 6.06844 18.8766 7.38687 18.8708Z" fill="#34A853"/>
<path d="M7.38667 6.72367C6.12548 6.73124 4.89813 7.13446 3.87605 7.877C2.85397 8.61954 2.0882 9.66433 1.6857 10.8654C1.2832 12.0665 1.26406 13.364 1.63097 14.5766C1.99787 15.7891 2.73249 16.8563 3.73223 17.6289L6.4322 14.9157C6.08909 14.76 5.78871 14.5229 5.55684 14.2248C5.32496 13.9267 5.16851 13.5766 5.10091 13.2044C5.03331 12.8322 5.05658 12.449 5.16872 12.0879C5.28086 11.7267 5.47852 11.3983 5.74475 11.1307C6.01098 10.8632 6.33782 10.6646 6.69724 10.5519C7.05665 10.4392 7.43791 10.4158 7.80829 10.4837C8.17868 10.5517 8.52713 10.7089 8.82376 10.9419C9.12039 11.1749 9.35633 11.4768 9.51135 11.8215L12.2113 9.10837C11.6446 8.3639 10.9142 7.76125 10.0772 7.34755C9.24027 6.93386 8.31941 6.72033 7.38667 6.72367Z" fill="#FBBC05"/>
<path d="M35.1964 16.2562C34.395 16.2665 33.5998 16.1141 32.8584 15.8082C32.117 15.5023 31.4446 15.0491 30.8816 14.4759C30.3009 13.927 29.8401 13.2628 29.5284 12.5255C29.2166 11.7881 29.0608 10.9937 29.0708 10.1926C29.0612 9.39163 29.2172 8.59734 29.5289 7.86005C29.8406 7.12276 30.3012 6.45852 30.8816 5.90938C31.4419 5.33022 32.113 4.871 32.8545 4.55939C33.596 4.24778 34.3926 4.09023 35.1964 4.09622C35.9622 4.08596 36.7224 4.22878 37.4328 4.51636C38.1432 4.80395 38.7897 5.23057 39.3346 5.77142L38.1709 6.96049C37.374 6.18658 36.3045 5.7614 35.1964 5.77799C34.6215 5.7709 34.0515 5.88404 33.5226 6.11023C32.9936 6.33643 32.5172 6.67072 32.1238 7.09187C31.7148 7.49956 31.3922 7.98619 31.1754 8.52247C30.9585 9.05875 30.8519 9.63358 30.862 10.2123C30.8572 10.7845 30.9664 11.3519 31.1831 11.881C31.3998 12.4101 31.7196 12.8904 32.1238 13.2934C32.9333 14.1041 34.0258 14.5653 35.1687 14.5788C36.3115 14.5923 37.4145 14.1571 38.2428 13.3657C38.7556 12.8014 39.0702 12.0837 39.1385 11.3226H35.216V9.64081H40.7663C40.8208 9.97951 40.8427 10.3227 40.8317 10.6656C40.8662 11.3754 40.7571 12.0848 40.511 12.751C40.2649 13.4172 39.887 14.0264 39.4 14.5416C38.8585 15.1081 38.2043 15.5536 37.48 15.849C36.7557 16.1445 35.9776 16.2832 35.1964 16.2562ZM48.1013 15.1394C47.3564 15.8569 46.3645 16.2575 45.3327 16.2575C44.3009 16.2575 43.309 15.8569 42.5641 15.1394C42.1933 14.7782 41.9014 14.3435 41.7067 13.8628C41.512 13.3822 41.4188 12.8661 41.4331 12.3474C41.4192 11.8287 41.5126 11.3128 41.7072 10.8322C41.9019 10.3516 42.1937 9.91688 42.5641 9.55541C43.3097 8.83941 44.3014 8.43985 45.3327 8.43985C46.364 8.43985 47.3557 8.83941 48.1013 9.55541C48.4717 9.91688 48.7635 10.3516 48.9582 10.8322C49.1529 11.3128 49.2462 11.8287 49.2323 12.3474C49.2458 12.8666 49.1516 13.383 48.9557 13.8636C48.7599 14.3443 48.4667 14.7788 48.0948 15.1394H48.1013ZM43.7866 14.0423C43.9847 14.2549 44.2242 14.4244 44.4901 14.5403C44.7561 14.6562 45.0428 14.716 45.3327 14.716C45.6226 14.716 45.9094 14.6562 46.1753 14.5403C46.4412 14.4244 46.6807 14.2549 46.8788 14.0423C47.0949 13.818 47.264 13.5524 47.3763 13.2613C47.4885 12.9702 47.5417 12.6595 47.5326 12.3474C47.5422 12.0343 47.4893 11.7224 47.377 11.4302C47.2647 11.138 47.0953 10.8713 46.8788 10.6459C46.6781 10.4355 46.437 10.268 46.1702 10.1536C45.9034 10.0392 45.6163 9.98027 45.3262 9.98027C45.0361 9.98027 44.749 10.0392 44.4821 10.1536C44.2153 10.268 43.9743 10.4355 43.7735 10.6459C43.557 10.8713 43.3876 11.138 43.2753 11.4302C43.163 11.7224 43.1101 12.0343 43.1198 12.3474C43.1115 12.6599 43.1657 12.9709 43.2791 13.2621C43.3925 13.5532 43.5629 13.8185 43.7801 14.0423H43.7866ZM56.6131 15.1394C55.8682 15.8569 54.8763 16.2575 53.8445 16.2575C52.8127 16.2575 51.8207 15.8569 51.0759 15.1394C50.7051 14.7782 50.4131 14.3435 50.2184 13.8628C50.0238 13.3822 49.9306 12.8661 49.9449 12.3474C49.931 11.8287 50.0243 11.3128 50.219 10.8322C50.4137 10.3516 50.7054 9.91688 51.0759 9.55541C51.8207 8.8379 52.8127 8.43732 53.8445 8.43732C54.8763 8.43732 55.8682 8.8379 56.6131 9.55541C56.9835 9.91688 57.2753 10.3516 57.47 10.8322C57.6646 11.3128 57.758 11.8287 57.7441 12.3474C57.7584 12.8661 57.6652 13.3822 57.4705 13.8628C57.2758 14.3435 56.9839 14.7782 56.6131 15.1394ZM52.2984 14.0423C52.4965 14.2549 52.7359 14.4244 53.0019 14.5403C53.2678 14.6562 53.5546 14.716 53.8445 14.716C54.1344 14.716 54.4211 14.6562 54.6871 14.5403C54.953 14.4244 55.1925 14.2549 55.3906 14.0423C55.6066 13.818 55.7758 13.5524 55.888 13.2613C56.0003 12.9702 56.0535 12.6595 56.0443 12.3474C56.054 12.0343 56.0011 11.7224 55.8888 11.4302C55.7765 11.138 55.6071 10.8713 55.3906 10.6459C55.1898 10.4355 54.9488 10.268 54.682 10.1536C54.4151 10.0392 54.128 9.98027 53.8379 9.98027C53.5478 9.98027 53.2607 10.0392 52.9939 10.1536C52.7271 10.268 52.4861 10.4355 52.2853 10.6459C52.0688 10.8713 51.8994 11.138 51.7871 11.4302C51.6748 11.7224 51.6219 12.0343 51.6316 12.3474C51.6233 12.6599 51.6775 12.9709 51.7909 13.2621C51.9043 13.5532 52.0746 13.8185 52.2918 14.0423H52.2984ZM62.2092 19.7643C61.4256 19.7893 60.6572 19.5435 60.0322 19.0679C59.4773 18.6487 59.0402 18.0918 58.7639 17.4518L60.2545 16.8278C60.4167 17.2102 60.6705 17.5465 60.9932 17.8066C61.3387 18.0864 61.7722 18.2332 62.2157 18.2205C62.497 18.2377 62.7786 18.1938 63.0415 18.0917C63.3043 17.9897 63.5422 17.8319 63.7389 17.6292C64.1328 17.1518 64.3273 16.5396 64.2815 15.9212V15.3562H64.2227C63.9736 15.6535 63.659 15.8885 63.3038 16.0424C62.9486 16.1964 62.5627 16.2651 62.1765 16.2431C61.6856 16.2446 61.1998 16.1438 60.7497 15.947C60.2996 15.7503 59.895 15.4618 59.5615 15.1C59.1996 14.741 58.9139 14.312 58.7217 13.8389C58.5296 13.3657 58.435 12.8583 58.4436 12.3474C58.4346 11.8335 58.5289 11.323 58.721 10.8466C58.9131 10.3702 59.199 9.93776 59.5615 9.57511C59.8942 9.21175 60.2985 8.92191 60.7487 8.72399C61.1989 8.52607 61.6851 8.42441 62.1765 8.42547C62.5923 8.42473 63.0032 8.51673 63.3794 8.69481C63.7048 8.83763 63.995 9.05071 64.2292 9.31891H64.2881V8.69481H65.9094V15.6912C65.9521 16.2447 65.8819 16.8011 65.7031 17.3264C65.5244 17.8516 65.2409 18.3347 64.8699 18.746C64.5166 19.0857 64.0991 19.3508 63.6421 19.5257C63.1851 19.7006 62.6979 19.7817 62.2092 19.7643ZM62.3268 14.719C62.606 14.7251 62.8831 14.6695 63.1384 14.5559C63.3938 14.4424 63.6211 14.2738 63.8043 14.062C64.2077 13.5975 64.4203 12.9964 64.3992 12.3803C64.4234 11.7537 64.2109 11.1412 63.8043 10.6656C63.6214 10.4535 63.3941 10.2847 63.1387 10.1711C62.8833 10.0575 62.6061 10.0021 62.3268 10.0087C62.0401 10.0028 61.7553 10.0583 61.4915 10.1716C61.2278 10.2848 60.991 10.4533 60.7971 10.6656C60.3646 11.1241 60.1297 11.7356 60.1433 12.3671C60.1367 12.6769 60.191 12.9849 60.3032 13.2736C60.4154 13.5622 60.5832 13.8257 60.7971 14.0489C60.9901 14.2633 61.2264 14.434 61.4901 14.5495C61.7539 14.665 62.0391 14.7228 62.3268 14.719ZM68.7924 4.53637V16.0197H67.0861V4.53637H68.7924ZM73.4732 16.2562C72.9622 16.2694 72.454 16.1765 71.9804 15.9832C71.5068 15.7898 71.0781 15.5004 70.721 15.1328C70.3586 14.768 70.0738 14.333 69.8839 13.8541C69.6939 13.3753 69.6029 12.8627 69.6161 12.3474C69.5968 11.8309 69.6812 11.3157 69.8643 10.8326C70.0473 10.3495 70.3254 9.90847 70.6817 9.5357C71.0176 9.17994 71.4236 8.89859 71.8739 8.70967C72.3242 8.52075 72.8088 8.42842 73.2967 8.4386C73.7453 8.43384 74.1902 8.52102 74.6042 8.69481C74.9771 8.84606 75.3169 9.06924 75.6044 9.35175C75.8513 9.59125 76.0706 9.85789 76.2582 10.1467C76.4099 10.3905 76.539 10.6477 76.6439 10.9153L76.8204 11.362L71.5904 13.5233C71.7486 13.8885 72.0132 14.197 72.3493 14.4081C72.6854 14.6192 73.0772 14.723 73.4732 14.7058C73.8585 14.7069 74.2375 14.6076 74.5732 14.4176C74.9089 14.2276 75.1898 13.9535 75.3887 13.6219L76.6962 14.5087C76.3625 14.9885 75.9355 15.3952 75.441 15.7044C74.8529 16.0778 74.1687 16.2696 73.4732 16.2562ZM71.2897 12.2292L74.7676 10.7773C74.6605 10.5213 74.4689 10.3102 74.225 10.1795C73.952 10.0246 73.6429 9.94522 73.3294 9.94957C72.7974 9.96342 72.2923 10.1877 71.9238 10.5737C71.7034 10.7857 71.5322 11.044 71.4226 11.3302C71.313 11.6163 71.2676 11.9233 71.2897 12.2292ZM85.7571 16.2562C85.0315 16.2688 84.3108 16.1339 83.6383 15.8596C82.9658 15.5854 82.3554 15.1774 81.8437 14.6601C81.3321 14.1429 80.9297 13.5271 80.6608 12.8497C80.3918 12.1723 80.2619 11.4473 80.2787 10.7182C80.2619 9.98908 80.3918 9.26407 80.6608 8.58668C80.9297 7.90929 81.3321 7.29349 81.8437 6.77626C82.3554 6.25903 82.9658 5.85103 83.6383 5.57675C84.3108 5.30248 85.0315 5.16759 85.7571 5.18017C86.4916 5.1571 87.2217 5.3011 87.893 5.60142C88.5643 5.90174 89.1594 6.35061 89.6338 6.9145L88.6924 7.83422C88.3441 7.394 87.8974 7.04259 87.3885 6.80858C86.8795 6.57457 86.3229 6.46456 85.7637 6.48749C85.2253 6.4753 84.6901 6.57261 84.1902 6.77356C83.6903 6.97451 83.2359 7.27496 82.8545 7.65684C82.4579 8.05759 82.1481 8.53641 81.9444 9.06324C81.7408 9.59006 81.6478 10.1535 81.6712 10.7182C81.6478 11.2829 81.7408 11.8463 81.9444 12.3731C82.1481 12.9 82.4579 13.3788 82.8545 13.7795C83.2359 14.1614 83.6903 14.4619 84.1902 14.6628C84.6901 14.8638 85.2253 14.9611 85.7637 14.9489C86.3884 14.9559 87.0067 14.8214 87.5727 14.5552C88.1386 14.2891 88.6375 13.8982 89.0324 13.4117L89.9738 14.3577C89.4809 14.9499 88.8621 15.4236 88.1629 15.7438C87.4093 16.0934 86.5871 16.2686 85.7571 16.2562ZM92.5038 16.0197H91.1505V5.4101H92.5038V16.0197ZM94.7134 9.63424C95.4225 8.92658 96.3814 8.52943 97.3807 8.52943C98.3801 8.52943 99.3389 8.92658 100.048 9.63424C100.395 10.0021 100.666 10.4353 100.845 10.9088C101.025 11.3824 101.109 11.8869 101.094 12.3934C101.109 12.8999 101.025 13.4044 100.845 13.8779C100.666 14.3515 100.395 14.7847 100.048 15.1526C99.3389 15.8602 98.3801 16.2574 97.3807 16.2574C96.3814 16.2574 95.4225 15.8602 94.7134 15.1526C94.3667 14.7847 94.0958 14.3515 93.9162 13.8779C93.7367 13.4044 93.6522 12.8999 93.6674 12.3934C93.6522 11.8869 93.7367 11.3824 93.9162 10.9088C94.0958 10.4353 94.3667 10.0021 94.7134 9.63424ZM95.7202 14.2985C95.9334 14.525 96.1904 14.7053 96.4753 14.8286C96.7603 14.9519 97.0672 15.0154 97.3775 15.0154C97.6877 15.0154 97.9947 14.9519 98.2796 14.8286C98.5646 14.7053 98.8215 14.525 99.0347 14.2985C99.2712 14.0435 99.4549 13.7437 99.575 13.4166C99.6951 13.0895 99.7492 12.7417 99.7342 12.3934C99.7492 12.0451 99.6951 11.6973 99.575 11.3702C99.4549 11.0431 99.2712 10.7433 99.0347 10.4883C98.8215 10.2618 98.5646 10.0815 98.2796 9.9582C97.9947 9.83493 97.6877 9.77136 97.3775 9.77136C97.0672 9.77136 96.7603 9.83493 96.4753 9.9582C96.1904 10.0815 95.9334 10.2618 95.7202 10.4883C95.4837 10.7433 95.3 11.0431 95.1799 11.3702C95.0598 11.6973 95.0057 12.0451 95.0207 12.3934C95.0075 12.7411 95.063 13.0879 95.1842 13.4138C95.3055 13.7397 95.4899 14.0382 95.7268 14.292L95.7202 14.2985ZM108.592 16.0197H107.285V15.0146H107.246C107.013 15.3963 106.684 15.7092 106.291 15.9212C105.884 16.1583 105.422 16.283 104.951 16.2825C104.569 16.3088 104.186 16.248 103.83 16.1046C103.475 15.9613 103.156 15.7391 102.898 15.4547C102.403 14.8253 102.154 14.0354 102.199 13.2343V8.76708H103.552V12.9846C103.552 14.3379 104.147 15.0146 105.337 15.0146C105.601 15.0229 105.864 14.9676 106.102 14.8533C106.341 14.739 106.549 14.5691 106.71 14.3577C107.06 13.911 107.247 13.3565 107.239 12.7876V8.76708H108.592V16.0197ZM113.188 16.2562C112.729 16.2577 112.275 16.1593 111.858 15.9676C111.44 15.776 111.069 15.4957 110.769 15.146C110.092 14.3937 109.729 13.4078 109.756 12.3934C109.729 11.379 110.092 10.3931 110.769 9.64081C111.069 9.29114 111.44 9.01082 111.858 8.81916C112.275 8.6275 112.729 8.52905 113.188 8.53058C113.703 8.52242 114.211 8.64441 114.666 8.88532C115.066 9.08754 115.404 9.3938 115.646 9.7722H115.705L115.646 8.76708V5.4101H117V16.0197H115.692V15.0146H115.633C115.391 15.393 115.053 15.6992 114.653 15.9015C114.202 16.1402 113.698 16.2622 113.188 16.2562ZM113.411 15.0146C113.716 15.0191 114.02 14.9581 114.3 14.8358C114.581 14.7135 114.833 14.5326 115.038 14.3051C115.498 13.7791 115.733 13.0922 115.692 12.3934C115.733 11.6946 115.498 11.0077 115.038 10.4817C114.831 10.253 114.579 10.0703 114.298 9.94522C114.016 9.82018 113.712 9.7556 113.404 9.7556C113.096 9.7556 112.792 9.82018 112.511 9.94522C112.229 10.0703 111.977 10.253 111.77 10.4817C111.541 10.7404 111.366 11.0419 111.254 11.3688C111.142 11.6957 111.095 12.0417 111.116 12.3868C111.095 12.732 111.142 13.0779 111.254 13.4049C111.366 13.7318 111.541 14.0332 111.77 14.292C111.976 14.5235 112.229 14.7079 112.512 14.8325C112.795 14.9572 113.102 15.0193 113.411 15.0146Z" fill="white"/>
</svg>
