<svg width="35" height="21" viewBox="0 0 35 21" fill="none" xmlns="http://www.w3.org/2000/svg">
<path d="M21.9514 18.4258H13.4209V2.21777H21.9514V18.4258Z" fill="#FF5F00"/>
<path d="M13.6186 10.2365C13.6186 6.9714 15.1935 4.06293 17.646 2.18859C15.8525 0.817978 13.5891 -9.15527e-05 11.1292 -9.15527e-05C5.30562 -9.15527e-05 0.584961 4.58292 0.584961 10.2365C0.584961 15.8901 5.30562 20.4731 11.1292 20.4731C13.5891 20.4731 15.8525 19.6551 17.646 18.2845C15.1935 16.4101 13.6186 13.5016 13.6186 10.2365Z" fill="#EB001B"/>
<path d="M34.6138 10.2365C34.6138 15.8901 29.8933 20.4731 24.07 20.4731C21.6102 20.4731 19.3468 19.6551 17.5527 18.2845C20.0058 16.4101 21.5807 13.5016 21.5807 10.2365C21.5807 6.9714 20.0058 4.06293 17.5527 2.18859C19.3468 0.817978 21.6102 -9.15527e-05 24.07 -9.15527e-05C29.8933 -9.15527e-05 34.6138 4.58292 34.6138 10.2365Z" fill="#F79E1B"/>
</svg>
