<svg width="62" height="24" viewBox="0 0 62 24" fill="none" xmlns="http://www.w3.org/2000/svg">
<path d="M41.9656 13.6958L42.5802 13.8827C42.5392 14.0593 42.4778 14.2047 42.3856 14.3189C42.2934 14.4331 42.191 14.5266 42.0578 14.5785C41.9246 14.6409 41.7607 14.672 41.5559 14.672C41.3101 14.672 41.1154 14.6409 40.9515 14.5682C40.7979 14.4955 40.6647 14.3708 40.5521 14.1839C40.4394 14.0073 40.3779 13.7685 40.3779 13.488C40.3779 13.1142 40.4804 12.8234 40.675 12.6156C40.8696 12.4079 41.1564 12.3145 41.5149 12.3145C41.8017 12.3145 42.0168 12.3768 42.1807 12.491C42.3446 12.6053 42.4675 12.7818 42.5392 13.0311L41.9246 13.1661C41.9042 13.0934 41.8837 13.0415 41.8529 13.0103C41.812 12.9584 41.771 12.9168 41.7095 12.8857C41.6481 12.8545 41.5866 12.8441 41.5252 12.8441C41.3715 12.8441 41.2486 12.9064 41.1666 13.0415C41.1052 13.1349 41.0745 13.2907 41.0745 13.488C41.0745 13.7373 41.1154 13.9139 41.1871 14.0073C41.2588 14.1008 41.3715 14.1527 41.5047 14.1527C41.6378 14.1527 41.7403 14.1112 41.8017 14.0385C41.8837 13.945 41.9349 13.8412 41.9656 13.6958Z" fill="#2D7B82"/>
<path d="M42.8262 13.4896C42.8262 13.1158 42.9286 12.825 43.1335 12.6172C43.3383 12.4095 43.6251 12.3057 43.9939 12.3057C44.3729 12.3057 44.6597 12.4095 44.8645 12.6069C45.0694 12.8146 45.1718 13.095 45.1718 13.4689C45.1718 13.7389 45.1309 13.957 45.0387 14.1232C44.9465 14.2893 44.8236 14.4244 44.6494 14.5178C44.4856 14.6113 44.2704 14.6632 44.0246 14.6632C43.7685 14.6632 43.5637 14.6217 43.3895 14.5386C43.2257 14.4555 43.0925 14.3309 42.9798 14.1439C42.8671 13.957 42.8262 13.7597 42.8262 13.4896ZM43.5227 13.4896C43.5227 13.7181 43.5637 13.8843 43.6456 13.9882C43.7276 14.092 43.8402 14.1439 43.9939 14.1439C44.1475 14.1439 44.2602 14.092 44.3422 13.9985C44.4241 13.8947 44.4651 13.7181 44.4651 13.4689C44.4651 13.2508 44.4241 13.095 44.3319 13.0015C44.25 12.8977 44.127 12.8561 43.9836 12.8561C43.8402 12.8561 43.7276 12.908 43.6456 13.0119C43.5637 13.095 43.5227 13.2612 43.5227 13.4896Z" fill="#2D7B82"/>
<path d="M45.5302 12.3472H46.4419L46.7902 13.7389L47.1384 12.3472H48.0501V14.632H47.4764V12.8872L47.036 14.632H46.5238L46.0834 12.8872V14.632H45.5098V12.3472H45.5302Z" fill="#2D7B82"/>
<path d="M48.501 12.3472H49.6584C49.9145 12.3472 50.0989 12.4095 50.2218 12.5341C50.3447 12.6587 50.4062 12.8249 50.4062 13.0534C50.4062 13.2819 50.3345 13.4688 50.2013 13.5935C50.0682 13.7285 49.8531 13.7908 49.5765 13.7908H49.1975V14.6424H48.501V12.3472ZM49.1975 13.3234H49.3716C49.5048 13.3234 49.597 13.3027 49.6584 13.2507C49.7097 13.1988 49.7404 13.1469 49.7404 13.0742C49.7404 13.0015 49.7199 12.9392 49.6687 12.8872C49.6175 12.8353 49.5355 12.8145 49.4024 12.8145H49.2078V13.3234H49.1975Z" fill="#2D7B82"/>
<path d="M50.7744 12.3472H51.4709V14.0712H52.5567V14.632H50.7744V12.3472Z" fill="#2D7B82"/>
<path d="M52.9053 12.3472H53.6018V14.632H52.9053V12.3472Z" fill="#2D7B82"/>
<path d="M55.4861 14.2479H54.6974L54.5847 14.6218H53.8779L54.7281 12.3369H55.4861L56.3363 14.6218H55.609L55.4861 14.2479ZM55.3427 13.7598L55.0969 12.9393L54.851 13.7598H55.3427Z" fill="#2D7B82"/>
<path d="M56.5518 12.3472H57.1971L58.0472 13.6142V12.3472H58.7028V14.632H58.0472L57.2073 13.3754V14.632H56.5518V12.3472Z" fill="#2D7B82"/>
<path d="M59.0098 12.3472H61.1301V12.908H60.4233V14.632H59.7268V12.908H59.02V12.3472H59.0098Z" fill="#2D7B82"/>
<path d="M33.5871 15.8264L35.605 15.1825L34.9494 13.7077C34.468 14.3204 33.9866 15.1098 33.5871 15.8264ZM32.9008 9.08603L28.947 0.154297L0 1.81602L8.02034 24L23.4567 19.0667C22.4733 17.6335 22.1148 15.9302 23.2518 15.0994C24.5219 14.1647 26.4374 15.2448 27.6563 16.7715C28.8343 14.7774 32.1428 10.135 32.9008 9.08603Z" fill="#2D7B82"/>
<path d="M28.0455 6.60893C29.2542 6.60893 30.2376 5.67421 30.2376 4.51101C30.2376 3.3478 29.2542 2.41309 28.0455 2.41309C26.8369 2.41309 25.8535 3.3478 25.8535 4.51101C25.8535 5.66382 26.8369 6.60893 28.0455 6.60893ZM26.253 7.51249H29.8381V17.0154H26.253V7.51249Z" fill="#FEFEFE"/>
<path d="M24.4807 10.2856C24.5115 10.296 24.532 10.2856 24.532 10.2544V7.84494C24.532 7.81378 24.5115 7.78262 24.4807 7.76185C24.4807 7.76185 24.0096 7.45028 22.5755 7.36719C22.5038 7.32565 21.2439 7.31526 20.9059 7.36719C15.6819 7.79301 15.4873 11.6253 15.4873 11.7915V12.7262C15.4873 12.8405 15.4873 16.7559 20.9059 17.0986C21.4385 17.1402 22.4731 17.0986 22.5755 17.0986C23.8252 17.0986 24.6856 16.7144 24.6856 16.7144C24.7163 16.704 24.7368 16.6728 24.7368 16.6417V14.388C24.7368 14.3568 24.7163 14.3464 24.6958 14.3672C24.6958 14.3672 24.3066 14.6788 22.6063 14.8553C22.1248 14.9072 21.8892 14.8865 21.7151 14.8553C19.2977 14.4399 19.1851 12.6535 19.1851 12.6535C19.1851 12.6224 19.1748 12.5704 19.1748 12.5497V11.8642C19.1748 11.8331 19.1748 11.7811 19.1851 11.7604C19.1851 11.7604 19.3489 9.839 21.7151 9.63128H22.6063C23.6408 9.7663 24.4807 10.2856 24.4807 10.2856Z" fill="#FEFEFE"/>
<path d="M5.53125 16.9844C5.53125 17.0156 5.55174 17.0363 5.58247 17.0363H9.07536C9.10609 17.0363 9.12658 17.0156 9.12658 16.9844V14.2218C9.12658 14.1907 9.14706 14.1699 9.17779 14.1699C9.17779 14.1699 14.7603 14.5749 14.7603 10.7841C14.7603 7.78265 11.2571 7.4607 10.1099 7.51263C10.0894 7.51263 5.58247 7.51263 5.58247 7.51263C5.55174 7.51263 5.53125 7.5334 5.53125 7.56455V16.9844ZM9.06512 12.0616V9.57939H9.92554C9.92554 9.57939 11.165 9.63132 11.2674 10.4933C11.2879 10.5556 11.2879 10.9815 11.2674 11.0022C11.1035 12.0096 10.028 12.0616 10.028 12.0616H9.06512Z" fill="#FEFEFE"/>
<path d="M28.1486 21.6008C28.4354 21.6008 28.6607 21.6008 29.0295 21.4346C30.2996 20.7595 34.5915 10.1349 39.1189 6.86343C39.1496 6.84266 39.1804 6.8115 39.2009 6.78034C39.2316 6.7388 39.2316 6.69726 39.2316 6.69726C39.2316 6.69726 39.2316 6.47916 38.5658 6.47916C34.5402 6.36492 30.3508 14.9331 28.1486 18.3189C28.1178 18.3604 27.9744 18.3189 27.9744 18.3189C27.9744 18.3189 26.4994 16.5533 25.219 15.8783C25.1883 15.8679 25.0449 15.8159 24.8913 15.8263C24.7888 15.8263 24.1947 15.951 23.9182 16.2418C23.5904 16.5949 23.6006 16.7922 23.6006 17.218C23.6006 17.2492 23.6211 17.3946 23.6621 17.4673C23.9796 18.0281 25.4034 20.0222 26.5814 21.123C26.7555 21.2581 27.0321 21.6008 28.1486 21.6008Z" fill="#2BBC5D"/>
<path d="M40.3066 3.65381H43.6561C44.3219 3.65381 44.8546 3.74728 45.2541 3.92384C45.6638 4.11078 46.0018 4.37043 46.2579 4.70277C46.5242 5.0455 46.7188 5.44016 46.8315 5.88674C46.9544 6.33333 47.0159 6.81107 47.0159 7.31997C47.0159 8.10929 46.9237 8.72205 46.7495 9.15825C46.5754 9.59445 46.3296 9.95795 46.012 10.2591C45.6945 10.5499 45.3565 10.7473 44.998 10.8511C44.5063 10.9861 44.0556 11.0485 43.6561 11.0485H40.3066V3.65381ZM42.5601 5.32591V9.36597H43.1132C43.5844 9.36597 43.9225 9.31404 44.1171 9.21018C44.3117 9.10632 44.4756 8.91938 44.5883 8.65974C44.7009 8.40009 44.7624 7.96389 44.7624 7.3719C44.7624 6.58259 44.6395 6.05291 44.3834 5.76211C44.1273 5.47131 43.7176 5.32591 43.1235 5.32591H42.5601Z" fill="#2D7B82"/>
<path d="M47.6406 8.60806L49.7917 8.47304C49.8429 8.82615 49.9351 9.09619 50.0785 9.28313C50.3141 9.58431 50.6419 9.72971 51.0721 9.72971C51.3896 9.72971 51.6457 9.65701 51.8198 9.50123C51.9939 9.34544 52.0861 9.16889 52.0861 8.97156C52.0861 8.78461 52.0042 8.60806 51.8403 8.45227C51.6764 8.29648 51.2872 8.16147 50.6828 8.02645C49.6892 7.79797 48.9927 7.49678 48.5625 7.12289C48.1323 6.74901 47.9274 6.27126 47.9274 5.68966C47.9274 5.30539 48.0401 4.95228 48.2552 4.60955C48.4703 4.26682 48.7981 4.00717 49.2385 3.80984C49.679 3.61251 50.2731 3.51904 51.0311 3.51904C51.9632 3.51904 52.6802 3.6956 53.1617 4.04872C53.6533 4.40183 53.9401 4.96266 54.0323 5.73121L51.9018 5.85584C51.8403 5.52349 51.7276 5.28462 51.5432 5.12883C51.3589 4.97305 51.113 4.90035 50.7955 4.90035C50.5292 4.90035 50.3346 4.95228 50.2014 5.06652C50.0682 5.18076 50.0068 5.31578 50.0068 5.48195C50.0068 5.59619 50.058 5.71043 50.1707 5.80391C50.2731 5.89738 50.5292 5.99085 50.9287 6.07393C51.912 6.29203 52.6188 6.51014 53.049 6.72824C53.4792 6.94634 53.7865 7.22675 53.9811 7.54871C54.1757 7.87067 54.2679 8.24455 54.2679 8.6496C54.2679 9.12734 54.1347 9.56354 53.8787 9.9582C53.6226 10.3632 53.2538 10.6644 52.7929 10.8721C52.332 11.0799 51.7379 11.1837 51.0311 11.1837C49.7917 11.1837 48.9313 10.9448 48.4498 10.4567C47.9786 9.96859 47.7123 9.35583 47.6406 8.60806Z" fill="#2D7B82"/>
<path d="M54.8418 8.60806L56.9928 8.47304C57.0441 8.82615 57.1362 9.09619 57.2797 9.28313C57.5152 9.58431 57.843 9.72971 58.2732 9.72971C58.5908 9.72971 58.8468 9.65701 59.021 9.50123C59.1951 9.34544 59.2873 9.16889 59.2873 8.97156C59.2873 8.78461 59.2054 8.60806 59.0415 8.45227C58.8776 8.29648 58.4883 8.16147 57.884 8.02645C56.8904 7.79797 56.1939 7.49678 55.7637 7.12289C55.3437 6.74901 55.1286 6.27126 55.1286 5.68966C55.1286 5.30539 55.2413 4.95228 55.4564 4.60955C55.6715 4.26682 55.9993 4.00717 56.4397 3.80984C56.8802 3.61251 57.4743 3.51904 58.2323 3.51904C59.1644 3.51904 59.8814 3.6956 60.3628 4.04872C60.8545 4.40183 61.1413 4.96266 61.2335 5.73121L59.1029 5.85584C59.0415 5.52349 58.9288 5.28462 58.7444 5.12883C58.56 4.97305 58.3142 4.90035 57.9967 4.90035C57.7303 4.90035 57.5357 4.95228 57.4026 5.06652C57.2694 5.18076 57.2079 5.31578 57.2079 5.48195C57.2079 5.59619 57.2592 5.71043 57.3718 5.80391C57.4743 5.89738 57.7303 5.99085 58.1298 6.07393C59.1132 6.29203 59.8199 6.51014 60.2502 6.72824C60.6804 6.94634 60.9877 7.22675 61.1823 7.54871C61.3769 7.87067 61.4691 8.24455 61.4691 8.6496C61.4691 9.12734 61.3359 9.56354 61.0798 9.9582C60.8238 10.3632 60.455 10.6644 59.9941 10.8721C59.5331 11.0799 58.939 11.1837 58.2323 11.1837C56.9928 11.1837 56.1324 10.9448 55.651 10.4567C55.1696 9.96859 54.9033 9.35583 54.8418 8.60806Z" fill="#2D7B82"/>
</svg>
