<svg width="91" height="21" viewBox="0 0 91 21" fill="none" xmlns="http://www.w3.org/2000/svg">
<g clip-path="url(#clip0_1713_18174)">
<path fill-rule="evenodd" clip-rule="evenodd" d="M4.12868 12.884C4.12868 13.0578 4.26969 13.1988 4.44357 13.1988H7.53914C7.71305 13.1988 7.85404 13.0578 7.85404 12.884V11.3374H9.40184C9.57568 11.3374 9.71674 11.1965 9.71674 11.0227V9.79069C9.71674 9.61691 9.57568 9.47605 9.40184 9.47605H4.44357C4.26969 9.47605 4.12868 9.61691 4.12868 9.79069V12.884ZM4.12868 6.05734C4.12868 5.88358 3.98767 5.74268 3.81378 5.74268H0.718215C0.544329 5.74268 0.40332 5.88358 0.40332 6.05734V9.15071C0.40332 9.32449 0.544329 9.46535 0.718215 9.46535H1.9511C2.12499 9.46535 2.266 9.32449 2.266 9.15071V7.604H3.81378C3.98767 7.604 4.12868 7.46314 4.12868 7.28936V6.05734ZM5.99136 17.2254C5.99136 17.0516 5.85035 16.9108 5.67646 16.9108H4.44357C4.26969 16.9108 4.12868 17.0516 4.12868 17.2254V18.4574C4.12868 18.6312 4.26969 18.7721 4.44357 18.7721H5.67646C5.85035 18.7721 5.99136 18.6312 5.99136 18.4574V17.2254ZM28.0286 5.74268H24.933C24.7592 5.74268 24.6181 5.88358 24.6181 6.05734V7.28936C24.6181 7.46314 24.7592 7.604 24.933 7.604H26.4808V9.15071C26.4808 9.32449 26.6218 9.46535 26.7957 9.46535H28.0286C28.2025 9.46535 28.3435 9.32449 28.3435 9.15071V6.05734C28.3435 5.88358 28.2025 5.74268 28.0286 5.74268ZM24.3032 9.46535H19.345C19.1711 9.46535 19.0301 9.60628 19.0301 9.78006V11.0121C19.0301 11.1858 19.1711 11.3267 19.345 11.3267H20.8928V12.8734C20.8928 13.0471 21.0338 13.1881 21.2077 13.1881H24.3032C24.4771 13.1881 24.6181 13.0471 24.6181 12.8734V9.78006C24.6181 9.60628 24.4771 9.46535 24.3032 9.46535ZM22.4406 18.7827H20.8928V17.2361C20.8928 17.0623 20.7518 16.9214 20.5779 16.9214H19.0301V13.5134C19.0301 13.3396 18.8891 13.1988 18.7152 13.1988H17.1675V9.79069C17.1675 9.61691 17.0264 9.47605 16.8526 9.47605H11.8943C11.7204 9.47605 11.5794 9.61691 11.5794 9.79069V13.1988H10.0316C9.85767 13.1988 9.71674 13.3396 9.71674 13.5134V16.9214H8.16894C7.99504 16.9214 7.85404 17.0623 7.85404 17.2361V18.7827H6.30625C6.13237 18.7827 5.99136 18.9237 5.99136 19.0975V20.3295C5.99136 20.5032 6.13237 20.6441 6.30625 20.6441H9.40184C9.57568 20.6441 9.71674 20.5032 9.71674 20.3295V18.7827H11.2645C11.4384 18.7827 11.5794 18.6419 11.5794 18.4681V15.06H17.1675V18.4681C17.1675 18.6419 17.3085 18.7827 17.4823 18.7827H19.0301V20.3295C19.0301 20.5032 19.1711 20.6441 19.345 20.6441H22.4406C22.6144 20.6441 22.7555 20.5032 22.7555 20.3295V19.0975C22.7555 18.9237 22.6144 18.7827 22.4406 18.7827ZM24.3032 16.9108H23.0704C22.8965 16.9108 22.7555 17.0516 22.7555 17.2254V18.4574C22.7555 18.6312 22.8965 18.7721 23.0704 18.7721H24.3032C24.4771 18.7721 24.6181 18.6312 24.6181 18.4574V17.2254C24.6181 17.0516 24.4771 16.9108 24.3032 16.9108Z" fill="white"/>
<path fill-rule="evenodd" clip-rule="evenodd" d="M8.16841 5.74234H20.5774C20.7513 5.74234 20.8923 5.60133 20.8923 5.42744V4.19455C20.8923 4.02061 20.7513 3.87966 20.5774 3.87966H19.0296V2.33187C19.0296 2.15799 18.8886 2.01697 18.7147 2.01697H17.1669V0.469191C17.1669 0.295306 17.0259 0.154297 16.852 0.154297H11.8938C11.7199 0.154297 11.5789 0.295306 11.5789 0.469191V2.01697H10.0311C9.85721 2.01697 9.71621 2.15799 9.71621 2.33187V3.87966H8.16841C7.99457 3.87966 7.85352 4.02061 7.85352 4.19455V5.42744C7.85352 5.60133 7.99457 5.74234 8.16841 5.74234Z" fill="#1BEDBA"/>
<path fill-rule="evenodd" clip-rule="evenodd" d="M60.4973 9.28018C59.5174 9.28018 58.6322 9.68332 58.0093 10.3298C57.4008 9.68082 56.534 9.27519 55.5734 9.27519C55.0344 9.27519 54.4844 9.47253 54.0603 9.75772V9.66321C54.0603 9.52689 53.9472 9.42323 53.8155 9.42323H52.449C52.3182 9.42323 52.2042 9.52689 52.2042 9.66321V16.471C52.2042 16.6073 52.3174 16.711 52.449 16.711H53.8188C53.9497 16.711 54.0636 16.6073 54.0636 16.471V12.6055C54.0636 11.7725 54.7401 11.0984 55.5734 11.0984C56.4074 11.0984 57.0831 11.7733 57.0831 12.6055V16.471C57.0831 16.6073 57.1962 16.711 57.3279 16.711H58.6657C58.6691 16.711 58.6716 16.711 58.6733 16.711H58.7034C58.8342 16.711 58.9482 16.6073 58.9482 16.471V12.608C58.9482 11.7791 59.6389 11.1017 60.4973 11.1017C61.3557 11.1017 62.0464 11.7791 62.0464 12.608V16.4702C62.0464 16.6065 62.1596 16.7102 62.2912 16.7102H63.666C63.7976 16.7102 63.9107 16.6065 63.9107 16.4702V12.608C63.9099 10.7672 62.3792 9.28018 60.4973 9.28018ZM70.7458 12.9366C70.2239 12.6197 69.5541 12.4675 68.9702 12.3353L68.9587 12.3328C68.5348 12.2366 68.1621 12.1514 67.8939 12.0259C67.6281 11.9021 67.5078 11.7599 67.5078 11.5642C67.5078 11.3953 67.5711 11.2456 67.7223 11.1276C67.8772 11.0064 68.134 10.9127 68.5303 10.8893C69.2058 10.8893 69.729 10.9052 70.083 10.9211C70.2604 10.9286 70.3955 10.937 70.4851 10.9429C70.5306 10.9462 70.5645 10.9478 70.5876 10.9495C70.5991 10.9503 70.6074 10.9512 70.6126 10.9512L70.6183 10.952H70.6203L70.626 10.9528H70.6318C70.7368 10.9528 70.8322 10.9328 70.8975 10.8651C70.9551 10.8048 70.9673 10.7279 70.9724 10.6903C70.9724 10.6878 70.9731 10.6853 70.9731 10.6836C70.9756 10.6676 70.9775 10.6559 70.9795 10.6451L70.9833 10.6309V9.79204C70.9833 9.68998 70.9763 9.5963 70.9372 9.52439C70.8885 9.43494 70.8072 9.40645 70.7419 9.39224L70.7355 9.3914L70.7297 9.39057H70.7272L70.7208 9.38974C70.715 9.38891 70.7067 9.38807 70.6958 9.38724C70.6728 9.38474 70.6395 9.38141 70.5953 9.37719C70.505 9.36886 70.3712 9.35798 70.19 9.34709C69.8282 9.32532 69.2782 9.30362 68.5252 9.30362H68.5226H68.5201C67.5564 9.3396 66.8252 9.60718 66.3334 10.0304C65.8398 10.4544 65.5965 11.0265 65.5965 11.6453C65.5965 12.0526 65.6906 12.3863 65.8564 12.6615C66.0216 12.9358 66.2534 13.1441 66.5185 13.3072C67.041 13.6274 67.7094 13.7822 68.2921 13.9169L68.3043 13.9193C68.7288 14.0172 69.1021 14.1041 69.3704 14.2313C69.6355 14.3567 69.7584 14.5014 69.7584 14.703C69.7584 14.8711 69.6803 15.0208 69.492 15.1353C69.2955 15.2541 68.9779 15.3336 68.5105 15.3336C67.979 15.3336 67.3989 15.2767 66.9494 15.219C66.7247 15.1906 66.5345 15.1613 66.3994 15.1396C66.3322 15.1287 66.279 15.1195 66.2425 15.1136C66.2329 15.112 66.224 15.1103 66.2169 15.1095C66.2111 15.1086 66.2047 15.1077 66.2009 15.1069L66.1907 15.1052L66.1875 15.1044L66.1759 15.1019H66.1638C66.0684 15.1019 65.9781 15.1195 65.914 15.1839C65.8577 15.2399 65.8455 15.3144 65.8404 15.3486C65.8398 15.3511 65.8398 15.3537 65.8398 15.3553C65.8359 15.3737 65.8334 15.3854 65.8308 15.3972L65.8276 15.4105L65.7751 16.3572V16.3606C65.7751 16.4225 65.7841 16.4961 65.818 16.5622C65.8519 16.6324 65.914 16.6951 66.0088 16.7194L66.012 16.7202L66.0159 16.721L66.0197 16.6993C66.0159 16.721 66.0159 16.721 66.0159 16.721L66.0191 16.7219C66.0203 16.7227 66.0242 16.7227 66.028 16.7235C66.0357 16.7253 66.0472 16.7269 66.0626 16.7303C66.0927 16.7361 66.1362 16.7436 66.1939 16.7529C66.3098 16.7712 66.4781 16.7955 66.6965 16.8206C67.1306 16.8699 67.7575 16.9185 68.5284 16.9185H68.5348C68.6296 16.9193 69.3998 16.9251 70.1516 16.6432C70.5287 16.5019 70.909 16.2853 71.1959 15.9525C71.4853 15.6171 71.6723 15.1697 71.6723 14.5826C71.6723 14.1794 71.5775 13.8483 71.4117 13.5756C71.2439 13.3029 71.0115 13.0972 70.7458 12.9366ZM86.1943 9.42739C85.4291 9.42739 84.7139 9.64234 84.1133 10.0145V6.89532C84.1133 6.759 84 6.65527 83.8681 6.65527H82.4965C82.3659 6.65527 82.2519 6.759 82.2519 6.89532V16.4727C82.2519 16.609 82.3653 16.7127 82.4965 16.7127H83.8681C83.9993 16.7127 84.1133 16.609 84.1133 16.4727V16.154C84.68 16.5956 85.431 16.9176 86.1943 16.9176C88.3284 16.9176 90.0655 15.2449 90.0655 13.1725C90.0655 11.1 88.3284 9.42739 86.1943 9.42739ZM86.1943 15.1095C85.0878 15.1095 84.1901 14.2422 84.1901 13.1725C84.1901 12.1028 85.0872 11.2355 86.1943 11.2355C87.3007 11.2355 88.1984 12.1028 88.1984 13.1725C88.1984 14.2422 87.302 15.1095 86.1943 15.1095ZM80.1421 9.42739H78.7674C78.6355 9.42739 78.5222 9.53112 78.5222 9.66744V13.6266C78.5222 14.4437 77.8332 15.1136 76.9733 15.1136C76.9695 15.1136 76.9656 15.1136 76.9618 15.1136C76.9573 15.1136 76.9541 15.1136 76.9496 15.1136C76.0897 15.1136 75.4007 14.4437 75.4007 13.6266V9.66744C75.4007 9.53112 75.2874 9.42739 75.1561 9.42739H73.7814C73.6495 9.42739 73.5362 9.53112 73.5362 9.66744V13.6266C73.5362 15.4481 75.0691 16.9168 76.9496 16.9168C76.9541 16.9168 76.9573 16.9168 76.9618 16.9168C76.9656 16.9168 76.9695 16.9168 76.9733 16.9168C78.8539 16.9168 80.3867 15.4481 80.3867 13.6266V9.66744C80.3867 9.53112 80.2734 9.42739 80.1421 9.42739ZM40.7063 12.9366C40.184 12.6197 39.5143 12.4675 38.9308 12.3353L38.9191 12.3328C38.4949 12.2366 38.1227 12.1514 37.8545 12.0259C37.5888 11.9021 37.4681 11.7599 37.4681 11.5642C37.4681 11.3953 37.5318 11.2456 37.6826 11.1276C37.8377 11.0064 38.0942 10.9127 38.4907 10.8893C39.1663 10.8893 39.6895 10.9052 40.0432 10.9211C40.2209 10.9286 40.3559 10.937 40.4455 10.9429C40.4908 10.9462 40.5252 10.9478 40.5479 10.9495C40.5596 10.9503 40.568 10.9512 40.573 10.9512L40.5788 10.952H40.5805L40.5864 10.9528H40.5923C40.697 10.9528 40.7926 10.9328 40.858 10.8651C40.9158 10.8048 40.9276 10.7279 40.9326 10.6903C40.9326 10.6878 40.9334 10.6853 40.9334 10.6836C40.9359 10.6676 40.9376 10.6559 40.9402 10.6451L40.9435 10.6309V9.79204C40.9435 9.68998 40.9368 9.5963 40.8974 9.52439C40.8488 9.43494 40.7675 9.40645 40.7021 9.39224L40.6962 9.3914L40.6903 9.39057H40.6878L40.6811 9.38974C40.6753 9.38891 40.6669 9.38807 40.6559 9.38724C40.6333 9.38474 40.5998 9.38141 40.5553 9.37719C40.4657 9.36886 40.3316 9.35798 40.1505 9.34709C39.7884 9.32532 39.2384 9.30362 38.4857 9.30362H38.4832H38.4806C37.5167 9.3396 36.7857 9.60718 36.2936 10.0304C35.8007 10.4544 35.5576 11.0265 35.5576 11.6453C35.5576 12.0526 35.6515 12.3863 35.8175 12.6615C35.9826 12.9358 36.2148 13.1441 36.4797 13.3072C37.002 13.6274 37.6709 13.7822 38.2535 13.9169L38.2653 13.9193C38.6902 14.0172 39.0633 14.1041 39.3315 14.2313C39.5964 14.3567 39.7196 14.5014 39.7196 14.703C39.7196 14.8711 39.6416 15.0208 39.4531 15.1353C39.2569 15.2541 38.9392 15.3336 38.4714 15.3336C37.94 15.3336 37.3599 15.2767 36.9106 15.219C36.686 15.1906 36.4957 15.1613 36.3607 15.1396C36.2936 15.1287 36.24 15.1195 36.2039 15.1136C36.1939 15.112 36.1855 15.1103 36.1779 15.1095C36.1721 15.1086 36.1662 15.1077 36.1621 15.1069L36.1519 15.1052L36.1486 15.1044L36.1369 15.1019H36.1243C36.0287 15.1019 35.9382 15.1195 35.8745 15.1839C35.8183 15.2399 35.8058 15.3144 35.8007 15.3486C35.7999 15.3511 35.7999 15.3537 35.7999 15.3553C35.7966 15.3737 35.794 15.3854 35.7915 15.3972L35.7882 15.4105L35.7337 16.3564V16.3598C35.7337 16.4216 35.7429 16.4953 35.7764 16.5613C35.8108 16.6316 35.8728 16.6943 35.9675 16.7185L35.9709 16.7194L35.9743 16.7202L35.9784 16.6985C35.9743 16.7202 35.9743 16.7202 35.9743 16.7202H35.9751L35.9776 16.721C35.9793 16.7219 35.9826 16.7219 35.9868 16.7227C35.9944 16.7244 36.0061 16.7261 36.0212 16.7294C36.0514 16.7353 36.095 16.7428 36.1528 16.752C36.2685 16.7704 36.437 16.7947 36.655 16.8197C37.0891 16.8691 37.7162 16.9176 38.4874 16.9176H38.4933C38.588 16.9185 39.3583 16.9243 40.1103 16.6424C40.4875 16.5011 40.8681 16.2845 41.1547 15.9517C41.444 15.6163 41.6309 15.1688 41.6309 14.5817C41.6309 14.1786 41.5362 13.8474 41.3702 13.5747C41.2042 13.3029 40.972 13.0972 40.7063 12.9366ZM50.097 9.42739H48.7223C48.5907 9.42739 48.4775 9.53112 48.4775 9.66744V13.6266C48.4775 14.4437 47.7885 15.1136 46.9284 15.1136C46.9242 15.1136 46.9209 15.1136 46.9167 15.1136C46.9125 15.1136 46.9091 15.1136 46.9049 15.1136C46.0449 15.1136 45.3558 14.4437 45.3558 13.6266V9.66744C45.3558 9.53112 45.2427 9.42739 45.111 9.42739H43.7363C43.6047 9.42739 43.4915 9.53112 43.4915 9.66744V13.6266C43.4915 15.4481 45.0239 16.9168 46.9049 16.9168C46.9091 16.9168 46.9125 16.9168 46.9167 16.9168C46.9209 16.9168 46.9242 16.9168 46.9284 16.9168C48.8086 16.9168 50.3418 15.4481 50.3418 13.6266V9.66744C50.3418 9.53112 50.2287 9.42739 50.097 9.42739Z" fill="white"/>
</g>
<defs>
<clipPath id="clip0_1713_18174">
<rect width="90.2823" height="20.4896" fill="white" transform="translate(0.40332 0.154297)"/>
</clipPath>
</defs>
</svg>
