<svg width="34" height="21" viewBox="0 0 34 21" fill="none" xmlns="http://www.w3.org/2000/svg">
<path d="M7.02306 0H15.1688C16.3059 0 17.0131 0.922527 16.7478 2.0581L12.9554 18.2652C12.6878 19.3968 11.5493 20.3201 10.4114 20.3201H2.26651C1.13103 20.3201 0.422223 19.3968 0.68748 18.2652L4.48148 2.0581C4.74674 0.922527 5.8846 0 7.02306 0Z" fill="#E21836"/>
<path d="M14.4952 0H23.8626C24.9995 0 24.4868 0.922527 24.2194 2.0581L20.4275 18.2652C20.1615 19.3968 20.2445 20.3201 19.1052 20.3201H9.73786C8.59861 20.3201 7.89357 19.3968 8.16121 18.2652L11.9528 2.0581C12.2221 0.922527 13.3575 0 14.4952 0Z" fill="#00447C"/>
<path d="M23.488 0H31.6337C32.7724 0 33.4796 0.922527 33.2121 2.0581L29.4203 18.2652C29.1527 19.3968 28.0134 20.3201 26.875 20.3201H18.733C17.5938 20.3201 16.8872 19.3968 17.154 18.2652L20.9464 2.0581C21.2117 0.922527 22.3487 0 23.488 0Z" fill="#007B84"/>
<path d="M9.15361 5.19366C8.31595 5.20215 8.06856 5.19366 7.98954 5.17508C7.95916 5.31875 7.3939 7.9142 7.39232 7.91638C7.27061 8.44147 7.18206 8.81578 6.88126 9.05748C6.71051 9.19799 6.51117 9.26578 6.28006 9.26578C5.90859 9.26578 5.69217 9.08218 5.65584 8.73396L5.64889 8.6144C5.64889 8.6144 5.76206 7.91104 5.76206 7.90709C5.76206 7.90709 6.35531 5.54188 6.46153 5.22923C6.46709 5.21144 6.46868 5.20215 6.47007 5.19366C5.31533 5.20373 5.11063 5.19366 5.09654 5.17508C5.08879 5.20057 5.0602 5.34721 5.0602 5.34721L4.45444 8.01302L4.40242 8.2391L4.30176 8.97863C4.30176 9.19799 4.34504 9.37704 4.43121 9.52843C4.70719 10.0085 5.49442 10.0804 5.93976 10.0804C6.51355 10.0804 7.05181 9.95906 7.41555 9.73752C8.04692 9.36617 8.21211 8.78574 8.35943 8.26993L8.42773 8.00531C8.42773 8.00531 9.03885 5.54879 9.14269 5.22923C9.14666 5.21144 9.14825 5.20215 9.15361 5.19366ZM11.2329 7.17535C11.0856 7.17535 10.8164 7.21092 10.5745 7.32891C10.4868 7.37377 10.4038 7.42555 10.3162 7.47713L10.3953 7.19314L10.352 7.14531C9.83913 7.24867 9.72437 7.2625 9.25064 7.32891L9.21093 7.35519C9.15594 7.80914 9.10709 8.15045 8.90319 9.04274C8.82555 9.37159 8.74495 9.7036 8.66414 10.0317L8.68598 10.0734C9.17142 10.0479 9.31874 10.0479 9.74065 10.0548L9.7748 10.0178C9.82841 9.74451 9.83536 9.68048 9.95409 9.12693C10.0099 8.86448 10.1262 8.2878 10.1836 8.08246C10.289 8.03385 10.3931 7.98602 10.4923 7.98602C10.7288 7.98602 10.7 8.19135 10.6909 8.27317C10.6808 8.41052 10.5946 8.85914 10.5062 9.24432L10.4473 9.49293C10.4062 9.67653 10.3611 9.85499 10.32 10.037L10.3379 10.0734C10.8164 10.0479 10.9623 10.0479 11.3709 10.0548L11.419 10.0178C11.4928 9.59096 11.5145 9.47673 11.6455 8.85519L11.7114 8.56961C11.8395 8.01072 11.9038 7.72732 11.8069 7.4965C11.7045 7.2378 11.4587 7.17535 11.2329 7.17535ZM13.5557 7.76051C13.3014 7.80912 13.1392 7.84153 12.978 7.86248C12.8181 7.88798 12.6623 7.9111 12.4165 7.94509L12.397 7.96268L12.3792 7.97671C12.3535 8.15892 12.3357 8.31643 12.3017 8.50161C12.2729 8.69311 12.2287 8.9107 12.1566 9.22335C12.1008 9.46268 12.072 9.54607 12.0402 9.63026C12.0093 9.71445 11.9751 9.79627 11.9124 10.0316L11.9271 10.0534L11.9394 10.0733C12.1691 10.0625 12.3194 10.0548 12.4739 10.0534C12.6281 10.0479 12.788 10.0534 13.0354 10.0548L13.057 10.0372L13.0802 10.0178C13.116 9.80556 13.1213 9.74845 13.1432 9.64489C13.1648 9.53382 13.2021 9.38007 13.2937 8.9694C13.3369 8.77651 13.3852 8.58422 13.4301 8.38738C13.4767 8.19133 13.5256 7.99825 13.572 7.80537L13.5651 7.78205L13.5557 7.76051ZM13.5612 6.97154C13.3301 6.83577 12.9244 6.87885 12.6514 7.0664C12.3792 7.25019 12.3482 7.51106 12.5786 7.64861C12.8057 7.78062 13.2129 7.7413 13.4835 7.55217C13.7551 7.36442 13.7891 7.10592 13.5612 6.97154ZM14.9588 10.1159C15.4264 10.1159 15.9057 9.98763 16.2664 9.607C16.544 9.29831 16.6713 8.83902 16.7154 8.64989C16.8589 8.02301 16.7471 7.73033 16.6067 7.55207C16.3935 7.28033 16.0167 7.19318 15.6257 7.19318C15.3907 7.19318 14.8308 7.2163 14.3934 7.61768C14.0793 7.90721 13.9341 8.30009 13.8466 8.67677C13.7582 9.06056 13.6566 9.75147 14.2949 10.0086C14.4918 10.0928 14.7758 10.1159 14.9588 10.1159ZM14.9223 8.70542C15.0301 8.23072 15.1574 7.8323 15.4822 7.8323C15.7367 7.8323 15.7552 8.12875 15.642 8.60503C15.6218 8.71076 15.5288 9.10384 15.4032 9.27123C15.3154 9.39475 15.2116 9.46965 15.0968 9.46965C15.0627 9.46965 14.8595 9.46965 14.8564 9.16946C14.8548 9.02123 14.8852 8.86985 14.9223 8.70542ZM17.8842 10.0548L17.9207 10.0179C17.9725 9.74457 17.9811 9.68034 18.0958 9.12698C18.1532 8.86453 18.2719 8.28786 18.3277 8.08252C18.4334 8.03371 18.5356 7.98588 18.6381 7.98588C18.8729 7.98588 18.8444 8.19122 18.835 8.27303C18.8265 8.41058 18.7403 8.859 18.6504 9.24418L18.5946 9.49279C18.5519 9.67659 18.5054 9.85485 18.4643 10.0371L18.4822 10.0734C18.9623 10.0479 19.1027 10.0479 19.5137 10.0548L19.5633 10.0179C19.6354 9.59082 19.6548 9.47659 19.7898 8.85525L19.8542 8.56948C19.9828 8.01058 20.0479 7.72738 19.9526 7.49655C19.8472 7.23786 19.5998 7.17541 19.3773 7.17541C19.2297 7.17541 18.9591 7.21078 18.7187 7.32897C18.6327 7.37383 18.5465 7.42541 18.462 7.47719L18.5356 7.1932L18.4961 7.14517C17.9835 7.24873 17.8663 7.26256 17.3932 7.32897L17.3569 7.35525C17.2995 7.8092 17.2528 8.15031 17.0489 9.0428C16.9713 9.37165 16.8907 9.70366 16.8101 10.0317L16.8317 10.0734C17.3179 10.0479 17.4631 10.0479 17.8842 10.0548ZM21.4114 10.0733C21.4416 9.92669 21.6209 9.05752 21.6225 9.05752C21.6225 9.05752 21.7752 8.41977 21.7845 8.39665C21.7845 8.39665 21.8326 8.33025 21.8806 8.30396H21.9513C22.6182 8.30396 23.3713 8.30396 23.9616 7.87175C24.3632 7.57531 24.6378 7.13756 24.7603 6.60555C24.7921 6.47511 24.8155 6.31998 24.8155 6.16484C24.8155 5.96108 24.7744 5.7595 24.6557 5.60199C24.3547 5.18283 23.7553 5.17512 23.0633 5.17196C23.0612 5.17196 22.7222 5.17512 22.7222 5.17512C21.8365 5.18599 21.4813 5.18283 21.3354 5.16504C21.3231 5.22927 21.2999 5.3435 21.2999 5.3435C21.2999 5.3435 20.9826 6.80713 20.9826 6.8095C20.9826 6.8095 20.2234 9.92135 20.1876 10.068C20.9609 10.0587 21.278 10.0587 21.4114 10.0733ZM21.9993 7.47333C21.9993 7.47333 22.3367 6.01266 22.3351 6.0182L22.346 5.9433L22.3508 5.88618L22.4856 5.90002C22.4856 5.90002 23.1813 5.9595 23.1976 5.96108C23.4721 6.06681 23.5853 6.33934 23.5063 6.69507C23.4342 7.02017 23.2224 7.29349 22.9502 7.42551C22.726 7.53736 22.4514 7.54665 22.1685 7.54665H21.9854L21.9993 7.47333ZM24.0996 8.73248C24.0105 9.11074 23.908 9.80165 24.5432 10.0479C24.7457 10.1337 24.9272 10.1592 25.1116 10.1499C25.3064 10.1394 25.4869 10.0422 25.654 9.90224C25.639 9.95975 25.6239 10.0173 25.6088 10.075L25.6376 10.1119C26.0944 10.0928 26.2362 10.0928 26.7312 10.0965L26.776 10.0625C26.8483 9.63959 26.9164 9.22892 27.1042 8.41983C27.1958 8.03228 27.2871 7.64849 27.381 7.26252L27.3663 7.22003C26.8552 7.3143 26.7186 7.33446 26.227 7.40383L26.1897 7.43406C26.1848 7.47339 26.1796 7.51114 26.1748 7.54889C26.0984 7.42596 25.9876 7.32102 25.8167 7.25561C25.5981 7.17003 25.0846 7.28031 24.6433 7.68031C24.3331 7.96588 24.1842 8.35718 24.0996 8.73248ZM25.173 8.7556C25.2824 8.2894 25.408 7.89493 25.7337 7.89493C25.9396 7.89493 26.048 8.08406 26.0259 8.40659C26.0084 8.48703 25.9896 8.57181 25.9671 8.66766C25.9346 8.80619 25.8993 8.94355 25.8649 9.08109C25.83 9.17517 25.7893 9.2639 25.7446 9.32299C25.6608 9.44117 25.4615 9.51449 25.3467 9.51449C25.3141 9.51449 25.1132 9.51449 25.1063 9.21963C25.1047 9.0728 25.135 8.92161 25.173 8.7556ZM30.778 7.21626L30.7385 7.1714C30.2328 7.27337 30.1413 7.28958 29.6767 7.35203L29.6425 7.38602C29.6409 7.39155 29.6395 7.40005 29.6372 7.40776L29.6356 7.40005C29.2897 8.19432 29.2998 8.02298 29.0183 8.64827C29.0167 8.61981 29.0167 8.60203 29.0151 8.57179L28.9446 7.21626L28.9004 7.1714C28.3706 7.27337 28.3581 7.28958 27.8689 7.35203L27.8308 7.38602C27.8254 7.40223 27.8254 7.42001 27.8223 7.43938L27.8254 7.4463C27.8866 7.75736 27.8719 7.688 27.9332 8.1789C27.9618 8.41981 28 8.6621 28.0285 8.90005C28.0768 9.29827 28.1038 9.49432 28.1628 10.102C27.8324 10.6447 27.7542 10.85 27.4361 11.3263L27.4383 11.3311L27.2143 11.6836C27.1887 11.7208 27.1655 11.7463 27.1329 11.7572C27.0972 11.7747 27.0507 11.7779 26.9862 11.7779H26.8621L26.6776 12.3886L27.3104 12.3994C27.6819 12.3979 27.9154 12.2249 28.0411 11.9925L28.4389 11.3139H28.4326L28.4745 11.266C28.7421 10.6925 30.778 7.21626 30.778 7.21626ZM24.0996 15.2365H23.8312L24.8247 11.9656H25.1543L25.2589 11.6286L25.269 12.0033C25.2567 12.2349 25.4398 12.4403 25.9207 12.4063H26.4768L26.6682 11.7764H26.4589C26.3386 11.7764 26.2828 11.7462 26.2898 11.6814L26.2796 11.3001H25.2498V11.3021C24.9168 11.309 23.9225 11.3339 23.7212 11.3873C23.4776 11.4497 23.2209 11.6335 23.2209 11.6335L23.3217 11.2962H22.3584L22.1576 11.9656L21.1508 15.2865H20.9555L20.7639 15.9118H22.6826L22.6183 16.1203H23.5637L23.6265 15.9118H23.8917L24.0996 15.2365ZM23.3124 12.6302C23.1581 12.6727 22.871 12.8015 22.871 12.8015L23.1263 11.9656H23.8917L23.7071 12.5746C23.7071 12.5746 23.4706 12.5885 23.3124 12.6302ZM23.3271 13.8244C23.3271 13.8244 23.0866 13.8545 22.9284 13.8901C22.7725 13.9371 22.4803 14.0853 22.4803 14.0853L22.7439 13.2154H23.5133L23.3271 13.8244ZM22.8982 15.2442H22.1304L22.353 14.51H23.1184L22.8982 15.2442ZM24.7472 13.2154H25.8539L25.6948 13.728H24.5735L24.4051 14.2885H25.3863L24.6434 15.3298C24.5913 15.4063 24.5447 15.4333 24.4929 15.4549C24.4408 15.4812 24.3725 15.512 24.2935 15.512H24.0213L23.8343 16.1258H24.5463C24.9163 16.1258 25.1349 15.9582 25.2964 15.7383L25.8058 15.0442L25.9152 15.7489C25.9385 15.881 26.0338 15.9582 26.0983 15.9883C26.1696 16.0238 26.2432 16.0849 26.3473 16.094C26.4588 16.0987 26.5395 16.1025 26.5931 16.1025H26.9429L27.153 15.4155H27.015C26.9358 15.4155 26.7994 15.4023 26.7761 15.3776C26.7529 15.3476 26.7529 15.3013 26.7404 15.231L26.6294 14.5246H26.1749L26.3743 14.2885H27.4935L27.6656 13.728H26.6294L26.7908 13.2154H27.8238L28.0154 12.5831H24.9356L24.7472 13.2154ZM15.4 15.3869L15.6583 14.5316H16.72L16.9139 13.8954H15.8513L16.0135 13.369H17.0519L17.2443 12.753H14.6462L14.4577 13.369H15.048L14.8906 13.8954H14.2987L14.1025 14.5425H14.6926L14.3483 15.6741C14.3019 15.8239 14.3702 15.881 14.4135 15.9506C14.4577 16.0184 14.5026 16.0632 14.6035 16.0887C14.7075 16.1118 14.7788 16.1257 14.8757 16.1257H16.0725L16.2857 15.4209L15.7552 15.4935C15.6528 15.4935 15.3691 15.4812 15.4 15.3869ZM15.5218 11.2923L15.2528 11.7763C15.1952 11.8821 15.1434 11.9477 15.0967 11.9779C15.0556 12.0034 14.9742 12.0141 14.8563 12.0141H14.7159L14.5283 12.6332H14.9945C15.2186 12.6332 15.3908 12.5514 15.473 12.5105C15.5613 12.4635 15.5845 12.4904 15.6528 12.4247L15.8103 12.289H17.266L17.4592 11.6443H16.3936L16.5796 11.2923H15.5218ZM17.6709 15.3994C17.6461 15.3638 17.664 15.3012 17.7019 15.1707L18.0998 13.8599H19.5152C19.7215 13.8569 19.8704 13.8545 19.9673 13.8476C20.0713 13.8367 20.1845 13.7998 20.3078 13.7334C20.4351 13.6638 20.5002 13.5905 20.5552 13.5063C20.6166 13.4223 20.715 13.2385 20.7996 12.9551L21.2997 11.2962L19.8309 11.3047C19.8309 11.3047 19.3786 11.3711 19.1795 11.4444C18.9786 11.5263 18.6915 11.7547 18.6915 11.7547L18.8241 11.3H17.9167L16.6464 15.4934C16.6014 15.6563 16.5712 15.7745 16.5642 15.8454C16.5619 15.9219 16.6611 15.9976 16.7255 16.0547C16.8015 16.1118 16.9139 16.1025 17.0217 16.1118C17.1351 16.1203 17.2963 16.1257 17.5188 16.1257H18.2161L18.4302 15.4063L17.8059 15.465C17.7392 15.465 17.691 15.4294 17.6709 15.3994ZM18.3565 12.9745H19.8432L19.7487 13.2693C19.7354 13.2763 19.7036 13.2547 19.5523 13.2725H18.265L18.3565 12.9745ZM18.6543 11.9856H20.1535L20.0457 12.3407C20.0457 12.3407 19.3391 12.3338 19.2259 12.3545C18.728 12.4403 18.4371 12.7051 18.4371 12.7051L18.6543 11.9856ZM19.782 14.2568C19.7697 14.3008 19.7502 14.3277 19.723 14.3479C19.6928 14.3672 19.644 14.3741 19.5711 14.3741H19.3593L19.3718 14.0151H18.4906L18.4549 15.7706C18.4535 15.8973 18.4658 15.9706 18.5589 16.0293C18.6521 16.1026 18.939 16.1119 19.3251 16.1119H19.8773L20.0766 15.4548L19.5959 15.4811L19.4361 15.4903C19.4143 15.4811 19.3934 15.4726 19.3702 15.4494C19.3499 15.4295 19.3158 15.4417 19.3214 15.3151L19.3251 14.8651L19.8292 14.8443C20.1014 14.8443 20.2178 14.7562 20.3171 14.6722C20.4118 14.5917 20.4427 14.4992 20.4785 14.3741L20.5631 13.9757H19.8703L19.782 14.2568Z" fill="white"/>
</svg>
