<svg width="57" height="19" viewBox="0 0 57 19" fill="none" xmlns="http://www.w3.org/2000/svg">
<path d="M36.8985 0C32.8761 0 29.2815 2.09827 29.2815 5.97498C29.2815 10.4208 35.6567 10.7279 35.6567 12.9614C35.6567 13.9018 34.5858 14.7436 32.7569 14.7436C30.1612 14.7436 28.2212 13.5673 28.2212 13.5673L27.3911 17.4794C27.3911 17.4794 29.6259 18.473 32.5931 18.473C36.9908 18.473 40.4513 16.2717 40.4513 12.3287C40.4513 7.63084 34.0496 7.33289 34.0496 5.25985C34.0496 4.52317 34.9287 3.71598 36.7524 3.71598C38.8101 3.71598 40.489 4.57146 40.489 4.57146L41.3014 0.7931C41.3014 0.7931 39.4746 0 36.8985 0ZM0.0973984 0.28516L0 0.855478C0 0.855478 1.69223 1.16717 3.21636 1.78893C5.17881 2.5019 5.3186 2.91696 5.64911 4.2061L9.25064 18.1789H14.0785L21.5162 0.28516H16.6994L11.9202 12.4512L9.97006 2.1387C9.79121 0.958436 8.88528 0.28516 7.77638 0.28516H0.0973984ZM23.4531 0.28516L19.6745 18.1789H24.2677L28.033 0.28516H23.4531ZM49.0711 0.28516C47.9635 0.28516 47.3767 0.88195 46.946 1.92483L40.2167 18.1789H45.0335L45.9654 15.4699H51.8337L52.4004 18.1789H56.6505L52.9427 0.28516H49.0711ZM49.6976 5.1195L51.1253 11.8341H47.3002L49.6976 5.1195Z" fill="#1434CB"/>
</svg>
