<svg width="331" height="526" viewBox="0 0 331 526" fill="none" xmlns="http://www.w3.org/2000/svg">
<path d="M50.1714 431.412C54.651 431.245 58.8611 430.93 62.593 430.527C59.0094 430.661 54.7992 430.976 50.1714 431.412Z" fill="url(#paint0_linear_1903_13688)" fill-opacity="0.05"/>
<path d="M63.4897 430.493C63.2809 430.554 63.0721 430.614 62.8026 430.466L63.4897 430.493Z" fill="url(#paint1_linear_1903_13688)" fill-opacity="0.05"/>
<path d="M142.292 374.463C137.038 375.08 131.366 375.819 124.737 376.382C98.9711 378.871 65.277 378.233 29.9201 372.654C1.25861 368.299 -20.8414 361.593 -38.2801 355.344C-54.257 348.672 -67.0344 342.882 -76.134 338.06L-76.6729 337.764C-67.5732 342.586 -55.7188 349.096 -41.1096 357.293C-37.5466 359.425 -33.1483 361.315 -28.6894 363.413C-24.0216 365.451 -19.145 367.428 -13.999 369.553C-3.55869 373.535 8.4646 377.51 22.0979 380.793C56.033 389.27 92.826 388.107 120.971 382.896C127.983 381.317 134.369 379.92 140.129 378.704C145.767 377.072 150.928 375.352 154.835 373.995C158.951 372.577 162.023 371.461 164.111 370.857C166.139 370.044 167.392 369.681 167.392 369.681C167.392 369.681 163.155 370.682 155.603 371.964C152.349 372.455 147.695 373.576 142.292 374.463Z" fill="url(#paint2_linear_1903_13688)" fill-opacity="0.05"/>
<path d="M212.646 326.753L213.421 326.303C213.064 326.632 212.646 326.753 212.289 327.082C212.498 327.022 212.646 326.753 212.646 326.753Z" fill="url(#paint3_linear_1903_13688)" fill-opacity="0.05"/>
<path d="M200.305 332.586C195.623 334.393 190.759 335.575 185.599 337.295C175.515 339.989 164.265 342.569 151.937 344.556C145.699 345.684 139.401 346.604 132.833 347.376C126.265 348.148 119.488 348.98 112.173 349.517C98.2288 350.617 83.7125 350.527 68.8326 349.186C32.4379 345.489 3.61526 338.243 -17.0165 332.693C-37.4394 327.083 -49.2539 323.047 -49.2539 323.047C-49.2539 323.047 -47.1862 324.708 -42.7543 327.492C-38.3224 330.276 -31.7958 334.035 -22.8779 338.231C-4.89397 346.356 22.655 356.229 62.0275 357.709C77.9786 358.061 93.5662 357.163 108.373 355.136C123.327 352.84 136.908 350.489 149.619 347.487C162.183 344.753 173.877 341.367 184.11 338.404C192.342 335.569 199.8 333.184 206.745 329.817L206.536 329.878C204.987 330.778 202.75 331.652 200.305 332.586Z" fill="url(#paint4_linear_1903_13688)" fill-opacity="0.05"/>
<path d="M212.29 327.082C210.741 327.982 208.982 328.943 207.372 329.636C209.191 328.883 210.741 327.982 212.29 327.082Z" fill="url(#paint5_linear_1903_13688)" fill-opacity="0.05"/>
<path d="M288.892 222.205C288.178 222.864 287.316 223.791 286.602 224.45C287.525 223.731 288.239 223.072 288.892 222.205Z" fill="url(#paint6_linear_1903_13688)" fill-opacity="0.05"/>
<path d="M286.602 224.45C286.393 224.51 286.245 224.779 286.036 224.839C286.245 224.779 286.453 224.719 286.602 224.45Z" fill="url(#paint7_linear_1903_13688)" fill-opacity="0.05"/>
<path d="M291.985 218.824C291.479 219.422 290.826 220.29 290.112 220.948C290.469 220.619 290.974 220.021 291.331 219.691L291.985 218.824Z" fill="url(#paint8_linear_1903_13688)" fill-opacity="0.05"/>
<path d="M297.049 193.407C296.543 194.005 295.977 194.395 295.263 195.054C295.977 194.395 296.9 193.676 297.554 192.809L297.049 193.407Z" fill="url(#paint9_linear_1903_13688)" fill-opacity="0.05"/>
<path d="M330.056 120.81C329.672 121.825 329.348 123.049 328.755 124.124C328.991 123.378 329.436 122.571 329.732 122.034L330.056 120.81Z" fill="url(#paint10_linear_1903_13688)" fill-opacity="0.05"/>
<path d="M328.134 125.885C328.431 125.348 328.667 124.602 328.963 124.064C328.667 124.602 328.37 125.139 328.134 125.885Z" fill="url(#paint11_linear_1903_13688)" fill-opacity="0.05"/>
<path d="M308.689 154.789C303.959 159.547 299.142 164.783 293.874 169.246C288.605 173.709 283.188 178.44 277.32 182.399C254.091 199.066 226.309 212.533 194.425 223.572C174.531 230.688 156.66 235.41 140.31 239.918C124.048 243.949 109.545 247.018 97.6079 249.57C77.2842 253.647 63.5555 256.266 60.1536 257.025C61.2854 256.246 62.4172 255.466 63.4008 254.956C63.4008 254.956 63.4008 254.956 63.549 254.687C75.7025 246.649 87.6472 238.671 99.1136 230.607C106.976 224.941 114.629 219.336 122.074 213.791C126.432 213.207 135.775 211.858 149.113 208.674C158.632 206.369 170.266 202.775 183.833 197.265C197.192 191.816 212.215 184.303 228.27 173.328C241.346 164.571 252.894 154.449 263.364 143.735C268.538 138.17 273.504 132.665 277.93 126.864C282.418 121.272 286.454 114.907 290.133 108.87C303.306 87.2063 310.316 63.0335 312.563 42.7252C310.255 62.8251 302.942 85.9558 289.884 106.457C274.925 129.768 253.804 150.57 228.48 166.263C213.018 176.162 198.204 183.614 185.027 189.689C181.807 191.073 178.648 192.666 175.427 194.05C172.416 195.374 169.344 196.489 166.333 197.813C160.667 200.131 155.15 202.181 150.259 204.049C140.687 207.724 132.751 210.022 127.443 212.011C125.772 212.494 124.31 212.918 123.266 213.22C130.502 207.736 137.32 202.372 144.137 197.009C151.104 191.377 157.801 185.597 164.288 179.877C167.563 177.122 170.568 174.218 173.633 171.523C176.638 168.619 179.703 165.924 182.499 163.081C187.943 157.664 193.239 152.515 198.265 147.219C198.265 147.219 198.265 147.219 198.413 146.95C203.588 141.385 208.135 136.001 212.535 130.886C220.856 120.568 227.897 111.299 232.91 102.843C234.009 101.17 234.898 99.5563 235.788 97.9431C235.936 97.6742 236.293 97.3448 236.441 97.076C237.957 95.2813 239.857 92.4717 242.472 89.0034C245.025 85.3266 247.485 80.5474 250.18 75.022C251.393 72.1853 252.546 69.1402 253.786 65.6179C255.087 62.3039 255.788 58.4857 256.55 54.8758C257.285 51.9517 257.689 48.6712 258.006 45.8679C258.263 42.8563 258.849 40.201 258.897 37.2499C258.905 31.8248 259.451 26.6956 258.806 22.1376C258.349 12.7798 256.768 5.78139 256.506 0.20839L256.445 0C256.916 5.51254 257.811 12.4839 257.25 21.4584C256.898 30.3723 255.178 40.8121 251.909 52.1524C247.905 66.4168 242.844 77.8239 239.683 86.4214C237.938 90.542 236.428 93.9164 235.512 96.2153C234.595 98.5142 234.063 99.7982 234.063 99.7982C234.063 99.7982 234.42 99.4688 235.282 98.5413C234.541 99.8856 233.591 101.29 232.641 102.695C229.912 107.327 226.556 112.139 222.635 117.342C222.932 116.804 223.376 115.997 223.821 115.191C224.946 112.831 226.725 109.605 228.35 105.068C231.928 96.3491 235.581 83.9938 236.541 70.1591C236.697 64.4652 237.034 59.3964 236.597 54.778C236.409 52.573 236.43 50.3075 236.242 48.1025C236.053 45.8975 235.717 43.9613 235.589 41.9647C235.395 38.1799 234.573 34.5765 234.352 31.4774C234.136 29.958 234.13 28.3783 234.184 27.0069C234.029 25.696 234.144 24.533 234.32 23.5784C234.144 24.533 233.969 25.4876 233.915 26.859C233.861 28.2303 233.867 29.8101 233.873 31.3899C233.886 34.5495 234.081 38.3343 233.858 42.24C233.777 44.2971 233.696 46.3542 233.675 48.6196C233.445 50.9456 233.216 53.2715 232.987 55.5975C232.818 58.1318 232.379 60.5182 232.062 63.3215C231.685 65.9163 231.367 68.7195 230.633 71.6437C228.151 85.6932 225.212 97.3898 223.782 105.712C222.346 112.454 221.827 116.898 221.564 118.33C218.653 122.336 215.325 126.463 211.787 130.65C207.954 135.376 203.702 140.222 199.181 144.92C199.478 144.382 199.923 143.576 200.576 142.708C202.268 139.959 204.639 135.657 207.126 130.192C212.16 119.471 218.4 104.333 221.017 86.8549C223.29 72.8658 223.481 61.0611 223.025 51.7033C222.783 43.8648 221.862 37.5791 221.721 32.4229C221.653 37.6396 221.888 43.8983 221.233 51.7702C220.645 61.4303 218.992 73.6583 215.137 87.6538C210.458 105.051 205.74 119.974 202.377 130.212C200.726 135.435 199.667 139.582 198.663 142.358C198.191 143.851 197.868 145.074 197.841 145.76C192.815 151.056 187.431 156.682 181.57 162.22C178.713 164.855 175.708 167.759 172.643 170.454C169.578 173.149 166.303 175.905 163.238 178.6C156.75 184.319 150.201 189.831 143.026 195.523C135.494 201.545 127.693 207.419 119.682 213.354C118.847 213.596 118.638 213.656 118.638 213.656C118.638 213.656 118.847 213.596 119.325 213.683C112.238 218.898 105.15 224.114 97.7936 229.181C95.7388 230.68 93.6234 231.97 91.5686 233.469C92.8152 231.526 98.9602 222.291 107.114 207.503C116.365 191.041 128.097 167.535 136.651 140.882C143.761 119.391 147.631 101.55 150.113 87.5006C151.219 80.4018 152.149 74.2576 152.905 69.068C153.228 67.8446 153.283 66.4732 153.606 65.2497C153.721 64.0868 153.836 62.9238 154.22 61.9088C154.307 61.4315 154.395 60.9542 154.691 60.4165C154.604 60.8937 154.456 61.1626 154.368 61.6399C153.869 63.8179 153.431 66.2043 152.784 68.6512C151.819 73.9013 150.41 79.958 148.617 87.0297C145.031 101.173 139.221 119.35 130.379 141.116C119.617 167.957 109.138 191.1 102.365 207.522C95.8548 222.512 92.1887 231.708 91.508 233.261C82.6623 239.437 73.5472 245.465 64.1626 251.346C66.474 246.835 71.1843 237.337 77.0742 224.109C79.1161 219.45 81.2457 214.315 83.6717 208.641C85.889 203.028 88.4633 197.086 90.977 190.936C92.0688 187.682 93.6996 184.724 95.0609 181.619C96.7792 178.184 98.437 174.541 100.155 171.106C101.604 167.523 103.262 163.88 104.711 160.297C106.16 156.714 107.757 152.862 109.145 149.071C118.574 124.65 124.822 104.087 129.655 88.001C133.989 74.0929 136.961 63.2904 140.937 56.7165C136.901 63.082 133.329 73.3802 128.099 87.3217C122.161 103.502 113.973 124.4 102.605 149.157C99.2014 156.921 95.6771 164.268 92.5098 171.286C90.7914 174.721 89.073 178.156 87.5635 181.53C85.9057 185.173 84.1874 188.608 83.0955 191.862C78.041 204.849 74.4419 215.833 71.4628 225.055C68.4837 234.278 66.1247 241.74 64.6216 246.694C63.9138 248.932 63.3544 250.902 63.0309 252.125C57.8771 255.425 52.5751 258.994 47.2125 262.354C40.5092 266.554 34.0148 270.694 27.0421 274.747C28.201 273.281 29.8047 271.009 32.2101 267.602C36.2191 261.922 41.7712 253.762 48.3005 243.511C51.5348 238.282 54.8568 232.575 58.2664 226.391C59.8365 223.225 61.6155 219.998 63.3338 216.563C64.8434 213.189 66.3529 209.814 67.8018 206.232C70.7603 199.274 73.8064 191.84 76.5831 184.257C79.6292 176.823 83.1807 168.79 86.6715 160.549C98.3907 133.883 108.304 111.129 114.652 93.2485C121.48 75.4552 125.099 62.2059 129.998 54.9128C125.308 62.1454 120.671 75.0114 112.618 92.4817C104.687 110.369 92.9211 132.981 78.4871 160.433C74.1609 168.916 69.983 177.13 66.6404 185.103C63.5066 193.014 60.4605 200.449 57.7108 207.346C56.4102 210.66 55.1701 214.182 53.8088 217.288C52.5081 220.602 50.8774 223.559 49.5161 226.665C46.733 232.667 44.3069 238.341 41.6991 243.389C33.4644 260.234 27.8646 271.345 26.2068 274.988C24.3003 276.218 22.3331 277.24 20.6354 278.409C11.7562 283.691 2.93756 289.182 -6.21107 294.316C-6.98581 294.767 -7.55174 295.156 -8.32648 295.607C-7.16759 294.141 -5.62453 291.661 -3.36734 288.522C0.581131 282.634 6.22086 273.997 12.5683 263.121C19.1852 252.393 26.6581 239.158 34.1851 224.551C37.9183 217.143 41.5303 209.319 45.2906 201.226C48.842 193.193 53.2288 184.919 57.4338 176.019C71.356 147.585 82.0709 123.695 89.5786 104.349C93.0359 95.2142 96.1967 86.6167 99.1823 78.9737C100.631 75.3909 101.932 72.0769 103.354 69.1798C104.095 67.8354 104.627 66.5515 105.429 65.4156C104.836 66.4911 104.034 67.627 103.441 68.7025C102.02 71.5997 100.51 74.9741 99.0005 78.3485C95.8938 85.5746 92.1941 93.8762 87.5444 103.583C78.3931 122.727 65.7381 146.952 49.337 175.426C44.4449 184.298 39.4923 192.963 35.5838 201.325C31.8235 209.418 28.2115 217.242 24.6871 224.59C17.699 239.492 11.3309 252.633 6.23639 263.146C-1.66832 280.348 -6.9381 291.815 -8.89236 295.996C-17.0574 300.62 -25.2225 305.244 -33.2393 309.598C-39.0802 312.871 -44.921 316.144 -50.8224 319.208C-48.154 314.369 -42.4331 303.674 -35.7144 288.624C-31.0375 278.232 -25.7135 265.393 -20.6925 251.511C-18.2123 244.467 -15.6445 236.945 -13.346 229.275C-12.2271 225.336 -11.0476 221.605 -9.51099 217.545C-7.97438 213.485 -6.22897 209.364 -4.48355 205.243C6.84497 178.013 16.1587 154.755 23.7269 135.617C27.4807 125.944 30.911 117.494 34.166 109.999C37.6903 102.652 40.44 95.7556 44.9608 91.0574L45.2573 90.5197C40.7365 95.2179 37.7174 101.967 33.7754 109.435C29.894 117.111 25.8372 125.742 21.3357 135.18C11.9756 154.384 0.243576 177.89 -13.4427 205.578C-15.6058 209.819 -17.56 214 -19.4537 218.39C-21.4079 222.571 -23.0928 226.9 -24.2723 230.631C-26.7796 238.361 -29.3474 245.883 -31.6188 252.867C-36.101 267.044 -40.2326 279.312 -43.3264 289.698C-46.4202 300.084 -49.0151 308.291 -50.5453 313.931C-51.3407 316.647 -51.8396 318.825 -52.3114 320.317C-55.2621 321.849 -58.0039 323.321 -60.8941 325.062C-62.8006 326.292 -64.7678 327.313 -66.7349 328.334C-66.4113 327.111 -65.8248 324.456 -64.7059 320.517C-63.1757 314.877 -60.729 306.938 -57.7229 297.029C-51.8588 277.481 -43.6086 249.786 -33.8553 217.137C-20.2399 172.072 -3.89169 137.965 9.63858 115.971C7.73846 118.781 5.83835 121.591 3.85059 124.877C-0.36087 132.197 -5.91295 140.358 -10.6839 149.647C-21.1216 168.26 -32.5571 191.229 -42.9021 217.949C-55.909 251.088 -62.2462 279.133 -64.7961 298.399C-66.071 308.033 -66.7259 315.905 -66.7942 321.121C-66.8084 324.966 -66.7684 327.44 -66.6743 328.543C-72.6634 332.085 -78.9219 335.478 -84.6416 339.168C-84.3786 337.736 -83.8191 335.766 -83.2326 333.111C-81.8507 327.74 -80.0305 319.983 -77.8597 310.316C-76.5654 305.422 -75.2441 299.843 -73.714 294.203C-72.2444 288.355 -71.1925 282.627 -69.9047 276.154C-67.2685 263.415 -64.7869 249.366 -62.3389 234.422C-61.3476 228.486 -59.8781 222.638 -58.8262 216.91C-57.5049 211.331 -56.1835 205.752 -54.5322 200.528C-51.7078 189.995 -48.8499 180.355 -45.7496 171.549C-39.4885 154.146 -31.9615 139.539 -22.0239 130.109L-21.6669 129.78C-31.4562 138.941 -40.1485 153.433 -48.3497 171.172C-52.5547 180.072 -56.4567 190.014 -60.5341 200.911C-62.6031 206.255 -64.551 212.015 -66.4988 217.776C-68.1772 223.685 -70.2126 229.923 -72.0393 236.101C-76.0974 251.736 -78.7877 265.847 -81.0062 278.464C-83.8783 291.949 -85.0862 303.37 -85.5864 312.553C-86.0866 321.736 -86.0273 328.949 -85.7386 333.837C-85.6986 336.311 -85.3622 338.247 -85.2681 339.349C-85.6252 339.679 -86.0428 339.799 -86.3999 340.129C-91.0754 343.516 -95.8115 346.695 -100.339 349.813C-100.433 348.711 -100.379 347.339 -100.446 345.551C-100.317 340.543 -100.376 333.33 -99.9365 323.939C-99.5575 314.339 -98.5855 303.664 -96.8452 290.958C-95.9751 284.606 -94.9567 277.984 -93.433 270.765C-92.6711 267.155 -91.9093 263.545 -91.208 259.727C-90.655 256.177 -90.1019 252.628 -89.6095 248.87C-86.2101 225.517 -81.2755 205.108 -74.4755 188.001C-67.8844 170.954 -59.0709 156.878 -50.2381 147.542L-49.9416 147.005C-58.505 156.489 -68.5444 170.241 -77.0756 187.624C-81.3412 196.315 -85.5127 206.109 -89.2936 216.468C-91.1538 221.751 -92.9534 227.243 -94.6924 232.944C-95.4877 235.659 -96.4313 238.644 -97.1661 241.568C-97.6379 243.06 -97.9009 244.492 -98.5815 246.045C-99.2016 247.806 -99.8822 249.359 -100.293 251.06C-105.901 267.596 -108.47 282.123 -109.315 294.795C-110.159 307.466 -109.009 318.431 -107.69 326.861C-106.311 335.5 -104.433 341.961 -103.161 346.337C-102.676 348.005 -102.104 349.195 -101.801 350.237C-104.839 352.246 -107.817 354.464 -110.795 356.682C-111.509 357.34 -112.075 357.73 -112.789 358.389C-113.092 357.347 -113.428 355.411 -114.155 352.91C-114.613 350.557 -115.131 347.996 -115.831 344.809C-116.531 341.622 -117.083 338.167 -117.816 334.086C-119.222 326.133 -120.756 316.184 -121.758 304.95C-122.289 299.229 -122.672 293.239 -122.967 286.772C-122.98 283.613 -123.054 280.245 -123.127 276.877C-123.2 273.509 -123.065 270.08 -122.93 266.652C-122.348 255.412 -120.541 244.495 -117.865 234.23C-116.422 229.067 -114.771 223.844 -112.999 219.038C-111.792 214.622 -110.942 210.535 -109.675 206.326C-104.842 190.24 -98.4744 177.099 -91.9722 167.534L-91.6757 166.996C-97.969 176.501 -105.503 189.528 -112.484 206.01C-113.253 208.04 -114.23 210.131 -114.937 212.369C-115.321 213.384 -116.063 214.728 -116.595 216.012C-117.336 217.357 -117.869 218.641 -118.61 219.985C-121.157 225.241 -123.644 230.706 -125.652 236.259C-129.878 247.424 -133.147 258.764 -134.887 271.47C-138.854 302.218 -132.135 323.771 -125.564 338.589C-120.439 349.984 -115.544 356.701 -113.503 359.048C-116.42 361.474 -119.189 363.631 -122.106 366.058C-125.738 369.143 -129.49 371.811 -132.583 375.192C-135.945 378.424 -139.158 381.388 -142.52 384.621C-144.097 386.208 -145.734 387.585 -147.31 389.172C-148.887 390.758 -150.194 392.492 -151.771 394.078C-157.599 400.511 -163.487 406.735 -168.359 413.342C-170.825 416.541 -173.291 419.741 -175.817 422.732C-178.075 425.871 -180.271 429.218 -182.319 432.297C-199.272 457.315 -209.125 480.277 -214.315 496.692C-216.91 504.9 -218.467 511.226 -219.465 515.582C-220.462 519.938 -220.752 522.055 -220.752 522.055C-221.015 523.487 -220.261 525.302 -219.157 525.208C-218.469 525.235 -217.964 524.637 -217.668 524.099C-217.162 523.501 -216.866 522.964 -216.899 522.069C-216.899 522.069 -216.812 521.592 -216.697 520.429C-216.582 519.266 -216.11 517.774 -215.82 515.656C-215.321 513.478 -214.735 510.823 -214 507.899C-213.117 504.706 -212.086 501.244 -210.967 497.305C-205.865 481.367 -196.369 458.734 -179.625 433.776C-177.577 430.698 -175.589 427.411 -173.332 424.272C-171.075 421.133 -168.548 418.142 -166.082 414.942C-163.171 410.936 -159.931 407.286 -156.69 403.637C-156.508 404.262 -156.266 405.096 -155.963 406.138C-155.021 410.158 -153.236 415.516 -149.984 422.031C-143.392 434.583 -131.977 450.484 -114.182 463.408C-110.707 466.017 -107.232 468.626 -104.026 471.087C-100.611 473.487 -97.3174 475.471 -94.2326 477.515C-87.8543 481.543 -82.4324 485.396 -77.1923 488.624C-66.6244 494.602 -58.239 500.083 -52.2782 504.231L-52.0088 504.379C-57.9695 500.231 -65.8496 494.152 -75.6763 486.829C-80.6199 483.064 -85.3882 478.344 -91.0525 473.657C-93.7802 471.284 -96.7773 468.762 -99.6262 465.972C-102.475 463.181 -105.445 459.974 -108.355 456.975C-123.441 441.686 -135.476 427.546 -144.089 417.387C-148.352 412.068 -151.625 407.819 -153.847 404.847C-154.507 404.135 -154.959 403.361 -155.41 402.588C-153.537 400.464 -151.664 398.34 -149.582 396.156C-148.214 394.63 -146.698 392.836 -145.122 391.249C-143.545 389.663 -141.908 388.285 -140.331 386.699C-137.832 384.394 -135.393 381.88 -132.893 379.575C-132.672 382.674 -131.771 391.225 -127.845 401.612C-125.219 408.308 -121.186 415.952 -115.63 423.382C-109.805 430.959 -102.457 438.321 -93.2297 445.14C-78.3112 455.959 -64.2137 463.175 -52.6623 468.642C-46.9774 471.064 -41.5014 473.545 -36.8337 475.583C-32.0177 477.352 -27.8887 479.094 -24.4469 480.809L-24.1774 480.957C-27.6193 479.242 -31.7482 477.5 -36.2071 475.402C-40.7267 473.095 -45.6974 470.015 -51.3551 466.908C-61.896 460.244 -74.4169 451.442 -87.0718 439.064C-102.784 423.955 -114.226 408.74 -121.89 397.176C-127.93 388.079 -131.452 381.417 -132.597 379.037C-132.092 378.439 -131.377 377.78 -130.811 377.39C-127.658 374.218 -123.966 371.341 -120.335 368.256C-118.846 367.147 -117.627 365.89 -116.138 364.781C-113.061 372.251 -107.977 381.172 -100.05 391.305C-91.7329 402.002 -80.0075 413.52 -63.7419 425.079C-53.9758 432.193 -43.4685 437.963 -33.9512 442.663C-24.4339 447.364 -16.0278 450.579 -8.36932 453.559C-6.54399 454.386 -4.77922 455.005 -3.2233 455.684C-1.45856 456.303 0.0367737 456.774 1.5321 457.244C4.52277 458.186 7.03519 459.04 9.00876 459.599C13.0165 460.924 15.199 461.422 15.4078 461.361C15.4078 461.361 14.4513 461.186 13.643 460.742C12.7742 460.09 11.4271 459.35 9.75 458.254C8.07291 457.158 5.91757 455.975 3.22339 454.495C1.8763 453.756 0.529221 453.016 -0.878448 452.068C-2.28613 451.12 -3.90268 450.232 -5.51918 449.344C-12.3152 445.437 -20.1889 440.938 -28.8709 435.996C-37.5529 431.053 -47.3731 425.31 -57.8533 418.855C-66.3871 413.643 -73.6949 408.755 -80.3156 403.893C-86.9363 399.031 -92.6005 394.345 -97.3688 389.625C-106.784 380.601 -112.852 372.19 -116.138 364.781C-113.935 363.014 -111.792 361.038 -109.38 359.21C-108.1 358.161 -106.611 357.052 -105.271 356.212C-104.335 358.653 -100.631 365.941 -92.6172 375.596C-87.6066 381.149 -81.3365 387.92 -72.9175 394.295C-68.991 397.677 -64.0202 400.757 -59.1978 404.105C-56.7124 405.645 -54.0183 407.125 -51.2635 408.812C-48.5693 410.292 -45.8145 411.98 -42.9721 413.19C-38.4526 415.497 -33.7243 417.743 -29.2653 419.841C-24.8064 421.94 -20.4081 423.83 -16.2791 425.571C-12.1502 427.313 -8.08183 428.847 -4.34349 430.024C-3.32642 430.407 -2.5787 430.643 -1.3528 430.966C-0.187469 431.08 1.24724 431.343 2.41257 431.457C4.95206 431.626 7.55219 432.003 10.0311 431.963C14.753 432.629 19.9196 432.489 24.4598 432.53C29.2088 432.511 33.3313 432.673 37.602 432.566C41.1251 432.224 44.4392 431.942 47.7535 431.66C37.2114 432.001 25.3222 431.603 12.7394 429.597C8.22638 428.87 3.65268 427.935 -1.19041 426.851L-4.65933 425.822C-5.67641 425.439 -6.48466 424.995 -7.29292 424.551C-9.17885 423.516 -11.0042 422.688 -12.8901 421.653C-20.4338 417.51 -28.5769 412.864 -37.023 407.175C-39.7778 405.487 -42.1149 403.678 -44.6608 401.93C-47.2068 400.182 -49.6921 398.642 -51.9686 397.041C-56.3734 393.572 -61.0747 390.64 -65.1495 387.526C-73.6561 381.629 -80.7886 375.786 -86.8705 371.22C-96.8183 363.481 -103.203 357.873 -105.271 356.212C-104.139 355.433 -102.859 354.384 -101.518 353.544C-101.458 353.753 -101.458 353.753 -101.458 353.753L-101.518 353.544C-97.7658 350.876 -94.2221 348.268 -90.409 345.809C-87.1425 348.478 -83.4853 351.712 -79.0805 355.182C-74.6151 358.86 -69.6109 362.834 -63.9467 367.52C-52.47 376.625 -37.9691 387.565 -20.1811 398.909C-19.3728 399.353 -18.7735 399.857 -18.0258 400.093L-15.6615 401.216C-14.1056 401.895 -12.2803 402.722 -10.7244 403.402C-7.40372 404.7 -3.87421 405.937 -0.614105 407.027C6.17548 409.354 13.201 410.935 19.957 412.368C33.6175 414.966 46.8538 416.104 58.5612 415.878C64.415 415.765 69.7905 415.564 74.4789 415.336C79.3155 414.84 83.6739 414.256 87.1364 413.705C94.0613 412.604 97.7932 412.201 97.7932 412.201C97.7932 412.201 94.5666 412.006 88.3829 411.763C85.4257 411.715 81.7209 411.432 77.3896 411.33C73.2065 410.96 68.5452 410.502 63.345 409.748C42.7262 407.358 16.0589 401.296 -12.1166 391.603C-14.8984 390.601 -17.6803 389.599 -20.2533 388.536C-22.8263 387.474 -25.6081 386.472 -27.7635 385.288C-32.0742 382.921 -36.176 380.493 -40.1567 378.483C-48.0304 373.984 -55.1565 369.72 -61.7437 365.753C-74.7093 357.757 -84.233 351.477 -90.8266 345.93L-90.8872 345.721C-89.3983 344.612 -88.0577 343.772 -86.5688 342.663C-78.3766 337.354 -69.6456 332.341 -60.9147 327.327C-51.9749 322.253 -42.9745 317.388 -34.0347 312.314C-30.3092 310.332 -26.4355 308.08 -22.5619 305.829C-21.4842 306.421 -19.3289 307.604 -16.1564 309.171C-11.1586 311.565 -3.5002 314.545 6.90656 317.632C27.6595 323.599 59.9987 328.923 102.875 325.321C137.479 322.08 168.393 314.711 195.09 306.078C221.578 297.505 243.667 287.042 260.152 279.106L260.927 278.655C244.294 286.861 222.737 296.039 196.929 303.06C171.122 310.08 141.333 315.089 108.454 316.475C68.138 317.98 34.9429 315.164 12.2898 312.007C-6.1196 309.429 -17.7793 306.704 -21.8747 305.856C-16.8086 303.033 -11.8031 300.003 -6.52818 297.12C-0.121445 293.457 6.01584 289.646 12.2138 286.044C14.4568 286.751 25.3418 289.926 44.29 292.8C54.9598 294.455 67.9873 295.654 83.7296 296.067C99.3506 296.064 118.252 294.884 139.23 289.94C173.04 282.41 202.566 271.828 227.728 260.25C240.278 254.356 251.872 248.288 261.971 241.749C267.186 238.658 272.009 235.001 276.476 231.675C278.888 229.847 281.509 227.958 283.59 225.774C281.448 227.75 279.393 229.248 277.19 231.016C272.723 234.343 267.839 237.791 262.773 240.613C252.493 246.527 241.404 251.997 229.029 256.936C204.548 266.961 175.668 275.097 143.165 280.892C122.929 284.492 105.523 286.142 89.6052 286.684C73.8964 287.165 60.0671 287.102 48.5079 287.059C37.097 286.748 27.8078 286.726 21.6241 286.483C16.8145 286.294 13.6485 286.307 12.4832 286.192C14.9557 284.573 17.6975 283.101 20.17 281.481C25.7415 278.061 31.1646 274.909 36.5272 271.548C40.3532 272.248 50.7535 273.756 66.8864 274.734C87.7077 275.484 118.202 275.241 156.485 265.964C187.399 258.595 214.864 247.932 238.201 235.526C260.493 223.423 279.013 209.249 292.818 195.988C278.952 209.04 261.025 222.139 239.441 232.004C216.724 242.648 190.445 251.161 160.778 256.587C124.038 263.383 92.9568 266.282 70.6531 268.22C53.8731 269.69 42.1386 270.602 37.4502 270.829C40.4886 268.82 43.5876 267.019 46.6259 265.009C50.2302 262.61 53.8951 260.419 57.4993 258.02C58.6647 258.134 61.6218 258.182 66.1014 258.015C72.2245 258.05 81.1837 257.715 92.6488 256.655C104.114 255.595 118.233 253.541 134.32 250.465C150.642 246.643 169.201 241.947 189.478 233.816C221.922 220.808 250.533 205.519 274.113 186.943C277.03 184.516 280.008 182.299 282.716 179.933C285.573 177.298 288.281 174.932 290.781 172.627C296.198 167.895 300.894 162.242 305.563 157.275C310.172 152.1 314.329 146.151 318.19 140.74C320.177 137.453 322.165 134.166 323.735 131C322.105 133.958 320.474 136.916 318.634 139.934C317.367 144.142 313.089 149.674 308.689 154.789Z" fill="url(#paint12_linear_1903_13688)" fill-opacity="0.05"/>
<path d="M326.565 129.051C327.158 127.976 327.542 126.961 328.135 125.885C327.751 126.9 327.158 127.976 326.565 129.051Z" fill="url(#paint13_linear_1903_13688)" fill-opacity="0.05"/>
<path d="M326.181 130.067C326.329 129.798 326.477 129.529 326.565 129.051C326.417 129.32 326.268 129.589 326.181 130.067Z" fill="url(#paint14_linear_1903_13688)" fill-opacity="0.05"/>
<path d="M306.02 123.025C305.784 123.771 305.488 124.308 305.191 124.846C305.34 124.577 305.427 124.1 305.784 123.771L306.02 123.025Z" fill="url(#paint15_linear_1903_13688)" fill-opacity="0.05"/>
<path d="M303.15 129.504C303.238 129.027 303.595 128.697 303.683 128.22C303.386 128.758 303.298 129.235 303.15 129.504Z" fill="url(#paint16_linear_1903_13688)" fill-opacity="0.05"/>
<path d="M305.192 124.846C304.896 125.384 304.66 126.13 304.363 126.667C304.868 126.069 304.956 125.592 305.192 124.846Z" fill="url(#paint17_linear_1903_13688)" fill-opacity="0.05"/>
<path d="M289.843 147.592C286.393 151.302 282.796 155.281 278.868 158.904C274.879 162.318 270.743 166.001 266.337 169.536C261.87 172.863 257.134 176.042 252.398 179.221C247.601 182.191 242.326 185.074 237.199 187.689C232.012 190.094 226.407 192.621 220.742 194.939C215.016 197.049 209.141 199.428 202.997 201.658C172.784 212.214 146.41 219.624 127.555 224.857C108.7 230.09 97.1533 233.208 97.1533 233.208C97.1533 233.208 99.841 233.107 104.678 232.611C109.514 232.114 116.769 231.369 125.843 229.872C143.991 226.877 170.074 221.584 201.056 208.999C207.348 206.499 213.371 203.852 219.184 201.265C224.998 198.678 230.482 195.734 235.966 192.791C246.873 186.695 256.998 179.471 265.959 172.131C274.859 164.584 283.011 156.8 289.728 148.755C293.117 144.836 296.176 140.561 299.087 136.555C300.542 134.552 301.728 132.401 302.975 130.459C303.123 130.19 303.123 130.19 303.271 129.921C302.086 132.072 300.839 134.014 299.592 135.957C296.412 139.815 293.353 144.09 289.843 147.592Z" fill="url(#paint18_linear_1903_13688)" fill-opacity="0.05"/>
<path d="M313.157 34.6449C312.988 37.1793 312.88 39.9221 312.502 42.5169C312.759 39.5052 313.016 36.4936 313.272 33.482L313.157 34.6449Z" fill="url(#paint19_linear_1903_13688)" fill-opacity="0.05"/>
<path d="M276.891 99.1474C274.991 101.957 272.821 104.619 270.712 107.489C268.603 110.359 266.286 113.29 263.907 116.012C254.636 127.734 243.358 138.004 230.975 148.368C211.208 164.485 193.537 174.572 179.201 182.112C175.624 183.825 172.047 185.539 168.887 187.132C165.667 188.516 162.447 189.9 159.584 190.955C153.919 193.273 148.758 194.993 144.434 196.471L144.016 196.592C152.517 193.905 163.943 190.371 178.494 184.35C193.045 178.33 210.783 170.031 231.391 155.252C244.077 145.93 255.982 135.479 265.758 123.158C275.656 111.254 283.519 98.5839 289.025 86.3702C290.386 83.2646 291.539 80.2195 292.752 77.3829C293.965 74.5462 294.969 71.77 295.764 69.0542C297.355 63.6228 298.71 58.9374 299.62 55.0587C301.11 46.9449 301.839 42.441 301.839 42.441C301.839 42.441 300.72 46.3802 298.57 53.7812C297.599 57.4515 295.853 61.5721 294.081 66.3784C292.369 71.393 289.761 76.4412 287.066 81.9666C286.324 83.3109 285.644 84.8637 284.903 86.2081C284.161 87.5524 283.211 88.9572 282.47 90.3016C280.631 93.3197 278.791 96.3377 276.891 99.1474Z" fill="url(#paint20_linear_1903_13688)" fill-opacity="0.05"/>
<path d="M194.632 157.309C191.802 159.258 189.182 161.146 186.918 162.706C184.654 164.265 182.539 165.555 181.05 166.664C177.863 168.942 176.166 170.112 176.166 170.112C176.166 170.112 177.836 169.628 181.056 168.244C184.277 166.86 188.958 165.052 194.86 161.988C206.515 156.128 223.35 146.282 240.989 128.296C255.117 113.812 265.925 98.0295 273.122 83.0665C280.258 67.8951 284.053 53.6912 285.86 42.7742L285.948 42.2969C284.836 47.8159 283.696 54.0206 281.304 60.588C280.212 63.8415 278.972 67.3639 277.462 70.7383C275.953 74.1127 274.234 77.5476 272.307 81.0429C264.598 95.0243 253.723 109.019 239.589 121.923C222.031 137.852 206.098 149.244 194.632 157.309Z" fill="url(#paint21_linear_1903_13688)" fill-opacity="0.05"/>
<path d="M217.036 128.453C213.229 132.492 209.746 135.309 207.664 137.493C205.373 139.738 204.093 140.786 204.093 140.786C204.093 140.786 209.132 138.65 217.89 132.95C226.17 127.164 238.526 117.486 249.718 100.688C251.854 97.1326 254.111 93.9936 255.829 90.5587C257.548 87.1238 259.327 83.8973 260.836 80.5229C262.346 77.1485 263.646 73.8345 264.738 70.5811C266.099 67.4755 266.982 64.2825 267.866 61.0895C268.749 57.8964 269.483 54.9723 270.009 52.1086C270.535 49.2449 270.852 46.4417 271.439 43.7864C272.403 38.5363 272.444 34.0053 272.876 30.0391L272.964 29.5618C272.532 33.528 272.343 38.3279 271.257 43.1612C270.61 45.608 270.023 48.2633 269.498 51.127C268.911 53.7823 267.698 56.619 266.694 59.3952C264.746 65.156 261.842 70.7419 258.701 77.0739C255.231 83.0495 251.552 89.0857 246.917 94.9468C235.537 109.539 224.979 120.73 217.036 128.453Z" fill="url(#paint22_linear_1903_13688)" fill-opacity="0.05"/>
<path d="M222.16 30.0364C222.133 30.7221 222.167 31.6162 222.2 32.5103C221.958 31.6767 221.924 30.7826 222.16 30.0364Z" fill="url(#paint23_linear_1903_13688)" fill-opacity="0.05"/>
<path d="M222.126 29.1424C222.186 29.3508 222.098 29.8281 222.159 30.0365C222.098 29.8281 222.247 29.5592 222.186 29.3508L222.126 29.1424Z" fill="url(#paint24_linear_1903_13688)" fill-opacity="0.05"/>
<path d="M181.908 150.147C179.961 155.908 178.336 160.445 177.184 163.49C176.092 166.744 175.62 168.236 175.62 168.236C175.62 168.236 176.719 166.562 178.767 163.484C180.815 160.405 183.544 155.774 186.597 149.919C192.763 138.418 199.832 121.459 202.146 102.938C204.176 88.1157 202.218 76.7073 201.257 67.9477C200.402 63.4501 200.773 59.2755 200.221 55.8201C200.154 54.0319 200.357 52.3916 200.35 50.8118C200.135 49.2925 200.189 47.9211 200.034 46.6102L199.974 46.4018C200.129 47.7127 200.074 49.0841 200.081 50.6639C200.087 52.2437 199.885 53.8839 199.743 55.7326C199.601 57.5812 199.938 59.5174 199.439 61.6954C199.149 63.8129 199.128 66.0784 199.377 68.4918C199.267 78.2395 199.494 89.9232 195.881 104.752C191.385 122.775 185.865 138.834 181.908 150.147Z" fill="url(#paint25_linear_1903_13688)" fill-opacity="0.05"/>
<path d="M173.772 117.48C165.947 139.63 157.961 158.888 152.61 172.413C147.05 185.998 143.977 194.118 143.977 194.118C143.977 194.118 145.432 192.115 147.777 188.499C150.061 184.674 153.504 179.384 157.359 172.394C164.919 158.681 174.636 139.147 180.191 116.978C184.748 99.1637 186.361 84.4619 186.673 73.074C186.776 61.7466 185.37 53.7937 185.465 47.8913L185.404 47.6829C185.248 53.3768 186.237 61.4507 184.881 73.1409C183.464 84.6227 180.12 99.5998 173.772 117.48Z" fill="url(#paint26_linear_1903_13688)" fill-opacity="0.05"/>
<path d="M133.772 189.39C142.222 174.065 152.735 151.815 160.041 127.105C165.784 107.14 168.643 90.4955 169.905 77.7028C171.167 64.9101 170.502 55.6127 171.972 49.7644L172.12 49.4955C170.651 55.3438 170.629 64.6142 168.262 77.5008C165.956 90.5958 161.513 107.247 153.83 127.547C144.584 152.593 135.264 174.272 129.084 189.618C122.695 205.025 119.386 213.891 119.386 213.891C119.386 213.891 120.781 211.68 123.631 207.465C125.855 203.432 129.473 197.188 133.772 189.39Z" fill="url(#paint27_linear_1903_13688)" fill-opacity="0.05"/>
<path d="M156.888 57.069C156.592 57.6068 156.504 58.0841 156.207 58.6218C156.504 58.0841 156.74 57.3379 157.036 56.8002L156.888 57.069Z" fill="url(#paint28_linear_1903_13688)" fill-opacity="0.05"/>
<path d="M143.497 54.6196C143.288 54.6801 143.349 54.8885 143.14 54.9489C143.288 54.6801 143.436 54.4112 143.645 54.3507L143.497 54.6196Z" fill="url(#paint29_linear_1903_13688)" fill-opacity="0.05"/>
<path d="M141.745 57.1603C142.19 56.3537 142.695 55.7555 143.201 55.1573C142.844 55.4866 142.399 56.2932 141.745 57.1603Z" fill="url(#paint30_linear_1903_13688)" fill-opacity="0.05"/>
<path d="M106.83 64.7839C106.83 64.7839 107.187 64.4545 107.335 64.1857C107.187 64.4545 106.979 64.515 106.83 64.7839Z" fill="url(#paint31_linear_1903_13688)" fill-opacity="0.05"/>
<path d="M106.386 65.5903C106.534 65.3215 106.743 65.261 106.682 65.0526C106.474 65.1131 106.534 65.3215 106.386 65.5903Z" fill="url(#paint32_linear_1903_13688)" fill-opacity="0.05"/>
<path d="M109.208 62.0618C109 62.1223 109.06 62.3308 108.852 62.3912C109 62.1223 109.208 62.0618 109.566 61.7325L109.208 62.0618Z" fill="url(#paint33_linear_1903_13688)" fill-opacity="0.05"/>
<path d="M21.7439 184.093C19.4325 188.603 17.3906 193.261 15.7663 197.799C14.2903 202.067 12.7537 206.127 11.2171 210.187C8.14395 218.308 5.15842 225.951 2.32114 233.325C-3.8317 247.985 -9.09505 261.033 -13.6507 271.842C-18.2063 282.651 -21.7848 291.369 -24.3591 297.311C-26.7246 303.193 -28.0254 306.507 -28.0254 306.507C-28.0254 306.507 -25.8287 303.16 -22.0891 297.332C-18.3494 291.504 -13.0397 282.51 -6.90105 271.695C-0.822998 260.671 5.75394 247.469 12.3244 232.688C15.64 225.401 18.7131 217.281 21.5775 209.221C23.1141 205.161 24.3813 200.953 25.8573 196.685C26.6256 194.655 27.0368 192.954 27.9533 190.655C28.9305 188.564 29.6988 186.534 30.6153 184.235C36.7411 170.261 43.318 157.059 48.6754 145.114C54.2417 133.108 59.2151 122.179 63.5954 112.324C67.7669 102.53 71.6148 93.9598 74.8698 86.4648C78.1853 79.1783 80.9955 72.4899 84.8898 67.9731L85.1863 67.4353C81.292 71.9521 78.3606 78.2237 74.6274 85.6312C70.746 93.3076 66.2109 101.851 61.5006 111.349C56.1638 121.028 50.564 132.14 43.8324 144.031C37.0131 156.399 29.2708 169.486 21.7439 184.093Z" fill="url(#paint34_linear_1903_13688)" fill-opacity="0.05"/>
<path d="M17.3331 105.835C17.1848 106.104 17.0366 106.373 16.8277 106.433C16.8277 106.433 16.8277 106.433 17.0366 106.373L17.3331 105.835Z" fill="url(#paint35_linear_1903_13688)" fill-opacity="0.05"/>
<path d="M10.8918 115.608C13.0884 112.261 15.1364 109.182 16.8277 106.433C14.9276 109.243 13.0884 112.261 10.8918 115.608Z" fill="url(#paint36_linear_1903_13688)" fill-opacity="0.05"/>
<path d="M-165.528 331.18C-158.086 339.645 -151.19 346.234 -145.223 351.963C-133.349 363.212 -125.408 369.499 -125.408 369.499C-125.408 369.499 -129.805 360.604 -138.405 346.6C-142.674 339.702 -148.263 331.378 -154.452 322.55C-156.769 318.476 -158.108 312.311 -158.673 305.696C-159.446 299.142 -159.566 291.72 -159.538 284.03C-159.05 271.687 -157.485 259.936 -154.903 248.569C-153.643 242.781 -152.052 237.35 -150.461 231.918C-148.81 226.695 -146.889 221.62 -144.699 216.693C-140.527 206.899 -135.696 197.818 -130.622 189.57C-130.029 188.495 -129.376 187.628 -128.574 186.492C-127.772 185.356 -127.684 184.879 -127.3 183.863C-126.619 182.311 -125.939 180.758 -125.258 179.205C-123.836 176.308 -122.354 173.619 -120.871 170.931L-120.575 170.393C-122.118 172.873 -123.6 175.562 -125.231 178.52C-125.912 180.072 -126.862 181.477 -127.751 183.09L-128.284 184.374C-128.371 184.852 -128.728 185.181 -129.025 185.719C-129.827 186.855 -130.48 187.722 -131.282 188.858C-137.191 197.347 -143.067 206.731 -148.491 216.887C-149.826 219.307 -151.308 221.996 -152.582 224.624C-153.855 227.252 -155.068 230.089 -156.221 233.134C-158.647 238.807 -160.743 244.837 -162.839 250.867C-164.935 256.897 -166.492 263.222 -168.05 269.548C-169.546 276.082 -170.504 282.912 -171.253 289.681C-171.995 298.03 -172.233 305.781 -171.338 312.753C-170.713 319.576 -169.313 325.949 -165.528 331.18Z" fill="url(#paint37_linear_1903_13688)" fill-opacity="0.05"/>
<path d="M-199.322 327.859C-188.333 349.306 -170.127 360.529 -156.717 367.718C-142.949 374.578 -133.472 376.805 -133.472 376.805C-133.472 376.805 -140.066 371.257 -150.559 361.642C-160.904 351.758 -175.296 338.075 -188.395 319.499C-193.533 311.948 -197.627 304.096 -200.347 296.297C-203.067 288.498 -204.743 280.397 -204.714 272.707C-205.327 269.043 -204.625 265.225 -204.342 261.527C-203.849 257.77 -203.505 254.281 -203.1 251C-201.098 243.868 -199.184 237.213 -197.176 231.661L-197.088 231.183C-199.096 236.736 -201.219 243.451 -203.996 251.034C-204.758 254.644 -205.729 258.314 -206.578 262.401C-207.428 266.488 -208.486 270.636 -208.648 274.75C-209.02 278.924 -209.061 283.455 -209.311 288.047C-208.935 292.457 -208.349 296.806 -207.912 301.425C-206.324 310.003 -203.659 319.173 -199.322 327.859Z" fill="url(#paint38_linear_1903_13688)" fill-opacity="0.05"/>
<path d="M-162.14 407.474C-162.14 407.474 -167.69 401.625 -177.314 392.662C-186.938 383.699 -200.637 371.623 -216.822 358.007C-229.74 347.06 -239.64 336.369 -245.687 325.693C-251.734 315.016 -253.274 303.487 -252.181 293.229L-252.093 292.751C-252.829 302.68 -253.344 315.709 -249.17 328.509C-244.935 341.518 -237.353 355.139 -225.83 368.297C-211.606 384.514 -194.693 393.626 -182.603 399.39C-170.304 405.093 -162.14 407.474 -162.14 407.474Z" fill="url(#paint39_linear_1903_13688)" fill-opacity="0.05"/>
<defs>
<linearGradient id="paint0_linear_1903_13688" x1="258.551" y1="63.1496" x2="-90.5389" y2="445.026" gradientUnits="userSpaceOnUse">
<stop stop-color="#C4A767"/>
<stop offset="1" stop-color="#C4A767" stop-opacity="0"/>
</linearGradient>
<linearGradient id="paint1_linear_1903_13688" x1="258.551" y1="63.1496" x2="-90.5389" y2="445.026" gradientUnits="userSpaceOnUse">
<stop stop-color="#C4A767"/>
<stop offset="1" stop-color="#C4A767" stop-opacity="0"/>
</linearGradient>
<linearGradient id="paint2_linear_1903_13688" x1="258.551" y1="63.1496" x2="-90.5389" y2="445.026" gradientUnits="userSpaceOnUse">
<stop stop-color="#C4A767"/>
<stop offset="1" stop-color="#C4A767" stop-opacity="0"/>
</linearGradient>
<linearGradient id="paint3_linear_1903_13688" x1="258.551" y1="63.1496" x2="-90.5389" y2="445.026" gradientUnits="userSpaceOnUse">
<stop stop-color="#C4A767"/>
<stop offset="1" stop-color="#C4A767" stop-opacity="0"/>
</linearGradient>
<linearGradient id="paint4_linear_1903_13688" x1="258.551" y1="63.1496" x2="-90.5389" y2="445.026" gradientUnits="userSpaceOnUse">
<stop stop-color="#C4A767"/>
<stop offset="1" stop-color="#C4A767" stop-opacity="0"/>
</linearGradient>
<linearGradient id="paint5_linear_1903_13688" x1="258.551" y1="63.1496" x2="-90.5389" y2="445.026" gradientUnits="userSpaceOnUse">
<stop stop-color="#C4A767"/>
<stop offset="1" stop-color="#C4A767" stop-opacity="0"/>
</linearGradient>
<linearGradient id="paint6_linear_1903_13688" x1="258.551" y1="63.1496" x2="-90.5389" y2="445.026" gradientUnits="userSpaceOnUse">
<stop stop-color="#C4A767"/>
<stop offset="1" stop-color="#C4A767" stop-opacity="0"/>
</linearGradient>
<linearGradient id="paint7_linear_1903_13688" x1="258.551" y1="63.1496" x2="-90.5389" y2="445.026" gradientUnits="userSpaceOnUse">
<stop stop-color="#C4A767"/>
<stop offset="1" stop-color="#C4A767" stop-opacity="0"/>
</linearGradient>
<linearGradient id="paint8_linear_1903_13688" x1="258.551" y1="63.1496" x2="-90.5389" y2="445.026" gradientUnits="userSpaceOnUse">
<stop stop-color="#C4A767"/>
<stop offset="1" stop-color="#C4A767" stop-opacity="0"/>
</linearGradient>
<linearGradient id="paint9_linear_1903_13688" x1="258.551" y1="63.1496" x2="-90.5389" y2="445.026" gradientUnits="userSpaceOnUse">
<stop stop-color="#C4A767"/>
<stop offset="1" stop-color="#C4A767" stop-opacity="0"/>
</linearGradient>
<linearGradient id="paint10_linear_1903_13688" x1="258.551" y1="63.1496" x2="-90.5389" y2="445.026" gradientUnits="userSpaceOnUse">
<stop stop-color="#C4A767"/>
<stop offset="1" stop-color="#C4A767" stop-opacity="0"/>
</linearGradient>
<linearGradient id="paint11_linear_1903_13688" x1="258.551" y1="63.1496" x2="-90.5389" y2="445.026" gradientUnits="userSpaceOnUse">
<stop stop-color="#C4A767"/>
<stop offset="1" stop-color="#C4A767" stop-opacity="0"/>
</linearGradient>
<linearGradient id="paint12_linear_1903_13688" x1="258.551" y1="63.1496" x2="-90.5389" y2="445.026" gradientUnits="userSpaceOnUse">
<stop stop-color="#C4A767"/>
<stop offset="1" stop-color="#C4A767" stop-opacity="0"/>
</linearGradient>
<linearGradient id="paint13_linear_1903_13688" x1="258.551" y1="63.1496" x2="-90.5389" y2="445.026" gradientUnits="userSpaceOnUse">
<stop stop-color="#C4A767"/>
<stop offset="1" stop-color="#C4A767" stop-opacity="0"/>
</linearGradient>
<linearGradient id="paint14_linear_1903_13688" x1="258.551" y1="63.1496" x2="-90.5389" y2="445.026" gradientUnits="userSpaceOnUse">
<stop stop-color="#C4A767"/>
<stop offset="1" stop-color="#C4A767" stop-opacity="0"/>
</linearGradient>
<linearGradient id="paint15_linear_1903_13688" x1="258.551" y1="63.1496" x2="-90.5389" y2="445.026" gradientUnits="userSpaceOnUse">
<stop stop-color="#C4A767"/>
<stop offset="1" stop-color="#C4A767" stop-opacity="0"/>
</linearGradient>
<linearGradient id="paint16_linear_1903_13688" x1="258.551" y1="63.1496" x2="-90.5389" y2="445.026" gradientUnits="userSpaceOnUse">
<stop stop-color="#C4A767"/>
<stop offset="1" stop-color="#C4A767" stop-opacity="0"/>
</linearGradient>
<linearGradient id="paint17_linear_1903_13688" x1="258.551" y1="63.1496" x2="-90.5389" y2="445.026" gradientUnits="userSpaceOnUse">
<stop stop-color="#C4A767"/>
<stop offset="1" stop-color="#C4A767" stop-opacity="0"/>
</linearGradient>
<linearGradient id="paint18_linear_1903_13688" x1="258.551" y1="63.1496" x2="-90.5389" y2="445.026" gradientUnits="userSpaceOnUse">
<stop stop-color="#C4A767"/>
<stop offset="1" stop-color="#C4A767" stop-opacity="0"/>
</linearGradient>
<linearGradient id="paint19_linear_1903_13688" x1="258.551" y1="63.1496" x2="-90.5389" y2="445.026" gradientUnits="userSpaceOnUse">
<stop stop-color="#C4A767"/>
<stop offset="1" stop-color="#C4A767" stop-opacity="0"/>
</linearGradient>
<linearGradient id="paint20_linear_1903_13688" x1="258.551" y1="63.1496" x2="-90.5389" y2="445.026" gradientUnits="userSpaceOnUse">
<stop stop-color="#C4A767"/>
<stop offset="1" stop-color="#C4A767" stop-opacity="0"/>
</linearGradient>
<linearGradient id="paint21_linear_1903_13688" x1="258.551" y1="63.1496" x2="-90.5389" y2="445.026" gradientUnits="userSpaceOnUse">
<stop stop-color="#C4A767"/>
<stop offset="1" stop-color="#C4A767" stop-opacity="0"/>
</linearGradient>
<linearGradient id="paint22_linear_1903_13688" x1="258.551" y1="63.1496" x2="-90.5389" y2="445.026" gradientUnits="userSpaceOnUse">
<stop stop-color="#C4A767"/>
<stop offset="1" stop-color="#C4A767" stop-opacity="0"/>
</linearGradient>
<linearGradient id="paint23_linear_1903_13688" x1="258.551" y1="63.1496" x2="-90.5389" y2="445.026" gradientUnits="userSpaceOnUse">
<stop stop-color="#C4A767"/>
<stop offset="1" stop-color="#C4A767" stop-opacity="0"/>
</linearGradient>
<linearGradient id="paint24_linear_1903_13688" x1="258.551" y1="63.1496" x2="-90.5389" y2="445.026" gradientUnits="userSpaceOnUse">
<stop stop-color="#C4A767"/>
<stop offset="1" stop-color="#C4A767" stop-opacity="0"/>
</linearGradient>
<linearGradient id="paint25_linear_1903_13688" x1="258.551" y1="63.1496" x2="-90.5389" y2="445.026" gradientUnits="userSpaceOnUse">
<stop stop-color="#C4A767"/>
<stop offset="1" stop-color="#C4A767" stop-opacity="0"/>
</linearGradient>
<linearGradient id="paint26_linear_1903_13688" x1="258.551" y1="63.1496" x2="-90.5389" y2="445.026" gradientUnits="userSpaceOnUse">
<stop stop-color="#C4A767"/>
<stop offset="1" stop-color="#C4A767" stop-opacity="0"/>
</linearGradient>
<linearGradient id="paint27_linear_1903_13688" x1="258.551" y1="63.1496" x2="-90.5389" y2="445.026" gradientUnits="userSpaceOnUse">
<stop stop-color="#C4A767"/>
<stop offset="1" stop-color="#C4A767" stop-opacity="0"/>
</linearGradient>
<linearGradient id="paint28_linear_1903_13688" x1="258.551" y1="63.1496" x2="-90.5389" y2="445.026" gradientUnits="userSpaceOnUse">
<stop stop-color="#C4A767"/>
<stop offset="1" stop-color="#C4A767" stop-opacity="0"/>
</linearGradient>
<linearGradient id="paint29_linear_1903_13688" x1="258.551" y1="63.1496" x2="-90.5389" y2="445.026" gradientUnits="userSpaceOnUse">
<stop stop-color="#C4A767"/>
<stop offset="1" stop-color="#C4A767" stop-opacity="0"/>
</linearGradient>
<linearGradient id="paint30_linear_1903_13688" x1="258.551" y1="63.1496" x2="-90.5389" y2="445.026" gradientUnits="userSpaceOnUse">
<stop stop-color="#C4A767"/>
<stop offset="1" stop-color="#C4A767" stop-opacity="0"/>
</linearGradient>
<linearGradient id="paint31_linear_1903_13688" x1="258.551" y1="63.1496" x2="-90.5389" y2="445.026" gradientUnits="userSpaceOnUse">
<stop stop-color="#C4A767"/>
<stop offset="1" stop-color="#C4A767" stop-opacity="0"/>
</linearGradient>
<linearGradient id="paint32_linear_1903_13688" x1="258.551" y1="63.1496" x2="-90.5389" y2="445.026" gradientUnits="userSpaceOnUse">
<stop stop-color="#C4A767"/>
<stop offset="1" stop-color="#C4A767" stop-opacity="0"/>
</linearGradient>
<linearGradient id="paint33_linear_1903_13688" x1="258.551" y1="63.1496" x2="-90.5389" y2="445.026" gradientUnits="userSpaceOnUse">
<stop stop-color="#C4A767"/>
<stop offset="1" stop-color="#C4A767" stop-opacity="0"/>
</linearGradient>
<linearGradient id="paint34_linear_1903_13688" x1="258.551" y1="63.1496" x2="-90.5389" y2="445.026" gradientUnits="userSpaceOnUse">
<stop stop-color="#C4A767"/>
<stop offset="1" stop-color="#C4A767" stop-opacity="0"/>
</linearGradient>
<linearGradient id="paint35_linear_1903_13688" x1="258.551" y1="63.1496" x2="-90.5389" y2="445.026" gradientUnits="userSpaceOnUse">
<stop stop-color="#C4A767"/>
<stop offset="1" stop-color="#C4A767" stop-opacity="0"/>
</linearGradient>
<linearGradient id="paint36_linear_1903_13688" x1="258.551" y1="63.1496" x2="-90.5389" y2="445.026" gradientUnits="userSpaceOnUse">
<stop stop-color="#C4A767"/>
<stop offset="1" stop-color="#C4A767" stop-opacity="0"/>
</linearGradient>
<linearGradient id="paint37_linear_1903_13688" x1="258.551" y1="63.1496" x2="-90.5389" y2="445.026" gradientUnits="userSpaceOnUse">
<stop stop-color="#C4A767"/>
<stop offset="1" stop-color="#C4A767" stop-opacity="0"/>
</linearGradient>
<linearGradient id="paint38_linear_1903_13688" x1="258.551" y1="63.1496" x2="-90.5389" y2="445.026" gradientUnits="userSpaceOnUse">
<stop stop-color="#C4A767"/>
<stop offset="1" stop-color="#C4A767" stop-opacity="0"/>
</linearGradient>
<linearGradient id="paint39_linear_1903_13688" x1="258.551" y1="63.1496" x2="-90.5389" y2="445.026" gradientUnits="userSpaceOnUse">
<stop stop-color="#C4A767"/>
<stop offset="1" stop-color="#C4A767" stop-opacity="0"/>
</linearGradient>
</defs>
</svg>
