<svg width="421" height="375" viewBox="0 0 421 375" fill="none" xmlns="http://www.w3.org/2000/svg">
<path d="M385.052 94.1164C385.139 94.3125 385.226 94.5087 385.226 94.5087L385.052 94.1164Z" fill="url(#paint0_linear_1903_13690)" fill-opacity="0.03"/>
<path d="M316.426 55.7724C318.667 59.2382 321.255 63.4886 323.93 67.9351C334.716 85.9172 346.04 110.936 354.246 138.979C360.976 161.575 363.854 180.246 365.276 195.104C365.959 209.351 366.208 220.504 365.721 228.933L365.698 229.413C365.99 221.07 366.786 210.157 367.715 196.37C367.871 193.015 368.049 189.182 367.857 185.043C367.665 180.904 367.474 176.765 367.304 172.146C366.573 163.084 365.32 152.845 362.957 141.689C357.43 113.867 343.69 87.1028 329.963 68.3116C326.243 63.6244 322.98 59.4387 320.173 55.7545C316.888 52.048 313.95 49.126 311.578 46.4225C309.097 44.002 307.269 41.996 305.985 40.6877C304.701 39.3794 303.961 38.7687 303.961 38.7687C303.961 38.7687 306.137 41.5592 309.748 46.5295C311.641 49.2107 313.903 52.1973 316.426 55.7724Z" fill="url(#paint1_linear_1903_13690)" fill-opacity="0.03"/>
<path d="M256.773 20.7275L256.12 20.3129C256.403 20.4221 256.773 20.7274 257.056 20.8367C257.056 20.8367 257.056 20.8367 256.773 20.7275Z" fill="url(#paint2_linear_1903_13690)" fill-opacity="0.03"/>
<path d="M265.37 27.9466C268.308 30.8686 270.963 33.6813 273.879 37.0825C279.34 43.5795 285.236 51.0571 291 59.2971C293.981 63.3736 296.852 67.7332 299.613 72.3758C302.571 76.9315 305.42 81.7703 308.356 86.8052C314.14 96.6789 319.118 107.38 323.202 118.711C333.238 146.647 337.897 170.396 340.951 187.346C344.005 204.296 345.171 214.34 345.171 214.34C345.171 214.34 345.652 212.249 346.136 208.045C346.62 203.842 347.192 197.721 346.983 189.835C346.672 173.781 344.409 150.144 331.761 120.55C326.545 108.781 320.435 97.6439 313.801 87.4425C306.972 77.3282 300.38 68.2814 293.853 59.91C287.414 51.7347 281.038 44.2347 275.098 37.7154C270.049 32.6784 265.85 27.9689 260.843 24.0863C260.843 24.0863 260.93 24.2825 261.126 24.1955C262.519 25.2208 264 26.4421 265.37 27.9466Z" fill="url(#paint3_linear_1903_13690)" fill-opacity="0.03"/>
<path d="M155.907 2.30335C156.19 2.41256 156.191 2.41257 156.474 2.52178C156.191 2.41257 155.907 2.30335 155.907 2.30335Z" fill="url(#paint4_linear_1903_13690)" fill-opacity="0.03"/>
<path d="M149.657 0.379883C150.419 0.511367 150.986 0.729816 151.835 1.05744C151.356 1.03516 150.986 0.729798 150.506 0.707521L149.657 0.379883Z" fill="url(#paint5_linear_1903_13690)" fill-opacity="0.03"/>
<path d="M129.24 5.67472C129.806 5.89313 130.373 6.11152 130.939 6.32994C130.089 6.00231 129.24 5.6747 128.391 5.34708L129.24 5.67472Z" fill="url(#paint6_linear_1903_13690)" fill-opacity="0.03"/>
<path d="M64.2557 6.78403C65.1272 6.63244 66.2819 6.59005 67.1534 6.43847C66.478 6.50312 65.8026 6.5678 65.3234 6.54553L64.2557 6.78403Z" fill="url(#paint7_linear_1903_13690)" fill-opacity="0.03"/>
<path d="M68.7 6.22159C68.2207 6.19931 67.5453 6.26395 67.0661 6.24168C67.8284 6.37316 68.3077 6.39545 68.7 6.22159Z" fill="url(#paint8_linear_1903_13690)" fill-opacity="0.03"/>
<path d="M96.8414 10.4118C102.046 12.0944 107.534 13.8863 112.52 16.1351C117.507 18.3839 123.059 20.8511 127.914 23.8622C148.227 35.2757 167.97 50.6967 187.033 70.4082C199.155 82.4014 208.989 94.0002 217.823 104.4C226.461 114.886 233.705 124.348 239.862 132.414C249.89 146.039 256.678 154.998 258.484 157.484C257.547 156.96 256.611 156.436 255.675 155.912C255.675 155.912 255.675 155.912 255.479 155.999C245.486 149.868 235.297 143.823 225.369 138.367C218.533 134.592 211.696 130.816 205.033 127.433C203.163 124.273 198.944 117.929 191.851 109.34C186.76 103.148 179.992 95.8218 171.33 87.9274C162.668 80.033 151.915 71.6572 138.264 63.627C127.422 57.168 115.751 52.0152 104.209 48.213C98.2421 46.3989 92.5581 44.6939 86.6556 43.5551C80.8624 42.1332 74.9377 41.4737 69.013 40.8141C48.3634 38.7016 28.2311 41.9919 12.6059 47.5087C28.2311 41.9919 47.8396 39.6378 67.4215 41.9887C89.8565 44.9526 112.439 53.0138 132.772 66.061C145.464 74.0467 156.13 82.2264 165.098 89.7508C167.318 91.5828 169.538 93.4149 171.562 95.3339C173.586 97.2529 175.523 98.9758 177.46 100.699C181.334 104.144 184.642 107.372 187.58 110.294C193.652 116.051 198.221 121.065 201.333 124.38C202.247 125.383 203.074 126.189 203.705 127.083C197.239 123.613 190.946 120.535 184.457 117.544C177.882 114.357 171.197 111.453 164.882 108.854C161.681 107.457 158.567 106.256 155.366 104.858C152.252 103.657 149.138 102.456 146.024 101.254C140.08 98.961 134.309 97.0599 128.821 95.2681C128.821 95.2681 128.821 95.2681 128.625 95.355C122.854 93.4539 117.257 91.9451 111.746 90.6325C101.205 88.0294 91.9706 86.2555 84.129 85.5068C82.4082 85.3307 80.9704 85.2639 79.4458 85.0009C79.1627 84.8917 78.8796 84.7825 78.5965 84.6733C76.7888 84.3011 73.9357 83.6882 70.4071 83.14C66.8786 82.5918 62.5655 82.3913 57.3808 82.3424C54.8754 82.5141 52.1738 82.7727 49.1892 82.9221C46.2915 83.2677 43.2846 83.8963 40.2777 84.5249C37.6631 84.9796 35.4185 85.7397 33.1739 86.4998C30.9293 87.2599 28.6847 88.02 26.7232 88.8893C22.604 90.7148 18.7902 92.1704 15.5203 94.3235C8.82895 97.7584 4.14142 101.478 0.196133 103.696L0 103.783C3.94529 101.565 8.6105 98.3245 15.4535 95.7611C22.1226 92.8055 30.2941 90.592 39.881 88.9246C51.6903 86.9763 61.8857 86.6819 69.315 85.9707C72.975 85.7566 75.9597 85.6073 77.9858 85.4133C80.012 85.2193 81.1666 85.177 81.1666 85.177C81.1666 85.177 80.6004 84.9585 79.8381 84.827C81.0796 84.9808 82.3212 85.1346 83.7589 85.2014C88.159 85.598 92.9291 86.3 97.8731 87.3942C97.3938 87.372 96.7184 87.4366 95.9561 87.3052C93.843 87.303 90.6845 87.0601 86.8283 87.3611C79.3121 87.8762 68.9629 89.4121 58.3061 93.431C53.9908 95.3434 50.177 96.7989 46.8201 98.756C45.1417 99.7345 43.5725 100.43 42.0903 101.322C40.608 102.213 39.1257 103.105 37.8396 103.909C34.9843 105.409 32.6951 107.128 30.7114 108.476C29.6214 109.194 28.4445 109.716 27.4637 110.15C26.483 110.585 25.6984 110.933 24.8268 111.084C25.6984 110.933 26.483 110.585 27.2676 110.237C28.2483 109.803 29.4252 109.281 30.6021 108.759C32.9559 107.716 35.5282 106.107 38.5574 104.999C40.1266 104.304 41.6958 103.608 43.265 102.913C45.1173 102.327 46.6865 101.631 48.7349 100.958C50.5003 100.176 52.5487 99.5025 54.6841 99.0255C56.7325 98.3523 58.9771 97.5922 61.1125 97.1152C72.4001 93.99 81.9001 92.1265 88.5247 90.1293C94.0593 88.8498 97.5677 87.7643 98.5484 87.3296C102.447 88.1832 106.629 89.1459 111.093 90.2179C115.841 91.3991 120.959 92.8856 126.077 94.3721C125.598 94.3499 124.835 94.2184 123.877 94.1738C121.198 93.9532 117.364 93.775 112.375 93.6392C102.768 93.6728 89.4788 94.3998 75.5543 98.4588C64.5497 101.693 55.723 105.605 49.1185 109.236C43.5171 111.953 39.2441 115.02 35.4081 116.955C39.1349 115.303 43.8648 112.738 49.9232 110.522C57.2677 107.502 66.7253 104.484 78.4476 102.339C92.9807 99.6531 105.443 98.1193 114.245 96.7997C118.603 96.0417 122.176 95.6315 124.508 95.0676C125.771 94.7421 126.643 94.5906 127.318 94.5259C133.089 96.427 138.947 98.5242 145.088 100.731C148.202 101.932 151.12 103.22 154.234 104.421C157.348 105.623 160.353 107.107 163.553 108.504C169.955 111.299 176.357 114.094 183.02 117.477C189.965 120.97 197.194 124.571 204.314 128.456C204.771 128.958 204.857 129.154 204.857 129.154C204.857 129.154 204.771 128.958 204.597 128.565C210.78 131.926 217.246 135.397 223.517 138.954C225.389 140.001 226.978 140.939 228.851 141.987C227.043 141.615 218.069 140.429 204.28 139.5C189.054 138.504 167.553 138.177 144.938 141.16C126.767 143.581 112.211 146.746 100.924 149.871C95.28 151.434 90.5078 152.845 86.4109 154.191C85.3432 154.43 84.3624 154.864 83.4909 155.016C82.7063 155.364 81.6386 155.602 80.7671 155.754C80.3748 155.928 79.8955 155.905 79.5032 156.079C79.8955 155.905 80.1786 156.015 80.3748 155.928C82.1178 155.624 83.9701 155.038 86.1055 154.561C90.2893 153.411 95.2355 152.392 101.249 151.135C112.885 148.794 128.354 146.632 147.329 145.497C170.836 143.997 191.314 143.604 206.041 142.944C219.221 142.5 227.413 141.92 228.764 141.791C236.34 146.177 244.004 150.759 251.667 155.342C247.637 155.25 238.902 155.133 227.072 155.447C222.933 155.639 218.315 155.808 213.413 155.869C208.598 156.125 203.304 156.359 197.814 156.68C195.113 156.939 192.237 156.805 189.449 156.868C186.377 156.821 183.11 156.861 179.842 156.901C176.661 157.138 173.59 157.091 170.126 157.218C166.945 157.454 163.568 157.778 160.3 157.818C138.993 159.517 121.585 162.069 108.142 164.038C96.4417 165.703 87.334 167.393 81.2131 166.82C87.4209 167.589 96.114 166.552 108.358 165.585C122.345 164.314 140.558 163.047 162.67 162.634C169.598 162.38 176.22 162.496 182.472 162.306C185.544 162.353 188.615 162.4 191.687 162.447C194.955 162.406 198.222 162.366 200.924 162.108C212.296 161.292 221.578 159.994 229.596 159.022C237.33 157.941 243.714 156.989 247.963 156.514C249.902 156.124 251.449 155.908 252.603 155.865C256.805 158.462 261.29 161.168 265.579 163.96C270.89 167.473 276.398 170.899 281.71 174.411C280.186 174.148 277.899 173.754 274.762 173.032C269.143 172.002 261.324 170.774 251.391 169.544C246.425 168.929 241.066 168.488 235.316 168.22C232.44 168.087 229.369 168.04 226.493 167.906C223.508 168.056 220.437 168.009 217.256 168.245C211.091 168.631 204.642 168.908 198.084 169.467C191.636 169.744 184.512 170.085 177.105 170.317C153.25 171.033 133.142 171.731 117.892 173.327C102.467 174.531 91.42 176.611 84.3629 175.515C91.333 176.415 102.335 175.294 117.999 175.157C133.967 174.651 154.771 175.522 179.8 176.397C187.577 176.471 195.049 176.914 202.173 176.573C209.013 176.122 215.658 175.759 221.627 175.46C224.612 175.311 227.51 174.965 230.298 174.903C233.283 174.753 235.875 174.778 238.664 174.715C244.044 174.677 249.142 174.53 253.848 174.557C269.206 174.79 279.292 174.779 282.363 174.826C283.756 175.851 285.346 176.789 286.935 177.728C293.923 182.375 300.911 187.022 307.986 191.865C308.639 192.279 309.009 192.585 309.662 192.999C308.138 192.736 305.851 192.342 302.605 191.903C296.877 191.156 288.578 189.906 278.34 189.046C268.016 187.99 255.861 187.04 242.333 186.7C235.71 186.584 228.609 186.446 221.289 186.874C214.078 187.019 206.497 186.859 198.524 186.872C172.797 186.541 151.447 187.085 134.672 188.419C126.763 189.107 119.247 189.623 112.689 190.182C109.509 190.418 106.524 190.568 104.019 190.74C102.864 190.782 101.622 190.628 100.468 190.671C101.426 190.715 102.472 190.956 103.626 190.913C106.219 190.938 109.203 190.788 112.275 190.835C118.723 190.559 126.217 190.523 134.779 190.248C152.163 190.288 174.317 191.03 201.11 193.236C209.344 193.811 217.382 194.472 224.789 194.24C232.086 194.291 239.101 194.233 245.833 194.066C259.187 194.014 270.994 194.179 280.601 194.145C296.068 194.096 306.459 193.715 310.01 193.784C316.149 198.103 322.571 202.532 328.513 206.938C332.976 210.123 337.439 213.308 341.705 216.58C337.109 216.27 327.328 215.911 313.865 216.246C304.541 216.389 293.278 216.922 281.208 218.282C275.129 218.864 268.658 219.619 262.274 220.571C258.984 221.091 255.891 221.523 252.231 221.737C248.767 221.864 245.107 222.078 241.447 222.292C217.373 223.575 197.047 224.839 180.381 225.889C171.993 226.556 164.586 226.788 157.941 227.151C151.21 227.318 145.437 227.53 140.232 225.848L139.753 225.825C144.957 227.508 150.731 227.296 157.636 227.521C164.651 227.463 172.428 227.536 180.967 227.741C198.351 227.781 219.656 228.195 244.991 228.7C248.825 228.878 252.768 228.774 256.428 228.56C260.175 228.542 264.031 228.241 267.125 227.808C273.792 226.966 279.98 226.101 285.971 225.323C297.954 223.767 308.39 222.427 317.193 221.107C325.799 219.874 332.771 218.662 337.412 218.013C339.634 217.732 341.377 217.429 342.641 217.103C344.774 218.739 346.821 220.179 349.15 221.728C350.739 222.666 352.219 223.888 353.613 224.913C352.545 225.152 350.409 225.629 347.119 226.148C342.369 227.08 335.702 227.922 327.379 229.264C310.929 231.861 287.703 235.584 260.229 239.782C222.405 245.515 191.384 245.418 170.538 243.392C173.304 243.809 176.07 244.226 179.033 244.556C185.829 245.064 193.845 246.205 202.471 246.606C219.897 247.8 240.636 247.996 264.056 246.299C292.966 244.281 315.78 239.098 330.991 234.235C338.596 231.803 344.654 229.587 348.49 227.652C351.433 226.349 353.111 225.37 353.896 225.022C358.641 228.316 363.3 231.414 367.959 234.512C366.891 234.751 365.235 235.25 363.012 235.531C358.546 236.572 352.336 237.916 344.383 239.564C340.308 240.431 335.754 241.276 331.004 242.207C326.254 243.139 321.395 244.354 316.34 245.656C306.229 248.259 294.854 251.188 283.065 254.77C278.293 256.181 273.543 257.113 268.967 258.437C264.304 259.565 259.75 260.41 255.392 261.168C246.764 262.88 238.55 263.939 230.924 264.737C215.87 266.246 202.538 265.818 192.26 261.691L191.694 261.472C201.885 265.404 215.368 266.703 231.511 266.589C239.484 266.575 248.351 265.931 257.61 265.113C262.338 264.66 267.066 264.208 272.186 263.581C277.023 262.846 282.339 262.132 287.568 261.223C300.358 258.84 311.732 255.911 321.865 252.828C332.651 250.16 341.434 247.206 348.582 244.273C355.534 241.427 360.743 238.883 364.296 236.839C365.975 235.861 367.261 235.056 368.242 234.622C368.525 234.731 368.895 235.036 369.178 235.145C373.206 237.35 377.124 239.837 381.152 242.041C380.368 242.389 379.191 242.91 378.014 243.432C374.287 245.084 368.882 247.714 361.93 250.56C354.781 253.494 346.565 256.666 336.628 259.661C331.66 261.159 326.299 262.831 320.568 264.197C317.648 265.022 314.642 265.651 311.722 266.476C308.802 267.3 306.165 268.234 303.245 269.059C284.918 274.834 268.14 278.281 253.304 279.224C238.272 280.254 225.181 278.781 215.054 275.525L214.575 275.503C224.614 278.563 238.14 281.016 253.977 281.272C261.841 281.542 270.512 280.984 279.488 280.057C284.02 279.691 288.661 279.042 293.497 278.307C295.916 277.939 298.334 277.571 300.666 277.007C302.017 276.878 302.997 276.443 304.348 276.314C305.699 276.185 307.246 275.968 308.597 275.839C322.889 274.198 334.373 270.986 343.766 267.293C353.268 263.316 360.875 258.771 366.914 254.922C372.865 250.877 376.877 247.221 379.777 244.763C380.78 243.849 381.587 243.022 382.285 242.478C384.81 243.94 387.532 245.315 390.057 246.777C390.623 246.996 391.277 247.41 391.843 247.629C391.145 248.173 389.946 249.173 388.158 250.435C386.763 251.523 384.866 253.067 382.773 254.699C380.68 256.33 378.391 258.049 375.709 259.941C370.347 263.726 363.698 268.315 355.698 273.034C351.839 275.448 347.502 277.84 342.685 280.209C340.418 281.448 337.868 282.578 335.405 283.905C332.855 285.035 330.501 286.078 327.755 287.295C319.234 290.837 310.67 293.224 302.042 294.936C297.684 295.694 293.522 296.365 289.187 296.644C285.505 297.337 282.105 298.139 278.815 298.659C265.372 300.627 253.369 300.549 244.112 299.255L243.633 299.232C252.89 300.527 265.045 301.476 279.576 300.903C281.406 300.796 283.236 300.689 285.066 300.582C285.937 300.431 287.179 300.584 288.333 300.542C289.488 300.5 290.73 300.653 291.884 300.611C296.59 300.638 301.491 300.577 306.219 300.125C315.957 299.329 325.435 297.944 335.198 294.556C359.191 286.739 372.645 274.206 381.173 264.325C387.782 256.468 391.034 250.569 392.104 248.217C394.825 249.592 397.46 250.771 400.182 252.146C403.666 253.653 407.04 255.443 410.437 256.753C413.834 258.064 417.428 259.287 420.912 260.794C422.61 261.449 424.309 262.104 426.007 262.76C427.706 263.415 429.513 263.787 431.125 264.246C437.854 266.192 444.475 268.42 451.139 269.691C454.276 270.413 457.608 271.048 460.744 271.77C463.88 272.492 467.039 272.735 470.088 273.261C494.505 276.989 514.809 276.204 528.731 274.258C535.594 273.328 540.933 272.136 544.332 271.333C547.927 270.444 549.583 269.945 549.583 269.945C550.847 269.619 551.959 268.422 551.416 267.725C551.242 267.332 550.675 267.114 549.913 266.983C549.347 266.764 548.672 266.829 548.083 267.09C548.083 267.09 547.691 267.263 546.819 267.415C545.948 267.567 544.684 267.892 543.028 268.391C541.372 268.891 539.149 269.171 536.622 269.822C534.007 270.277 531.109 270.623 527.623 271.229C514.093 273.001 494.072 273.896 470.026 270.473C466.976 269.947 463.818 269.704 460.965 269.091C457.828 268.369 454.692 267.647 451.556 266.925C447.744 266.267 443.759 265.218 439.883 263.885C440.384 263.428 440.886 262.971 441.387 262.514C443.982 260.426 447.209 257.118 450.874 252.678C457.832 243.493 465.493 229.537 468.714 211.918C469.545 208.499 470.18 205.167 470.815 201.835C471.254 198.59 471.693 195.344 472.023 192.382C472.879 186.371 473.799 181.035 474.132 175.96C474.882 166.006 475.827 158.078 476.966 152.176L477.075 151.893C476.133 157.708 474.425 165.504 472.433 175.305C471.339 180.248 469.656 185.453 467.951 191.136C467.142 194.076 466.333 197.016 465.414 200.239C464.213 203.353 463.012 206.467 461.701 209.863C455.846 226.304 449.536 240.129 444.951 249.905C442.419 254.782 440.694 258.832 439.036 261.444C438.621 262.097 438.293 262.947 437.988 263.316C435.81 262.639 433.632 261.961 431.259 261.371C429.647 260.912 427.839 260.54 426.141 259.884C424.442 259.229 422.744 258.574 421.045 257.919C418.497 256.936 415.753 256.04 413.119 254.861C415.386 253.622 421.315 250.055 427.574 243.527C431.521 239.196 435.709 233.82 439.398 226.788C442.891 219.843 445.949 211.917 447.527 202.769C450.417 188.112 450.736 175.065 450.637 164.783C450.294 159.772 450.43 154.784 450.238 150.645C449.763 146.397 449.832 142.846 449.683 139.862L449.596 139.666C449.549 142.737 449.567 146.484 449.672 150.427C449.581 154.457 449.162 159.336 448.83 164.411C447.687 174.539 445.583 186.735 440.82 200.345C435.138 217.177 427.87 230.958 422.24 240.493C417.657 248.156 413.97 253.075 412.64 254.839C412.073 254.62 411.311 254.489 410.658 254.074C407.065 252.851 403.69 251.061 400.402 249.467C399.183 248.834 397.767 248.288 396.548 247.655C400.91 242.671 405.928 235.989 410.49 226.693C415.271 216.83 419.706 204.069 422.555 188.258C424.351 178.544 424.993 168.873 425.198 160.335C425.316 151.6 424.691 144.367 424.328 137.723C424.308 136.089 424.091 134.542 423.962 133.192C423.833 131.841 423.617 130.294 423.378 129.227C423.01 126.808 422.729 124.586 422.513 123.039C421.994 119.749 421.887 117.92 421.517 117.614C421.517 117.614 421.777 118.203 421.45 119.052C421.318 119.814 421.251 121.252 420.988 122.776C420.812 124.497 420.723 126.414 420.416 128.897C420.262 130.138 420.304 131.293 420.237 132.73C420.171 134.168 419.821 135.496 419.841 137.13C419.355 143.447 418.629 150.809 418.054 159.042C417.479 167.276 416.576 176.358 415.629 186.399C414.771 194.523 413.871 201.493 412.601 208.157C411.243 214.626 409.821 220.418 408.138 225.623C404.795 235.552 400.888 243.151 396.439 247.938C394.37 246.978 392.215 245.821 389.95 244.947C388.731 244.314 387.512 243.681 386.292 243.048C387.71 241.482 391.985 236.302 396.068 226.983C398.449 221.234 401.266 214.354 402.909 205.882C403.872 201.701 404.464 197.214 405.363 192.357C405.67 189.874 405.781 187.478 406.089 184.995C406.397 182.512 406.421 179.92 406.445 177.328C406.45 173.102 406.454 168.876 406.546 164.846C406.441 160.903 406.336 156.961 406.122 153.301C405.908 149.641 405.584 146.264 405.261 142.888C405.109 142.016 405.241 141.254 404.806 140.273C404.372 139.293 404.133 138.225 403.698 137.244C403.025 135.196 402.243 133.431 401.57 131.382C400.397 127.678 398.549 124.038 396.788 120.595C395.027 117.151 393.832 113.926 392.245 110.875C390.832 108.216 389.396 106.036 388.157 103.769C392.223 111.354 395.939 120.267 398.739 130.29C399.824 133.799 400.605 137.677 401.385 141.555L401.927 144.365C402.078 145.237 401.947 145.999 401.902 146.958C401.922 148.591 401.746 150.312 401.766 151.946C401.345 158.938 400.706 166.496 399.455 174.794C399.148 177.277 398.644 179.847 398.25 182.134C397.746 184.703 397.548 186.903 397.153 189.19C396.277 193.568 395.684 198.054 394.722 202.236C393.275 210.621 391.503 217.742 390.255 223.927C387.87 233.901 386.121 240.543 385.639 242.634C384.703 242.11 383.484 241.477 382.461 240.757L382.657 240.67C382.657 240.67 382.657 240.67 382.461 240.757C379.282 238.881 376.103 237.004 372.816 235.411C373.647 231.991 374.587 228.289 375.856 223.738C376.928 219.274 378.131 214.047 379.553 208.254C382.31 196.472 385.179 182.294 387.418 165.11C387.55 164.348 387.572 163.868 387.704 163.106L387.706 160.993C387.773 159.555 387.556 158.009 387.427 156.658C387.278 153.674 386.932 150.776 386.587 147.879C385.895 142.083 384.812 136.462 383.336 131.015C380.581 120.034 376.54 109.857 372.518 101.314C370.409 97.0855 368.475 93.2497 366.517 89.893C364.277 86.4272 362.581 83.659 361.058 81.2831C357.817 76.6182 356.208 74.0461 356.208 74.0461C356.208 74.0461 357.338 76.5959 359.055 80.9979C360.011 83.1554 361.228 85.9013 362.51 89.3226C363.704 92.5477 364.986 95.9689 366.333 100.066C371.741 115.973 376.685 137.717 379.122 161.747C379.294 164.252 379.575 166.474 379.659 168.783C379.744 171.092 380.112 173.511 379.936 175.231C379.648 179.348 379.383 182.985 379.118 186.623C378.588 193.898 377.884 200.781 377.311 206.901C375.969 219.229 374.674 228.485 372.729 235.214L372.816 235.411C371.596 234.778 370.377 234.145 369.071 233.315C362.257 229.061 355.552 224.523 348.847 219.985C342.055 215.251 335.176 210.321 328.384 205.587C325.598 203.537 322.615 201.573 319.742 199.327C319.787 198.368 319.985 196.168 319.923 193.38C319.84 188.958 319.477 182.314 318.157 173.512C315.408 156.192 307.853 130.676 290.239 100.466C275.712 76.1632 259.46 55.91 243.988 39.535C228.429 22.9638 213.062 10.5316 201.395 1.15283L200.742 0.738274C212.605 10.0301 226.904 22.7008 241.025 39.2051C255.147 55.7095 269.199 75.7644 281.831 99.4992C297.094 128.639 306.675 153.961 312.19 171.698C316.706 186.123 318.853 195.731 319.568 198.934C315.759 196.164 311.753 193.48 307.748 190.797C302.915 187.307 297.973 184.1 293.032 180.892C292.728 179.149 291.235 169.955 286.741 155.051C284.244 146.771 280.682 136.616 275.356 125.131C270.031 113.646 262.399 100.133 251.498 86.6595C234.181 64.5318 216.096 46.4986 198.705 32.1474C190.108 24.9283 181.466 18.6677 173.062 13.4746C169.057 10.7912 164.746 8.47774 160.718 6.2735C158.562 5.11677 156.211 4.04699 153.859 2.97719C155.928 3.93778 157.996 4.89836 159.869 5.94587C163.897 8.15012 168.011 10.5505 171.821 13.3209C179.832 18.6878 187.602 25.1 195.721 32.2968C211.565 46.8642 227.819 65.0045 243.416 86.9561C253.162 100.472 260.469 112.721 266.273 124.229C271.991 135.54 276.991 145.762 280.729 154.195C284.467 162.629 287.51 169.494 289.793 174.115C291.357 177.645 292.401 179.999 292.835 180.979C290.789 179.54 288.83 178.296 286.587 176.943C282.212 173.954 277.923 171.162 273.438 168.456C272.526 165.34 270.117 157.256 265.119 144.922C258.447 129.34 247.665 107.132 227.409 82.082C211.244 62.0249 193.855 45.5608 176.484 32.8433C159.766 20.5404 142.87 12.0712 128.433 6.50162C142.87 12.0712 158.699 20.7789 173.5 32.9927C189.324 45.9264 204.6 62.3884 219.044 82.2694C236.729 106.815 249.843 128.46 258.998 144.349C265.848 156.097 270.545 164.575 272.502 167.932C269.977 166.47 267.56 164.725 265.035 163.263C262.139 161.495 259.157 159.532 256.065 157.851C255.63 156.871 254.674 154.713 253 151.466C250.804 147.042 247.456 140.547 242.737 132.547C238.018 124.548 231.645 114.935 223.509 103.992C214.981 93.2221 205.059 81.4273 191.979 69.3895C171.173 49.9811 149.993 34.4933 128.023 23.5791C125.302 22.204 122.58 20.8288 119.945 19.6498C117.114 18.5578 114.48 17.3788 111.649 16.2867C106.379 13.9287 100.499 12.3107 95.0983 10.715C89.6974 9.11923 83.8819 8.17654 78.5456 7.25615C75.5833 6.92635 72.4248 6.68349 69.3532 6.63675C71.9455 6.66121 74.9079 6.99101 77.5872 7.2116C86.0173 7.69952 91.5274 9.01219 96.8414 10.4118Z" fill="url(#paint9_linear_1903_13690)" fill-opacity="0.03"/>
<path d="M72.4471 6.20389C72.164 6.09468 71.9678 6.18162 71.4886 6.15935C71.7717 6.26855 72.2509 6.29082 72.4471 6.20389Z" fill="url(#paint10_linear_1903_13690)" fill-opacity="0.03"/>
<path d="M74.4334 23.393C74.9127 23.4152 75.5881 23.3506 76.0673 23.3729C75.7842 23.2637 75.3919 23.4375 75.1088 23.3283L74.4334 23.393Z" fill="url(#paint11_linear_1903_13690)" fill-opacity="0.03"/>
<path d="M80.2934 23.3767C79.8141 23.3544 79.618 23.4413 79.1387 23.4191C79.618 23.4413 80.0103 23.2675 80.2934 23.3767Z" fill="url(#paint12_linear_1903_13690)" fill-opacity="0.03"/>
<path d="M76.0673 23.3729C76.5465 23.3951 77.2219 23.3306 77.7012 23.3529C77.0258 23.4175 76.5465 23.3951 76.0673 23.3729Z" fill="url(#paint13_linear_1903_13690)" fill-opacity="0.03"/>
<path d="M98.1973 26.7071C102.27 27.9529 106.342 29.1988 110.392 30.9238C114.442 32.6488 118.493 34.3739 122.52 36.5781C126.548 38.7824 130.576 40.9866 134.495 43.4739C138.413 45.9612 142.223 48.7316 146.119 51.6981C149.82 54.7516 153.324 57.8919 157.111 61.1415C160.702 64.478 164.38 68.0107 168.145 71.7395C186.403 90.165 201.09 106.888 211.578 118.901C222.066 130.914 228.354 138.218 228.354 138.218C228.354 138.218 227.288 136.344 225.331 132.987C223.374 129.63 220.242 124.682 215.826 118.426C207.278 106.023 194.334 88.9969 174.158 70.4822C170.11 66.6442 166.04 63.2855 162.166 59.8398C158.292 56.3941 154.113 53.3183 150.02 50.4387C141.748 44.4834 133.039 39.6604 124.482 35.7088C115.925 31.7573 107.236 28.568 98.9819 26.3594C94.9095 25.1135 90.6186 24.4338 86.6109 23.8634C84.607 23.5781 82.6031 23.2929 80.6861 23.2038C80.49 23.2907 80.403 23.0946 80.2069 23.1815C82.1238 23.2706 83.9316 23.6428 85.9354 23.928C90.0302 24.6946 94.4079 25.5705 98.1973 26.7071Z" fill="url(#paint14_linear_1903_13690)" fill-opacity="0.03"/>
<path d="M6.96213 49.071C8.92363 48.2017 10.9721 47.5286 13.0205 46.8554C10.5798 47.7024 8.33516 48.4625 6.17751 49.4188L6.96213 49.071Z" fill="url(#paint15_linear_1903_13690)" fill-opacity="0.03"/>
<path d="M66.996 53.2061C69.7622 53.6229 72.4192 54.3227 75.4685 54.8486C78.3217 55.4615 81.1748 56.0743 84.1149 56.8833C96.0936 59.5532 107.395 64.4007 119.349 69.6627C138.249 78.4172 151.833 87.8851 162.216 95.9556C164.806 98.093 167.222 99.8381 169.529 101.866C171.749 103.698 173.773 105.617 175.71 107.34C179.585 110.786 182.609 113.904 184.981 116.608L185.264 116.717C180.325 111.397 173.84 104.18 164.155 95.5654C154.557 87.1473 142.259 76.8748 124.188 66.8141C112.954 60.529 100.977 55.7462 88.6285 52.771C76.4759 49.7088 64.3434 48.2804 53.4726 48.6395C50.6841 48.702 47.9825 48.9606 45.4771 49.1323C42.9717 49.304 40.6625 49.3887 38.3309 49.9527C33.7771 50.7975 30.0078 51.2947 26.6086 52.0971C20.0933 53.8113 16.5849 54.8968 16.5849 54.8968C16.5849 54.8968 19.8749 54.3774 25.9756 53.3163C28.9825 52.6877 32.7295 52.6698 36.7818 52.2819C41.0303 51.807 45.5396 51.9206 50.7243 51.9695C51.8789 51.9271 53.3166 51.994 54.7543 52.0608C55.9959 52.2146 57.4336 52.2814 58.6751 52.4351C61.5506 52.5688 64.2298 52.7894 66.996 53.2061Z" fill="url(#paint16_linear_1903_13690)" fill-opacity="0.03"/>
<path d="M138.517 93.3175C141.043 94.7796 143.198 95.9364 145.157 97.18C147.117 98.4237 148.706 99.362 150.208 100.104C153.017 101.675 154.41 102.701 154.41 102.701C154.41 102.701 153.496 101.698 151.385 99.5826C149.361 97.6636 146.227 94.8285 141.961 91.5567C133.428 85.013 120.584 76.1558 101.007 69.5789C85.5017 64.2478 70.146 61.9012 56.5089 61.8436C42.9588 61.9821 31.0404 64.2135 22.4766 66.6008L22.0843 66.7747C26.5512 65.7337 31.5196 64.2358 37.2058 63.8277C39.9073 63.5691 43.0012 63.1367 46.0728 63.1834C49.1444 63.2301 52.2159 63.2768 55.4836 63.2366C68.3138 64.1212 82.5795 67.1855 96.9077 73.0382C114.546 80.0052 128.502 87.6654 138.517 93.3175Z" fill="url(#paint17_linear_1903_13690)" fill-opacity="0.03"/>
<path d="M109.42 86.9706C113.775 88.3257 117.063 89.9192 119.328 90.7929C121.592 91.6665 123.008 92.2126 123.008 92.2126C123.008 92.2126 119.787 89.1814 112.493 84.9044C105.287 80.8235 93.921 75.3007 77.6068 72.9096C74.1653 72.5575 71.116 72.0315 67.9575 71.7887C64.799 71.5458 61.7274 71.4991 58.7427 71.6485C55.7581 71.7979 52.7735 71.9473 50.0719 72.2059C47.2834 72.2684 44.6688 72.7231 42.0542 73.1779C39.4396 73.6326 37.0211 74.0004 34.6896 74.5644C32.445 75.3245 30.1135 75.8884 28.065 76.5616C23.8812 77.7118 20.3505 79.2765 17.3213 80.3844L17.1252 80.4713C20.1544 79.3635 23.6851 77.7987 27.7597 76.9316C29.895 76.4546 32.0304 75.9776 34.1658 75.5005C36.4973 74.9366 38.8066 74.8518 41.225 74.484C46.1489 73.9445 51.3336 73.9934 57.0844 74.2607C62.6391 74.615 68.3677 75.3615 74.3571 76.6965C89.102 79.7831 101.014 83.8906 109.42 86.9706Z" fill="url(#paint18_linear_1903_13690)" fill-opacity="0.03"/>
<path d="M25.8942 110.845C26.1782 110.954 26.1782 110.954 25.8942 110.845V110.845Z" fill="url(#paint19_linear_1903_13690)" fill-opacity="0.03"/>
<path d="M34.6882 117.978C34.8843 117.891 35.0805 117.804 35.4728 117.63C35.0805 117.804 35.0805 117.804 34.6882 117.978Z" fill="url(#paint20_linear_1903_13690)" fill-opacity="0.03"/>
<path d="M137.677 105.189C142.601 104.649 146.37 104.152 149.072 103.893C151.773 103.635 153.32 103.419 153.32 103.419C153.32 103.419 151.599 103.243 148.637 102.913C145.675 102.583 141.274 102.186 136.003 101.941C125.263 101.538 110.34 102.285 96.0012 106.997C84.299 110.775 76.8431 116.192 70.5218 119.932C67.5349 122.194 64.3096 123.389 61.9335 124.911C60.5605 125.52 59.3836 126.042 58.2067 126.563C57.1167 127.281 56.1359 127.715 55.1552 128.15L54.959 128.237C55.9398 127.802 56.8336 127.172 58.0105 126.65C59.1874 126.128 60.4512 125.803 62.0204 125.108C63.3935 124.499 64.6796 123.694 66.5319 123.108C68.188 122.609 69.8665 121.63 71.6318 120.848C78.8894 117.632 87.3461 113.414 99.5699 110.813C114.408 107.757 128.025 106.181 137.677 105.189Z" fill="url(#paint21_linear_1903_13690)" fill-opacity="0.03"/>
<path d="M116.419 122.353C135.526 120.456 152.279 119.602 164.327 118.721C176.266 118.123 183.303 117.586 183.303 117.586C183.303 117.586 181.299 117.301 177.77 116.753C174.242 116.204 169.079 115.676 162.566 115.278C149.823 114.589 132.069 114.244 113.744 117.907C99.0151 120.68 87.6829 124.763 79.2484 128.501C70.814 132.239 65.538 136.22 61.2227 138.132L61.0265 138.219C65.3419 136.307 70.7917 132.718 79.9662 129.591C88.8354 126.834 100.972 124.036 116.419 122.353Z" fill="url(#paint22_linear_1903_13690)" fill-opacity="0.03"/>
<path d="M183.359 126.713C169.178 125.958 149.202 125.894 128.394 129.249C111.748 131.933 98.4117 135.731 88.7356 139.316C78.7765 142.791 72.259 146.618 67.509 147.549L67.3129 147.636C72.259 146.618 78.8412 143.466 89.3442 140.688C99.8472 137.911 113.705 135.29 131.265 133.609C152.964 131.736 172.114 130.993 185.599 130.179C199.085 129.365 206.993 128.677 206.993 128.677C206.993 128.677 204.793 128.478 200.785 127.908C196.472 127.707 190.547 127.048 183.359 126.713Z" fill="url(#paint23_linear_1903_13690)" fill-opacity="0.03"/>
<path d="M77.8695 156.099C78.3487 156.122 78.8279 156.144 79.2203 155.97C78.741 155.948 78.0657 156.012 77.5864 155.99L77.8695 156.099Z" fill="url(#paint24_linear_1903_13690)" fill-opacity="0.03"/>
<path d="M80.6469 166.601L80.93 166.71C80.6469 166.601 80.4508 166.688 80.1677 166.579L80.6469 166.601Z" fill="url(#paint25_linear_1903_13690)" fill-opacity="0.03"/>
<path d="M101.165 190.126C101.165 190.126 100.882 190.017 100.599 189.908C100.599 189.908 100.882 190.017 101.165 190.126Z" fill="url(#paint26_linear_1903_13690)" fill-opacity="0.03"/>
<path d="M99.641 189.863C99.1618 189.841 98.7918 189.536 98.5087 189.426C98.9879 189.449 99.3579 189.754 99.641 189.863Z" fill="url(#paint27_linear_1903_13690)" fill-opacity="0.03"/>
<path d="M101.841 190.061C101.645 190.148 101.558 189.952 101.362 190.039C101.362 190.039 101.645 190.148 101.841 190.061Z" fill="url(#paint28_linear_1903_13690)" fill-opacity="0.03"/>
<path d="M98.5087 189.426C98.2256 189.317 97.9424 189.208 97.9424 189.208L98.5087 189.426Z" fill="url(#paint29_linear_1903_13690)" fill-opacity="0.03"/>
<path d="M218.541 210.854C222.571 210.946 226.797 210.95 230.85 210.562C234.423 210.152 238.083 209.938 241.46 209.615C248.497 209.077 255.25 208.431 261.699 208.154C274.509 207.405 285.968 206.785 295.685 206.468C305.314 205.956 312.917 205.637 318.211 205.402C323.505 205.168 326.206 204.91 326.206 204.91C326.206 204.91 322.961 204.471 317.232 203.724C311.504 202.978 303.183 202.207 293.032 201.543C282.881 200.879 270.791 200.605 257.611 201.049C251.075 201.129 244.038 201.666 237.088 202.4C233.515 202.81 229.942 203.22 226.369 203.63C224.539 203.738 223.079 204.15 221.249 204.257C219.419 204.364 217.589 204.471 215.759 204.578C203.341 205.153 191.447 204.793 180.489 204.955C169.728 205.032 159.925 205.152 151.167 205.513C142.409 205.875 134.806 206.194 128.271 206.274C121.735 206.354 115.962 206.566 111.214 205.385L110.735 205.363C115.287 206.631 121.06 206.419 127.769 206.731C134.871 206.869 142.735 207.138 151.274 207.343C160.183 207.854 170.356 208.038 181.553 208.943C192.771 209.368 205.209 210.427 218.541 210.854Z" fill="url(#paint30_linear_1903_13690)" fill-opacity="0.03"/>
<path d="M162.458 241.575C162.654 241.489 162.937 241.598 162.937 241.598L162.458 241.575Z" fill="url(#paint31_linear_1903_13690)" fill-opacity="0.03"/>
<path d="M171.824 242.587C168.579 242.148 165.812 241.732 163.133 241.511C165.703 242.015 168.665 242.344 171.824 242.587Z" fill="url(#paint32_linear_1903_13690)" fill-opacity="0.03"/>
<path d="M392.053 296.814C395.613 288.432 398.169 280.963 400.289 274.626C404.528 261.953 406.149 253.96 406.149 253.96C406.149 253.96 401.24 260.359 393.996 271.548C390.374 277.143 386.206 284.152 381.82 291.728C379.66 294.798 375.474 298.061 370.831 300.822C366.275 303.78 360.87 306.41 355.268 309.128C346.049 313.213 336.701 315.948 327.571 318.117C322.908 319.245 318.354 320.09 313.713 320.739C309.269 321.3 304.933 321.579 300.598 321.858C292.036 322.132 283.693 321.84 275.764 320.896C274.806 320.851 273.761 320.61 272.802 320.566C271.757 320.325 271.168 320.586 270.406 320.454C268.968 320.388 267.617 320.517 266.18 320.45C263.587 320.426 260.908 320.205 258.512 320.094L258.033 320.071C260.429 320.183 262.912 320.49 265.591 320.711C267.029 320.778 268.467 320.844 269.904 320.911L271.059 320.869C271.538 320.891 271.734 320.804 272.301 321.023C273.346 321.263 274.304 321.308 275.35 321.549C283.735 322.995 292.623 323.984 302.011 324.517C304.407 324.628 306.803 324.74 309.113 324.655C311.509 324.766 314.014 324.595 316.52 324.423C321.53 324.079 326.737 323.649 331.857 323.023C336.977 322.396 342.207 321.487 347.349 320.381C352.687 319.189 358.048 317.517 363.322 315.649C369.773 313.259 375.461 310.738 380.213 307.694C385.248 304.758 389.434 301.495 392.053 296.814Z" fill="url(#paint33_linear_1903_13690)" fill-opacity="0.03"/>
<path d="M401.219 322.789C413.086 307.205 415.043 289.911 415.709 277.648C416.092 265.276 414.249 257.41 414.249 257.41C414.249 257.41 412.586 264.248 409.002 275.223C405.418 286.198 400.283 301.615 391.269 317.812C387.516 324.169 383.218 329.828 378.377 334.79C373.645 339.469 368.173 343.536 362.571 346.253C359.999 347.863 356.97 348.971 354.137 349.991C351.304 351.012 348.471 352.033 345.943 352.684C339.842 353.745 334.613 354.655 329.689 355.194L329.21 355.172C333.938 354.719 339.733 354.028 346.204 353.272C349.211 352.644 352.218 352.015 355.421 351.3C358.624 350.584 362.306 349.891 365.248 348.587C368.474 347.392 371.808 345.914 375.339 344.35C378.303 342.567 381.464 340.696 384.734 338.543C390.795 334.215 396.507 329.102 401.219 322.789Z" fill="url(#paint34_linear_1903_13690)" fill-opacity="0.03"/>
<path d="M447.002 267.769C447.002 267.769 444.709 273.714 441.343 284.122C438.087 294.248 433.955 308.752 429.537 325.259C426.038 338.543 421.583 349.669 415.823 357.854C410.063 366.038 402.041 371.236 394.131 374.038L393.738 374.212C401.366 371.301 411.064 367.237 418.915 359.534C427.048 351.94 434.444 341.623 439.947 328.624C446.847 312.424 447.757 297.003 447.79 285.959C448.128 274.545 447.002 267.769 447.002 267.769Z" fill="url(#paint35_linear_1903_13690)" fill-opacity="0.03"/>
<defs>
<linearGradient id="paint0_linear_1903_13690" x1="332.26" y1="267.818" x2="167.015" y2="-30.241" gradientUnits="userSpaceOnUse">
<stop stop-color="#C4A767"/>
<stop offset="0.959324" stop-color="#C4A767" stop-opacity="0"/>
</linearGradient>
<linearGradient id="paint1_linear_1903_13690" x1="332.26" y1="267.818" x2="167.015" y2="-30.241" gradientUnits="userSpaceOnUse">
<stop stop-color="#C4A767"/>
<stop offset="0.959324" stop-color="#C4A767" stop-opacity="0"/>
</linearGradient>
<linearGradient id="paint2_linear_1903_13690" x1="332.26" y1="267.818" x2="167.015" y2="-30.241" gradientUnits="userSpaceOnUse">
<stop stop-color="#C4A767"/>
<stop offset="0.959324" stop-color="#C4A767" stop-opacity="0"/>
</linearGradient>
<linearGradient id="paint3_linear_1903_13690" x1="332.26" y1="267.818" x2="167.015" y2="-30.241" gradientUnits="userSpaceOnUse">
<stop stop-color="#C4A767"/>
<stop offset="0.959324" stop-color="#C4A767" stop-opacity="0"/>
</linearGradient>
<linearGradient id="paint4_linear_1903_13690" x1="332.26" y1="267.818" x2="167.015" y2="-30.241" gradientUnits="userSpaceOnUse">
<stop stop-color="#C4A767"/>
<stop offset="0.959324" stop-color="#C4A767" stop-opacity="0"/>
</linearGradient>
<linearGradient id="paint5_linear_1903_13690" x1="332.26" y1="267.818" x2="167.015" y2="-30.241" gradientUnits="userSpaceOnUse">
<stop stop-color="#C4A767"/>
<stop offset="0.959324" stop-color="#C4A767" stop-opacity="0"/>
</linearGradient>
<linearGradient id="paint6_linear_1903_13690" x1="332.26" y1="267.818" x2="167.015" y2="-30.241" gradientUnits="userSpaceOnUse">
<stop stop-color="#C4A767"/>
<stop offset="0.959324" stop-color="#C4A767" stop-opacity="0"/>
</linearGradient>
<linearGradient id="paint7_linear_1903_13690" x1="332.26" y1="267.818" x2="167.015" y2="-30.241" gradientUnits="userSpaceOnUse">
<stop stop-color="#C4A767"/>
<stop offset="0.959324" stop-color="#C4A767" stop-opacity="0"/>
</linearGradient>
<linearGradient id="paint8_linear_1903_13690" x1="332.26" y1="267.818" x2="167.015" y2="-30.241" gradientUnits="userSpaceOnUse">
<stop stop-color="#C4A767"/>
<stop offset="0.959324" stop-color="#C4A767" stop-opacity="0"/>
</linearGradient>
<linearGradient id="paint9_linear_1903_13690" x1="332.26" y1="267.818" x2="167.015" y2="-30.241" gradientUnits="userSpaceOnUse">
<stop stop-color="#C4A767"/>
<stop offset="0.959324" stop-color="#C4A767" stop-opacity="0"/>
</linearGradient>
<linearGradient id="paint10_linear_1903_13690" x1="332.26" y1="267.818" x2="167.015" y2="-30.241" gradientUnits="userSpaceOnUse">
<stop stop-color="#C4A767"/>
<stop offset="0.959324" stop-color="#C4A767" stop-opacity="0"/>
</linearGradient>
<linearGradient id="paint11_linear_1903_13690" x1="332.26" y1="267.818" x2="167.015" y2="-30.241" gradientUnits="userSpaceOnUse">
<stop stop-color="#C4A767"/>
<stop offset="0.959324" stop-color="#C4A767" stop-opacity="0"/>
</linearGradient>
<linearGradient id="paint12_linear_1903_13690" x1="332.26" y1="267.818" x2="167.015" y2="-30.241" gradientUnits="userSpaceOnUse">
<stop stop-color="#C4A767"/>
<stop offset="0.959324" stop-color="#C4A767" stop-opacity="0"/>
</linearGradient>
<linearGradient id="paint13_linear_1903_13690" x1="332.26" y1="267.818" x2="167.015" y2="-30.241" gradientUnits="userSpaceOnUse">
<stop stop-color="#C4A767"/>
<stop offset="0.959324" stop-color="#C4A767" stop-opacity="0"/>
</linearGradient>
<linearGradient id="paint14_linear_1903_13690" x1="332.26" y1="267.818" x2="167.015" y2="-30.241" gradientUnits="userSpaceOnUse">
<stop stop-color="#C4A767"/>
<stop offset="0.959324" stop-color="#C4A767" stop-opacity="0"/>
</linearGradient>
<linearGradient id="paint15_linear_1903_13690" x1="332.26" y1="267.818" x2="167.015" y2="-30.241" gradientUnits="userSpaceOnUse">
<stop stop-color="#C4A767"/>
<stop offset="0.959324" stop-color="#C4A767" stop-opacity="0"/>
</linearGradient>
<linearGradient id="paint16_linear_1903_13690" x1="332.26" y1="267.818" x2="167.015" y2="-30.241" gradientUnits="userSpaceOnUse">
<stop stop-color="#C4A767"/>
<stop offset="0.959324" stop-color="#C4A767" stop-opacity="0"/>
</linearGradient>
<linearGradient id="paint17_linear_1903_13690" x1="332.26" y1="267.818" x2="167.015" y2="-30.241" gradientUnits="userSpaceOnUse">
<stop stop-color="#C4A767"/>
<stop offset="0.959324" stop-color="#C4A767" stop-opacity="0"/>
</linearGradient>
<linearGradient id="paint18_linear_1903_13690" x1="332.26" y1="267.818" x2="167.015" y2="-30.241" gradientUnits="userSpaceOnUse">
<stop stop-color="#C4A767"/>
<stop offset="0.959324" stop-color="#C4A767" stop-opacity="0"/>
</linearGradient>
<linearGradient id="paint19_linear_1903_13690" x1="332.26" y1="267.818" x2="167.015" y2="-30.241" gradientUnits="userSpaceOnUse">
<stop stop-color="#C4A767"/>
<stop offset="0.959324" stop-color="#C4A767" stop-opacity="0"/>
</linearGradient>
<linearGradient id="paint20_linear_1903_13690" x1="332.26" y1="267.818" x2="167.015" y2="-30.241" gradientUnits="userSpaceOnUse">
<stop stop-color="#C4A767"/>
<stop offset="0.959324" stop-color="#C4A767" stop-opacity="0"/>
</linearGradient>
<linearGradient id="paint21_linear_1903_13690" x1="332.26" y1="267.818" x2="167.015" y2="-30.241" gradientUnits="userSpaceOnUse">
<stop stop-color="#C4A767"/>
<stop offset="0.959324" stop-color="#C4A767" stop-opacity="0"/>
</linearGradient>
<linearGradient id="paint22_linear_1903_13690" x1="332.26" y1="267.818" x2="167.015" y2="-30.241" gradientUnits="userSpaceOnUse">
<stop stop-color="#C4A767"/>
<stop offset="0.959324" stop-color="#C4A767" stop-opacity="0"/>
</linearGradient>
<linearGradient id="paint23_linear_1903_13690" x1="332.26" y1="267.818" x2="167.015" y2="-30.241" gradientUnits="userSpaceOnUse">
<stop stop-color="#C4A767"/>
<stop offset="0.959324" stop-color="#C4A767" stop-opacity="0"/>
</linearGradient>
<linearGradient id="paint24_linear_1903_13690" x1="332.26" y1="267.818" x2="167.015" y2="-30.241" gradientUnits="userSpaceOnUse">
<stop stop-color="#C4A767"/>
<stop offset="0.959324" stop-color="#C4A767" stop-opacity="0"/>
</linearGradient>
<linearGradient id="paint25_linear_1903_13690" x1="332.26" y1="267.818" x2="167.015" y2="-30.241" gradientUnits="userSpaceOnUse">
<stop stop-color="#C4A767"/>
<stop offset="0.959324" stop-color="#C4A767" stop-opacity="0"/>
</linearGradient>
<linearGradient id="paint26_linear_1903_13690" x1="332.26" y1="267.818" x2="167.015" y2="-30.241" gradientUnits="userSpaceOnUse">
<stop stop-color="#C4A767"/>
<stop offset="0.959324" stop-color="#C4A767" stop-opacity="0"/>
</linearGradient>
<linearGradient id="paint27_linear_1903_13690" x1="332.26" y1="267.818" x2="167.015" y2="-30.241" gradientUnits="userSpaceOnUse">
<stop stop-color="#C4A767"/>
<stop offset="0.959324" stop-color="#C4A767" stop-opacity="0"/>
</linearGradient>
<linearGradient id="paint28_linear_1903_13690" x1="332.26" y1="267.818" x2="167.015" y2="-30.241" gradientUnits="userSpaceOnUse">
<stop stop-color="#C4A767"/>
<stop offset="0.959324" stop-color="#C4A767" stop-opacity="0"/>
</linearGradient>
<linearGradient id="paint29_linear_1903_13690" x1="332.26" y1="267.818" x2="167.015" y2="-30.241" gradientUnits="userSpaceOnUse">
<stop stop-color="#C4A767"/>
<stop offset="0.959324" stop-color="#C4A767" stop-opacity="0"/>
</linearGradient>
<linearGradient id="paint30_linear_1903_13690" x1="332.26" y1="267.818" x2="167.015" y2="-30.241" gradientUnits="userSpaceOnUse">
<stop stop-color="#C4A767"/>
<stop offset="0.959324" stop-color="#C4A767" stop-opacity="0"/>
</linearGradient>
<linearGradient id="paint31_linear_1903_13690" x1="332.26" y1="267.818" x2="167.015" y2="-30.241" gradientUnits="userSpaceOnUse">
<stop stop-color="#C4A767"/>
<stop offset="0.959324" stop-color="#C4A767" stop-opacity="0"/>
</linearGradient>
<linearGradient id="paint32_linear_1903_13690" x1="332.26" y1="267.818" x2="167.015" y2="-30.241" gradientUnits="userSpaceOnUse">
<stop stop-color="#C4A767"/>
<stop offset="0.959324" stop-color="#C4A767" stop-opacity="0"/>
</linearGradient>
<linearGradient id="paint33_linear_1903_13690" x1="332.26" y1="267.818" x2="167.015" y2="-30.241" gradientUnits="userSpaceOnUse">
<stop stop-color="#C4A767"/>
<stop offset="0.959324" stop-color="#C4A767" stop-opacity="0"/>
</linearGradient>
<linearGradient id="paint34_linear_1903_13690" x1="332.26" y1="267.818" x2="167.015" y2="-30.241" gradientUnits="userSpaceOnUse">
<stop stop-color="#C4A767"/>
<stop offset="0.959324" stop-color="#C4A767" stop-opacity="0"/>
</linearGradient>
<linearGradient id="paint35_linear_1903_13690" x1="332.26" y1="267.818" x2="167.015" y2="-30.241" gradientUnits="userSpaceOnUse">
<stop stop-color="#C4A767"/>
<stop offset="0.959324" stop-color="#C4A767" stop-opacity="0"/>
</linearGradient>
</defs>
</svg>
