<svg width="323" height="513" viewBox="0 0 323 513" fill="none" xmlns="http://www.w3.org/2000/svg">
<path d="M274.043 420.73C269.672 420.567 265.564 420.259 261.923 419.866C265.42 419.997 269.528 420.304 274.043 420.73Z" fill="url(#paint0_linear_1903_15657)" fill-opacity="0.05"/>
<path d="M261.048 419.834C261.252 419.893 261.455 419.952 261.718 419.807L261.048 419.834Z" fill="url(#paint1_linear_1903_15657)" fill-opacity="0.05"/>
<path d="M184.156 365.19C189.283 365.793 194.817 366.513 201.285 367.062C226.427 369.49 259.304 368.868 293.804 363.426C321.77 359.179 343.335 352.639 360.351 346.545C375.94 340.039 388.408 334.392 397.287 329.689L397.813 329.401C388.934 334.103 377.367 340.451 363.112 348.446C359.635 350.525 355.343 352.368 350.992 354.414C346.438 356.401 341.679 358.33 336.658 360.402C326.471 364.286 314.739 368.162 301.436 371.364C268.324 379.631 232.423 378.497 204.961 373.414C198.118 371.875 191.887 370.512 186.267 369.327C180.765 367.735 175.73 366.057 171.917 364.734C167.901 363.351 164.904 362.263 162.866 361.674C160.887 360.881 159.665 360.527 159.665 360.527C159.665 360.527 163.799 361.503 171.168 362.754C174.342 363.232 178.884 364.326 184.156 365.19Z" fill="url(#paint2_linear_1903_15657)" fill-opacity="0.05"/>
<path d="M115.507 318.662L114.751 318.223C115.1 318.544 115.507 318.662 115.856 318.983C115.652 318.924 115.507 318.662 115.507 318.662Z" fill="url(#paint3_linear_1903_15657)" fill-opacity="0.05"/>
<path d="M127.549 324.35C132.118 326.113 136.864 327.266 141.899 328.943C151.739 331.57 162.716 334.086 174.745 336.024C180.831 337.125 186.977 338.022 193.386 338.774C199.794 339.527 206.407 340.339 213.545 340.862C227.151 341.935 241.315 341.847 255.835 340.539C291.347 336.934 319.471 329.868 339.602 324.455C359.53 318.984 371.058 315.048 371.058 315.048C371.058 315.048 369.041 316.668 364.716 319.383C360.392 322.098 354.023 325.764 345.322 329.856C327.774 337.779 300.893 347.408 262.475 348.851C246.91 349.195 231.701 348.319 217.253 346.342C202.661 344.103 189.41 341.811 177.006 338.882C164.747 336.216 153.336 332.914 143.352 330.025C135.319 327.26 128.043 324.934 121.265 321.65L121.469 321.709C122.981 322.587 125.163 323.439 127.549 324.35Z" fill="url(#paint4_linear_1903_15657)" fill-opacity="0.05"/>
<path d="M115.855 318.983C117.367 319.861 119.082 320.798 120.653 321.473C118.879 320.739 117.367 319.861 115.855 318.983Z" fill="url(#paint5_linear_1903_15657)" fill-opacity="0.05"/>
<path d="M41.1096 216.703C41.8065 217.345 42.6479 218.25 43.3448 218.892C42.4442 218.191 41.7474 217.548 41.1096 216.703Z" fill="url(#paint6_linear_1903_15657)" fill-opacity="0.05"/>
<path d="M43.3448 218.892C43.5485 218.951 43.6927 219.213 43.8965 219.272C43.6927 219.213 43.4894 219.154 43.3448 218.892Z" fill="url(#paint7_linear_1903_15657)" fill-opacity="0.05"/>
<path d="M38.0923 213.406C38.5854 213.989 39.2231 214.835 39.9199 215.477C39.5715 215.156 39.0784 214.573 38.73 214.251L38.0923 213.406Z" fill="url(#paint8_linear_1903_15657)" fill-opacity="0.05"/>
<path d="M33.1511 188.618C33.6442 189.201 34.1964 189.582 34.8932 190.224C34.1964 189.582 33.2958 188.88 32.658 188.035L33.1511 188.618Z" fill="url(#paint9_linear_1903_15657)" fill-opacity="0.05"/>
<path d="M0.943909 117.819C1.31873 118.809 1.63446 120.002 2.21307 121.051C1.98285 120.323 1.54895 119.536 1.25964 119.012L0.943909 117.819Z" fill="url(#paint10_linear_1903_15657)" fill-opacity="0.05"/>
<path d="M2.81885 122.768C2.52954 122.244 2.29938 121.516 2.01007 120.992C2.29938 121.516 2.58868 122.041 2.81885 122.768Z" fill="url(#paint11_linear_1903_15657)" fill-opacity="0.05"/>
<path d="M21.7928 150.956C26.4078 155.597 31.1083 160.703 36.2491 165.055C41.3898 169.407 46.6753 174.022 52.4009 177.882C75.0671 194.137 102.176 207.27 133.287 218.036C152.698 224.975 170.137 229.581 186.09 233.977C201.957 237.908 216.109 240.901 227.757 243.391C247.588 247.366 260.984 249.921 264.303 250.661C263.199 249.901 262.094 249.14 261.135 248.642C261.135 248.642 261.135 248.642 260.99 248.38C249.131 240.541 237.476 232.761 226.288 224.896C218.616 219.371 211.148 213.905 203.884 208.497C199.632 207.928 190.515 206.612 177.5 203.506C168.212 201.259 156.86 197.754 143.622 192.381C130.587 187.066 115.928 179.739 100.263 169.036C87.5033 160.496 76.2356 150.624 66.0194 140.176C60.9705 134.749 56.1253 129.38 51.8059 123.723C47.4274 118.269 43.4891 112.061 39.8992 106.175C27.0453 85.0469 20.2053 61.4726 18.0128 41.6672C20.2643 61.2694 27.4001 83.8274 40.142 103.821C54.7379 126.555 75.3475 146.842 100.058 162.146C115.144 171.8 129.599 179.068 142.457 184.992C145.599 186.342 148.682 187.895 151.824 189.245C154.762 190.536 157.76 191.624 160.698 192.915C166.226 195.176 171.61 197.174 176.382 198.996C185.722 202.58 193.466 204.821 198.645 206.761C200.276 207.233 201.702 207.645 202.721 207.94C195.661 202.592 189.008 197.361 182.355 192.131C175.558 186.638 169.023 181.001 162.693 175.423C159.498 172.736 156.566 169.904 153.575 167.276C150.643 164.444 147.652 161.816 144.923 159.043C139.611 153.76 134.444 148.739 129.54 143.573C129.54 143.573 129.54 143.573 129.395 143.311C124.346 137.884 119.909 132.633 115.616 127.645C107.496 117.583 100.626 108.543 95.7344 100.297C94.6627 98.6644 93.7948 97.0911 92.9269 95.5178C92.7823 95.2556 92.4338 94.9344 92.2892 94.6722C90.8099 92.922 88.9559 90.1819 86.405 86.7995C83.9132 83.2138 81.5133 78.5529 78.8831 73.1643C77.6995 70.3979 76.575 67.4282 75.365 63.9931C74.0958 60.7612 73.4115 57.0375 72.6682 53.517C71.9512 50.6653 71.5562 47.466 71.2468 44.7322C70.9965 41.7951 70.4241 39.2056 70.3776 36.3275C70.37 31.0368 69.8367 26.0346 70.4669 21.5895C70.9121 12.4634 72.4554 5.63824 72.7108 0.20323L72.7699 0C72.3108 5.37604 71.4379 12.1748 71.9851 20.927C72.3285 29.6203 74.0065 39.8015 77.1964 50.861C81.1032 64.7722 86.0415 75.8968 89.1257 84.2814C90.8288 88.3 92.3018 91.5908 93.1961 93.8328C94.0904 96.0749 94.6099 97.327 94.6099 97.327C94.6099 97.327 94.2615 97.0058 93.42 96.1012C94.1432 97.4123 95.0703 98.7823 95.9973 100.152C98.6601 104.669 101.934 109.362 105.761 114.436C105.471 113.912 105.037 113.125 104.603 112.338C103.505 110.037 101.77 106.891 100.185 102.466C96.6928 93.9633 93.1281 81.914 92.1922 68.4218C92.04 62.8689 91.7105 57.9257 92.1369 53.4216C92.3205 51.2712 92.3004 49.0618 92.484 46.9114C92.6677 44.761 92.996 42.8728 93.1205 40.9256C93.3104 37.2345 94.1116 33.7203 94.328 30.6979C94.5381 29.2162 94.5443 27.6756 94.4915 26.3381C94.6424 25.0597 94.5305 23.9255 94.3594 22.9946C94.5305 23.9255 94.7015 24.8565 94.7544 26.1939C94.8072 27.5313 94.8009 29.072 94.7946 30.6126C94.7821 33.694 94.5922 37.3851 94.8098 41.1941C94.889 43.2002 94.9682 45.2063 94.9884 47.4157C95.2123 49.6841 95.4362 51.9524 95.6601 54.2208C95.8249 56.6924 96.2525 59.0197 96.562 61.7535C96.9305 64.2841 97.2399 67.0179 97.9569 69.8696C100.378 83.5713 103.246 94.9783 104.641 103.094C106.042 109.67 106.549 114.003 106.806 115.4C109.646 119.307 112.894 123.331 116.345 127.415C120.086 132.023 124.234 136.75 128.646 141.331C128.356 140.807 127.922 140.02 127.285 139.175C125.634 136.494 123.32 132.298 120.894 126.969C115.982 116.513 109.893 101.749 107.339 84.7042C105.122 71.0615 104.935 59.5491 105.381 50.423C105.616 42.7786 106.515 36.6486 106.652 31.6201C106.719 36.7075 106.49 42.8113 107.129 50.4883C107.703 59.9092 109.315 71.8344 113.077 85.4833C117.642 102.45 122.246 117.003 125.527 126.987C127.139 132.081 128.171 136.126 129.151 138.833C129.612 140.289 129.927 141.482 129.954 142.151C134.858 147.316 140.111 152.802 145.83 158.203C148.618 160.773 151.55 163.605 154.541 166.233C157.532 168.861 160.727 171.549 163.718 174.177C170.049 179.755 176.438 185.13 183.439 190.682C190.789 196.555 198.401 202.283 206.218 208.071C207.033 208.306 207.236 208.365 207.236 208.365C207.236 208.365 207.033 208.307 206.566 208.392C213.482 213.478 220.397 218.564 227.576 223.506C229.581 224.968 231.645 226.226 233.65 227.688C232.433 225.793 226.437 216.786 218.481 202.365C209.454 186.311 198.006 163.386 189.661 137.393C182.722 116.435 178.946 99.0356 176.525 85.3339C175.446 78.4109 174.538 72.4189 173.8 67.3577C173.485 66.1646 173.432 64.8272 173.116 63.634C173.004 62.4998 172.892 61.3657 172.517 60.3758C172.432 59.9103 172.346 59.4449 172.057 58.9204C172.143 59.3859 172.287 59.6481 172.373 60.1136C172.86 62.2376 173.287 64.5649 173.919 66.9512C174.86 72.0713 176.234 77.9781 177.984 84.8747C181.483 98.668 187.152 116.394 195.78 137.621C206.282 163.798 216.507 186.368 223.115 202.383C229.467 217.002 233.045 225.97 233.709 227.485C242.34 233.508 251.234 239.387 260.391 245.122C258.136 240.723 253.54 231.46 247.793 218.559C245.8 214.016 243.722 209.008 241.355 203.475C239.192 198.001 236.68 192.206 234.227 186.208C233.162 183.035 231.57 180.15 230.242 177.122C228.565 173.772 226.948 170.219 225.271 166.869C223.857 163.375 222.24 159.822 220.826 156.328C219.412 152.834 217.854 149.077 216.499 145.38C207.299 121.563 201.202 101.51 196.487 85.8219C192.258 72.2582 189.357 61.7232 185.478 55.3121C189.416 61.52 192.902 71.5632 198.005 85.1595C203.799 100.939 211.788 121.32 222.881 145.464C226.202 153.036 229.641 160.201 232.731 167.045C234.408 170.394 236.085 173.744 237.558 177.035C239.175 180.588 240.852 183.938 241.917 187.111C246.849 199.776 250.361 210.488 253.268 219.483C256.175 228.477 258.477 235.754 259.943 240.585C260.634 242.768 261.18 244.689 261.496 245.882C266.524 249.1 271.698 252.581 276.931 255.858C283.471 259.954 289.808 263.991 296.612 267.943C295.481 266.514 293.916 264.299 291.569 260.975C287.657 255.436 282.24 247.478 275.869 237.481C272.713 232.381 269.472 226.816 266.145 220.785C264.613 217.697 262.877 214.551 261.2 211.201C259.727 207.91 258.254 204.619 256.84 201.125C253.954 194.34 250.981 187.09 248.272 179.695C245.3 172.444 241.834 164.611 238.428 156.574C226.993 130.568 217.32 108.377 211.125 90.9394C204.464 73.5868 200.932 60.6655 196.152 53.5531C200.728 60.6066 205.253 73.154 213.11 90.1917C220.85 107.636 232.33 129.688 246.414 156.461C250.635 164.734 254.712 172.744 257.974 180.519C261.031 188.235 264.004 195.485 266.687 202.211C267.956 205.443 269.166 208.878 270.494 211.907C271.763 215.139 273.354 218.023 274.683 221.052C277.398 226.906 279.766 232.439 282.31 237.362C290.345 253.79 295.809 264.626 297.427 268.179C299.287 269.379 301.207 270.375 302.863 271.515C311.527 276.667 320.132 282.021 329.059 287.029C329.815 287.468 330.367 287.848 331.123 288.287C329.992 286.858 328.487 284.439 326.284 281.378C322.431 275.635 316.928 267.212 310.735 256.605C304.278 246.143 296.987 233.236 289.642 218.991C285.999 211.767 282.475 204.136 278.806 196.243C275.341 188.409 271.06 180.34 266.957 171.66C253.372 143.931 242.917 120.632 235.592 101.766C232.218 92.8565 229.134 84.4719 226.221 77.0182C224.807 73.5241 223.538 70.2922 222.15 67.4668C221.427 66.1557 220.908 64.9036 220.125 63.7958C220.704 64.8446 221.486 65.9525 222.065 67.0013C223.452 69.8267 224.925 73.1176 226.398 76.4084C229.429 83.4556 233.039 91.5517 237.576 101.018C246.506 119.688 258.854 143.313 274.857 171.082C279.631 179.735 284.464 188.185 288.277 196.34C291.946 204.233 295.471 211.863 298.91 219.028C305.729 233.562 311.942 246.378 316.913 256.63C324.626 273.406 329.768 284.59 331.675 288.667C339.642 293.176 347.61 297.685 355.432 301.932C361.131 305.124 366.83 308.316 372.589 311.304C369.985 306.584 364.403 296.155 357.847 281.477C353.284 271.342 348.089 258.821 343.189 245.284C340.769 238.413 338.264 231.078 336.021 223.598C334.929 219.756 333.778 216.117 332.279 212.158C330.78 208.198 329.076 204.18 327.373 200.161C316.319 173.605 307.232 150.923 299.847 132.259C296.184 122.825 292.837 114.585 289.661 107.276C286.222 100.111 283.539 93.3846 279.128 88.8027L278.838 88.2783C283.25 92.8601 286.195 99.4418 290.042 106.725C293.829 114.211 297.788 122.628 302.18 131.832C311.313 150.561 322.761 173.486 336.115 200.487C338.226 204.624 340.133 208.701 341.981 212.982C343.887 217.06 345.531 221.281 346.682 224.92C349.129 232.459 351.634 239.795 353.851 246.606C358.224 260.432 362.256 272.396 365.275 282.524C368.293 292.653 370.825 300.657 372.318 306.158C373.095 308.806 373.581 310.93 374.042 312.386C376.921 313.88 379.596 315.315 382.416 317.013C384.277 318.212 386.196 319.208 388.116 320.204C387.8 319.011 387.228 316.422 386.136 312.58C384.643 307.08 382.255 299.337 379.322 289.674C373.6 270.611 365.55 243.601 356.033 211.76C342.748 167.811 326.796 134.548 313.594 113.1C315.448 115.84 317.302 118.58 319.241 121.785C323.351 128.924 328.768 136.882 333.423 145.942C343.608 164.093 354.766 186.493 364.861 212.552C377.552 244.871 383.736 272.221 386.224 291.011C387.468 300.405 388.107 308.082 388.173 313.17C388.187 316.92 388.148 319.332 388.056 320.408C393.9 323.861 400.007 327.171 405.588 330.769C405.332 329.373 404.786 327.452 404.213 324.863C402.865 319.625 401.089 312.059 398.971 302.632C397.708 297.86 396.418 292.418 394.925 286.918C393.491 281.214 392.465 275.629 391.208 269.316C388.636 256.892 386.215 243.191 383.826 228.617C382.859 222.828 381.425 217.125 380.399 211.539C379.109 206.098 377.82 200.657 376.209 195.563C373.453 185.29 370.664 175.889 367.639 167.301C361.53 150.329 354.185 136.084 344.488 126.888L344.14 126.567C353.692 135.501 362.174 149.634 370.176 166.934C374.279 175.613 378.087 185.309 382.065 195.936C384.084 201.147 385.985 206.765 387.885 212.384C389.523 218.146 391.509 224.23 393.291 230.254C397.251 245.503 399.876 259.264 402.041 271.569C404.843 284.72 406.022 295.858 406.51 304.814C406.998 313.769 406.94 320.804 406.659 325.57C406.62 327.983 406.291 329.871 406.199 330.946C406.548 331.267 406.955 331.385 407.304 331.707C411.866 335.01 416.487 338.11 420.905 341.151C420.997 340.076 420.944 338.739 421.009 336.995C420.883 332.111 420.941 325.076 420.512 315.917C420.142 306.555 419.194 296.144 417.496 283.754C416.647 277.559 415.653 271.101 414.166 264.06C413.423 260.54 412.68 257.019 411.995 253.295C411.456 249.834 410.916 246.372 410.436 242.708C407.119 219.933 402.304 200.029 395.669 183.345C389.237 166.721 380.637 152.994 372.019 143.889L371.729 143.365C380.085 152.614 389.881 166.025 398.206 182.978C402.368 191.454 406.438 201.005 410.127 211.108C411.942 216.26 413.698 221.616 415.395 227.176C416.171 229.824 417.092 232.735 417.809 235.586C418.269 237.042 418.526 238.438 419.19 239.953C419.795 241.67 420.459 243.184 420.861 244.843C426.332 260.97 428.839 275.137 429.663 287.495C430.487 299.853 429.365 310.546 428.078 318.768C426.732 327.192 424.9 333.493 423.658 337.761C423.185 339.387 422.627 340.548 422.331 341.564C425.296 343.524 428.202 345.687 431.107 347.85C431.804 348.492 432.356 348.872 433.053 349.515C433.349 348.498 433.677 346.61 434.386 344.171C434.833 341.876 435.338 339.378 436.021 336.271C436.704 333.163 437.243 329.793 437.958 325.814C439.331 318.057 440.828 308.354 441.805 297.399C442.323 291.82 442.697 285.978 442.985 279.671C442.997 276.59 443.069 273.305 443.141 270.021C443.212 266.736 443.08 263.393 442.948 260.049C442.381 249.087 440.617 238.441 438.006 228.43C436.599 223.395 434.987 218.302 433.258 213.614C432.08 209.307 431.251 205.321 430.015 201.217C425.299 185.53 419.086 172.714 412.741 163.386L412.452 162.861C418.593 172.13 425.943 184.835 432.756 200.909C433.505 202.889 434.459 204.927 435.149 207.11C435.524 208.1 436.248 209.411 436.767 210.663C437.49 211.975 438.01 213.227 438.733 214.538C441.219 219.664 443.645 224.994 445.605 230.409C449.728 241.297 452.918 252.357 454.616 264.747C458.486 294.734 451.93 315.754 445.518 330.205C440.518 341.318 435.741 347.869 433.75 350.157C436.596 352.523 439.298 354.627 442.145 356.993C445.688 360.002 449.349 362.604 452.367 365.901C455.647 369.054 458.783 371.945 462.064 375.097C463.602 376.644 465.199 377.988 466.738 379.535C468.276 381.082 469.552 382.773 471.09 384.32C476.777 390.593 482.522 396.663 487.276 403.107C489.682 406.227 492.088 409.347 494.554 412.264C496.756 415.325 498.899 418.59 500.898 421.592C517.44 445.991 527.054 468.384 532.118 484.393C534.65 492.398 536.169 498.567 537.143 502.815C538.116 507.063 538.399 509.128 538.399 509.128C538.656 510.525 537.92 512.295 536.842 512.203C536.172 512.23 535.679 511.646 535.389 511.122C534.896 510.538 534.607 510.014 534.64 509.142C534.64 509.142 534.554 508.677 534.442 507.542C534.33 506.408 533.87 504.953 533.587 502.888C533.1 500.764 532.528 498.174 531.811 495.322C530.949 492.208 529.943 488.832 528.851 484.991C523.872 469.447 514.607 447.375 498.269 423.035C496.271 420.033 494.331 416.827 492.128 413.766C489.926 410.705 487.461 407.788 485.054 404.667C482.214 400.761 479.052 397.201 475.89 393.642C475.712 394.252 475.476 395.065 475.18 396.081C474.261 400.002 472.52 405.227 469.347 411.58C462.914 423.822 451.776 439.329 434.413 451.933C431.022 454.477 427.631 457.022 424.502 459.422C421.17 461.763 417.957 463.697 414.947 465.691C408.723 469.619 403.433 473.377 398.319 476.525C388.008 482.355 379.826 487.7 374.009 491.746L373.746 491.89C379.563 487.844 387.252 481.916 396.84 474.774C401.664 471.102 406.317 466.499 411.844 461.928C414.505 459.614 417.43 457.155 420.209 454.433C422.989 451.712 425.887 448.584 428.726 445.66C443.447 430.749 455.19 416.959 463.595 407.051C467.754 401.865 470.948 397.721 473.116 394.823C473.76 394.127 474.201 393.373 474.641 392.619C472.813 390.548 470.985 388.477 468.954 386.346C467.62 384.858 466.14 383.108 464.602 381.561C463.064 380.014 461.466 378.671 459.928 377.124C457.489 374.875 455.109 372.424 452.67 370.176C452.454 373.198 451.575 381.537 447.745 391.667C445.182 398.198 441.247 405.652 435.825 412.898C430.141 420.288 422.972 427.468 413.968 434.117C399.411 444.669 385.656 451.706 374.384 457.038C368.837 459.399 363.494 461.819 358.939 463.807C354.24 465.532 350.211 467.231 346.853 468.903L346.59 469.047C349.948 467.375 353.977 465.676 358.328 463.63C362.738 461.38 367.588 458.377 373.109 455.347C383.394 448.848 395.611 440.264 407.959 428.192C423.291 413.457 434.456 398.619 441.933 387.341C447.828 378.47 451.264 371.972 452.381 369.651C451.888 369.068 451.191 368.425 450.639 368.045C447.562 364.951 443.96 362.146 440.416 359.137C438.964 358.056 437.774 356.83 436.321 355.749C433.318 363.033 428.357 371.734 420.623 381.615C412.508 392.047 401.066 403.28 385.195 414.553C375.666 421.491 365.413 427.118 356.127 431.702C346.84 436.287 338.638 439.422 331.165 442.328C329.384 443.134 327.662 443.738 326.144 444.4C324.422 445.004 322.963 445.463 321.504 445.922C318.585 446.841 316.134 447.674 314.208 448.218C310.298 449.51 308.168 449.996 307.964 449.937C307.964 449.937 308.898 449.766 309.686 449.334C310.534 448.697 311.848 447.976 313.485 446.907C315.121 445.838 317.224 444.684 319.853 443.241C321.168 442.52 322.482 441.798 323.856 440.874C325.229 439.949 326.807 439.083 328.384 438.218C335.015 434.407 342.698 430.02 351.169 425.2C359.641 420.379 369.223 414.779 379.449 408.483C387.776 403.401 394.907 398.633 401.367 393.892C407.827 389.151 413.354 384.58 418.007 379.977C427.194 371.177 433.115 362.974 436.321 355.749C434.171 354.025 432.081 352.098 429.727 350.315C428.478 349.293 427.025 348.211 425.717 347.392C424.804 349.772 421.19 356.879 413.37 366.295C408.481 371.711 402.363 378.314 394.148 384.531C390.317 387.829 385.467 390.833 380.761 394.099C378.336 395.601 375.707 397.043 373.019 398.689C370.39 400.132 367.702 401.778 364.929 402.959C360.519 405.208 355.905 407.399 351.554 409.445C347.204 411.492 342.912 413.335 338.883 415.033C334.854 416.732 330.884 418.228 327.237 419.376C326.244 419.75 325.515 419.979 324.318 420.294C323.181 420.406 321.781 420.662 320.644 420.773C318.166 420.938 315.629 421.305 313.211 421.266C308.603 421.916 303.562 421.78 299.132 421.82C294.498 421.801 290.475 421.959 286.308 421.855C282.87 421.521 279.637 421.246 276.403 420.972C286.689 421.304 298.29 420.915 310.568 418.959C314.972 418.25 319.434 417.338 324.16 416.282L327.545 415.278C328.537 414.904 329.326 414.471 330.115 414.039C331.955 413.029 333.736 412.222 335.576 411.212C342.937 407.172 350.883 402.64 359.124 397.092C361.812 395.446 364.092 393.682 366.577 391.977C369.061 390.272 371.486 388.77 373.707 387.21C378.005 383.826 382.593 380.967 386.569 377.931C394.869 372.179 401.829 366.481 407.763 362.028C417.47 354.48 423.7 349.012 425.717 347.392C424.613 346.631 423.364 345.609 422.056 344.79C421.997 344.993 421.997 344.993 421.997 344.993L422.056 344.79C418.394 342.188 414.936 339.645 411.216 337.246C408.028 339.849 404.46 343.003 400.162 346.387C395.805 349.974 390.922 353.849 385.395 358.42C374.196 367.299 360.047 377.968 342.69 389.031C341.902 389.464 341.317 389.956 340.587 390.186L338.28 391.281C336.762 391.943 334.981 392.75 333.463 393.413C330.223 394.679 326.779 395.885 323.598 396.948C316.973 399.218 310.118 400.76 303.525 402.157C290.196 404.69 277.281 405.801 265.857 405.58C260.145 405.47 254.9 405.274 250.325 405.052C245.606 404.568 241.353 403.998 237.975 403.461C231.217 402.387 227.576 401.994 227.576 401.994C227.576 401.994 230.724 401.804 236.758 401.567C239.644 401.52 243.259 401.244 247.485 401.145C251.567 400.784 256.115 400.337 261.189 399.602C281.308 397.271 307.329 391.359 334.821 381.907C337.536 380.929 340.25 379.952 342.761 378.915C345.271 377.879 347.986 376.902 350.089 375.748C354.295 373.439 358.298 371.072 362.182 369.111C369.865 364.723 376.818 360.565 383.245 356.696C395.897 348.899 405.189 342.774 411.623 337.364L411.682 337.16C410.23 336.079 408.921 335.26 407.469 334.178C399.475 329 390.956 324.111 382.436 319.222C373.713 314.274 364.931 309.529 356.208 304.581C352.573 302.647 348.793 300.452 345.013 298.256C343.962 298.833 341.859 299.987 338.763 301.516C333.887 303.85 326.414 306.756 316.259 309.767C296.01 315.586 264.454 320.778 222.617 317.265C188.852 314.105 158.688 306.918 132.638 298.499C106.792 290.138 85.2382 279.934 69.153 272.194L68.397 271.755C84.6268 279.757 105.662 288.709 130.843 295.555C156.025 302.402 185.091 307.287 217.174 308.638C256.512 310.106 288.903 307.36 311.007 304.281C328.97 301.767 340.347 299.109 344.343 298.282C339.4 295.53 334.515 292.574 329.368 289.762C323.117 286.19 317.128 282.474 311.081 278.961C308.892 279.65 298.271 282.747 279.782 285.549C269.371 287.164 256.659 288.333 241.299 288.736C226.056 288.733 207.613 287.582 187.144 282.761C154.154 275.417 125.343 265.097 100.791 253.805C88.5449 248.058 77.232 242.14 67.3781 235.763C62.2902 232.748 57.5833 229.182 53.2249 225.938C50.8715 224.155 48.3143 222.313 46.283 220.183C48.3735 222.11 50.3785 223.572 52.5281 225.296C56.8865 228.54 61.6524 231.902 66.5957 234.655C76.627 240.423 87.4468 245.757 99.522 250.574C123.41 260.351 151.589 268.285 183.304 273.937C203.049 277.447 220.034 279.057 235.566 279.585C250.893 280.054 264.388 279.993 275.667 279.951C286.801 279.648 295.865 279.626 301.899 279.389C306.592 279.205 309.681 279.217 310.818 279.106C308.405 277.526 305.73 276.091 303.317 274.511C297.881 271.175 292.589 268.101 287.357 264.824C283.624 265.507 273.475 266.977 257.734 267.931C237.417 268.662 207.662 268.425 170.307 259.378C140.142 252.192 113.343 241.792 90.5725 229.694C68.8208 217.891 50.7495 204.067 37.2793 191.135C50.8086 203.864 68.3013 216.639 89.3625 226.259C111.528 236.64 137.17 244.942 166.118 250.233C201.968 256.862 232.295 259.688 254.058 261.579C270.431 263.012 281.881 263.901 286.456 264.123C283.491 262.163 280.468 260.407 277.503 258.447C273.986 256.107 270.41 253.971 266.893 251.631C265.756 251.743 262.871 251.789 258.5 251.626C252.525 251.66 243.783 251.334 232.596 250.3C221.409 249.266 207.632 247.262 191.935 244.263C176.008 240.535 157.899 235.956 138.114 228.027C106.456 215.34 78.5388 200.43 55.5305 182.314C52.684 179.947 49.7784 177.785 47.1357 175.477C44.3483 172.908 41.7056 170.601 39.2667 168.352C33.9813 163.738 29.3989 158.225 24.8431 153.381C20.3463 148.334 16.2898 142.532 12.5225 137.255C10.5829 134.05 8.64337 130.844 7.11133 127.757C8.70251 130.641 10.2936 133.525 12.0886 136.469C13.3251 140.573 17.4998 145.967 21.7928 150.956Z" fill="url(#paint12_linear_1903_15657)" fill-opacity="0.05"/>
<path d="M4.35016 125.856C3.77155 124.807 3.39673 123.817 2.81812 122.768C3.19293 123.758 3.77155 124.807 4.35016 125.856Z" fill="url(#paint13_linear_1903_15657)" fill-opacity="0.05"/>
<path d="M4.72516 126.846C4.58051 126.584 4.43573 126.321 4.35016 125.856C4.49481 126.118 4.63965 126.38 4.72516 126.846Z" fill="url(#paint14_linear_1903_15657)" fill-opacity="0.05"/>
<path d="M24.3969 119.978C24.6271 120.706 24.9164 121.23 25.2057 121.755C25.0611 121.493 24.9755 121.027 24.6271 120.706L24.3969 119.978Z" fill="url(#paint15_linear_1903_15657)" fill-opacity="0.05"/>
<path d="M27.1975 126.297C27.112 125.832 26.7634 125.511 26.6779 125.045C26.9672 125.57 27.0529 126.035 27.1975 126.297Z" fill="url(#paint16_linear_1903_15657)" fill-opacity="0.05"/>
<path d="M25.205 121.754C25.4943 122.279 25.7245 123.006 26.0139 123.531C25.5208 122.947 25.4352 122.482 25.205 121.754Z" fill="url(#paint17_linear_1903_15657)" fill-opacity="0.05"/>
<path d="M40.1819 143.937C43.5479 147.555 47.0585 151.436 50.8912 154.969C54.7829 158.299 58.8193 161.891 63.1185 165.338C67.4769 168.583 72.0982 171.683 76.7195 174.783C81.3999 177.68 86.547 180.492 91.5494 183.041C96.6109 185.387 102.08 187.851 107.608 190.112C113.195 192.17 118.927 194.489 124.922 196.665C154.403 206.959 180.137 214.185 198.536 219.289C216.934 224.393 228.2 227.433 228.2 227.433C228.2 227.433 225.578 227.335 220.858 226.851C216.139 226.367 209.06 225.64 200.206 224.18C182.498 221.259 157.047 216.098 126.817 203.824C120.677 201.386 114.8 198.804 109.128 196.281C103.455 193.758 98.104 190.887 92.7531 188.017C82.1106 182.072 72.2303 175.027 63.4871 167.869C54.803 160.508 46.8484 152.918 40.2938 145.071C36.987 141.25 34.0021 137.081 31.162 133.174C29.7419 131.22 28.5847 129.123 27.3683 127.228C27.2237 126.966 27.2237 126.966 27.079 126.704C28.2363 128.801 29.4526 130.696 30.6689 132.59C33.772 136.353 36.7568 140.522 40.1819 143.937Z" fill="url(#paint18_linear_1903_15657)" fill-opacity="0.05"/>
<path d="M17.4329 33.7871C17.5977 36.2587 17.7033 38.9335 18.0719 41.4641C17.8216 38.527 17.5712 35.59 17.3209 32.6529L17.4329 33.7871Z" fill="url(#paint19_linear_1903_15657)" fill-opacity="0.05"/>
<path d="M52.8201 96.6923C54.6741 99.4324 56.7911 102.028 58.8489 104.827C60.9067 107.626 63.1683 110.484 65.489 113.139C74.5354 124.571 85.5402 134.587 97.6229 144.694C116.911 160.412 134.153 170.249 148.141 177.602C151.632 179.274 155.122 180.945 158.205 182.498C161.347 183.848 164.489 185.198 167.283 186.227C172.811 188.487 177.846 190.165 182.066 191.606L182.474 191.724C174.178 189.103 163.03 185.657 148.832 179.785C134.633 173.914 117.326 165.82 97.2167 151.407C84.8383 142.316 73.2222 132.124 63.6828 120.108C54.0251 108.5 46.3523 96.1428 40.9801 84.2315C39.6518 81.2028 38.5273 78.2332 37.3437 75.4667C36.16 72.7003 35.1802 69.9928 34.4041 67.3443C32.8519 62.0473 31.5299 57.478 30.6419 53.6953C29.1878 45.7825 28.4771 41.3901 28.4771 41.3901C28.4771 41.3901 29.5689 45.2317 31.667 52.4495C32.6141 56.0289 34.3173 60.0475 36.0468 64.7347C37.7172 69.6252 40.2618 74.5483 42.892 79.9369C43.6152 81.248 44.2794 82.7623 45.0026 84.0734C45.7259 85.3845 46.6529 86.7545 47.3762 88.0656C49.1711 91.0089 50.9661 93.9522 52.8201 96.6923Z" fill="url(#paint20_linear_1903_15657)" fill-opacity="0.05"/>
<path d="M133.085 153.414C135.846 155.314 138.403 157.156 140.612 158.677C142.821 160.197 144.885 161.456 146.338 162.537C149.447 164.759 151.103 165.899 151.103 165.899C151.103 165.899 149.473 165.428 146.331 164.078C143.189 162.728 138.621 160.965 132.862 157.977C121.49 152.262 105.063 142.66 87.852 125.119C74.0662 110.994 63.5204 95.6021 56.4979 81.0096C49.5345 66.2139 45.8315 52.3617 44.0679 41.715L43.9824 41.2496C45.0679 46.6319 46.1799 52.6829 48.5145 59.0877C49.5798 62.2607 50.7899 65.6958 52.2628 68.9867C53.7357 72.2775 55.4124 75.6273 57.2929 79.0361C64.8148 92.6713 75.4259 106.319 89.218 118.904C106.35 134.439 121.897 145.548 133.085 153.414Z" fill="url(#paint21_linear_1903_15657)" fill-opacity="0.05"/>
<path d="M111.224 125.272C114.939 129.212 118.337 131.958 120.369 134.088C122.604 136.278 123.853 137.3 123.853 137.3C123.853 137.3 118.936 135.216 110.39 129.658C102.311 124.015 90.255 114.577 79.3345 98.1951C77.2503 94.7274 75.0478 91.6661 73.3711 88.3163C71.6944 84.9665 69.9586 81.8199 68.4856 78.529C67.0127 75.2382 65.7436 72.0063 64.6782 68.8333C63.3499 65.8047 62.4883 62.6907 61.6266 59.5768C60.765 56.4628 60.0481 53.6111 59.5349 50.8183C59.0217 48.0255 58.7122 45.2917 58.1399 42.7022C57.199 37.5821 57.1588 33.1633 56.7374 29.2953L56.6519 28.8298C57.0732 32.6978 57.2581 37.3788 58.3172 42.0924C58.9486 44.4787 59.521 47.0682 60.0342 49.861C60.6065 52.4505 61.7901 55.217 62.77 57.9244C64.6706 63.5426 67.5045 68.9902 70.5686 75.1654C73.9547 80.9931 77.5446 86.8797 82.0677 92.5958C93.1719 106.827 103.474 117.741 111.224 125.272Z" fill="url(#paint22_linear_1903_15657)" fill-opacity="0.05"/>
<path d="M106.224 29.2926C106.251 29.9614 106.218 30.8333 106.185 31.7053C106.422 30.8923 106.454 30.0203 106.224 29.2926Z" fill="url(#paint23_linear_1903_15657)" fill-opacity="0.05"/>
<path d="M106.258 28.4208C106.199 28.624 106.284 29.0895 106.225 29.2927C106.284 29.0895 106.14 28.8273 106.199 28.624L106.258 28.4208Z" fill="url(#paint24_linear_1903_15657)" fill-opacity="0.05"/>
<path d="M145.5 146.429C147.4 152.047 148.985 156.472 150.11 159.442C151.175 162.615 151.636 164.07 151.636 164.07C151.636 164.07 150.564 162.438 148.565 159.436C146.567 156.433 143.904 151.917 140.925 146.207C134.909 134.991 128.011 118.451 125.753 100.39C123.772 85.9338 125.683 74.8079 126.621 66.2652C127.455 61.879 127.093 57.8078 127.631 54.4379C127.696 52.6939 127.499 51.0943 127.505 49.5536C127.715 48.0719 127.662 46.7345 127.813 45.456L127.872 45.2528C127.721 46.5312 127.774 47.8687 127.768 49.4093C127.762 50.95 127.959 52.5497 128.098 54.3525C128.236 56.1554 127.908 58.0436 128.394 60.1677C128.677 62.2328 128.698 64.4422 128.455 66.7959C128.562 76.3021 128.34 87.6965 131.866 102.159C136.254 119.734 141.64 135.396 145.5 146.429Z" fill="url(#paint25_linear_1903_15657)" fill-opacity="0.05"/>
<path d="M153.44 114.571C161.075 136.172 168.867 154.954 174.088 168.144C179.513 181.392 182.512 189.312 182.512 189.312C182.512 189.312 181.092 187.358 178.804 183.831C176.575 180.101 173.215 174.942 169.454 168.125C162.077 154.752 152.596 135.702 147.176 114.081C142.729 96.7083 141.156 82.3705 140.851 71.2646C140.75 60.2177 142.123 52.4616 142.03 46.7054L142.089 46.5022C142.241 52.0551 141.276 59.9291 142.6 71.3298C143.982 82.5273 147.245 97.1335 153.44 114.571Z" fill="url(#paint26_linear_1903_15657)" fill-opacity="0.05"/>
<path d="M192.469 184.701C184.224 169.755 173.967 148.056 166.837 123.957C161.233 104.487 158.443 88.2546 157.212 75.7787C155.981 63.3028 156.63 54.2356 155.196 48.5321L155.051 48.2699C156.485 53.9734 156.506 63.0142 158.816 75.5817C161.066 88.3525 165.401 104.591 172.897 124.389C181.92 148.815 191.014 169.957 197.044 184.923C203.278 199.948 206.507 208.595 206.507 208.595C206.507 208.595 205.146 206.438 202.365 202.328C200.195 198.395 196.664 192.305 192.469 184.701Z" fill="url(#paint27_linear_1903_15657)" fill-opacity="0.05"/>
<path d="M169.914 55.6559C170.203 56.1803 170.289 56.6458 170.578 57.1702C170.289 56.6458 170.058 55.9181 169.769 55.3937L169.914 55.6559Z" fill="url(#paint28_linear_1903_15657)" fill-opacity="0.05"/>
<path d="M182.98 53.2671C183.184 53.3261 183.125 53.5293 183.329 53.5883C183.184 53.3261 183.039 53.0639 182.836 53.0049L182.98 53.2671Z" fill="url(#paint29_linear_1903_15657)" fill-opacity="0.05"/>
<path d="M184.689 55.7449C184.256 54.9583 183.762 54.3749 183.269 53.7915C183.618 54.1127 184.052 54.8993 184.689 55.7449Z" fill="url(#paint30_linear_1903_15657)" fill-opacity="0.05"/>
<path d="M218.758 63.1797C218.758 63.1797 218.41 62.8585 218.265 62.5963C218.41 62.8585 218.613 62.9175 218.758 63.1797Z" fill="url(#paint31_linear_1903_15657)" fill-opacity="0.05"/>
<path d="M219.192 63.9662C219.047 63.704 218.843 63.645 218.902 63.4418C219.106 63.5007 219.047 63.704 219.192 63.9662Z" fill="url(#paint32_linear_1903_15657)" fill-opacity="0.05"/>
<path d="M216.438 60.525C216.641 60.584 216.582 60.7873 216.786 60.8463C216.641 60.5841 216.438 60.525 216.089 60.2039L216.438 60.525Z" fill="url(#paint33_linear_1903_15657)" fill-opacity="0.05"/>
<path d="M301.782 179.534C304.037 183.933 306.029 188.476 307.614 192.901C309.055 197.064 310.554 201.023 312.053 204.983C315.052 212.902 317.965 220.356 320.734 227.547C326.737 241.845 331.873 254.569 336.318 265.11C340.763 275.652 344.255 284.154 346.767 289.949C349.075 295.685 350.344 298.917 350.344 298.917C350.344 298.917 348.201 295.653 344.552 289.969C340.903 284.286 335.722 275.515 329.732 264.967C323.802 254.217 317.384 241.342 310.973 226.926C307.738 219.82 304.739 211.901 301.944 204.041C300.445 200.081 299.208 195.977 297.768 191.814C297.018 189.835 296.617 188.176 295.723 185.934C294.769 183.895 294.02 181.915 293.125 179.673C287.148 166.045 280.731 153.17 275.503 141.521C270.072 129.812 265.219 119.153 260.945 109.543C256.874 99.9915 253.12 91.6332 249.944 84.3238C246.709 77.2177 243.967 70.6949 240.167 66.29L239.877 65.7655C243.677 70.1705 246.538 76.2867 250.18 83.5108C253.968 90.9971 258.393 99.329 262.989 108.592C268.196 118.032 273.66 128.868 280.229 140.464C286.883 152.526 294.437 165.289 301.782 179.534Z" fill="url(#paint34_linear_1903_15657)" fill-opacity="0.05"/>
<path d="M306.086 103.214C306.23 103.477 306.375 103.739 306.579 103.798C306.579 103.798 306.579 103.798 306.375 103.739L306.086 103.214Z" fill="url(#paint35_linear_1903_15657)" fill-opacity="0.05"/>
<path d="M312.371 112.746C310.227 109.481 308.229 106.479 306.579 103.798C308.433 106.538 310.227 109.481 312.371 112.746Z" fill="url(#paint36_linear_1903_15657)" fill-opacity="0.05"/>
<path d="M484.514 322.979C477.252 331.235 470.523 337.661 464.701 343.248C453.115 354.218 445.366 360.35 445.366 360.35C445.366 360.35 449.657 351.675 458.048 338.017C462.214 331.29 467.668 323.173 473.707 314.564C475.967 310.59 477.274 304.578 477.825 298.127C478.579 291.734 478.696 284.497 478.669 276.996C478.193 264.96 476.666 253.5 474.147 242.414C472.916 236.77 471.364 231.473 469.812 226.176C468.201 221.082 466.327 216.132 464.19 211.327C460.119 201.776 455.405 192.92 450.454 184.876C449.875 183.827 449.238 182.982 448.455 181.874C447.673 180.766 447.587 180.301 447.213 179.311C446.548 177.796 445.884 176.282 445.22 174.768C443.833 171.942 442.386 169.32 440.94 166.698L440.65 166.174C442.156 168.592 443.603 171.215 445.194 174.099C445.858 175.613 446.785 176.983 447.653 178.557L448.172 179.809C448.258 180.274 448.606 180.595 448.896 181.12C449.678 182.228 450.316 183.073 451.098 184.181C456.864 192.46 462.597 201.611 467.89 211.517C469.192 213.877 470.638 216.499 471.881 219.062C473.124 221.625 474.308 224.392 475.432 227.361C477.799 232.894 479.845 238.775 481.89 244.655C483.935 250.535 485.455 256.704 486.974 262.873C488.434 269.245 489.369 275.906 490.1 282.508C490.824 290.65 491.056 298.21 490.183 305.008C489.573 311.663 488.207 317.878 484.514 322.979Z" fill="url(#paint37_linear_1903_15657)" fill-opacity="0.05"/>
<path d="M517.489 319.741C506.766 340.657 489.001 351.602 475.916 358.613C462.482 365.303 453.235 367.474 453.235 367.474C453.235 367.474 459.669 362.064 469.907 352.687C480.001 343.048 494.045 329.704 506.826 311.587C511.84 304.224 515.834 296.566 518.488 288.96C521.142 281.355 522.778 273.454 522.75 265.954C523.347 262.381 522.663 258.657 522.386 255.052C521.906 251.387 521.57 247.984 521.175 244.785C519.222 237.829 517.354 231.339 515.394 225.924L515.309 225.459C517.268 230.874 519.34 237.423 522.049 244.818C522.793 248.338 523.74 251.917 524.569 255.903C525.398 259.889 526.43 263.934 526.589 267.947C526.951 272.018 526.991 276.436 527.235 280.914C526.868 285.215 526.297 289.457 525.871 293.961C524.321 302.327 521.72 311.27 517.489 319.741Z" fill="url(#paint38_linear_1903_15657)" fill-opacity="0.05"/>
<path d="M481.208 397.384C481.208 397.384 486.623 391.68 496.014 382.939C505.405 374.198 518.772 362.421 534.564 349.142C547.169 338.466 556.829 328.04 562.729 317.628C568.63 307.216 570.133 295.972 569.066 285.968L568.98 285.502C569.699 295.185 570.201 307.891 566.128 320.374C561.996 333.061 554.597 346.345 543.354 359.177C529.475 374.993 512.972 383.88 501.175 389.5C489.174 395.062 481.208 397.384 481.208 397.384Z" fill="url(#paint39_linear_1903_15657)" fill-opacity="0.05"/>
<defs>
<linearGradient id="paint0_linear_1903_15657" x1="70.7149" y1="61.5859" x2="411.145" y2="434.186" gradientUnits="userSpaceOnUse">
<stop stop-color="#C4A767"/>
<stop offset="1" stop-color="#C4A767" stop-opacity="0"/>
</linearGradient>
<linearGradient id="paint1_linear_1903_15657" x1="70.7149" y1="61.5859" x2="411.145" y2="434.186" gradientUnits="userSpaceOnUse">
<stop stop-color="#C4A767"/>
<stop offset="1" stop-color="#C4A767" stop-opacity="0"/>
</linearGradient>
<linearGradient id="paint2_linear_1903_15657" x1="70.7149" y1="61.5859" x2="411.145" y2="434.186" gradientUnits="userSpaceOnUse">
<stop stop-color="#C4A767"/>
<stop offset="1" stop-color="#C4A767" stop-opacity="0"/>
</linearGradient>
<linearGradient id="paint3_linear_1903_15657" x1="70.7149" y1="61.5859" x2="411.145" y2="434.186" gradientUnits="userSpaceOnUse">
<stop stop-color="#C4A767"/>
<stop offset="1" stop-color="#C4A767" stop-opacity="0"/>
</linearGradient>
<linearGradient id="paint4_linear_1903_15657" x1="70.7149" y1="61.5859" x2="411.145" y2="434.186" gradientUnits="userSpaceOnUse">
<stop stop-color="#C4A767"/>
<stop offset="1" stop-color="#C4A767" stop-opacity="0"/>
</linearGradient>
<linearGradient id="paint5_linear_1903_15657" x1="70.7149" y1="61.5859" x2="411.145" y2="434.186" gradientUnits="userSpaceOnUse">
<stop stop-color="#C4A767"/>
<stop offset="1" stop-color="#C4A767" stop-opacity="0"/>
</linearGradient>
<linearGradient id="paint6_linear_1903_15657" x1="70.7149" y1="61.5859" x2="411.145" y2="434.186" gradientUnits="userSpaceOnUse">
<stop stop-color="#C4A767"/>
<stop offset="1" stop-color="#C4A767" stop-opacity="0"/>
</linearGradient>
<linearGradient id="paint7_linear_1903_15657" x1="70.7149" y1="61.5859" x2="411.145" y2="434.186" gradientUnits="userSpaceOnUse">
<stop stop-color="#C4A767"/>
<stop offset="1" stop-color="#C4A767" stop-opacity="0"/>
</linearGradient>
<linearGradient id="paint8_linear_1903_15657" x1="70.7149" y1="61.5859" x2="411.145" y2="434.186" gradientUnits="userSpaceOnUse">
<stop stop-color="#C4A767"/>
<stop offset="1" stop-color="#C4A767" stop-opacity="0"/>
</linearGradient>
<linearGradient id="paint9_linear_1903_15657" x1="70.7149" y1="61.5859" x2="411.145" y2="434.186" gradientUnits="userSpaceOnUse">
<stop stop-color="#C4A767"/>
<stop offset="1" stop-color="#C4A767" stop-opacity="0"/>
</linearGradient>
<linearGradient id="paint10_linear_1903_15657" x1="70.7149" y1="61.5859" x2="411.145" y2="434.186" gradientUnits="userSpaceOnUse">
<stop stop-color="#C4A767"/>
<stop offset="1" stop-color="#C4A767" stop-opacity="0"/>
</linearGradient>
<linearGradient id="paint11_linear_1903_15657" x1="70.7149" y1="61.5859" x2="411.145" y2="434.186" gradientUnits="userSpaceOnUse">
<stop stop-color="#C4A767"/>
<stop offset="1" stop-color="#C4A767" stop-opacity="0"/>
</linearGradient>
<linearGradient id="paint12_linear_1903_15657" x1="70.7149" y1="61.5859" x2="411.145" y2="434.186" gradientUnits="userSpaceOnUse">
<stop stop-color="#C4A767"/>
<stop offset="1" stop-color="#C4A767" stop-opacity="0"/>
</linearGradient>
<linearGradient id="paint13_linear_1903_15657" x1="70.7149" y1="61.5859" x2="411.145" y2="434.186" gradientUnits="userSpaceOnUse">
<stop stop-color="#C4A767"/>
<stop offset="1" stop-color="#C4A767" stop-opacity="0"/>
</linearGradient>
<linearGradient id="paint14_linear_1903_15657" x1="70.7149" y1="61.5859" x2="411.145" y2="434.186" gradientUnits="userSpaceOnUse">
<stop stop-color="#C4A767"/>
<stop offset="1" stop-color="#C4A767" stop-opacity="0"/>
</linearGradient>
<linearGradient id="paint15_linear_1903_15657" x1="70.7149" y1="61.5859" x2="411.145" y2="434.186" gradientUnits="userSpaceOnUse">
<stop stop-color="#C4A767"/>
<stop offset="1" stop-color="#C4A767" stop-opacity="0"/>
</linearGradient>
<linearGradient id="paint16_linear_1903_15657" x1="70.7149" y1="61.5859" x2="411.145" y2="434.186" gradientUnits="userSpaceOnUse">
<stop stop-color="#C4A767"/>
<stop offset="1" stop-color="#C4A767" stop-opacity="0"/>
</linearGradient>
<linearGradient id="paint17_linear_1903_15657" x1="70.7149" y1="61.5859" x2="411.145" y2="434.186" gradientUnits="userSpaceOnUse">
<stop stop-color="#C4A767"/>
<stop offset="1" stop-color="#C4A767" stop-opacity="0"/>
</linearGradient>
<linearGradient id="paint18_linear_1903_15657" x1="70.7149" y1="61.5859" x2="411.145" y2="434.186" gradientUnits="userSpaceOnUse">
<stop stop-color="#C4A767"/>
<stop offset="1" stop-color="#C4A767" stop-opacity="0"/>
</linearGradient>
<linearGradient id="paint19_linear_1903_15657" x1="70.7149" y1="61.5859" x2="411.145" y2="434.186" gradientUnits="userSpaceOnUse">
<stop stop-color="#C4A767"/>
<stop offset="1" stop-color="#C4A767" stop-opacity="0"/>
</linearGradient>
<linearGradient id="paint20_linear_1903_15657" x1="70.7149" y1="61.5859" x2="411.145" y2="434.186" gradientUnits="userSpaceOnUse">
<stop stop-color="#C4A767"/>
<stop offset="1" stop-color="#C4A767" stop-opacity="0"/>
</linearGradient>
<linearGradient id="paint21_linear_1903_15657" x1="70.7149" y1="61.5859" x2="411.145" y2="434.186" gradientUnits="userSpaceOnUse">
<stop stop-color="#C4A767"/>
<stop offset="1" stop-color="#C4A767" stop-opacity="0"/>
</linearGradient>
<linearGradient id="paint22_linear_1903_15657" x1="70.7149" y1="61.5859" x2="411.145" y2="434.186" gradientUnits="userSpaceOnUse">
<stop stop-color="#C4A767"/>
<stop offset="1" stop-color="#C4A767" stop-opacity="0"/>
</linearGradient>
<linearGradient id="paint23_linear_1903_15657" x1="70.7149" y1="61.5859" x2="411.145" y2="434.186" gradientUnits="userSpaceOnUse">
<stop stop-color="#C4A767"/>
<stop offset="1" stop-color="#C4A767" stop-opacity="0"/>
</linearGradient>
<linearGradient id="paint24_linear_1903_15657" x1="70.7149" y1="61.5859" x2="411.145" y2="434.186" gradientUnits="userSpaceOnUse">
<stop stop-color="#C4A767"/>
<stop offset="1" stop-color="#C4A767" stop-opacity="0"/>
</linearGradient>
<linearGradient id="paint25_linear_1903_15657" x1="70.7149" y1="61.5859" x2="411.145" y2="434.186" gradientUnits="userSpaceOnUse">
<stop stop-color="#C4A767"/>
<stop offset="1" stop-color="#C4A767" stop-opacity="0"/>
</linearGradient>
<linearGradient id="paint26_linear_1903_15657" x1="70.7149" y1="61.5859" x2="411.145" y2="434.186" gradientUnits="userSpaceOnUse">
<stop stop-color="#C4A767"/>
<stop offset="1" stop-color="#C4A767" stop-opacity="0"/>
</linearGradient>
<linearGradient id="paint27_linear_1903_15657" x1="70.7149" y1="61.5859" x2="411.145" y2="434.186" gradientUnits="userSpaceOnUse">
<stop stop-color="#C4A767"/>
<stop offset="1" stop-color="#C4A767" stop-opacity="0"/>
</linearGradient>
<linearGradient id="paint28_linear_1903_15657" x1="70.7149" y1="61.5859" x2="411.145" y2="434.186" gradientUnits="userSpaceOnUse">
<stop stop-color="#C4A767"/>
<stop offset="1" stop-color="#C4A767" stop-opacity="0"/>
</linearGradient>
<linearGradient id="paint29_linear_1903_15657" x1="70.7149" y1="61.5859" x2="411.145" y2="434.186" gradientUnits="userSpaceOnUse">
<stop stop-color="#C4A767"/>
<stop offset="1" stop-color="#C4A767" stop-opacity="0"/>
</linearGradient>
<linearGradient id="paint30_linear_1903_15657" x1="70.7149" y1="61.5859" x2="411.145" y2="434.186" gradientUnits="userSpaceOnUse">
<stop stop-color="#C4A767"/>
<stop offset="1" stop-color="#C4A767" stop-opacity="0"/>
</linearGradient>
<linearGradient id="paint31_linear_1903_15657" x1="70.7149" y1="61.5859" x2="411.145" y2="434.186" gradientUnits="userSpaceOnUse">
<stop stop-color="#C4A767"/>
<stop offset="1" stop-color="#C4A767" stop-opacity="0"/>
</linearGradient>
<linearGradient id="paint32_linear_1903_15657" x1="70.7149" y1="61.5859" x2="411.145" y2="434.186" gradientUnits="userSpaceOnUse">
<stop stop-color="#C4A767"/>
<stop offset="1" stop-color="#C4A767" stop-opacity="0"/>
</linearGradient>
<linearGradient id="paint33_linear_1903_15657" x1="70.7149" y1="61.5859" x2="411.145" y2="434.186" gradientUnits="userSpaceOnUse">
<stop stop-color="#C4A767"/>
<stop offset="1" stop-color="#C4A767" stop-opacity="0"/>
</linearGradient>
<linearGradient id="paint34_linear_1903_15657" x1="70.7149" y1="61.5859" x2="411.145" y2="434.186" gradientUnits="userSpaceOnUse">
<stop stop-color="#C4A767"/>
<stop offset="1" stop-color="#C4A767" stop-opacity="0"/>
</linearGradient>
<linearGradient id="paint35_linear_1903_15657" x1="70.7149" y1="61.5859" x2="411.145" y2="434.186" gradientUnits="userSpaceOnUse">
<stop stop-color="#C4A767"/>
<stop offset="1" stop-color="#C4A767" stop-opacity="0"/>
</linearGradient>
<linearGradient id="paint36_linear_1903_15657" x1="70.7149" y1="61.5859" x2="411.145" y2="434.186" gradientUnits="userSpaceOnUse">
<stop stop-color="#C4A767"/>
<stop offset="1" stop-color="#C4A767" stop-opacity="0"/>
</linearGradient>
<linearGradient id="paint37_linear_1903_15657" x1="70.7149" y1="61.5859" x2="411.145" y2="434.186" gradientUnits="userSpaceOnUse">
<stop stop-color="#C4A767"/>
<stop offset="1" stop-color="#C4A767" stop-opacity="0"/>
</linearGradient>
<linearGradient id="paint38_linear_1903_15657" x1="70.7149" y1="61.5859" x2="411.145" y2="434.186" gradientUnits="userSpaceOnUse">
<stop stop-color="#C4A767"/>
<stop offset="1" stop-color="#C4A767" stop-opacity="0"/>
</linearGradient>
<linearGradient id="paint39_linear_1903_15657" x1="70.7149" y1="61.5859" x2="411.145" y2="434.186" gradientUnits="userSpaceOnUse">
<stop stop-color="#C4A767"/>
<stop offset="1" stop-color="#C4A767" stop-opacity="0"/>
</linearGradient>
</defs>
</svg>
