<svg width="360" height="331" viewBox="0 0 360 331" fill="none" xmlns="http://www.w3.org/2000/svg">
<path d="M32.1057 79.9822C32.028 80.1574 31.9503 80.3326 31.9503 80.3326L32.1057 79.9822Z" fill="url(#paint0_linear_1903_15659)" fill-opacity="0.03"/>
<path d="M93.3959 45.7298C91.3951 48.8257 89.0837 52.6226 86.6948 56.5946C77.0611 72.6579 66.9476 95.0069 59.619 120.058C53.6085 140.243 51.038 156.921 49.7676 170.193C49.1581 182.92 48.9349 192.883 49.3707 200.413L49.3906 200.841C49.13 193.389 48.4195 183.641 47.5897 171.324C47.4504 168.328 47.2912 164.903 47.4625 161.206C47.6338 157.509 47.8051 153.811 47.9565 149.686C48.6096 141.59 49.7287 132.444 51.8391 122.479C56.7748 97.6249 69.0464 73.717 81.3058 56.9309C84.6285 52.7439 87.5431 49.0049 90.0495 45.7138C92.9839 42.4028 95.6078 39.7926 97.726 37.3775C99.9417 35.2153 101.574 33.4235 102.721 32.2547C103.868 31.086 104.529 30.5405 104.529 30.5405C104.529 30.5405 102.586 33.0332 99.3604 37.4731C97.6702 39.8683 95.6495 42.5362 93.3959 45.7298Z" fill="url(#paint1_linear_1903_15659)" fill-opacity="0.03"/>
<path d="M146.673 14.4244L147.256 14.0541C147.003 14.1516 146.673 14.4244 146.42 14.5219C146.42 14.5219 146.42 14.522 146.673 14.4244Z" fill="url(#paint2_linear_1903_15659)" fill-opacity="0.03"/>
<path d="M138.995 20.8732C136.371 23.4834 134 25.996 131.396 29.0342C126.518 34.8379 121.253 41.5177 116.104 48.8783C113.443 52.5199 110.878 56.4142 108.412 60.5615C105.77 64.6311 103.226 68.9535 100.604 73.4512C95.4375 82.2713 90.9919 91.8301 87.3446 101.952C78.3816 126.908 74.2205 148.122 71.4928 163.263C68.7651 178.405 67.7237 187.377 67.7237 187.377C67.7237 187.377 67.2937 185.509 66.8618 181.754C66.4299 177.999 65.9184 172.532 66.1057 165.487C66.3828 151.146 68.4039 130.031 79.7 103.595C84.3587 93.0823 89.8156 83.1333 95.7402 74.0205C101.84 64.9854 107.727 56.904 113.556 49.4258C119.308 42.1229 125.001 35.4232 130.307 29.5996C134.816 25.1 138.567 20.8931 143.038 17.4248C143.038 17.4248 142.96 17.6001 142.785 17.5224C141.541 18.4382 140.219 19.5293 138.995 20.8732Z" fill="url(#paint3_linear_1903_15659)" fill-opacity="0.03"/>
<path d="M236.757 -2.03373C236.504 -1.93618 236.504 -1.93617 236.252 -1.83861C236.504 -1.93617 236.757 -2.03373 236.757 -2.03373Z" fill="url(#paint4_linear_1903_15659)" fill-opacity="0.03"/>
<path d="M242.34 -3.75195C241.659 -3.6345 241.153 -3.43936 240.395 -3.1467C240.823 -3.1666 241.153 -3.43938 241.581 -3.45928L242.34 -3.75195Z" fill="url(#paint5_linear_1903_15659)" fill-opacity="0.03"/>
<path d="M260.574 0.977882C260.068 1.17299 259.563 1.36808 259.057 1.56319C259.816 1.27052 260.574 0.977868 261.333 0.685205L260.574 0.977882Z" fill="url(#paint6_linear_1903_15659)" fill-opacity="0.03"/>
<path d="M318.612 1.96882C317.834 1.83341 316.803 1.79555 316.025 1.66014C316.628 1.71789 317.231 1.77567 317.659 1.75577L318.612 1.96882Z" fill="url(#paint7_linear_1903_15659)" fill-opacity="0.03"/>
<path d="M314.643 1.4664C315.071 1.4465 315.674 1.50425 316.102 1.48435C315.422 1.6018 314.994 1.62171 314.643 1.4664Z" fill="url(#paint8_linear_1903_15659)" fill-opacity="0.03"/>
<path d="M289.51 5.20947C284.861 6.71258 279.96 8.31326 275.507 10.3221C271.053 12.3309 266.094 14.5349 261.758 17.2246C243.616 27.4202 225.984 41.1957 208.959 58.8039C198.133 69.5173 189.349 79.8784 181.46 89.1683C173.745 98.5359 167.275 106.988 161.777 114.193C152.82 126.364 146.758 134.368 145.145 136.588C145.981 136.12 146.818 135.652 147.654 135.184C147.654 135.184 147.654 135.184 147.829 135.262C156.754 129.785 165.853 124.385 174.72 119.511C180.826 116.139 186.932 112.766 192.882 109.744C194.552 106.921 198.321 101.254 204.656 93.5809C209.203 88.05 215.247 81.5056 222.983 74.4536C230.719 67.4016 240.323 59.9196 252.515 52.7462C262.198 46.9765 272.621 42.3735 282.93 38.977C288.259 37.3565 293.335 35.8335 298.607 34.8162C303.781 33.546 309.072 32.9568 314.364 32.3676C332.806 30.4805 350.786 33.4198 364.742 38.3479C350.786 33.4198 333.274 31.3168 315.785 33.4169C295.748 36.0645 275.58 43.2655 257.42 54.9205C246.084 62.0541 236.558 69.3609 228.549 76.0824C226.566 77.719 224.584 79.3556 222.776 81.0698C220.968 82.784 219.238 84.323 217.508 85.862C214.048 88.9401 211.094 91.823 208.47 94.4332C203.047 99.5759 198.966 104.056 196.187 107.016C195.371 107.912 194.632 108.633 194.069 109.431C199.844 106.331 205.464 103.582 211.259 100.91C217.132 98.063 223.102 95.4689 228.742 93.1475C231.601 91.8992 234.382 90.8261 237.241 89.5778C240.022 88.5047 242.803 87.4316 245.584 86.3585C250.893 84.3099 256.047 82.6116 260.949 81.011C260.949 81.011 260.949 81.011 261.124 81.0886C266.278 79.3904 271.277 78.0426 276.198 76.87C285.612 74.5447 293.86 72.9601 300.863 72.2913C302.4 72.134 303.684 72.0743 305.046 71.8394C305.299 71.7418 305.552 71.6443 305.805 71.5467C307.419 71.2143 309.967 70.6668 313.119 70.1771C316.27 69.6874 320.122 69.5083 324.753 69.4646C326.99 69.6179 329.403 69.849 332.069 69.9824C334.657 70.2911 337.342 70.8526 340.028 71.4142C342.363 71.8204 344.367 72.4994 346.372 73.1784C348.377 73.8574 350.381 74.5363 352.133 75.3129C355.812 76.9436 359.218 78.2438 362.139 80.1672C368.115 83.2355 372.301 86.5586 375.825 88.5398L376 88.6174C372.476 86.6363 368.31 83.7412 362.198 81.4514C356.242 78.8112 348.944 76.8339 340.382 75.3444C329.835 73.604 320.729 73.341 314.094 72.7057C310.825 72.5145 308.16 72.381 306.35 72.2078C304.54 72.0345 303.509 71.9967 303.509 71.9967C303.509 71.9967 304.015 71.8015 304.696 71.6841C303.587 71.8214 302.478 71.9588 301.194 72.0185C297.264 72.3728 293.004 72.9999 288.588 73.9773C289.016 73.9575 289.62 74.0152 290.3 73.8978C292.188 73.8958 295.009 73.6789 298.453 73.9477C305.165 74.4078 314.408 75.7799 323.926 79.3699C327.78 81.0783 331.186 82.3785 334.184 84.1267C335.683 85.0008 337.085 85.622 338.409 86.4185C339.733 87.2149 341.056 88.0113 342.205 88.7301C344.755 90.0701 346.8 91.6053 348.571 92.8099C349.545 93.451 350.596 93.9169 351.472 94.3052C352.348 94.6935 353.048 95.0041 353.827 95.1395C353.048 95.0041 352.348 94.6935 351.647 94.3829C350.771 93.9946 349.72 93.5287 348.669 93.0628C346.567 92.1309 344.269 90.6933 341.564 89.7037C340.162 89.0825 338.761 88.4613 337.36 87.84C335.705 87.3163 334.304 86.6951 332.474 86.0938C330.898 85.3949 329.068 84.7936 327.161 84.3674C325.332 83.7661 323.327 83.0871 321.42 82.661C311.339 79.8693 302.854 78.2046 296.938 76.4205C291.995 75.2776 288.861 74.3079 287.985 73.9196C284.503 74.6821 280.769 75.5421 276.781 76.4997C272.541 77.5548 267.97 78.8827 263.399 80.2106C263.827 80.1907 264.508 80.0733 265.364 80.0335C267.757 79.8364 271.181 79.6772 275.636 79.5559C284.217 79.586 296.085 80.2353 308.522 83.8613C318.35 86.7505 326.233 90.2449 332.132 93.4884C337.134 95.9156 340.951 98.6553 344.377 100.384C341.048 98.9082 336.824 96.6164 331.413 94.6372C324.854 91.9392 316.407 89.2432 305.938 87.3276C292.958 84.9281 281.828 83.558 273.966 82.3791C270.074 81.7021 266.883 81.3356 264.801 80.8319C263.672 80.5412 262.894 80.4058 262.29 80.348C257.136 82.0462 251.905 83.9196 246.42 85.8906C243.639 86.9637 241.033 88.1145 238.252 89.1876C235.471 90.2607 232.787 91.5866 229.928 92.8349C224.211 95.3315 218.493 97.8281 212.543 100.85C206.34 103.97 199.884 107.187 193.525 110.658C193.117 111.106 193.039 111.281 193.039 111.281C193.039 111.281 193.117 111.106 193.272 110.755C187.75 113.758 181.975 116.857 176.375 120.035C174.702 120.971 173.283 121.809 171.611 122.745C173.225 122.412 181.24 121.353 193.555 120.523C207.154 119.634 226.356 119.341 246.555 122.006C262.783 124.168 275.783 126.996 285.864 129.788C290.904 131.183 295.166 132.444 298.825 133.647C299.779 133.86 300.655 134.248 301.433 134.383C302.134 134.694 303.088 134.907 303.866 135.042C304.216 135.198 304.644 135.178 304.995 135.333C304.644 135.178 304.392 135.275 304.216 135.198C302.66 134.927 301.005 134.403 299.098 133.977C295.362 132.95 290.944 132.04 285.573 130.917C275.181 128.826 261.366 126.894 244.418 125.88C223.424 124.54 205.135 124.189 191.982 123.599C180.211 123.203 172.895 122.685 171.688 122.569C164.922 126.488 158.077 130.581 151.233 134.674C154.832 134.593 162.634 134.487 173.199 134.768C176.896 134.94 181.021 135.091 185.398 135.145C189.698 135.374 194.426 135.583 199.33 135.87C201.742 136.101 204.31 135.982 206.801 136.038C209.544 135.996 212.463 136.032 215.381 136.068C218.222 136.279 220.965 136.237 224.059 136.351C226.9 136.562 229.915 136.85 232.834 136.886C251.864 138.404 267.411 140.684 279.417 142.442C289.867 143.93 298.001 145.439 303.468 144.928C297.923 145.615 290.159 144.689 279.224 143.824C266.732 142.689 250.466 141.558 230.718 141.189C224.53 140.962 218.616 141.065 213.032 140.896C210.289 140.938 207.545 140.979 204.802 141.021C201.884 140.985 198.965 140.949 196.552 140.718C186.396 139.989 178.106 138.83 170.945 137.962C164.038 136.996 158.336 136.146 154.542 135.722C152.81 135.373 151.428 135.18 150.397 135.142C146.644 137.462 142.639 139.879 138.809 142.373C134.065 145.511 129.145 148.571 124.401 151.709C125.763 151.474 127.805 151.122 130.606 150.477C135.625 149.557 142.609 148.46 151.48 147.361C155.915 146.812 160.701 146.418 165.837 146.179C168.405 146.059 171.148 146.018 173.716 145.898C176.382 146.032 179.125 145.99 181.966 146.201C187.472 146.546 193.232 146.793 199.088 147.293C204.848 147.54 211.21 147.844 217.825 148.052C239.13 148.691 257.089 149.315 270.71 150.741C284.486 151.816 294.352 153.674 300.654 152.695C294.429 153.499 284.603 152.497 270.614 152.375C256.352 151.923 237.773 152.701 215.418 153.483C208.473 153.549 201.8 153.945 195.437 153.64C189.328 153.238 183.393 152.913 178.062 152.646C175.396 152.512 172.808 152.204 170.318 152.148C167.652 152.015 165.337 152.036 162.847 151.981C158.041 151.947 153.488 151.815 149.286 151.839C135.569 152.048 126.561 152.037 123.818 152.079C122.574 152.995 121.154 153.833 119.735 154.671C113.494 158.823 107.253 162.974 100.934 167.3C100.351 167.67 100.02 167.943 99.4369 168.313C100.799 168.078 102.841 167.726 105.74 167.334C110.856 166.667 118.267 165.55 127.411 164.782C136.632 163.838 147.488 162.991 159.57 162.686C165.484 162.583 171.827 162.46 178.364 162.842C184.804 162.972 191.575 162.828 198.696 162.84C221.673 162.544 240.741 163.031 255.723 164.222C262.786 164.837 269.499 165.297 275.356 165.797C278.196 166.008 280.862 166.142 283.1 166.295C284.131 166.333 285.24 166.195 286.271 166.233C285.415 166.273 284.481 166.488 283.45 166.45C281.135 166.472 278.469 166.339 275.726 166.38C269.967 166.133 263.274 166.101 255.627 165.856C240.101 165.892 220.315 166.554 196.386 168.525C189.033 169.038 181.854 169.629 175.239 169.422C168.721 169.468 162.456 169.416 156.444 169.266C144.517 169.22 133.972 169.367 125.392 169.337C111.578 169.293 102.298 168.953 99.1263 169.014C93.6437 172.873 87.9083 176.829 82.6008 180.765C78.6153 183.61 74.6297 186.455 70.8193 189.378C74.9243 189.101 83.6597 188.781 95.6838 189.08C104.011 189.207 114.07 189.683 124.85 190.898C130.279 191.418 136.058 192.093 141.76 192.943C144.698 193.407 147.461 193.794 150.73 193.985C153.824 194.098 157.092 194.29 160.361 194.481C181.861 195.626 200.015 196.756 214.9 197.694C222.391 198.289 229.006 198.496 234.941 198.821C240.953 198.971 246.109 199.16 250.757 197.657L251.185 197.637C246.537 199.14 241.381 198.951 235.213 199.152C228.948 199.1 222.003 199.165 214.376 199.348C198.85 199.384 179.823 199.754 157.196 200.205C153.772 200.364 150.25 200.271 146.981 200.079C143.635 200.063 140.191 199.794 137.428 199.408C131.473 198.655 125.947 197.883 120.596 197.188C109.894 195.798 100.573 194.601 92.7115 193.422C85.0253 192.321 78.7982 191.238 74.6535 190.658C72.6687 190.407 71.1119 190.136 69.9832 189.846C68.078 191.307 66.2505 192.593 64.1701 193.977C62.7507 194.815 61.4288 195.906 60.1845 196.822C61.1381 197.035 63.0452 197.461 65.9836 197.925C70.2258 198.757 76.1802 199.51 83.6136 200.709C98.3053 203.029 119.049 206.354 143.587 210.104C177.368 215.226 205.073 215.139 223.691 213.329C221.22 213.702 218.75 214.074 216.104 214.369C210.034 214.822 202.875 215.842 195.171 216.2C179.607 217.267 161.085 217.441 140.169 215.926C114.349 214.123 93.9733 209.494 80.3885 205.149C73.5961 202.976 68.1853 200.997 64.7592 199.269C62.1315 198.104 60.6324 197.23 59.9317 196.919C55.6933 199.862 51.5326 202.63 47.3719 205.397C48.3254 205.61 49.8045 206.056 51.7893 206.307C55.7787 207.237 61.325 208.438 68.4279 209.909C72.067 210.684 76.1341 211.438 80.3763 212.271C84.6186 213.103 88.9584 214.188 93.4734 215.351C102.503 217.677 112.662 220.293 123.191 223.493C127.453 224.754 131.696 225.586 135.783 226.769C139.947 227.776 144.014 228.531 147.906 229.208C155.612 230.737 162.948 231.683 169.759 232.396C183.204 233.744 195.111 233.362 204.29 229.675L204.796 229.48C195.694 232.992 183.652 234.153 169.235 234.051C162.114 234.039 154.195 233.463 145.925 232.732C141.703 232.328 137.481 231.923 132.908 231.364C128.588 230.707 123.84 230.07 119.17 229.257C107.747 227.128 97.5881 224.512 88.5382 221.758C78.9051 219.375 71.0615 216.736 64.6772 214.116C58.4682 211.573 53.8159 209.301 50.6426 207.476C49.1436 206.602 47.9949 205.883 47.119 205.494C46.8662 205.592 46.5357 205.865 46.2829 205.962C42.6856 207.931 39.1858 210.153 35.5884 212.122C36.2892 212.433 37.3403 212.899 38.3914 213.365C41.7199 214.84 46.5474 217.19 52.7565 219.732C59.1408 222.353 66.4786 225.186 75.3533 227.862C79.7907 229.2 84.5784 230.694 89.6966 231.914C92.3045 232.651 94.99 233.213 97.5978 233.949C100.206 234.686 102.561 235.52 105.169 236.257C121.536 241.416 136.521 244.495 149.771 245.337C163.197 246.257 174.889 244.942 183.933 242.033L184.361 242.013C175.394 244.747 163.314 246.938 149.17 247.167C142.147 247.408 134.403 246.91 126.386 246.081C122.339 245.755 118.194 245.175 113.874 244.518C111.714 244.19 109.554 243.861 107.472 243.357C106.265 243.242 105.389 242.853 104.183 242.738C102.977 242.622 101.595 242.429 100.389 242.314C87.624 240.848 77.3677 237.979 68.9788 234.679C60.4923 231.127 53.6979 227.067 48.3051 223.629C42.9899 220.015 39.4066 216.75 36.8167 214.553C35.9209 213.737 35.2002 212.998 34.5771 212.513C32.3216 213.819 29.8908 215.047 27.6353 216.353C27.1296 216.548 26.5463 216.918 26.0406 217.114C26.6638 217.599 27.7348 218.493 29.3313 219.62C30.5775 220.592 32.2716 221.972 34.1409 223.429C36.0102 224.887 38.0547 226.422 40.4495 228.112C45.2392 231.493 51.1775 235.593 58.3222 239.808C61.7681 241.964 65.6421 244.101 69.944 246.217C71.9686 247.324 74.2459 248.334 76.4457 249.519C78.7231 250.528 80.8253 251.46 83.2779 252.547C90.8885 255.711 98.5369 257.844 106.243 259.373C110.135 260.05 113.852 260.649 117.724 260.898C121.012 261.518 124.048 262.234 126.987 262.698C138.993 264.457 149.713 264.387 157.981 263.231L158.409 263.211C150.141 264.367 139.285 265.215 126.308 264.703C124.673 264.608 123.039 264.512 121.404 264.417C120.626 264.281 119.517 264.419 118.486 264.381C117.455 264.343 116.346 264.48 115.315 264.442C111.112 264.466 106.735 264.412 102.512 264.008C93.8147 263.297 85.35 262.06 76.6306 259.034C55.2023 252.051 43.1865 240.855 35.5701 232.029C29.6677 225.01 26.7632 219.74 25.8077 217.639C23.377 218.868 21.0239 219.921 18.5932 221.149C15.4816 222.495 12.4676 224.094 9.43362 225.264C6.39969 226.435 3.19055 227.528 0.0789795 228.874C-1.43799 229.459 -2.95493 230.045 -4.47189 230.63C-5.98886 231.215 -7.60339 231.548 -9.04272 231.958C-15.0529 233.696 -20.9654 235.687 -26.9178 236.821C-29.7188 237.466 -32.695 238.034 -35.496 238.679C-38.297 239.324 -41.1179 239.541 -43.8413 240.011C-65.648 243.341 -83.7818 242.64 -96.2159 240.901C-102.345 240.071 -107.113 239.006 -110.149 238.289C-113.36 237.494 -114.839 237.048 -114.839 237.048C-115.968 236.758 -116.961 235.688 -116.476 235.065C-116.32 234.715 -115.815 234.52 -115.134 234.402C-114.628 234.207 -114.025 234.265 -113.5 234.498C-113.5 234.498 -113.149 234.653 -112.371 234.789C-111.592 234.924 -110.464 235.215 -108.984 235.661C-107.505 236.107 -105.521 236.358 -103.263 236.939C-100.928 237.345 -98.34 237.654 -95.2265 238.196C-83.1427 239.779 -65.2617 240.578 -43.7855 237.52C-41.0621 237.05 -38.2412 236.833 -35.693 236.286C-32.892 235.641 -30.091 234.996 -27.29 234.351C-23.8858 233.763 -20.3263 232.826 -16.8643 231.635C-17.3123 231.227 -17.7602 230.819 -18.2081 230.411C-20.5253 228.545 -23.4078 225.59 -26.6805 221.624C-32.8954 213.419 -39.7374 200.953 -42.6136 185.214C-43.3561 182.16 -43.9234 179.183 -44.4907 176.206C-44.8828 173.307 -45.2749 170.408 -45.5695 167.762C-46.3338 162.393 -47.1559 157.626 -47.4524 153.092C-48.123 144.201 -48.9669 137.118 -49.9841 131.846L-50.0816 131.593C-49.2397 136.788 -47.7149 143.753 -45.9354 152.507C-44.958 156.923 -43.4552 161.572 -41.9323 166.649C-41.2098 169.276 -40.4872 171.902 -39.6671 174.781C-38.5941 177.562 -37.5211 180.344 -36.3506 183.378C-31.1213 198.064 -25.4858 210.415 -21.391 219.147C-19.1296 223.504 -17.5889 227.121 -16.1078 229.455C-15.7376 230.038 -15.4449 230.797 -15.1722 231.127C-13.2272 230.522 -11.2822 229.917 -9.16208 229.389C-7.72275 228.979 -6.10825 228.647 -4.59128 228.061C-3.07431 227.476 -1.55737 226.891 -0.0404053 226.305C2.23505 225.428 4.68573 224.627 7.03882 223.574C5.01425 222.467 -0.281128 219.281 -5.871 213.449C-9.39655 209.581 -13.137 204.778 -16.4315 198.497C-19.5509 192.292 -22.282 185.212 -23.6913 177.041C-26.273 163.948 -26.5574 152.293 -26.4696 143.108C-26.1629 138.632 -26.2842 134.176 -26.1129 130.479C-25.6888 126.684 -25.7505 123.512 -25.617 120.846L-25.5394 120.671C-25.4977 123.415 -25.5136 126.762 -25.6073 130.284C-25.5258 133.884 -25.1516 138.242 -24.8551 142.776C-23.8341 151.823 -21.955 162.718 -17.7011 174.875C-12.627 189.911 -6.13547 202.222 -1.10706 210.74C2.98578 217.585 6.27835 221.979 7.4668 223.554C7.97247 223.359 8.65329 223.242 9.2366 222.871C12.4457 221.778 15.4597 220.18 18.3961 218.756C19.4851 218.191 20.7492 217.703 21.8382 217.137C17.9424 212.685 13.4613 206.716 9.38647 198.412C5.11652 189.601 1.15524 178.202 -1.38861 164.078C-2.99295 155.401 -3.56607 146.762 -3.74905 139.135C-3.85437 131.332 -3.29684 124.871 -2.9722 118.936C-2.95425 117.476 -2.76108 116.094 -2.6456 114.888C-2.53009 113.681 -2.33694 112.3 -2.12393 111.346C-1.79541 109.186 -1.54456 107.201 -1.35144 105.819C-0.887512 102.88 -0.79184 101.245 -0.461395 100.973C-0.461395 100.973 -0.694336 101.498 -0.401733 102.257C-0.284302 102.938 -0.224609 104.222 0.0102539 105.584C0.16748 107.121 0.24707 108.833 0.521759 111.051C0.659088 112.16 0.621277 113.192 0.680969 114.476C0.740662 115.76 1.05319 116.947 1.03522 118.406C1.46909 124.049 2.11789 130.625 2.63132 137.98C3.14474 145.335 3.95084 153.448 4.79669 162.418C5.56296 169.675 6.36707 175.901 7.50165 181.854C8.71387 187.632 9.98383 192.807 11.4867 197.456C14.4726 206.326 17.9623 213.113 21.9357 217.39C23.7832 216.532 25.7083 215.499 27.7309 214.718C28.8199 214.153 29.9088 213.588 30.9977 213.022C29.7316 211.622 25.9135 206.995 22.2667 198.671C20.1407 193.536 17.6245 187.389 16.1575 179.822C15.2975 176.086 14.7681 172.078 13.966 167.74C13.6913 165.522 13.5918 163.382 13.3171 161.164C13.0424 158.946 13.0206 156.63 12.9987 154.314C12.9949 150.539 12.991 146.764 12.9095 143.165C13.0031 139.643 13.0967 136.12 13.2879 132.851C13.4791 129.582 13.7679 126.566 14.0566 123.549C14.192 122.771 14.0746 122.09 14.4628 121.214C14.851 120.338 15.064 119.384 15.4522 118.508C16.0535 116.678 16.7523 115.101 17.3535 113.272C18.4007 109.963 20.0511 106.711 21.6239 103.635C23.1967 100.559 24.2638 97.6781 25.6813 94.9524C26.9435 92.5772 28.2256 90.63 29.3325 88.6051C25.7012 95.3805 22.3824 103.343 19.8818 112.296C18.9122 115.43 18.2154 118.894 17.5185 122.359L17.0347 124.869C16.8994 125.648 17.0168 126.329 17.0566 127.185C17.0386 128.644 17.1959 130.181 17.1779 131.641C17.554 137.887 18.1252 144.638 19.2418 152.051C19.5165 154.269 19.9663 156.564 20.3187 158.607C20.7685 160.903 20.9456 162.868 21.298 164.911C22.0802 168.821 22.6097 172.829 23.4696 176.564C24.7614 184.055 26.3439 190.416 27.4586 195.941C29.5885 204.851 31.1511 210.784 31.5811 212.652C32.4172 212.184 33.5061 211.619 34.4199 210.975L34.2447 210.898C34.2447 210.898 34.2447 210.898 34.4199 210.975C37.2588 209.299 40.0976 207.623 43.034 206.199C42.2915 203.145 41.4515 199.838 40.3189 195.772C39.3614 191.784 38.2865 187.115 37.0165 181.94C34.5543 171.416 31.9924 158.751 29.9921 143.4C29.8747 142.719 29.8548 142.291 29.7373 141.61L29.7354 139.723C29.6757 138.438 29.8688 137.057 29.9843 135.85C30.1178 133.184 30.4264 130.596 30.735 128.007C31.3522 122.831 32.3199 117.81 33.6379 112.943C36.0987 103.134 39.7081 94.0429 43.2996 86.4114C45.183 82.6345 46.911 79.2079 48.659 76.2095C50.6598 73.1135 52.1748 70.6407 53.5345 68.5183C56.4292 64.3512 57.8665 62.0536 57.8665 62.0536C57.8665 62.0536 56.8572 64.3313 55.3242 68.2635C54.4701 70.1908 53.3831 72.6437 52.2384 75.6999C51.1713 78.5809 50.0265 81.6371 48.824 85.2965C43.9941 99.5063 39.5782 118.931 37.4017 140.396C37.2484 142.634 36.9975 144.619 36.9218 146.681C36.8461 148.744 36.5176 150.904 36.6748 152.441C36.9315 156.119 37.1684 159.368 37.4052 162.618C37.8788 169.116 38.5078 175.265 39.0193 180.732C40.2174 191.744 41.3739 200.013 43.1117 206.024L43.034 206.199C44.123 205.634 45.2119 205.068 46.3785 204.328C52.4643 200.527 58.4526 196.473 64.4409 192.42C70.5068 188.191 76.6504 183.787 82.7163 179.558C85.2048 177.727 87.8684 175.973 90.4346 173.966C90.3948 173.11 90.2176 171.144 90.2734 168.654C90.3472 164.703 90.6718 158.768 91.8505 150.906C94.3055 135.434 101.053 112.64 116.784 85.6546C129.759 63.9448 144.274 45.8527 158.092 31.225C171.988 16.4221 185.712 5.31649 196.132 -3.06148L196.715 -3.43181C186.12 4.86851 173.349 16.1872 160.737 30.9304C148.126 45.6736 135.576 63.5885 124.293 84.7906C110.662 110.821 102.105 133.441 97.1798 149.285C93.1462 162.171 91.2289 170.754 90.5898 173.615C93.9921 171.141 97.5695 168.743 101.147 166.346C105.463 163.228 109.877 160.363 114.29 157.499C114.561 155.942 115.895 147.729 119.909 134.415C122.138 127.018 125.32 117.947 130.076 107.688C134.832 97.4279 141.649 85.3565 151.384 73.321C166.85 53.5545 183.002 37.4455 198.534 24.6257C206.212 18.177 213.931 12.5844 221.436 7.94548C225.013 5.54838 228.864 3.4818 232.461 1.51277C234.386 0.479476 236.486 -0.476156 238.587 -1.4318C236.739 -0.57371 234.892 0.284365 233.219 1.22011C229.622 3.18914 225.947 5.33339 222.545 7.80815C215.39 12.6024 208.45 18.3303 201.2 24.7592C187.049 37.7722 172.532 53.9768 158.602 73.586C149.898 85.6593 143.373 96.6018 138.188 106.881C133.082 116.986 128.616 126.116 125.278 133.65C121.939 141.184 119.221 147.317 117.183 151.444C115.785 154.598 114.854 156.7 114.465 157.576C116.293 156.29 118.043 155.179 120.045 153.971C123.953 151.301 127.784 148.806 131.789 146.389C132.603 143.606 134.756 136.384 139.219 125.366C145.178 111.447 154.807 91.6086 172.898 69.2319C187.335 51.3151 202.866 36.6078 218.38 25.2474C233.311 14.2573 248.401 6.6918 261.295 1.71655C248.401 6.6918 234.264 14.4704 221.045 25.3809C206.913 36.9344 193.27 51.6398 180.369 69.3994C164.574 91.3261 152.862 110.661 144.686 124.854C138.568 135.349 134.373 142.923 132.625 145.921C134.881 144.615 137.039 143.056 139.294 141.75C141.88 140.171 144.544 138.417 147.305 136.916C147.693 136.04 148.548 134.113 150.043 131.212C152.004 127.26 154.994 121.458 159.208 114.312C163.423 107.167 169.115 98.5795 176.381 88.8038C183.998 79.1834 192.859 68.6471 204.541 57.8939C223.123 40.5565 242.04 26.7213 261.661 16.9718C264.092 15.7434 266.522 14.515 268.875 13.4618C271.404 12.4862 273.757 11.433 276.285 10.4575C280.991 8.35111 286.243 6.90575 291.067 5.4803C295.89 4.05484 301.084 3.21275 305.85 2.39057C308.496 2.09596 311.317 1.87901 314.06 1.83726C311.745 1.85911 309.099 2.15372 306.706 2.35077C299.177 2.78662 294.256 3.95922 289.51 5.20947Z" fill="url(#paint9_linear_1903_15659)" fill-opacity="0.03"/>
<path d="M311.297 1.45059C311.549 1.35303 311.725 1.4307 312.153 1.4108C311.9 1.50835 311.472 1.52824 311.297 1.45059Z" fill="url(#paint10_linear_1903_15659)" fill-opacity="0.03"/>
<path d="M309.523 16.8055C309.095 16.8254 308.491 16.7676 308.063 16.7875C308.316 16.69 308.667 16.8453 308.919 16.7477L309.523 16.8055Z" fill="url(#paint11_linear_1903_15659)" fill-opacity="0.03"/>
<path d="M304.289 16.7909C304.717 16.771 304.892 16.8487 305.32 16.8288C304.892 16.8487 304.542 16.6934 304.289 16.7909Z" fill="url(#paint12_linear_1903_15659)" fill-opacity="0.03"/>
<path d="M308.063 16.7875C307.635 16.8074 307.032 16.7498 306.604 16.7697C307.207 16.8274 307.635 16.8074 308.063 16.7875Z" fill="url(#paint13_linear_1903_15659)" fill-opacity="0.03"/>
<path d="M288.299 19.766C284.662 20.8788 281.025 21.9917 277.407 23.5327C273.79 25.0737 270.173 26.6146 266.576 28.5837C262.978 30.5527 259.381 32.5217 255.881 34.7436C252.381 36.9655 248.979 39.4403 245.499 42.0903C242.194 44.8179 239.065 47.6231 235.683 50.526C232.475 53.5065 229.191 56.6622 225.828 59.9931C209.521 76.4524 196.404 91.3908 187.037 102.122C177.671 112.854 172.054 119.378 172.054 119.378C172.054 119.378 173.006 117.704 174.754 114.705C176.502 111.707 179.299 107.287 183.243 101.698C190.878 90.6181 202.438 75.409 220.457 58.87C224.072 55.4415 227.708 52.4412 231.168 49.3631C234.628 46.2851 238.36 43.5376 242.015 40.9653C249.403 35.6454 257.181 31.337 264.824 27.8071C272.466 24.2772 280.226 21.4283 287.598 19.4553C291.235 18.3424 295.067 17.7353 298.647 17.2257C300.437 16.9709 302.226 16.7161 303.938 16.6365C304.113 16.7141 304.191 16.5389 304.366 16.6166C302.654 16.6961 301.04 17.0286 299.25 17.2834C295.593 17.9682 291.683 18.7506 288.299 19.766Z" fill="url(#paint14_linear_1903_15659)" fill-opacity="0.03"/>
<path d="M369.782 39.7435C368.03 38.967 366.201 38.3656 364.371 37.7643C366.551 38.5209 368.556 39.1999 370.483 40.0541L369.782 39.7435Z" fill="url(#paint15_linear_1903_15659)" fill-opacity="0.03"/>
<path d="M316.165 43.4374C313.695 43.8096 311.322 44.4347 308.598 44.9046C306.05 45.452 303.502 45.9995 300.876 46.7222C290.178 49.1072 280.084 53.4374 269.408 58.1379C252.528 65.9582 240.396 74.4158 231.123 81.6251C228.81 83.5344 226.652 85.0933 224.591 86.9051C222.609 88.5417 220.801 90.2559 219.071 91.7949C215.611 94.873 212.909 97.6584 210.791 100.073L210.538 100.171C214.95 95.4185 220.741 88.9717 229.391 81.2766C237.964 73.7567 248.947 64.5804 265.086 55.5933C275.12 49.9788 285.816 45.7064 296.845 43.0486C307.698 40.3132 318.534 39.0373 328.243 39.358C330.733 39.4138 333.146 39.6449 335.384 39.7982C337.621 39.9516 339.684 40.0273 341.766 40.5311C345.833 41.2858 349.2 41.7298 352.236 42.4467C358.054 43.9779 361.188 44.9476 361.188 44.9476C361.188 44.9476 358.25 44.4837 352.801 43.5358C350.115 42.9743 346.769 42.9582 343.15 42.6117C339.355 42.1875 335.328 42.289 330.698 42.3327C329.666 42.2948 328.382 42.3545 327.098 42.4142C325.989 42.5516 324.705 42.6113 323.597 42.7486C321.028 42.868 318.636 43.0651 316.165 43.4374Z" fill="url(#paint16_linear_1903_15659)" fill-opacity="0.03"/>
<path d="M252.289 79.2686C250.033 80.5746 248.108 81.6079 246.358 82.7189C244.608 83.8298 243.189 84.668 241.847 85.331C239.339 86.7346 238.095 87.6504 238.095 87.6504C238.095 87.6504 238.911 86.7545 240.796 84.8651C242.604 83.1508 245.403 80.6183 249.213 77.6956C256.834 71.8502 268.305 63.9381 285.79 58.063C299.637 53.3008 313.352 51.2046 325.531 51.1531C337.633 51.2769 348.277 53.2702 355.926 55.4027L356.276 55.558C352.287 54.6281 347.849 53.29 342.771 52.9256C340.358 52.6945 337.595 52.3082 334.852 52.35C332.109 52.3917 329.365 52.4334 326.447 52.3975C314.988 53.1877 302.247 55.9251 289.451 61.1532C273.698 67.3767 261.233 74.2196 252.289 79.2686Z" fill="url(#paint17_linear_1903_15659)" fill-opacity="0.03"/>
<path d="M278.276 73.5989C274.386 74.8094 271.45 76.2329 269.427 77.0133C267.404 77.7938 266.14 78.2815 266.14 78.2815C266.14 78.2815 269.017 75.5738 275.531 71.7532C281.967 68.1078 292.118 63.1743 306.688 61.0383C309.762 60.7238 312.485 60.2539 315.306 60.037C318.127 59.82 320.871 59.7783 323.536 59.9118C326.202 60.0452 328.867 60.1787 331.28 60.4097C333.771 60.4655 336.106 60.8717 338.441 61.278C340.776 61.6842 342.936 62.0128 345.018 62.5165C347.023 63.1955 349.105 63.6993 350.935 64.3006C354.671 65.3281 357.825 66.7259 360.53 67.7155L360.705 67.7931C358 66.8035 354.847 65.4057 351.208 64.6311C349.3 64.205 347.393 63.7789 345.486 63.3528C343.404 62.849 341.341 62.7733 339.181 62.4447C334.784 61.9628 330.153 62.0065 325.017 62.2453C320.056 62.5617 314.94 63.2286 309.591 64.4211C296.422 67.1783 285.783 70.8475 278.276 73.5989Z" fill="url(#paint18_linear_1903_15659)" fill-opacity="0.03"/>
<path d="M352.874 94.9257C352.62 95.0235 352.62 95.0235 352.874 94.9257V94.9257Z" fill="url(#paint19_linear_1903_15659)" fill-opacity="0.03"/>
<path d="M345.02 101.297C344.844 101.22 344.669 101.142 344.319 100.987C344.669 101.142 344.669 101.142 345.02 101.297Z" fill="url(#paint20_linear_1903_15659)" fill-opacity="0.03"/>
<path d="M253.039 89.873C248.642 89.3911 245.275 88.947 242.862 88.716C240.45 88.4849 239.068 88.2918 239.068 88.2918C239.068 88.2918 240.605 88.1345 243.251 87.8399C245.896 87.5453 249.826 87.191 254.534 86.9721C264.126 86.612 277.454 87.2793 290.26 91.4886C300.712 94.8636 307.37 99.702 313.016 103.043C315.684 105.064 318.564 106.131 320.686 107.491C321.913 108.035 322.964 108.501 324.015 108.967C324.988 109.608 325.864 109.996 326.74 110.384L326.915 110.462C326.04 110.074 325.241 109.51 324.19 109.044C323.139 108.578 322.01 108.288 320.609 107.666C319.383 107.123 318.234 106.404 316.58 105.88C315.1 105.434 313.601 104.56 312.025 103.861C305.543 100.988 297.99 97.221 287.073 94.8972C273.821 92.1672 261.659 90.7592 253.039 89.873Z" fill="url(#paint21_linear_1903_15659)" fill-opacity="0.03"/>
<path d="M272.025 105.206C254.96 103.511 239.997 102.748 229.238 101.961C218.575 101.428 212.29 100.948 212.29 100.948C212.29 100.948 214.08 100.693 217.231 100.203C220.383 99.7133 224.993 99.2416 230.81 98.8853C242.191 98.2704 258.048 97.9621 274.414 101.234C287.568 103.711 297.689 107.359 305.222 110.698C312.755 114.037 317.467 117.593 321.321 119.301L321.496 119.379C317.642 117.671 312.775 114.465 304.581 111.671C296.66 109.208 285.821 106.709 272.025 105.206Z" fill="url(#paint22_linear_1903_15659)" fill-opacity="0.03"/>
<path d="M212.24 109.101C224.905 108.426 242.746 108.369 261.33 111.366C276.197 113.763 288.107 117.156 296.749 120.358C305.644 123.462 311.465 126.881 315.707 127.714L315.882 127.791C311.465 126.881 305.586 124.066 296.206 121.585C286.825 119.104 274.449 116.762 258.766 115.26C239.386 113.587 222.283 112.924 210.239 112.197C198.195 111.47 191.132 110.855 191.132 110.855C191.132 110.855 193.097 110.677 196.676 110.168C200.528 109.989 205.82 109.399 212.24 109.101Z" fill="url(#paint23_linear_1903_15659)" fill-opacity="0.03"/>
<path d="M306.454 135.351C306.026 135.371 305.598 135.391 305.247 135.236C305.675 135.216 306.279 135.273 306.707 135.254L306.454 135.351Z" fill="url(#paint24_linear_1903_15659)" fill-opacity="0.03"/>
<path d="M303.973 144.732L303.72 144.83C303.973 144.732 304.148 144.81 304.401 144.712L303.973 144.732Z" fill="url(#paint25_linear_1903_15659)" fill-opacity="0.03"/>
<path d="M285.648 165.747C285.648 165.747 285.901 165.649 286.154 165.552C286.154 165.552 285.901 165.649 285.648 165.747Z" fill="url(#paint26_linear_1903_15659)" fill-opacity="0.03"/>
<path d="M287.009 165.512C287.437 165.492 287.768 165.219 288.021 165.122C287.593 165.142 287.262 165.415 287.009 165.512Z" fill="url(#paint27_linear_1903_15659)" fill-opacity="0.03"/>
<path d="M285.045 165.689C285.22 165.767 285.298 165.592 285.473 165.669C285.473 165.669 285.22 165.767 285.045 165.689Z" fill="url(#paint28_linear_1903_15659)" fill-opacity="0.03"/>
<path d="M288.021 165.122C288.274 165.024 288.527 164.927 288.527 164.927L288.021 165.122Z" fill="url(#paint29_linear_1903_15659)" fill-opacity="0.03"/>
<path d="M180.819 184.263C177.219 184.345 173.445 184.349 169.826 184.002C166.634 183.636 163.366 183.445 160.35 183.156C154.065 182.676 148.033 182.098 142.274 181.851C130.833 181.182 120.598 180.628 111.921 180.345C103.321 179.887 96.5302 179.602 91.8022 179.393C87.0741 179.184 84.6613 178.953 84.6613 178.953C84.6613 178.953 87.5599 178.561 92.6761 177.894C97.7924 177.227 105.224 176.538 114.29 175.945C123.356 175.352 134.154 175.108 145.925 175.504C151.762 175.576 158.047 176.056 164.254 176.711C167.445 177.077 170.636 177.444 173.827 177.81C175.462 177.906 176.766 178.274 178.4 178.37C180.034 178.465 181.669 178.561 183.303 178.657C194.394 179.171 205.016 178.848 214.803 178.994C224.414 179.062 233.169 179.17 240.991 179.492C248.813 179.815 255.603 180.1 261.44 180.172C267.277 180.244 272.433 180.433 276.673 179.378L277.101 179.358C273.036 180.491 267.88 180.301 261.888 180.58C255.545 180.703 248.522 180.944 240.896 181.127C232.938 181.583 223.853 181.748 213.853 182.556C203.834 182.936 192.725 183.881 180.819 184.263Z" fill="url(#paint30_linear_1903_15659)" fill-opacity="0.03"/>
<path d="M230.907 211.706C230.732 211.629 230.479 211.726 230.479 211.726L230.907 211.706Z" fill="url(#paint31_linear_1903_15659)" fill-opacity="0.03"/>
<path d="M222.542 212.61C225.441 212.218 227.911 211.846 230.304 211.649C228.009 212.099 225.363 212.393 222.542 212.61Z" fill="url(#paint32_linear_1903_15659)" fill-opacity="0.03"/>
<path d="M25.8526 261.051C22.6735 253.563 20.3902 246.891 18.4972 241.23C14.711 229.909 13.2639 222.769 13.2639 222.769C13.2639 222.769 17.6474 228.486 24.1171 238.481C27.352 243.478 31.0745 249.74 34.9922 256.508C36.9211 259.249 40.6597 262.164 44.8064 264.631C48.8754 267.273 53.703 269.623 58.7057 272.05C66.9393 275.7 75.2885 278.143 83.4425 280.08C87.6072 281.088 91.6743 281.843 95.819 282.422C99.7885 282.924 103.661 283.173 107.533 283.422C115.179 283.667 122.63 283.406 129.712 282.562C130.568 282.523 131.501 282.308 132.357 282.268C133.291 282.053 133.816 282.286 134.497 282.168C135.781 282.109 136.988 282.224 138.272 282.164C140.587 282.143 142.98 281.945 145.12 281.846L145.548 281.826C143.408 281.926 141.19 282.2 138.797 282.397C137.513 282.457 136.229 282.517 134.945 282.576L133.914 282.539C133.486 282.559 133.311 282.481 132.805 282.676C131.871 282.891 131.015 282.931 130.082 283.146C122.593 284.438 114.655 285.322 106.27 285.797C104.13 285.897 101.99 285.996 99.9278 285.921C97.7878 286.02 95.5502 285.867 93.3126 285.713C88.8374 285.407 84.187 285.022 79.6142 284.463C75.0415 283.903 70.3712 283.091 65.7786 282.103C61.0107 281.038 56.223 279.544 51.5129 277.876C45.7517 275.741 40.6714 273.489 36.4272 270.769C31.9302 268.147 28.1916 265.232 25.8526 261.051Z" fill="url(#paint33_linear_1903_15659)" fill-opacity="0.03"/>
<path d="M17.6662 284.254C7.06781 270.333 5.32028 254.884 4.72531 243.93C4.38315 232.877 6.02972 225.851 6.02972 225.851C6.02972 225.851 7.51462 231.96 10.7155 241.763C13.9164 251.567 18.5028 265.339 26.553 279.808C29.9053 285.487 33.7434 290.542 38.0672 294.974C42.2935 299.153 47.1807 302.787 52.1834 305.214C54.4807 306.652 57.1861 307.642 59.7163 308.553C62.2465 309.465 64.7767 310.377 67.0342 310.959C72.4829 311.907 77.1532 312.719 81.5507 313.201L81.9787 313.181C77.7563 312.777 72.5804 312.16 66.8013 311.484C64.1158 310.923 61.4303 310.361 58.5696 309.722C55.7089 309.083 52.4202 308.464 49.7924 307.299C46.9118 306.232 43.9337 304.912 40.7804 303.514C38.1327 301.921 35.3099 300.25 32.3895 298.327C26.9767 294.46 21.8745 289.893 17.6662 284.254Z" fill="url(#paint34_linear_1903_15659)" fill-opacity="0.03"/>
<path d="M-23.2231 235.105C-23.2231 235.105 -21.1747 240.415 -18.1689 249.713C-15.2606 258.759 -11.5701 271.714 -7.62476 286.46C-4.49954 298.326 -0.520264 308.266 4.62366 315.577C9.76758 322.888 16.9321 327.531 23.9973 330.034L24.3476 330.189C17.5353 327.589 8.87369 323.959 1.86243 317.078C-5.40164 310.294 -12.0067 301.078 -16.9216 289.466C-23.0847 274.995 -23.8966 261.219 -23.9262 251.354C-24.2286 241.158 -23.2231 235.105 -23.2231 235.105Z" fill="url(#paint35_linear_1903_15659)" fill-opacity="0.03"/>
<defs>
<linearGradient id="paint0_linear_1903_15659" x1="79.2551" y1="235.148" x2="226.883" y2="-31.08" gradientUnits="userSpaceOnUse">
<stop stop-color="#C4A767"/>
<stop offset="0.959324" stop-color="#C4A767" stop-opacity="0"/>
</linearGradient>
<linearGradient id="paint1_linear_1903_15659" x1="79.2551" y1="235.148" x2="226.883" y2="-31.08" gradientUnits="userSpaceOnUse">
<stop stop-color="#C4A767"/>
<stop offset="0.959324" stop-color="#C4A767" stop-opacity="0"/>
</linearGradient>
<linearGradient id="paint2_linear_1903_15659" x1="79.2551" y1="235.148" x2="226.883" y2="-31.08" gradientUnits="userSpaceOnUse">
<stop stop-color="#C4A767"/>
<stop offset="0.959324" stop-color="#C4A767" stop-opacity="0"/>
</linearGradient>
<linearGradient id="paint3_linear_1903_15659" x1="79.2551" y1="235.148" x2="226.883" y2="-31.08" gradientUnits="userSpaceOnUse">
<stop stop-color="#C4A767"/>
<stop offset="0.959324" stop-color="#C4A767" stop-opacity="0"/>
</linearGradient>
<linearGradient id="paint4_linear_1903_15659" x1="79.2551" y1="235.148" x2="226.883" y2="-31.08" gradientUnits="userSpaceOnUse">
<stop stop-color="#C4A767"/>
<stop offset="0.959324" stop-color="#C4A767" stop-opacity="0"/>
</linearGradient>
<linearGradient id="paint5_linear_1903_15659" x1="79.2551" y1="235.148" x2="226.883" y2="-31.08" gradientUnits="userSpaceOnUse">
<stop stop-color="#C4A767"/>
<stop offset="0.959324" stop-color="#C4A767" stop-opacity="0"/>
</linearGradient>
<linearGradient id="paint6_linear_1903_15659" x1="79.2551" y1="235.148" x2="226.883" y2="-31.08" gradientUnits="userSpaceOnUse">
<stop stop-color="#C4A767"/>
<stop offset="0.959324" stop-color="#C4A767" stop-opacity="0"/>
</linearGradient>
<linearGradient id="paint7_linear_1903_15659" x1="79.2551" y1="235.148" x2="226.883" y2="-31.08" gradientUnits="userSpaceOnUse">
<stop stop-color="#C4A767"/>
<stop offset="0.959324" stop-color="#C4A767" stop-opacity="0"/>
</linearGradient>
<linearGradient id="paint8_linear_1903_15659" x1="79.2551" y1="235.148" x2="226.883" y2="-31.08" gradientUnits="userSpaceOnUse">
<stop stop-color="#C4A767"/>
<stop offset="0.959324" stop-color="#C4A767" stop-opacity="0"/>
</linearGradient>
<linearGradient id="paint9_linear_1903_15659" x1="79.2551" y1="235.148" x2="226.883" y2="-31.08" gradientUnits="userSpaceOnUse">
<stop stop-color="#C4A767"/>
<stop offset="0.959324" stop-color="#C4A767" stop-opacity="0"/>
</linearGradient>
<linearGradient id="paint10_linear_1903_15659" x1="79.2551" y1="235.148" x2="226.883" y2="-31.08" gradientUnits="userSpaceOnUse">
<stop stop-color="#C4A767"/>
<stop offset="0.959324" stop-color="#C4A767" stop-opacity="0"/>
</linearGradient>
<linearGradient id="paint11_linear_1903_15659" x1="79.2551" y1="235.148" x2="226.883" y2="-31.08" gradientUnits="userSpaceOnUse">
<stop stop-color="#C4A767"/>
<stop offset="0.959324" stop-color="#C4A767" stop-opacity="0"/>
</linearGradient>
<linearGradient id="paint12_linear_1903_15659" x1="79.2551" y1="235.148" x2="226.883" y2="-31.08" gradientUnits="userSpaceOnUse">
<stop stop-color="#C4A767"/>
<stop offset="0.959324" stop-color="#C4A767" stop-opacity="0"/>
</linearGradient>
<linearGradient id="paint13_linear_1903_15659" x1="79.2551" y1="235.148" x2="226.883" y2="-31.08" gradientUnits="userSpaceOnUse">
<stop stop-color="#C4A767"/>
<stop offset="0.959324" stop-color="#C4A767" stop-opacity="0"/>
</linearGradient>
<linearGradient id="paint14_linear_1903_15659" x1="79.2551" y1="235.148" x2="226.883" y2="-31.08" gradientUnits="userSpaceOnUse">
<stop stop-color="#C4A767"/>
<stop offset="0.959324" stop-color="#C4A767" stop-opacity="0"/>
</linearGradient>
<linearGradient id="paint15_linear_1903_15659" x1="79.2551" y1="235.148" x2="226.883" y2="-31.08" gradientUnits="userSpaceOnUse">
<stop stop-color="#C4A767"/>
<stop offset="0.959324" stop-color="#C4A767" stop-opacity="0"/>
</linearGradient>
<linearGradient id="paint16_linear_1903_15659" x1="79.2551" y1="235.148" x2="226.883" y2="-31.08" gradientUnits="userSpaceOnUse">
<stop stop-color="#C4A767"/>
<stop offset="0.959324" stop-color="#C4A767" stop-opacity="0"/>
</linearGradient>
<linearGradient id="paint17_linear_1903_15659" x1="79.2551" y1="235.148" x2="226.883" y2="-31.08" gradientUnits="userSpaceOnUse">
<stop stop-color="#C4A767"/>
<stop offset="0.959324" stop-color="#C4A767" stop-opacity="0"/>
</linearGradient>
<linearGradient id="paint18_linear_1903_15659" x1="79.2551" y1="235.148" x2="226.883" y2="-31.08" gradientUnits="userSpaceOnUse">
<stop stop-color="#C4A767"/>
<stop offset="0.959324" stop-color="#C4A767" stop-opacity="0"/>
</linearGradient>
<linearGradient id="paint19_linear_1903_15659" x1="79.2551" y1="235.148" x2="226.883" y2="-31.08" gradientUnits="userSpaceOnUse">
<stop stop-color="#C4A767"/>
<stop offset="0.959324" stop-color="#C4A767" stop-opacity="0"/>
</linearGradient>
<linearGradient id="paint20_linear_1903_15659" x1="79.2551" y1="235.148" x2="226.883" y2="-31.08" gradientUnits="userSpaceOnUse">
<stop stop-color="#C4A767"/>
<stop offset="0.959324" stop-color="#C4A767" stop-opacity="0"/>
</linearGradient>
<linearGradient id="paint21_linear_1903_15659" x1="79.2551" y1="235.148" x2="226.883" y2="-31.08" gradientUnits="userSpaceOnUse">
<stop stop-color="#C4A767"/>
<stop offset="0.959324" stop-color="#C4A767" stop-opacity="0"/>
</linearGradient>
<linearGradient id="paint22_linear_1903_15659" x1="79.2551" y1="235.148" x2="226.883" y2="-31.08" gradientUnits="userSpaceOnUse">
<stop stop-color="#C4A767"/>
<stop offset="0.959324" stop-color="#C4A767" stop-opacity="0"/>
</linearGradient>
<linearGradient id="paint23_linear_1903_15659" x1="79.2551" y1="235.148" x2="226.883" y2="-31.08" gradientUnits="userSpaceOnUse">
<stop stop-color="#C4A767"/>
<stop offset="0.959324" stop-color="#C4A767" stop-opacity="0"/>
</linearGradient>
<linearGradient id="paint24_linear_1903_15659" x1="79.2551" y1="235.148" x2="226.883" y2="-31.08" gradientUnits="userSpaceOnUse">
<stop stop-color="#C4A767"/>
<stop offset="0.959324" stop-color="#C4A767" stop-opacity="0"/>
</linearGradient>
<linearGradient id="paint25_linear_1903_15659" x1="79.2551" y1="235.148" x2="226.883" y2="-31.08" gradientUnits="userSpaceOnUse">
<stop stop-color="#C4A767"/>
<stop offset="0.959324" stop-color="#C4A767" stop-opacity="0"/>
</linearGradient>
<linearGradient id="paint26_linear_1903_15659" x1="79.2551" y1="235.148" x2="226.883" y2="-31.08" gradientUnits="userSpaceOnUse">
<stop stop-color="#C4A767"/>
<stop offset="0.959324" stop-color="#C4A767" stop-opacity="0"/>
</linearGradient>
<linearGradient id="paint27_linear_1903_15659" x1="79.2551" y1="235.148" x2="226.883" y2="-31.08" gradientUnits="userSpaceOnUse">
<stop stop-color="#C4A767"/>
<stop offset="0.959324" stop-color="#C4A767" stop-opacity="0"/>
</linearGradient>
<linearGradient id="paint28_linear_1903_15659" x1="79.2551" y1="235.148" x2="226.883" y2="-31.08" gradientUnits="userSpaceOnUse">
<stop stop-color="#C4A767"/>
<stop offset="0.959324" stop-color="#C4A767" stop-opacity="0"/>
</linearGradient>
<linearGradient id="paint29_linear_1903_15659" x1="79.2551" y1="235.148" x2="226.883" y2="-31.08" gradientUnits="userSpaceOnUse">
<stop stop-color="#C4A767"/>
<stop offset="0.959324" stop-color="#C4A767" stop-opacity="0"/>
</linearGradient>
<linearGradient id="paint30_linear_1903_15659" x1="79.2551" y1="235.148" x2="226.883" y2="-31.08" gradientUnits="userSpaceOnUse">
<stop stop-color="#C4A767"/>
<stop offset="0.959324" stop-color="#C4A767" stop-opacity="0"/>
</linearGradient>
<linearGradient id="paint31_linear_1903_15659" x1="79.2551" y1="235.148" x2="226.883" y2="-31.08" gradientUnits="userSpaceOnUse">
<stop stop-color="#C4A767"/>
<stop offset="0.959324" stop-color="#C4A767" stop-opacity="0"/>
</linearGradient>
<linearGradient id="paint32_linear_1903_15659" x1="79.2551" y1="235.148" x2="226.883" y2="-31.08" gradientUnits="userSpaceOnUse">
<stop stop-color="#C4A767"/>
<stop offset="0.959324" stop-color="#C4A767" stop-opacity="0"/>
</linearGradient>
<linearGradient id="paint33_linear_1903_15659" x1="79.2551" y1="235.148" x2="226.883" y2="-31.08" gradientUnits="userSpaceOnUse">
<stop stop-color="#C4A767"/>
<stop offset="0.959324" stop-color="#C4A767" stop-opacity="0"/>
</linearGradient>
<linearGradient id="paint34_linear_1903_15659" x1="79.2551" y1="235.148" x2="226.883" y2="-31.08" gradientUnits="userSpaceOnUse">
<stop stop-color="#C4A767"/>
<stop offset="0.959324" stop-color="#C4A767" stop-opacity="0"/>
</linearGradient>
<linearGradient id="paint35_linear_1903_15659" x1="79.2551" y1="235.148" x2="226.883" y2="-31.08" gradientUnits="userSpaceOnUse">
<stop stop-color="#C4A767"/>
<stop offset="0.959324" stop-color="#C4A767" stop-opacity="0"/>
</linearGradient>
</defs>
</svg>
