<svg width="45" height="51" viewBox="0 0 45 51" fill="none" xmlns="http://www.w3.org/2000/svg">
<path d="M27.1875 22.875C27.1875 24.1182 26.6936 25.3105 25.8146 26.1896C24.9355 27.0686 23.7432 27.5625 22.5 27.5625C21.2568 27.5625 20.0645 27.0686 19.1854 26.1896C18.3064 25.3105 17.8125 24.1182 17.8125 22.875C17.8125 21.6318 18.3064 20.4395 19.1854 19.5604C20.0645 18.6814 21.2568 18.1875 22.5 18.1875C23.7432 18.1875 24.9355 18.6814 25.8146 19.5604C26.6936 20.4395 27.1875 21.6318 27.1875 22.875Z" stroke="#CB3D45" stroke-width="1.5" stroke-linecap="round" stroke-linejoin="round"/>
<path d="M24.8568 38.8012C24.2235 39.4106 23.3788 39.751 22.4999 39.751C21.6211 39.751 20.7764 39.4106 20.143 38.8012C14.3512 33.1894 6.59055 26.9212 10.3743 17.82C12.4237 12.8981 17.3362 9.75 22.4999 9.75C27.6637 9.75 32.578 12.9 34.6255 17.82C38.4055 26.9081 30.6637 33.2081 24.8568 38.8012Z" stroke="#CB3D45" stroke-width="1.5" stroke-linecap="round" stroke-linejoin="round"/>
<path d="M33.75 43.5C33.75 45.5719 28.7138 47.25 22.5 47.25C16.2863 47.25 11.25 45.5719 11.25 43.5" stroke="#CB3D45" stroke-width="1.5" stroke-linecap="round" stroke-linejoin="round"/>
</svg>
