<svg width="76" height="74" viewBox="0 0 76 74" fill="none" xmlns="http://www.w3.org/2000/svg">
<rect x="0.5" y="9" width="65" height="65" rx="32.5" fill="#161616"/>
<path d="M37.4263 35.048C37.0743 33.224 35.4423 31.048 33.4583 31.048C30.9943 31.048 29.6823 33.672 29.4583 38.888C29.4583 39.208 29.5543 39.368 29.7463 39.368C29.8423 39.368 29.9703 39.304 30.1302 39.208C31.0903 38.536 32.2743 38.184 33.5543 38.184C37.2983 38.184 39.9223 41.224 39.9223 45.576C39.9223 49.96 37.2983 53 33.5543 53C29.9383 53 27.3783 50.12 27.2183 45.992V40.968C27.2183 32.392 30.5783 30.6 33.3943 30.6C35.7623 30.6 37.7783 32.104 39.0903 34.568L37.7463 37.256L37.4263 35.048ZM33.5543 38.632C31.0903 38.632 29.4263 41.416 29.4263 45.576C29.4263 49.768 31.0903 52.552 33.5543 52.552C36.0503 52.552 37.7143 49.768 37.7143 45.576C37.7143 41.416 36.0503 38.632 33.5543 38.632Z" fill="white"/>
<path d="M75.4586 34.872C74.7647 35.4931 65.5124 28.1948 54.7567 18.5673C44.0009 8.99152 35.9052 0.658012 36.5991 0.0368814C37.293 -0.584249 46.5453 6.71404 57.301 16.3416C68.0568 25.9691 76.1525 34.2508 75.4586 34.872Z" fill="url(#paint0_radial_1080_15077)"/>
<path d="M64.6445 25.1926C63.0832 26.5901 57.9945 24.2609 53.2527 19.9647C48.5109 15.7203 45.9087 11.1654 47.4122 9.76781C48.9735 8.37027 54.0623 10.6995 58.804 14.9957C63.5458 19.2401 66.2059 23.795 64.6445 25.1926Z" fill="url(#paint1_radial_1080_15077)"/>
<path d="M75.4586 34.872C74.7647 35.4931 65.5124 28.1948 54.7567 18.5673C44.0009 8.99152 35.9052 0.658012 36.5991 0.0368814C37.293 -0.584249 46.5453 6.71404 57.301 16.3416C68.0568 25.9691 76.1525 34.2508 75.4586 34.872Z" fill="url(#paint2_radial_1080_15077)"/>
<path d="M64.6449 25.1926C62.8523 26.7971 57.5322 24.6749 52.7326 20.4306C47.9908 16.1862 45.62 11.4242 47.4126 9.76781C49.2052 8.16322 54.5253 10.2854 59.3249 14.5298C64.0666 18.7742 66.4375 23.5362 64.6449 25.1926Z" fill="url(#paint3_radial_1080_15077)"/>
<path d="M36.5412 34.8712C35.8473 34.2501 44.0008 25.9684 54.7566 16.3408C65.5123 6.7133 74.7646 -0.533227 75.4585 0.0879034C76.1524 0.709034 67.9989 8.99078 57.2431 18.6183C46.5452 28.1941 37.2929 35.4924 36.5412 34.8712Z" fill="url(#paint4_radial_1080_15077)"/>
<path d="M47.4126 25.1919C45.3886 23.3803 47.6439 18.463 52.3857 14.2186C57.1274 9.97422 62.621 7.95555 64.6449 9.76718C66.6688 11.5788 64.4136 16.4961 59.6718 20.7405C54.93 24.9849 49.4365 26.9518 47.4126 25.1919Z" fill="url(#paint5_radial_1080_15077)"/>
<path d="M47.2837 23.9746C46.8066 24.4017 40.4456 19.3841 33.051 12.7651C25.6564 6.18171 20.0905 0.452387 20.5676 0.0253562C21.0446 -0.401674 27.4056 4.61593 34.8003 11.2349C42.1949 17.8539 47.7607 23.5476 47.2837 23.9746Z" fill="url(#paint6_radial_1080_15077)"/>
<path d="M39.8491 17.3199C38.7757 18.2807 35.2771 16.6794 32.0171 13.7257C28.7571 10.8077 26.9681 7.67613 28.0018 6.71531C29.0752 5.75449 32.5737 7.35586 35.8337 10.3095C39.0937 13.2275 40.9225 16.3591 39.8491 17.3199Z" fill="url(#paint7_radial_1080_15077)"/>
<path d="M47.2837 23.9746C46.8066 24.4017 40.4456 19.3841 33.051 12.7651C25.6564 6.18171 20.0905 0.452387 20.5676 0.0253562C21.0446 -0.401674 27.4056 4.61593 34.8003 11.2349C42.1949 17.8539 47.7607 23.5476 47.2837 23.9746Z" fill="url(#paint8_radial_1080_15077)"/>
<path d="M39.8493 17.3203C38.6169 18.4235 34.9593 16.9645 31.6596 14.0464C28.3996 11.1284 26.7696 7.85448 28.002 6.71574C29.2345 5.61257 32.892 7.07159 36.1918 9.98964C39.4518 12.9077 41.0818 16.1816 39.8493 17.3203Z" fill="url(#paint9_radial_1080_15077)"/>
<path d="M20.5283 23.9744C20.0513 23.5473 25.6569 17.8536 33.0515 11.2346C40.4461 4.61567 46.8071 -0.366352 47.2842 0.0606779C47.7612 0.487708 42.1556 6.18145 34.761 12.8004C27.4061 19.3838 21.0452 24.4014 20.5283 23.9744Z" fill="url(#paint10_radial_1080_15077)"/>
<path d="M28.0025 17.32C26.611 16.0745 28.1615 12.6939 31.4215 9.77581C34.6815 6.85777 38.4583 5.46992 39.8498 6.71543C41.2412 7.96093 39.6907 11.3416 36.4307 14.2596C33.1707 17.1777 29.3939 18.5299 28.0025 17.32Z" fill="url(#paint11_radial_1080_15077)"/>
<defs>
<radialGradient id="paint0_radial_1080_15077" cx="0" cy="0" r="1" gradientUnits="userSpaceOnUse" gradientTransform="translate(56.0279 17.4701) rotate(41.8617) scale(26.1082 1.69398)">
<stop stop-color="#EEEEEE"/>
<stop offset="0.075268" stop-color="#CACACA" stop-opacity="0.9247"/>
<stop offset="0.1806" stop-color="#A0A0A0" stop-opacity="0.8194"/>
<stop offset="0.2917" stop-color="#7C7C7C" stop-opacity="0.7083"/>
<stop offset="0.4075" stop-color="#5E5E5E" stop-opacity="0.5925"/>
<stop offset="0.5295" stop-color="#474747" stop-opacity="0.4705"/>
<stop offset="0.6605" stop-color="#373737" stop-opacity="0.3395"/>
<stop offset="0.8068" stop-color="#2D2D2D" stop-opacity="0.1932"/>
<stop offset="1" stop-color="#2A2A2A" stop-opacity="0"/>
</radialGradient>
<radialGradient id="paint1_radial_1080_15077" cx="0" cy="0" r="1" gradientUnits="userSpaceOnUse" gradientTransform="translate(56.0277 17.4695) rotate(41.8319) scale(11.5466 3.72185)">
<stop stop-color="#EEEEEE"/>
<stop offset="0.075268" stop-color="#CACACA" stop-opacity="0.9247"/>
<stop offset="0.1806" stop-color="#A0A0A0" stop-opacity="0.8194"/>
<stop offset="0.2917" stop-color="#7C7C7C" stop-opacity="0.7083"/>
<stop offset="0.4075" stop-color="#5E5E5E" stop-opacity="0.5925"/>
<stop offset="0.5295" stop-color="#474747" stop-opacity="0.4705"/>
<stop offset="0.6605" stop-color="#373737" stop-opacity="0.3395"/>
<stop offset="0.8068" stop-color="#2D2D2D" stop-opacity="0.1932"/>
<stop offset="1" stop-color="#2A2A2A" stop-opacity="0"/>
</radialGradient>
<radialGradient id="paint2_radial_1080_15077" cx="0" cy="0" r="1" gradientUnits="userSpaceOnUse" gradientTransform="translate(56.0279 17.4701) rotate(41.8617) scale(26.1082 1.69398)">
<stop stop-color="#EEEEEE"/>
<stop offset="0.075268" stop-color="#CACACA" stop-opacity="0.9247"/>
<stop offset="0.1806" stop-color="#A0A0A0" stop-opacity="0.8194"/>
<stop offset="0.2917" stop-color="#7C7C7C" stop-opacity="0.7083"/>
<stop offset="0.4075" stop-color="#5E5E5E" stop-opacity="0.5925"/>
<stop offset="0.5295" stop-color="#474747" stop-opacity="0.4705"/>
<stop offset="0.6605" stop-color="#373737" stop-opacity="0.3395"/>
<stop offset="0.8068" stop-color="#2D2D2D" stop-opacity="0.1932"/>
<stop offset="1" stop-color="#2A2A2A" stop-opacity="0"/>
</radialGradient>
<radialGradient id="paint3_radial_1080_15077" cx="0" cy="0" r="1" gradientUnits="userSpaceOnUse" gradientTransform="translate(56.0281 17.4695) rotate(41.8319) scale(11.5525 4.38387)">
<stop stop-color="#EEEEEE"/>
<stop offset="0.075268" stop-color="#CACACA" stop-opacity="0.9247"/>
<stop offset="0.1806" stop-color="#A0A0A0" stop-opacity="0.8194"/>
<stop offset="0.2917" stop-color="#7C7C7C" stop-opacity="0.7083"/>
<stop offset="0.4075" stop-color="#5E5E5E" stop-opacity="0.5925"/>
<stop offset="0.5295" stop-color="#474747" stop-opacity="0.4705"/>
<stop offset="0.6605" stop-color="#373737" stop-opacity="0.3395"/>
<stop offset="0.8068" stop-color="#2D2D2D" stop-opacity="0.1932"/>
<stop offset="1" stop-color="#2A2A2A" stop-opacity="0"/>
</radialGradient>
<radialGradient id="paint4_radial_1080_15077" cx="0" cy="0" r="1" gradientUnits="userSpaceOnUse" gradientTransform="translate(56.0282 17.4686) rotate(138.198) scale(26.1117 1.69382)">
<stop stop-color="#EEEEEE"/>
<stop offset="0.075268" stop-color="#CACACA" stop-opacity="0.9247"/>
<stop offset="0.1806" stop-color="#A0A0A0" stop-opacity="0.8194"/>
<stop offset="0.2917" stop-color="#7C7C7C" stop-opacity="0.7083"/>
<stop offset="0.4075" stop-color="#5E5E5E" stop-opacity="0.5925"/>
<stop offset="0.5295" stop-color="#474747" stop-opacity="0.4705"/>
<stop offset="0.6605" stop-color="#373737" stop-opacity="0.3395"/>
<stop offset="0.8068" stop-color="#2D2D2D" stop-opacity="0.1932"/>
<stop offset="1" stop-color="#2A2A2A" stop-opacity="0"/>
</radialGradient>
<radialGradient id="paint5_radial_1080_15077" cx="0" cy="0" r="1" gradientUnits="userSpaceOnUse" gradientTransform="translate(56.0273 17.4678) rotate(138.168) scale(11.5544 4.8545)">
<stop stop-color="#EEEEEE"/>
<stop offset="0.075268" stop-color="#CACACA" stop-opacity="0.9247"/>
<stop offset="0.1806" stop-color="#A0A0A0" stop-opacity="0.8194"/>
<stop offset="0.2917" stop-color="#7C7C7C" stop-opacity="0.7083"/>
<stop offset="0.4075" stop-color="#5E5E5E" stop-opacity="0.5925"/>
<stop offset="0.5295" stop-color="#474747" stop-opacity="0.4705"/>
<stop offset="0.6605" stop-color="#373737" stop-opacity="0.3395"/>
<stop offset="0.8068" stop-color="#2D2D2D" stop-opacity="0.1932"/>
<stop offset="1" stop-color="#2A2A2A" stop-opacity="0"/>
</radialGradient>
<radialGradient id="paint6_radial_1080_15077" cx="0" cy="0" r="1" gradientUnits="userSpaceOnUse" gradientTransform="translate(33.925 12.0108) rotate(41.8617) scale(17.9495 1.16462)">
<stop stop-color="#EEEEEE"/>
<stop offset="0.075268" stop-color="#CACACA" stop-opacity="0.9247"/>
<stop offset="0.1806" stop-color="#A0A0A0" stop-opacity="0.8194"/>
<stop offset="0.2917" stop-color="#7C7C7C" stop-opacity="0.7083"/>
<stop offset="0.4075" stop-color="#5E5E5E" stop-opacity="0.5925"/>
<stop offset="0.5295" stop-color="#474747" stop-opacity="0.4705"/>
<stop offset="0.6605" stop-color="#373737" stop-opacity="0.3395"/>
<stop offset="0.8068" stop-color="#2D2D2D" stop-opacity="0.1932"/>
<stop offset="1" stop-color="#2A2A2A" stop-opacity="0"/>
</radialGradient>
<radialGradient id="paint7_radial_1080_15077" cx="0" cy="0" r="1" gradientUnits="userSpaceOnUse" gradientTransform="translate(33.925 12.0103) rotate(41.8319) scale(7.93832 2.55879)">
<stop stop-color="#EEEEEE"/>
<stop offset="0.075268" stop-color="#CACACA" stop-opacity="0.9247"/>
<stop offset="0.1806" stop-color="#A0A0A0" stop-opacity="0.8194"/>
<stop offset="0.2917" stop-color="#7C7C7C" stop-opacity="0.7083"/>
<stop offset="0.4075" stop-color="#5E5E5E" stop-opacity="0.5925"/>
<stop offset="0.5295" stop-color="#474747" stop-opacity="0.4705"/>
<stop offset="0.6605" stop-color="#373737" stop-opacity="0.3395"/>
<stop offset="0.8068" stop-color="#2D2D2D" stop-opacity="0.1932"/>
<stop offset="1" stop-color="#2A2A2A" stop-opacity="0"/>
</radialGradient>
<radialGradient id="paint8_radial_1080_15077" cx="0" cy="0" r="1" gradientUnits="userSpaceOnUse" gradientTransform="translate(33.925 12.0108) rotate(41.8617) scale(17.9495 1.16462)">
<stop stop-color="#EEEEEE"/>
<stop offset="0.075268" stop-color="#CACACA" stop-opacity="0.9247"/>
<stop offset="0.1806" stop-color="#A0A0A0" stop-opacity="0.8194"/>
<stop offset="0.2917" stop-color="#7C7C7C" stop-opacity="0.7083"/>
<stop offset="0.4075" stop-color="#5E5E5E" stop-opacity="0.5925"/>
<stop offset="0.5295" stop-color="#474747" stop-opacity="0.4705"/>
<stop offset="0.6605" stop-color="#373737" stop-opacity="0.3395"/>
<stop offset="0.8068" stop-color="#2D2D2D" stop-opacity="0.1932"/>
<stop offset="1" stop-color="#2A2A2A" stop-opacity="0"/>
</radialGradient>
<radialGradient id="paint9_radial_1080_15077" cx="0" cy="0" r="1" gradientUnits="userSpaceOnUse" gradientTransform="translate(33.9253 12.0107) rotate(41.8319) scale(7.94241 3.01393)">
<stop stop-color="#EEEEEE"/>
<stop offset="0.075268" stop-color="#CACACA" stop-opacity="0.9247"/>
<stop offset="0.1806" stop-color="#A0A0A0" stop-opacity="0.8194"/>
<stop offset="0.2917" stop-color="#7C7C7C" stop-opacity="0.7083"/>
<stop offset="0.4075" stop-color="#5E5E5E" stop-opacity="0.5925"/>
<stop offset="0.5295" stop-color="#474747" stop-opacity="0.4705"/>
<stop offset="0.6605" stop-color="#373737" stop-opacity="0.3395"/>
<stop offset="0.8068" stop-color="#2D2D2D" stop-opacity="0.1932"/>
<stop offset="1" stop-color="#2A2A2A" stop-opacity="0"/>
</radialGradient>
<radialGradient id="paint10_radial_1080_15077" cx="0" cy="0" r="1" gradientUnits="userSpaceOnUse" gradientTransform="translate(33.9257 12.01) rotate(138.198) scale(17.952 1.16451)">
<stop stop-color="#EEEEEE"/>
<stop offset="0.075268" stop-color="#CACACA" stop-opacity="0.9247"/>
<stop offset="0.1806" stop-color="#A0A0A0" stop-opacity="0.8194"/>
<stop offset="0.2917" stop-color="#7C7C7C" stop-opacity="0.7083"/>
<stop offset="0.4075" stop-color="#5E5E5E" stop-opacity="0.5925"/>
<stop offset="0.5295" stop-color="#474747" stop-opacity="0.4705"/>
<stop offset="0.6605" stop-color="#373737" stop-opacity="0.3395"/>
<stop offset="0.8068" stop-color="#2D2D2D" stop-opacity="0.1932"/>
<stop offset="1" stop-color="#2A2A2A" stop-opacity="0"/>
</radialGradient>
<radialGradient id="paint11_radial_1080_15077" cx="0" cy="0" r="1" gradientUnits="userSpaceOnUse" gradientTransform="translate(33.9251 12.0096) rotate(138.168) scale(7.94369 3.33749)">
<stop stop-color="#EEEEEE"/>
<stop offset="0.075268" stop-color="#CACACA" stop-opacity="0.9247"/>
<stop offset="0.1806" stop-color="#A0A0A0" stop-opacity="0.8194"/>
<stop offset="0.2917" stop-color="#7C7C7C" stop-opacity="0.7083"/>
<stop offset="0.4075" stop-color="#5E5E5E" stop-opacity="0.5925"/>
<stop offset="0.5295" stop-color="#474747" stop-opacity="0.4705"/>
<stop offset="0.6605" stop-color="#373737" stop-opacity="0.3395"/>
<stop offset="0.8068" stop-color="#2D2D2D" stop-opacity="0.1932"/>
<stop offset="1" stop-color="#2A2A2A" stop-opacity="0"/>
</radialGradient>
</defs>
</svg>
