<svg width="77" height="65" viewBox="0 0 77 65" fill="none" xmlns="http://www.w3.org/2000/svg">
<g filter="url(#filter0_d_3324_24882)">
<path d="M4.60199 48.1989C3.11811 50.1765 4.52917 52.9994 7.0016 52.9994H61.9346C63.5914 52.9994 64.9346 51.6563 64.9346 49.9994V6.66797C64.9346 5.01112 63.5914 3.66797 61.9346 3.66797H7.00159C4.52916 3.66797 3.1181 6.49085 4.60198 8.46848L18.1565 26.5332C18.957 27.6001 18.957 29.0673 18.1565 30.1342L4.60199 48.1989Z" fill="#232323"/>
<path d="M4.60199 48.1989C3.11811 50.1765 4.52917 52.9994 7.0016 52.9994H61.9346C63.5914 52.9994 64.9346 51.6563 64.9346 49.9994V6.66797C64.9346 5.01112 63.5914 3.66797 61.9346 3.66797H7.00159C4.52916 3.66797 3.1181 6.49085 4.60198 8.46848L18.1565 26.5332C18.957 27.6001 18.957 29.0673 18.1565 30.1342L4.60199 48.1989Z" fill="black" fill-opacity="0.2"/>
</g>
<path d="M38.7539 35.3303L64.9328 52.9992V11.5596L38.7539 35.3303Z" fill="#232323"/>
<path d="M38.7539 35.3303L64.9328 52.9992V11.5596L38.7539 35.3303Z" fill="black" fill-opacity="0.5"/>
<defs>
<filter id="filter0_d_3324_24882" x="0.496094" y="0.167969" width="75.9385" height="64.3311" filterUnits="userSpaceOnUse" color-interpolation-filters="sRGB">
<feFlood flood-opacity="0" result="BackgroundImageFix"/>
<feColorMatrix in="SourceAlpha" type="matrix" values="0 0 0 0 0 0 0 0 0 0 0 0 0 0 0 0 0 0 127 0" result="hardAlpha"/>
<feOffset dx="4" dy="4"/>
<feGaussianBlur stdDeviation="3.75"/>
<feComposite in2="hardAlpha" operator="out"/>
<feColorMatrix type="matrix" values="0 0 0 0 0 0 0 0 0 0 0 0 0 0 0 0 0 0 0.4 0"/>
<feBlend mode="normal" in2="BackgroundImageFix" result="effect1_dropShadow_3324_24882"/>
<feBlend mode="normal" in="SourceGraphic" in2="effect1_dropShadow_3324_24882" result="shape"/>
</filter>
</defs>
</svg>
