<svg width="64" height="38" viewBox="0 0 64 38" fill="none" xmlns="http://www.w3.org/2000/svg">
<path d="M39.9492 34.1886H24.1992V4.12695H39.9492V34.1886Z" fill="#FF5F00"/>
<path d="M24.5641 19C24.5641 12.9441 27.4719 7.54959 32 4.07318C28.6887 1.53105 24.5097 0.0137405 19.9679 0.0137405C9.21582 0.0137405 0.5 8.51406 0.5 19C0.5 29.486 9.21582 37.9863 19.9679 37.9863C24.5097 37.9863 28.6887 36.469 32 33.9269C27.4719 30.4505 24.5641 25.056 24.5641 19Z" fill="#EB001B"/>
<path d="M63.3271 19C63.3271 29.486 54.6117 37.9863 43.86 37.9863C39.3184 37.9863 35.1395 36.469 31.8271 33.9269C36.3563 30.4505 39.264 25.056 39.264 19C39.264 12.9441 36.3563 7.54959 31.8271 4.07318C35.1395 1.53105 39.3184 0.0137405 43.86 0.0137405C54.6117 0.0137405 63.3271 8.51406 63.3271 19Z" fill="#F79E1B"/>
</svg>
