<svg width="36" height="56" viewBox="0 0 36 56" fill="none" xmlns="http://www.w3.org/2000/svg">
<path d="M3.61914 32.6944C3.61914 32.6944 3.8759 30.6009 5.65811 29.5842C7.44032 28.5676 30.5939 15.1858 30.5939 15.1858V7H22.3852C22.3852 7 7.75749 15.4343 5.40135 16.9554C3.61914 18.0323 3.61914 20.3819 3.61914 20.3819V32.6868V32.6944Z" fill="#3D3896"/>
<path d="M14.877 24.2731L23.8484 29.5294C23.8484 29.5294 27.4128 27.4961 28.8099 26.6151C30.207 25.734 30.5921 23.4447 30.5921 23.4447V22.1795C30.5921 20.9144 29.2554 19.8677 29.2554 19.8677L26.0686 17.8193L14.877 24.2881V24.2731Z" fill="#5D5ABD"/>
<path d="M14.8802 34.6018V24.2773C14.8802 24.2773 7.25298 28.7731 5.65957 29.5939C4.06615 30.4148 3.6206 32.7041 3.6206 32.7041C3.6206 32.7041 3.56019 32.9601 3.6206 34.0972C3.68101 35.2344 4.76846 36.635 5.27443 36.9513C5.7804 37.2676 8.07612 38.6005 8.07612 38.6005L14.8802 34.6018Z" fill="#5D5ABD"/>
<path d="M30.5864 23.6641C30.5864 23.6641 30.3296 25.7576 28.5474 26.7742C26.7652 27.7908 3.61914 41.1652 3.61914 41.1652V49.3509H11.8279C11.8279 49.3509 26.4556 40.9167 28.8117 39.3955C30.5939 38.3186 30.5939 35.9691 30.5939 35.9691V23.6641H30.5864Z" fill="#3D3896"/>
</svg>
