<svg width="43" height="44" viewBox="0 0 43 44" fill="none" xmlns="http://www.w3.org/2000/svg">
<g clip-path="url(#clip0_1048_15313)">
<path d="M14.2303 8.60059C13.9337 8.60083 13.6468 8.70635 13.4214 8.89818C13.1959 9.09002 13.0465 9.35559 13.0001 9.64719L10.9561 22.5494C11.0514 21.9468 11.5731 21.5028 12.1862 21.5028H18.176C24.2043 21.5028 29.3195 17.1262 30.2542 11.1953C30.3237 10.7525 30.3632 10.3055 30.3721 9.85747C28.8402 9.05803 27.0406 8.60059 25.0687 8.60059H14.2303Z" fill="#001C64"/>
<path d="M30.3721 9.85742C30.3631 10.3055 30.3237 10.7525 30.2541 11.1953C29.3195 17.1262 24.2038 21.5027 18.176 21.5027H12.1862C11.5735 21.5027 11.0513 21.9463 10.956 22.5493L9.07653 34.4054L7.89928 41.8432C7.87631 41.9869 7.88491 42.1338 7.92454 42.2739C7.96417 42.414 8.03388 42.5438 8.12883 42.6545C8.22377 42.7651 8.3417 42.8539 8.47449 42.9148C8.60729 42.9757 8.75177 43.0072 8.89798 43.0071H15.3994C15.696 43.0069 15.9828 42.9014 16.2083 42.7095C16.4338 42.5177 16.5832 42.2521 16.6295 41.9605L18.342 31.1511C18.3884 30.8593 18.5379 30.5936 18.7636 30.4018C18.9893 30.2099 19.2764 30.1045 19.5732 30.1045H23.401C29.4292 30.1045 34.5445 25.7279 35.4791 19.797C36.1428 15.5876 34.0126 11.7571 30.3721 9.85742Z" fill="#0070E0"/>
<path d="M6.84453 0C6.23183 0 5.70964 0.443549 5.61434 1.04564L0.512556 33.2417C0.415815 33.8529 0.890388 34.4056 1.51223 34.4056H9.07776L10.9563 22.5496L13.0003 9.64741C13.0467 9.35582 13.1961 9.09025 13.4216 8.89841C13.6471 8.70658 13.9339 8.60106 14.2305 8.60081H25.0689C27.0413 8.60081 28.8404 9.05873 30.3724 9.85769C30.4773 4.458 26.0002 0 19.8449 0H6.84453Z" fill="#003087"/>
</g>
<defs>
<clipPath id="clip0_1048_15313">
<rect width="42" height="44" fill="white" transform="translate(0.5)"/>
</clipPath>
</defs>
</svg>
