<svg width="40" height="36" viewBox="0 0 40 36" fill="none" xmlns="http://www.w3.org/2000/svg">
<path d="M39.7114 35.4519C39.0175 36.0731 29.7653 28.7748 19.0095 19.1473C8.25381 9.57157 0.158101 1.23809 0.852019 0.616959C1.54594 -0.00416958 10.7982 7.2941 21.5539 16.9216C32.3096 26.5491 40.4053 34.8308 39.7114 35.4519Z" fill="url(#paint0_radial_3324_24898)"/>
<path d="M28.8974 25.7726C27.3361 27.1701 22.2474 24.8409 17.5056 20.5448C12.7638 16.3004 10.1616 11.7454 11.6651 10.3479C13.2264 8.95035 18.3152 11.2796 23.0569 15.5757C27.7987 19.8201 30.4587 24.375 28.8974 25.7726Z" fill="url(#paint1_radial_3324_24898)"/>
<path d="M39.7114 35.4519C39.0175 36.0731 29.7653 28.7748 19.0095 19.1473C8.25381 9.57157 0.158101 1.23809 0.852019 0.616959C1.54594 -0.00416958 10.7982 7.2941 21.5539 16.9216C32.3096 26.5491 40.4053 34.8308 39.7114 35.4519Z" fill="url(#paint2_radial_3324_24898)"/>
<path d="M28.8978 25.7726C27.1052 27.3772 21.7851 25.255 16.9855 21.0106C12.2438 16.7662 9.87289 12.0042 11.6655 10.3479C13.4581 8.7433 18.7782 10.8655 23.5778 15.1099C28.3195 19.3543 30.6904 24.1162 28.8978 25.7726Z" fill="url(#paint3_radial_3324_24898)"/>
<path d="M0.79511 35.4512C0.101192 34.8301 8.25472 26.5484 19.0104 16.9209C29.7662 7.29336 39.0184 0.0468524 39.7123 0.667981C40.4062 1.28911 32.2527 9.57083 21.497 19.1983C10.7991 28.7741 1.54685 36.0723 0.79511 35.4512Z" fill="url(#paint4_radial_3324_24898)"/>
<path d="M11.6674 25.772C9.64352 23.9603 11.8987 19.0431 16.6405 14.7987C21.3823 10.5543 26.8758 8.53563 28.8997 10.3473C30.9237 12.1589 28.6684 17.0762 23.9267 21.3205C19.1849 25.5649 13.6914 27.5318 11.6674 25.772Z" fill="url(#paint5_radial_3324_24898)"/>
<defs>
<radialGradient id="paint0_radial_3324_24898" cx="0" cy="0" r="1" gradientUnits="userSpaceOnUse" gradientTransform="translate(20.2808 18.0501) rotate(41.8617) scale(26.1081 1.69398)">
<stop stop-color="#EEEEEE"/>
<stop offset="0.075268" stop-color="#CACACA" stop-opacity="0.9247"/>
<stop offset="0.1806" stop-color="#A0A0A0" stop-opacity="0.8194"/>
<stop offset="0.2917" stop-color="#7C7C7C" stop-opacity="0.7083"/>
<stop offset="0.4075" stop-color="#5E5E5E" stop-opacity="0.5925"/>
<stop offset="0.5295" stop-color="#474747" stop-opacity="0.4705"/>
<stop offset="0.6605" stop-color="#373737" stop-opacity="0.3395"/>
<stop offset="0.8068" stop-color="#2D2D2D" stop-opacity="0.1932"/>
<stop offset="1" stop-color="#2A2A2A" stop-opacity="0"/>
</radialGradient>
<radialGradient id="paint1_radial_3324_24898" cx="0" cy="0" r="1" gradientUnits="userSpaceOnUse" gradientTransform="translate(20.2806 18.0496) rotate(41.8319) scale(11.5465 3.72184)">
<stop stop-color="#EEEEEE"/>
<stop offset="0.075268" stop-color="#CACACA" stop-opacity="0.9247"/>
<stop offset="0.1806" stop-color="#A0A0A0" stop-opacity="0.8194"/>
<stop offset="0.2917" stop-color="#7C7C7C" stop-opacity="0.7083"/>
<stop offset="0.4075" stop-color="#5E5E5E" stop-opacity="0.5925"/>
<stop offset="0.5295" stop-color="#474747" stop-opacity="0.4705"/>
<stop offset="0.6605" stop-color="#373737" stop-opacity="0.3395"/>
<stop offset="0.8068" stop-color="#2D2D2D" stop-opacity="0.1932"/>
<stop offset="1" stop-color="#2A2A2A" stop-opacity="0"/>
</radialGradient>
<radialGradient id="paint2_radial_3324_24898" cx="0" cy="0" r="1" gradientUnits="userSpaceOnUse" gradientTransform="translate(20.2808 18.0501) rotate(41.8617) scale(26.1081 1.69398)">
<stop stop-color="#EEEEEE"/>
<stop offset="0.075268" stop-color="#CACACA" stop-opacity="0.9247"/>
<stop offset="0.1806" stop-color="#A0A0A0" stop-opacity="0.8194"/>
<stop offset="0.2917" stop-color="#7C7C7C" stop-opacity="0.7083"/>
<stop offset="0.4075" stop-color="#5E5E5E" stop-opacity="0.5925"/>
<stop offset="0.5295" stop-color="#474747" stop-opacity="0.4705"/>
<stop offset="0.6605" stop-color="#373737" stop-opacity="0.3395"/>
<stop offset="0.8068" stop-color="#2D2D2D" stop-opacity="0.1932"/>
<stop offset="1" stop-color="#2A2A2A" stop-opacity="0"/>
</radialGradient>
<radialGradient id="paint3_radial_3324_24898" cx="0" cy="0" r="1" gradientUnits="userSpaceOnUse" gradientTransform="translate(20.281 18.0496) rotate(41.8319) scale(11.5525 4.38386)">
<stop stop-color="#EEEEEE"/>
<stop offset="0.075268" stop-color="#CACACA" stop-opacity="0.9247"/>
<stop offset="0.1806" stop-color="#A0A0A0" stop-opacity="0.8194"/>
<stop offset="0.2917" stop-color="#7C7C7C" stop-opacity="0.7083"/>
<stop offset="0.4075" stop-color="#5E5E5E" stop-opacity="0.5925"/>
<stop offset="0.5295" stop-color="#474747" stop-opacity="0.4705"/>
<stop offset="0.6605" stop-color="#373737" stop-opacity="0.3395"/>
<stop offset="0.8068" stop-color="#2D2D2D" stop-opacity="0.1932"/>
<stop offset="1" stop-color="#2A2A2A" stop-opacity="0"/>
</radialGradient>
<radialGradient id="paint4_radial_3324_24898" cx="0" cy="0" r="1" gradientUnits="userSpaceOnUse" gradientTransform="translate(20.282 18.0486) rotate(138.198) scale(26.1117 1.69381)">
<stop stop-color="#EEEEEE"/>
<stop offset="0.075268" stop-color="#CACACA" stop-opacity="0.9247"/>
<stop offset="0.1806" stop-color="#A0A0A0" stop-opacity="0.8194"/>
<stop offset="0.2917" stop-color="#7C7C7C" stop-opacity="0.7083"/>
<stop offset="0.4075" stop-color="#5E5E5E" stop-opacity="0.5925"/>
<stop offset="0.5295" stop-color="#474747" stop-opacity="0.4705"/>
<stop offset="0.6605" stop-color="#373737" stop-opacity="0.3395"/>
<stop offset="0.8068" stop-color="#2D2D2D" stop-opacity="0.1932"/>
<stop offset="1" stop-color="#2A2A2A" stop-opacity="0"/>
</radialGradient>
<radialGradient id="paint5_radial_3324_24898" cx="0" cy="0" r="1" gradientUnits="userSpaceOnUse" gradientTransform="translate(20.2822 18.0478) rotate(138.168) scale(11.5543 4.85448)">
<stop stop-color="#EEEEEE"/>
<stop offset="0.075268" stop-color="#CACACA" stop-opacity="0.9247"/>
<stop offset="0.1806" stop-color="#A0A0A0" stop-opacity="0.8194"/>
<stop offset="0.2917" stop-color="#7C7C7C" stop-opacity="0.7083"/>
<stop offset="0.4075" stop-color="#5E5E5E" stop-opacity="0.5925"/>
<stop offset="0.5295" stop-color="#474747" stop-opacity="0.4705"/>
<stop offset="0.6605" stop-color="#373737" stop-opacity="0.3395"/>
<stop offset="0.8068" stop-color="#2D2D2D" stop-opacity="0.1932"/>
<stop offset="1" stop-color="#2A2A2A" stop-opacity="0"/>
</radialGradient>
</defs>
</svg>
