<svg width="29" height="25" viewBox="0 0 29 25" fill="none" xmlns="http://www.w3.org/2000/svg">
<path d="M13.0254 12.7822H4.02539M4.02539 12.7822L7.35839 8.78223M4.02539 12.7822L7.35839 16.7822" stroke="#C4A767" stroke-width="1.5" stroke-linecap="round" stroke-linejoin="round"/>
<path d="M10.0254 7.78196V5.95596C10.0254 5.67933 10.0828 5.40571 10.194 5.1524C10.3051 4.89909 10.4676 4.67159 10.6712 4.48429C10.8747 4.29698 11.1149 4.15394 11.3766 4.06421C11.6383 3.97447 11.9157 3.94 12.1914 3.96296L20.1914 4.62896C20.6913 4.6706 21.1574 4.8986 21.4971 5.26777C21.8368 5.63693 22.0254 6.12028 22.0254 6.62196V18.942C22.0254 19.4436 21.8368 19.927 21.4971 20.2961C21.1574 20.6653 20.6913 20.8933 20.1914 20.935L12.1914 21.602C11.9156 21.6249 11.6381 21.5904 11.3764 21.5006C11.1146 21.4108 10.8744 21.2677 10.6708 21.0803C10.4672 20.8929 10.3048 20.6653 10.1937 20.4118C10.0826 20.1584 10.0253 19.8847 10.0254 19.608V17.782" stroke="#C4A767" stroke-width="1.5" stroke-linecap="round" stroke-linejoin="round"/>
</svg>
