<svg width="20" height="20" viewBox="0 0 20 20" fill="none" xmlns="http://www.w3.org/2000/svg">
<path d="M9.0482 3.92731C9.34755 3.006 10.651 3.006 10.9503 3.92731L12.0199 7.21911C12.1538 7.63113 12.5377 7.91009 12.9709 7.91009H16.4321C17.4009 7.91009 17.8036 9.14971 17.0199 9.71911L14.2198 11.7536C13.8693 12.0082 13.7226 12.4596 13.8565 12.8716L14.926 16.1634C15.2254 17.0847 14.1709 17.8508 13.3872 17.2814L10.587 15.247C10.2366 14.9923 9.76195 14.9923 9.41147 15.247L6.6113 17.2814C5.82758 17.8508 4.7731 17.0847 5.07246 16.1634L6.14202 12.8716C6.2759 12.4596 6.12924 12.0082 5.77875 11.7536L2.97858 9.71911C2.19487 9.14971 2.59765 7.91009 3.56637 7.91009H7.02757C7.4608 7.91009 7.84475 7.63113 7.97863 7.21911L9.0482 3.92731Z" fill="url(#paint0_radial_1279_17775)"/>
<defs>
<radialGradient id="paint0_radial_1279_17775" cx="0" cy="0" r="1" gradientUnits="userSpaceOnUse" gradientTransform="translate(4.96575 3.90806) rotate(48.7153) scale(18.0572 8.68219)">
<stop stop-color="#EEDEBA"/>
<stop offset="1" stop-color="#C4A767"/>
</radialGradient>
</defs>
</svg>
