<svg id="eqbeNudkPYl1" xmlns="http://www.w3.org/2000/svg" xmlns:xlink="http://www.w3.org/1999/xlink" viewBox="0 0 568 568" shape-rendering="geometricPrecision" text-rendering="geometricPrecision" style="background-color:transparent">
<style><![CDATA[
#eqbeNudkPYl2_to {animation: eqbeNudkPYl2_to__to 2402ms linear infinite normal forwards}@keyframes eqbeNudkPYl2_to__to { 0% {transform: translate(183.49px,309.99px)} 49.958368% {transform: translate(168.22px,319.78px)} 99.916736% {transform: translate(183.49px,309.99px)} 100% {transform: translate(183.49px,309.99px)}} #eqbeNudkPYl2_tr {animation: eqbeNudkPYl2_tr__tr 2402ms linear infinite normal forwards}@keyframes eqbeNudkPYl2_tr__tr { 0% {transform: rotate(0deg)} 49.958368% {transform: rotate(-6.34deg)} 99.916736% {transform: rotate(0deg)} 100% {transform: rotate(0deg)}} #eqbeNudkPYl48_to {animation: eqbeNudkPYl48_to__to 2402ms linear infinite normal forwards}@keyframes eqbeNudkPYl48_to__to { 0% {transform: translate(319.75px,287.13px)} 49.958368% {transform: translate(344.18px,297.32px)} 99.916736% {transform: translate(319.75px,287.13px)} 100% {transform: translate(319.75px,287.13px)}} #eqbeNudkPYl48_tr {animation: eqbeNudkPYl48_tr__tr 2402ms linear infinite normal forwards}@keyframes eqbeNudkPYl48_tr__tr { 0% {transform: rotate(0deg)} 49.958368% {transform: rotate(8.51deg)} 99.916736% {transform: rotate(0deg)} 100% {transform: rotate(0deg)}}
]]></style>
<g id="eqbeNudkPYl2_to" transform="translate(183.49,309.99)"><g id="eqbeNudkPYl2_tr" transform="rotate(0)"><g transform="translate(-93.24,-147.99)"><path d="M129.7,256.66c0,0-3.24,1.73-8.41,4.87-5.19,3.12-12.23,7.76-20.23,13.23-6.43,4.42-12.41,7.45-17.89,8.84-5.5,1.41-10.83.65-15.25-1.09c0,0-.2-.05-.2-.05c4.35,1.59,10.03,3.39,16.23,3.05c6.31-.29,13.25-1.99,20.51-5.46c8.97-4.31,15.02-10.66,19.14-15.33c4.09-4.74,6.1-8.06,6.1-8.06s0,0,0,0Z" fill="#c4a767" fill-opacity="0.3" stroke-width="0"/><path d="M89.78,263.29c10.86-2.25,18.1-8.91,22.89-13.94c4.73-5.21,6.89-9.16,6.89-9.16s-3.29,2.27-8.87,5.72c-5.64,3.35-13.49,8.03-23.4,11.59-4.01,1.36-7.94,2.19-11.76,2.45-3.8.26-7.57-.05-10.97-.98-1.66-.22-3.36-.91-4.96-1.54-1.62-.65-3.13-1.27-4.56-1.85-2.97-1.75-5.61-3.42-7.89-5c0,0-.22-.14-.22-.14c2.25,1.55,4.89,3.37,7.97,5.49c1.48.8,3.06,1.64,4.73,2.54c1.66.86,3.46,1.91,5.22,2.43c1.85.64,3.82,1.28,5.86,1.91c1.96.35,4,.69,6.13,1.02c4.17.41,8.52.29,12.93-.57c0,0,.01.03.01.03s0,0,0,0Z" fill="#c4a767" fill-opacity="0.3" stroke-width="0"/><path d="M95.42,248.73c4.64-2.26,8.48-4.54,11.73-6.48c6.47-3.92,10.22-6.67,10.22-6.67s-4.49.85-11.73,2.96c-3.61,1.03-7.95,2.48-12.68,4.18-2.08.57-5.02.32-8.03-.19-3.04-.45-6.32-1.29-9.75-2.26-5.42-1.71-10.45-3.9-15.21-6.42-2.38-1.26-4.66-2.62-6.86-4.03-2.15-1.41-4.11-2.88-6.03-4.42-3.81-3.05-7.25-6.32-10.27-9.62-.38-.42-.74-.82-1.11-1.24-.39-.47-.65-.57-.97-.88-.62-.51-1.2-1.03-1.77-1.53-1.13-1.02-2.17-2.01-3.09-2.99c0,0-.18-.17-.18-.17.92.96,1.95,1.97,3.06,3.04.57.53,1.14,1.08,1.74,1.63c0,0,.45.42.45.42.15.13.31.26.5.53.37.44.73.91,1.11,1.37c3.02,3.65,6.44,7.43,10.29,11.11.96.92,1.95,1.83,2.96,2.73c1.03.91,2.16,1.8,3.28,2.68c2.25,1.76,4.62,3.48,7.07,5.11s4.98,3.17,7.61,4.61c2.74,1.43,5.61,2.75,8.52,3.92c3.6,1.39,7.01,2.4,10.19,2.89c3.16.52,6.17.71,8.95-.33c0,0,0,.05,0,.05s0,0,0,0Z" fill="#c4a767" fill-opacity="0.3" stroke-width="0"/><path d="M21.33,144.01c-1.2-1.37-2.3-2.64-3.35-3.73c1,1.17,2.12,2.42,3.35,3.73c0,0,0,0,0,0Z" fill="#c4a767" fill-opacity="0.3" stroke-width="0"/><path d="M17.75,140.03c.07.08.15.17.23.25-.01-.02-.03-.04-.04-.05c0,0-.18-.2-.18-.2s-.01,0-.01,0s0,0,0,0Z" fill="#c4a767" fill-opacity="0.3" stroke-width="0"/><path d="M53.05,147.66c1.72,1.58,3.52,3.04,5.37,4.37c1.68,1.21,3.31,2.39,4.91,3.55c3.2,2.33,6.28,4.6,9.17,6.81c5.8,4.49,10.93,8.42,15.18,11.81c4.28,3.36,7.68,6.01,10,7.83c2.35,1.81,3.63,2.77,3.63,2.77s-1.19-1.39-3.38-3.79c-2.18-2.41-5.43-5.83-9.54-9.86-4.13-4.06-9.18-8.6-15-13.34-2.88-2.41-6.03-4.71-9.33-6.99-1.63-1.14-3.34-2.27-5.07-3.41-.81-.56-1.55-1-2.38-1.62-.83-.64-1.62-1.26-2.49-1.93-5.48-4.4-10.52-8.92-15.2-12.84-4.64-3.98-8.91-7.49-12.7-10.65-3.83-3.09-7.2-5.81-10.1-8.22-2.88-2.41-5.4-4.42-6.93-6.68c0,0-.16-.19-.16-.19c1.5,2.25,3.99,4.32,6.77,6.92c2.95,2.7,6.22,5.67,9.82,8.97c3.66,3.52,7.84,7.4,12.37,11.9c4.58,4.42,9.5,9.42,15.05,14.58c0,0,.01.01.01.01s0,0,0,0Z" fill="#c4a767" fill-opacity="0.3" stroke-width="0"/><path d="M9.58,93.93c.02.05.07.11.1.16-.06-.12-.15-.24-.19-.36c0,0,.09.2.09.2s0,0,0,0Z" fill="#c4a767" fill-opacity="0.3" stroke-width="0"/><path d="M10.77,95.6c-.07-.08-.14-.15-.21-.23.07.08.13.15.21.23c0,0,0,0,0,0Z" fill="#c4a767" fill-opacity="0.3" stroke-width="0"/><path d="M10.02,94.68c-.13-.2-.24-.4-.33-.6.1.2.2.41.33.6c0,0,0,0,0,0Z" fill="#c4a767" fill-opacity="0.3" stroke-width="0"/><path d="M10.5,95.29c0,0,.05.05.07.08-.1-.12-.19-.24-.28-.36.07.1.13.19.22.28c0,0-.01,0-.01,0s0,0,0,0Z" fill="#c4a767" fill-opacity="0.3" stroke-width="0"/><path d="M10.28,95.01c-.09-.11-.19-.21-.27-.33.08.11.18.22.27.33c0,0,0,0,0,0Z" fill="#c4a767" fill-opacity="0.3" stroke-width="0"/><path d="M9.36,83.33c-.04-.05-.1-.1-.14-.15c0,0,.13.14.13.14s.01.01.01.01s0,0,0,0Z" fill="#c4a767" fill-opacity="0.3" stroke-width="0"/><path d="M11.35,78.84c-.28-.31-.52-.61-.73-.92.22.31.46.61.73.92c0,0,0,0,0,0Z" fill="#c4a767" fill-opacity="0.3" stroke-width="0"/><path d="M11.4,78.89c0,0-.03-.04-.05-.05.02.02.03.04.05.05c0,0,0,0,0,0Z" fill="#c4a767" fill-opacity="0.3" stroke-width="0"/><path d="M10.47,77.75c.04.06.11.12.15.18-.07-.1-.18-.21-.25-.31c0,0,.1.14.1.14s0-.01,0-.01s0,0,0,0Z" fill="#c4a767" fill-opacity="0.3" stroke-width="0"/><path d="M13.22,72.14c.18.16.38.33.59.49-.24-.2-.5-.39-.7-.58c0,0,.11.09.11.09s0,0,0,0Z" fill="#c4a767" fill-opacity="0.3" stroke-width="0"/><path d="M14.81,73.34c0,0-.06-.03-.1-.06.03.02.06.03.1.06c0,0,0,0,0,0Z" fill="#c4a767" fill-opacity="0.3" stroke-width="0"/><path d="M14.71,73.29c-.32-.21-.63-.43-.9-.65.27.22.58.43.9.65c0,0,0,0,0,0Z" fill="#c4a767" fill-opacity="0.3" stroke-width="0"/><path d="M69.18,98.67C63.36,93.04,54.86,85.65,44.69,79.4C36.52,74.37,29.51,71.11,23.95,69c-5.55-2.16-9.7-2.96-12.17-4.39c0,0-.12-.05-.12-.05c2.44,1.4,6.53,2.47,12.01,5.19c5.49,2.64,12.43,6.7,20.48,12.53c9.98,7.21,18.45,13.99,24.53,18.61c6.02,4.7,9.64,7.31,9.64,7.31s-.85-.94-2.38-2.63c-1.58-1.66-3.83-4.07-6.77-6.88c0,0,.01-.02.01-.02s0,0,0,0Z" fill="#c4a767" fill-opacity="0.3" stroke-width="0"/><path d="M42.13,72.06c8.86,6.2,16.4,12.12,21.77,16.21c5.34,4.15,8.54,6.5,8.54,6.5s-.73-.85-2.06-2.39C69,90.88,67,88.71,64.43,86.16C59.3,81.1,51.74,74.47,42.58,69.25c-7.35-4.23-13.65-6.75-18.66-8.26-5.03-1.49-8.77-1.81-11.32-2.54c0,0-.12-.03-.12-.03c2.54.72,6.25,1.32,11.26,3.35c4.98,2.01,11.21,5.32,18.39,10.31c0,0,0-.02,0-.02s0,0,0,0Z" fill="#c4a767" fill-opacity="0.3" stroke-width="0"/><path d="M57.61,72.55c2.29,1.58,4.11,2.85,5.35,3.7c1.27.84,1.96,1.29,1.96,1.29s-.63-.69-1.77-1.97c-1.13-1.27-2.85-3.04-5.07-5.1-4.4-4.15-11.05-9.37-18.97-12.62-6.34-2.76-11.61-3.2-15.66-3.86-2.07-.13-3.89-.86-5.54-1.05-.79-.24-1.55-.46-2.25-.67-.7-.14-1.35-.28-1.94-.41c0,0-.11-.03-.11-.03.59.14,1.24.29,1.93.45.69.2,1.43.53,2.23.83.8.28,1.7.41,2.63.81s1.95.64,3.04.89c4.3,1.28,9.55,2.61,15.68,6.03c7.53,4.15,13.98,8.49,18.49,11.71c0,0,0,0,0,0Z" fill="#c4a767" fill-opacity="0.3" stroke-width="0"/><path d="M8.79,39.82c.13.04.28.08.42.12-.1-.03-.21-.06-.3-.1c0,0-.12-.02-.12-.02s0,0,0,0Z" fill="#c4a767" fill-opacity="0.3" stroke-width="0"/><path d="M9.21,39.94c.35.12.72.23,1.11.33-.39-.11-.76-.22-1.11-.33c0,0,0,0,0,0Z" fill="#c4a767" fill-opacity="0.3" stroke-width="0"/><path d="M7.72,33.62c0,0,.07.03.1.05-.06-.03-.13-.06-.18-.09c0,0,.08.05.08.05s0-.01,0-.01s0,0,0,0Z" fill="#c4a767" fill-opacity="0.3" stroke-width="0"/><path d="M52.29,54.31c1.3,2.2,2.16,4.07,2.87,5.3.68,1.25,1.05,1.94,1.05,1.94s-.29-2.52-1.75-7.07C52.87,50.04,50.07,43.44,44,36.39c-1.3-1.38-2.48-2.75-3.74-4-1.3-1.22-2.57-2.41-3.84-3.51-1.29-1.08-2.67-2.03-3.93-2.97-1.24-.96-2.54-1.78-3.81-2.53-1.29-.74-2.48-1.47-3.68-2.08-1.24-.56-2.41-1.1-3.51-1.6-2.17-1.06-4.26-1.68-5.96-2.36c0,0-.16-.06-.16-.06c1.71.67,3.77,1.32,5.82,2.47c1.05.55,2.14,1.13,3.28,1.77c1.15.63,2.21,1.43,3.38,2.22c2.29,1.57,4.47,3.57,6.84,5.71c2.21,2.23,4.42,4.69,6.48,7.47c5.06,6.81,8.7,12.9,11.14,17.38c0,0-.02.01-.02.01s0,0,0,0Z" fill="#c4a767" fill-opacity="0.3" stroke-width="0"/><path d="M62.38,67.72c.55,1.51,1.03,2.9,1.47,4.11.4,1.21.75,2.24,1.04,3.1.58,1.69.91,2.62.91,2.62s-.04-.82-.2-2.4c-.17-1.58-.42-3.92-1.07-6.87-1.19-5.92-3.48-14.55-9.32-24.55-4.7-8.06-10.38-14.72-16.17-19.78-5.88-5.03-11.71-8.43-16.33-10.62c0,0-.21-.11-.21-.11c2.27,1.17,4.97,2.45,7.5,4.34c1.28.92,2.71,1.86,4,2.96c1.29,1.11,2.61,2.3,3.97,3.54c5.22,5.12,10.14,11.71,14.14,19.51c4.95,9.63,8.08,18.08,10.28,24.17c0,0-.01-.02-.01-.02s0,0,0,0Z" fill="#c4a767" fill-opacity="0.3" stroke-width="0"/><path d="M46.61,24.13c1.02,1.2,1.97,2.48,3,3.78s2.04,2.63,2.98,4.04c4.12,5.56,7.23,11.87,10.37,18.55c4.75,10.79,7.08,19.8,8.6,27.14.33,1.84.65,3.56.95,5.19.24,1.64.44,3.16.61,4.59.37,2.85.49,5.32.56,7.39c0,0,0,.19,0,.19-.16-4.15-.29-9.64-1.18-16.81-.92-7.18-2.4-16.07-6.4-27.05-2.54-6.82-5.79-13.31-10-19.15-4.04-5.85-8.7-10.9-13.52-14.84-1.25-.95-2.45-1.86-3.58-2.73-1.12-.86-2.22-1.64-3.35-2.32-2.23-1.36-4.09-2.56-5.77-3.41-3.39-1.68-5.32-2.51-5.32-2.51s1.62.99,4.59,2.81c1.52.87,3.1,2.16,5.04,3.57c1.97,1.4,3.93,3.13,6.07,5.04.55.48,1.1.97,1.67,1.47.53.51,1.03,1.07,1.56,1.61c1.03,1.1,2.08,2.24,3.14,3.43c0,0-.02.02-.02.02s0,0,0,0Z" fill="#c4a767" fill-opacity="0.3" stroke-width="0"/><path d="M22.4,0.15c1.12.37,2.29.79,3.47,1.25-1.32-.52-2.62-1-3.91-1.4c0,0,.44.15.44.15s0,0,0,0Z" fill="#c4a767" fill-opacity="0.3" stroke-width="0"/><path d="M69.77,24.36c1.23,1.99,2.57,4.1,3.65,6.31c1.07,2.2,2.18,4.5,3.13,6.89.89,2.38,1.8,4.86,2.58,7.39.71,2.54,1.4,5.14,1.92,7.78.42,2.64.84,5.35,1.17,8.15.26,2.81.56,5.69.79,8.66.97,14.69,1.07,27.26,1.1,36.31c0,8.96,0,14.51,0,14.51s.26-1.18.65-3.4c.36-2.22.9-5.49,1.36-9.7.92-8.43,1.73-20.58-.02-35.88-.34-3.1-.76-6.07-1.25-8.97-.44-2.9-1.04-5.72-1.67-8.49-1.35-5.6-3.3-10.93-5.48-15.83-2.21-4.9-4.72-9.41-7.49-13.44-1.3-1.98-2.83-3.9-4.31-5.65-.75-.87-1.5-1.7-2.27-2.48-.07-.07-.14-.13-.21-.19.76.75,1.47,1.55,2.19,2.39c1.44,1.74,2.97,3.66,4.16,5.63c0,0,0,.01,0,.01s0,0,0,0Z" fill="#c4a767" fill-opacity="0.3" stroke-width="0"/><path d="M61.53,14.73c.23.18.46.36.69.55-.23-.2-.46-.37-.69-.55c0,0,0,0,0,0Z" fill="#c4a767" fill-opacity="0.3" stroke-width="0"/><path d="M63.34,16.26c-.15-.14-.32-.28-.48-.42.18.16.37.33.55.5-.02-.03-.05-.05-.07-.08c0,0,0,0,0,0Z" fill="#c4a767" fill-opacity="0.3" stroke-width="0"/><path d="M60.78,14.14c.25.19.51.38.76.58-.14-.12-.3-.23-.44-.35c0,0-.31-.24-.31-.24s-.01.01-.01.01s0,0,0,0Z" fill="#c4a767" fill-opacity="0.3" stroke-width="0"/><path d="M62.22,15.28c.21.18.43.37.64.56-.21-.19-.43-.37-.64-.56c0,0,0,0,0,0Z" fill="#c4a767" fill-opacity="0.3" stroke-width="0"/><path d="M65.97,5.76c-.4-.36-.82-.71-1.22-1.05.41.33.83.68,1.22,1.05c0,0,0,0,0,0Z" fill="#c4a767" fill-opacity="0.3" stroke-width="0"/><path d="M75.25,16.92c1.57,2.63,3.25,5.43,4.61,8.3c1.32,2.87,2.75,5.88,3.79,8.96c4.52,12.38,7.15,26.29,8.1,41.78.72,9.67.66,18.22.61,26.02-.2,7.67-.59,14.47-.91,20.11-.71,9.49-1.2,15.87-1.32,17.56-.19-.58-.37-1.16-.56-1.73.03.02.05.03.05.03s-.02-.02-.05-.05c-2.05-6.39-4.12-12.67-6.35-18.75-1.55-4.17-3.1-8.26-4.67-12.26.32-2,.86-6.29,1.03-12.64.09-4.52-.01-10.14-.81-16.74-.78-6.61-2.32-14.18-5.18-22.65-2.26-6.83-5.35-13.26-8.79-19.23-1.84-2.97-3.63-5.84-5.76-8.53-1.96-2.72-4.28-5.26-6.52-7.66-8.02-8.5-17.9-14.58-26.65-18.03c8.69,3.47,18,9.63,25.48,17.91C59.9,28.85,66.5,40.74,70.41,53.85c2.52,8.1,4.01,15.52,5.07,22.09.25,1.64.49,3.22.73,4.76.19,1.54.35,3.02.53,4.46.36,2.85.57,5.48.77,7.86.43,4.71.54,8.52.7,11.11.02.79.04,1.46.06,2.03-1.52-3.84-3.05-7.58-4.64-11.21-1.64-3.82-3.4-7.47-5.11-11-.86-1.76-1.71-3.5-2.54-5.2-.89-1.68-1.76-3.33-2.61-4.95-1.71-3.13-3.43-6.09-5.15-8.89c0,0,.03.02.03.02s-.02-.03-.06-.06c-1.82-2.94-3.64-5.7-5.44-8.23-3.51-4.96-6.82-9.21-9.95-12.46-.63-.67-1.2-1.32-1.79-1.92-.09-.14-.19-.28-.3-.45-.63-.87-1.59-2.13-2.89-3.67s-3.12-3.25-5.25-5.13c-1.13-.88-2.36-1.79-3.69-2.72-1.31-.94-2.89-1.73-4.46-2.59-1.26-.71-2.57-1.26-3.84-1.77-1.28-.5-2.46-1.08-3.68-1.45-2.45-.7-4.65-1.52-6.76-1.84-4.16-.96-7.54-1.15-10.02-1.63c0,0-.12-.02-.12-.02c2.47.47,5.72.92,9.6,2.29c3.9,1.21,8.32,3.3,13.01,6.17c5.81,3.57,10.29,7.21,13.68,9.66c1.61,1.3,2.94,2.31,3.88,3c.91.71,1.42,1.1,1.42,1.1s-.13-.24-.4-.66c.5.53.99,1.09,1.53,1.66c1.7,1.79,3.45,3.88,5.26,6.22-.22-.21-.49-.45-.84-.78-.92-.8-2.15-2.01-3.9-3.29-3.39-2.62-8.43-5.8-14.49-7.92-2.5-.76-4.7-1.53-6.87-1.94-1.04-.24-2.06-.46-3.02-.68-.97-.16-1.9-.29-2.79-.44-1.73-.37-3.36-.49-4.78-.75-.7-.12-1.38-.29-2-.45-.58-.12-1.08-.29-1.48-.53.38.22.83.4,1.36.54.61.18,1.29.4,1.98.61c1.43.39,3.07.72,4.84,1.34.89.28,1.85.52,2.82.85.96.37,1.98.74,3.03,1.14c1.08.36,2.16.84,3.28,1.36c1.11.53,2.34.97,3.51,1.61c5.97,2.88,10.75,5.55,14.33,7.2c2.81,1.48,4.73,2.29,5.33,2.54c1.39,1.82,2.82,3.78,4.29,5.86c1.61,2.28,3.23,4.74,4.84,7.35-.23-.25-.51-.53-.82-.87-1.03-1.12-2.69-2.64-4.71-4.45-4.1-3.56-10.1-8.16-17.51-11.5-5.91-2.75-11.11-4.23-15.35-5.18-3.47-.89-6.39-1.2-8.7-1.79c2.28.63,5.14,1.29,8.57,2.55c4.24,1.48,9.4,3.65,15.2,7.08c7.15,4.23,13.17,8.16,17.38,10.86c2.15,1.33,3.82,2.38,4.97,3.1.6.37,1.07.63,1.37.81c1.78,2.9,3.53,5.98,5.28,9.23.84,1.62,1.71,3.26,2.58,4.95.82,1.7,1.67,3.44,2.52,5.21c1.69,3.53,3.42,7.2,5.03,11.01c1.74,4.05,3.43,8.25,5.09,12.56c0,.36.01.55.01.55s.02-.12.06-.34c1.44,3.74,2.86,7.56,4.28,11.46.38,1.08.76,2.15,1.13,3.24-.67-.78-4.06-4.66-9.59-10.12-6.19-6.11-15.18-14.16-25.93-21.3-8.64-5.74-16.07-9.74-22.03-12.52-2.99-1.36-5.59-2.54-7.81-3.48-.53-.25-1.06-.51-1.57-.76-.5-.2-.99-.43-1.43-.66-.22-.12-.43-.24-.63-.37.16.11.3.22.47.32.87.5,1.88.93,2.95,1.57c2.18,1.09,4.75,2.46,7.7,4.12c5.89,3.34,13.23,8.14,21.75,14.7c10.56,8.11,19.56,15.55,26.01,20.63c5.83,4.68,9.5,7.47,10.13,7.94c1.63,4.68,3.19,9.47,4.72,14.33-1.69-1.56-5.33-4.82-10.49-9.08-1.85-1.48-3.87-3.1-6.05-4.84-2.18-1.69-4.53-3.51-7.02-5.45-1.29-.91-2.46-1.97-3.69-2.98-1.3-1.17-2.69-2.41-4.08-3.51-1.38-1.1-2.8-2.24-4.24-3.4-1.45-1.1-2.95-2.22-4.46-3.36-9.72-7.19-18.1-12.5-24.66-16.62-5.68-3.6-10.11-6.24-12.48-8.82c2.32,2.58,6.52,5.46,12.03,9.47c6.47,4.63,14.73,10.82,24.33,18.86c3,2.44,5.83,4.9,8.6,7.2c1.34,1.17,2.65,2.33,3.93,3.45c1.41,1.13,2.78,2.37,4.04,3.23c5.15,3.8,9.62,6.74,13.36,9.24c3.73,2.47,6.73,4.38,8.76,5.66.95.6,1.7,1.07,2.23,1.39.86,2.74,1.72,5.48,2.57,8.25c1.03,3.45,2.04,6.93,3.01,10.43-.5-.64-1.33-1.7-2.5-3.13-1.99-2.47-4.95-5.97-8.74-10.13-1.89-2.11-4.06-4.25-6.4-6.51-1.19-1.1-2.43-2.25-3.7-3.43-1.29-1.07-2.62-2.18-4.02-3.27-2.74-2.16-5.6-4.39-8.66-6.62-2.91-2.23-6.07-4.83-9.28-7.43-10.44-8.48-19.3-15.65-26.47-20.67-7.07-5.19-12.54-8.45-15.14-11.53c2.61,3.01,7.77,6.55,14.56,12.3c6.96,5.7,15.6,13.75,25.95,23.45c3.24,2.94,6.32,5.86,9.5,8.32c3.1,2.37,6.06,4.61,8.75,6.67c1.36,1.02,2.68,2,3.96,2.97c1.28,1.02,2.47,2.06,3.65,3.05c2.35,1.95,4.56,3.74,6.5,5.55c6.44,5.75,10.76,9.55,12.12,10.74.27.98.56,1.95.82,2.93c1.27,4.59,2.56,9.19,3.74,13.84.09.36.18.73.27,1.1-.55-.66-1.4-1.69-2.56-3.07-2.15-2.48-5.27-6.05-9.32-10.24-3.99-4.23-8.9-9.19-14.52-14.31-2.83-2.56-5.82-5.18-9.01-7.76-3.12-2.55-6.31-5.51-9.69-8.47-10.89-9.62-20.27-17.33-27.91-23.05-3.67-2.69-7.02-5.15-10.08-7.39-1.44-1.04-2.73-2.09-3.88-3-.52-.44-1-.9-1.44-1.36.38.43.79.84,1.23,1.24c1.11.97,2.39,2.05,3.78,3.19c2.81,2.23,6.08,4.97,9.82,8.12c7.43,6.44,16.58,15.03,27.25,25.81c3.33,3.26,6.57,6.54,9.79,9.27c3.16,2.68,6.18,5.26,9.01,7.73c5.73,4.97,10.78,9.34,14.9,12.92c6.65,5.67,11.16,9.41,12.73,10.71c1.08,4.16,2.1,8.32,3.07,12.49.76,2.98,1.44,5.99,2.14,8.97-1.83-1.78-5.92-5.6-11.78-10.49-4.08-3.39-9.04-7.27-14.69-11.26-2.85-1.99-5.82-4.02-8.99-6.01-1.63-.99-3.1-1.97-4.69-3.19-1.57-1.19-3.21-2.44-4.9-3.71-10.73-8.33-19.93-15.38-27.5-21.07-3.79-2.85-7.15-5.47-10.1-7.81-2.87-2.46-5.53-4.52-7.13-7.08c0,0-.15-.23-.15-.23c1.56,2.59,4.18,4.73,6.98,7.4c2.97,2.61,6.26,5.51,9.88,8.68c7.42,6.46,16.37,14.56,27.04,24.07c1.64,1.46,3.26,2.88,4.91,4.22c1.64,1.35,3.36,2.62,4.89,3.59c3.17,2.09,6.17,4.08,8.99,5.95c5.71,3.74,10.73,7.03,14.93,9.71c4.18,2.69,7.56,4.77,9.85,6.18c1.11.67,1.98,1.19,2.57,1.55.34,1.46.69,2.91,1.06,4.35.26,1.01.52,2,.77,3-.48-.28-1.59-.93-3.25-1.89-2.33-1.38-5.58-3.44-9.62-5.96-7.98-4.98-19.24-12.02-32.59-20.36-18.32-11.59-31.51-23.04-39.65-31.68c1.01,1.17,2.07,2.4,3.24,3.7c2.72,2.72,5.68,6.23,9.25,9.5c7,6.91,15.8,14.76,26.42,22.71c13.11,9.8,24.82,16.04,33.08,19.58c4.12,1.77,7.57,3.05,9.86,3.69c1.71.5,2.82.74,3.29.83.81,3.13,1.62,6.23,2.55,9.27-.59-.31-1.43-.75-2.49-1.34-2.23-1.22-5.45-2.99-9.45-5.18-2.04-1.16-4.28-2.43-6.69-3.79-2.4-1.33-4.87-2.59-7.55-3.96-5.32-2.7-11.26-5.56-17.63-8.46-2.56-1.18-4.95-2.54-7.32-3.68-2.37-1.28-4.63-2.6-6.78-3.87-4.35-2.53-8.24-5-11.78-7.47-6.98-4.93-12.57-10.08-15.47-15.58c0,0-.14-.24-.14-.24c2.85,5.47,8.23,11.07,15.14,16.91c3.47,2.94,7.39,5.9,11.68,9.02c2.15,1.56,4.42,3.14,6.76,4.76c2.37,1.47,4.9,3.15,7.46,4.68c6.4,3.69,12.34,6.68,17.74,9.14c5.6,2.91,10.51,4.84,14.57,6.26c4.06,1.38,7.27,2.19,9.46,2.68c1.08.25,1.96.4,2.55.5.01,0,.02,0,.04,0c.06.19.12.39.18.58.89,2.47,1.73,4.92,2.59,7.35-.51-.14-1.13-.31-1.88-.51-2.23-.63-5.47-1.58-9.54-2.91-4.18-1.35-8.82-3.14-14.23-5.46-2.69-1.17-5.56-2.47-8.56-3.95-1.5-.74-3.04-1.53-4.61-2.36-1.53-.71-3.03-1.32-4.58-2.01-9.94-4.36-18.41-9.07-25.19-14.15-6.78-5.06-11.9-10.67-15.05-15.72c0,0-.16-.23-.16-.23c3.16,4.99,7.99,11.07,14.72,17.03c3.33,3,7.14,5.99,11.35,8.95c2.12,1.47,4.33,2.95,6.64,4.4c1.16.73,2.34,1.44,3.56,2.16.61.38,1.19.66,1.86,1.13.67.46,1.33.93,2.01,1.4c6.68,4.55,12.82,7.45,18.26,9.35c5.55,1.88,10.52,2.75,14.49,3.22c4,.44,7.1.45,9.23.36.76-.03,1.4-.08,1.9-.12.57,1.59,1.14,3.18,1.76,4.73.15.36.32.71.47,1.08-.55-.02-1.41-.05-2.58-.11-1.05-.06-2.34-.13-3.84-.21-1.47-.12-3.15-.24-5-.4-3.74-.39-8.26-.93-13.42-1.87-2.58-.47-5.32-1.04-8.21-1.73-1.44-.35-2.92-.73-4.44-1.15-1.48-.42-2.96-.89-4.49-1.4-4.92-1.64-9.54-3.74-13.83-6.25-2.15-1.25-4.2-2.59-6.18-4.03-1.86-1.07-3.56-1.98-5.2-3.02-6.51-4.11-11.57-8.59-15.03-12.62c0,0-.17-.18-.17-.18c3.46,3.99,8.32,8.93,14.77,13.99.81.62,1.64,1.25,2.51,1.87.41.25.91.76,1.41,1.21.5.44.99.9,1.49,1.35c2.01,1.79,4.12,3.52,6.32,5.14c4.46,3.25,9.05,6.14,14.49,8.41c13.21,5.58,23.56,5.17,30.91,4.08c5.69-.9,9.31-2.27,10.6-2.82.69,1.56,1.38,3.13,2.06,4.67.89,1.97,1.68,3.97,2.74,5.82.99,1.87,1.98,3.71,2.95,5.53.49.91.98,1.82,1.46,2.71.52.87,1.08,1.73,1.61,2.58c2.19,3.37,4.15,6.75,6.49,9.71c1.12,1.51,2.22,2.99,3.3,4.45c1.12,1.43,2.31,2.74,3.44,4.07c9.04,10.58,18.06,17.82,24.65,22.13c3.32,2.15,5.98,3.66,7.8,4.58c1.83.94,2.76,1.32,2.76,1.32s.02,0,.02,0c.62.28,1.55.21,1.61-.3.05-.25-.09-.54-.34-.84-.17-.26-.45-.47-.77-.62c0,0-.22-.1-.66-.29-.45-.22-1.13-.56-2.01-.99-.89-.45-1.97-1.07-3.26-1.78-1.28-.73-2.73-1.66-4.37-2.67-6.46-4.22-15.38-11.27-24.36-21.68-1.11-1.31-2.32-2.57-3.41-3.99-1.08-1.44-2.17-2.89-3.28-4.38-1.4-1.74-2.66-3.65-3.91-5.6.35.02.74.02,1.18.02c1.92.06,4.47-.1,7.76-.72c6.41-1.33,14.82-4.53,22.74-10.79c1.61-1.22,3.17-2.39,4.66-3.52c1.44-1.2,2.74-2.43,4.04-3.56c2.55-2.3,4.99-4.23,7.04-6.18c3.98-3.94,7.37-7,10.01-9.11c0,0,.12-.1.12-.1-2.61,2.15-6.22,4.88-10.7,8.33-2.25,1.69-4.94,3.27-7.77,5.17-1.43.92-2.9,1.93-4.48,2.9-1.63.88-3.33,1.8-5.1,2.75-8.6,4.84-16.39,8.4-22.02,10.97-2.86,1.19-5.12,2.21-6.75,2.76-.44.18-.82.32-1.16.44-.7-1.1-1.42-2.21-2.15-3.32-.53-.84-1.1-1.67-1.6-2.54-.48-.88-.97-1.79-1.46-2.68-.75-1.38-1.51-2.79-2.27-4.19c1.44.31,5.28.96,10.45.46c3.29-.34,7.14-1.14,11.2-2.75c4.1-1.62,8.28-3.98,12.41-7.26c6.67-5.26,11.58-10.64,15.39-15.04c1.76-2.26,3.58-4.37,5.05-6.21c1.41-1.93,2.66-3.53,3.79-4.83c0,0,.09-.12.09-.12-1.15,1.34-2.47,2.89-3.96,4.65-1.57,1.73-3.55,3.57-5.6,5.65-4.25,3.84-9.67,8.31-16.72,12.37-8.68,5.07-16.81,8.31-22.82,10.3-4.76,1.55-8.17,2.29-9.4,2.54-.18-.34-.36-.67-.55-1.01-1.06-1.82-1.82-3.8-2.73-5.75-.34-.75-.68-1.5-1.02-2.26c3.67-.47,8.3-1.56,13.75-3.82c5.73-2.37,12.35-6.2,19.42-11.91c4.32-3.45,8.24-7.37,11.49-11.02c3.28-3.68,5.73-6.97,8-10.01.55-.73,1.08-1.41,1.57-2.07.48-.67.89-1.32,1.29-1.91.77-1.18,1.43-2.19,1.97-3.02c1.03-1.62,1.61-2.47,1.58-2.67c0-.05-.16.38-.53.66-.37.33-.92.81-1.61,1.43-.68.66-1.51,1.47-2.48,2.4-.48.49-1,1.01-1.54,1.56-.57.53-1.18,1.09-1.82,1.68-2.55,2.51-5.54,5.48-8.84,8.73-3.29,3.25-7.04,6.9-11.16,10.76-3.36,3.15-6.41,5.82-9.37,8.14-2.95,2.32-5.79,4.25-8.44,5.82-5.13,3.02-9.59,4.76-13.3,5.24-.54-1.21-1.09-2.43-1.65-3.66-.3-.74-.58-1.48-.86-2.22c1.17-.16,4.94-.84,10.17-3.23c3.13-1.54,6.87-3.52,10.76-6.48c1.99-1.35,3.93-3.15,6.01-4.88c1.02-.89,1.99-1.92,3.01-2.9c1.02-.99,2.05-1.99,3.01-3.15c1.55-1.75,3.14-3.55,4.63-5.3c1.48-1.75,2.84-3.44,4.11-5.1c1.27-1.64,2.43-3.25,3.48-4.79.25-.43.54-.67.76-1.25.22-.55.45-1.1.66-1.64.43-1.09.83-2.18,1.21-3.27.88-1.99,1.39-4.32,1.99-6.32.56-2.06,1.15-3.94,1.61-5.82.31-1.62.6-3.14.87-4.59-1.11,4.72-2.79,9.94-5.25,15.27-.9,1.92-1.88,3.87-2.98,5.79c0,0-.83,1.44-.83,1.44-.31.37-.62.7-.93,1.06-.65.7-1.3,1.41-1.97,2.13-2.72,2.86-5.86,5.86-9.41,8.91-1.06,1-2.18,1.87-3.26,2.74-1.1.88-2.07,1.8-3.08,2.61-2.06,1.57-3.91,3.28-5.81,4.67-3.67,3.02-7.11,5.45-9.91,7.64-4.7,3.44-7.94,5.64-8.92,6.3-.25-.65-.48-1.29-.72-1.94.07,0,.11-.02.11-.02s-.05-.02-.13-.04c-.7-1.95-1.41-3.93-2.12-5.91c1.6-1.1,3.46-2.38,5.6-3.85c2.15-1.53,4.58-3.26,7.34-5.21c5.48-4,12.05-9.04,19.28-15.54.28-.26.55-.48.83-.78c0,0,.8-.96.8-.96.52-.65,1.04-1.29,1.54-1.96c1-1.32,1.96-2.67,2.87-4.05c1.84-2.75,3.42-5.6,4.86-8.46c2.88-5.72,4.97-11.49,6.35-16.68.66-2.63,1.29-4.98,1.71-7.13.33-2.24.61-4.19.84-5.77.38-3.19.59-4.93.59-4.93s-.48,1.44-1.35,4.06c-.42,1.32-.94,2.94-1.55,4.83-.69,1.78-1.48,3.79-2.39,6.01-3.58,8.85-9.52,19.95-17.35,31.18-.8,1.13-1.57,2.22-2.36,3.26-.79,1-1.54,2.16-2.33,2.89-1.6,1.62-3.11,3.16-4.56,4.63-2.95,2.95-5.72,5.59-8.25,7.97-5.16,4.76-9.13,8.23-12.42,10.43c0,0-.07.05-.07.05-.27-.75-.52-1.49-.8-2.24-1.37-4.3-2.49-8.74-3.69-13.21-1.12-4.57-2.24-9.16-3.37-13.79-.46-1.94-.95-3.89-1.43-5.83.43-.42,1.22-1.23,2.24-2.43c1.67-1.94,3.96-4.93,6.56-9.2c5.22-8.44,11.52-22.17,15.14-41.58c2.75-15.75,3.37-30.4,2.76-43.21-.59-12.81-2.45-23.83-4.02-32.16c0,0-.09-.39-.09-.39c1.65,8.37,3.01,19.09,2.95,31.37-.04,12.28-1.45,26.14-4.86,40.91-4.31,18.09-9.56,32.44-13.81,42.11-3.38,7.82-6.02,12.72-6.93,14.36-.65-2.61-1.33-5.23-2.03-7.84-.84-3.25-1.75-6.48-2.66-9.71.54-.86,3.31-5.33,6.91-13.38c2-4.5,4.2-10.14,6.25-17.05c1.95-6.87,3.69-15.47,4.05-25.34.76-15.87-.28-30.31-2.37-42.9-1.05-6.3-2.4-12.13-4-17.49-.73-2.66-1.71-5.25-2.64-7.68-.51-1.33-1.08-2.65-1.72-3.92.58,1.14,1.06,2.33,1.5,3.5.88,2.41,1.82,4.97,2.45,7.57c1.39,5.24,2.44,10.92,3.16,16.98c1.41,12.11,1.55,25.89.13,40.99-.84,9.43-2.3,17.37-4.02,24.44-1.71,7.02-3.42,13.14-4.92,18.22-1.51,5.04-2.72,9.1-3.56,11.9-.65,2.13-1.08,3.51-1.24,4.05-.38-1.34-.75-2.68-1.14-4.02-.79-2.85-1.62-5.67-2.45-8.48.77-1.61,2.77-6.02,5.1-13.12c2.88-9.12,6.56-22.63,7.15-40.8.48-14.62-.82-28.09-3.52-39.92-2.59-11.4-6.65-21.28-10.83-29.04c4.1,7.7,7.67,17.35,9.5,28.1c1.97,11.38,2.46,24.09,1.28,37.93-1.5,17.08-4.01,31.22-5.86,41.36-1.42,7.6-2.49,12.91-2.93,15.09-.48-1.59-.95-3.2-1.44-4.79-.59-1.89-1.19-3.77-1.79-5.64.16-.54.53-1.83,1.05-3.84.72-2.72,1.67-6.71,2.63-11.91.93-5.23,1.79-11.67,2.36-19.27.3-7.72.47-16.54-.66-26.5C93.75,62.26,90.42,47.75,85.08,35c-.68-1.59-1.3-3.14-2.04-4.68-.78-1.54-1.53-3.06-2.27-4.53-1.44-2.93-3.34-5.77-5.01-8.44-1.76-2.68-3.83-5.23-5.79-7.59-1.17-1.29-2.42-2.55-3.69-3.7c1.13,1.05,2.23,2.17,3.29,3.31c1.96,2.36,3.89,4.89,5.62,7.54c0,0,.06.01.06.01s0,0,0,0Z" fill="#c4a767" fill-opacity="0.3" stroke-width="0"/><path d="M64.75,4.72c-.24-.2-.47-.36-.71-.55.24.19.48.35.71.55c0,0,0,0,0,0Z" fill="#c4a767" fill-opacity="0.3" stroke-width="0"/><path d="M62.71,3.21c.45.29.9.63,1.34.95-.28-.22-.57-.45-.85-.65c0,0-.48-.3-.48-.3s-.01,0-.01,0s0,0,0,0Z" fill="#c4a767" fill-opacity="0.3" stroke-width="0"/><path d="M90.92,26.82c.17.31.34.63.5.95-.24-.44-.46-.89-.7-1.31c0,0,.2.37.2.37s0-.01,0-.01s0,0,0,0Z" fill="#c4a767" fill-opacity="0.3" stroke-width="0"/><path d="M101.62,32.11c.25.34.46.69.68,1.05-.14-.22-.27-.45-.42-.67c0,0-.26-.38-.26-.38s0,0,0,0Z" fill="#c4a767" fill-opacity="0.3" stroke-width="0"/><path d="M139.9,80.78c.22.82.4,1.65.55,2.49-.14-.84-.29-1.67-.55-2.49c0,0,0,0,0,0Z" fill="#c4a767" fill-opacity="0.3" stroke-width="0"/><path d="M140.88,86.74c.24,2.3.19,4.56.28,7.06-.06,4.84-.28,10.14-.93,15.77-.25,2.85-.63,5.78-1.1,8.8-.45,3.02-.97,6.14-1.55,9.39-1.23,6.33-3.02,12.77-5.45,19.19-6.08,15.72-12.87,27.6-17.82,35.98-5,8.32-8.23,13.05-8.23,13.05s1.02-.73,2.77-2.32s4.25-4.05,7.16-7.52c5.81-6.97,13.55-17.99,19.09-35.26c2.13-7.01,3.66-14.01,4.54-20.87.79-6.9,1.41-13.22,1.63-19.22.33-5.92.28-11.46.18-16.44-.27-4.03-.4-7.64-1.01-11.09c0,.05.02.09.02.14.22,1.12.3,2.19.41,3.33c0,0,.01.01.01.01s0,0,0,0Z" fill="#c4a767" fill-opacity="0.3" stroke-width="0"/><path d="M139.85,80.56c0,0-.16-.39-.16-.39.08.2.15.41.21.61-.02-.07-.03-.15-.05-.22c0,0,0,0,0,0Z" fill="#c4a767" fill-opacity="0.3" stroke-width="0"/><path d="M152.39,117.59c-.33,2.38-.79,5.05-1.26,8.01-2.08,11.7-6.45,26.55-13.29,41.59-5.49,12.16-11.16,21.17-16.08,28.13-4.93,6.3-9.03,11.23-12.33,14.63c0,0-.15.17-.15.17c3.26-3.43,7.65-7.85,13.06-13.4c1.34-1.32,2.76-2.99,4.22-4.77s2.97-3.7,4.51-5.78c3.05-4.16,6.27-8.97,9.42-14.65c7.92-14,11.97-30.51,13.06-43.56.17-3.33.32-6.35.46-8.99-.01-2.74-.18-5.18-.26-7.14-.1-1.95-.22-3.48-.3-4.52s-.12-1.58-.12-1.58-.09,1.97-.41,5.46c-.16,1.74-.27,3.93-.52,6.37c0,0-.01.03-.01.03s0,0,0,0Z" fill="#c4a767" fill-opacity="0.3" stroke-width="0"/><path d="M167.56,159.49c-.01.09-.04.19-.05.29c0,0,0,0,0-.01c0,0,.05-.28.05-.28s0,0,0,0Z" fill="#c4a767" fill-opacity="0.3" stroke-width="0"/><path d="M166.38,165.43c.47-1.99.84-3.9,1.13-5.66-.36,1.7-.74,3.6-1.13,5.66c0,0,0,0,0,0Z" fill="#c4a767" fill-opacity="0.3" stroke-width="0"/></g></g></g><g id="eqbeNudkPYl48_to" transform="translate(319.75,287.13)"><g id="eqbeNudkPYl48_tr" transform="rotate(0)"><g transform="translate(-118.45,-170.67)"><path d="M65.3,275.18c0,0-3.74-1.55-10.03-3.76-6.29-2.24-15.16-4.99-25.41-7.98-8.26-2.38-15.03-5.36-20.05-9.06-5.05-3.71-8.11-8.78-9.72-13.74c0,0-.09-.21-.09-.21c1.69,4.81,4.14,10.92,8.75,15.96c4.65,5.18,10.94,9.89,18.97,13.64c9.94,4.63,19.57,5.34,26.44,5.59c6.9.17,11.14-.45,11.14-.45s0,.01,0,.01s0,0,0,0Z" fill="#c4a767" fill-opacity="0.5" stroke-width="0"/><path d="M31.74,245.82c9.51,7.67,20.25,9.19,27.87,9.74c7.74.38,12.62-.53,12.62-.53s-4.23-1.21-11.07-3.55c-6.79-2.46-16.27-5.88-26.22-11.82-3.96-2.47-7.43-5.24-10.31-8.3-2.87-3.06-5.25-6.48-6.84-10.02-.98-1.57-1.58-3.49-2.16-5.3-.57-1.84-1.11-3.55-1.62-5.18-.58-3.76-1-7.16-1.26-10.21c0,0-.03-.27-.03-.27.26,2.99.55,6.52.9,10.62.36,1.82.74,3.75,1.14,5.81.44,2.02.8,4.28,1.59,6.14.75,2.02,1.59,4.14,2.47,6.33c1.07,1.91,2.21,3.9,3.42,5.94c2.57,3.83,5.7,7.46,9.52,10.61c0,0-.02-.01-.02-.01s0,0,0,0Z" fill="#c4a767" fill-opacity="0.5" stroke-width="0"/><path d="M48.09,240.45c5.17,2.38,9.79,4.06,13.71,5.47c7.86,2.77,12.83,4.03,12.83,4.03s-3.86-3.22-10.73-7.92c-3.41-2.35-7.67-5.04-12.42-7.88-1.94-1.37-3.79-4.05-5.46-6.97-1.73-2.9-3.31-6.29-4.89-9.89-2.33-5.81-3.99-11.64-5.17-17.45-.59-2.9-1.04-5.79-1.37-8.65-.3-2.82-.41-5.51-.45-8.22-.06-5.38.3-10.59,1-15.47.09-.61.19-1.22.28-1.82.13-.65.04-.96.07-1.44c0-.88.03-1.75.06-2.58.07-1.68.19-3.25.38-4.73c0,0,.03-.27.03-.27-.17,1.46-.34,3.04-.46,4.74-.05.85-.11,1.72-.17,2.62c0,0-.04.69-.04.69c0,.22-.02.45-.11.8-.12.63-.26,1.25-.39,1.9-1.01,5.12-1.82,10.69-2.26,16.54-.12,1.46-.21,2.94-.27,4.43-.05,1.51-.03,3.11.01,4.68.07,3.16.26,6.35.59,9.58s.78,6.48,1.39,9.72c.69,3.33,1.58,6.69,2.62,10c1.34,4.03,2.86,7.65,4.67,10.7c1.77,3.05,3.7,5.75,6.53,7.39c0,0,.02,0,.02,0s0,0,0,0Z" fill="#c4a767" fill-opacity="0.5" stroke-width="0"/><path d="M85.46,104.14c.33-1.98.64-3.81.83-5.47-.3,1.67-.58,3.5-.83,5.47c0,0,0,0,0,0Z" fill="#c4a767" fill-opacity="0.5" stroke-width="0"/><path d="M86.34,98.31c-.01.11-.04.25-.05.36.01-.02.01-.05.01-.07c0,0,.03-.3.03-.3s.01.01.01.01s0,0,0,0Z" fill="#c4a767" fill-opacity="0.5" stroke-width="0"/><path d="M104.54,133.7c-.14,2.56-.13,5.12.03,7.63.14,2.27.27,4.49.41,6.67.26,4.35.47,8.56.6,12.57.23,8.07.48,15.2.57,21.19.14,6,.25,10.73.32,13.98.11,3.27.17,5.03.17,5.03s.35-1.97.87-5.52c.53-3.54,1.17-8.71,1.72-15.03.56-6.35.92-13.83.89-22.09.04-4.14-.21-8.42-.57-12.84-.17-2.18-.4-4.43-.65-6.7-.08-1.08-.23-2.02-.28-3.16-.03-1.16-.07-2.27-.1-3.47-.09-7.75.25-15.18.31-21.91.15-6.74.15-12.83.19-18.27-.05-5.42-.09-10.2-.06-14.35.04-4.14-.02-7.7.83-10.57c0,0,.06-.27.06-.27-.88,2.85-.89,6.41-1.16,10.59-.24,4.41-.5,9.27-.78,14.65-.44,5.59-.81,11.86-1.47,18.84-.57,7-1.38,14.67-1.89,23.01c0,0-.01.02-.01.02s0,0,0,0Z" fill="#c4a767" fill-opacity="0.5" stroke-width="0"/><path d="M119.91,59.12c-.03.06-.05.13-.07.19.06-.14.1-.29.18-.42c0,0-.11.22-.11.22s0,.01,0,.01s0,0,0,0Z" fill="#c4a767" fill-opacity="0.5" stroke-width="0"/><path d="M119.31,61.31c.02-.11.03-.23.05-.34-.02.11-.04.23-.05.34c0,0,0,0,0,0Z" fill="#c4a767" fill-opacity="0.5" stroke-width="0"/><path d="M119.57,60.02c.07-.25.17-.48.26-.7-.1.23-.19.46-.26.7c0,0,0,0,0,0Z" fill="#c4a767" fill-opacity="0.5" stroke-width="0"/><path d="M119.39,60.85c0,0-.01.07-.02.11.03-.17.07-.32.11-.49-.03.13-.07.24-.09.38c0,0,0,0,0,0Z" fill="#c4a767" fill-opacity="0.5" stroke-width="0"/><path d="M119.47,60.47c.03-.15.05-.3.09-.45-.05.14-.06.3-.09.45c0,0,0,0,0,0Z" fill="#c4a767" fill-opacity="0.5" stroke-width="0"/><path d="M128.77,51.52c0,0-.01,0-.01.01.02-.07.02-.15.03-.22c0,0-.03.21-.03.21s.01,0,.01,0s0,0,0,0Z" fill="#c4a767" fill-opacity="0.5" stroke-width="0"/><path d="M133.98,50.07c.07-.46.17-.87.28-1.27-.11.4-.2.82-.28,1.27c0,0,0,0,0,0Z" fill="#c4a767" fill-opacity="0.5" stroke-width="0"/><path d="M133.97,50.15c0,0,.01-.05.01-.08-.01.02-.01.05-.01.08c0,0,0,0,0,0Z" fill="#c4a767" fill-opacity="0.5" stroke-width="0"/><path d="M134.31,48.56c-.03.07-.03.16-.05.24.03-.14.05-.3.09-.43c0,0-.04.19-.04.19s0,0,0,0Z" fill="#c4a767" fill-opacity="0.5" stroke-width="0"/><path d="M141,46.99c-.01.26-.01.54,0,.84c0-.35-.01-.7,0-1c0,0,0,.16,0,.16s0,0,0,0Z" fill="#c4a767" fill-opacity="0.5" stroke-width="0"/><path d="M141.08,49.17c0,0-.01-.08-.01-.12c0,.04.01.08.01.12c0,0,0,0,0,0Z" fill="#c4a767" fill-opacity="0.5" stroke-width="0"/><path d="M141.07,49.05c-.04-.43-.07-.84-.08-1.22c0,.39.04.79.08,1.22c0,0,0,0,0,0Z" fill="#c4a767" fill-opacity="0.5" stroke-width="0"/><path d="M157.54,113.19c.73-8.89,1.06-21.3-.71-34.33-1.42-10.47-3.56-18.73-5.64-24.94-2.04-6.23-4.25-10.33-4.77-13.43c0,0-.04-.14-.04-.14.51,3.06,2.45,7.28,3.97,13.85c1.59,6.53,3,15.27,3.66,26.2.84,13.54.99,25.5,1.31,33.91.21,8.41.51,13.32.51,13.32s.21-1.37.59-3.86c.31-2.51.77-6.12,1.12-10.58c0,0,0,0,0,0Z" fill="#c4a767" fill-opacity="0.5" stroke-width="0"/><path d="M161.28,71.54c.91,11.87,1.16,22.44,1.43,29.88.2,7.45.43,11.82.43,11.82s.21-1.22.6-3.44c.32-2.23.77-5.45,1.14-9.41.72-7.9,1.08-18.98-.88-30.43-1.54-9.22-3.8-16.36-6.01-21.68-2.25-5.32-4.57-8.73-5.74-11.41c0,0-.06-.12-.06-.12c1.16,2.67,3.24,6.24,5.01,11.92c1.78,5.64,3.31,13.27,4.08,22.86c0,0,0,.01,0,.01s0,0,0,0Z" fill="#c4a767" fill-opacity="0.5" stroke-width="0"/><path d="M171.69,85.08c.25,3.06.45,5.48.59,7.14.17,1.67.26,2.57.26,2.57s.15-1.02.44-2.88c.29-1.84.59-4.55.79-7.89.46-6.64.26-15.96-2.52-24.98-2.09-7.33-5.38-12.12-7.65-16.03-1.34-1.87-2.01-3.92-2.99-5.46-.35-.84-.68-1.65-1-2.39-.37-.7-.7-1.34-.99-1.94c0,0-.06-.11-.06-.11.29.6.61,1.25.96,1.96.32.73.55,1.59.87,2.48.32.88.84,1.74,1.14,2.81.32,1.08.82,2.1,1.37,3.2c1.92,4.55,4.44,9.96,5.82,17.58c1.73,9.31,2.55,17.84,2.95,23.94c0,0,.02,0,.02,0s0,0,0,0Z" fill="#c4a767" fill-opacity="0.5" stroke-width="0"/><path d="M165.43,20.61c.05.14.12.3.18.44-.04-.1-.1-.21-.13-.31c0,0-.06-.12-.06-.12s.01-.01.01-.01s0,0,0,0Z" fill="#c4a767" fill-opacity="0.5" stroke-width="0"/><path d="M165.61,21.04c.15.38.31.78.5,1.18-.18-.41-.35-.81-.5-1.18c0,0,0,0,0,0Z" fill="#c4a767" fill-opacity="0.5" stroke-width="0"/><path d="M169.95,15.36c0,0,.02.07.03.11-.01-.07-.04-.14-.05-.21c0,0,.02.11.02.11s0-.01,0-.01s0,0,0,0Z" fill="#c4a767" fill-opacity="0.5" stroke-width="0"/><path d="M183.5,67.77c-.97,2.65-1.94,4.69-2.5,6.16-.58,1.45-.92,2.25-.92,2.25s1.94-2.01,4.8-6.43c2.67-4.45,6.33-11.46,8.1-21.55.27-2.07.6-4.04.79-5.98.13-1.96.25-3.87.3-5.73.02-1.86-.14-3.69-.22-5.42-.05-1.74-.26-3.42-.51-5.03-.27-1.61-.49-3.14-.81-4.59-.38-1.46-.74-2.83-1.07-4.12-.62-2.59-1.55-4.8-2.18-6.72c0,0-.07-.17-.07-.17.63,1.92,1.51,4.13,1.96,6.68.26,1.27.53,2.62.79,4.03.27,1.41.32,2.89.47,4.43.26,3.05.08,6.32-.08,9.82-.36,3.44-.9,7.03-1.82,10.73-2.26,9.07-4.9,16.43-7.02,21.65c0,0-.01-.01-.01-.01s0,0,0,0Z" fill="#c4a767" fill-opacity="0.5" stroke-width="0"/><path d="M179.13,85.76c-.91,1.52-1.74,2.9-2.46,4.12-.75,1.19-1.4,2.21-1.93,3.05-1.03,1.68-1.6,2.61-1.6,2.61s.69-.62,1.92-1.86c1.22-1.24,3.03-3.09,5.1-5.7c4.2-5.15,9.96-13.14,14.39-25.11c3.57-9.63,5.29-19.12,5.55-27.6.17-8.52-1.03-15.86-2.37-21.32c0,0-.06-.25-.06-.25.59,2.75,1.38,5.94,1.55,9.42.12,1.74.31,3.6.28,5.47-.05,1.88-.12,3.84-.24,5.87-.71,8.03-2.88,16.83-6.73,25.68-4.74,10.94-9.74,19.52-13.39,25.65c0,0-.01-.03-.01-.03s0,0,0,0Z" fill="#c4a767" fill-opacity="0.5" stroke-width="0"/><path d="M205.23,41.85c-.3,1.71-.73,3.42-1.12,5.19s-.82,3.59-1.37,5.37c-1.86,7.39-5.04,14.43-8.54,21.79-5.86,11.59-11.92,19.88-17.12,26.3-1.32,1.57-2.57,3.05-3.75,4.44-1.23,1.35-2.39,2.58-3.49,3.72-2.17,2.3-4.17,4.14-5.88,5.64c0,0-.16.14-.16.14c3.42-3.04,8.01-6.98,13.49-12.76c5.47-5.81,12-13.29,18.55-24.37c4.03-6.93,7.29-14.23,9.32-21.9c2.15-7.53,3.19-15.04,3.18-21.9-.06-1.74-.12-3.4-.17-4.95s-.16-3.03-.38-4.47c-.39-2.84-.67-5.28-1.14-7.3-.94-4.07-1.58-6.29-1.58-6.29s.29,2.08.82,5.89c.32,1.91.32,4.15.48,6.78.19,2.65.08,5.53-.05,8.7-.03.8-.07,1.62-.09,2.45-.07.81-.18,1.62-.27,2.44-.21,1.65-.45,3.34-.72,5.08c0,0-.01.01-.01.01s0,0,0,0Z" fill="#c4a767" fill-opacity="0.5" stroke-width="0"/><path d="M208.73,4.48c.48,1.22.93,2.49,1.36,3.82-.47-1.5-.98-2.93-1.54-4.31c0,0,.18.49.18.49s0,0,0,0Z" fill="#c4a767" fill-opacity="0.5" stroke-width="0"/><path d="M221.23,61.73c-.84,2.45-1.7,5.05-2.82,7.51-1.13,2.46-2.3,5.01-3.67,7.49-1.41,2.42-2.87,4.94-4.49,7.37-1.67,2.38-3.4,4.77-5.28,7.07-1.95,2.2-3.97,4.45-6.12,6.7-2.2,2.2-4.45,4.46-6.83,6.72-11.83,11.1-22.47,19.96-30.16,26.32-7.63,6.27-12.36,10.16-12.36,10.16s1.19-.6,3.35-1.82c2.14-1.24,5.31-3.07,9.22-5.62c7.82-5.11,18.73-12.93,30.54-25.11c2.4-2.45,4.64-4.89,6.77-7.34c2.18-2.4,4.15-4.89,6.06-7.36c3.82-5.07,6.99-10.44,9.64-15.73c2.63-5.31,4.71-10.61,6.2-15.78.78-2.5,1.36-5.14,1.8-7.63.22-1.25.4-2.47.53-3.67.01-.1.01-.21.01-.32-.11,1.18-.29,2.35-.51,3.54-.48,2.45-1.04,5.09-1.88,7.48c0,0,0,.02,0,.02s0,0,0,0Z" fill="#c4a767" fill-opacity="0.5" stroke-width="0"/><path d="M223.67,47.98c.01.33.01.66.01.98.01-.33,0-.66-.01-.98c0,0,0,0,0,0Z" fill="#c4a767" fill-opacity="0.5" stroke-width="0"/><path d="M223.63,50.59c.02-.23.01-.46.02-.69-.01.27-.02.53-.03.8.01-.04.01-.07.01-.11c0,0,0,0,0,0Z" fill="#c4a767" fill-opacity="0.5" stroke-width="0"/><path d="M223.64,46.94c.02.34.02.69.03,1.04c0-.21,0-.41-.01-.61c0,0-.02-.43-.02-.43s0,0,0,0Z" fill="#c4a767" fill-opacity="0.5" stroke-width="0"/><path d="M223.68,48.96c-.01.31-.01.62-.03.94.01-.32.02-.63.03-.94c0,0,0,0,0,0Z" fill="#c4a767" fill-opacity="0.5" stroke-width="0"/><path d="M234.4,46.04c.01-.18,0-.37.01-.56-.01.18,0,.37-.01.56c0,0,0,0,0,0Z" fill="#c4a767" fill-opacity="0.5" stroke-width="0"/><path d="M234.42,45.5c.02-.59.04-1.19.04-1.77c0,.58-.01,1.18-.04,1.77c0,0,0,0,0,0Z" fill="#c4a767" fill-opacity="0.5" stroke-width="0"/><path d="M231.39,61.2c-1.14,3.18-2.33,6.56-3.84,9.73-1.52,3.13-3.09,6.47-4.98,9.5-7.39,12.51-17.4,24.47-29.92,36.11-7.72,7.38-15.05,13.29-21.72,18.71-6.67,5.2-12.73,9.62-17.76,13.28-8.59,6.03-14.35,10.08-15.88,11.15.36-.56.73-1.13,1.09-1.68.01.03,0,.06,0,.06s.02-.03.01-.09c4.01-6.21,7.91-12.36,11.52-18.52c2.46-4.23,4.88-8.41,7.18-12.54c1.92-1.13,5.94-3.67,11.48-7.96c3.92-3.09,8.62-7.11,13.68-12.4c5.08-5.28,10.47-11.89,15.69-20.25c4.24-6.71,7.54-13.83,10.21-20.93c1.24-3.64,2.43-7.16,3.24-10.85.94-3.58,1.48-7.32,1.97-10.91c1.64-12.77-.09-25.43-3.28-35.31c3.12,9.83,4.39,22.06,2.56,34.21-2.15,13.95-7.65,27.89-16.09,40.39-5.14,7.82-10.41,14.26-15.27,19.76-1.22,1.35-2.4,2.67-3.54,3.95-1.18,1.23-2.33,2.41-3.43,3.56-2.18,2.29-4.27,4.32-6.17,6.15-3.71,3.66-6.88,6.41-8.97,8.37-.65.58-1.21,1.05-1.68,1.47c2.21-3.97,4.32-7.91,6.3-11.79c2.1-4.07,3.99-8.1,5.8-12.04.9-1.97,1.78-3.91,2.64-5.81.81-1.94,1.61-3.82,2.38-5.68c1.47-3.64,2.8-7.18,3.97-10.6c0,0,.01.03.01.03s.01-.04.02-.09c1.24-3.6,2.31-7.08,3.2-10.39c1.76-6.46,3.07-12.24,3.66-17.18.13-1,.27-1.95.38-2.87.06-.17.11-.34.17-.55.29-1.15.7-2.85,1.11-5.04s.59-4.91.7-8.04c-.04-1.58-.14-3.26-.27-5.04-.1-1.78-.55-3.65-.91-5.6-.26-1.57-.74-3.07-1.17-4.51-.46-1.43-.81-2.84-1.34-4.13-1.12-2.58-1.95-5.01-3.15-7.05-2.09-4.22-4.3-7.22-5.62-9.66c0,0-.07-.12-.07-.12c1.32,2.42,3.22,5.51,4.76,9.77c1.69,4.16,3,9.39,3.84,15.39c1.02,7.44,1.06,13.8,1.34,18.4.02,2.28.08,4.13.16,5.41.03,1.26.06,1.97.06,1.97s.12-.28.28-.8c-.11.8-.23,1.61-.35,2.47-.33,2.7-.9,5.65-1.63,8.82.02-.34.05-.73.08-1.26.03-1.34.21-3.24.07-5.62-.15-4.72-.94-11.25-3.38-17.88-1.09-2.66-1.99-5.06-3.15-7.19-.53-1.06-1.04-2.07-1.53-3.04-.55-.93-1.07-1.84-1.58-2.69-.91-1.74-1.93-3.2-2.71-4.59-.38-.68-.71-1.37-1.01-2.01-.31-.58-.5-1.13-.59-1.64.09.48.24,1,.49,1.55.27.65.57,1.36.88,2.11.66,1.49,1.53,3.11,2.24,5.05.38.95.84,1.95,1.25,3.01.36,1.07.74,2.21,1.14,3.38.45,1.17.79,2.44,1.13,3.75.32,1.32.81,2.66,1.08,4.11c1.72,7.09,2.78,13.04,3.88,17.24.7,3.42,1.36,5.63,1.58,6.31-.57,2.45-1.25,5.04-2.01,7.74-.82,2.97-1.78,6.06-2.87,9.26.05-.37.09-.8.17-1.31.24-1.66.37-4.12.5-7.11.16-5.98-.11-14.32-2.45-22.96-1.8-6.96-4.15-12.42-6.32-16.7-1.67-3.58-3.45-6.29-4.56-8.67c1.05,2.39,2.51,5.29,3.82,9.09c1.71,4.65,3.46,10.57,4.59,17.9c1.4,9.05,2.25,16.9,2.9,22.38.36,2.77.65,4.93.85,6.41.11.78.2,1.36.26,1.74-1.23,3.53-2.61,7.2-4.16,10.95-.79,1.85-1.6,3.73-2.42,5.66-.88,1.89-1.76,3.82-2.67,5.78-1.83,3.91-3.74,7.95-5.86,11.99-2.22,4.31-4.62,8.69-7.13,13.12-.3.26-.45.4-.45.4s.12-.06.33-.18c-2.18,3.84-4.45,7.71-6.77,11.65-.64,1.08-1.31,2.16-1.97,3.24.19-1.12,1.13-6.72,1.92-15.25.88-9.53,1.44-22.83.01-36.97-1.15-11.38-2.94-20.5-4.75-27.52-.93-3.49-1.74-6.53-2.49-9.08-.15-.63-.3-1.26-.45-1.88-.18-.58-.33-1.13-.44-1.67-.05-.27-.1-.53-.13-.79.02.21.03.41.06.63.19,1.09.51,2.25.72,3.61.59,2.62,1.22,5.77,1.87,9.44c1.28,7.34,2.31,16.96,2.69,28.8.48,14.66.43,27.52.61,36.56.09,8.23.3,13.34.33,14.2-2.85,4.66-5.83,9.34-8.9,14.03.14-2.53.38-7.92.4-15.29-.03-2.6-.08-5.44-.11-8.52-.08-3.04-.16-6.32-.25-9.79-.13-1.74-.04-3.47-.05-5.22.08-1.93.17-3.97.14-5.93-.02-1.95-.05-3.94-.08-5.98-.08-2.01-.16-4.05-.25-6.15-.67-13.3-2.01-24.14-3.08-32.61-.91-7.37-1.76-12.98-1.22-16.8-.58,3.79-.08,9.37.36,16.87.58,8.74,1.09,20.11.96,33.91.02,4.27-.1,8.39-.13,12.36-.06,1.96-.12,3.89-.17,5.76.02,2-.08,4.02.07,5.7.36,7.04.99,12.89,1.46,17.84.51,4.91.98,8.8,1.3,11.43.15,1.23.29,2.18.39,2.86-1.73,2.65-3.48,5.29-5.24,7.97-2.21,3.29-4.47,6.57-6.76,9.85.2-.88.52-2.31.92-4.31.71-3.41,1.63-8.39,2.53-14.52.48-3.09.76-6.43,1.06-10c.11-1.79.23-3.65.35-5.56.01-1.85.02-3.75-.03-5.71-.08-3.84-.17-7.85-.41-12.01-.14-4.03-.13-8.53-.16-13.09-.07-14.82-.17-27.38-.91-37.01-.53-9.66-1.57-16.56-.76-20.94-.74,4.33-.16,11.19-.31,20.99.01,9.92-.8,22.9-1.83,38.49-.24,4.81-.55,9.48-.43,13.91.15,4.3.31,8.38.43,12.11.08,1.88.16,3.68.24,5.45.02,1.81-.02,3.54-.04,5.24-.02,3.37-.01,6.49-.18,9.41-.4,9.51-.62,15.85-.68,17.85-.64.92-1.28,1.84-1.93,2.75-3.02,4.29-6.05,8.62-9.17,12.86-.24.33-.49.67-.73,1c.18-.93.45-2.39.82-4.34.61-3.57,1.46-8.7,2.2-15.08.82-6.36,1.61-14,2.04-22.37.2-4.2.35-8.58.31-13.11-.01-4.44.27-9.23.43-14.18.58-16,.59-29.39.11-39.9-.27-5.02-.53-9.57-.76-13.74-.12-1.96-.12-3.79-.15-5.4.02-.75.05-1.49.15-2.18-.1.62-.16,1.27-.2,1.92-.04,1.62-.07,3.44-.07,5.44.05,3.96.01,8.66-.06,14.05-.29,10.83-1.2,24.63-2.92,41.26-.45,5.11-.98,10.16-1.05,14.81-.07,4.56-.16,8.95-.28,13.09-.23,8.36-.42,15.71-.59,21.71-.17,9.62-.2,16.08-.21,18.32-2.78,3.83-5.63,7.61-8.49,11.35-2.01,2.74-4.1,5.42-6.15,8.1.23-2.81.64-8.95.7-17.36.03-5.85-.13-12.78-.68-20.39-.3-3.82-.65-7.77-1.17-11.87-.29-2.08-.51-4.03-.57-6.22-.08-2.18-.16-4.45-.25-6.77-.41-14.96-.84-27.72-1.29-38.15-.22-5.22-.35-9.91-.41-14.06.08-4.16-.02-7.86,1.05-11.02c0,0,.09-.29.09-.29-1.11,3.13-1.11,6.86-1.41,11.11-.15,4.36-.32,9.18-.5,14.48-.32,10.84-.96,24.13-1.59,39.87-.1,2.42-.17,4.79-.16,7.12-.01,2.33.12,4.68.36,6.68.43,4.16.84,8.1,1.23,11.82.8,7.47,1.51,14.05,2.17,19.5.64,5.44,1.21,9.77,1.61,12.71.2,1.42.37,2.51.48,3.27-1,1.31-2,2.63-2.97,3.94-.67.93-1.34,1.84-2.01,2.77-.1-.61-.33-2-.66-4.09-.45-2.94-.97-7.15-1.65-12.35-1.34-10.29-3.21-24.79-5.45-41.99-2.94-23.71-2.41-42.94-.73-55.92-.29,1.67-.6,3.45-.89,5.35-.41,4.22-1.34,9.19-1.62,14.52-1,10.79-1.51,23.78-.87,38.38.82,18.01,3.68,32.35,6.44,41.85c1.37,4.75,2.71,8.58,3.76,10.97.76,1.8,1.35,2.92,1.6,3.39-2.1,2.87-4.18,5.74-6.12,8.65-.15-.72-.36-1.76-.6-3.06-.52-2.75-1.27-6.75-2.19-11.68-.45-2.55-.93-5.35-1.45-8.35-.54-2.98-1.21-5.96-1.91-9.19-1.42-6.42-3.15-13.47-5.11-20.93-.78-3.01-1.29-6-1.98-8.81-.56-2.91-1.04-5.76-1.45-8.48-.89-5.47-1.5-10.52-1.87-15.27-.67-9.4-.21-17.75,2.46-24.06c0,0,.12-.28.12-.28-2.68,6.24-3.69,14.74-3.83,24.71-.07,5.01.14,10.43.48,16.26.17,2.93.42,5.96.67,9.08.41,3.05.75,6.37,1.24,9.62c1.33,8.03,2.94,15.19,4.62,21.51c1.44,6.8,3.22,12.34,4.85,16.78c1.67,4.42,3.22,7.72,4.33,9.93.55,1.1,1.04,1.96,1.37,2.52.01,0,0,.03.01.04-.12.19-.25.37-.37.55-1.48,2.49-2.98,4.93-4.46,7.36-.24-.54-.53-1.18-.88-1.97-1.02-2.34-2.48-5.77-4.19-10.16-1.77-4.5-3.49-9.7-5.3-15.94-.89-3.11-1.77-6.47-2.61-10.06-.42-1.8-.83-3.65-1.22-5.57-.46-1.8-1-3.51-1.49-5.3-3.24-11.52-5.15-22.02-5.56-31.35-.43-9.32.78-17.59,2.88-23.81c0,0,.08-.29.08-.29-2.04,6.18-3.84,14.55-4.21,24.44-.22,4.94-.11,10.27.31,15.92.22,2.84.52,5.75.89,8.73.2,1.49.41,3.01.65,4.54.1.8.28,1.48.33,2.38.07.89.14,1.79.21,2.69.79,8.87,2.63,16.13,4.82,22.09c2.28,6.04,5.01,10.87,7.39,14.58c2.42,3.71,4.59,6.36,6.15,8.11.57.63,1.04,1.14,1.43,1.54-.96,1.6-1.91,3.19-2.8,4.81-.2.38-.38.77-.58,1.15-.36-.48-.93-1.24-1.71-2.27-.69-.94-1.54-2.08-2.51-3.41-.93-1.33-1.98-2.86-3.15-4.54-2.29-3.47-4.99-7.68-7.8-12.73-1.41-2.52-2.84-5.25-4.26-8.2-.71-1.47-1.42-3-2.12-4.59-.68-1.56-1.32-3.14-1.96-4.8-2.04-5.33-3.48-10.75-4.34-16.14-.43-2.7-.72-5.41-.88-8.09-.4-2.33-.81-4.42-1.06-6.55-1.04-8.42-.77-15.85.24-21.62c0,0,.03-.27.03-.27-.98,5.74-1.78,13.34-1.58,22.37.03,1.12.09,2.27.17,3.44.08.53-.01,1.3-.06,2.04-.04.73-.08,1.46-.12,2.21-.12,2.96-.11,5.96.04,8.98.36,6.06,1.11,11.99,2.97,18.21c4.48,15.15,12.08,23.68,18.14,29.18c4.76,4.22,8.44,6.34,9.81,7.06-.85,1.67-1.71,3.36-2.54,5.02-1.05,2.14-2.21,4.2-3.04,6.39-.89,2.15-1.77,4.29-2.65,6.39-.43,1.06-.87,2.09-1.3,3.13-.38,1.05-.71,2.12-1.06,3.17-1.35,4.22-2.84,8.26-3.73,12.32-.51,2.01-1.01,3.99-1.49,5.93-.44,1.95-.71,3.89-1.06,5.77-2.7,15.1-2.54,27.84-1.6,36.47.49,4.32,1.04,7.65,1.53,9.84.47,2.22.81,3.26.81,3.26s-.01.02-.01.02c.22.72.92,1.47,1.41,1.17.25-.14.41-.45.47-.87.09-.33.1-.71-.01-1.1c0,0-.08-.26-.22-.76-.12-.55-.32-1.35-.57-2.4-.24-1.07-.47-2.43-.78-4.02-.27-1.61-.48-3.49-.77-5.6-.93-8.45-1.16-20.97,1.43-35.89.34-1.86.57-3.78,1.02-5.7.47-1.91.95-3.87,1.43-5.87.51-2.42,1.25-4.81,2.04-7.24.23.31.5.65.81,1.02c1.29,1.69,3.21,3.73,6.04,6.09c5.62,4.53,14.21,9.46,25.08,11.83c2.16.52,4.26,1.02,6.26,1.49c2.02.38,4,.64,5.86.96c3.74.56,7.09,1.28,10.18,1.66c6.13.64,11.1,1.4,14.76,2.17c0,0,.17.03.17.03-3.67-.72-8.5-1.87-14.58-3.28-3.01-.73-6.25-1.93-9.84-3.01-1.78-.58-3.66-1.12-5.59-1.78-1.89-.76-3.86-1.58-5.91-2.42-10.12-3.94-18.62-8.08-24.73-11.08-3.01-1.6-5.46-2.82-7.07-3.82-.46-.25-.85-.47-1.19-.66.45-1.37.9-2.76,1.33-4.16.35-1.03.65-2.09,1.05-3.13.42-1.03.83-2.07,1.25-3.11.65-1.61,1.32-3.23,1.99-4.87.74,1.45,2.86,5.16,6.9,9.21c2.59,2.56,5.96,5.28,10.17,7.62c4.25,2.35,9.19,4.26,14.87,5.49c9.14,1.99,17.17,2.43,23.58,2.59c3.16-.07,6.22-.01,8.81-.04c2.63-.15,4.85-.2,6.76-.15c0,0,.18-.01.18-.01-1.96-.04-4.2-.08-6.73-.13-2.57-.12-5.52-.51-8.73-.81-6.24-.93-13.85-2.42-22.24-5.59-10.39-3.84-18.81-8.52-24.72-12.24-4.65-2.97-7.68-5.35-8.75-6.23.16-.4.32-.79.48-1.19.8-2.18,1.97-4.2,2.98-6.34.4-.81.81-1.64,1.22-2.46c2.97,2.79,7.13,5.98,12.88,9.05c6.03,3.22,13.91,6.19,23.72,8.22c5.96,1.26,12.04,1.86,17.42,2.08c5.43.22,9.93,0,14.11-.19c1.01-.04,1.96-.08,2.87-.11.9-.06,1.74-.17,2.52-.24c1.54-.16,2.87-.32,3.95-.43c2.1-.25,3.23-.35,3.37-.51.04-.04-.43.12-.93,0-.54-.09-1.32-.19-2.34-.36-1.04-.12-2.32-.27-3.79-.44-.75-.07-1.55-.14-2.4-.21-.85-.12-1.76-.25-2.7-.37-3.92-.41-8.53-.89-13.61-1.43-5.07-.53-10.8-1.17-16.96-1.98-5.04-.66-9.44-1.39-13.48-2.29s-7.66-1.94-10.85-3.1c-6.17-2.25-10.77-4.85-13.76-7.68.66-1.32,1.3-2.62,1.97-3.96.42-.77.85-1.52,1.3-2.28.96.88,4.16,3.62,9.86,6.39c3.5,1.59,7.81,3.39,13.03,4.64c2.55.75,5.42,1.15,8.35,1.7c1.48.24,3.03.35,4.58.54c1.56.17,3.13.35,4.78.36c2.57.09,5.22.19,7.75.23c2.52.03,4.93.01,7.22-.07c2.3-.08,4.45-.21,6.51-.38.55-.08.94-.01,1.59-.23.63-.2,1.25-.39,1.87-.58c1.23-.4,2.44-.82,3.62-1.26c2.3-.66,4.66-1.84,6.79-2.73c2.14-.96,4.16-1.78,6.08-2.7c1.6-.87,3.1-1.69,4.52-2.46-4.8,2.35-10.42,4.58-16.69,6.2-2.26.59-4.6,1.1-7,1.52c0,0-1.81.3-1.81.3-.53,0-1.03-.04-1.56-.06-1.05-.07-2.11-.13-3.18-.2-4.35-.32-9.1-.88-14.19-1.78-1.59-.2-3.11-.55-4.61-.86-1.52-.32-2.97-.51-4.37-.79-2.76-.66-5.53-1.05-8.04-1.7-5.14-1.03-9.61-2.23-13.43-3.09-6.21-1.6-10.35-2.82-11.61-3.2.37-.66.78-1.32,1.16-1.97.05.05.09.08.09.08s-.02-.05-.06-.13c1.17-1.97,2.36-3.93,3.56-5.93c2.06.59,4.44,1.28,7.18,2.07c2.81.77,5.98,1.64,9.57,2.61c7.23,1.87,16.12,3.93,26.72,5.54.42.05.79.14,1.24.16c0,0,1.37,0,1.37,0c.92-.01,1.83-.03,2.74-.06c1.83-.07,3.65-.2,5.45-.39c3.63-.37,7.18-.99,10.62-1.77c6.88-1.55,13.25-3.81,18.63-6.26c2.7-1.27,5.14-2.38,7.27-3.52c2.15-1.29,3.98-2.41,5.49-3.31c2.98-1.9,4.62-2.95,4.62-2.95s-1.57.61-4.4,1.7c-1.43.57-3.17,1.25-5.19,2.05-1.99.66-4.26,1.4-6.79,2.18-10.05,3.15-23.64,5.84-38.68,7.03-1.52.12-2.99.2-4.42.27-1.4.03-2.93.21-4.09.04-2.5-.23-4.87-.45-7.13-.65-4.57-.45-8.76-.96-12.55-1.45-7.66-1.06-13.39-2-17.57-3.27c0,0-.08-.03-.08-.03.45-.74.89-1.5,1.34-2.26c2.7-4.17,5.72-8.23,8.68-12.37c3.1-4.14,6.24-8.31,9.38-12.5c1.33-1.76,2.65-3.53,3.96-5.31.67.08,1.89.18,3.64.21c2.82.06,6.97-.08,12.42-.86c10.83-1.45,26.94-5.69,46-16.17c15.34-8.66,28.24-18.38,38.73-27.86c10.5-9.46,18.58-18.74,24.57-25.91c0,0,.28-.35.28-.35-5.97,7.25-14.16,15.92-24.66,24.45-10.49,8.55-23.27,17.03-38.23,24.46-18.42,8.98-34.3,14.54-45.52,17.69-9.02,2.58-15.05,3.76-17.08,4.13c1.77-2.38,3.53-4.78,5.26-7.2c2.18-2.99,4.29-6.02,6.41-9.05c1.11-.13,6.88-.92,16.24-3.47c5.24-1.44,11.58-3.51,18.88-6.59c7.22-3.15,15.75-7.67,24.41-14.27c14.05-10.45,25.61-21.44,34.87-32.01c4.63-5.29,8.66-10.53,12.1-15.63c1.76-2.48,3.27-5.13,4.68-7.62.78-1.37,1.5-2.78,2.14-4.21-.57,1.29-1.24,2.54-1.94,3.73-1.43,2.43-2.95,5.01-4.73,7.38-3.49,4.86-7.59,9.7-12.25,14.56-9.33,9.67-20.97,19.43-34.82,28.77-8.61,5.87-16.39,10.19-23.63,13.66-7.18,3.44-13.58,6.27-18.95,8.56-5.34,2.23-9.66,4.04-12.63,5.28-2.26.93-3.74,1.54-4.32,1.78.88-1.26,1.76-2.53,2.64-3.78c1.87-2.66,3.71-5.32,5.52-8c1.91-.47,7.05-1.85,14.72-4.83c9.78-3.92,23.86-10.25,39.74-22.45c12.78-9.81,23.35-20.32,31.53-30.9c7.9-10.17,13.47-20.55,17.16-29.53-3.69,8.87-9.4,18.66-17.28,27.73-8.31,9.64-18.81,18.95-31.41,27.62-15.59,10.67-29.38,18.41-39.32,23.92-7.47,4.1-12.73,6.9-14.89,8.05c1.03-1.53,2.06-3.05,3.07-4.57c1.19-1.83,2.38-3.65,3.56-5.47.57-.24,1.92-.82,3.99-1.78c2.81-1.28,6.89-3.27,11.98-6.09c5.1-2.87,11.2-6.63,18.07-11.46c6.8-5.14,14.42-11.18,22.11-19.11c12.42-12.68,22.44-25.66,29.57-39.13.89-1.69,1.77-3.3,2.57-5.01.77-1.74,1.53-3.43,2.26-5.09c1.5-3.28,2.61-6.88,3.7-10.18c1.05-3.37,1.76-6.93,2.4-10.24.28-1.89.49-3.83.58-5.72-.1,1.69-.3,3.4-.53,5.11-.64,3.3-1.44,6.72-2.49,10.04c0,0-.01-.02-.01-.02s0,0,0,0Z" fill="#c4a767" fill-opacity="0.5" stroke-width="0"/><path d="M234.45,43.73c0-.34-.02-.66-.03-.99.02.33.03.66.03.99c0,0,0,0,0,0Z" fill="#c4a767" fill-opacity="0.5" stroke-width="0"/><path d="M234.31,40.93c.06.59.09,1.2.11,1.81-.01-.39-.01-.8-.04-1.18c0,0-.07-.63-.07-.63s0,0,0,0Z" fill="#c4a767" fill-opacity="0.5" stroke-width="0"/><path d="M233.92,81.46c-.14.35-.3.73-.45,1.09.2-.5.45-1.01.64-1.51c0,0-.17.42-.17.42s-.02,0-.02,0s0,0,0,0Z" fill="#c4a767" fill-opacity="0.5" stroke-width="0"/><path d="M236.89,94.26c-.12.45-.26.88-.41,1.32.09-.28.19-.53.27-.81c0,0,.14-.51.14-.51s0,0,0,0Z" fill="#c4a767" fill-opacity="0.5" stroke-width="0"/><path d="M235.54,98.03c-.04.1-.08.2-.12.3.04-.09.08-.2.12-.3c0,0,0,0,0,0Z" fill="#c4a767" fill-opacity="0.5" stroke-width="0"/><path d="M236.16,96.51c.12-.31.2-.62.31-.93-.11.31-.2.62-.31.93c0,0,0,0,0,0Z" fill="#c4a767" fill-opacity="0.5" stroke-width="0"/><path d="M236.16,96.51c-.2.51-.4,1.02-.62,1.53.22-.51.43-1.01.62-1.53c0,0,0,0,0,0Z" fill="#c4a767" fill-opacity="0.5" stroke-width="0"/><path d="M222.22,160.9c-.54.76-1.13,1.49-1.74,2.2.62-.71,1.22-1.41,1.74-2.2c0,0,0,0,0,0Z" fill="#c4a767" fill-opacity="0.5" stroke-width="0"/><path d="M217.82,165.9c-1.79,1.81-3.75,3.36-5.81,5.18-4.17,3.33-8.83,6.85-14.09,10.23-2.61,1.78-5.36,3.49-8.26,5.2-2.89,1.72-5.91,3.48-9.07,5.25-6.25,3.38-12.99,6.35-20.15,8.78-17.63,5.82-32.5,8.35-43.1,9.99-10.57,1.57-16.87,2.12-16.87,2.12s1.34.34,3.92.73c2.59.38,6.42.79,11.41.85c10,.07,24.78-1.03,43.37-8.4c7.46-3.08,14.48-6.68,20.94-10.72c6.42-4.16,12.24-8.04,17.51-12.05c5.28-3.86,9.95-7.77,14.12-11.34c3.24-3.05,6.24-5.67,8.74-8.62-.04.04-.06.09-.1.13-.79.97-1.67,1.78-2.56,2.67c0,0,0,0,0,0Z" fill="#c4a767" fill-opacity="0.5" stroke-width="0"/><path d="M222.37,160.71c0,0,.22-.41.22-.41-.12.21-.24.42-.37.61.05-.07.1-.13.15-.2c0,0,0,0,0,0Z" fill="#c4a767" fill-opacity="0.5" stroke-width="0"/><path d="M199.6,197.27c-2.25,1.38-4.85,2.87-7.7,4.53-11.41,6.41-27.12,13.06-44.72,17.77-14.19,3.83-25.82,5.29-35.2,5.97-8.82.21-15.88.16-21.08-.27c0,0-.25-.01-.25-.01c5.2.37,12.03,1.02,20.53,1.76c2.06.23,4.48.25,7.01.25s5.22-.06,8.07-.2c5.67-.31,12.04-.93,19.08-2.22c17.46-3.04,34.33-11.13,46.21-19.34c2.97-2.19,5.63-4.15,7.97-5.88c2.32-1.92,4.3-3.8,5.9-5.23c1.59-1.45,2.81-2.6,3.64-3.4.82-.79,1.25-1.21,1.25-1.21s-1.74,1.28-4.94,3.46c-1.59,1.09-3.54,2.53-5.79,4.02c0,0,.02,0,.02,0s0,0,0,0Z" fill="#c4a767" fill-opacity="0.5" stroke-width="0"/><path d="M174.52,239.49c-.09.05-.19.1-.28.15c0,0,.27-.15.27-.15s.01,0,.01,0s0,0,0,0Z" fill="#c4a767" fill-opacity="0.5" stroke-width="0"/><path d="M168.65,242.64c2.02-.99,3.89-2,5.59-3-1.71.89-3.57,1.91-5.59,3c0,0,0,0,0,0Z" fill="#c4a767" fill-opacity="0.5" stroke-width="0"/></g></g></g></svg>
