<svg width="47" height="47" viewBox="0 0 47 47" fill="none" xmlns="http://www.w3.org/2000/svg">
<path fill-rule="evenodd" clip-rule="evenodd" d="M23.5 37C16.0442 37 10 30.9558 10 23.5C10 16.0442 16.0442 10 23.5 10C30.9558 10 37 16.0442 37 23.5C37 30.9558 30.9558 37 23.5 37ZM25.5017 27.4425C25.8096 27.7196 25.8346 28.1938 25.5575 28.5017C25.2804 28.8096 24.8062 28.8346 24.4983 28.5575L19.4983 24.0575C19.3402 23.9152 19.25 23.7126 19.25 23.5C19.25 23.2874 19.3402 23.0848 19.4983 22.9425L24.4983 18.4425C24.8062 18.1654 25.2804 18.1904 25.5575 18.4983C25.8346 18.8062 25.8096 19.2804 25.5017 19.5575L21.1211 23.5L25.5017 27.4425Z" fill="#C4A767" fill-opacity="0.15"/>
</svg>
