<svg width="89" height="96" viewBox="0 0 89 96" fill="none" xmlns="http://www.w3.org/2000/svg">
<path fill-rule="evenodd" clip-rule="evenodd" d="M60.7653 40.922L41.9668 37.3547L42.1106 37.365L60.9365 40.9357L60.7653 40.922Z" fill="black"/>
<path fill-rule="evenodd" clip-rule="evenodd" d="M21.0186 19.5523L21.0425 18.6245L21.1041 17.7139L21.2103 16.8169L21.3575 15.9405L21.5424 15.0846L21.7683 14.2459L22.0251 13.4311L22.3195 12.6368L22.6516 11.8631L23.0145 11.1168L23.4082 10.3978L23.8361 9.70285L24.2914 9.03526L24.7776 8.39507L25.2911 7.78568L25.8286 7.2071L26.3935 6.65934L26.9789 6.14581L27.5917 5.66652L28.2216 5.21804L28.8755 4.81064L29.55 4.43405L30.2381 4.09855L30.9468 3.80412L31.6691 3.54736L32.4052 3.33168L33.1584 3.1605L33.9218 3.03041L51.2996 0.538086L50.3992 0.692144L49.5159 0.894132L48.6498 1.14747L47.7973 1.44874L46.9654 1.79794L46.154 2.19165L45.3632 2.63328L44.5963 3.116L43.8534 3.6398L43.1311 4.20468L42.4429 4.81064L41.7788 5.45426L41.142 6.13554L40.5429 6.85106L39.9712 7.60423L39.4337 8.38822L38.9338 9.20644L38.4682 10.0555L38.0403 10.9353L37.6534 11.8391L37.3042 12.7737L36.9995 13.7358L36.7359 14.7217L36.5168 15.7282L36.3457 16.7587L36.2224 17.8132L36.1471 18.8847L36.1197 19.9768L36.1368 20.8464L36.1848 21.7091L36.2669 22.5582L36.3799 23.4038L36.5203 24.2323L36.6949 25.0539L36.8968 25.8619L37.1262 26.6595L37.3864 27.4401L37.6706 28.207L37.9855 28.9567L38.3245 29.6928L38.6908 30.4083L39.0776 31.1101L39.4919 31.7914L39.9301 32.4556L40.3923 33.0958L40.875 33.7154L41.3782 34.3145L41.9055 34.8931L42.4498 35.4443L43.0181 35.9749L43.6001 36.4782L44.2061 36.9541L44.8291 37.406L45.4659 37.8305L46.1232 38.2242L46.7942 38.5905L47.4789 38.926L48.1808 39.2341L48.8963 39.5046L49.6255 39.7477L49.735 39.8161L49.8241 39.9017L49.896 40.0044L49.9576 40.1208L50.0021 40.2441L50.0329 40.3776L50.05 40.5111L50.0534 40.6412L50.0363 40.8432L49.985 41.0315L49.8994 41.2061L49.7898 41.3601L49.6563 41.4902L49.5022 41.5895L49.3345 41.658L49.153 41.6922L32.0971 38.0085L32.2511 37.9811L32.3949 37.9229L32.525 37.8373L32.638 37.7278L32.7338 37.5943L32.8057 37.4471L32.8468 37.2862L32.8639 37.1184L32.8605 37.0054L32.8434 36.8925L32.8194 36.7795L32.7783 36.6733L32.7304 36.5741L32.6654 36.4885L32.5901 36.4132L32.4976 36.3584L31.8814 36.153L31.272 35.9202L30.6763 35.66L30.0909 35.3758L29.5192 35.0609L28.9645 34.7254L28.4202 34.3659L27.893 33.9825L27.3795 33.5785L26.883 33.1505L26.4003 32.6986L25.9347 32.2296L25.4897 31.7401L25.0617 31.2299L24.6509 30.7027L24.2572 30.1584L23.8875 29.5935L23.5348 29.0149L23.2028 28.4192L22.8946 27.8099L22.6071 27.1833L22.34 26.5466L22.097 25.8961L21.8744 25.2319L21.6793 24.5541L21.5081 23.8694L21.3609 23.171L21.2377 22.4623L21.1452 21.7468L21.0768 21.0244L21.0322 20.2918L21.0186 19.5523Z" fill="url(#paint0_linear_1409_43281)"/>
<path fill-rule="evenodd" clip-rule="evenodd" d="M42.9398 36.5161L43.1795 36.1874L43.4294 35.869L43.6827 35.5609L43.9463 35.2665L44.2134 34.9789L44.4872 34.705L44.7646 34.438L45.0487 34.1812L45.3397 33.9382L45.6341 33.7054L45.9354 33.4794L46.2401 33.2672L46.5482 33.0618L46.8598 32.87L47.1781 32.6852L47.4965 32.5106L47.8218 32.3497L48.147 32.1956L48.4757 32.0552L48.8077 31.9217L49.1398 31.7985L49.4753 31.6855L49.8142 31.5862L50.1532 31.4938L50.4921 31.4116L50.8345 31.3363L51.1734 31.2747L51.5157 31.2233L51.8581 31.1822L52.2004 31.148L52.5428 31.1275L52.8851 31.1138L53.539 31.1206L54.1827 31.1651L75.1346 33.6369L74.378 33.5856L73.6077 33.5787L73.2072 33.5958L72.8032 33.6198L72.3992 33.6574L71.9987 33.7088L71.5947 33.7704L71.1941 33.8423L70.7936 33.9279L70.393 34.0238L69.9959 34.1333L69.5988 34.2531L69.2016 34.3867L68.8114 34.5304L68.4211 34.6845L68.0342 34.8523L67.6508 35.0337L67.2708 35.2254L66.8942 35.4274L66.521 35.6431L66.1547 35.869L65.7918 36.1087L65.4324 36.362L65.0797 36.6256L64.7339 36.9029L64.3916 37.1905L64.0561 37.4918L63.7274 37.8033L63.4056 38.1251L63.0907 38.4641L62.7825 38.8133L62.4847 39.1762L62.1937 39.5493L61.9095 39.9328L61.824 40.0526L61.7213 40.2032L61.598 40.3675L61.4679 40.5319L61.331 40.6825L61.194 40.8092L61.0605 40.8982L60.9373 40.9359L42.1113 37.3651L42.2175 37.3377L42.3339 37.259L42.4503 37.1529L42.5667 37.0228L42.6762 36.8824L42.7789 36.742L42.8679 36.6154L42.9398 36.5161Z" fill="black"/>
<path fill-rule="evenodd" clip-rule="evenodd" d="M66.9767 70.2481L47.247 62.2815L46.843 62.1172L46.4459 61.9323L46.0522 61.7304L45.6653 61.5147L45.2887 61.2819L44.9156 61.032L44.5527 60.7684L44.1966 60.4876L43.8474 60.1898L43.5085 59.8782L43.1764 59.553L42.858 59.2107L42.5465 58.8546L42.2452 58.4849L41.9508 58.098L41.6701 57.6975L41.403 57.2832L41.1429 56.8553L40.8964 56.4136L40.8587 56.3417L40.8039 56.2562L40.7457 56.1569L40.6773 56.0542L40.6019 55.9412L40.5266 55.8316L40.4479 55.7221L40.3691 55.6228L58.8835 62.4116L58.976 62.5315L59.0684 62.6581L59.1608 62.7882L59.2464 62.9183L59.3252 63.045L59.3971 63.158L59.4587 63.2607L59.5032 63.3428L59.7942 63.8632L60.0989 64.3665L60.4173 64.856L60.7459 65.3251L61.0917 65.7804L61.4443 66.2152L61.8106 66.6363L62.1872 67.0368L62.5775 67.4203L62.9781 67.7866L63.3855 68.1358L63.8031 68.4679L64.2345 68.776L64.6727 69.0704L65.1178 69.3443L65.5697 69.601L66.0319 69.8373L66.5009 70.0529L66.9767 70.2481Z" fill="black"/>
<path fill-rule="evenodd" clip-rule="evenodd" d="M28.017 80.4056L28.1471 80.0153L28.2738 79.6284L28.4039 79.2416L28.5339 78.8513L28.664 78.461L28.7907 78.0742L28.9208 77.6839L29.0475 77.297L29.1741 76.9067L29.3008 76.5199L29.4309 76.1296L29.5576 75.7427L29.6808 75.3525L29.8075 74.9656L29.9307 74.5753L30.054 74.1885L30.1772 73.7982L30.3005 73.4079L30.4203 73.021L30.5401 72.6342L30.66 72.2473L30.7798 71.8605L30.8996 71.4736L31.0126 71.0867L31.129 70.6999L31.2454 70.313L31.3549 69.9262L31.4679 69.5427L31.5775 69.1559L31.687 68.7724L31.7966 68.389L31.9027 68.0022L31.954 67.8173L32.0054 67.629L32.0533 67.4441L32.1047 67.2558L32.1526 67.071L32.2005 66.8861L32.2485 66.7012L32.2964 66.5163L32.3409 66.3315L32.3888 66.1466L32.4333 65.9652L32.4778 65.7803L32.5189 65.5954L32.5634 65.414L32.6045 65.2291L32.6456 65.0442L32.6867 64.8628L32.7243 64.6779L32.7654 64.493L32.8031 64.3082L32.8407 64.1233L32.875 63.9419L32.9126 63.757L32.9469 63.5721L32.9811 63.3838L33.0153 63.199L33.0461 63.0141L33.077 62.8258L33.1078 62.6409L33.1386 62.4526L33.1694 62.2678L33.1968 62.076L33.2105 61.9973L33.2207 61.9186L33.2344 61.8398L33.2447 61.7611L33.255 61.6823L33.2687 61.6036L33.2789 61.5283L33.2892 61.4495L33.3235 61.2167L33.3543 60.9805L33.3851 60.7409L33.4125 60.5012L33.4364 60.2616L33.4604 60.0219L33.4809 59.7823L33.4981 59.5426L33.5152 59.2996L33.5254 59.0599L33.5357 58.8203L33.5426 58.584L33.546 58.3444L33.5426 58.1116L33.5391 57.8754L33.5289 57.646L33.5254 57.5673L33.522 57.4748L33.5117 57.3687L33.5049 57.2523L33.4912 57.1291L33.4775 56.999L33.4638 56.8689L33.4433 56.7388L50.7389 63.7262L50.7594 63.8802L50.7766 64.0343L50.7937 64.1849L50.8074 64.3321L50.8176 64.4691L50.8279 64.5923L50.8348 64.7019L50.8382 64.7943L50.8485 65.0648L50.8553 65.3387V65.616L50.8519 65.8967L50.845 66.1774L50.8348 66.4581L50.8211 66.7389L50.8005 67.023L50.78 67.3072L50.756 67.5879L50.7286 67.8721L50.6978 68.1562L50.667 68.4369L50.6294 68.7142L50.5917 68.9916L50.554 69.2689L50.5438 69.3579L50.5301 69.4503L50.5164 69.5393L50.5027 69.6352L50.489 69.7276L50.4753 69.82L50.4616 69.9125L50.4479 70.0083L50.4137 70.2274L50.3794 70.45L50.3452 70.6691L50.3075 70.8882L50.2699 71.1073L50.2322 71.3264L50.1911 71.5455L50.1501 71.7612L50.109 71.9803L50.0679 72.1994L50.0268 72.4151L49.9823 72.6308L49.9378 72.8499L49.8899 73.0655L49.8454 73.2812L49.7974 73.4969L49.7495 73.7126L49.7016 73.9283L49.6502 74.1474L49.5989 74.3631L49.5441 74.5787L49.4927 74.7978L49.4414 75.0135L49.3866 75.2292L49.3318 75.4483L49.2736 75.664L49.2189 75.8831L49.1607 76.1022L49.1025 76.3213L49.0443 76.5404L48.9861 76.7595L48.9244 76.9786L48.7978 77.4305L48.6711 77.8824L48.5444 78.3343L48.4143 78.7897L48.2808 79.2416L48.1473 79.6969L48.0138 80.1488L47.8768 80.6041L47.7433 81.0595L47.603 81.5148L47.4626 81.9701L47.3222 82.4254L47.1819 82.8842L47.0381 83.3395L46.8943 83.7949L46.7505 84.2536L46.6033 84.7089L46.4595 85.1677L46.3089 85.623L46.1617 86.0818L46.0144 86.5405L45.8638 86.9958L45.7166 87.4546L45.5625 87.9099L45.4153 88.3687L45.2647 88.8274L45.1106 89.2828L44.96 89.7415L44.8094 90.1968L44.6553 90.6556L44.5047 91.1109L44.3506 91.5697L44.2684 91.823L44.1829 92.0764L44.0973 92.3297L44.0151 92.5865L43.9295 92.8398L43.8439 93.0931L43.7583 93.3465L43.6762 93.6032L43.5906 93.8566L43.505 94.1099L43.4228 94.3633L43.3373 94.6166L43.2551 94.8699L43.1695 95.1233L43.0873 95.3732L43.0052 95.6265L26.8701 83.8531L26.942 83.6408L27.0139 83.4251L27.0858 83.2094L27.1543 82.9972L27.2262 82.7815L27.2981 82.5658L27.37 82.3501L27.4418 82.1344L27.5137 81.9188L27.5856 81.7031L27.6575 81.4874L27.7294 81.2683L27.8013 81.0526L27.8732 80.8369L27.9451 80.6213L28.017 80.4056Z" fill="url(#paint1_linear_1409_43281)"/>
<path fill-rule="evenodd" clip-rule="evenodd" d="M19.8242 74.4076L7.16748 65.818L6.48277 65.3113L5.82888 64.7704L5.2058 64.1918L4.61011 63.5756L4.04865 62.9286L3.518 62.2473L3.02159 61.5352L2.56284 60.7889L2.14175 60.0151L1.75831 59.2106L1.41596 58.3787L1.11469 57.516L0.854504 56.6327L0.638822 55.722L0.467646 54.7874L0.344399 53.8288L0.272505 52.8497L0.245117 51.85L0.272505 50.8435L0.344399 49.8507L0.467646 48.8682L0.638822 47.9027L0.854504 46.951L1.11469 46.0164L1.41596 45.1023L1.75831 44.2053L2.14175 43.3323L2.56284 42.4764L3.02159 41.648L3.518 40.8434L4.04865 40.0629L4.61011 39.3097L5.2058 38.5873L5.82888 37.8924L6.48277 37.2282L7.16748 36.5983L7.87614 36.0026L8.60878 35.4377L9.36538 34.9105L10.1459 34.4243L10.947 33.9724L11.7687 33.5616L12.604 33.1919L13.4599 32.8632L14.3329 32.579L15.2162 32.3428L16.1131 32.1511L17.0238 32.0039L17.9447 31.908L18.8725 31.8635L19.3484 31.8601L19.8174 31.8704L20.2898 31.8943L20.752 31.932L21.2142 31.9799L21.6729 32.045L22.1248 32.1203L37.4211 34.7633L36.8871 34.6742L36.3496 34.5989L35.8052 34.5407L35.2575 34.4962L34.7097 34.4688L34.1517 34.4551L33.5936 34.462L32.5015 34.5133L31.4197 34.6263L30.3516 34.7975L29.2937 35.0269L28.2529 35.3042L27.2259 35.6397L26.2194 36.0231L25.2334 36.4579L24.268 36.9406L23.3265 37.4713L22.409 38.0464L21.5189 38.6661L20.6561 39.3302L19.8242 40.0321L19.0197 40.775L18.2494 41.5555L17.5134 42.3703L16.815 43.2228L16.1542 44.1095L15.5277 45.0235L14.9457 45.9719L14.4082 46.9476L13.9118 47.9507L13.4599 48.9811L13.0559 50.0356L12.6999 51.114L12.3952 52.2095L12.1419 53.3324L11.9433 54.469L11.7961 55.6228L11.7105 56.7902L11.6797 57.9747L11.7105 59.1524L11.7961 60.3061L11.9433 61.4291L12.1419 62.5314L12.3952 63.5996L12.6999 64.6403L13.0559 65.6537L13.4599 66.6328L13.9118 67.5777L14.4082 68.4918L14.9457 69.3682L15.5277 70.207L16.1542 71.0081L16.815 71.7715L17.5134 72.4939L18.2494 73.1752L19.0197 73.8119L19.8242 74.4076Z" fill="url(#paint2_linear_1409_43281)"/>
<path fill-rule="evenodd" clip-rule="evenodd" d="M48.5754 41.3055C49.0718 41.2712 49.4792 40.8022 49.4792 40.2544C49.4792 39.9052 49.356 39.5081 49.0513 39.3575C41.2046 36.9576 35.5455 28.902 35.5455 19.5866C35.5421 7.85424 44.3337 -0.892855 54.4296 0.0725774C63.8546 0.976387 71.0919 10.1343 71.0919 20.4973C71.0919 28.3029 67.0179 35.6943 60.4653 38.5461C60.0819 38.7173 59.5101 39.0665 59.5101 39.6211C59.5101 40.1757 59.8936 40.5728 60.3592 40.5523C60.6741 40.5386 61.1397 39.8196 61.3315 39.5492C64.3099 35.3691 68.7537 33.2876 73.0296 33.1951C81.2906 33.0137 87.6686 40.8022 87.6686 50.5319C87.6686 60.2615 81.2906 69.2174 73.0365 70.556C67.3705 71.477 61.9477 68.5943 58.9247 62.9592C58.8186 62.7641 58.5516 62.3327 58.3051 62.028C58.175 62.5244 58.0996 63.2023 58.0757 63.4899C57.9696 64.8353 58.0346 66.2698 58.1989 67.5776C58.2606 68.0158 58.329 68.454 58.3907 68.8888C58.7672 71.1346 59.4109 73.2161 60.099 75.2771C61.4376 79.1765 62.9165 82.98 64.3339 86.7185C64.7105 87.7318 65.0905 88.7349 65.4739 89.7312C64.5393 89.4881 63.6115 89.2416 62.6701 88.9951C56.6755 87.4066 52.1872 87.838 45.7476 92.7302C44.9944 93.3053 43.7688 95.0479 43.0054 95.623C42.8034 95.4792 42.663 95.3731 42.437 95.2122C42.8821 93.8702 43.3237 92.5419 43.7722 91.1827C45.395 86.3145 47.0177 81.4052 48.3426 76.5917C48.9931 74.2397 49.5135 71.9836 49.8661 69.618C49.9037 69.3681 49.9414 69.1181 49.9722 68.8785C50.1879 67.4132 50.3248 65.8487 50.2564 64.404C50.2495 64.1917 50.2187 63.7432 50.1571 63.3392C50.003 63.5926 49.8729 63.8528 49.7976 63.9931C46.5898 71.0764 40.3487 75.8591 33.0155 77.0504C21.3173 78.9505 11.1016 70.2684 11.1016 57.5877C11.1016 44.907 21.3139 34.3317 33.0155 34.075C38.9964 33.9415 44.385 36.5913 47.9626 41.1274C48.0619 41.237 48.4282 41.3055 48.5754 41.3055Z" fill="url(#paint3_linear_1409_43281)"/>
<path fill-rule="evenodd" clip-rule="evenodd" d="M48.9207 41.6651L31.9023 37.9849L31.9742 37.9986L32.0427 38.0054L32.0975 38.0088L49.1535 41.6925L49.0884 41.6891L49.0097 41.6788L48.9207 41.6651Z" fill="black"/>
<path fill-rule="evenodd" clip-rule="evenodd" d="M49.1535 41.6924C49.6499 41.6582 50.0573 41.1892 50.0573 40.6414C50.0573 40.2922 49.9341 39.8951 49.6294 39.7479C41.7827 37.3446 36.1236 29.289 36.1236 19.977C36.1236 8.23778 44.9152 -0.509311 55.0112 0.459546C64.4361 1.35993 71.6735 10.5213 71.6735 20.8843C71.6735 28.6899 67.5995 36.0813 61.0468 38.9331C60.6668 39.1042 60.0917 39.4534 60.0917 40.0046C60.0917 40.5558 60.4751 40.9598 60.9407 40.9358C61.2557 40.9187 61.7213 40.2032 61.913 39.9327C64.8915 35.7526 69.3318 33.6745 73.6112 33.5787C81.8721 33.3972 88.2501 41.1857 88.2501 50.9154C88.2501 60.645 81.8721 69.601 73.618 70.9396C67.9521 71.8605 62.5327 68.9779 59.5063 63.3428C59.4001 63.1476 59.1297 62.7163 58.8866 62.4116C58.7565 62.908 58.6812 63.5858 58.6572 63.87C58.5511 65.2154 58.6196 66.6499 58.7805 67.9577C58.8421 68.3959 58.9106 68.8341 58.9722 69.2689C59.3488 71.5181 59.989 73.5962 60.6805 75.6572C62.0191 79.5566 63.4981 83.3601 64.9154 87.0986C65.292 88.1119 65.672 89.115 66.0555 90.1113C65.1208 89.8682 64.1965 89.6217 63.255 89.3752C57.2604 87.7867 52.7722 88.2181 46.3326 93.1103C45.237 93.949 44.1278 94.7912 43.0083 95.6231C43.4534 94.2811 43.9053 92.922 44.3572 91.5663C45.9799 86.6946 47.6027 81.7887 48.9276 76.9787C49.578 74.6267 50.0984 72.3706 50.451 70.0049C50.4887 69.755 50.5264 69.5051 50.5572 69.2655C50.7729 67.8002 50.9098 66.2356 50.8413 64.7909C50.8311 64.5752 50.8037 64.1302 50.742 63.7228C50.588 63.9761 50.4579 64.2363 50.3826 64.3767C47.1747 71.4599 40.9337 76.2426 33.6005 77.434C21.9023 79.334 11.6865 70.652 11.6865 57.9713C11.6865 45.2905 21.8989 34.7153 33.6005 34.4585C39.5814 34.3284 44.97 36.9714 48.5476 41.511C48.6469 41.6205 49.0166 41.6856 49.1604 41.689L49.1535 41.6924Z" fill="url(#paint4_linear_1409_43281)"/>
<path fill-rule="evenodd" clip-rule="evenodd" d="M32.7275 35.8108C38.4448 35.6533 43.3849 38.2243 46.5996 42.2709C47.144 42.9522 48.1402 42.9557 48.2771 42.9488C49.5473 42.8838 50.5743 41.6855 50.5743 40.2922C50.5743 38.6728 49.5028 38.0771 49.2049 37.9847C42.1627 35.7936 36.7844 28.4947 36.7844 19.7271C36.7844 8.9327 44.8399 0.863465 54.1416 1.70223C62.8648 2.48964 69.6091 10.9389 69.6091 20.5624C69.6091 28.0257 65.6481 34.7187 59.7562 37.2521C58.7737 37.6732 57.9178 38.5188 57.9178 39.7684C57.9178 41.1275 58.8901 42.1888 60.0678 42.1272C60.9408 42.0827 61.4817 41.2952 62.0055 40.5592C64.6313 36.8652 68.63 34.8248 72.7416 34.7118C80.3966 34.503 86.3159 41.6958 86.3159 50.7202C86.3159 59.7446 80.3966 68.0192 72.7485 69.2209C67.3599 70.0665 62.4437 67.2045 59.7562 62.1548C57.1543 57.4782 55.9184 62.456 56.6168 68.0501C57.192 72.6581 58.4005 75.8317 62.8716 87.6223C56.5655 85.9106 51.6801 86.3899 44.8399 91.556C49.6945 76.8588 50.4511 73.2744 51.0502 69.0189C52.0054 62.2335 50.6599 58.6456 48.2943 63.4968C45.4219 69.8166 39.7731 74.3973 32.7275 75.5065C21.9469 77.1977 12.5664 69.1695 12.5664 57.5193C12.5664 45.8691 21.9469 36.1018 32.7275 35.8073V35.8108Z" fill="url(#paint5_radial_1409_43281)"/>
<path fill-rule="evenodd" clip-rule="evenodd" d="M39.088 36.8275C42.4534 37.8478 45.3394 39.8813 47.4688 42.5619C47.5921 42.716 47.7359 42.8358 47.8899 42.9283C47.5133 42.8769 46.9587 42.7229 46.5992 42.2744C44.6547 39.8266 42.0802 37.9197 39.088 36.831V36.8275ZM57.9243 2.55811C65.189 4.73546 70.4749 12.3323 70.4749 20.8534C70.4749 28.3167 66.5139 35.0097 60.622 37.5465C59.6394 37.9676 58.7836 38.8132 58.7836 40.0628C58.7836 40.9597 59.2081 41.73 59.838 42.1306C58.763 42.0553 57.914 41.0453 57.914 39.7718C57.914 38.4982 58.7699 37.6766 59.7524 37.2555C65.6477 34.7187 69.6053 28.0291 69.6053 20.5658C69.6053 12.3905 64.7336 5.0607 57.9208 2.56153L57.9243 2.55811ZM77.1576 35.4581C82.5565 37.5054 86.3155 43.5342 86.3155 50.7236C86.3155 59.7412 80.3962 68.0227 72.7481 69.2243C70.985 69.5016 69.2698 69.3818 67.671 68.9162C69.5129 69.6112 71.5293 69.8406 73.6177 69.5119C81.2658 68.3102 87.1851 60.0287 87.1851 51.0112C87.1851 43.4418 83.0187 37.1631 77.161 35.4547L77.1576 35.4581ZM59.0403 60.6416C57.8729 60.9565 57.0033 64.493 57.4826 68.3445C58.0578 72.9525 59.2663 76.1261 63.7374 87.9167C57.4278 86.205 52.5425 86.6843 45.7057 91.8504L46.1028 90.6419C52.2926 86.3419 56.9554 86.0201 62.8678 87.6257C58.3967 75.8386 57.1882 72.6615 56.613 68.0535C56.1029 63.9453 56.6302 60.1725 57.979 60.306C58.1707 60.3266 58.6295 60.4533 59.0403 60.6416ZM51.2758 61.5693C50.3138 60.7751 49.1292 61.3091 48.2939 63.5002C45.4216 69.82 39.7727 74.4007 32.7271 75.5099C29.9609 75.9447 27.2906 75.7359 24.8428 74.993C27.52 75.9652 30.4984 76.2836 33.5933 75.7975C40.6389 74.6917 46.2877 70.1076 49.16 63.7912C49.7729 62.5348 50.8239 61.7884 51.2758 61.5693Z" fill="black"/>
<path fill-rule="evenodd" clip-rule="evenodd" d="M49.1535 41.6924C49.6499 41.6582 50.0573 41.1892 50.0573 40.6414C50.0573 40.2922 49.9341 39.8951 49.6294 39.7479C41.7827 37.3446 36.1236 29.289 36.1236 19.977C36.1236 8.23778 44.9152 -0.509311 55.0112 0.459546C64.4361 1.35993 71.6735 10.5213 71.6735 20.8843C71.6735 28.6899 67.5995 36.0813 61.0468 38.9331C60.6668 39.1042 60.0917 39.4534 60.0917 40.0046C60.0917 40.5558 60.4751 40.9598 60.9407 40.9358C61.2557 40.9187 61.7213 40.2032 61.913 39.9327C64.8915 35.7526 69.3318 33.6745 73.6112 33.5787C81.8721 33.3972 88.2501 41.1857 88.2501 50.9154C88.2501 60.645 81.8721 69.601 73.618 70.9396C67.9521 71.8605 62.5327 68.9779 59.5063 63.3428C59.4001 63.1476 59.1297 62.7163 58.8866 62.4116C58.7565 62.908 58.6812 63.5858 58.6572 63.87C58.5511 65.2154 58.6196 66.6499 58.7805 67.9577C58.8421 68.3959 58.9106 68.8341 58.9722 69.2689C59.3488 71.5181 59.989 73.5962 60.6805 75.6572C62.0191 79.5566 63.4981 83.3601 64.9154 87.0986C65.292 88.1119 65.672 89.115 66.0555 90.1113C65.1208 89.8682 64.1965 89.6217 63.255 89.3752C57.2604 87.7867 52.7722 88.2181 46.3326 93.1103C45.237 93.949 44.1278 94.7912 43.0083 95.6231C43.4534 94.2811 43.9053 92.922 44.3572 91.5663C45.9799 86.6946 47.6027 81.7887 48.9276 76.9787C49.578 74.6267 50.0984 72.3706 50.451 70.0049C50.4887 69.755 50.5264 69.5051 50.5572 69.2655C50.7729 67.8002 50.9098 66.2356 50.8413 64.7909C50.8311 64.5752 50.8037 64.1302 50.742 63.7228C50.588 63.9761 50.4579 64.2363 50.3826 64.3767C47.1747 71.4599 40.9337 76.2426 33.6005 77.434C21.9023 79.334 11.6865 70.652 11.6865 57.9713C11.6865 45.2905 21.8989 34.7153 33.6005 34.4585C39.5814 34.3284 44.97 36.9714 48.5476 41.511C48.6469 41.6205 49.0166 41.6856 49.1604 41.689L49.1535 41.6924ZM33.5936 36.1018C22.813 36.3962 13.4325 46.1533 13.4325 57.8138C13.4325 69.4743 22.813 77.4922 33.5936 75.801C40.6392 74.6952 46.288 70.1111 49.1604 63.7947C51.526 58.9435 52.8715 62.5314 51.9163 69.3202C51.3172 73.5723 50.5606 77.1567 45.706 91.8538C52.5428 86.6878 57.4282 86.2085 63.7377 87.9202C59.2666 76.133 58.0547 72.9594 57.483 68.348C56.788 62.7539 58.0205 57.7727 60.6223 62.4527C63.3098 67.5023 68.226 70.3644 73.6146 69.5188C81.2627 68.3171 87.182 60.0357 87.182 51.0181C87.182 42.0005 81.2627 34.8009 73.6077 35.0063C69.4961 35.1193 65.4974 37.1597 62.8716 40.8537C62.3478 41.5863 61.8069 42.3737 60.9339 42.4182C59.7562 42.4798 58.7839 41.4185 58.7839 40.0594C58.7839 38.8098 59.6398 37.9642 60.6223 37.5431C66.5176 35.0063 70.4752 28.3167 70.4752 20.85C70.4752 11.2265 63.7309 2.77727 55.0078 1.98986C45.7061 1.14767 37.6505 9.21691 37.6505 20.0147C37.6505 28.7789 43.0254 36.0813 50.071 38.2723C50.3689 38.3648 51.4404 38.9605 51.4404 40.5798C51.4404 41.9732 50.4134 43.1714 49.1433 43.2399C49.0063 43.2467 48.0101 43.2433 47.4657 42.5586C44.2476 38.512 39.3109 35.9409 33.5902 36.0984L33.5936 36.1018Z" fill="url(#paint6_linear_1409_43281)"/>
<path fill-rule="evenodd" clip-rule="evenodd" d="M83.5707 41.617C81.2803 38.2106 77.7199 36.0503 73.6082 36.1804C69.9861 36.2934 66.2032 38.0497 63.6766 41.6136C62.9337 42.668 62.1908 43.5889 60.9344 43.6608C59.1576 43.7601 57.6889 42.1716 57.6889 40.1106C57.6889 38.279 58.8529 36.9884 60.277 36.379C65.9498 33.9723 69.4658 27.5668 69.4658 20.8294C69.4658 11.8392 63.1494 3.95825 55.0082 3.25985C46.357 2.51695 38.904 10.0384 38.904 20.0488C38.8972 27.9948 43.714 34.9206 50.4207 37.0295C50.8966 37.1835 51.3862 37.5601 51.7148 37.9607C52.3037 38.6693 52.5878 39.5594 52.5878 40.5317C52.5878 42.6269 51.0472 44.4243 49.1437 44.5338C48.2228 44.5886 47.1615 44.2017 46.5624 43.4451C43.4402 39.5355 38.7602 37.2896 33.5941 37.454C26.1754 37.6902 19.4824 42.7467 16.5039 49.8403C16.8394 50.5318 17.192 51.196 17.5755 51.8156C26.0453 65.9685 40.1776 58.9742 53.3923 50.97C65.4979 43.6403 76.8914 35.4272 83.5673 41.6204L83.5707 41.617Z" fill="url(#paint7_radial_1409_43281)" fill-opacity="0.3"/>
<defs>
<linearGradient id="paint0_linear_1409_43281" x1="36.1574" y1="35.7764" x2="36.1574" y2="-1.7009" gradientUnits="userSpaceOnUse">
<stop stop-color="#5C2A0D"/>
<stop offset="0.32" stop-color="#6C3719"/>
<stop offset="0.67" stop-color="#E3AA8B"/>
<stop offset="0.86" stop-color="#6E381A"/>
<stop offset="1" stop-color="#E3AA8B"/>
</linearGradient>
<linearGradient id="paint1_linear_1409_43281" x1="46.2267" y1="62.3225" x2="13.6587" y2="118.728" gradientUnits="userSpaceOnUse">
<stop stop-color="#5C2A0D"/>
<stop offset="0.2" stop-color="#6C3718"/>
<stop offset="0.58" stop-color="#F0C3A0"/>
<stop offset="0.74" stop-color="#683315"/>
<stop offset="1" stop-color="#F1B89B"/>
</linearGradient>
<linearGradient id="paint2_linear_1409_43281" x1="11.2723" y1="70.2104" x2="22.7445" y2="27.3993" gradientUnits="userSpaceOnUse">
<stop stop-color="#5C2A0D"/>
<stop offset="0.32" stop-color="#6B3517"/>
<stop offset="0.68" stop-color="#EDB596"/>
<stop offset="0.79" stop-color="#7F4929"/>
<stop offset="1" stop-color="#5C2A0D"/>
</linearGradient>
<linearGradient id="paint3_linear_1409_43281" x1="41.7831" y1="84.4863" x2="62.0196" y2="3.32835" gradientUnits="userSpaceOnUse">
<stop stop-color="white"/>
<stop offset="0.37" stop-color="white"/>
<stop offset="0.62" stop-color="#55575B"/>
<stop offset="0.81" stop-color="white"/>
<stop offset="0.94" stop-color="#7B7F85"/>
<stop offset="1" stop-color="white"/>
</linearGradient>
<linearGradient id="paint4_linear_1409_43281" x1="52.1868" y1="86.2769" x2="46.8392" y2="9.80233" gradientUnits="userSpaceOnUse">
<stop stop-color="#733B1C"/>
<stop offset="0.14" stop-color="#E0A788"/>
<stop offset="0.31" stop-color="#6B3618"/>
<stop offset="0.56" stop-color="#D89F81"/>
<stop offset="0.86" stop-color="#7C4325"/>
<stop offset="1" stop-color="#F5D0B9"/>
</linearGradient>
<radialGradient id="paint5_radial_1409_43281" cx="0" cy="0" r="1" gradientUnits="userSpaceOnUse" gradientTransform="translate(35.4287 54.6983) scale(51.4555 51.4555)">
<stop stop-color="#E8AF90"/>
<stop offset="1" stop-color="#6A3517"/>
</radialGradient>
<linearGradient id="paint6_linear_1409_43281" x1="52.1868" y1="86.2769" x2="46.8392" y2="9.80233" gradientUnits="userSpaceOnUse">
<stop stop-color="#6C3718"/>
<stop offset="0.14" stop-color="#E1A889"/>
<stop offset="0.31" stop-color="#5C2A0D"/>
<stop offset="0.56" stop-color="#E1A889"/>
<stop offset="0.86" stop-color="#6F391C"/>
<stop offset="1" stop-color="#F5C5A7"/>
</linearGradient>
<radialGradient id="paint7_radial_1409_43281" cx="0" cy="0" r="1" gradientUnits="userSpaceOnUse" gradientTransform="translate(25.2236 24.2015) scale(61.5789 61.5789)">
<stop stop-color="white"/>
<stop offset="1" stop-color="#F5D6BA"/>
</radialGradient>
</defs>
</svg>
