<svg width="184" height="217" viewBox="0 0 184 217" fill="none" xmlns="http://www.w3.org/2000/svg">
<path fill-rule="evenodd" clip-rule="evenodd" d="M121.04 81.8416L83.4434 74.707L83.7309 74.7276L121.383 81.869L121.04 81.8416Z" fill="black"/>
<path fill-rule="evenodd" clip-rule="evenodd" d="M41.5469 39.1022L41.5948 37.2467L41.7181 35.4253L41.9303 33.6314L42.2247 31.8786L42.5945 30.1668L43.0464 28.4893L43.5599 26.8597L44.1488 25.2712L44.8129 23.7237L45.5387 22.2311L46.3261 20.7932L47.182 19.4033L48.0926 18.0681L49.0649 16.7877L50.092 15.5689L51.167 14.4118L52.2967 13.3162L53.4676 12.2892L54.6932 11.3306L55.9531 10.4336L57.2608 9.61884L58.6097 8.86566L59.986 8.19465L61.4033 7.60581L62.848 7.09228L64.3201 6.66092L65.8265 6.31856L67.3534 6.05838L102.109 1.07373L100.308 1.38185L98.5416 1.78582L96.8093 2.2925L95.1044 2.89504L93.4406 3.59344L91.8179 4.38085L90.2362 5.26412L88.7024 6.22955L87.2166 7.27715L85.7719 8.40691L84.3957 9.61884L83.0673 10.9061L81.7938 12.2686L80.5956 13.6997L79.4521 15.206L78.3771 16.774L77.3774 18.4104L76.4462 20.1085L75.5904 21.8682L74.8166 23.6758L74.1183 25.5451L73.5089 27.4691L72.9816 29.441L72.5434 31.4541L72.2011 33.515L71.9546 35.6239L71.804 37.767L71.7492 39.9512L71.7834 41.6904L71.8793 43.4158L72.0436 45.1139L72.2696 46.8051L72.5503 48.4621L72.8995 50.1054L73.3034 51.7213L73.7622 53.3167L74.2826 54.8778L74.8509 56.4115L75.4808 57.911L76.1587 59.3831L76.8913 60.8142L77.665 62.2178L78.4935 63.5804L79.3699 64.9087L80.2943 66.1891L81.2597 67.4284L82.2662 68.6266L83.3207 69.7838L84.4094 70.8862L85.546 71.9475L86.71 72.954L87.9219 73.9057L89.168 74.8095L90.4416 75.6586L91.7562 76.446L93.0982 77.1786L94.4677 77.8496L95.8713 78.4658L97.3023 79.0068L98.7608 79.4929L98.9799 79.6298L99.1579 79.801L99.3017 80.0064L99.4249 80.2392L99.5139 80.4857L99.5755 80.7528L99.6098 81.0198L99.6166 81.28L99.5824 81.684L99.4797 82.0605L99.3085 82.4097L99.0894 82.7178L98.8224 82.978L98.5143 83.1766L98.1788 83.3135L97.8159 83.382L63.7039 76.0146L64.012 75.9598L64.2996 75.8434L64.5598 75.6722L64.7857 75.4531L64.9775 75.1861L65.1212 74.8917L65.2034 74.5699L65.2376 74.2344L65.2308 74.0084L65.1966 73.7825L65.1486 73.5565L65.0665 73.3443L64.9706 73.1457L64.8405 72.9745L64.6899 72.8239L64.505 72.7143L63.2725 72.3035L62.0538 71.8379L60.8624 71.3175L59.6915 70.7492L58.5481 70.1193L57.4389 69.4483L56.3502 68.7293L55.2957 67.9625L54.2687 67.1545L53.2759 66.2986L52.3104 65.3948L51.3792 64.4568L50.4891 63.4777L49.6332 62.4575L48.8116 61.403L48.0242 60.3143L47.2847 59.1846L46.5794 58.0274L45.9153 56.836L45.2991 55.6173L44.7239 54.3643L44.1898 53.0907L43.7037 51.7898L43.2586 50.4614L42.8684 49.1057L42.526 47.7363L42.2316 46.3395L41.9851 44.9222L41.8002 43.4911L41.6633 42.0464L41.5743 40.5812L41.5469 39.1022Z" fill="url(#paint0_linear_1175_16896)"/>
<path fill-rule="evenodd" clip-rule="evenodd" d="M85.3894 73.0297L85.8687 72.3724L86.3685 71.7356L86.8752 71.1194L87.4024 70.5306L87.9365 69.9554L88.4843 69.4076L89.0389 68.8736L89.6072 68.36L90.1892 67.8739L90.778 67.4083L91.3806 66.9564L91.99 66.5319L92.6062 66.1211L93.2293 65.7376L93.866 65.3679L94.5028 65.0187L95.1533 64.6969L95.8038 64.3888L96.4611 64.108L97.1252 63.841L97.7894 63.5945L98.4604 63.3686L99.1383 63.17L99.8161 62.9851L100.494 62.8208L101.179 62.6702L101.857 62.5469L102.541 62.4442L103.226 62.362L103.911 62.2936L104.595 62.2525L105.28 62.2251L106.588 62.2388L107.875 62.3278L149.779 67.2714L148.266 67.1687L146.725 67.155L145.924 67.1892L145.116 67.2371L144.308 67.3124L143.507 67.4152L142.699 67.5384L141.898 67.6822L141.097 67.8534L140.296 68.0451L139.502 68.2642L138.707 68.5038L137.913 68.7709L137.132 69.0584L136.352 69.3666L135.578 69.7021L134.811 70.065L134.051 70.4484L133.298 70.8524L132.552 71.2837L131.819 71.7356L131.093 72.2149L130.374 72.7216L129.669 73.2488L128.978 73.8034L128.293 74.3786L127.622 74.9811L126.965 75.6042L126.321 76.2478L125.691 76.9257L125.075 77.6241L124.479 78.3499L123.897 79.0962L123.329 79.8631L123.158 80.1027L122.952 80.404L122.706 80.7327L122.446 81.0613L122.172 81.3626L121.898 81.6159L121.631 81.7939L121.384 81.8693L83.7324 74.7278L83.9447 74.673L84.1775 74.5155L84.4103 74.3033L84.6431 74.0431L84.8622 73.7624L85.0676 73.4816L85.2456 73.2283L85.3894 73.0297Z" fill="black"/>
<path fill-rule="evenodd" clip-rule="evenodd" d="M133.461 140.494L94.0018 124.561L93.1939 124.232L92.3996 123.862L91.6122 123.458L90.8385 123.027L90.0853 122.561L89.339 122.061L88.6132 121.534L87.9011 120.973L87.2027 120.377L86.5248 119.754L85.8607 119.104L85.2239 118.419L84.6008 117.707L83.9983 116.967L83.4094 116.194L82.848 115.392L82.3139 114.564L81.7935 113.708L81.3005 112.825L81.2252 112.681L81.1157 112.51L80.9993 112.311L80.8623 112.106L80.7117 111.88L80.5611 111.661L80.4036 111.442L80.2461 111.243L117.275 124.821L117.46 125.06L117.645 125.314L117.829 125.574L118.001 125.834L118.158 126.088L118.302 126.313L118.425 126.519L118.514 126.683L119.096 127.724L119.706 128.731L120.342 129.71L121 130.648L121.691 131.558L122.396 132.428L123.129 133.27L123.882 134.071L124.663 134.838L125.464 135.571L126.279 136.269L127.114 136.933L127.977 137.549L128.853 138.138L129.743 138.686L130.647 139.2L131.572 139.672L132.51 140.103L133.461 140.494Z" fill="black"/>
<path fill-rule="evenodd" clip-rule="evenodd" d="M55.5438 160.809L55.8039 160.028L56.0573 159.254L56.3175 158.481L56.5777 157.7L56.8379 156.92L57.0912 156.146L57.3514 155.365L57.6047 154.592L57.8581 153.811L58.1114 153.037L58.3716 152.257L58.6249 151.483L58.8714 150.702L59.1248 149.929L59.3713 149.148L59.6178 148.374L59.8642 147.594L60.1107 146.813L60.3504 146.04L60.59 145.266L60.8297 144.492L61.0693 143.718L61.309 142.945L61.5349 142.171L61.7677 141.397L62.0005 140.624L62.2196 139.85L62.4456 139.083L62.6647 138.309L62.8838 137.542L63.1029 136.776L63.3152 136.002L63.4179 135.632L63.5206 135.256L63.6164 134.886L63.7191 134.509L63.815 134.139L63.9108 133.77L64.0067 133.4L64.1026 133.03L64.1916 132.661L64.2874 132.291L64.3764 131.928L64.4655 131.558L64.5476 131.188L64.6366 130.826L64.7188 130.456L64.801 130.086L64.8831 129.723L64.9584 129.353L65.0406 128.984L65.1159 128.614L65.1912 128.244L65.2597 127.881L65.335 127.512L65.4035 127.142L65.472 126.765L65.5404 126.395L65.6021 126.026L65.6637 125.649L65.7253 125.279L65.7869 124.903L65.8486 124.533L65.9033 124.15L65.9307 123.992L65.9513 123.835L65.9787 123.677L65.9992 123.52L66.0197 123.362L66.0471 123.205L66.0677 123.054L66.0882 122.897L66.1567 122.431L66.2183 121.959L66.2799 121.479L66.3347 121L66.3826 120.521L66.4306 120.041L66.4716 119.562L66.5059 119.083L66.5401 118.597L66.5606 118.117L66.5812 117.638L66.5949 117.166L66.6017 116.686L66.5949 116.221L66.588 115.748L66.5675 115.29L66.5606 115.132L66.5538 114.947L66.5333 114.735L66.5196 114.502L66.4922 114.256L66.4648 113.995L66.4374 113.735L66.3963 113.475L100.988 127.45L101.029 127.758L101.063 128.066L101.097 128.367L101.125 128.662L101.145 128.936L101.166 129.182L101.179 129.401L101.186 129.586L101.207 130.127L101.22 130.675V131.229L101.214 131.791L101.2 132.352L101.179 132.914L101.152 133.475L101.111 134.044L101.07 134.612L101.022 135.173L100.967 135.742L100.905 136.31L100.844 136.871L100.768 137.426L100.693 137.981L100.618 138.535L100.597 138.713L100.57 138.898L100.543 139.076L100.515 139.268L100.488 139.453L100.46 139.638L100.433 139.823L100.406 140.014L100.337 140.452L100.269 140.897L100.2 141.336L100.125 141.774L100.05 142.212L99.9742 142.65L99.892 143.089L99.8099 143.52L99.7277 143.958L99.6456 144.396L99.5634 144.828L99.4744 145.259L99.3854 145.697L99.2895 146.129L99.2005 146.56L99.1046 146.991L99.0088 147.423L98.9129 147.854L98.8102 148.292L98.7075 148.724L98.598 149.155L98.4953 149.593L98.3925 150.025L98.283 150.456L98.1734 150.894L98.057 151.326L97.9475 151.764L97.8311 152.202L97.7147 152.64L97.5983 153.078L97.4819 153.517L97.3586 153.955L97.1053 154.859L96.852 155.762L96.5986 156.666L96.3384 157.577L96.0714 158.481L95.8044 159.391L95.5373 160.295L95.2635 161.206L94.9964 162.116L94.7157 163.027L94.435 163.938L94.1542 164.848L93.8735 165.766L93.5859 166.677L93.2983 167.587L93.0108 168.505L92.7164 169.415L92.4288 170.333L92.1275 171.244L91.8331 172.161L91.5387 173.079L91.2374 173.989L90.943 174.907L90.6348 175.817L90.3404 176.735L90.0392 177.652L89.731 178.563L89.4298 179.481L89.1285 180.391L88.8204 181.309L88.5191 182.219L88.211 183.137L88.0467 183.644L87.8755 184.15L87.7043 184.657L87.54 185.17L87.3688 185.677L87.1976 186.184L87.0265 186.691L86.8621 187.204L86.691 187.711L86.5198 188.217L86.3554 188.724L86.1843 189.231L86.0199 189.737L85.8488 190.244L85.6844 190.744L85.5201 191.251L53.25 167.704L53.3938 167.279L53.5376 166.848L53.6814 166.416L53.8183 165.992L53.9621 165.561L54.1059 165.129L54.2497 164.698L54.3935 164.266L54.5372 163.835L54.681 163.404L54.8248 162.972L54.9686 162.534L55.1124 162.103L55.2562 161.671L55.4 161.24L55.5438 160.809Z" fill="url(#paint1_linear_1175_16896)"/>
<path fill-rule="evenodd" clip-rule="evenodd" d="M39.1582 148.813L13.8447 131.634L12.4753 130.62L11.1675 129.538L9.92136 128.381L8.72998 127.149L7.60706 125.855L6.54577 124.492L5.55295 123.068L4.63545 121.575L3.79326 120.028L3.02639 118.419L2.34169 116.755L1.73915 115.03L1.21877 113.263L0.78741 111.442L0.445058 109.572L0.198564 107.655L0.0547763 105.697L0 103.698L0.0547763 101.685L0.198564 99.699L0.445058 97.7339L0.78741 95.803L1.21877 93.8995L1.73915 92.0303L2.34169 90.2021L3.02639 88.4082L3.79326 86.6622L4.63545 84.9505L5.55295 83.2935L6.54577 81.6844L7.60706 80.1233L8.72998 78.6169L9.92136 77.1722L11.1675 75.7823L12.4753 74.4539L13.8447 73.1941L15.2621 72.0027L16.7273 70.8729L18.2405 69.8185L19.8016 68.8462L21.4039 67.9424L23.0471 67.1208L24.7178 66.3813L26.4296 65.724L28.1756 65.1557L29.9421 64.6832L31.736 64.2998L33.5573 64.0054L35.3992 63.8136L37.2548 63.7246L38.2065 63.7178L39.1445 63.7383L40.0894 63.7862L41.0138 63.8616L41.9381 63.9574L42.8556 64.0875L43.7594 64.2382L74.352 69.5241L73.2839 69.346L72.2089 69.1954L71.1202 69.079L70.0247 68.99L68.9292 68.9352L67.8131 68.9078L66.697 68.9215L64.5128 69.0242L62.3492 69.2502L60.2129 69.5925L58.0971 70.0513L56.0156 70.6059L53.9615 71.2769L51.9485 72.0438L49.9766 72.9134L48.0457 73.8788L46.1628 74.9401L44.3277 76.0904L42.5475 77.3297L40.8221 78.658L39.1582 80.0617L37.5492 81.5475L36.0086 83.1086L34.5365 84.7382L33.1397 86.4431L31.8182 88.2165L30.5652 90.0446L29.4012 91.9413L28.3262 93.8927L27.3334 95.8989L26.4296 97.9598L25.6216 100.069L24.9095 102.226L24.3001 104.417L23.7935 106.662L23.3963 108.936L23.1019 111.243L22.9307 113.578L22.8691 115.947L22.9307 118.302L23.1019 120.61L23.3963 122.856L23.7935 125.06L24.3001 127.197L24.9095 129.278L25.6216 131.305L26.4296 133.263L27.3334 135.153L28.3262 136.981L29.4012 138.734L30.5652 140.411L31.8182 142.014L33.1397 143.541L34.5365 144.985L36.0086 146.348L37.5492 147.621L39.1582 148.813Z" fill="url(#paint2_linear_1175_16896)"/>
<path fill-rule="evenodd" clip-rule="evenodd" d="M96.6606 82.6085C97.6534 82.54 98.4682 81.602 98.4682 80.5064C98.4682 79.808 98.2217 79.0138 97.6123 78.7125C81.9189 73.9127 70.6008 57.8016 70.6008 39.1708C70.5939 15.706 88.1771 -1.78815 108.369 0.142713C127.219 1.95033 141.694 20.2662 141.694 40.9922C141.694 56.6034 133.546 71.3862 120.44 77.0898C119.674 77.4321 118.53 78.1305 118.53 79.2397C118.53 80.349 119.297 81.1432 120.228 81.1021C120.858 81.0747 121.789 79.6369 122.173 79.0959C128.13 70.7357 137.017 66.5727 145.569 66.3878C162.091 66.0249 174.847 81.602 174.847 101.061C174.847 120.521 162.091 138.432 145.583 141.11C134.251 142.951 123.405 137.186 117.359 125.916C117.147 125.526 116.613 124.663 116.12 124.054C115.86 125.046 115.709 126.402 115.661 126.977C115.449 129.668 115.579 132.537 115.908 135.153C116.031 136.029 116.168 136.906 116.291 137.775C117.044 142.267 118.331 146.43 119.708 150.552C122.385 158.35 125.343 165.958 128.178 173.434C128.931 175.461 129.691 177.467 130.458 179.46C128.588 178.974 126.733 178.481 124.85 177.988C112.861 174.811 103.884 175.673 91.0049 185.458C89.4986 186.608 87.0474 190.093 85.5205 191.244C85.1165 190.956 84.8358 190.744 84.3839 190.422C85.274 187.738 86.1572 185.081 87.0542 182.363C90.2997 172.627 93.5452 162.808 96.195 153.181C97.4959 148.477 98.5367 143.965 99.2419 139.234C99.3173 138.734 99.3926 138.234 99.4542 137.755C99.8856 134.824 100.159 131.695 100.022 128.805C100.009 128.381 99.9472 127.484 99.8239 126.676C99.5158 127.183 99.2556 127.703 99.105 127.984C92.6893 142.15 80.2072 151.716 65.5408 154.098C42.1445 157.899 21.7129 140.534 21.7129 115.173C21.7129 89.8116 42.1376 68.6611 65.5408 68.1475C77.5026 67.8805 88.2798 73.1801 95.435 82.2524C95.6335 82.4715 96.3662 82.6085 96.6606 82.6085Z" fill="url(#paint3_linear_1175_16896)"/>
<path fill-rule="evenodd" clip-rule="evenodd" d="M97.3511 83.3279L63.3145 75.9673L63.4582 75.9947L63.5952 76.0084L63.7047 76.0152L97.8167 83.3826L97.6866 83.3758L97.5291 83.3552L97.3511 83.3279Z" fill="black"/>
<path fill-rule="evenodd" clip-rule="evenodd" d="M97.8168 83.3824C98.8097 83.3139 99.6245 82.3759 99.6245 81.2804C99.6245 80.582 99.378 79.7877 98.7686 79.4933C83.0752 74.6867 71.757 58.5756 71.757 39.9516C71.757 16.4731 89.3402 -1.02106 109.532 0.91665C128.382 2.71742 142.857 21.0401 142.857 41.7661C142.857 57.3773 134.709 72.1601 121.603 77.8637C120.843 78.2061 119.693 78.9044 119.693 80.0068C119.693 81.1092 120.46 81.9172 121.391 81.8692C122.021 81.835 122.952 80.404 123.336 79.863C129.293 71.5028 138.173 67.3466 146.732 67.1549C163.254 66.792 176.01 82.369 176.01 101.828C176.01 121.288 163.254 139.199 146.746 141.877C135.414 143.719 124.575 137.953 118.522 126.683C118.31 126.293 117.769 125.43 117.283 124.821C117.023 125.814 116.872 127.169 116.824 127.738C116.612 130.428 116.749 133.297 117.071 135.913C117.194 136.789 117.331 137.666 117.454 138.535C118.207 143.034 119.488 147.19 120.871 151.312C123.548 159.111 126.506 166.718 129.341 174.195C130.094 176.221 130.854 178.228 131.621 180.22C129.751 179.734 127.903 179.241 126.02 178.748C114.031 175.571 105.054 176.434 92.1749 186.218C89.9838 187.896 87.7654 189.58 85.5264 191.244C86.4165 188.56 87.3203 185.842 88.2241 183.13C91.4696 173.387 94.7151 163.575 97.3649 153.955C98.6659 149.251 99.7066 144.739 100.412 140.007C100.487 139.508 100.562 139.008 100.624 138.528C101.055 135.598 101.329 132.469 101.192 129.579C101.172 129.148 101.117 128.258 100.994 127.443C100.686 127.95 100.426 128.47 100.275 128.751C93.8592 142.917 81.3771 152.483 66.7107 154.866C43.3144 158.666 22.8828 141.302 22.8828 115.94C22.8828 90.5787 43.3075 69.4281 66.7107 68.9146C78.6725 68.6544 89.4497 73.9403 96.6049 83.0195C96.8035 83.2386 97.543 83.3687 97.8305 83.3756L97.8168 83.3824Z" fill="url(#paint4_linear_1175_16896)"/>
<path fill-rule="evenodd" clip-rule="evenodd" d="M64.9648 71.6191C76.3994 71.3041 86.2796 76.4463 92.709 84.5395C93.7977 85.902 95.7902 85.9089 96.0641 85.8952C98.6043 85.7651 100.658 83.3686 100.658 80.5819C100.658 77.3432 98.5153 76.1518 97.9196 75.967C83.8352 71.5848 73.0786 56.987 73.0786 39.4517C73.0786 17.863 89.1896 1.72449 107.793 3.40201C125.239 4.97683 138.728 21.8753 138.728 41.1224C138.728 56.0489 130.806 69.4349 119.022 74.5017C117.057 75.3439 115.345 77.0351 115.345 79.5343C115.345 82.2525 117.29 84.3751 119.645 84.2519C121.391 84.1629 122.473 82.5881 123.521 81.1159C128.772 73.728 136.77 69.6471 144.993 69.4212C160.303 69.0035 172.142 83.3892 172.142 101.438C172.142 119.487 160.303 136.036 145.007 138.439C134.229 140.131 124.397 134.406 119.022 124.307C113.818 114.954 111.347 124.91 112.743 136.098C113.894 145.314 116.311 151.661 125.253 175.242C112.641 171.819 102.87 172.777 89.1896 183.109C98.8987 153.715 100.412 146.546 101.61 138.035C103.52 124.465 100.83 117.289 96.0983 126.991C90.3536 139.631 79.056 148.792 64.9648 151.011C43.4035 154.393 24.6426 138.337 24.6426 115.036C24.6426 91.7357 43.4035 72.2011 64.9648 71.6122V71.6191Z" fill="url(#paint5_radial_1175_16896)"/>
<path fill-rule="evenodd" clip-rule="evenodd" d="M77.6859 73.6526C84.4165 75.6931 90.1886 79.7602 94.4474 85.1214C94.6939 85.4296 94.9815 85.6692 95.2896 85.8541C94.5364 85.7514 93.4272 85.4433 92.7083 84.5463C88.8191 79.6507 83.6702 75.8369 77.6859 73.6595V73.6526ZM115.358 5.11377C129.888 9.46849 140.46 24.6621 140.46 41.7044C140.46 56.6309 132.537 70.0169 120.754 75.0905C118.789 75.9327 117.077 77.6239 117.077 80.1231C117.077 81.917 117.926 83.4576 119.186 84.2587C117.036 84.1081 115.338 82.0882 115.338 79.5411C115.338 76.994 117.049 75.3507 119.015 74.5085C130.805 69.4349 138.72 56.0558 138.72 41.1292C138.72 24.7785 128.977 10.119 115.351 5.12062L115.358 5.11377ZM153.825 70.9138C164.623 75.0084 172.141 87.066 172.141 101.445C172.141 119.48 160.302 136.043 145.006 138.446C141.48 139.001 138.049 138.761 134.852 137.83C138.536 139.22 142.568 139.679 146.745 139.021C162.041 136.618 173.88 120.055 173.88 102.02C173.88 86.8811 165.547 74.3237 153.832 70.907L153.825 70.9138ZM117.59 121.281C115.256 121.911 113.516 128.984 114.475 136.687C115.625 145.903 118.042 152.25 126.985 175.831C114.365 172.408 104.595 173.366 90.9212 183.698L91.7154 181.281C104.095 172.681 113.421 172.038 125.245 175.249C116.303 151.675 113.886 145.321 112.736 136.105C111.716 127.888 112.77 120.343 115.468 120.61C115.851 120.651 116.769 120.904 117.59 121.281ZM102.061 123.136C100.137 121.548 97.7682 122.616 96.0975 126.998C90.3529 139.638 79.0553 148.799 64.964 151.017C59.4316 151.887 54.0909 151.469 49.1953 149.983C54.5497 151.928 60.5066 152.565 66.6964 151.593C80.7876 149.381 92.0852 140.213 97.8298 127.58C99.0555 125.067 101.158 123.574 102.061 123.136Z" fill="black"/>
<path fill-rule="evenodd" clip-rule="evenodd" d="M97.8168 83.3824C98.8097 83.3139 99.6245 82.3759 99.6245 81.2804C99.6245 80.582 99.378 79.7877 98.7686 79.4933C83.0752 74.6867 71.757 58.5756 71.757 39.9516C71.757 16.4731 89.3402 -1.02106 109.532 0.91665C128.382 2.71742 142.857 21.0401 142.857 41.7661C142.857 57.3773 134.709 72.1601 121.603 77.8637C120.843 78.2061 119.693 78.9044 119.693 80.0068C119.693 81.1092 120.46 81.9172 121.391 81.8692C122.021 81.835 122.952 80.404 123.336 79.863C129.293 71.5028 138.173 67.3466 146.732 67.1549C163.254 66.792 176.01 82.369 176.01 101.828C176.01 121.288 163.254 139.199 146.746 141.877C135.414 143.719 124.575 137.953 118.522 126.683C118.31 126.293 117.769 125.43 117.283 124.821C117.023 125.814 116.872 127.169 116.824 127.738C116.612 130.428 116.749 133.297 117.071 135.913C117.194 136.789 117.331 137.666 117.454 138.535C118.207 143.034 119.488 147.19 120.871 151.312C123.548 159.111 126.506 166.718 129.341 174.195C130.094 176.221 130.854 178.228 131.621 180.22C129.751 179.734 127.903 179.241 126.02 178.748C114.031 175.571 105.054 176.434 92.1749 186.218C89.9838 187.896 87.7654 189.58 85.5264 191.244C86.4165 188.56 87.3203 185.842 88.2241 183.13C91.4696 173.387 94.7151 163.575 97.3649 153.955C98.6659 149.251 99.7066 144.739 100.412 140.007C100.487 139.508 100.562 139.008 100.624 138.528C101.055 135.598 101.329 132.469 101.192 129.579C101.172 129.148 101.117 128.258 100.994 127.443C100.686 127.95 100.426 128.47 100.275 128.751C93.8592 142.917 81.3771 152.483 66.7107 154.866C43.3144 158.666 22.8828 141.302 22.8828 115.94C22.8828 90.5787 43.3075 69.4281 66.7107 68.9146C78.6725 68.6544 89.4497 73.9403 96.6049 83.0195C96.8035 83.2386 97.543 83.3687 97.8305 83.3756L97.8168 83.3824ZM66.697 72.2012C45.1357 72.79 26.3748 92.3041 26.3748 115.625C26.3748 138.946 45.1357 154.982 66.697 151.599C80.7882 149.388 92.0859 140.22 97.8305 127.587C102.562 117.885 105.253 125.06 103.342 138.638C102.144 147.142 100.631 154.311 90.9219 183.705C104.595 173.373 114.366 172.414 126.985 175.838C118.043 152.264 115.619 145.916 114.476 136.693C113.086 125.505 115.551 115.543 120.754 124.903C126.129 135.002 135.962 140.726 146.739 139.035C162.035 136.632 173.874 120.069 173.874 102.034C173.874 83.9986 162.035 69.5993 146.725 70.0101C138.502 70.2361 130.505 74.3169 125.253 81.7049C124.205 83.1702 123.123 84.745 121.378 84.834C119.022 84.9572 117.078 82.8347 117.078 80.1164C117.078 77.6172 118.789 75.926 120.754 75.0838C132.545 70.0101 140.46 56.631 140.46 41.6976C140.46 22.4506 126.972 5.5521 109.525 3.97728C90.9219 2.2929 74.8108 18.4314 74.8108 40.0269C74.8108 57.5554 85.5606 72.1601 99.6518 76.5422C100.248 76.7271 102.391 77.9185 102.391 81.1571C102.391 83.9439 100.337 86.3403 97.7963 86.4773C97.5224 86.491 95.5299 86.4841 94.4412 85.1147C88.005 77.0215 78.1316 71.8794 66.6902 72.1944L66.697 72.2012Z" fill="url(#paint6_linear_1175_16896)"/>
<path fill-rule="evenodd" clip-rule="evenodd" d="M166.651 83.2315C162.07 76.4187 154.95 72.0982 146.726 72.3584C139.482 72.5844 131.916 76.0969 126.863 83.2247C125.377 85.3336 123.891 87.1754 121.378 87.3192C117.825 87.5178 114.887 84.3407 114.887 80.2188C114.887 76.5556 117.215 73.9743 120.064 72.7555C131.409 67.9421 138.441 55.1313 138.441 41.6563C138.441 23.6759 125.809 7.91406 109.526 6.51726C92.2238 5.03145 77.3178 20.0744 77.3178 40.0952C77.3041 55.9871 86.9379 69.8387 100.351 74.0565C101.303 74.3646 102.282 75.1178 102.939 75.9189C104.117 77.3362 104.685 79.1164 104.685 81.061C104.685 85.2514 101.604 88.8461 97.7973 89.0652C95.9554 89.1747 93.8328 88.401 92.6346 86.8878C86.3901 79.0685 77.0302 74.5769 66.698 74.9055C51.8605 75.378 38.4745 85.491 32.5176 99.6781C33.1886 101.061 33.8938 102.39 34.6607 103.629C51.6003 131.935 79.8649 117.946 106.294 101.938C130.506 87.2781 153.293 70.8521 166.644 83.2384L166.651 83.2315Z" fill="url(#paint7_radial_1175_16896)" fill-opacity="0.3"/>
<path fill-rule="evenodd" clip-rule="evenodd" d="M92.5688 216.704C142.92 216.704 184.001 212.035 184.001 206.313C184.001 200.591 142.93 195.933 92.5688 195.933C42.2072 195.933 1.13672 200.602 1.13672 206.313C1.13672 212.024 42.2072 216.704 92.5688 216.704Z" fill="url(#paint8_radial_1175_16896)"/>
<defs>
<linearGradient id="paint0_linear_1175_16896" x1="71.8245" y1="71.5503" x2="71.8245" y2="-3.40423" gradientUnits="userSpaceOnUse">
<stop stop-color="#5C2A0D"/>
<stop offset="0.32" stop-color="#6C3719"/>
<stop offset="0.67" stop-color="#E3AA8B"/>
<stop offset="0.86" stop-color="#6E381A"/>
<stop offset="1" stop-color="#E3AA8B"/>
</linearGradient>
<linearGradient id="paint1_linear_1175_16896" x1="91.9632" y1="124.643" x2="26.8273" y2="237.454" gradientUnits="userSpaceOnUse">
<stop stop-color="#5C2A0D"/>
<stop offset="0.2" stop-color="#6C3718"/>
<stop offset="0.58" stop-color="#F0C3A0"/>
<stop offset="0.74" stop-color="#683315"/>
<stop offset="1" stop-color="#F1B89B"/>
</linearGradient>
<linearGradient id="paint2_linear_1175_16896" x1="22.0543" y1="140.418" x2="44.9988" y2="54.7961" gradientUnits="userSpaceOnUse">
<stop stop-color="#5C2A0D"/>
<stop offset="0.32" stop-color="#6B3517"/>
<stop offset="0.68" stop-color="#EDB596"/>
<stop offset="0.79" stop-color="#7F4929"/>
<stop offset="1" stop-color="#5C2A0D"/>
</linearGradient>
<linearGradient id="paint3_linear_1175_16896" x1="83.0761" y1="168.97" x2="123.549" y2="6.65425" gradientUnits="userSpaceOnUse">
<stop stop-color="white"/>
<stop offset="0.37" stop-color="white"/>
<stop offset="0.62" stop-color="#55575B"/>
<stop offset="0.81" stop-color="white"/>
<stop offset="0.94" stop-color="#7B7F85"/>
<stop offset="1" stop-color="white"/>
</linearGradient>
<linearGradient id="paint4_linear_1175_16896" x1="103.883" y1="172.551" x2="93.1882" y2="19.6022" gradientUnits="userSpaceOnUse">
<stop stop-color="#733B1C"/>
<stop offset="0.14" stop-color="#E0A788"/>
<stop offset="0.31" stop-color="#6B3618"/>
<stop offset="0.56" stop-color="#D89F81"/>
<stop offset="0.86" stop-color="#7C4325"/>
<stop offset="1" stop-color="#F5D0B9"/>
</linearGradient>
<radialGradient id="paint5_radial_1175_16896" cx="0" cy="0" r="1" gradientUnits="userSpaceOnUse" gradientTransform="translate(70.3671 109.394) scale(102.911 102.911)">
<stop stop-color="#E8AF90"/>
<stop offset="1" stop-color="#6A3517"/>
</radialGradient>
<linearGradient id="paint6_linear_1175_16896" x1="103.883" y1="172.551" x2="93.1882" y2="19.6022" gradientUnits="userSpaceOnUse">
<stop stop-color="#6C3718"/>
<stop offset="0.14" stop-color="#E1A889"/>
<stop offset="0.31" stop-color="#5C2A0D"/>
<stop offset="0.56" stop-color="#E1A889"/>
<stop offset="0.86" stop-color="#6F391C"/>
<stop offset="1" stop-color="#F5C5A7"/>
</linearGradient>
<radialGradient id="paint7_radial_1175_16896" cx="0" cy="0" r="1" gradientUnits="userSpaceOnUse" gradientTransform="translate(49.957 48.4006) scale(123.158 123.158)">
<stop stop-color="white"/>
<stop offset="1" stop-color="#F5D6BA"/>
</radialGradient>
<radialGradient id="paint8_radial_1175_16896" cx="0" cy="0" r="1" gradientUnits="userSpaceOnUse" gradientTransform="translate(92.5688 206.318) scale(91.432 10.3854)">
<stop/>
<stop offset="1" stop-opacity="0"/>
</radialGradient>
</defs>
</svg>
