<svg width="39" height="36" viewBox="0 0 39 36" fill="none" xmlns="http://www.w3.org/2000/svg">
<path d="M38.9575 35.4524C38.2636 36.0736 29.0113 28.7753 18.2556 19.1478C7.4999 9.57206 -0.595805 1.23858 0.0981129 0.617448C0.792031 -0.0036813 10.0443 7.29458 20.8 16.9221C31.5557 26.5496 39.6514 34.8313 38.9575 35.4524Z" fill="url(#paint0_radial_789_2791)"/>
<path d="M28.1435 25.7731C26.5822 27.1706 21.4935 24.8414 16.7517 20.5452C12.0099 16.3009 9.40773 11.7459 10.9112 10.3484C12.4725 8.95084 17.5613 11.2801 22.303 15.5762C27.0448 19.8206 29.7048 24.3755 28.1435 25.7731Z" fill="url(#paint1_radial_789_2791)"/>
<path d="M38.9575 35.4524C38.2636 36.0736 29.0113 28.7753 18.2556 19.1478C7.4999 9.57206 -0.595805 1.23858 0.0981129 0.617448C0.792031 -0.0036813 10.0443 7.29458 20.8 16.9221C31.5557 26.5496 39.6514 34.8313 38.9575 35.4524Z" fill="url(#paint2_radial_789_2791)"/>
<path d="M28.1439 25.7731C26.3513 27.3777 21.0312 25.2555 16.2316 21.0111C11.4899 16.7667 9.11898 12.0047 10.9116 10.3484C12.7042 8.74379 18.0243 10.866 22.8239 15.1104C27.5656 19.3547 29.9365 24.1167 28.1439 25.7731Z" fill="url(#paint3_radial_789_2791)"/>
<path d="M0.0412034 35.4522C-0.652714 34.8311 7.50082 26.5493 18.2565 16.9218C29.0123 7.29433 38.2645 0.0478289 38.9584 0.668958C39.6523 1.29009 31.4988 9.57181 20.7431 19.1993C10.0452 28.775 0.792947 36.0733 0.0412034 35.4522Z" fill="url(#paint4_radial_789_2791)"/>
<path d="M10.9135 25.7729C8.88961 23.9613 11.1448 19.044 15.8866 14.7997C20.6284 10.5553 26.1219 8.5366 28.1458 10.3482C30.1697 12.1599 27.9145 17.0771 23.1727 21.3215C18.431 25.5659 12.9375 27.5328 10.9135 25.7729Z" fill="url(#paint5_radial_789_2791)"/>
<defs>
<radialGradient id="paint0_radial_789_2791" cx="0" cy="0" r="1" gradientUnits="userSpaceOnUse" gradientTransform="translate(19.5269 18.0506) rotate(41.8617) scale(26.1081 1.69398)">
<stop stop-color="#EEEEEE"/>
<stop offset="0.075268" stop-color="#CACACA" stop-opacity="0.9247"/>
<stop offset="0.1806" stop-color="#A0A0A0" stop-opacity="0.8194"/>
<stop offset="0.2917" stop-color="#7C7C7C" stop-opacity="0.7083"/>
<stop offset="0.4075" stop-color="#5E5E5E" stop-opacity="0.5925"/>
<stop offset="0.5295" stop-color="#474747" stop-opacity="0.4705"/>
<stop offset="0.6605" stop-color="#373737" stop-opacity="0.3395"/>
<stop offset="0.8068" stop-color="#2D2D2D" stop-opacity="0.1932"/>
<stop offset="1" stop-color="#2A2A2A" stop-opacity="0"/>
</radialGradient>
<radialGradient id="paint1_radial_789_2791" cx="0" cy="0" r="1" gradientUnits="userSpaceOnUse" gradientTransform="translate(19.5267 18.0501) rotate(41.8319) scale(11.5465 3.72184)">
<stop stop-color="#EEEEEE"/>
<stop offset="0.075268" stop-color="#CACACA" stop-opacity="0.9247"/>
<stop offset="0.1806" stop-color="#A0A0A0" stop-opacity="0.8194"/>
<stop offset="0.2917" stop-color="#7C7C7C" stop-opacity="0.7083"/>
<stop offset="0.4075" stop-color="#5E5E5E" stop-opacity="0.5925"/>
<stop offset="0.5295" stop-color="#474747" stop-opacity="0.4705"/>
<stop offset="0.6605" stop-color="#373737" stop-opacity="0.3395"/>
<stop offset="0.8068" stop-color="#2D2D2D" stop-opacity="0.1932"/>
<stop offset="1" stop-color="#2A2A2A" stop-opacity="0"/>
</radialGradient>
<radialGradient id="paint2_radial_789_2791" cx="0" cy="0" r="1" gradientUnits="userSpaceOnUse" gradientTransform="translate(19.5269 18.0506) rotate(41.8617) scale(26.1081 1.69398)">
<stop stop-color="#EEEEEE"/>
<stop offset="0.075268" stop-color="#CACACA" stop-opacity="0.9247"/>
<stop offset="0.1806" stop-color="#A0A0A0" stop-opacity="0.8194"/>
<stop offset="0.2917" stop-color="#7C7C7C" stop-opacity="0.7083"/>
<stop offset="0.4075" stop-color="#5E5E5E" stop-opacity="0.5925"/>
<stop offset="0.5295" stop-color="#474747" stop-opacity="0.4705"/>
<stop offset="0.6605" stop-color="#373737" stop-opacity="0.3395"/>
<stop offset="0.8068" stop-color="#2D2D2D" stop-opacity="0.1932"/>
<stop offset="1" stop-color="#2A2A2A" stop-opacity="0"/>
</radialGradient>
<radialGradient id="paint3_radial_789_2791" cx="0" cy="0" r="1" gradientUnits="userSpaceOnUse" gradientTransform="translate(19.5271 18.0501) rotate(41.8319) scale(11.5525 4.38386)">
<stop stop-color="#EEEEEE"/>
<stop offset="0.075268" stop-color="#CACACA" stop-opacity="0.9247"/>
<stop offset="0.1806" stop-color="#A0A0A0" stop-opacity="0.8194"/>
<stop offset="0.2917" stop-color="#7C7C7C" stop-opacity="0.7083"/>
<stop offset="0.4075" stop-color="#5E5E5E" stop-opacity="0.5925"/>
<stop offset="0.5295" stop-color="#474747" stop-opacity="0.4705"/>
<stop offset="0.6605" stop-color="#373737" stop-opacity="0.3395"/>
<stop offset="0.8068" stop-color="#2D2D2D" stop-opacity="0.1932"/>
<stop offset="1" stop-color="#2A2A2A" stop-opacity="0"/>
</radialGradient>
<radialGradient id="paint4_radial_789_2791" cx="0" cy="0" r="1" gradientUnits="userSpaceOnUse" gradientTransform="translate(19.5281 18.0496) rotate(138.198) scale(26.1117 1.69381)">
<stop stop-color="#EEEEEE"/>
<stop offset="0.075268" stop-color="#CACACA" stop-opacity="0.9247"/>
<stop offset="0.1806" stop-color="#A0A0A0" stop-opacity="0.8194"/>
<stop offset="0.2917" stop-color="#7C7C7C" stop-opacity="0.7083"/>
<stop offset="0.4075" stop-color="#5E5E5E" stop-opacity="0.5925"/>
<stop offset="0.5295" stop-color="#474747" stop-opacity="0.4705"/>
<stop offset="0.6605" stop-color="#373737" stop-opacity="0.3395"/>
<stop offset="0.8068" stop-color="#2D2D2D" stop-opacity="0.1932"/>
<stop offset="1" stop-color="#2A2A2A" stop-opacity="0"/>
</radialGradient>
<radialGradient id="paint5_radial_789_2791" cx="0" cy="0" r="1" gradientUnits="userSpaceOnUse" gradientTransform="translate(19.5283 18.0488) rotate(138.168) scale(11.5543 4.85448)">
<stop stop-color="#EEEEEE"/>
<stop offset="0.075268" stop-color="#CACACA" stop-opacity="0.9247"/>
<stop offset="0.1806" stop-color="#A0A0A0" stop-opacity="0.8194"/>
<stop offset="0.2917" stop-color="#7C7C7C" stop-opacity="0.7083"/>
<stop offset="0.4075" stop-color="#5E5E5E" stop-opacity="0.5925"/>
<stop offset="0.5295" stop-color="#474747" stop-opacity="0.4705"/>
<stop offset="0.6605" stop-color="#373737" stop-opacity="0.3395"/>
<stop offset="0.8068" stop-color="#2D2D2D" stop-opacity="0.1932"/>
<stop offset="1" stop-color="#2A2A2A" stop-opacity="0"/>
</radialGradient>
</defs>
</svg>
