<svg width="184" height="217" viewBox="0 0 184 217" fill="none" xmlns="http://www.w3.org/2000/svg">
<path fill-rule="evenodd" clip-rule="evenodd" d="M121.04 81.7838L83.4434 74.6543L83.7309 74.6748L121.382 81.8111L121.04 81.7838Z" fill="black"/>
<path fill-rule="evenodd" clip-rule="evenodd" d="M41.5469 39.0753L41.5948 37.2211L41.718 35.4011L41.9303 33.6084L42.2247 31.8569L42.5945 30.1463L43.0463 28.47L43.5599 26.8416L44.1487 25.2542L44.8129 23.7079L45.5386 22.2163L46.326 20.7795L47.1819 19.3905L48.0925 18.0563L49.0648 16.7769L50.0918 15.559L51.1668 14.4026L52.2965 13.3079L53.4674 12.2816L54.693 11.3237L55.9528 10.4274L57.2605 9.61317L58.6094 8.86053L59.9856 8.19001L61.4029 7.60159L62.8476 7.08843L64.3197 6.65738L65.826 6.31527L67.3529 6.05527L102.108 1.07422L100.307 1.38211L98.5406 1.7858L96.8083 2.29211L95.1035 2.89422L93.4397 3.59211L91.8169 4.37896L90.2353 5.26159L88.7016 6.22632L87.2158 7.27317L85.7711 8.40211L84.3949 9.61317L83.0666 10.8995L81.7931 12.2611L80.5948 13.6911L79.4514 15.1963L78.3764 16.7632L77.3768 18.3984L76.4456 20.0953L75.5897 21.8537L74.816 23.66L74.1177 25.5279L73.5083 27.4505L72.9811 29.4211L72.5429 31.4326L72.2005 33.4921L71.954 35.5995L71.8034 37.7411L71.7486 39.9237L71.7829 41.6616L71.8787 43.3858L72.043 45.0826L72.269 46.7726L72.5497 48.4284L72.8989 50.0705L73.3029 51.6853L73.7616 53.2795L74.282 54.8395L74.8503 56.3721L75.4802 57.8705L76.158 59.3416L76.8907 60.7716L77.6644 62.1742L78.4928 63.5358L79.3692 64.8632L80.2936 66.1426L81.259 67.3811L82.2655 68.5784L83.3199 69.7347L84.4086 70.8363L85.5452 71.8969L86.7091 72.9026L87.921 73.8537L89.1672 74.7569L90.4407 75.6053L91.7553 76.3921L93.0973 77.1242L94.4667 77.7947L95.8703 78.4105L97.3013 78.9511L98.7597 79.4369L98.9788 79.5737L99.1568 79.7448L99.3006 79.95L99.4239 80.1826L99.5129 80.429L99.5745 80.6958L99.6087 80.9626L99.6156 81.2226L99.5813 81.6263L99.4786 82.0026L99.3075 82.3516L99.0884 82.6595L98.8213 82.9195L98.5132 83.1179L98.1777 83.2547L97.8148 83.3232L63.7035 75.9611L64.0116 75.9063L64.2992 75.79L64.5594 75.619L64.7853 75.4L64.977 75.1332L65.1208 74.839L65.203 74.5174L65.2372 74.1821L65.2304 73.9563L65.1961 73.7305L65.1482 73.5047L65.066 73.2926L64.9702 73.0942L64.8401 72.9232L64.6895 72.7726L64.5046 72.6632L63.2721 72.2526L62.0534 71.7874L60.862 71.2674L59.6912 70.6995L58.5478 70.07L57.4386 69.3995L56.3499 68.6811L55.2955 67.9147L54.2684 67.1074L53.2756 66.2521L52.3102 65.349L51.379 64.4116L50.4889 63.4332L49.6331 62.4137L48.8115 61.36L48.0241 60.2721L47.2846 59.1432L46.5794 57.9869L45.9152 56.7963L45.299 55.5784L44.7238 54.3263L44.1898 53.0537L43.7037 51.7537L43.2586 50.4263L42.8683 49.0716L42.526 47.7032L42.2316 46.3074L41.9851 44.8911L41.8002 43.4611L41.6633 42.0174L41.5743 40.5532L41.5469 39.0753Z" fill="url(#paint0_linear_1175_16680)"/>
<path fill-rule="evenodd" clip-rule="evenodd" d="M85.3874 72.978L85.8667 72.3212L86.3665 71.6848L86.8732 71.069L87.4004 70.4806L87.9345 69.9059L88.4822 69.3585L89.0368 68.8248L89.6051 68.3117L90.1871 67.8259L90.7759 67.3606L91.3785 66.909L91.9879 66.4848L92.6041 66.0743L93.2271 65.6912L93.8639 65.3217L94.5007 64.9727L95.1511 64.6512L95.8016 64.3433L96.4589 64.0627L97.123 63.7959L97.7872 63.5496L98.4582 63.3238L99.136 63.1254L99.8139 62.9406L100.492 62.7764L101.176 62.6259L101.854 62.5027L102.539 62.4001L103.224 62.318L103.908 62.2496L104.593 62.2085L105.278 62.1812L106.585 62.1948L107.873 62.2838L149.776 67.2238L148.263 67.1212L146.722 67.1075L145.921 67.1417L145.113 67.1896L144.305 67.2648L143.504 67.3675L142.696 67.4906L141.895 67.6343L141.094 67.8054L140.293 67.9969L139.499 68.2159L138.704 68.4554L137.91 68.7222L137.13 69.0096L136.349 69.3175L135.575 69.6527L134.808 70.0154L134.048 70.3985L133.295 70.8022L132.549 71.2333L131.816 71.6848L131.091 72.1638L130.372 72.6701L129.666 73.1969L128.975 73.7512L128.29 74.3259L127.619 74.928L126.962 75.5506L126.318 76.1938L125.688 76.8712L125.072 77.569L124.476 78.2943L123.894 79.0401L123.326 79.8064L123.155 80.0459L122.95 80.3469L122.703 80.6754L122.443 81.0038L122.169 81.3048L121.895 81.558L121.628 81.7359L121.382 81.8112L83.7305 74.6748L83.9427 74.6201L84.1755 74.4627L84.4083 74.2506L84.6411 73.9906L84.8602 73.7101L85.0656 73.4296L85.2436 73.1764L85.3874 72.978Z" fill="black"/>
<path fill-rule="evenodd" clip-rule="evenodd" d="M133.46 140.393L94.0015 124.471L93.1936 124.143L92.3994 123.774L91.612 123.37L90.8383 122.939L90.0851 122.474L89.3388 121.974L88.613 121.447L87.901 120.886L87.2026 120.291L86.5247 119.668L85.8606 119.018L85.2238 118.334L84.6007 117.623L83.9982 116.884L83.4094 116.11L82.8479 115.31L82.3139 114.482L81.7935 113.627L81.3005 112.744L81.2252 112.6L81.1157 112.429L80.9993 112.231L80.8623 112.026L80.7117 111.8L80.5611 111.581L80.4036 111.362L80.2461 111.164L117.274 124.731L117.459 124.971L117.644 125.224L117.829 125.484L118 125.744L118.157 125.997L118.301 126.223L118.425 126.428L118.514 126.593L119.096 127.633L119.705 128.638L120.342 129.617L120.999 130.554L121.69 131.464L122.396 132.333L123.128 133.175L123.881 133.975L124.662 134.741L125.463 135.474L126.278 136.171L127.113 136.835L127.976 137.451L128.852 138.039L129.742 138.587L130.646 139.1L131.571 139.572L132.509 140.003L133.46 140.393Z" fill="black"/>
<path fill-rule="evenodd" clip-rule="evenodd" d="M55.5418 160.694L55.8019 159.914L56.0553 159.14L56.3155 158.367L56.5756 157.587L56.8358 156.807L57.0892 156.034L57.3494 155.254L57.6027 154.481L57.856 153.701L58.1094 152.928L58.3695 152.148L58.6229 151.375L58.8694 150.595L59.1227 149.821L59.3692 149.041L59.6157 148.268L59.8622 147.488L60.1087 146.708L60.3483 145.935L60.5879 145.162L60.8276 144.389L61.0672 143.616L61.3069 142.842L61.5328 142.069L61.7656 141.296L61.9984 140.523L62.2175 139.75L62.4435 138.984L62.6626 138.21L62.8817 137.444L63.1008 136.678L63.313 135.905L63.4157 135.535L63.5184 135.159L63.6143 134.789L63.717 134.413L63.8128 134.044L63.9087 133.674L64.0046 133.305L64.1004 132.935L64.1894 132.566L64.2853 132.196L64.3743 131.834L64.4633 131.464L64.5455 131.095L64.6345 130.732L64.7166 130.362L64.7988 129.993L64.881 129.63L64.9563 129.261L65.0384 128.891L65.1138 128.522L65.1891 128.152L65.2575 127.79L65.3329 127.42L65.4013 127.051L65.4698 126.675L65.5383 126.305L65.5999 125.936L65.6615 125.559L65.7231 125.19L65.7848 124.814L65.8464 124.444L65.9012 124.061L65.9285 123.904L65.9491 123.746L65.9765 123.589L65.997 123.431L66.0175 123.274L66.0449 123.117L66.0655 122.966L66.086 122.809L66.1545 122.344L66.2161 121.871L66.2777 121.392L66.3325 120.914L66.3804 120.435L66.4284 119.956L66.4694 119.477L66.5037 118.998L66.5379 118.512L66.5585 118.033L66.579 117.554L66.5927 117.082L66.5995 116.603L66.5927 116.138L66.5858 115.666L66.5653 115.207L66.5585 115.05L66.5516 114.865L66.5311 114.653L66.5174 114.42L66.49 114.174L66.4626 113.914L66.4352 113.654L66.3941 113.394L100.985 127.359L101.026 127.667L101.06 127.975L101.094 128.276L101.122 128.57L101.142 128.844L101.163 129.09L101.176 129.309L101.183 129.494L101.204 130.034L101.218 130.581V131.136L101.211 131.697L101.197 132.258L101.176 132.819L101.149 133.38L101.108 133.948L101.067 134.516L101.019 135.077L100.964 135.645L100.903 136.212L100.841 136.774L100.766 137.328L100.69 137.882L100.615 138.436L100.594 138.614L100.567 138.799L100.54 138.977L100.512 139.168L100.485 139.353L100.458 139.538L100.43 139.722L100.403 139.914L100.334 140.352L100.266 140.797L100.197 141.235L100.122 141.672L100.047 142.11L99.9714 142.548L99.8892 142.986L99.8071 143.417L99.7249 143.855L99.6428 144.293L99.5606 144.724L99.4716 145.155L99.3826 145.593L99.2867 146.024L99.1977 146.455L99.1019 146.886L99.006 147.317L98.9101 147.748L98.8074 148.186L98.7047 148.617L98.5952 149.048L98.4925 149.486L98.3898 149.917L98.2802 150.348L98.1707 150.786L98.0543 151.217L97.9447 151.655L97.8283 152.093L97.7119 152.531L97.5955 152.969L97.4791 153.407L97.3559 153.845L97.1026 154.748L96.8492 155.651L96.5959 156.554L96.3357 157.464L96.0687 158.367L95.8016 159.277L95.5346 160.18L95.2607 161.09L94.9937 162L94.713 162.91L94.4323 163.82L94.1515 164.73L93.8708 165.647L93.5832 166.557L93.2957 167.467L93.0081 168.384L92.7137 169.294L92.4261 170.211L92.1248 171.121L91.8304 172.038L91.536 172.955L91.2347 173.865L90.9403 174.781L90.6322 175.691L90.3378 176.608L90.0365 177.525L89.7284 178.435L89.4272 179.352L89.1259 180.262L88.8178 181.179L88.5165 182.089L88.2084 183.006L88.0441 183.512L87.8729 184.018L87.7017 184.525L87.5374 185.038L87.3662 185.544L87.1951 186.05L87.0239 186.557L86.8596 187.07L86.6884 187.576L86.5172 188.082L86.3529 188.589L86.1817 189.095L86.0174 189.601L85.8462 190.108L85.6819 190.607L85.5176 191.114L53.248 167.584L53.3918 167.159L53.5356 166.728L53.6794 166.297L53.8163 165.873L53.9601 165.442L54.1039 165.011L54.2477 164.58L54.3915 164.149L54.5353 163.718L54.6791 163.287L54.8228 162.856L54.9666 162.418L55.1104 161.987L55.2542 161.556L55.398 161.125L55.5418 160.694Z" fill="url(#paint1_linear_1175_16680)"/>
<path fill-rule="evenodd" clip-rule="evenodd" d="M39.1575 148.707L13.8445 131.54L12.4751 130.527L11.1673 129.446L9.92118 128.29L8.72982 127.058L7.60693 125.765L6.54565 124.403L5.55285 122.98L4.63536 121.489L3.79319 119.942L3.02634 118.334L2.34165 116.672L1.73912 114.948L1.21875 113.182L0.787395 111.362L0.44505 109.494L0.198561 107.579L0.0547753 105.622L0 103.624L0.0547753 101.612L0.198561 99.6281L0.44505 97.6644L0.787395 95.735L1.21875 93.8329L1.73912 91.965L2.34165 90.1381L3.02634 88.3455L3.79319 86.6007L4.63536 84.8902L5.55285 83.2344L6.54565 81.6265L7.60693 80.0665L8.72982 78.5613L9.92118 77.1176L11.1673 75.7286L12.4751 74.4013L13.8445 73.1423L15.2618 71.9518L16.727 70.8229L18.2402 69.7692L19.8013 68.7976L21.4035 67.8944L23.0467 67.0734L24.7174 66.3344L26.4291 65.6776L28.1751 65.1097L29.9416 64.6376L31.7355 64.2544L33.5567 63.9602L35.3986 63.7686L37.2541 63.6797L38.2058 63.6729L39.1438 63.6934L40.0887 63.7413L41.013 63.8165L41.9374 63.9123L42.8549 64.0423L43.7586 64.1929L74.3507 69.475L73.2826 69.2971L72.2076 69.1465L71.1189 69.0302L70.0234 68.9413L68.9279 68.8865L67.8119 68.8592L66.6958 68.8729L64.5117 68.9755L62.348 69.2013L60.2118 69.5434L58.0961 70.0018L56.0146 70.556L53.9606 71.2265L51.9476 71.9929L49.9756 72.8618L48.0448 73.8265L46.1619 74.8871L44.3269 76.0365L42.5467 77.275L40.8213 78.6023L39.1575 80.005L37.5485 81.4897L36.0079 83.0497L34.5359 84.6781L33.1391 86.3818L31.8176 88.1539L30.5646 89.9807L29.4007 91.876L28.3257 93.826L27.3329 95.8307L26.4291 97.8902L25.6212 99.9976L24.9091 102.153L24.2997 104.342L23.793 106.587L23.3959 108.858L23.1015 111.164L22.9303 113.497L22.8687 115.864L22.9303 118.218L23.1015 120.524L23.3959 122.768L23.793 124.971L24.2997 127.106L24.9091 129.186L25.6212 131.211L26.4291 133.168L27.3329 135.057L28.3257 136.883L29.4007 138.635L30.5646 140.311L31.8176 141.912L33.1391 143.438L34.5359 144.882L36.0079 146.243L37.5485 147.516L39.1575 148.707Z" fill="url(#paint2_linear_1175_16680)"/>
<path fill-rule="evenodd" clip-rule="evenodd" d="M96.6573 82.5499C97.6501 82.4815 98.4649 81.5441 98.4649 80.4494C98.4649 79.7515 98.2184 78.9578 97.609 78.6567C81.9159 73.8604 70.5979 57.761 70.5979 39.1436C70.5911 15.6957 88.174 -1.78589 108.366 0.143585C127.215 1.9499 141.689 20.2525 141.689 40.9636C141.689 56.5636 133.542 71.3357 120.437 77.0352C119.67 77.3773 118.526 78.0752 118.526 79.1836C118.526 80.292 119.293 81.0857 120.224 81.0446C120.854 81.0173 121.785 79.5804 122.169 79.0399C128.126 70.6857 137.013 66.5257 145.565 66.341C162.086 65.9783 174.842 81.5441 174.842 100.989C174.842 120.435 162.086 138.334 145.579 141.009C134.247 142.849 123.401 137.088 117.356 125.826C117.143 125.436 116.609 124.574 116.116 123.965C115.856 124.957 115.705 126.312 115.657 126.887C115.445 129.576 115.575 132.443 115.904 135.056C116.027 135.932 116.164 136.808 116.287 137.677C117.041 142.165 118.328 146.325 119.704 150.444C122.381 158.237 125.339 165.839 128.174 173.31C128.927 175.336 129.687 177.34 130.454 179.331C128.584 178.846 126.729 178.353 124.846 177.86C112.857 174.686 103.881 175.548 91.0017 185.325C89.4954 186.475 87.0442 189.957 85.5174 191.107C85.1134 190.819 84.8327 190.607 84.3808 190.286C85.2709 187.604 86.1541 184.949 87.0511 182.233C90.2965 172.503 93.542 162.691 96.1917 153.071C97.4926 148.371 98.5333 143.862 99.2386 139.134C99.3139 138.635 99.3892 138.135 99.4508 137.656C99.8822 134.728 100.156 131.601 100.019 128.714C100.005 128.289 99.9438 127.393 99.8206 126.586C99.5125 127.092 99.2523 127.612 99.1016 127.893C92.6861 142.049 80.2042 151.607 65.5381 153.988C42.1421 157.786 21.7109 140.434 21.7109 115.091C21.7109 89.7478 42.1353 68.6125 65.5381 68.0994C77.4996 67.8325 88.2767 73.1283 95.4317 82.1941C95.6303 82.4131 96.3629 82.5499 96.6573 82.5499Z" fill="url(#paint3_linear_1175_16680)"/>
<path fill-rule="evenodd" clip-rule="evenodd" d="M97.3485 83.2683L63.3125 75.9131L63.4563 75.9405L63.5932 75.9541L63.7028 75.961L97.8141 83.3231L97.684 83.3162L97.5266 83.2957L97.3485 83.2683Z" fill="black"/>
<path fill-rule="evenodd" clip-rule="evenodd" d="M97.8155 83.3233C98.8083 83.2549 99.6231 82.3176 99.6231 81.2228C99.6231 80.5249 99.3766 79.7312 98.7672 79.437C83.0741 74.6339 71.7561 58.5344 71.7561 39.9239C71.7561 16.4623 89.339 -1.01928 109.531 0.917032C128.38 2.71651 142.854 21.026 142.854 41.737C142.854 57.337 134.707 72.1091 121.602 77.8086C120.842 78.1507 119.691 78.8486 119.691 79.9502C119.691 81.0518 120.458 81.8591 121.389 81.8112C122.019 81.777 122.951 80.347 123.334 79.8065C129.291 71.4523 138.171 67.2991 146.73 67.1076C163.251 66.7449 176.007 82.3107 176.007 101.756C176.007 121.201 163.251 139.1 146.744 141.775C135.412 143.616 124.573 137.855 118.521 126.593C118.308 126.203 117.767 125.341 117.281 124.732C117.021 125.724 116.87 127.079 116.823 127.646C116.61 130.335 116.747 133.202 117.069 135.816C117.192 136.692 117.329 137.568 117.452 138.437C118.206 142.932 119.486 147.085 120.869 151.204C123.546 158.997 126.504 166.599 129.339 174.07C130.092 176.095 130.852 178.1 131.619 180.091C129.749 179.605 127.901 179.113 126.018 178.62C114.029 175.445 105.053 176.308 92.1736 186.085C89.9826 187.761 87.7642 189.444 85.5253 191.107C86.4154 188.425 87.3192 185.709 88.2229 182.999C91.4684 173.263 94.7138 163.458 97.3636 153.845C98.6645 149.144 99.7052 144.635 100.41 139.908C100.486 139.408 100.561 138.909 100.623 138.43C101.054 135.501 101.328 132.374 101.191 129.487C101.17 129.056 101.116 128.167 100.992 127.352C100.684 127.859 100.424 128.379 100.274 128.659C93.8579 142.815 81.376 152.374 66.7099 154.755C43.314 158.552 22.8828 141.201 22.8828 115.858C22.8828 90.5144 43.3072 69.3791 66.7099 68.866C78.6715 68.606 89.4485 73.8881 96.6036 82.9607C96.8021 83.1797 97.5416 83.3097 97.8292 83.3165L97.8155 83.3233Z" fill="url(#paint4_linear_1175_16680)"/>
<path fill-rule="evenodd" clip-rule="evenodd" d="M64.9641 71.5684C76.3984 71.2536 86.2785 76.392 92.7078 84.4794C93.7964 85.841 95.7889 85.8478 96.0628 85.8341C98.603 85.7041 100.657 83.3094 100.657 80.5247C100.657 77.2884 98.514 76.0978 97.9183 75.9131C83.8342 71.5341 73.0777 56.9468 73.0777 39.4241C73.0777 17.851 89.1885 1.72415 107.792 3.40046C125.237 4.97415 138.726 21.8605 138.726 41.0936C138.726 56.0094 130.804 69.3857 119.02 74.4489C117.055 75.2905 115.344 76.9805 115.344 79.4778C115.344 82.1942 117.288 84.3152 119.644 84.192C121.39 84.1031 122.471 82.5294 123.519 81.0584C128.77 73.6757 136.768 69.5978 144.991 69.372C160.301 68.9547 172.139 83.3299 172.139 101.366C172.139 119.402 160.301 135.939 145.005 138.34C134.227 140.03 124.395 134.31 119.02 124.218C113.817 114.872 111.345 124.82 112.742 136C113.892 145.21 116.309 151.553 125.251 175.117C112.639 171.696 102.869 172.654 89.1885 182.978C98.8974 153.605 100.411 146.442 101.609 137.937C103.519 124.376 100.828 117.205 96.097 126.9C90.3524 139.531 79.055 148.686 64.9641 150.903C43.4031 154.283 24.6426 138.238 24.6426 114.954C24.6426 91.6705 43.4031 72.1499 64.9641 71.5615V71.5684Z" fill="url(#paint5_radial_1175_16680)"/>
<path fill-rule="evenodd" clip-rule="evenodd" d="M77.6853 73.6003C84.4159 75.6393 90.1878 79.7035 94.4466 85.0608C94.6931 85.3687 94.9806 85.6082 95.2888 85.7929C94.5356 85.6903 93.4264 85.3824 92.7075 84.4861C88.8184 79.594 83.6695 75.7829 77.6853 73.6072V73.6003ZM115.357 5.11084C129.886 9.46242 140.458 24.6451 140.458 41.675C140.458 56.5908 132.536 69.9672 120.752 75.0372C118.787 75.8787 117.076 77.5687 117.076 80.0661C117.076 81.8587 117.925 83.3982 119.185 84.1987C117.035 84.0482 115.337 82.0298 115.337 79.4845C115.337 76.9393 117.048 75.2972 119.013 74.4556C130.804 69.3856 138.719 56.0161 138.719 41.1003C138.719 24.7614 128.976 10.1124 115.35 5.11768L115.357 5.11084ZM153.823 70.8635C164.621 74.955 172.139 87.004 172.139 101.372C172.139 119.395 160.3 135.946 145.004 138.347C141.478 138.901 138.048 138.662 134.85 137.731C138.534 139.12 142.567 139.579 146.743 138.922C162.039 136.52 173.878 119.969 173.878 101.947C173.878 86.8193 165.545 74.2708 153.83 70.8566L153.823 70.8635ZM117.589 121.194C115.254 121.823 113.515 128.891 114.474 136.589C115.624 145.798 118.041 152.141 126.983 175.705C114.364 172.284 104.594 173.242 90.9204 183.567L91.7147 181.151C104.094 172.558 113.419 171.915 125.244 175.123C116.302 151.566 113.885 145.217 112.735 136.007C111.715 127.797 112.769 120.257 115.467 120.523C115.85 120.565 116.768 120.818 117.589 121.194ZM102.06 123.048C100.136 121.461 97.7673 122.528 96.0967 126.907C90.3521 139.538 79.0547 148.692 64.9638 150.909C59.4315 151.778 54.0909 151.361 49.1953 149.876C54.5496 151.819 60.5064 152.456 66.696 151.484C80.787 149.274 92.0844 140.112 97.829 127.489C99.0546 124.978 101.157 123.486 102.06 123.048Z" fill="black"/>
<path fill-rule="evenodd" clip-rule="evenodd" d="M97.8155 83.3233C98.8083 83.2549 99.6231 82.3176 99.6231 81.2228C99.6231 80.5249 99.3766 79.7312 98.7672 79.437C83.0741 74.6339 71.7561 58.5344 71.7561 39.9239C71.7561 16.4623 89.339 -1.01928 109.531 0.917032C128.38 2.71651 142.854 21.026 142.854 41.737C142.854 57.337 134.707 72.1091 121.602 77.8086C120.842 78.1507 119.691 78.8486 119.691 79.9502C119.691 81.0518 120.458 81.8591 121.389 81.8112C122.019 81.777 122.951 80.347 123.334 79.8065C129.291 71.4523 138.171 67.2991 146.73 67.1076C163.251 66.7449 176.007 82.3107 176.007 101.756C176.007 121.201 163.251 139.1 146.744 141.775C135.412 143.616 124.573 137.855 118.521 126.593C118.308 126.203 117.767 125.341 117.281 124.732C117.021 125.724 116.87 127.079 116.823 127.646C116.61 130.335 116.747 133.202 117.069 135.816C117.192 136.692 117.329 137.568 117.452 138.437C118.206 142.932 119.486 147.085 120.869 151.204C123.546 158.997 126.504 166.599 129.339 174.07C130.092 176.095 130.852 178.1 131.619 180.091C129.749 179.605 127.901 179.113 126.018 178.62C114.029 175.445 105.053 176.308 92.1736 186.085C89.9826 187.761 87.7642 189.444 85.5253 191.107C86.4154 188.425 87.3192 185.709 88.2229 182.999C91.4684 173.263 94.7138 163.458 97.3636 153.845C98.6645 149.144 99.7052 144.635 100.41 139.908C100.486 139.408 100.561 138.909 100.623 138.43C101.054 135.501 101.328 132.374 101.191 129.487C101.17 129.056 101.116 128.167 100.992 127.352C100.684 127.859 100.424 128.379 100.274 128.659C93.8579 142.815 81.376 152.374 66.7099 154.755C43.314 158.552 22.8828 141.201 22.8828 115.858C22.8828 90.5144 43.3072 69.3791 66.7099 68.866C78.6715 68.606 89.4485 73.8881 96.6036 82.9607C96.8021 83.1797 97.5416 83.3097 97.8292 83.3165L97.8155 83.3233ZM66.6962 72.1502C45.1353 72.7386 26.3747 92.2386 26.3747 115.543C26.3747 138.847 45.1353 154.871 66.6962 151.491C80.7872 149.281 92.0846 140.12 97.8292 127.496C102.56 117.801 105.251 124.971 103.341 138.539C102.143 147.037 100.63 154.201 90.9206 183.574C104.594 173.249 114.364 172.291 126.983 175.712C118.041 152.155 115.617 145.812 114.474 136.596C113.084 125.416 115.549 115.461 120.753 124.814C126.127 134.906 135.96 140.626 146.737 138.936C162.033 136.534 173.871 119.983 173.871 101.961C173.871 83.9391 162.033 69.5502 146.723 69.9607C138.5 70.1865 130.503 74.2644 125.251 81.647C124.203 83.1112 123.122 84.6849 121.376 84.7739C119.02 84.897 117.076 82.776 117.076 80.0597C117.076 77.5623 118.788 75.8723 120.753 75.0307C132.543 69.9607 140.458 56.5912 140.458 41.6686C140.458 22.4355 126.97 5.54914 109.524 3.97545C90.9206 2.2923 74.8098 18.4191 74.8098 39.9991C74.8098 57.5149 85.5595 72.1091 99.6504 76.4881C100.246 76.6728 102.389 77.8633 102.389 81.0997C102.389 83.8844 100.335 86.2791 97.7949 86.416C97.5211 86.4297 95.5286 86.4228 94.4399 85.0544C88.0038 76.967 78.1306 71.8286 66.6894 72.1433L66.6962 72.1502Z" fill="url(#paint6_linear_1175_16680)"/>
<path fill-rule="evenodd" clip-rule="evenodd" d="M166.647 83.1727C162.066 76.3648 154.945 72.0475 146.722 72.3075C139.478 72.5332 131.912 76.0433 126.859 83.1659C125.374 85.2732 123.888 87.1138 121.375 87.2575C117.821 87.4559 114.884 84.2811 114.884 80.1622C114.884 76.5017 117.212 73.9222 120.06 72.7043C131.406 67.8943 138.437 55.0927 138.437 41.6275C138.437 23.6601 125.805 7.90956 109.523 6.51377C92.2207 5.02903 77.315 20.0611 77.315 40.0675C77.3013 55.948 86.9349 69.7896 100.348 74.0043C101.3 74.3122 102.279 75.0648 102.936 75.8653C104.114 77.2817 104.682 79.0606 104.682 81.0038C104.682 85.1911 101.601 88.7832 97.7941 89.0022C95.9523 89.1117 93.8298 88.3385 92.6315 86.8264C86.3872 79.0127 77.0274 74.5243 66.6954 74.8527C51.8582 75.3248 38.4724 85.4306 32.5156 99.6075C33.1866 100.99 33.8919 102.317 34.6587 103.555C51.598 131.841 79.8621 117.862 106.291 101.865C130.502 87.2164 153.288 70.8022 166.64 83.1796L166.647 83.1727Z" fill="url(#paint7_radial_1175_16680)"/>
<path fill-rule="evenodd" clip-rule="evenodd" d="M92.5688 216.704C142.92 216.704 184.001 212.035 184.001 206.313C184.001 200.591 142.93 195.933 92.5688 195.933C42.2072 195.933 1.13672 200.602 1.13672 206.313C1.13672 212.024 42.2072 216.704 92.5688 216.704Z" fill="url(#paint8_radial_1175_16680)"/>
<defs>
<linearGradient id="paint0_linear_1175_16680" x1="71.8239" y1="71.5" x2="71.8239" y2="-3.40052" gradientUnits="userSpaceOnUse">
<stop stop-color="#382C13"/>
<stop offset="0.32" stop-color="#A0844E"/>
<stop offset="0.67" stop-color="#F5D8A2"/>
<stop offset="0.86" stop-color="#C4A767"/>
<stop offset="1" stop-color="white"/>
</linearGradient>
<linearGradient id="paint1_linear_1175_16680" x1="91.9605" y1="124.554" x2="26.8945" y2="237.324" gradientUnits="userSpaceOnUse">
<stop stop-color="#1E1404"/>
<stop offset="0.2" stop-color="#957238"/>
<stop offset="0.58" stop-color="#EEDEBA"/>
<stop offset="0.74" stop-color="#C4A767"/>
<stop offset="1" stop-color="#EEDEBA"/>
</linearGradient>
<linearGradient id="paint2_linear_1175_16680" x1="22.0539" y1="140.318" x2="44.9679" y2="54.7495" gradientUnits="userSpaceOnUse">
<stop stop-color="#291F08"/>
<stop offset="0.32" stop-color="#786239"/>
<stop offset="0.68" stop-color="#EEDEBA"/>
<stop offset="0.79" stop-color="#C4A767"/>
<stop offset="1" stop-color="#342712"/>
</linearGradient>
<linearGradient id="paint3_linear_1175_16680" x1="83.073" y1="168.849" x2="123.492" y2="6.63709" gradientUnits="userSpaceOnUse">
<stop stop-color="#EEDEBA"/>
<stop offset="0.37" stop-color="#EEDEBA"/>
<stop offset="0.62" stop-color="#3C2C0A"/>
<stop offset="0.81" stop-color="#EEDEBA"/>
<stop offset="0.94" stop-color="#3C2C0A"/>
<stop offset="1" stop-color="#EEDEBA"/>
</linearGradient>
<linearGradient id="paint4_linear_1175_16680" x1="103.882" y1="172.428" x2="93.2019" y2="19.5881" gradientUnits="userSpaceOnUse">
<stop stop-color="#696D71"/>
<stop offset="0.14" stop-color="#F9FBFB"/>
<stop offset="0.31" stop-color="#55575B"/>
<stop offset="0.56" stop-color="#E5E7E9"/>
<stop offset="0.86" stop-color="#7B7F85"/>
<stop offset="1" stop-color="white"/>
</linearGradient>
<radialGradient id="paint5_radial_1175_16680" cx="0" cy="0" r="1" gradientUnits="userSpaceOnUse" gradientTransform="translate(70.3663 109.316) scale(102.909 102.837)">
<stop stop-color="#916E39"/>
<stop offset="1" stop-color="#281D09"/>
</radialGradient>
<linearGradient id="paint6_linear_1175_16680" x1="103.882" y1="172.428" x2="93.2019" y2="19.5881" gradientUnits="userSpaceOnUse">
<stop stop-color="#6B4F10"/>
<stop offset="0.14" stop-color="#EEDEBA"/>
<stop offset="0.31" stop-color="#6B4F10"/>
<stop offset="0.56" stop-color="#EEDEBA"/>
<stop offset="0.86" stop-color="#6B4F10"/>
<stop offset="1" stop-color="#EEDEBA"/>
</linearGradient>
<radialGradient id="paint7_radial_1175_16680" cx="0" cy="0" r="1" gradientUnits="userSpaceOnUse" gradientTransform="translate(72 54.5) rotate(28.9264) scale(65.1249 54.5573)">
<stop stop-color="#FFD676"/>
<stop offset="1" stop-color="#926E37"/>
</radialGradient>
<radialGradient id="paint8_radial_1175_16680" cx="0" cy="0" r="1" gradientUnits="userSpaceOnUse" gradientTransform="translate(92.5688 206.318) scale(91.432 10.3854)">
<stop/>
<stop offset="1" stop-opacity="0"/>
</radialGradient>
</defs>
</svg>
