<svg width="92" height="109" viewBox="0 0 92 109" fill="none" xmlns="http://www.w3.org/2000/svg">
<path fill-rule="evenodd" clip-rule="evenodd" d="M60.5199 40.8931L41.7217 37.3284L41.8655 37.3386L60.6911 40.9068L60.5199 40.8931Z" fill="black"/>
<path fill-rule="evenodd" clip-rule="evenodd" d="M20.7734 19.5389L20.7974 18.6118L20.859 17.7018L20.9652 16.8054L21.1124 15.9296L21.2972 15.0744L21.5232 14.2362L21.7799 13.422L22.0744 12.6283L22.4064 11.8552L22.7693 11.1094L23.163 10.391L23.5909 9.69649L24.0463 9.02938L24.5324 8.38965L25.0459 7.7807L25.5834 7.20254L26.1483 6.65517L26.7337 6.14201L27.3465 5.66307L27.9764 5.21491L28.6303 4.8078L29.3047 4.43149L29.9928 4.09623L30.7015 3.80201L31.4238 3.54544L32.1599 3.32991L32.913 3.15886L33.6765 3.02886L51.0539 0.53833L50.1536 0.692277L49.2703 0.89412L48.4042 1.14728L47.5517 1.44833L46.7198 1.79728L45.9085 2.1907L45.1176 2.63201L44.3508 3.11438L43.6079 3.6378L42.8856 4.20228L42.1974 4.8078L41.5333 5.45096L40.8965 6.13175L40.2974 6.84675L39.7257 7.59938L39.1882 8.3828L38.6884 9.20044L38.2228 10.0489L37.7949 10.9281L37.408 11.8312L37.0588 12.7652L36.7541 13.7265L36.4905 14.7118L36.2714 15.7175L36.1003 16.7473L35.977 17.801L35.9017 18.8718L35.8743 19.9631L35.8914 20.832L35.9394 21.6941L36.0215 22.5425L36.1345 23.3875L36.2749 24.2154L36.4495 25.0365L36.6514 25.8439L36.8808 26.641L37.141 27.421L37.4251 28.1873L37.7401 28.9365L38.079 29.672L38.4453 30.387L38.8322 31.0883L39.2464 31.7691L39.6846 32.4328L40.1468 33.0725L40.6295 33.6918L41.1327 34.2904L41.66 34.8686L42.2043 35.4194L42.7726 35.9496L43.3546 36.4525L43.9605 36.9281L44.5836 37.3796L45.2204 37.8039L45.8777 38.1973L46.5487 38.5633L47.2333 38.8986L47.9352 39.2065L48.6507 39.4768L49.3799 39.7196L49.4894 39.7881L49.5784 39.8736L49.6503 39.9762L49.7119 40.0925L49.7564 40.2157L49.7872 40.3491L49.8044 40.4825L49.8078 40.6125L49.7907 40.8144L49.7393 41.0025L49.6537 41.177L49.5442 41.331L49.4107 41.461L49.2566 41.5602L49.0889 41.6286L48.9074 41.6628L31.8517 37.9818L32.0058 37.9544L32.1496 37.8962L32.2797 37.8107L32.3927 37.7012L32.4885 37.5678L32.5604 37.4207L32.6015 37.2599L32.6186 37.0923L32.6152 36.9794L32.5981 36.8665L32.5741 36.7536L32.533 36.6475L32.4851 36.5483L32.42 36.4628L32.3447 36.3875L32.2523 36.3328L31.6361 36.1275L31.0267 35.8949L30.431 35.6349L29.8456 35.351L29.2739 35.0362L28.7193 34.701L28.175 34.3418L27.6477 33.9586L27.1342 33.5549L26.6378 33.1273L26.1551 32.6757L25.6895 32.207L25.2445 31.7178L24.8165 31.2081L24.4057 30.6812L24.012 30.1373L23.6423 29.5728L23.2897 28.9946L22.9576 28.3994L22.6495 27.7904L22.3619 27.1644L22.0949 26.5281L21.8518 25.8781L21.6293 25.2144L21.4342 24.537L21.263 23.8528L21.1158 23.1549L20.9925 22.4468L20.9001 21.7318L20.8316 21.0099L20.7871 20.2778L20.7734 19.5389Z" fill="url(#paint0_linear_1409_42965)"/>
<path fill-rule="evenodd" clip-rule="evenodd" d="M42.6937 36.4902L42.9334 36.1618L43.1833 35.8436L43.4366 35.5357L43.7002 35.2415L43.9672 34.9542L44.2411 34.6805L44.5184 34.4136L44.8026 34.1571L45.0936 33.9142L45.388 33.6815L45.6892 33.4557L45.9939 33.2436L46.302 33.0384L46.6136 32.8468L46.932 32.6621L47.2503 32.4876L47.5756 32.3268L47.9008 32.1729L48.2294 32.0326L48.5615 31.8992L48.8936 31.776L49.2291 31.6631L49.568 31.5639L49.9069 31.4715L50.2459 31.3894L50.5882 31.3142L50.9271 31.2526L51.2695 31.2013L51.6118 31.1602L51.9542 31.126L52.2965 31.1055L52.6389 31.0918L53.2927 31.0986L53.9363 31.1431L74.8879 33.6131L74.1313 33.5618L73.3611 33.555L72.9605 33.5721L72.5565 33.596L72.1526 33.6336L71.752 33.685L71.3481 33.7465L70.9475 33.8184L70.547 33.9039L70.1464 33.9997L69.7493 34.1092L69.3522 34.2289L68.9551 34.3623L68.5648 34.506L68.1745 34.66L67.7877 34.8276L67.4042 35.0089L67.0242 35.2005L66.6476 35.4023L66.2745 35.6179L65.9082 35.8436L65.5453 36.0831L65.1858 36.3363L64.8332 36.5997L64.4874 36.8768L64.1451 37.1642L63.8096 37.4652L63.4809 37.7765L63.1591 38.0981L62.8442 38.4368L62.5361 38.7857L62.2382 39.1484L61.9472 39.5213L61.6631 39.9044L61.5775 40.0242L61.4748 40.1747L61.3516 40.3389L61.2215 40.5031L61.0845 40.6536L60.9476 40.7802L60.8141 40.8692L60.6908 40.9068L41.8652 37.3386L41.9714 37.3113L42.0878 37.2326L42.2042 37.1265L42.3206 36.9965L42.4301 36.8563L42.5328 36.716L42.6218 36.5894L42.6937 36.4902Z" fill="black"/>
<path fill-rule="evenodd" clip-rule="evenodd" d="M66.7302 70.1977L47.0008 62.237L46.5968 62.0727L46.1997 61.888L45.806 61.6862L45.4191 61.4706L45.0426 61.238L44.6694 60.9883L44.3065 60.7248L43.9505 60.4443L43.6013 60.1467L43.2624 59.8354L42.9303 59.5104L42.6119 59.1683L42.3004 58.8125L41.9991 58.443L41.7047 58.0564L41.424 57.6562L41.1569 57.2422L40.8967 56.8146L40.6503 56.3733L40.6126 56.3014L40.5578 56.2159L40.4996 56.1167L40.4312 56.0141L40.3558 55.9012L40.2805 55.7917L40.2018 55.6822L40.123 55.583L58.6371 62.367L58.7295 62.4867L58.822 62.6133L58.9144 62.7433L59 62.8733L59.0787 62.9998L59.1506 63.1127L59.2123 63.2154L59.2568 63.2975L59.5478 63.8175L59.8524 64.3204L60.1708 64.8096L60.4995 65.2783L60.8452 65.7333L61.1979 66.1677L61.5642 66.5885L61.9407 66.9888L62.331 67.372L62.7316 67.738L63.139 68.087L63.5566 68.4188L63.988 68.7267L64.4262 69.0209L64.8712 69.2946L65.3231 69.5512L65.7853 69.7872L66.2543 70.0027L66.7302 70.1977Z" fill="black"/>
<path fill-rule="evenodd" clip-rule="evenodd" d="M27.7709 80.348L27.901 79.958L28.0276 79.5714L28.1577 79.1848L28.2878 78.7948L28.4179 78.4048L28.5446 78.0182L28.6747 77.6282L28.8013 77.2417L28.928 76.8517L29.0547 76.4651L29.1848 76.0751L29.3114 75.6885L29.4347 75.2985L29.5614 74.9119L29.6846 74.5219L29.8078 74.1353L29.9311 73.7453L30.0543 73.3553L30.1742 72.9688L30.294 72.5822L30.4138 72.1956L30.5336 71.809L30.6534 71.4225L30.7664 71.0359L30.8828 70.6493L30.9992 70.2627L31.1088 69.8761L31.2217 69.493L31.3313 69.1064L31.4408 68.7232L31.5504 68.3401L31.6565 67.9535L31.7079 67.7688L31.7592 67.5806L31.8071 67.3959L31.8585 67.2077L31.9064 67.023L31.9543 66.8382L32.0023 66.6535L32.0502 66.4688L32.0947 66.284L32.1426 66.0993L32.1871 65.918L32.2317 65.7332L32.2727 65.5485L32.3172 65.3672L32.3583 65.1825L32.3994 64.9977L32.4405 64.8164L32.4781 64.6317L32.5192 64.4469L32.5569 64.2622L32.5945 64.0775L32.6288 63.8961L32.6664 63.7114L32.7007 63.5267L32.7349 63.3385L32.7691 63.1538L32.7999 62.969L32.8308 62.7809L32.8616 62.5961L32.8924 62.408L32.9232 62.2232L32.9506 62.0317L32.9643 61.953L32.9745 61.8743L32.9882 61.7956L32.9985 61.7169L33.0088 61.6382L33.0225 61.5596L33.0327 61.4843L33.043 61.4056L33.0772 61.173L33.1081 60.9369L33.1389 60.6975L33.1663 60.458L33.1902 60.2185L33.2142 59.979L33.2347 59.7396L33.2518 59.5001L33.269 59.2572L33.2792 59.0177L33.2895 58.7782L33.2963 58.5422L33.2998 58.3027L33.2963 58.0701L33.2929 57.834L33.2827 57.6048L33.2792 57.5261L33.2758 57.4338L33.2655 57.3277L33.2587 57.2114L33.245 57.0882L33.2313 56.9582L33.2176 56.8282L33.1971 56.6982L50.4924 63.6806L50.5129 63.8346L50.53 63.9885L50.5472 64.139L50.5608 64.2861L50.5711 64.423L50.5814 64.5461L50.5882 64.6556L50.5917 64.748L50.6019 65.0182L50.6088 65.2919V65.569L50.6054 65.8496L50.5985 66.1301L50.5882 66.4106L50.5745 66.6911L50.554 66.9751L50.5335 67.259L50.5095 67.5396L50.4821 67.8235L50.4513 68.1075L50.4205 68.388L50.3828 68.6651L50.3452 68.9422L50.3075 69.2193L50.2972 69.3082L50.2835 69.4006L50.2699 69.4896L50.2562 69.5853L50.2425 69.6777L50.2288 69.7701L50.2151 69.8625L50.2014 69.9582L50.1671 70.1772L50.1329 70.3996L50.0987 70.6185L50.061 70.8375L50.0234 71.0564L49.9857 71.2753L49.9446 71.4943L49.9035 71.7098L49.8625 71.9288L49.8214 72.1477L49.7803 72.3632L49.7358 72.5788L49.6913 72.7977L49.6434 73.0132L49.5989 73.2288L49.5509 73.4443L49.503 73.6598L49.4551 73.8754L49.4037 74.0943L49.3524 74.3098L49.2976 74.5253L49.2462 74.7443L49.1949 74.9598L49.1401 75.1754L49.0853 75.3943L49.0271 75.6098L48.9724 75.8288L48.9142 76.0477L48.856 76.2667L48.7978 76.4856L48.7396 76.7046L48.6779 76.9235L48.5513 77.3751L48.4246 77.8267L48.2979 78.2782L48.1678 78.7332L48.0343 79.1848L47.9008 79.6398L47.7673 80.0914L47.6304 80.5464L47.4969 81.0014L47.3565 81.4564L47.2161 81.9114L47.0758 82.3664L46.9354 82.8248L46.7916 83.2798L46.6478 83.7348L46.504 84.1932L46.3568 84.6482L46.2131 85.1067L46.0624 85.5617L45.9152 86.0201L45.768 86.4785L45.6174 86.9335L45.4702 87.3919L45.3161 87.8469L45.1689 88.3053L45.0183 88.7638L44.8642 89.2188L44.7136 89.6772L44.5629 90.1322L44.4089 90.5906L44.2583 91.0456L44.1042 91.504L44.022 91.7572L43.9365 92.0104L43.8509 92.2635L43.7687 92.5201L43.6831 92.7732L43.5975 93.0264L43.5119 93.2796L43.4298 93.5361L43.3442 93.7893L43.2586 94.0425L43.1764 94.2956L43.0909 94.5488L43.0087 94.8019L42.9231 95.0551L42.8409 95.3048L42.7588 95.558L26.624 83.793L26.6959 83.5809L26.7678 83.3653L26.8397 83.1498L26.9082 82.9377L26.9801 82.7222L27.052 82.5067L27.1239 82.2911L27.1957 82.0756L27.2676 81.8601L27.3395 81.6446L27.4114 81.429L27.4833 81.2101L27.5552 80.9946L27.6271 80.779L27.699 80.5635L27.7709 80.348Z" fill="url(#paint1_linear_1409_42965)"/>
<path fill-rule="evenodd" clip-rule="evenodd" d="M19.5788 74.3545L6.92223 65.7711L6.23754 65.2648L5.58366 64.7242L4.96059 64.1461L4.36491 63.5303L3.80346 62.8837L3.27283 62.2029L2.77642 61.4913L2.31768 60.7455L1.8966 59.9724L1.51317 59.1684L1.17082 58.3371L0.869558 57.475L0.609376 56.5924L0.393698 55.6824L0.222525 54.7484L0.0992803 53.7905L0.0273877 52.8121L0 51.8132L0.0273877 50.8074L0.0992803 49.8153L0.222525 48.8334L0.393698 47.8687L0.609376 46.9176L0.869558 45.9837L1.17082 45.0703L1.51317 44.174L1.8966 43.3016L2.31768 42.4463L2.77642 41.6184L3.27283 40.8145L3.80346 40.0345L4.36491 39.2819L4.96059 38.56L5.58366 37.8655L6.23754 37.2019L6.92223 36.5724L7.63089 35.9771L8.36351 35.4126L9.12009 34.8858L9.90064 34.4L10.7017 33.9484L11.5234 33.5379L12.3587 33.1684L13.2146 32.84L14.0875 32.5561L14.9708 32.32L15.8677 32.1284L16.7784 31.9813L17.6993 31.8855L18.627 31.8411L19.1029 31.8376L19.5719 31.8479L20.0443 31.8719L20.5065 31.9095L20.9687 31.9574L21.4274 32.0224L21.8793 32.0976L37.1753 34.7387L36.6413 34.6498L36.1038 34.5745L35.5595 34.5163L35.0117 34.4719L34.464 34.4445L33.9059 34.4308L33.3479 34.4376L32.2558 34.489L31.174 34.6019L30.1059 34.7729L29.048 35.0021L28.0073 35.2792L26.9803 35.6145L25.9738 35.9976L24.9878 36.4321L24.0224 36.9145L23.081 37.4448L22.1635 38.0195L21.2734 38.6387L20.4107 39.3024L19.5788 40.0037L18.7742 40.7461L18.004 41.5261L17.2679 42.3403L16.5695 43.1921L15.9088 44.0782L15.2823 44.9916L14.7003 45.9392L14.1628 46.9142L13.6664 47.9166L13.2146 48.9463L12.8106 50L12.4545 51.0776L12.1499 52.1724L11.8965 53.2945L11.698 54.4303L11.5507 55.5832L11.4652 56.7498L11.4344 57.9334L11.4652 59.1103L11.5507 60.2632L11.698 61.3853L11.8965 62.4869L12.1499 63.5542L12.4545 64.5942L12.8106 65.6069L13.2146 66.5853L13.6664 67.5295L14.1628 68.4429L14.7003 69.3187L15.2823 70.1569L15.9088 70.9574L16.5695 71.7203L17.2679 72.4421L18.004 73.1229L18.7742 73.7592L19.5788 74.3545Z" fill="url(#paint2_linear_1409_42965)"/>
<path fill-rule="evenodd" clip-rule="evenodd" d="M48.3286 41.2762C48.825 41.242 49.2324 40.7733 49.2324 40.2259C49.2324 39.877 49.1092 39.4801 48.8045 39.3296C40.9579 36.9314 35.299 28.8817 35.299 19.573C35.2955 7.84907 44.087 -0.891724 54.1828 0.0730132C63.6075 0.976171 70.8447 10.1275 70.8447 20.483C70.8447 28.283 66.7708 35.6691 60.2183 38.5188C59.8349 38.6899 59.2632 39.0388 59.2632 39.593C59.2632 40.1472 59.6466 40.5441 60.1122 40.5235C60.4272 40.5099 60.8927 39.7914 61.0845 39.5212C64.0629 35.3441 68.5065 33.2641 72.7824 33.1717C81.0432 32.9904 87.4211 40.7733 87.4211 50.4959C87.4211 60.2185 81.0432 69.168 72.7893 70.5056C67.1234 71.4259 61.7007 68.5454 58.6778 62.9143C58.5716 62.7193 58.3046 62.2883 58.0581 61.9838C57.928 62.4799 57.8527 63.1572 57.8287 63.4446C57.7226 64.7891 57.7877 66.2225 57.952 67.5293C58.0136 67.9672 58.0821 68.4051 58.1437 68.8396C58.5203 71.0838 59.1639 73.1638 59.852 75.2233C61.1906 79.1199 62.6695 82.9206 64.0868 86.6564C64.4634 87.6691 64.8434 88.6714 65.2268 89.667C64.2922 89.4241 63.3645 89.1778 62.423 88.9314C56.4286 87.3441 51.9404 87.7751 45.5009 92.6638C44.7477 93.2385 43.5221 94.9799 42.7587 95.5546C42.5567 95.4109 42.4163 95.3049 42.1904 95.1441C42.6354 93.803 43.0771 92.4756 43.5255 91.1175C45.1483 86.2528 46.771 81.347 48.0959 76.537C48.7463 74.1867 49.2667 71.9322 49.6193 69.5683C49.657 69.3185 49.6946 69.0688 49.7254 68.8293C49.9411 67.3651 50.078 65.8017 50.0096 64.358C50.0027 64.1459 49.9719 63.6978 49.9103 63.2941C49.7562 63.5472 49.6261 63.8072 49.5508 63.9475C46.343 71.0257 40.1021 75.8049 32.769 76.9954C21.0711 78.8941 10.8555 70.2183 10.8555 57.5467C10.8555 44.8751 21.0676 34.3075 32.769 34.0509C38.7498 33.9175 44.1383 36.5654 47.7159 41.0983C47.8151 41.2077 48.1814 41.2762 48.3286 41.2762Z" fill="url(#paint3_linear_1409_42965)"/>
<path fill-rule="evenodd" clip-rule="evenodd" d="M48.6743 41.6354L31.6562 37.9578L31.7281 37.9714L31.7966 37.9783L31.8514 37.9817L48.9071 41.6628L48.842 41.6593L48.7633 41.6491L48.6743 41.6354Z" fill="black"/>
<path fill-rule="evenodd" clip-rule="evenodd" d="M48.9077 41.6629C49.4041 41.6287 49.8115 41.16 49.8115 40.6126C49.8115 40.2637 49.6883 39.8668 49.3836 39.7197C41.537 37.3182 35.8781 29.2684 35.8781 19.9632C35.8781 8.23237 44.6695 -0.508421 54.7653 0.459737C64.1901 1.35947 71.4272 10.5142 71.4272 20.8697C71.4272 28.6697 67.3533 36.0558 60.8008 38.9055C60.4208 39.0766 59.8457 39.4255 59.8457 39.9763C59.8457 40.5271 60.2291 40.9308 60.6947 40.9068C61.0097 40.8897 61.4753 40.1747 61.667 39.9045C64.6454 35.7274 69.0856 33.6508 73.3649 33.555C81.6257 33.3737 88.0036 41.1566 88.0036 50.8792C88.0036 60.6018 81.6257 69.5513 73.3718 70.8889C67.7059 71.8092 62.2866 68.9287 59.2603 63.2976C59.1541 63.1026 58.8837 62.6716 58.6406 62.3671C58.5105 62.8632 58.4352 63.5405 58.4113 63.8245C58.3051 65.1689 58.3736 66.6024 58.5345 67.9092C58.5961 68.3471 58.6646 68.785 58.7262 69.2195C59.1028 71.4671 59.743 73.5437 60.4345 75.6032C61.7731 79.4997 63.252 83.3005 64.6693 87.0363C65.0459 88.049 65.4259 89.0513 65.8093 90.0468C64.8747 89.8039 63.9504 89.5576 63.009 89.3113C57.0145 87.7239 52.5263 88.155 46.0868 93.0437C44.9913 93.8818 43.8821 94.7234 42.7626 95.5547C43.2077 94.2137 43.6596 92.8555 44.1115 91.5008C45.7342 86.6326 47.3569 81.7303 48.6818 76.9237C49.3322 74.5734 49.8526 72.3189 50.2052 69.955C50.2429 69.7053 50.2805 69.4555 50.3114 69.2161C50.527 67.7518 50.664 66.1884 50.5955 64.7447C50.5852 64.5292 50.5578 64.0845 50.4962 63.6774C50.3422 63.9305 50.2121 64.1905 50.1368 64.3308C46.929 71.4089 40.688 76.1882 33.355 77.3787C21.657 79.2774 11.4414 70.6016 11.4414 57.93C11.4414 45.2584 21.6536 34.6908 33.355 34.4342C39.3357 34.3042 44.7243 36.9453 48.3018 41.4816C48.4011 41.5911 48.7708 41.6561 48.9146 41.6595L48.9077 41.6629Z" fill="url(#paint4_linear_1409_42965)"/>
<path fill-rule="evenodd" clip-rule="evenodd" d="M32.482 35.7854C38.1992 35.628 43.1393 38.1972 46.3539 42.2409C46.8982 42.9217 47.8944 42.9251 48.0314 42.9183C49.3015 42.8533 50.3285 41.6559 50.3285 40.2636C50.3285 38.6454 49.257 38.0501 48.9591 37.9578C41.9171 35.7683 36.5388 28.4746 36.5388 19.7133C36.5388 8.92672 44.5942 0.863294 53.8958 1.70145C62.6187 2.48829 69.363 10.9315 69.363 20.548C69.363 28.0059 65.402 34.6941 59.5102 37.2257C58.5277 37.6465 57.6718 38.4915 57.6718 39.7401C57.6718 41.0983 58.6441 42.1588 59.8218 42.0972C60.6948 42.0528 61.2357 41.2659 61.7595 40.5304C64.3852 36.8391 68.3838 34.8001 72.4954 34.6872C80.1503 34.4786 86.0694 41.6662 86.0694 50.6841C86.0694 59.702 80.1503 67.9707 72.5023 69.1715C67.1137 70.0165 62.1977 67.1565 59.5102 62.1104C56.9084 57.4372 55.6725 62.4115 56.3709 68.0015C56.9461 72.6062 58.1545 75.7775 62.6256 87.5596C56.3196 85.8491 51.4343 86.328 44.5942 91.4904C49.4487 76.8038 50.2053 73.222 50.8044 68.9696C51.7595 62.1891 50.4141 58.6038 48.0485 63.4515C45.1762 69.7667 39.5275 74.3441 32.482 75.4525C21.7016 77.1425 12.3213 69.1201 12.3213 57.4783C12.3213 45.8365 21.7016 36.0762 32.482 35.782V35.7854Z" fill="url(#paint5_radial_1409_42965)"/>
<path fill-rule="evenodd" clip-rule="evenodd" d="M38.8427 36.8014C42.2079 37.8209 45.0939 39.853 47.2233 42.5316C47.3465 42.6856 47.4903 42.8053 47.6444 42.8977C47.2678 42.8464 46.7132 42.6924 46.3537 42.2443C44.4092 39.7982 41.8348 37.8927 38.8427 36.8048V36.8014ZM57.6785 2.55664C64.9431 4.73243 70.2289 12.3237 70.2289 20.8387C70.2289 28.2966 66.268 34.9848 60.3762 37.5198C59.3937 37.9406 58.5378 38.7856 58.5378 40.0343C58.5378 40.9306 58.9623 41.7003 59.5923 42.1006C58.5173 42.0253 57.6683 41.0161 57.6683 39.7435C57.6683 38.4709 58.5241 37.6498 59.5067 37.229C65.4019 34.694 69.3594 28.0093 69.3594 20.5514C69.3594 12.3819 64.4878 5.05743 57.6751 2.56006L57.6785 2.55664ZM76.9115 35.433C82.3103 37.4787 86.0693 43.5032 86.0693 50.6874C86.0693 59.6985 80.1501 67.974 72.5021 69.1748C70.739 69.4519 69.0239 69.3322 67.4251 68.8669C69.2669 69.5614 71.2834 69.7906 73.3717 69.4622C81.0197 68.2614 86.9388 59.9859 86.9388 50.9748C86.9388 43.4109 82.7725 37.1366 76.915 35.4295L76.9115 35.433ZM58.7946 60.5982C57.6272 60.913 56.7576 64.4469 57.2369 68.2956C57.8121 72.9003 59.0205 76.0716 63.4916 87.8537C57.1821 86.1432 52.2969 86.6222 45.4602 91.7845L45.8573 90.5769C52.0469 86.2801 56.7097 85.9585 62.622 87.563C58.151 75.7843 56.9425 72.6095 56.3674 68.0048C55.8573 63.8995 56.3845 60.1295 57.7333 60.263C57.925 60.2835 58.3838 60.4101 58.7946 60.5982ZM51.0302 61.5253C50.0682 60.7316 48.8837 61.2653 48.0484 63.4548C45.1761 69.7701 39.5274 74.3474 32.4819 75.4558C29.7157 75.8903 27.0454 75.6816 24.5977 74.9393C27.2748 75.9109 30.2532 76.229 33.348 75.7432C40.3935 74.6382 46.0422 70.0574 48.9145 63.7456C49.5273 62.4901 50.5783 61.7443 51.0302 61.5253Z" fill="black"/>
<path fill-rule="evenodd" clip-rule="evenodd" d="M48.9077 41.6629C49.4041 41.6287 49.8115 41.16 49.8115 40.6126C49.8115 40.2637 49.6883 39.8668 49.3836 39.7197C41.537 37.3182 35.8781 29.2684 35.8781 19.9632C35.8781 8.23237 44.6695 -0.508421 54.7653 0.459737C64.1901 1.35947 71.4272 10.5142 71.4272 20.8697C71.4272 28.6697 67.3533 36.0558 60.8008 38.9055C60.4208 39.0766 59.8457 39.4255 59.8457 39.9763C59.8457 40.5271 60.2291 40.9308 60.6947 40.9068C61.0097 40.8897 61.4753 40.1747 61.667 39.9045C64.6454 35.7274 69.0856 33.6508 73.3649 33.555C81.6257 33.3737 88.0036 41.1566 88.0036 50.8792C88.0036 60.6018 81.6257 69.5513 73.3718 70.8889C67.7059 71.8092 62.2866 68.9287 59.2603 63.2976C59.1541 63.1026 58.8837 62.6716 58.6406 62.3671C58.5105 62.8632 58.4352 63.5405 58.4113 63.8245C58.3051 65.1689 58.3736 66.6024 58.5345 67.9092C58.5961 68.3471 58.6646 68.785 58.7262 69.2195C59.1028 71.4671 59.743 73.5437 60.4345 75.6032C61.7731 79.4997 63.252 83.3005 64.6693 87.0363C65.0459 88.049 65.4259 89.0513 65.8093 90.0468C64.8747 89.8039 63.9504 89.5576 63.009 89.3113C57.0145 87.7239 52.5263 88.155 46.0868 93.0437C44.9913 93.8818 43.8821 94.7234 42.7626 95.5547C43.2077 94.2137 43.6596 92.8555 44.1115 91.5008C45.7342 86.6326 47.3569 81.7303 48.6818 76.9237C49.3322 74.5734 49.8526 72.3189 50.2052 69.955C50.2429 69.7053 50.2805 69.4555 50.3114 69.2161C50.527 67.7518 50.664 66.1884 50.5955 64.7447C50.5852 64.5292 50.5578 64.0845 50.4962 63.6774C50.3422 63.9305 50.2121 64.1905 50.1368 64.3308C46.929 71.4089 40.688 76.1882 33.355 77.3787C21.657 79.2774 11.4414 70.6016 11.4414 57.93C11.4414 45.2584 21.6536 34.6908 33.355 34.4342C39.3357 34.3042 44.7243 36.9453 48.3018 41.4816C48.4011 41.5911 48.7708 41.6561 48.9146 41.6595L48.9077 41.6629ZM33.3481 36.0763C22.5676 36.3705 13.1874 46.1205 13.1874 57.7726C13.1874 69.4247 22.5676 77.4368 33.3481 75.7468C40.3936 74.6418 46.0423 70.0611 48.9146 63.7492C51.2802 58.9016 52.6256 62.4868 51.6705 69.2708C51.0714 73.5197 50.3148 77.1016 45.4603 91.7882C52.297 86.6258 57.1822 86.1468 63.4917 87.8574C59.0206 76.0787 57.8087 72.9074 57.237 68.2992C56.542 62.7092 57.7745 57.7316 60.3763 62.4082C63.0637 67.4542 67.9798 70.3142 73.3683 69.4692C81.0163 68.2684 86.9355 59.9929 86.9355 50.9818C86.9355 41.9708 81.0163 34.7763 73.3615 34.9816C69.2499 35.0945 65.2513 37.1334 62.6255 40.8247C62.1017 41.5568 61.5608 42.3437 60.6879 42.3882C59.5102 42.4497 58.5379 41.3892 58.5379 40.0311C58.5379 38.7824 59.3938 37.9374 60.3763 37.5166C66.2715 34.9816 70.229 28.2968 70.229 20.8355C70.229 11.2189 63.4848 2.77579 54.7619 1.98895C45.4603 1.14737 37.4049 9.21079 37.4049 20.0008C37.4049 28.7587 42.7797 36.0558 49.8252 38.2453C50.1231 38.3376 51.1946 38.9329 51.1946 40.5511C51.1946 41.9434 50.1676 43.1408 48.8975 43.2092C48.7605 43.2161 47.7643 43.2126 47.22 42.5284C44.0019 38.4847 39.0653 35.9155 33.3447 36.0729L33.3481 36.0763Z" fill="url(#paint6_linear_1409_42965)"/>
<path fill-rule="evenodd" clip-rule="evenodd" d="M83.3234 41.5876C81.0331 38.1836 77.4727 36.0249 73.3611 36.1549C69.7391 36.2678 65.9562 38.0228 63.4296 41.5842C62.6868 42.6378 61.9439 43.5581 60.6875 43.6299C58.9107 43.7292 57.442 42.1418 57.442 40.0823C57.442 38.2521 58.606 36.9623 60.0302 36.3534C65.7028 33.9484 69.2187 27.5476 69.2187 20.8149C69.2187 11.8313 62.9024 3.956 54.7615 3.25811C46.1104 2.51574 38.6575 10.0318 38.6575 20.035C38.6507 27.9752 43.4675 34.896 50.174 37.0034C50.6499 37.1573 51.1394 37.5336 51.4681 37.9339C52.0569 38.6421 52.3411 39.5315 52.3411 40.5031C52.3411 42.5968 50.8005 44.3928 48.8971 44.5023C47.9762 44.5571 46.9149 44.1705 46.3158 43.4144C43.1936 39.5076 38.5137 37.2634 33.3477 37.4276C25.9291 37.6636 19.2362 42.7165 16.2578 49.805C16.5933 50.496 16.9459 51.1597 17.3294 51.7789C25.799 65.9215 39.931 58.9323 53.1456 50.9339C65.2509 43.6094 76.6442 35.4023 83.3199 41.591L83.3234 41.5876Z" fill="url(#paint7_radial_1409_42965)"/>
<path fill-rule="evenodd" clip-rule="evenodd" d="M46.2844 108.353C71.4598 108.353 92.0004 106.019 92.0004 103.158C92.0004 100.297 71.4652 97.968 46.2844 97.968C21.1036 97.968 0.568359 100.302 0.568359 103.158C0.568359 106.014 21.1036 108.353 46.2844 108.353Z" fill="url(#paint8_radial_1409_42965)"/>
<defs>
<linearGradient id="paint0_linear_1409_42965" x1="35.912" y1="35.7512" x2="35.912" y2="-1.69904" gradientUnits="userSpaceOnUse">
<stop stop-color="#382C13"/>
<stop offset="0.32" stop-color="#A0844E"/>
<stop offset="0.67" stop-color="#F5D8A2"/>
<stop offset="0.86" stop-color="#C4A767"/>
<stop offset="1" stop-color="white"/>
</linearGradient>
<linearGradient id="paint1_linear_1409_42965" x1="45.9803" y1="62.278" x2="13.4472" y2="118.663" gradientUnits="userSpaceOnUse">
<stop stop-color="#1E1404"/>
<stop offset="0.2" stop-color="#957238"/>
<stop offset="0.58" stop-color="#EEDEBA"/>
<stop offset="0.74" stop-color="#C4A767"/>
<stop offset="1" stop-color="#EEDEBA"/>
</linearGradient>
<linearGradient id="paint2_linear_1409_42965" x1="11.027" y1="70.1603" x2="22.4839" y2="27.376" gradientUnits="userSpaceOnUse">
<stop stop-color="#291F08"/>
<stop offset="0.32" stop-color="#786239"/>
<stop offset="0.68" stop-color="#EEDEBA"/>
<stop offset="0.79" stop-color="#C4A767"/>
<stop offset="1" stop-color="#342712"/>
</linearGradient>
<linearGradient id="paint3_linear_1409_42965" x1="41.5365" y1="84.4259" x2="61.7458" y2="3.31976" gradientUnits="userSpaceOnUse">
<stop stop-color="#EEDEBA"/>
<stop offset="0.37" stop-color="#EEDEBA"/>
<stop offset="0.62" stop-color="#3C2C0A"/>
<stop offset="0.81" stop-color="#EEDEBA"/>
<stop offset="0.94" stop-color="#3C2C0A"/>
<stop offset="1" stop-color="#EEDEBA"/>
</linearGradient>
<linearGradient id="paint4_linear_1409_42965" x1="51.9409" y1="86.2153" x2="46.601" y2="9.79527" gradientUnits="userSpaceOnUse">
<stop stop-color="#696D71"/>
<stop offset="0.14" stop-color="#F9FBFB"/>
<stop offset="0.31" stop-color="#55575B"/>
<stop offset="0.56" stop-color="#E5E7E9"/>
<stop offset="0.86" stop-color="#7B7F85"/>
<stop offset="1" stop-color="white"/>
</linearGradient>
<radialGradient id="paint5_radial_1409_42965" cx="0" cy="0" r="1" gradientUnits="userSpaceOnUse" gradientTransform="translate(35.1831 54.6593) scale(51.4546 51.4184)">
<stop stop-color="#916E39"/>
<stop offset="1" stop-color="#281D09"/>
</radialGradient>
<linearGradient id="paint6_linear_1409_42965" x1="51.9409" y1="86.2153" x2="46.601" y2="9.79527" gradientUnits="userSpaceOnUse">
<stop stop-color="#6B4F10"/>
<stop offset="0.14" stop-color="#EEDEBA"/>
<stop offset="0.31" stop-color="#6B4F10"/>
<stop offset="0.56" stop-color="#EEDEBA"/>
<stop offset="0.86" stop-color="#6B4F10"/>
<stop offset="1" stop-color="#EEDEBA"/>
</linearGradient>
<radialGradient id="paint7_radial_1409_42965" cx="0" cy="0" r="1" gradientUnits="userSpaceOnUse" gradientTransform="translate(36 27.2512) rotate(28.9264) scale(32.5624 27.2787)">
<stop stop-color="#FFD676"/>
<stop offset="1" stop-color="#926E37"/>
</radialGradient>
<radialGradient id="paint8_radial_1409_42965" cx="0" cy="0" r="1" gradientUnits="userSpaceOnUse" gradientTransform="translate(46.2844 103.161) scale(45.716 5.19268)">
<stop/>
<stop offset="1" stop-opacity="0"/>
</radialGradient>
</defs>
</svg>
