<svg width="92" height="109" viewBox="0 0 92 109" fill="none" xmlns="http://www.w3.org/2000/svg">
<path fill-rule="evenodd" clip-rule="evenodd" d="M60.5202 40.9218L41.7217 37.3545L41.8655 37.3648L60.6914 40.9355L60.5202 40.9218Z" fill="black"/>
<path fill-rule="evenodd" clip-rule="evenodd" d="M20.7734 19.5521L20.7974 18.6243L20.859 17.7136L20.9652 16.8167L21.1124 15.9403L21.2972 15.0844L21.5232 14.2456L21.78 13.4308L22.0744 12.6366L22.4065 11.8628L22.7694 11.1165L23.1631 10.3976L23.591 9.70261L24.0463 9.03502L24.5325 8.39482L25.046 7.78544L25.5835 7.20686L26.1484 6.6591L26.7338 6.14557L27.3466 5.66628L27.9765 5.21779L28.6304 4.8104L29.3049 4.43381L29.993 4.0983L30.7016 3.80388L31.424 3.54712L32.1601 3.33143L32.9132 3.16026L33.6767 3.03016L51.0545 0.537842L50.1541 0.6919L49.2708 0.893888L48.4047 1.14723L47.5522 1.4485L46.7203 1.7977L45.9089 2.1914L45.1181 2.63304L44.3512 3.11575L43.6083 3.63955L42.886 4.20443L42.1978 4.8104L41.5337 5.45402L40.8969 6.1353L40.2978 6.85081L39.726 7.60399L39.1886 8.38797L38.6887 9.2062L38.2231 10.0552L37.7952 10.9351L37.4083 11.8389L37.0591 12.7735L36.7544 13.7355L36.4908 14.7215L36.2717 15.728L36.1005 16.7585L35.9773 17.8129L35.902 18.8845L35.8746 19.9766L35.8917 20.8462L35.9396 21.7089L36.0218 22.5579L36.1348 23.4035L36.2751 24.232L36.4497 25.0537L36.6517 25.8616L36.8811 26.6593L37.1413 27.4399L37.4254 28.2067L37.7404 28.9565L38.0793 29.6925L38.4457 30.4081L38.8325 31.1099L39.2468 31.7912L39.685 32.4553L40.1471 33.0955L40.6299 33.7152L41.1331 34.3143L41.6603 34.8929L42.2047 35.4441L42.773 35.9747L43.355 36.478L43.9609 36.9538L44.584 37.4057L45.2208 37.8303L45.8781 38.224L46.5491 38.5903L47.2338 38.9258L47.9357 39.2339L48.6512 39.5044L49.3804 39.7474L49.4899 39.8159L49.5789 39.9015L49.6508 40.0042L49.7125 40.1206L49.757 40.2438L49.7878 40.3774L49.8049 40.5109L49.8083 40.641L49.7912 40.843L49.7398 41.0312L49.6543 41.2058L49.5447 41.3599L49.4112 41.49L49.2571 41.5893L49.0894 41.6577L48.9079 41.692L31.852 38.0083L32.006 37.9809L32.1498 37.9227L32.2799 37.8371L32.3929 37.7275L32.4887 37.594L32.5606 37.4468L32.6017 37.2859L32.6188 37.1182L32.6154 37.0052L32.5983 36.8922L32.5743 36.7792L32.5332 36.6731L32.4853 36.5738L32.4203 36.4882L32.3449 36.4129L32.2525 36.3581L31.6363 36.1527L31.0269 35.9199L30.4312 35.6597L29.8458 35.3756L29.274 35.0606L28.7194 34.7251L28.1751 34.3656L27.6479 33.9822L27.1343 33.5782L26.6379 33.1503L26.1552 32.6984L25.6896 32.2294L25.2446 31.7398L24.8166 31.2297L24.4058 30.7025L24.0121 30.1581L23.6423 29.5933L23.2897 29.0147L22.9576 28.419L22.6495 27.8096L22.362 27.1831L22.0949 26.5463L21.8518 25.8959L21.6293 25.2317L21.4342 24.5538L21.263 23.8691L21.1158 23.1707L20.9925 22.4621L20.9001 21.7466L20.8316 21.0242L20.7871 20.2916L20.7734 19.5521Z" fill="url(#paint0_linear_1409_43106)"/>
<path fill-rule="evenodd" clip-rule="evenodd" d="M42.6937 36.5158L42.9334 36.1872L43.1833 35.8688L43.4366 35.5607L43.7002 35.2663L43.9673 34.9787L44.2412 34.7048L44.5185 34.4378L44.8026 34.181L45.0936 33.9379L45.388 33.7051L45.6893 33.4792L45.994 33.2669L46.3021 33.0615L46.6137 32.8698L46.932 32.6849L47.2504 32.5103L47.5757 32.3494L47.9009 32.1954L48.2296 32.055L48.5616 31.9215L48.8937 31.7982L49.2292 31.6853L49.5682 31.586L49.9071 31.4935L50.246 31.4114L50.5884 31.3361L50.9273 31.2744L51.2696 31.2231L51.612 31.182L51.9543 31.1478L52.2967 31.1272L52.6391 31.1135L53.2929 31.1204L53.9366 31.1649L74.8885 33.6367L74.1319 33.5853L73.3616 33.5785L72.9611 33.5956L72.5571 33.6195L72.1531 33.6572L71.7526 33.7086L71.3486 33.7702L70.948 33.8421L70.5475 33.9277L70.1469 34.0235L69.7498 34.1331L69.3527 34.2529L68.9555 34.3864L68.5653 34.5302L68.175 34.6843L67.7881 34.852L67.4047 35.0335L67.0247 35.2252L66.6481 35.4272L66.2749 35.6428L65.9086 35.8688L65.5457 36.1084L65.1863 36.3618L64.8336 36.6254L64.4879 36.9027L64.1455 37.1903L63.81 37.4915L63.4813 37.8031L63.1595 38.1249L62.8446 38.4638L62.5364 38.813L62.2386 39.1759L61.9476 39.5491L61.6635 39.9325L61.5779 40.0523L61.4752 40.203L61.3519 40.3673L61.2218 40.5316L61.0849 40.6823L60.9479 40.8089L60.8144 40.8979L60.6912 40.9356L41.8652 37.3649L41.9714 37.3375L42.0878 37.2587L42.2042 37.1526L42.3206 37.0225L42.4301 36.8822L42.5328 36.7418L42.6218 36.6151L42.6937 36.5158Z" fill="black"/>
<path fill-rule="evenodd" clip-rule="evenodd" d="M66.7306 70.2478L47.0009 62.2813L46.5969 62.117L46.1998 61.9321L45.8061 61.7301L45.4192 61.5144L45.0426 61.2816L44.6695 61.0317L44.3066 60.7681L43.9505 60.4874L43.6013 60.1895L43.2624 59.878L42.9303 59.5528L42.6119 59.2104L42.3004 58.8544L41.9991 58.4846L41.7047 58.0978L41.424 57.6972L41.157 57.283L40.8968 56.855L40.6503 56.4134L40.6126 56.3415L40.5578 56.2559L40.4996 56.1566L40.4312 56.0539L40.3558 55.9409L40.2805 55.8314L40.2018 55.7218L40.123 55.6226L58.6374 62.4114L58.7299 62.5312L58.8223 62.6579L58.9147 62.788L59.0003 62.9181L59.0791 63.0447L59.151 63.1577L59.2126 63.2604L59.2571 63.3426L59.5481 63.863L59.8528 64.3662L60.1712 64.8558L60.4998 65.3248L60.8456 65.7801L61.1982 66.2149L61.5646 66.636L61.9411 67.0366L62.3314 67.42L62.732 67.7863L63.1394 68.1355L63.557 68.4676L63.9884 68.7757L64.4266 69.0701L64.8717 69.344L65.3236 69.6008L65.7858 69.837L66.2548 70.0527L66.7306 70.2478Z" fill="black"/>
<path fill-rule="evenodd" clip-rule="evenodd" d="M27.7719 80.4053L27.902 80.015L28.0286 79.6282L28.1587 79.2413L28.2888 78.851L28.4189 78.4608L28.5456 78.0739L28.6757 77.6836L28.8024 77.2968L28.929 76.9065L29.0557 76.5196L29.1858 76.1293L29.3125 75.7425L29.4357 75.3522L29.5624 74.9654L29.6856 74.5751L29.8089 74.1882L29.9321 73.7979L30.0554 73.4076L30.1752 73.0208L30.295 72.6339L30.4148 72.2471L30.5347 71.8602L30.6545 71.4734L30.7675 71.0865L30.8839 70.6996L31.0003 70.3128L31.1098 69.9259L31.2228 69.5425L31.3323 69.1556L31.4419 68.7722L31.5514 68.3888L31.6576 68.0019L31.7089 67.817L31.7603 67.6287L31.8082 67.4439L31.8596 67.2556L31.9075 67.0707L31.9554 66.8858L32.0034 66.701L32.0513 66.5161L32.0958 66.3312L32.1437 66.1464L32.1882 65.9649L32.2327 65.78L32.2738 65.5952L32.3183 65.4137L32.3594 65.2289L32.4005 65.044L32.4416 64.8625L32.4792 64.6777L32.5203 64.4928L32.558 64.3079L32.5956 64.1231L32.6299 63.9416L32.6675 63.7567L32.7017 63.5719L32.736 63.3836L32.7702 63.1987L32.801 63.0138L32.8318 62.8255L32.8627 62.6407L32.8935 62.4524L32.9243 62.2675L32.9517 62.0758L32.9654 61.9971L32.9756 61.9183L32.9893 61.8396L32.9996 61.7608L33.0099 61.6821L33.0236 61.6034L33.0338 61.528L33.0441 61.4493L33.0783 61.2165L33.1091 60.9803L33.14 60.7406L33.1673 60.501L33.1913 60.2613L33.2153 60.0217L33.2358 59.782L33.2529 59.5424L33.2701 59.2993L33.2803 59.0597L33.2906 58.82L33.2974 58.5838L33.3009 58.3442L33.2974 58.1114L33.294 57.8751L33.2837 57.6458L33.2803 57.567L33.2769 57.4746L33.2666 57.3685L33.2598 57.2521L33.2461 57.1288L33.2324 56.9987L33.2187 56.8686L33.1982 56.7385L50.4938 63.7259L50.5143 63.88L50.5314 64.034L50.5486 64.1847L50.5623 64.3319L50.5725 64.4688L50.5828 64.5921L50.5896 64.7016L50.5931 64.7941L50.6033 65.0645L50.6102 65.3384V65.6157L50.6068 65.8964L50.5999 66.1772L50.5896 66.4579L50.576 66.7386L50.5554 67.0228L50.5349 67.3069L50.5109 67.5877L50.4835 67.8718L50.4527 68.156L50.4219 68.4367L50.3842 68.714L50.3466 68.9913L50.3089 69.2686L50.2986 69.3576L50.285 69.4501L50.2713 69.5391L50.2576 69.6349L50.2439 69.7274L50.2302 69.8198L50.2165 69.9122L50.2028 70.0081L50.1686 70.2272L50.1343 70.4497L50.1001 70.6688L50.0624 70.8879L50.0248 71.107L49.9871 71.3261L49.946 71.5453L49.9049 71.7609L49.8639 71.98L49.8228 72.1991L49.7817 72.4148L49.7372 72.6305L49.6927 72.8496L49.6448 73.0653L49.6003 73.281L49.5523 73.4967L49.5044 73.7123L49.4565 73.928L49.4051 74.1471L49.3538 74.3628L49.299 74.5785L49.2476 74.7976L49.1963 75.0133L49.1415 75.229L49.0867 75.4481L49.0285 75.6637L48.9737 75.8829L48.9155 76.102L48.8573 76.3211L48.7991 76.5402L48.7409 76.7593L48.6793 76.9784L48.5527 77.4303L48.426 77.8822L48.2993 78.3341L48.1692 78.7894L48.0357 79.2413L47.9022 79.6967L47.7687 80.1486L47.6317 80.6039L47.4982 81.0592L47.3578 81.5145L47.2175 81.9699L47.0771 82.4252L46.9368 82.884L46.793 83.3393L46.6492 83.7946L46.5054 84.2534L46.3582 84.7087L46.2144 85.1674L46.0638 85.6228L45.9165 86.0815L45.7693 86.5403L45.6187 86.9956L45.4715 87.4544L45.3174 87.9097L45.1702 88.3684L45.0196 88.8272L44.8655 89.2825L44.7149 89.7413L44.5642 90.1966L44.4102 90.6553L44.2596 91.1107L44.1055 91.5694L44.0233 91.8228L43.9377 92.0761L43.8522 92.3294L43.77 92.5862L43.6844 92.8396L43.5988 93.0929L43.5132 93.3462L43.4311 93.603L43.3455 93.8563L43.2599 94.1097L43.1777 94.363L43.0921 94.6164L43.01 94.8697L42.9244 95.123L42.8422 95.373L42.7601 95.6263L26.625 83.8528L26.6969 83.6406L26.7688 83.4249L26.8407 83.2092L26.9092 82.9969L26.981 82.7812L27.0529 82.5656L27.1248 82.3499L27.1967 82.1342L27.2686 81.9185L27.3405 81.7028L27.4124 81.4872L27.4843 81.2681L27.5562 81.0524L27.6281 80.8367L27.7 80.621L27.7719 80.4053Z" fill="url(#paint1_linear_1409_43106)"/>
<path fill-rule="evenodd" clip-rule="evenodd" d="M19.5791 74.4074L6.92236 65.8178L6.23765 65.3111L5.58376 64.7702L4.96068 64.1916L4.36499 63.5754L3.80353 62.9283L3.27289 62.247L2.77648 61.5349L2.31772 60.7886L1.89663 60.0149L1.5132 59.2104L1.17084 58.3785L0.869574 57.5157L0.609387 56.6325L0.393705 55.7218L0.222529 54.7872L0.0992821 53.8286L0.0273882 52.8495L0 51.8498L0.0273882 50.8433L0.0992821 49.8505L0.222529 48.8679L0.393705 47.9025L0.609387 46.9507L0.869574 46.0161L1.17084 45.102L1.5132 44.2051L1.89663 43.3321L2.31772 42.4762L2.77648 41.6477L3.27289 40.8432L3.80353 40.0626L4.36499 39.3094L4.96068 38.5871L5.58376 37.8921L6.23765 37.2279L6.92236 36.598L7.63103 36.0023L8.36366 35.4374L9.12026 34.9102L9.90082 34.4241L10.7019 33.9722L11.5236 33.5614L12.3589 33.1916L13.2148 32.863L14.0878 32.5788L14.9711 32.3426L15.868 32.1509L16.7787 32.0037L17.6996 31.9078L18.6274 31.8633L19.1032 31.8599L19.5723 31.8701L20.0447 31.8941L20.5069 31.9318L20.9691 31.9797L21.4278 32.0447L21.8797 32.1201L37.176 34.763L36.6419 34.674L36.1044 34.5987L35.5601 34.5405L35.0123 34.496L34.4646 34.4686L33.9065 34.4549L33.3485 34.4617L32.2564 34.5131L31.1746 34.6261L30.1064 34.7972L29.0486 35.0266L28.0078 35.3039L26.9808 35.6394L25.9743 36.0229L24.9883 36.4577L24.0228 36.9404L23.0814 37.471L22.1639 38.0462L21.2738 38.6658L20.411 39.33L19.5791 40.0318L18.7746 40.7747L18.0043 41.5553L17.2682 42.3701L16.5698 43.2225L15.9091 44.1092L15.2826 45.0233L14.7006 45.9716L14.1631 46.9473L13.6667 47.9504L13.2148 48.9809L12.8108 50.0353L12.4548 51.1137L12.1501 52.2093L11.8967 53.3322L11.6982 54.4688L11.551 55.6225L11.4654 56.7899L11.4346 57.9745L11.4654 59.1522L11.551 60.3059L11.6982 61.4288L11.8967 62.5312L12.1501 63.5993L12.4548 64.6401L12.8108 65.6534L13.2148 66.6326L13.6667 67.5775L14.1631 68.4915L14.7006 69.368L15.2826 70.2067L15.9091 71.0078L16.5698 71.7713L17.2682 72.4936L18.0043 73.1749L18.7746 73.8117L19.5791 74.4074Z" fill="url(#paint2_linear_1409_43106)"/>
<path fill-rule="evenodd" clip-rule="evenodd" d="M48.3303 41.3052C48.8267 41.271 49.2341 40.802 49.2341 40.2542C49.2341 39.905 49.1109 39.5079 48.8062 39.3572C40.9595 36.9573 35.3004 28.9018 35.3004 19.5864C35.297 7.85399 44.0886 -0.8931 54.1845 0.0723333C63.6095 0.976143 70.8468 10.1341 70.8468 20.4971C70.8468 28.3027 66.7728 35.6941 60.2202 38.5459C59.8368 38.717 59.265 39.0662 59.265 39.6208C59.265 40.1755 59.6485 40.5726 60.1141 40.552C60.429 40.5383 60.8946 39.8194 61.0863 39.5489C64.0648 35.3688 68.5085 33.2873 72.7845 33.1949C81.0455 33.0134 87.4235 40.802 87.4235 50.5316C87.4235 60.2613 81.0455 69.2172 72.7914 70.5558C67.1254 71.4767 61.7026 68.5941 58.6796 62.959C58.5735 62.7638 58.3064 62.3325 58.0599 62.0278C57.9299 62.5242 57.8545 63.2021 57.8306 63.4896C57.7244 64.8351 57.7895 66.2695 57.9538 67.5773C58.0154 68.0155 58.0839 68.4537 58.1455 68.8885C58.5221 71.1344 59.1657 73.2159 59.8539 75.2768C61.1925 79.1762 62.6714 82.9797 64.0888 86.7182C64.4653 87.7316 64.8454 88.7347 65.2288 89.7309C64.2942 89.4878 63.3664 89.2414 62.4249 88.9949C56.4304 87.4063 51.9421 87.8377 45.5025 92.7299C44.7493 93.3051 43.5237 95.0476 42.7602 95.6228C42.5582 95.479 42.4179 95.3729 42.1919 95.212C42.637 93.8699 43.0786 92.5416 43.5271 91.1825C45.1498 86.3142 46.7726 81.4049 48.0975 76.5914C48.748 74.2395 49.2683 71.9834 49.621 69.6177C49.6586 69.3678 49.6963 69.1179 49.7271 68.8783C49.9428 67.413 50.0797 65.8484 50.0112 64.4037C50.0044 64.1915 49.9736 63.743 49.912 63.339C49.7579 63.5923 49.6278 63.8525 49.5525 63.9929C46.3447 71.0762 40.1036 75.8588 32.7704 77.0502C21.0722 78.9502 10.8564 70.2682 10.8564 57.5875C10.8564 44.9068 21.0688 34.3315 32.7704 34.0747C38.7513 33.9412 44.1399 36.591 47.7175 41.1272C47.8168 41.2367 48.1831 41.3052 48.3303 41.3052Z" fill="url(#paint3_linear_1409_43106)"/>
<path fill-rule="evenodd" clip-rule="evenodd" d="M48.6765 41.6649L31.6582 37.9846L31.7301 37.9983L31.7986 38.0052L31.8533 38.0086L48.9093 41.6923L48.8443 41.6889L48.7655 41.6786L48.6765 41.6649Z" fill="black"/>
<path fill-rule="evenodd" clip-rule="evenodd" d="M48.9084 41.6922C49.4048 41.6579 49.8122 41.1889 49.8122 40.6412C49.8122 40.292 49.689 39.8948 49.3843 39.7476C41.5376 37.3443 35.8785 29.2888 35.8785 19.9768C35.8785 8.23754 44.6701 -0.509555 54.7661 0.459301C64.191 1.35969 71.4283 10.521 71.4283 20.884C71.4283 28.6897 67.3543 36.081 60.8017 38.9328C60.4217 39.104 59.8466 39.4532 59.8466 40.0044C59.8466 40.5556 60.23 40.9596 60.6956 40.9356C61.0106 40.9185 61.4762 40.203 61.6679 39.9325C64.6463 35.7524 69.0866 33.6743 73.3661 33.5784C81.627 33.397 88.005 41.1855 88.005 50.9151C88.005 60.6448 81.627 69.6007 73.3729 70.9393C67.707 71.8602 62.2875 68.9776 59.2611 63.3425C59.155 63.1474 58.8846 62.716 58.6415 62.4113C58.5114 62.9077 58.4361 63.5856 58.4121 63.8697C58.306 65.2152 58.3745 66.6497 58.5354 67.9574C58.597 68.3956 58.6654 68.8339 58.7271 69.2686C59.1037 71.5179 59.7439 73.596 60.4354 75.6569C61.774 79.5563 63.253 83.3599 64.6703 87.0983C65.0469 88.1117 65.4269 89.1148 65.8103 90.111C64.8757 89.868 63.9514 89.6215 63.0099 89.375C57.0153 87.7865 52.5271 88.2178 46.0874 93.11C44.9919 93.9488 43.8827 94.791 42.7632 95.6229C43.2083 94.2809 43.6602 92.9217 44.1121 91.566C45.7348 86.6944 47.3576 81.7885 48.6825 76.9784C49.3329 74.6264 49.8533 72.3703 50.2059 70.0047C50.2436 69.7548 50.2812 69.5049 50.3121 69.2652C50.5277 67.7999 50.6647 66.2354 50.5962 64.7907C50.5859 64.575 50.5586 64.1299 50.4969 63.7225C50.3429 63.9759 50.2128 64.2361 50.1375 64.3764C46.9296 71.4597 40.6885 76.2423 33.3554 77.4337C21.6572 79.3338 11.4414 70.6517 11.4414 57.971C11.4414 45.2903 21.6538 34.715 33.3554 34.4583C39.3363 34.3282 44.7249 36.9711 48.3025 41.5107C48.4017 41.6203 48.7715 41.6853 48.9153 41.6888L48.9084 41.6922Z" fill="url(#paint4_linear_1409_43106)"/>
<path fill-rule="evenodd" clip-rule="evenodd" d="M32.4824 35.8105C38.1997 35.653 43.1398 38.2241 46.3545 42.2707C46.8988 42.952 47.8951 42.9554 48.032 42.9486C49.3022 42.8835 50.3292 41.6853 50.3292 40.2919C50.3292 38.6726 49.2576 38.0769 48.9598 37.9845C41.9176 35.7934 36.5393 28.4945 36.5393 19.7268C36.5393 8.93246 44.5948 0.863221 53.8965 1.70198C62.6196 2.48939 69.364 10.9386 69.364 20.5622C69.364 28.0254 65.403 34.7184 59.5111 37.2518C58.5285 37.6729 57.6727 38.5185 57.6727 39.7681C57.6727 41.1272 58.6449 42.1885 59.8226 42.1269C60.6956 42.0824 61.2365 41.295 61.7603 40.5589C64.3862 36.865 68.3849 34.8245 72.4965 34.7116C80.1515 34.5027 86.0708 41.6956 86.0708 50.72C86.0708 59.7444 80.1515 68.019 72.5034 69.2207C67.1147 70.0663 62.1986 67.2042 59.5111 62.1545C56.9092 57.478 55.6733 62.4558 56.3717 68.0498C56.9469 72.6579 58.1554 75.8315 62.6265 87.6221C56.3204 85.9103 51.435 86.3896 44.5948 91.5557C49.4494 76.8585 50.206 73.2741 50.8051 69.0187C51.7602 62.2333 50.4148 58.6454 48.0492 63.4965C45.1768 69.8164 39.528 74.397 32.4824 75.5062C21.7017 77.1975 12.3213 69.1693 12.3213 57.5191C12.3213 45.8688 21.7017 36.1015 32.4824 35.8071V35.8105Z" fill="url(#paint5_linear_1409_43106)"/>
<path fill-rule="evenodd" clip-rule="evenodd" d="M38.8429 36.8273C42.2082 37.8475 45.0943 39.8811 47.2237 42.5617C47.347 42.7158 47.4907 42.8356 47.6448 42.928C47.2682 42.8767 46.7136 42.7226 46.3541 42.2741C44.4096 39.8263 41.8351 37.9194 38.8429 36.8307V36.8273ZM57.6791 2.55786C64.9438 4.73522 70.2298 12.332 70.2298 20.8532C70.2298 28.3164 66.2687 35.0094 60.3769 37.5462C59.3943 37.9673 58.5384 38.8129 58.5384 40.0625C58.5384 40.9595 58.963 41.7298 59.5929 42.1303C58.5179 42.055 57.6689 41.0451 57.6689 39.7715C57.6689 38.498 58.5247 37.6763 59.5073 37.2552C65.4026 34.7184 69.3602 28.0289 69.3602 20.5656C69.3602 12.3902 64.4885 5.06046 57.6757 2.56128L57.6791 2.55786ZM76.9125 35.4579C82.3114 37.5052 86.0704 43.534 86.0704 50.7234C86.0704 59.7409 80.1511 68.0224 72.503 69.2241C70.7399 69.5014 69.0247 69.3816 67.4259 68.916C69.2678 69.6109 71.2842 69.8403 73.3726 69.5117C81.0207 68.31 86.94 60.0285 86.94 51.0109C86.94 43.4415 82.7735 37.1628 76.9159 35.4545L76.9125 35.4579ZM58.7952 60.6413C57.6278 60.9563 56.7582 64.4928 57.2375 68.3442C57.8127 72.9523 59.0212 76.1259 63.4923 87.9165C57.1827 86.2047 52.2974 86.684 45.4606 91.8501L45.8577 90.6416C52.0474 86.3417 56.7103 86.0199 62.6227 87.6255C58.1516 75.8383 56.9431 72.6613 56.3679 68.0532C55.8578 63.945 56.385 60.1723 57.7339 60.3058C57.9256 60.3263 58.3844 60.453 58.7952 60.6413ZM51.0307 61.5691C50.0686 60.7748 48.8841 61.3089 48.0488 63.5C45.1764 69.8198 39.5276 74.4004 32.482 75.5097C29.7158 75.9445 27.0455 75.7356 24.5977 74.9927C27.2748 75.965 30.2533 76.2834 33.3482 75.7972C40.3938 74.6914 46.0426 70.1073 48.9149 63.791C49.5277 62.5345 50.5788 61.7882 51.0307 61.5691Z" fill="black"/>
<path fill-rule="evenodd" clip-rule="evenodd" d="M48.9084 41.6922C49.4048 41.6579 49.8122 41.1889 49.8122 40.6412C49.8122 40.292 49.689 39.8948 49.3843 39.7476C41.5376 37.3443 35.8785 29.2888 35.8785 19.9768C35.8785 8.23754 44.6701 -0.509555 54.7661 0.459301C64.191 1.35969 71.4283 10.521 71.4283 20.884C71.4283 28.6897 67.3543 36.081 60.8017 38.9328C60.4217 39.104 59.8466 39.4532 59.8466 40.0044C59.8466 40.5556 60.23 40.9596 60.6956 40.9356C61.0106 40.9185 61.4762 40.203 61.6679 39.9325C64.6463 35.7524 69.0866 33.6743 73.3661 33.5784C81.627 33.397 88.005 41.1855 88.005 50.9151C88.005 60.6448 81.627 69.6007 73.3729 70.9393C67.707 71.8602 62.2875 68.9776 59.2611 63.3425C59.155 63.1474 58.8846 62.716 58.6415 62.4113C58.5114 62.9077 58.4361 63.5856 58.4121 63.8697C58.306 65.2152 58.3745 66.6497 58.5354 67.9574C58.597 68.3956 58.6654 68.8339 58.7271 69.2686C59.1037 71.5179 59.7439 73.596 60.4354 75.6569C61.774 79.5563 63.253 83.3599 64.6703 87.0983C65.0469 88.1117 65.4269 89.1148 65.8103 90.111C64.8757 89.868 63.9514 89.6215 63.0099 89.375C57.0153 87.7865 52.5271 88.2178 46.0874 93.11C44.9919 93.9488 43.8827 94.791 42.7632 95.6229C43.2083 94.2809 43.6602 92.9217 44.1121 91.566C45.7348 86.6944 47.3576 81.7885 48.6825 76.9784C49.3329 74.6264 49.8533 72.3703 50.2059 70.0047C50.2436 69.7548 50.2812 69.5049 50.3121 69.2652C50.5277 67.7999 50.6647 66.2354 50.5962 64.7907C50.5859 64.575 50.5586 64.1299 50.4969 63.7225C50.3429 63.9759 50.2128 64.2361 50.1375 64.3764C46.9296 71.4597 40.6885 76.2423 33.3554 77.4337C21.6572 79.3338 11.4414 70.6517 11.4414 57.971C11.4414 45.2903 21.6538 34.715 33.3554 34.4583C39.3363 34.3282 44.7249 36.9711 48.3025 41.5107C48.4017 41.6203 48.7715 41.6853 48.9153 41.6888L48.9084 41.6922ZM33.3485 36.1016C22.5679 36.396 13.1874 46.153 13.1874 57.8135C13.1874 69.4741 22.5679 77.4919 33.3485 75.8007C40.3941 74.6949 46.0429 70.1108 48.9153 63.7944C51.2809 58.9433 52.6264 62.5312 51.6712 69.32C51.0721 73.572 50.3155 77.1564 45.4609 91.8536C52.2977 86.6875 57.1831 86.2082 63.4926 87.92C59.0215 76.1328 57.8096 72.9592 57.2378 68.3477C56.5429 62.7537 57.7753 57.7725 60.3772 62.4524C63.0647 67.5021 67.9809 70.3642 73.3695 69.5186C81.0176 68.3169 86.9369 60.0354 86.9369 51.0179C86.9369 42.0003 81.0176 34.8006 73.3626 35.0061C69.251 35.119 65.2523 37.1594 62.6265 40.8534C62.1027 41.5861 61.5617 42.3735 60.6888 42.418C59.5111 42.4796 58.5388 41.4183 58.5388 40.0592C58.5388 38.8096 59.3947 37.964 60.3772 37.5429C66.2725 35.0061 70.2301 28.3165 70.2301 20.8498C70.2301 11.2263 63.4858 2.77702 54.7626 1.98962C45.4609 1.14743 37.4054 9.21667 37.4054 20.0145C37.4054 28.7787 42.7803 36.081 49.8259 38.2721C50.1238 38.3645 51.1953 38.9602 51.1953 40.5795C51.1953 41.9729 50.1683 43.1711 48.8981 43.2396C48.7612 43.2465 47.765 43.243 47.2206 42.5583C44.0025 38.5117 39.0658 35.9407 33.3451 36.0982L33.3485 36.1016Z" fill="url(#paint6_linear_1409_43106)"/>
<path fill-rule="evenodd" clip-rule="evenodd" d="M83.3256 41.6167C81.0352 38.2103 77.4748 36.0501 73.3631 36.1802C69.741 36.2932 65.958 38.0494 63.4315 41.6133C62.6886 42.6678 61.9457 43.5887 60.6892 43.6606C58.9124 43.7599 57.4437 42.1713 57.4437 40.1104C57.4437 38.2788 58.6077 36.9881 60.0319 36.3787C65.7047 33.972 69.2207 27.5666 69.2207 20.8291C69.2207 11.839 62.9043 3.95801 54.7631 3.25961C46.1119 2.5167 38.6589 10.0382 38.6589 20.0486C38.652 27.9945 43.4689 34.9203 50.1756 37.0292C50.6515 37.1833 51.141 37.5599 51.4697 37.9604C52.0585 38.6691 52.3427 39.5592 52.3427 40.5315C52.3427 42.6267 50.8021 44.424 48.8986 44.5336C47.9777 44.5883 46.9164 44.2015 46.3173 43.4449C43.195 39.5352 38.5151 37.2894 33.349 37.4537C25.9302 37.69 19.2373 42.7465 16.2588 49.84C16.5943 50.5316 16.9469 51.1957 17.3304 51.8154C25.8001 65.9682 39.9324 58.974 53.1472 50.9698C65.2528 43.64 76.6463 35.427 83.3221 41.6202L83.3256 41.6167Z" fill="url(#paint7_radial_1409_43106)" fill-opacity="0.05"/>
<path fill-rule="evenodd" clip-rule="evenodd" d="M46.2844 108.353C71.4598 108.353 92.0004 106.019 92.0004 103.158C92.0004 100.297 71.4652 97.968 46.2844 97.968C21.1036 97.968 0.568359 100.302 0.568359 103.158C0.568359 106.014 21.1036 108.353 46.2844 108.353Z" fill="url(#paint8_radial_1409_43106)"/>
<defs>
<linearGradient id="paint0_linear_1409_43106" x1="35.9122" y1="35.7761" x2="35.9122" y2="-1.70114" gradientUnits="userSpaceOnUse">
<stop/>
<stop offset="0.32" stop-color="#55575B"/>
<stop offset="0.67" stop-color="#E5E7E9"/>
<stop offset="0.86" stop-color="#7B7F85"/>
<stop offset="1" stop-color="white"/>
</linearGradient>
<linearGradient id="paint1_linear_1409_43106" x1="45.9816" y1="62.3223" x2="13.4136" y2="118.728" gradientUnits="userSpaceOnUse">
<stop/>
<stop offset="0.2" stop-color="#55575B"/>
<stop offset="0.58" stop-color="#E5E7E9"/>
<stop offset="0.74" stop-color="#7B7F85"/>
<stop offset="1" stop-color="white"/>
</linearGradient>
<linearGradient id="paint2_linear_1409_43106" x1="11.0272" y1="70.2101" x2="22.4994" y2="27.399" gradientUnits="userSpaceOnUse">
<stop/>
<stop offset="0.32" stop-color="#55575B"/>
<stop offset="0.68" stop-color="#E5E7E9"/>
<stop offset="0.79" stop-color="#7B7F85"/>
<stop offset="1"/>
</linearGradient>
<linearGradient id="paint3_linear_1409_43106" x1="41.538" y1="84.4861" x2="61.7745" y2="3.3281" gradientUnits="userSpaceOnUse">
<stop stop-color="white"/>
<stop offset="0.37" stop-color="white"/>
<stop offset="0.62" stop-color="#55575B"/>
<stop offset="0.81" stop-color="white"/>
<stop offset="0.94" stop-color="#7B7F85"/>
<stop offset="1" stop-color="white"/>
</linearGradient>
<linearGradient id="paint4_linear_1409_43106" x1="51.9417" y1="86.2767" x2="46.5941" y2="9.80209" gradientUnits="userSpaceOnUse">
<stop stop-color="#696D71"/>
<stop offset="0.14" stop-color="#F9FBFB"/>
<stop offset="0.31" stop-color="#55575B"/>
<stop offset="0.56" stop-color="#E5E7E9"/>
<stop offset="0.86" stop-color="#7B7F85"/>
<stop offset="1" stop-color="white"/>
</linearGradient>
<linearGradient id="paint5_linear_1409_43106" x1="13.1135" y1="4.37595" x2="90.7741" y2="9.50596" gradientUnits="userSpaceOnUse">
<stop stop-color="#000D08"/>
<stop offset="1" stop-color="#163127"/>
</linearGradient>
<linearGradient id="paint6_linear_1409_43106" x1="51.9417" y1="86.2767" x2="46.5941" y2="9.80209" gradientUnits="userSpaceOnUse">
<stop stop-color="#696D71"/>
<stop offset="0.14" stop-color="#F9FBFB"/>
<stop offset="0.31" stop-color="#55575B"/>
<stop offset="0.56" stop-color="#E5E7E9"/>
<stop offset="0.86" stop-color="#7B7F85"/>
<stop offset="1" stop-color="white"/>
</linearGradient>
<radialGradient id="paint7_radial_1409_43106" cx="0" cy="0" r="1" gradientUnits="userSpaceOnUse" gradientTransform="translate(24.9785 24.2013) scale(61.5789 61.5789)">
<stop stop-color="white"/>
<stop offset="0.09" stop-color="#F5F4F5"/>
<stop offset="0.25" stop-color="#DBD9DA"/>
<stop offset="0.46" stop-color="#B0ADAE"/>
<stop offset="0.7" stop-color="#757172"/>
<stop offset="0.97" stop-color="#2B2426"/>
<stop offset="1" stop-color="#231B1D"/>
</radialGradient>
<radialGradient id="paint8_radial_1409_43106" cx="0" cy="0" r="1" gradientUnits="userSpaceOnUse" gradientTransform="translate(46.2844 103.161) scale(45.716 5.19268)">
<stop/>
<stop offset="1" stop-opacity="0"/>
</radialGradient>
</defs>
</svg>
