<svg width="77" height="65" viewBox="0 0 77 65" fill="none" xmlns="http://www.w3.org/2000/svg">
<g filter="url(#filter0_d_787_1988)">
<path d="M4.84711 48.1994C3.36323 50.177 4.77429 52.9999 7.24672 52.9999H62.1797C63.8365 52.9999 65.1797 51.6567 65.1797 49.9999V6.66846C65.1797 5.0116 63.8365 3.66846 62.1797 3.66846H7.24671C4.77428 3.66846 3.36322 6.49134 4.8471 8.46897L18.4016 26.5337C19.2021 27.6006 19.2021 29.0678 18.4016 30.1347L4.84711 48.1994Z" fill="#D8D8D4"/>
<path d="M4.84711 48.1994C3.36323 50.177 4.77429 52.9999 7.24672 52.9999H62.1797C63.8365 52.9999 65.1797 51.6567 65.1797 49.9999V6.66846C65.1797 5.0116 63.8365 3.66846 62.1797 3.66846H7.24671C4.77428 3.66846 3.36322 6.49134 4.8471 8.46897L18.4016 26.5337C19.2021 27.6006 19.2021 29.0678 18.4016 30.1347L4.84711 48.1994Z" fill="black" fill-opacity="0.2"/>
<path d="M39 35.3308L65.1789 52.9996V11.5601L39 35.3308Z" fill="#D8D8D4"/>
<path d="M39 35.3308L65.1789 52.9996V11.5601L39 35.3308Z" fill="black" fill-opacity="0.5"/>
</g>
<defs>
<filter id="filter0_d_787_1988" x="0.741211" y="0.168457" width="75.9385" height="64.3315" filterUnits="userSpaceOnUse" color-interpolation-filters="sRGB">
<feFlood flood-opacity="0" result="BackgroundImageFix"/>
<feColorMatrix in="SourceAlpha" type="matrix" values="0 0 0 0 0 0 0 0 0 0 0 0 0 0 0 0 0 0 127 0" result="hardAlpha"/>
<feOffset dx="4" dy="4"/>
<feGaussianBlur stdDeviation="3.75"/>
<feComposite in2="hardAlpha" operator="out"/>
<feColorMatrix type="matrix" values="0 0 0 0 0 0 0 0 0 0 0 0 0 0 0 0 0 0 0.4 0"/>
<feBlend mode="normal" in2="BackgroundImageFix" result="effect1_dropShadow_787_1988"/>
<feBlend mode="normal" in="SourceGraphic" in2="effect1_dropShadow_787_1988" result="shape"/>
</filter>
</defs>
</svg>
