<svg width="38" height="38" viewBox="0 0 38 38" fill="none" xmlns="http://www.w3.org/2000/svg">
<rect width="38" height="38" rx="19" fill="#FDFDFF" fill-opacity="0.1"/>
<path d="M23.9998 16.4998C23.9998 15.2998 24.9998 14.9998 25.5198 14.9998C26.3588 14.9998 26.9998 15.6718 26.9998 16.4998V22.9998C26.9998 26.9998 23.8658 28.9998 19.9998 28.9998C16.1338 28.9998 14.8038 27.9998 11.8038 22.9998L10.2328 20.3948C9.69685 19.5268 10.1258 18.4008 11.1138 18.0808C11.4369 17.9752 11.7846 17.9716 12.1098 18.0703C12.435 18.1691 12.722 18.3654 12.9318 18.6328L14.9998 21.0328M14.9998 20.9998V12.5198" stroke="white" stroke-opacity="0.7" stroke-width="1.5" stroke-linecap="round" stroke-linejoin="round"/>
<path d="M24 18V14.5C24 14.1022 23.842 13.7206 23.5607 13.4393C23.2794 13.158 22.8978 13 22.5 13C22.1022 13 21.7206 13.158 21.4393 13.4393C21.158 13.7206 21 14.1022 21 14.5V18V13.5C21 13.1022 20.842 12.7206 20.5607 12.4393C20.2794 12.158 19.8978 12 19.5 12C19.1022 12 18.7206 12.158 18.4393 12.4393C18.158 12.7206 18 13.1022 18 13.5V18V9.5C18 9.10218 17.842 8.72064 17.5607 8.43934C17.2794 8.15804 16.8978 8 16.5 8C16.1022 8 15.7206 8.15804 15.4393 8.43934C15.158 8.72064 15 9.10218 15 9.5V18" stroke="white" stroke-opacity="0.7" stroke-width="1.5" stroke-linecap="round" stroke-linejoin="round"/>
</svg>
