<svg width="89" height="96" viewBox="0 0 89 96" fill="none" xmlns="http://www.w3.org/2000/svg">
<path fill-rule="evenodd" clip-rule="evenodd" d="M60.7663 40.922L41.9678 37.3547L42.1116 37.365L60.9375 40.9357L60.7663 40.922Z" fill="black"/>
<path fill-rule="evenodd" clip-rule="evenodd" d="M21.0195 19.5523L21.0435 18.6245L21.1051 17.7139L21.2112 16.8169L21.3585 15.9405L21.5433 15.0846L21.7693 14.2459L22.026 13.4311L22.3205 12.6368L22.6525 11.8631L23.0154 11.1168L23.4091 10.3978L23.8371 9.70285L24.2924 9.03526L24.7786 8.39507L25.2921 7.78568L25.8296 7.2071L26.3945 6.65934L26.9799 6.14581L27.5927 5.66652L28.2226 5.21804L28.8765 4.81064L29.5509 4.43405L30.2391 4.09855L30.9477 3.80412L31.6701 3.54736L32.4062 3.33168L33.1593 3.1605L33.9228 3.03041L51.3006 0.538086L50.4002 0.692144L49.5169 0.894132L48.6508 1.14747L47.7983 1.44874L46.9664 1.79794L46.155 2.19165L45.3642 2.63328L44.5973 3.116L43.8544 3.6398L43.132 4.20468L42.4439 4.81064L41.7798 5.45426L41.143 6.13554L40.5439 6.85106L39.9721 7.60423L39.4346 8.38822L38.9348 9.20644L38.4692 10.0555L38.0413 10.9353L37.6544 11.8391L37.3052 12.7737L37.0005 13.7358L36.7369 14.7217L36.5178 15.7282L36.3466 16.7587L36.2234 17.8132L36.1481 18.8847L36.1207 19.9768L36.1378 20.8464L36.1857 21.7091L36.2679 22.5582L36.3809 23.4038L36.5212 24.2323L36.6958 25.0539L36.8978 25.8619L37.1272 26.6595L37.3874 27.4401L37.6715 28.207L37.9865 28.9567L38.3254 29.6928L38.6917 30.4083L39.0786 31.1101L39.4928 31.7914L39.9311 32.4556L40.3932 33.0958L40.876 33.7154L41.3792 34.3145L41.9064 34.8931L42.4508 35.4443L43.0191 35.9749L43.6011 36.4782L44.207 36.9541L44.8301 37.406L45.4669 37.8305L46.1242 38.2242L46.7952 38.5905L47.4799 38.926L48.1817 39.2341L48.8973 39.5046L49.6265 39.7477L49.736 39.8161L49.825 39.9017L49.8969 40.0044L49.9586 40.1208L50.0031 40.2441L50.0339 40.3776L50.051 40.5111L50.0544 40.6412L50.0373 40.8432L49.9859 41.0315L49.9003 41.2061L49.7908 41.3601L49.6573 41.4902L49.5032 41.5895L49.3355 41.658L49.154 41.6922L32.098 38.0085L32.2521 37.9811L32.3959 37.9229L32.526 37.8373L32.639 37.7278L32.7348 37.5943L32.8067 37.4471L32.8478 37.2862L32.8649 37.1184L32.8615 37.0054L32.8444 36.8925L32.8204 36.7795L32.7793 36.6733L32.7314 36.5741L32.6663 36.4885L32.591 36.4132L32.4986 36.3584L31.8824 36.153L31.273 35.9202L30.6773 35.66L30.0919 35.3758L29.5201 35.0609L28.9655 34.7254L28.4212 34.3659L27.894 33.9825L27.3804 33.5785L26.884 33.1505L26.4013 32.6986L25.9357 32.2296L25.4906 31.7401L25.0627 31.2299L24.6519 30.7027L24.2582 30.1584L23.8884 29.5935L23.5358 29.0149L23.2037 28.4192L22.8956 27.8099L22.608 27.1833L22.341 26.5466L22.0979 25.8961L21.8754 25.2319L21.6803 24.5541L21.5091 23.8694L21.3619 23.171L21.2386 22.4623L21.1462 21.7468L21.0777 21.0244L21.0332 20.2918L21.0195 19.5523Z" fill="url(#paint0_linear_1409_43397)"/>
<path fill-rule="evenodd" clip-rule="evenodd" d="M42.9398 36.5161L43.1795 36.1874L43.4294 35.869L43.6827 35.5609L43.9463 35.2665L44.2134 34.9789L44.4872 34.705L44.7646 34.438L45.0487 34.1812L45.3397 33.9382L45.6341 33.7054L45.9354 33.4794L46.2401 33.2672L46.5482 33.0618L46.8598 32.87L47.1781 32.6852L47.4965 32.5106L47.8218 32.3497L48.147 32.1956L48.4757 32.0552L48.8077 31.9217L49.1398 31.7985L49.4753 31.6855L49.8142 31.5862L50.1532 31.4938L50.4921 31.4116L50.8345 31.3363L51.1734 31.2747L51.5157 31.2233L51.8581 31.1822L52.2004 31.148L52.5428 31.1275L52.8851 31.1138L53.539 31.1206L54.1827 31.1651L75.1346 33.6369L74.378 33.5856L73.6077 33.5787L73.2072 33.5958L72.8032 33.6198L72.3992 33.6574L71.9987 33.7088L71.5947 33.7704L71.1941 33.8423L70.7936 33.9279L70.393 34.0238L69.9959 34.1333L69.5988 34.2531L69.2016 34.3867L68.8114 34.5304L68.4211 34.6845L68.0342 34.8523L67.6508 35.0337L67.2708 35.2254L66.8942 35.4274L66.521 35.6431L66.1547 35.869L65.7918 36.1087L65.4324 36.362L65.0797 36.6256L64.7339 36.9029L64.3916 37.1905L64.0561 37.4918L63.7274 37.8033L63.4056 38.1251L63.0907 38.4641L62.7825 38.8133L62.4847 39.1762L62.1937 39.5493L61.9095 39.9328L61.824 40.0526L61.7213 40.2032L61.598 40.3675L61.4679 40.5319L61.331 40.6825L61.194 40.8092L61.0605 40.8982L60.9373 40.9359L42.1113 37.3651L42.2175 37.3377L42.3339 37.259L42.4503 37.1529L42.5667 37.0228L42.6762 36.8824L42.7789 36.742L42.8679 36.6154L42.9398 36.5161Z" fill="black"/>
<path fill-rule="evenodd" clip-rule="evenodd" d="M66.9767 70.2481L47.247 62.2815L46.843 62.1172L46.4459 61.9323L46.0522 61.7304L45.6653 61.5147L45.2887 61.2819L44.9156 61.032L44.5527 60.7684L44.1966 60.4876L43.8474 60.1898L43.5085 59.8782L43.1764 59.553L42.858 59.2107L42.5465 58.8546L42.2452 58.4849L41.9508 58.098L41.6701 57.6975L41.403 57.2832L41.1429 56.8553L40.8964 56.4136L40.8587 56.3417L40.8039 56.2562L40.7457 56.1569L40.6773 56.0542L40.6019 55.9412L40.5266 55.8316L40.4479 55.7221L40.3691 55.6228L58.8835 62.4116L58.976 62.5315L59.0684 62.6581L59.1608 62.7882L59.2464 62.9183L59.3252 63.045L59.3971 63.158L59.4587 63.2607L59.5032 63.3428L59.7942 63.8632L60.0989 64.3665L60.4173 64.856L60.7459 65.3251L61.0917 65.7804L61.4443 66.2152L61.8106 66.6363L62.1872 67.0368L62.5775 67.4203L62.9781 67.7866L63.3855 68.1358L63.8031 68.4679L64.2345 68.776L64.6727 69.0704L65.1178 69.3443L65.5697 69.601L66.0319 69.8373L66.5009 70.0529L66.9767 70.2481Z" fill="black"/>
<path fill-rule="evenodd" clip-rule="evenodd" d="M28.018 80.4056L28.1481 80.0153L28.2747 79.6284L28.4048 79.2416L28.5349 78.8513L28.665 78.461L28.7917 78.0742L28.9218 77.6839L29.0485 77.297L29.1751 76.9067L29.3018 76.5199L29.4319 76.1296L29.5586 75.7427L29.6818 75.3525L29.8085 74.9656L29.9317 74.5753L30.055 74.1885L30.1782 73.7982L30.3015 73.4079L30.4213 73.021L30.5411 72.6342L30.6609 72.2473L30.7808 71.8605L30.9006 71.4736L31.0136 71.0867L31.13 70.6999L31.2464 70.313L31.3559 69.9262L31.4689 69.5427L31.5784 69.1559L31.688 68.7724L31.7975 68.389L31.9037 68.0022L31.955 67.8173L32.0064 67.629L32.0543 67.4441L32.1057 67.2558L32.1536 67.071L32.2015 66.8861L32.2494 66.7012L32.2974 66.5163L32.3419 66.3315L32.3898 66.1466L32.4343 65.9652L32.4788 65.7803L32.5199 65.5954L32.5644 65.414L32.6055 65.2291L32.6466 65.0442L32.6877 64.8628L32.7253 64.6779L32.7664 64.493L32.8041 64.3082L32.8417 64.1233L32.8759 63.9419L32.9136 63.757L32.9478 63.5721L32.9821 63.3838L33.0163 63.199L33.0471 63.0141L33.0779 62.8258L33.1087 62.6409L33.1396 62.4526L33.1704 62.2678L33.1978 62.076L33.2115 61.9973L33.2217 61.9186L33.2354 61.8398L33.2457 61.7611L33.256 61.6823L33.2697 61.6036L33.2799 61.5283L33.2902 61.4495L33.3244 61.2167L33.3552 60.9805L33.3861 60.7409L33.4134 60.5012L33.4374 60.2616L33.4614 60.0219L33.4819 59.7823L33.499 59.5426L33.5161 59.2996L33.5264 59.0599L33.5367 58.8203L33.5435 58.584L33.547 58.3444L33.5435 58.1116L33.5401 57.8754L33.5298 57.646L33.5264 57.5673L33.523 57.4748L33.5127 57.3687L33.5059 57.2523L33.4922 57.1291L33.4785 56.999L33.4648 56.8689L33.4443 56.7388L50.7399 63.7262L50.7604 63.8802L50.7775 64.0343L50.7947 64.1849L50.8084 64.3321L50.8186 64.4691L50.8289 64.5923L50.8357 64.7019L50.8392 64.7943L50.8494 65.0648L50.8563 65.3387V65.616L50.8529 65.8967L50.846 66.1774L50.8357 66.4581L50.822 66.7389L50.8015 67.023L50.781 67.3072L50.757 67.5879L50.7296 67.8721L50.6988 68.1562L50.668 68.4369L50.6303 68.7142L50.5927 68.9916L50.555 69.2689L50.5447 69.3579L50.531 69.4503L50.5174 69.5393L50.5037 69.6352L50.49 69.7276L50.4763 69.82L50.4626 69.9125L50.4489 70.0083L50.4146 70.2274L50.3804 70.45L50.3462 70.6691L50.3085 70.8882L50.2709 71.1073L50.2332 71.3264L50.1921 71.5455L50.151 71.7612L50.11 71.9803L50.0689 72.1994L50.0278 72.4151L49.9833 72.6308L49.9388 72.8499L49.8908 73.0655L49.8463 73.2812L49.7984 73.4969L49.7505 73.7126L49.7026 73.9283L49.6512 74.1474L49.5998 74.3631L49.5451 74.5787L49.4937 74.7978L49.4424 75.0135L49.3876 75.2292L49.3328 75.4483L49.2746 75.664L49.2198 75.8831L49.1616 76.1022L49.1034 76.3213L49.0452 76.5404L48.987 76.7595L48.9254 76.9786L48.7987 77.4305L48.6721 77.8824L48.5454 78.3343L48.4153 78.7897L48.2818 79.2416L48.1483 79.6969L48.0148 80.1488L47.8778 80.6041L47.7443 81.0595L47.6039 81.5148L47.4636 81.9701L47.3232 82.4254L47.1828 82.8842L47.0391 83.3395L46.8953 83.7949L46.7515 84.2536L46.6043 84.7089L46.4605 85.1677L46.3098 85.623L46.1626 86.0818L46.0154 86.5405L45.8648 86.9958L45.7176 87.4546L45.5635 87.9099L45.4163 88.3687L45.2657 88.8274L45.1116 89.2828L44.961 89.7415L44.8103 90.1968L44.6563 90.6556L44.5056 91.1109L44.3516 91.5697L44.2694 91.823L44.1838 92.0764L44.0982 92.3297L44.0161 92.5865L43.9305 92.8398L43.8449 93.0931L43.7593 93.3465L43.6772 93.6032L43.5916 93.8566L43.506 94.1099L43.4238 94.3633L43.3382 94.6166L43.2561 94.8699L43.1705 95.1233L43.0883 95.3732L43.0061 95.6265L26.8711 83.8531L26.943 83.6408L27.0149 83.4251L27.0868 83.2094L27.1552 82.9972L27.2271 82.7815L27.299 82.5658L27.3709 82.3501L27.4428 82.1344L27.5147 81.9188L27.5866 81.7031L27.6585 81.4874L27.7304 81.2683L27.8023 81.0526L27.8742 80.8369L27.9461 80.6213L28.018 80.4056Z" fill="url(#paint1_linear_1409_43397)"/>
<path fill-rule="evenodd" clip-rule="evenodd" d="M19.8252 74.4076L7.16845 65.818L6.48375 65.3113L5.82986 64.7704L5.20678 64.1918L4.61108 63.5756L4.04963 62.9286L3.51898 62.2473L3.02257 61.5352L2.56382 60.7889L2.14272 60.0151L1.75929 59.2106L1.41694 58.3787L1.11567 57.516L0.85548 56.6327L0.639799 55.722L0.468623 54.7874L0.345376 53.8288L0.273482 52.8497L0.246094 51.85L0.273482 50.8435L0.345376 49.8507L0.468623 48.8682L0.639799 47.9027L0.85548 46.951L1.11567 46.0164L1.41694 45.1023L1.75929 44.2053L2.14272 43.3323L2.56382 42.4764L3.02257 41.648L3.51898 40.8434L4.04963 40.0629L4.61108 39.3097L5.20678 38.5873L5.82986 37.8924L6.48375 37.2282L7.16845 36.5983L7.87712 36.0026L8.60975 35.4377L9.36635 34.9105L10.1469 34.4243L10.948 33.9724L11.7697 33.5616L12.605 33.1919L13.4609 32.8632L14.3339 32.579L15.2171 32.3428L16.1141 32.1511L17.0248 32.0039L17.9457 31.908L18.8735 31.8635L19.3493 31.8601L19.8184 31.8704L20.2908 31.8943L20.753 31.932L21.2152 31.9799L21.6739 32.045L22.1258 32.1203L37.4221 34.7633L36.888 34.6742L36.3505 34.5989L35.8062 34.5407L35.2584 34.4962L34.7107 34.4688L34.1526 34.4551L33.5946 34.462L32.5025 34.5133L31.4207 34.6263L30.3525 34.7975L29.2947 35.0269L28.2539 35.3042L27.2269 35.6397L26.2203 36.0231L25.2344 36.4579L24.2689 36.9406L23.3275 37.4713L22.41 38.0464L21.5198 38.6661L20.6571 39.3302L19.8252 40.0321L19.0207 40.775L18.2504 41.5555L17.5143 42.3703L16.8159 43.2228L16.1552 44.1095L15.5287 45.0235L14.9467 45.9719L14.4092 46.9476L13.9128 47.9507L13.4609 48.9811L13.0569 50.0356L12.7009 51.114L12.3962 52.2095L12.1428 53.3324L11.9443 54.469L11.7971 55.6228L11.7115 56.7902L11.6807 57.9747L11.7115 59.1524L11.7971 60.3061L11.9443 61.4291L12.1428 62.5314L12.3962 63.5996L12.7009 64.6403L13.0569 65.6537L13.4609 66.6328L13.9128 67.5777L14.4092 68.4918L14.9467 69.3682L15.5287 70.207L16.1552 71.0081L16.8159 71.7715L17.5143 72.4939L18.2504 73.1752L19.0207 73.8119L19.8252 74.4076Z" fill="url(#paint2_linear_1409_43397)"/>
<path fill-rule="evenodd" clip-rule="evenodd" d="M48.5764 41.3055C49.0728 41.2712 49.4802 40.8022 49.4802 40.2544C49.4802 39.9052 49.357 39.5081 49.0523 39.3575C41.2056 36.9576 35.5465 28.902 35.5465 19.5866C35.5431 7.85424 44.3347 -0.892855 54.4306 0.0725774C63.8556 0.976387 71.0929 10.1343 71.0929 20.4973C71.0929 28.3029 67.0189 35.6943 60.4663 38.5461C60.0828 38.7173 59.5111 39.0665 59.5111 39.6211C59.5111 40.1757 59.8946 40.5728 60.3601 40.5523C60.6751 40.5386 61.1407 39.8196 61.3324 39.5492C64.3109 35.3691 68.7546 33.2876 73.0306 33.1951C81.2916 33.0137 87.6696 40.8022 87.6696 50.5319C87.6696 60.2615 81.2916 69.2174 73.0374 70.556C67.3715 71.477 61.9487 68.5943 58.9257 62.9592C58.8196 62.7641 58.5525 62.3327 58.306 62.028C58.1759 62.5244 58.1006 63.2023 58.0767 63.4899C57.9705 64.8353 58.0356 66.2698 58.1999 67.5776C58.2615 68.0158 58.33 68.454 58.3916 68.8888C58.7682 71.1346 59.4118 73.2161 60.1 75.2771C61.4386 79.1765 62.9175 82.98 64.3349 86.7185C64.7114 87.7318 65.0915 88.7349 65.4749 89.7312C64.5403 89.4881 63.6125 89.2416 62.671 88.9951C56.6764 87.4066 52.1882 87.838 45.7486 92.7302C44.9954 93.3053 43.7698 95.0479 43.0063 95.623C42.8043 95.4792 42.664 95.3731 42.438 95.2122C42.8831 93.8702 43.3247 92.5419 43.7732 91.1827C45.3959 86.3145 47.0187 81.4052 48.3436 76.5917C48.9941 74.2397 49.5144 71.9836 49.8671 69.618C49.9047 69.3681 49.9424 69.1181 49.9732 68.8785C50.1889 67.4132 50.3258 65.8487 50.2573 64.404C50.2505 64.1917 50.2197 63.7432 50.1581 63.3392C50.004 63.5926 49.8739 63.8528 49.7986 63.9931C46.5908 71.0764 40.3497 75.8591 33.0165 77.0504C21.3183 78.9505 11.1025 70.2684 11.1025 57.5877C11.1025 44.907 21.3149 34.3317 33.0165 34.075C38.9974 33.9415 44.386 36.5913 47.9636 41.1274C48.0629 41.237 48.4292 41.3055 48.5764 41.3055Z" fill="url(#paint3_linear_1409_43397)"/>
<path fill-rule="evenodd" clip-rule="evenodd" d="M48.9226 41.6651L31.9043 37.9849L31.9762 37.9986L32.0447 38.0054L32.0994 38.0088L49.1554 41.6925L49.0904 41.6891L49.0116 41.6788L48.9226 41.6651Z" fill="black"/>
<path fill-rule="evenodd" clip-rule="evenodd" d="M49.1545 41.6924C49.6509 41.6582 50.0583 41.1892 50.0583 40.6414C50.0583 40.2922 49.9351 39.8951 49.6304 39.7479C41.7837 37.3446 36.1246 29.289 36.1246 19.977C36.1246 8.23778 44.9162 -0.509311 55.0122 0.459546C64.4371 1.35993 71.6744 10.5213 71.6744 20.8843C71.6744 28.6899 67.6004 36.0813 61.0478 38.9331C60.6678 39.1042 60.0927 39.4534 60.0927 40.0046C60.0927 40.5558 60.4761 40.9598 60.9417 40.9358C61.2567 40.9187 61.7223 40.2032 61.914 39.9327C64.8924 35.7526 69.3327 33.6745 73.6121 33.5787C81.8731 33.3972 88.2511 41.1857 88.2511 50.9154C88.2511 60.645 81.8731 69.601 73.619 70.9396C67.9531 71.8605 62.5336 68.9779 59.5072 63.3428C59.4011 63.1476 59.1306 62.7163 58.8876 62.4116C58.7575 62.908 58.6822 63.5858 58.6582 63.87C58.5521 65.2154 58.6205 66.6499 58.7814 67.9577C58.8431 68.3959 58.9115 68.8341 58.9732 69.2689C59.3498 71.5181 59.99 73.5962 60.6815 75.6572C62.0201 79.5566 63.4991 83.3601 64.9164 87.0986C65.293 88.1119 65.673 89.115 66.0564 90.1113C65.1218 89.8682 64.1975 89.6217 63.256 89.3752C57.2614 87.7867 52.7732 88.2181 46.3335 93.1103C45.238 93.949 44.1288 94.7912 43.0093 95.6231C43.4543 94.2811 43.9063 92.922 44.3582 91.5663C45.9809 86.6946 47.6037 81.7887 48.9286 76.9787C49.579 74.6267 50.0994 72.3706 50.452 70.0049C50.4897 69.755 50.5273 69.5051 50.5582 69.2655C50.7738 67.8002 50.9108 66.2356 50.8423 64.7909C50.832 64.5752 50.8046 64.1302 50.743 63.7228C50.589 63.9761 50.4589 64.2363 50.3836 64.3767C47.1757 71.4599 40.9346 76.2426 33.6015 77.434C21.9033 79.334 11.6875 70.652 11.6875 57.9713C11.6875 45.2905 21.8999 34.7153 33.6015 34.4585C39.5823 34.3284 44.971 36.9714 48.5485 41.511C48.6478 41.6205 49.0176 41.6856 49.1614 41.689L49.1545 41.6924Z" fill="url(#paint4_linear_1409_43397)"/>
<path fill-rule="evenodd" clip-rule="evenodd" d="M32.7285 35.8108C38.4458 35.6533 43.3859 38.2243 46.6006 42.2709C47.1449 42.9522 48.1412 42.9557 48.2781 42.9488C49.5483 42.8838 50.5753 41.6855 50.5753 40.2922C50.5753 38.6728 49.5037 38.0771 49.2059 37.9847C42.1637 35.7936 36.7854 28.4947 36.7854 19.7271C36.7854 8.9327 44.8409 0.863465 54.1426 1.70223C62.8657 2.48964 69.6101 10.9389 69.6101 20.5624C69.6101 28.0257 65.6491 34.7187 59.7572 37.2521C58.7746 37.6732 57.9188 38.5188 57.9188 39.7684C57.9188 41.1275 58.891 42.1888 60.0687 42.1272C60.9417 42.0827 61.4826 41.2952 62.0064 40.5592C64.6323 36.8652 68.631 34.8248 72.7426 34.7118C80.3976 34.503 86.3169 41.6958 86.3169 50.7202C86.3169 59.7446 80.3976 68.0192 72.7495 69.2209C67.3608 70.0665 62.4447 67.2045 59.7572 62.1548C57.1553 57.4782 55.9194 62.456 56.6178 68.0501C57.193 72.6581 58.4015 75.8317 62.8726 87.6223C56.5665 85.9106 51.6811 86.3899 44.8409 91.556C49.6955 76.8588 50.4521 73.2744 51.0512 69.0189C52.0063 62.2335 50.6609 58.6456 48.2952 63.4968C45.4229 69.8166 39.7741 74.3973 32.7285 75.5065C21.9478 77.1977 12.5674 69.1695 12.5674 57.5193C12.5674 45.8691 21.9478 36.1018 32.7285 35.8073V35.8108Z" fill="url(#paint5_radial_1409_43397)"/>
<path fill-rule="evenodd" clip-rule="evenodd" d="M39.089 36.8275C42.4543 37.8478 45.3404 39.8813 47.4698 42.5619C47.593 42.716 47.7368 42.8358 47.8909 42.9283C47.5143 42.8769 46.9597 42.7229 46.6002 42.2744C44.6557 39.8266 42.0812 37.9197 39.089 36.831V36.8275ZM57.9252 2.55811C65.1899 4.73546 70.4759 12.3323 70.4759 20.8534C70.4759 28.3167 66.5148 35.0097 60.623 37.5465C59.6404 37.9676 58.7845 38.8132 58.7845 40.0628C58.7845 40.9597 59.2091 41.73 59.839 42.1306C58.764 42.0553 57.915 41.0453 57.915 39.7718C57.915 38.4982 58.7708 37.6766 59.7534 37.2555C65.6487 34.7187 69.6063 28.0291 69.6063 20.5658C69.6063 12.3905 64.7346 5.0607 57.9218 2.56153L57.9252 2.55811ZM77.1586 35.4581C82.5575 37.5054 86.3165 43.5342 86.3165 50.7236C86.3165 59.7412 80.3972 68.0227 72.7491 69.2243C70.986 69.5016 69.2708 69.3818 67.672 68.9162C69.5138 69.6112 71.5303 69.8406 73.6186 69.5119C81.2668 68.3102 87.1861 60.0287 87.1861 51.0112C87.1861 43.4418 83.0196 37.1631 77.162 35.4547L77.1586 35.4581ZM59.0413 60.6416C57.8739 60.9565 57.0043 64.493 57.4836 68.3445C58.0588 72.9525 59.2673 76.1261 63.7384 87.9167C57.4288 86.205 52.5435 86.6843 45.7067 91.8504L46.1038 90.6419C52.2935 86.3419 56.9564 86.0201 62.8688 87.6257C58.3977 75.8386 57.1892 72.6615 56.614 68.0535C56.1039 63.9453 56.6311 60.1725 57.98 60.306C58.1717 60.3266 58.6305 60.4533 59.0413 60.6416ZM51.2768 61.5693C50.3147 60.7751 49.1302 61.3091 48.2949 63.5002C45.4225 69.82 39.7737 74.4007 32.7281 75.5099C29.9619 75.9447 27.2916 75.7359 24.8438 74.993C27.5209 75.9652 30.4994 76.2836 33.5943 75.7975C40.6399 74.6917 46.2887 70.1076 49.161 63.7912C49.7738 62.5348 50.8248 61.7884 51.2768 61.5693Z" fill="black"/>
<path fill-rule="evenodd" clip-rule="evenodd" d="M49.1545 41.6924C49.6509 41.6582 50.0583 41.1892 50.0583 40.6414C50.0583 40.2922 49.9351 39.8951 49.6304 39.7479C41.7837 37.3446 36.1246 29.289 36.1246 19.977C36.1246 8.23778 44.9162 -0.509311 55.0122 0.459546C64.4371 1.35993 71.6744 10.5213 71.6744 20.8843C71.6744 28.6899 67.6004 36.0813 61.0478 38.9331C60.6678 39.1042 60.0927 39.4534 60.0927 40.0046C60.0927 40.5558 60.4761 40.9598 60.9417 40.9358C61.2567 40.9187 61.7223 40.2032 61.914 39.9327C64.8924 35.7526 69.3327 33.6745 73.6121 33.5787C81.8731 33.3972 88.2511 41.1857 88.2511 50.9154C88.2511 60.645 81.8731 69.601 73.619 70.9396C67.9531 71.8605 62.5336 68.9779 59.5072 63.3428C59.4011 63.1476 59.1306 62.7163 58.8876 62.4116C58.7575 62.908 58.6822 63.5858 58.6582 63.87C58.5521 65.2154 58.6205 66.6499 58.7814 67.9577C58.8431 68.3959 58.9115 68.8341 58.9732 69.2689C59.3498 71.5181 59.99 73.5962 60.6815 75.6572C62.0201 79.5566 63.4991 83.3601 64.9164 87.0986C65.293 88.1119 65.673 89.115 66.0564 90.1113C65.1218 89.8682 64.1975 89.6217 63.256 89.3752C57.2614 87.7867 52.7732 88.2181 46.3335 93.1103C45.238 93.949 44.1288 94.7912 43.0093 95.6231C43.4543 94.2811 43.9063 92.922 44.3582 91.5663C45.9809 86.6946 47.6037 81.7887 48.9286 76.9787C49.579 74.6267 50.0994 72.3706 50.452 70.0049C50.4897 69.755 50.5273 69.5051 50.5582 69.2655C50.7738 67.8002 50.9108 66.2356 50.8423 64.7909C50.832 64.5752 50.8046 64.1302 50.743 63.7228C50.589 63.9761 50.4589 64.2363 50.3836 64.3767C47.1757 71.4599 40.9346 76.2426 33.6015 77.434C21.9033 79.334 11.6875 70.652 11.6875 57.9713C11.6875 45.2905 21.8999 34.7153 33.6015 34.4585C39.5823 34.3284 44.971 36.9714 48.5485 41.511C48.6478 41.6205 49.0176 41.6856 49.1614 41.689L49.1545 41.6924ZM33.5946 36.1018C22.8139 36.3962 13.4335 46.1533 13.4335 57.8138C13.4335 69.4743 22.8139 77.4922 33.5946 75.801C40.6402 74.6952 46.289 70.1111 49.1614 63.7947C51.527 58.9435 52.8725 62.5314 51.9173 69.3202C51.3182 73.5723 50.5616 77.1567 45.707 91.8538C52.5438 86.6878 57.4292 86.2085 63.7387 87.9202C59.2676 76.133 58.0557 72.9594 57.4839 68.348C56.789 62.7539 58.0214 57.7727 60.6233 62.4527C63.3108 67.5023 68.2269 70.3644 73.6156 69.5188C81.2637 68.3171 87.183 60.0357 87.183 51.0181C87.183 42.0005 81.2637 34.8009 73.6087 35.0063C69.4971 35.1193 65.4984 37.1597 62.8726 40.8537C62.3488 41.5863 61.8078 42.3737 60.9348 42.4182C59.7572 42.4798 58.7849 41.4185 58.7849 40.0594C58.7849 38.8098 59.6408 37.9642 60.6233 37.5431C66.5186 35.0063 70.4762 28.3167 70.4762 20.85C70.4762 11.2265 63.7319 2.77727 55.0087 1.98986C45.707 1.14767 37.6515 9.21691 37.6515 20.0147C37.6515 28.7789 43.0264 36.0813 50.072 38.2723C50.3699 38.3648 51.4414 38.9605 51.4414 40.5798C51.4414 41.9732 50.4144 43.1714 49.1442 43.2399C49.0073 43.2467 48.0111 43.2433 47.4667 42.5586C44.2486 38.512 39.3119 35.9409 33.5912 36.0984L33.5946 36.1018Z" fill="url(#paint6_linear_1409_43397)"/>
<path fill-rule="evenodd" clip-rule="evenodd" d="M83.5716 41.617C81.2813 38.2106 77.7209 36.0503 73.6092 36.1804C69.9871 36.2934 66.2041 38.0497 63.6776 41.6136C62.9347 42.668 62.1918 43.5889 60.9353 43.6608C59.1585 43.7601 57.6898 42.1716 57.6898 40.1106C57.6898 38.279 58.8538 36.9884 60.278 36.379C65.9508 33.9723 69.4667 27.5668 69.4667 20.8294C69.4667 11.8392 63.1504 3.95825 55.0092 3.25985C46.358 2.51695 38.905 10.0384 38.905 20.0488C38.8981 27.9948 43.715 34.9206 50.4217 37.0295C50.8976 37.1835 51.3871 37.5601 51.7158 37.9607C52.3046 38.6693 52.5888 39.5594 52.5888 40.5317C52.5888 42.6269 51.0482 44.4243 49.1447 44.5338C48.2238 44.5886 47.1625 44.2017 46.5634 43.4451C43.4411 39.5355 38.7612 37.2896 33.5951 37.454C26.1763 37.6902 19.4833 42.7467 16.5049 49.8403C16.8404 50.5318 17.193 51.196 17.5764 51.8156C26.0462 65.9685 40.1785 58.9742 53.3933 50.97C65.4989 43.6403 76.8924 35.4272 83.5682 41.6204L83.5716 41.617Z" fill="url(#paint7_radial_1409_43397)"/>
<defs>
<linearGradient id="paint0_linear_1409_43397" x1="36.1583" y1="35.7764" x2="36.1583" y2="-1.7009" gradientUnits="userSpaceOnUse">
<stop stop-color="#232323"/>
<stop offset="0.32" stop-color="#B7B7B7"/>
<stop offset="0.67" stop-color="white"/>
<stop offset="0.86" stop-color="#B7B7B7"/>
<stop offset="1" stop-color="#272727"/>
</linearGradient>
<linearGradient id="paint1_linear_1409_43397" x1="46.2277" y1="62.3225" x2="13.6597" y2="118.728" gradientUnits="userSpaceOnUse">
<stop/>
<stop offset="0.2" stop-color="#55575B"/>
<stop offset="0.58" stop-color="#E5E7E9"/>
<stop offset="0.74" stop-color="#7B7F85"/>
<stop offset="1" stop-color="white"/>
</linearGradient>
<linearGradient id="paint2_linear_1409_43397" x1="11.2733" y1="70.2104" x2="22.7455" y2="27.3993" gradientUnits="userSpaceOnUse">
<stop stop-color="#232323"/>
<stop offset="0.32" stop-color="#606060"/>
<stop offset="0.68" stop-color="white"/>
<stop offset="0.79" stop-color="#565656"/>
<stop offset="1" stop-color="#232323"/>
</linearGradient>
<linearGradient id="paint3_linear_1409_43397" x1="41.7841" y1="84.4863" x2="62.0206" y2="3.32835" gradientUnits="userSpaceOnUse">
<stop stop-color="white"/>
<stop offset="0.37" stop-color="white"/>
<stop offset="0.62" stop-color="#55575B"/>
<stop offset="0.81" stop-color="white"/>
<stop offset="0.94" stop-color="#7B7F85"/>
<stop offset="1" stop-color="white"/>
</linearGradient>
<linearGradient id="paint4_linear_1409_43397" x1="52.1877" y1="86.2769" x2="46.8402" y2="9.80233" gradientUnits="userSpaceOnUse">
<stop stop-color="#696D71"/>
<stop offset="0.14" stop-color="#F9FBFB"/>
<stop offset="0.31" stop-color="#55575B"/>
<stop offset="0.56" stop-color="#E5E7E9"/>
<stop offset="0.86" stop-color="#7B7F85"/>
<stop offset="1" stop-color="white"/>
</linearGradient>
<radialGradient id="paint5_radial_1409_43397" cx="0" cy="0" r="1" gradientUnits="userSpaceOnUse" gradientTransform="translate(35.4297 54.6983) scale(51.4555 51.4555)">
<stop stop-color="#E1E1E1"/>
<stop offset="1" stop-color="#2C2C2C"/>
</radialGradient>
<linearGradient id="paint6_linear_1409_43397" x1="52.1877" y1="86.2769" x2="46.8402" y2="9.80233" gradientUnits="userSpaceOnUse">
<stop stop-color="#696D71"/>
<stop offset="0.14" stop-color="white"/>
<stop offset="0.31" stop-color="#55575B"/>
<stop offset="0.56" stop-color="white"/>
<stop offset="0.86" stop-color="#7B7F85"/>
<stop offset="1" stop-color="white"/>
</linearGradient>
<radialGradient id="paint7_radial_1409_43397" cx="0" cy="0" r="1" gradientUnits="userSpaceOnUse" gradientTransform="translate(35.2461 44.0012) rotate(-2.16692) scale(46.2831 56.7472)">
<stop stop-color="white"/>
<stop offset="0.521445" stop-color="#C4C4C4"/>
<stop offset="1" stop-color="#888888"/>
</radialGradient>
</defs>
</svg>
