<svg width="360" height="270" viewBox="0 0 360 270" fill="none" xmlns="http://www.w3.org/2000/svg">
<g clip-path="url(#clip0_1418_44367)">
<path d="M66.6032 102.432C66.5635 102.3 66.5238 102.167 66.5238 102.167L66.6032 102.432Z" fill="url(#paint0_linear_1418_44367)" fill-opacity="0.2"/>
<path d="M107.405 132.552C106.253 130.152 104.942 127.221 103.592 124.158C98.1506 111.772 92.9375 94.8391 89.966 76.2237C87.496 61.2146 87.172 49.0307 87.4696 39.4059C88.1911 30.2322 88.9379 23.0735 89.9355 17.7181L89.9887 17.4132C89.1237 22.729 87.7274 29.6486 86.0119 38.3975C85.6394 40.5317 85.2136 42.9708 84.9998 45.6355C84.7861 48.3001 84.5724 50.9647 84.3054 53.9343C84.0367 59.7939 84.0061 66.4492 84.6114 73.781C85.8862 92.0374 92.5038 110.284 99.7609 123.426C101.761 126.729 103.509 129.673 105.005 132.259C106.807 134.899 108.45 137.008 109.748 138.931C111.139 140.682 112.145 142.114 112.861 143.056C113.576 143.997 114 144.448 114 144.448C114 144.448 112.834 142.486 110.927 139.011C109.934 137.141 108.729 135.046 107.405 132.552Z" fill="url(#paint1_linear_1418_44367)" fill-opacity="0.2"/>
<path d="M142.733 159.831L143.117 160.15C142.945 160.057 142.733 159.831 142.56 159.739C142.56 159.739 142.56 159.738 142.733 159.831Z" fill="url(#paint2_linear_1418_44367)" fill-opacity="0.2"/>
<path d="M137.817 154.512C136.175 152.403 134.704 150.387 133.115 147.973C130.148 143.371 126.983 138.106 123.964 132.363C122.388 129.512 120.905 126.489 119.515 123.293C117.992 120.136 116.562 116.808 115.093 113.347C112.193 106.557 109.878 99.3038 108.185 91.7195C104.034 73.0238 102.983 57.4455 102.406 46.3486C101.83 35.2517 101.9 28.729 101.9 28.729C101.9 28.729 101.422 30.028 100.771 32.6791C100.12 35.3302 99.2556 39.2009 98.7487 44.2649C97.642 54.5654 97.1686 69.8775 102.857 89.8469C105.239 97.8029 108.243 105.428 111.659 112.496C115.208 119.525 118.691 125.851 122.187 131.739C125.644 137.495 129.114 142.814 132.386 147.469C135.208 151.103 137.512 154.459 140.401 157.351C140.401 157.351 140.361 157.218 140.229 157.258C139.42 156.488 138.572 155.586 137.817 154.512Z" fill="url(#paint3_linear_1418_44367)" fill-opacity="0.2"/>
<path d="M205.787 179.823C205.614 179.73 205.614 179.73 205.442 179.637C205.614 179.73 205.787 179.823 205.787 179.823Z" fill="url(#paint4_linear_1418_44367)" fill-opacity="0.2"/>
<path d="M209.63 181.562C209.153 181.416 208.809 181.23 208.292 180.951C208.597 181.005 208.809 181.23 209.114 181.283L209.63 181.562Z" fill="url(#paint5_linear_1418_44367)" fill-opacity="0.2"/>
<path d="M223.127 179.833C222.783 179.647 222.438 179.462 222.094 179.276C222.611 179.554 223.127 179.833 223.644 180.112L223.127 179.833Z" fill="url(#paint6_linear_1418_44367)" fill-opacity="0.2"/>
<path d="M264.806 184.406C264.236 184.432 263.494 184.365 262.924 184.392C263.361 184.405 263.799 184.419 264.104 184.472L264.806 184.406Z" fill="url(#paint7_linear_1418_44367)" fill-opacity="0.2"/>
<path d="M261.916 184.405C262.221 184.458 262.659 184.471 262.964 184.525C262.486 184.379 262.181 184.325 261.916 184.405Z" fill="url(#paint8_linear_1418_44367)" fill-opacity="0.2"/>
<path d="M244.247 179.435C241.053 177.935 237.686 176.342 234.678 174.497C231.67 172.653 228.317 170.622 225.455 168.3C213.382 159.344 202.001 147.87 191.404 133.704C184.621 125.043 179.27 116.82 174.462 109.446C169.787 102.032 165.92 95.3874 162.635 89.7244C157.325 80.189 153.71 73.9027 152.756 72.1653C153.313 72.5767 153.869 72.988 154.426 73.3993C154.426 73.3993 154.426 73.3993 154.558 73.3596C160.455 78.0962 166.484 82.793 172.395 87.0921C176.463 90.0643 180.531 93.0365 184.52 95.7435C185.46 97.9183 187.645 102.321 191.486 108.395C194.241 112.772 197.976 118.011 202.878 123.768C207.779 129.525 213.98 135.759 222.063 142.009C228.477 147.024 235.527 151.271 242.605 154.642C246.276 156.289 249.775 157.842 253.46 159.051C257.052 160.432 260.79 161.335 264.528 162.239C277.572 165.27 290.724 164.801 301.172 162.54C290.724 164.801 277.983 164.713 265.642 161.617C251.525 157.896 237.728 150.901 225.776 140.897C218.303 134.755 212.142 128.652 207.014 123.108C205.743 121.754 204.471 120.401 203.331 119.009C202.192 117.616 201.092 116.356 199.993 115.096C197.794 112.575 195.939 110.241 194.296 108.132C190.879 103.954 188.362 100.373 186.64 97.9985C186.136 97.2823 185.673 96.6987 185.342 96.0754C189.198 98.8221 192.975 101.304 196.884 103.745C200.833 106.32 204.876 108.722 208.706 110.898C210.641 112.053 212.536 113.075 214.471 114.23C216.366 115.252 218.261 116.274 220.156 117.296C223.774 119.247 227.313 120.932 230.68 122.525C230.68 122.525 230.68 122.525 230.812 122.486C234.351 124.172 237.81 125.592 241.23 126.88C247.764 129.403 253.53 131.289 258.488 132.406C259.575 132.659 260.489 132.818 261.444 133.111C261.616 133.203 261.788 133.296 261.961 133.389C263.087 133.774 264.863 134.399 267.077 135.036C269.291 135.674 272.035 136.153 275.349 136.606C276.966 136.7 278.716 136.754 280.638 136.901C282.521 136.915 284.496 136.757 286.472 136.599C288.182 136.521 289.68 136.217 291.179 135.913C292.677 135.609 294.175 135.305 295.501 134.908C298.286 134.074 300.845 133.453 303.113 132.341C307.674 130.686 310.977 128.686 313.682 127.588L313.814 127.548C311.109 128.647 307.86 130.342 303.272 131.426C298.764 132.775 293.354 133.528 287.083 133.816C279.367 134.103 272.819 133.462 268.006 133.313C265.646 133.153 263.724 133.006 262.412 132.965C261.099 132.925 260.357 132.858 260.357 132.858C260.357 132.858 260.701 133.044 261.179 133.19C260.397 132.991 259.614 132.791 258.7 132.632C255.916 132.02 252.92 131.183 249.845 130.081C250.15 130.134 250.588 130.147 251.065 130.294C252.417 130.467 254.419 130.879 256.911 131C261.763 131.281 268.511 131.139 275.658 129.434C278.575 128.56 281.134 127.939 283.442 126.959C284.596 126.469 285.656 126.152 286.677 125.702C287.699 125.252 288.72 124.802 289.608 124.391C291.557 123.663 293.162 122.749 294.541 122.048C295.297 121.677 296.093 121.439 296.756 121.24C297.419 121.042 297.949 120.883 298.519 120.857C297.949 120.883 297.419 121.042 296.889 121.2C296.225 121.399 295.43 121.637 294.634 121.875C293.043 122.352 291.266 123.172 289.237 123.635C288.177 123.953 287.116 124.27 286.055 124.588C284.822 124.812 283.761 125.13 282.395 125.394C281.202 125.751 279.836 126.016 278.431 126.147C277.065 126.412 275.567 126.716 274.162 126.848C266.684 127.93 260.452 128.35 256.05 129.09C252.404 129.459 250.071 129.869 249.408 130.067C246.982 129.204 244.384 128.248 241.614 127.199C238.672 126.057 235.517 124.689 232.363 123.322C232.668 123.375 233.145 123.521 233.755 123.628C235.451 123.987 237.891 124.412 241.072 124.905C247.223 125.664 255.787 126.279 265.028 124.814C272.334 123.638 278.301 121.852 282.823 120.065C286.629 118.781 289.613 117.166 292.225 116.239C289.706 116.993 286.47 118.251 282.413 119.176C277.467 120.512 271.169 121.675 263.492 122.095C253.973 122.633 245.873 122.601 240.132 122.73C237.282 122.861 234.962 122.833 233.424 123.004C232.588 123.11 232.018 123.136 231.581 123.123C228.042 121.437 224.464 119.618 220.713 117.707C218.818 116.685 217.055 115.623 215.16 114.601C213.265 113.579 211.462 112.385 209.527 111.23C205.658 108.921 201.788 106.612 197.799 103.905C193.638 101.105 189.304 98.2123 185.064 95.1472C184.812 94.7891 184.773 94.6565 184.773 94.6565C184.773 94.6565 184.812 94.7891 184.892 95.0543C181.208 92.4005 177.351 89.6538 173.628 86.8675C172.515 86.0448 171.574 85.3151 170.461 84.4924C171.587 84.8776 177.234 86.3659 185.983 88.0815C195.647 89.9567 209.38 91.914 224.096 91.8435C235.922 91.7712 245.494 90.9285 252.972 89.846C256.711 89.3047 259.88 88.7896 262.611 88.261C263.314 88.1951 263.977 87.9967 264.547 87.9705C265.078 87.8118 265.78 87.7459 266.35 87.7197C266.616 87.6403 266.92 87.6936 267.186 87.6142C266.92 87.6936 266.748 87.6007 266.616 87.6404C265.475 87.6927 264.242 87.9173 262.837 88.049C260.066 88.445 256.818 88.6949 252.867 89.0107C245.23 89.5629 235.154 89.6892 222.918 88.873C207.752 87.9225 194.615 86.5091 185.136 85.7344C176.665 84.947 171.375 84.6521 170.5 84.625C166.008 81.2018 161.476 77.6461 156.944 74.0903C159.516 74.4763 165.097 75.2619 172.693 76.0222C175.358 76.236 178.327 76.503 181.469 76.8628C184.571 77.0901 187.978 77.3706 191.518 77.6114C193.268 77.6655 195.097 77.9848 196.887 78.1715C198.849 78.4511 200.943 78.6911 203.038 78.931C205.093 79.0383 207.055 79.3179 209.282 79.5181C211.337 79.6254 213.524 79.6931 215.619 79.933C229.393 80.5778 240.741 80.3594 249.505 80.1924C257.128 80.0777 263.094 79.7367 266.965 80.6008C263.054 79.6041 257.407 79.5609 249.492 79.1848C240.437 78.8611 228.678 78.191 214.494 76.6577C210.039 76.2572 205.811 75.6448 201.794 75.2579C199.832 74.9783 197.87 74.6986 195.908 74.419C193.813 74.1791 191.719 73.9392 189.969 73.8851C182.625 73.4829 176.579 73.5587 171.369 73.529C166.331 73.5922 162.168 73.6825 159.41 73.641C158.138 73.733 157.13 73.7457 156.388 73.6789C153.91 71.6755 151.26 69.5792 148.742 67.4432C145.628 64.7633 142.382 62.123 139.268 59.4431C140.222 59.7354 141.654 60.1737 143.602 60.8908C147.115 62.0066 152.019 63.4282 158.276 65.0229C161.404 65.8203 164.797 66.5383 168.456 67.1769C170.285 67.4962 172.247 67.7758 174.077 68.0951C175.999 68.2421 177.961 68.5217 180.016 68.629C183.993 68.8833 188.142 69.2306 192.385 69.4055C196.534 69.7528 201.121 70.1135 205.88 70.5672C221.205 72.0482 234.13 73.236 244.02 73.4542C253.99 73.9376 261.228 73.5045 265.656 74.78C261.268 73.6371 254.136 73.4604 244.1 72.2743C233.84 71.3002 220.597 69.0516 204.65 66.4566C199.678 65.7774 194.933 64.8863 190.346 64.5255C185.931 64.2577 181.649 63.9501 177.805 63.6561C175.883 63.5091 174 63.4947 172.21 63.308C170.288 63.161 168.631 62.9346 166.841 62.7479C163.395 62.3348 160.12 62.0146 157.111 61.615C147.301 60.2169 140.845 59.4043 138.883 59.1247C138.075 58.3553 137.134 57.6255 136.193 56.8958C132.099 53.3535 128.005 49.8112 123.871 46.1364C123.486 45.8179 123.274 45.5924 122.89 45.274C123.844 45.5663 125.276 46.0046 127.317 46.5495C130.923 47.4929 136.132 48.9677 142.614 50.3505C149.136 51.8658 156.838 53.4615 165.467 54.7792C169.696 55.3917 174.23 56.0573 178.949 56.3784C183.576 56.8718 188.415 57.5906 193.518 58.2301C209.956 60.5338 223.664 61.9209 234.508 62.4314C239.625 62.6334 244.477 62.9147 248.72 63.0897C250.775 63.197 252.697 63.344 254.314 63.4378C255.057 63.5045 255.839 63.7039 256.581 63.7706C255.971 63.6642 255.322 63.4252 254.579 63.3584C252.922 63.132 251 62.985 249.038 62.7054C244.889 62.3582 240.09 61.7719 234.588 61.2515C223.466 59.8129 209.348 57.5372 192.381 53.9473C187.158 52.91 182.068 51.833 177.309 51.3793C172.642 50.7533 168.148 50.2203 163.827 49.7801C155.276 48.7276 147.733 47.6623 141.582 46.9029C131.68 45.6771 124.998 45.0764 122.731 44.7436C119.154 41.4801 115.404 38.1236 111.959 34.8204C109.362 32.4192 106.765 30.018 104.301 27.5771C107.217 28.1489 113.447 29.1736 122.091 30.0539C128.069 30.7204 135.321 31.2949 143.156 31.4058C147.093 31.5275 151.296 31.5699 155.459 31.4796C157.607 31.4146 159.622 31.3894 161.982 31.5499C164.209 31.7501 166.569 31.9107 168.928 32.0712C184.439 33.2076 197.55 34.0508 208.302 34.7336C213.724 34.9888 218.483 35.4425 222.765 35.75C227.087 36.1901 230.799 36.5239 233.993 38.0239L234.298 38.0771C231.103 36.5771 227.392 36.2434 222.99 35.538C218.496 35.005 213.525 34.3258 208.077 33.5005C196.955 32.0619 183.354 30.0649 167.181 27.6819C164.742 27.2561 162.21 27.0027 159.85 26.8422C157.451 26.549 154.958 26.4282 152.943 26.4535C148.608 26.4508 144.578 26.5014 140.68 26.5122C132.884 26.534 126.097 26.5431 120.356 26.6721C114.748 26.7615 110.187 26.9708 107.165 27.0088C105.719 27.0079 104.579 27.0602 103.744 27.1657C102.512 25.9453 101.319 24.8575 99.9545 23.6767C99.0137 22.947 98.1657 22.0449 97.3575 21.2755C98.0602 21.2096 99.4655 21.0779 101.613 21.0129C104.729 20.8027 109.064 20.8054 114.5 20.6231C125.239 20.2983 140.406 19.8038 158.33 19.3507C183.003 18.756 202.848 21.3401 216.024 24.3311C214.287 23.8395 212.551 23.3479 210.682 22.896C206.374 22.0184 201.337 20.6365 195.849 19.6786C184.793 17.4976 171.537 15.6865 156.411 14.8685C137.745 13.8097 122.723 15.2721 112.593 17.1485C107.528 18.0867 103.471 19.0122 100.858 19.9386C98.8693 20.534 97.7156 21.0238 97.1852 21.1826C94.4159 18.6885 91.6863 16.327 88.9567 13.9654C89.6594 13.8996 90.7599 13.7147 92.2049 13.7155C95.1483 13.4124 99.2318 13.057 104.456 12.6492C107.134 12.4254 110.117 12.2549 113.232 12.0447C116.348 11.8345 119.557 11.452 122.898 11.0298C129.58 10.1854 137.098 9.23547 144.934 7.90127C148.103 7.38616 151.218 7.17595 154.255 6.70054C157.33 6.35773 160.314 6.18721 163.164 6.05638C168.825 5.66212 174.168 5.65214 179.113 5.76122C188.87 6.0191 197.368 7.37656 203.61 10.8539L203.954 11.0397C197.752 7.69498 189.228 5.76743 178.888 4.52814C173.785 3.88865 168.058 3.58022 162.065 3.35117C159.003 3.25649 155.94 3.16181 152.613 3.14651C149.457 3.22413 145.997 3.24853 142.577 3.40553C134.198 3.89092 126.68 4.84084 119.944 5.99013C112.825 6.82099 106.964 7.99732 102.151 9.29361C97.4701 10.5502 93.9296 11.7545 91.4896 12.7738C90.3359 13.2636 89.4474 13.6741 88.7844 13.8725C88.6121 13.7796 88.4001 13.5541 88.2278 13.4612C85.8293 11.723 83.5236 9.81252 81.1251 8.0743C81.6555 7.91554 82.4511 7.67739 83.2467 7.43924C85.7661 6.6851 89.4392 5.44114 94.1199 4.18454C98.9332 2.88825 104.449 1.5261 111.052 0.416512C114.354 -0.138283 117.92 -0.772453 121.699 -1.18112C123.635 -1.4716 125.61 -1.62949 127.546 -1.91997C129.482 -2.21045 131.245 -2.59383 133.181 -2.88432C145.379 -5.09085 156.397 -5.93258 165.968 -5.33012C175.672 -4.76736 183.931 -2.76041 190.147 0.14679L190.452 0.200005C184.275 -2.5746 175.819 -5.24454 165.704 -6.69581C160.693 -7.50759 155.099 -7.85571 149.279 -7.99186C146.349 -8.12623 143.326 -8.08831 140.171 -8.0107C138.593 -7.97189 137.015 -7.93308 135.477 -7.76167C134.602 -7.78873 133.939 -7.59028 133.064 -7.61732C132.19 -7.64438 131.182 -7.63173 130.307 -7.65878C121.027 -7.77053 113.416 -6.64831 107.105 -5.04801C100.7 -3.27542 95.462 -0.985077 91.2847 0.98774C87.147 3.09315 84.2822 5.10654 82.2265 6.4443C81.5103 6.94764 80.9266 7.4113 80.4359 7.70267C78.9385 6.5616 77.3085 5.46023 75.8111 4.31916C75.4665 4.13335 75.0823 3.81493 74.7377 3.62911C75.2284 3.33775 76.0772 2.79471 77.3238 2.13259C78.3052 1.54987 79.6448 0.715462 81.1169 -0.158638C82.589 -1.03273 84.1937 -1.94652 86.0637 -2.93969C89.8035 -4.92603 94.4318 -7.32281 99.9352 -9.69254C102.601 -10.9239 105.571 -12.102 108.846 -13.2268C110.398 -13.8357 112.122 -14.3517 113.806 -15.0003C115.53 -15.5163 117.121 -15.9926 118.977 -16.5483C124.719 -18.1224 130.393 -18.9542 136.055 -19.3484C138.905 -19.4792 141.623 -19.5704 144.42 -19.3963C146.833 -19.5407 149.074 -19.7779 151.222 -19.8429C159.985 -20.0099 167.66 -18.9844 173.479 -17.4031L173.784 -17.3499C167.965 -18.9311 160.264 -20.5268 150.918 -21.3412C149.738 -21.4215 148.558 -21.5017 147.378 -21.582C146.808 -21.5558 146.026 -21.7552 145.283 -21.8219C144.541 -21.8887 143.759 -22.088 143.017 -22.1547C140.007 -22.5543 136.866 -22.9142 133.803 -23.0089C127.506 -23.2911 121.328 -23.1756 114.804 -21.8008C98.8138 -18.7481 89.1846 -11.8203 82.9236 -6.1897C78.0553 -1.69839 75.4945 1.81329 74.6186 3.23132C72.9886 2.12994 71.3983 1.16116 69.7683 0.0597839C67.6611 -1.18771 65.6468 -2.60751 63.5794 -3.7224C61.5119 -4.8373 59.3118 -5.91251 57.2046 -7.16001C56.1708 -7.71746 55.1371 -8.27491 54.1033 -8.83236C53.0696 -9.38981 51.9429 -9.77496 50.9489 -10.1998C46.8003 -11.9921 42.7447 -13.9567 38.5827 -15.3115C36.6343 -16.0286 34.5533 -16.7061 32.6049 -17.4232C30.6565 -18.1403 28.6548 -18.5525 26.7461 -19.137C11.423 -23.5081 -1.63492 -24.6562 -10.7031 -24.5425C-15.171 -24.5054 -18.6844 -24.1761 -20.9251 -23.9389C-23.2984 -23.6619 -24.3988 -23.477 -24.3988 -23.477C-25.2341 -23.3714 -26.0432 -22.6958 -25.7519 -22.2051C-25.6725 -21.9399 -25.3279 -21.7541 -24.8507 -21.608C-24.5061 -21.4221 -24.0687 -21.4086 -23.6709 -21.5277C-23.6709 -21.5277 -23.4057 -21.6071 -22.8356 -21.6332C-22.2655 -21.6594 -21.4302 -21.765 -20.3297 -21.9499C-19.2292 -22.1348 -17.7842 -22.1339 -16.1136 -22.345C-14.4033 -22.4235 -12.5207 -22.4091 -10.2404 -22.5138C-1.43735 -22.5482 11.4483 -21.4929 26.5594 -17.3473C28.4681 -16.7628 30.4697 -16.3506 32.2459 -15.7264C34.1943 -15.0093 36.1427 -14.2922 38.0911 -13.5751C40.4771 -12.8445 42.9423 -11.8487 45.3147 -10.6805C44.9566 -10.4289 44.5985 -10.1772 44.2404 -9.92551C42.4102 -8.79975 40.0757 -6.94512 37.3696 -4.40134C32.1694 0.911751 26.1321 9.22054 22.6386 20.2354C21.8286 22.3561 21.1512 24.4371 20.4738 26.5181C19.929 28.5595 19.3842 30.6008 18.9323 32.4698C17.8959 36.2476 16.873 39.5879 16.2479 42.8091C14.9581 49.1189 13.7088 54.1162 12.5001 57.8011L12.4072 57.9733C13.4833 54.3282 15.2098 49.477 17.2817 43.3665C18.3839 40.2915 19.884 37.0973 21.4373 33.5983C22.194 31.7824 22.9509 29.9666 23.8006 27.9785C24.8226 26.0833 25.8445 24.1881 26.9594 22.1206C32.0432 12.0745 37.2055 3.73869 40.9345 -2.14537C42.9514 -5.0608 44.3847 -7.51255 45.6584 -9.04964C45.9768 -9.43392 46.2556 -9.95081 46.4811 -10.1628C47.8197 -9.55212 49.1583 -8.94145 50.6296 -8.37048C51.6236 -7.94563 52.7503 -7.56046 53.784 -7.00301C54.8178 -6.44556 55.8515 -5.88811 56.8853 -5.33067C58.4359 -4.49449 60.1191 -3.69801 61.7094 -2.72923C60.1579 -2.12034 56.0735 -0.319809 51.5372 3.34975C48.6588 5.80063 45.5414 8.90098 42.6089 13.1018C39.809 17.263 37.2076 22.0871 35.4541 27.8133C32.4125 36.9591 31.1479 45.2841 30.3749 51.8726C30.1873 55.1073 29.6949 58.2889 29.4811 60.9535C29.4397 63.711 29.1068 65.9779 28.9598 67.9001L28.9995 68.0327C29.2791 66.0708 29.5722 63.6713 29.8257 61.1393C30.2117 58.5676 30.8765 55.479 31.5016 52.2578C33.0566 45.8686 35.3946 38.2337 39.5493 29.9105C44.5537 19.5992 50.3258 11.3698 54.7043 5.72478C58.2601 1.19288 61.0194 -1.65579 62.0143 -2.67601C62.3589 -2.4902 62.8361 -2.34408 63.2204 -2.02566C65.4204 -0.950447 67.4347 0.469345 69.4093 1.75653C70.1382 2.26077 70.9996 2.72531 71.7285 3.22955C68.5317 6.0647 64.7774 9.9336 61.1017 15.5128C57.2401 21.4365 53.3641 29.2428 50.2558 39.1311C48.3165 45.2018 47.1195 51.3393 46.2942 56.7877C45.5086 62.3686 45.3201 67.0484 45.0126 71.3304C44.8926 72.3777 44.9053 73.3853 44.8782 74.2602C44.8512 75.1352 44.8638 76.1428 44.9297 76.8455C44.9685 78.4232 44.9676 79.8682 44.9802 80.8758C45.0452 83.0236 44.9649 84.2034 45.1769 84.4289C45.1769 84.4289 45.0578 84.0311 45.3365 83.5143C45.4827 83.0371 45.6423 82.1224 45.9346 81.1681C46.1871 80.0811 46.4 78.8615 46.7987 77.2974C46.998 76.5153 47.0648 75.7729 47.2244 74.8583C47.3841 73.9436 47.716 73.1218 47.836 72.0746C48.6604 68.0713 49.7239 63.4185 50.7611 58.1957C51.7984 52.9729 53.1145 47.2332 54.5369 40.8837C55.7465 35.7537 56.8893 31.3662 58.2441 27.2042C59.6386 23.1747 61.0196 19.5828 62.5197 16.3886C65.4666 10.3052 68.5849 5.7598 71.8214 3.05725C73.0671 3.84021 74.3525 4.75576 75.7309 5.49902C76.4597 6.00326 77.1886 6.5075 77.9174 7.01173C76.8828 7.89935 73.7257 10.8671 70.3548 16.4995C68.3641 19.985 66.0016 24.1597 64.2617 29.4484C63.3055 32.0463 62.5614 34.8697 61.5917 37.905C61.1931 39.4692 60.9269 40.9936 60.5283 42.5578C60.1296 44.1219 59.9032 45.779 59.6768 47.4361C59.3304 50.1404 58.9841 52.8447 58.598 55.4164C58.3446 57.9485 58.0912 60.4805 57.9306 62.8402C57.7701 65.2 57.7024 67.3874 57.6348 69.5749C57.661 70.145 57.5149 70.6222 57.7133 71.2852C57.9118 71.9482 57.9776 72.6508 58.1761 73.3138C58.4404 74.6795 58.7976 75.8729 59.0619 77.2386C59.5112 79.7048 60.3979 82.1845 61.245 84.5316C62.092 86.8787 62.5945 89.04 63.3621 91.1219C64.0504 92.9386 64.7919 94.4504 65.4008 96.0019C63.4153 90.817 61.7618 84.8103 60.7848 78.1677C60.3753 75.8341 60.1912 73.2886 60.0072 70.743L59.889 68.9001C59.8629 68.33 60.009 67.8528 60.1154 67.2431C60.2354 66.1958 60.4879 65.1088 60.6079 64.0616C61.4459 59.6208 62.4696 54.8355 63.9444 49.6262C64.3431 48.062 64.8743 46.4582 65.3127 45.0266C65.844 43.4228 66.1498 42.0309 66.5882 40.5994C67.5046 37.8689 68.2488 35.0455 69.2049 32.4476C70.8123 27.1986 72.5252 22.7849 73.8268 18.9277C76.1639 12.7379 77.8236 8.62909 78.3017 7.33015C78.8583 7.74147 79.5871 8.2457 80.1834 8.78963L80.0508 8.82932C80.0508 8.82932 80.0508 8.82932 80.1834 8.78963C82.065 10.2491 83.9467 11.7086 85.9213 12.9958C85.1113 15.1165 84.2084 17.4095 83.0267 20.2194C81.9777 22.9895 80.7825 26.2369 79.4016 29.8289C76.6793 37.1454 73.6909 45.9863 70.8604 56.8027C70.7143 57.2799 70.6611 57.5848 70.515 58.062L70.3418 59.4141C70.1821 60.3288 70.1948 61.3364 70.1677 62.2114C70.0207 64.1336 70.0063 66.0162 69.9919 67.8987C69.963 71.6639 70.1994 75.3496 70.701 78.956C71.5716 86.2084 73.3306 93.0503 75.2096 98.845C76.2155 101.723 77.1419 104.335 78.1215 106.642C79.2735 109.043 80.134 110.952 80.9152 112.597C82.6102 115.846 83.4311 117.623 83.4311 117.623C83.4311 117.623 82.9151 115.899 82.1745 112.942C81.7379 111.483 81.1822 109.627 80.64 107.333C80.1376 105.172 79.5954 102.878 79.0668 100.147C76.8991 89.526 75.5025 75.207 75.8966 59.6297C75.9904 58.0123 75.9912 56.5672 76.1247 55.0825C76.2582 53.5977 76.2194 52.02 76.4719 50.9331C76.9906 48.3217 77.456 46.0151 77.9214 43.7086C78.8523 39.0956 79.8625 34.7477 80.7266 30.877C82.5875 23.096 84.1687 17.2769 85.961 13.1284L85.9213 12.9958C86.6502 13.5 87.379 14.0042 88.1476 14.6411C92.1626 17.9182 96.0847 21.3675 100.007 24.8169C103.969 28.3988 107.97 32.1134 111.932 35.6954C113.548 37.2342 115.298 38.7334 116.954 40.4049C116.847 41.0146 116.541 42.4065 116.355 44.1962C116.048 47.0331 115.741 51.3151 115.87 57.0557C116.221 68.3646 118.981 85.3094 127.798 106.076C135.119 122.812 143.874 137.095 152.444 148.833C161.054 160.704 169.878 169.91 176.582 176.861L176.966 177.18C170.13 170.268 162.008 160.997 154.313 149.285C146.618 137.574 139.255 123.596 133.1 107.379C125.701 87.4877 121.628 70.5023 119.541 58.7019C117.823 49.1023 117.231 42.7781 117.033 40.6701C119.246 42.7529 121.591 44.796 123.936 46.8391C126.745 49.4658 129.647 51.9202 132.549 54.3746C132.602 55.5148 132.81 61.5206 134.474 71.425C135.399 76.9274 136.853 83.7162 139.328 91.4999C141.802 99.2835 145.588 108.553 151.468 118.062C160.752 133.632 170.86 146.644 180.823 157.243C185.738 162.562 190.76 167.272 195.716 171.278C198.061 173.322 200.632 175.153 203.031 176.891C204.316 177.806 205.734 178.682 207.152 179.558C205.907 178.775 204.661 177.992 203.548 177.17C201.149 175.431 198.711 173.561 196.498 171.478C191.807 167.392 187.356 162.656 182.745 157.39C173.79 146.778 164.862 133.847 156.665 118.529C151.527 109.087 147.847 100.653 145.067 92.8159C142.328 85.1116 139.959 78.1632 138.252 72.4614C136.545 66.7596 135.156 62.1186 134.071 58.9759C133.357 56.5891 132.88 54.9979 132.682 54.3349C133.874 55.4228 135.027 56.378 136.352 57.4262C138.91 59.6948 141.427 61.8308 144.077 63.9271C144.408 65.9955 145.293 71.3653 147.488 79.6659C150.491 90.1809 155.586 105.271 166.513 122.95C175.228 137.101 185.018 149.052 195.101 158.604C204.8 167.837 214.924 174.631 223.711 179.369C214.924 174.631 205.502 167.771 197.023 158.751C187.947 149.187 179.51 137.409 171.882 123.51C162.559 106.363 155.926 91.4437 151.359 80.53C147.93 72.4541 145.614 66.6458 144.634 64.3384C146.131 65.4795 147.536 66.7928 149.033 67.9339C150.743 69.3005 152.492 70.7997 154.334 72.1265C154.532 72.7895 154.969 74.2481 155.776 76.4626C156.822 79.4727 158.436 83.9017 160.806 89.4051C163.176 94.9084 166.473 101.579 170.79 109.244C175.373 116.831 180.763 125.186 188.156 133.954C199.893 148.067 212.189 159.702 225.362 168.473C226.992 169.574 228.622 170.676 230.212 171.644C231.935 172.573 233.525 173.542 235.248 174.471C238.429 176.409 242.06 177.922 245.387 179.383C248.714 180.843 252.359 181.919 255.699 182.942C257.568 183.394 259.57 183.806 261.532 184.086C259.875 183.859 258.006 183.408 256.309 183.049C250.954 182.051 247.534 180.763 244.247 179.435Z" fill="url(#paint9_linear_1418_44367)" fill-opacity="0.2"/>
<path d="M259.517 184.111C259.689 184.204 259.822 184.165 260.127 184.218C259.954 184.125 259.649 184.072 259.517 184.111Z" fill="url(#paint10_linear_1418_44367)" fill-opacity="0.2"/>
<path d="M259.643 172.949C259.338 172.895 258.901 172.882 258.596 172.829C258.768 172.921 259.033 172.842 259.205 172.935L259.643 172.949Z" fill="url(#paint11_linear_1418_44367)" fill-opacity="0.2"/>
<path d="M255.891 172.483C256.196 172.536 256.329 172.496 256.634 172.549C256.329 172.496 256.064 172.575 255.891 172.483Z" fill="url(#paint12_linear_1418_44367)" fill-opacity="0.2"/>
<path d="M258.596 172.829C258.291 172.775 257.853 172.762 257.548 172.708C257.986 172.722 258.291 172.775 258.596 172.829Z" fill="url(#paint13_linear_1418_44367)" fill-opacity="0.2"/>
<path d="M244.704 168.896C242.199 167.767 239.694 166.639 237.242 165.205C234.791 163.772 232.339 162.339 229.94 160.601C227.542 158.862 225.143 157.124 222.838 155.214C220.532 153.303 218.319 151.22 216.067 149.005C213.947 146.75 211.96 144.455 209.8 142.067C207.773 139.64 205.707 137.08 203.6 134.388C193.413 121.11 185.373 109.214 179.638 100.672C173.903 92.1308 170.472 86.945 170.472 86.945C170.472 86.945 171.002 88.2313 171.981 90.5387C172.961 92.8461 174.563 96.2676 176.881 100.631C181.343 109.264 188.243 121.213 199.649 134.703C201.928 137.489 204.26 139.969 206.459 142.49C208.658 145.01 211.083 147.318 213.468 149.494C218.278 153.978 223.459 157.773 228.614 160.997C233.769 164.222 239.071 166.97 244.174 169.054C246.679 170.183 249.369 170.967 251.888 171.658C253.147 172.003 254.406 172.348 255.626 172.561C255.759 172.522 255.798 172.654 255.931 172.615C254.711 172.402 253.585 172.017 252.325 171.671C249.767 170.848 247.037 169.931 244.704 168.896Z" fill="url(#paint14_linear_1418_44367)" fill-opacity="0.2"/>
<path d="M304.911 161.999C303.585 162.396 302.219 162.66 300.853 162.925C302.484 162.581 303.983 162.277 305.441 161.84L304.911 161.999Z" fill="url(#paint15_linear_1418_44367)" fill-opacity="0.2"/>
<path d="M266.827 154.472C265.09 153.98 263.447 153.317 261.538 152.732C259.762 152.108 257.986 151.484 256.17 150.727C248.721 148.044 241.882 144.023 234.66 139.683C223.276 132.544 215.352 125.38 209.363 119.371C207.88 117.792 206.475 116.479 205.164 114.993C203.892 113.64 202.752 112.247 201.653 110.987C199.454 108.467 197.771 106.225 196.473 104.302L196.301 104.209C199.03 108.016 202.593 113.162 208.091 119.463C213.549 125.631 220.584 133.205 231.331 141.113C238.01 146.049 245.286 150.084 252.947 152.992C260.475 155.94 268.124 157.84 275.11 158.494C276.9 158.681 278.65 158.735 280.267 158.829C281.884 158.923 283.369 159.056 284.907 158.885C287.89 158.714 290.343 158.702 292.584 158.465C296.893 157.898 299.226 157.488 299.226 157.488C299.226 157.488 297.078 157.553 293.088 157.736C291.112 157.894 288.713 157.601 286.088 157.52C283.33 157.478 280.454 157.039 277.14 156.586C276.397 156.52 275.483 156.36 274.568 156.2C273.786 156.001 272.871 155.841 272.089 155.642C270.26 155.323 268.563 154.964 266.827 154.472Z" fill="url(#paint16_linear_1418_44367)" fill-opacity="0.2"/>
<path d="M224.316 122.986C222.818 121.845 221.533 120.929 220.38 119.974C219.227 119.018 218.286 118.289 217.385 117.692C215.715 116.458 214.907 115.688 214.907 115.688C214.907 115.688 215.411 116.404 216.59 117.93C217.729 119.322 219.504 121.392 221.968 123.833C226.897 128.714 234.397 135.427 246.391 141.228C255.881 145.901 265.518 148.651 274.24 149.796C282.923 150.809 290.732 150.35 296.407 149.518L296.672 149.439C293.729 149.742 290.427 150.297 286.755 150.096C285.005 150.042 282.99 150.067 281.028 149.787C279.066 149.508 277.104 149.228 275.01 148.988C266.871 147.379 257.99 144.258 249.296 139.347C238.574 133.454 230.266 127.417 224.316 122.986Z" fill="url(#paint17_linear_1418_44367)" fill-opacity="0.2"/>
<path d="M242.421 129.413C239.744 128.192 237.77 126.905 236.391 126.161C235.013 125.418 234.151 124.954 234.151 124.954C234.151 124.954 235.966 127.156 240.286 130.486C244.567 133.683 251.391 138.142 261.638 140.999C263.812 141.504 265.72 142.088 267.722 142.501C269.724 142.913 271.686 143.192 273.608 143.339C275.53 143.486 277.452 143.634 279.202 143.688C280.992 143.874 282.702 143.796 284.413 143.717C286.123 143.639 287.701 143.6 289.238 143.429C290.737 143.125 292.275 142.953 293.64 142.689C296.412 142.293 298.798 141.578 300.827 141.116L300.96 141.076C298.931 141.539 296.544 142.253 293.866 142.477C292.461 142.609 291.055 142.74 289.65 142.872C288.112 143.043 286.627 142.91 285.049 142.949C281.854 142.894 278.54 142.441 274.882 141.802C271.355 141.124 267.75 140.181 264.025 138.839C254.84 135.665 247.55 132.068 242.421 129.413Z" fill="url(#paint18_linear_1418_44367)" fill-opacity="0.2"/>
<path d="M297.817 120.923C297.645 120.83 297.645 120.83 297.817 120.923V120.923Z" fill="url(#paint19_linear_1418_44367)" fill-opacity="0.2"/>
<path d="M292.769 115.643C292.636 115.683 292.504 115.723 292.238 115.802C292.504 115.723 292.504 115.723 292.769 115.643Z" fill="url(#paint20_linear_1418_44367)" fill-opacity="0.2"/>
<path d="M225.818 115.456C222.623 115.401 220.171 115.413 218.421 115.359C216.671 115.305 215.663 115.317 215.663 115.317C215.663 115.317 216.75 115.57 218.619 116.022C220.488 116.474 223.272 117.085 226.626 117.671C233.466 118.802 243.077 119.537 252.637 117.687C260.433 116.22 265.645 113.359 269.995 111.479C272.09 110.274 274.252 109.772 275.896 108.991C276.824 108.713 277.62 108.475 278.415 108.236C279.171 107.866 279.834 107.667 280.497 107.469L280.63 107.429C279.967 107.628 279.344 107.959 278.548 108.197C277.752 108.435 276.917 108.54 275.856 108.858C274.928 109.136 274.04 109.546 272.807 109.771C271.706 109.956 270.552 110.446 269.359 110.803C264.453 112.271 258.698 114.283 250.663 114.954C240.919 115.704 232.076 115.606 225.818 115.456Z" fill="url(#paint21_linear_1418_44367)" fill-opacity="0.2"/>
<path d="M240.818 106.199C228.436 105.86 217.645 105.044 209.863 104.629C202.174 104.04 197.627 103.812 197.627 103.812C197.627 103.812 198.886 104.158 201.1 104.796C203.313 105.433 206.574 106.191 210.71 106.976C218.809 108.452 230.144 110.116 242.169 109.262C251.821 108.685 259.405 106.992 265.107 105.286C270.809 103.579 274.509 101.46 277.426 100.587L277.558 100.547C274.641 101.42 270.862 103.274 264.736 104.53C258.836 105.573 250.841 106.377 240.818 106.199Z" fill="url(#paint22_linear_1418_44367)" fill-opacity="0.2"/>
<path d="M198.333 97.9661C207.347 99.6023 220.126 101.267 233.716 100.812C244.587 100.447 253.431 99.1002 259.914 97.5928C266.571 96.1783 271.053 94.2587 274.168 94.0485L274.301 94.0088C271.053 94.2587 266.584 95.7409 259.637 96.6646C252.689 97.5884 243.607 98.1397 232.233 97.788C218.193 97.2226 205.878 96.1412 197.181 95.5658C188.484 94.9904 183.367 94.7884 183.367 94.7884C183.367 94.7884 184.759 95.0942 187.277 95.7851C190.022 96.2641 193.76 97.1678 198.333 97.9661Z" fill="url(#paint23_linear_1418_44367)" fill-opacity="0.2"/>
<path d="M268.233 87.7342C267.928 87.681 267.623 87.6277 267.358 87.7071C267.663 87.7603 268.1 87.7738 268.405 87.8271L268.233 87.7342Z" fill="url(#paint24_linear_1418_44367)" fill-opacity="0.2"/>
<path d="M267.309 80.7869L267.137 80.694C267.309 80.7869 267.442 80.7472 267.614 80.8401L267.309 80.7869Z" fill="url(#paint25_linear_1418_44367)" fill-opacity="0.2"/>
<path d="M256.09 64.0624C256.09 64.0624 256.263 64.1553 256.435 64.2482C256.435 64.2482 256.263 64.1553 256.09 64.0624Z" fill="url(#paint26_linear_1418_44367)" fill-opacity="0.2"/>
<path d="M257.045 64.3545C257.35 64.4077 257.562 64.6333 257.734 64.7262C257.429 64.673 257.217 64.4474 257.045 64.3545Z" fill="url(#paint27_linear_1418_44367)" fill-opacity="0.2"/>
<path d="M255.653 64.0489C255.785 64.0092 255.825 64.1418 255.958 64.1022C255.958 64.1022 255.785 64.0092 255.653 64.0489Z" fill="url(#paint28_linear_1418_44367)" fill-opacity="0.2"/>
<path d="M257.734 64.7262C257.906 64.8191 258.078 64.9119 258.078 64.9119L257.734 64.7262Z" fill="url(#paint29_linear_1418_44367)" fill-opacity="0.2"/>
<path d="M182.658 41.2539C180.086 40.8678 177.381 40.5215 174.757 40.4403C172.436 40.4124 170.077 40.2518 167.889 40.1842C163.342 39.9561 158.967 39.8208 154.818 39.4736C146.559 38.9117 139.175 38.3769 132.931 37.7897C126.726 37.3351 121.835 36.9212 118.428 36.6407C115.021 36.3602 113.271 36.3061 113.271 36.3061C113.271 36.3061 115.312 36.8509 118.917 37.7944C122.523 38.7379 127.785 39.9078 134.228 41.1579C140.67 42.4081 148.385 43.5662 156.856 44.3536C161.046 44.8334 165.593 45.0616 170.1 45.1572C172.42 45.1851 174.74 45.213 177.06 45.241C178.24 45.3212 179.208 45.176 180.388 45.2563C181.568 45.3365 182.748 45.4168 183.928 45.4971C191.922 46.1383 199.504 47.3361 206.53 48.1226C213.424 48.9488 219.707 49.6686 225.341 50.1493C230.975 50.63 235.867 51.044 240.056 51.5239C244.245 52.0037 247.957 52.3374 250.9 53.4794L251.205 53.5326C248.395 52.3509 244.683 52.0172 240.414 51.2722C235.881 50.6065 230.87 49.7948 225.422 48.9694C219.761 47.9186 213.266 46.9734 206.174 45.4842C199.029 44.2999 191.155 42.6113 182.658 41.2539Z" fill="url(#paint30_linear_1418_44367)" fill-opacity="0.2"/>
<path d="M221.047 26.151C220.915 26.1907 220.743 26.0977 220.743 26.0977L221.047 26.151Z" fill="url(#paint31_linear_1418_44367)" fill-opacity="0.2"/>
<path d="M215.135 24.7419C217.177 25.2867 218.913 25.7783 220.61 26.1373C219.006 25.606 217.137 25.1541 215.135 24.7419Z" fill="url(#paint32_linear_1418_44367)" fill-opacity="0.2"/>
<path d="M78.6018 -27.868C75.6423 -22.7922 73.3989 -18.2197 71.5272 -14.3364C67.7838 -6.56974 66.0971 -1.58595 66.0971 -1.58595C66.0971 -1.58595 69.7584 -5.28255 75.3041 -11.8549C78.077 -15.1411 81.3143 -19.2887 84.7375 -23.7809C86.3693 -25.5697 89.3135 -27.3179 92.5095 -28.7079C95.6657 -30.2306 99.3388 -31.4746 103.145 -32.7582C109.377 -34.6237 115.582 -35.6142 121.601 -36.2602C124.677 -36.603 127.66 -36.7735 130.683 -36.8114C133.573 -36.8097 136.37 -36.6356 139.167 -36.4615C144.669 -35.9411 149.985 -35.0761 154.982 -33.8268C155.592 -33.7204 156.241 -33.4814 156.851 -33.3749C157.501 -33.1359 157.898 -33.255 158.376 -33.1089C159.29 -32.9492 160.165 -32.9222 161.08 -32.7625C162.737 -32.5361 164.434 -32.1771 165.958 -31.911L166.263 -31.8578C164.739 -32.1239 163.174 -32.5226 161.478 -32.8816C160.563 -33.0412 159.648 -33.2009 158.734 -33.3605L157.991 -33.4273C157.686 -33.4805 157.554 -33.4408 157.209 -33.6266C156.56 -33.8657 155.95 -33.9721 155.301 -34.2111C150.052 -35.8185 144.444 -37.1742 138.479 -38.2782C136.955 -38.5443 135.43 -38.8104 133.946 -38.9439C132.421 -39.21 130.804 -39.3038 129.186 -39.3976C125.952 -39.5851 122.584 -39.733 119.257 -39.7483C115.929 -39.7636 112.509 -39.6066 109.128 -39.3171C105.614 -38.9878 102.048 -38.3536 98.5206 -37.5868C94.198 -36.5819 90.3526 -35.4308 87.0638 -33.8685C83.6027 -32.399 80.6584 -30.6508 78.6018 -27.868Z" fill="url(#paint33_linear_1418_44367)" fill-opacity="0.2"/>
<path d="M74.8473 -45.2377C65.9857 -36.228 63.3275 -25.3186 61.9042 -17.5241C60.6532 -9.63661 61.1936 -4.4526 61.1936 -4.4526C61.1936 -4.4526 62.8136 -8.69401 65.9995 -15.4269C69.1854 -22.1598 73.7253 -31.6096 80.8107 -41.2435C83.7297 -45.0068 86.94 -48.2795 90.4417 -51.0614C93.8505 -53.6711 97.6833 -55.8297 101.489 -57.1134C103.266 -57.9342 105.295 -58.397 107.191 -58.8201C109.087 -59.2432 110.983 -59.6662 112.654 -59.8773C116.644 -60.0605 120.065 -60.2175 123.26 -60.1625L123.565 -60.1093C120.502 -60.204 116.737 -60.2328 112.534 -60.2751C110.559 -60.1173 108.583 -59.9594 106.475 -59.7618C104.367 -59.5642 101.954 -59.4199 99.9654 -58.8245C97.8041 -58.322 95.5499 -57.6473 93.1631 -56.9329C91.1209 -56.0326 88.9461 -55.0926 86.6784 -53.9804C82.4478 -51.7027 78.376 -48.8946 74.8473 -45.2377Z" fill="url(#paint34_linear_1418_44367)" fill-opacity="0.2"/>
<path d="M41.0742 -13.7454C41.0742 -13.7454 43.0253 -17.3635 46.0254 -23.7518C48.9326 -29.9678 52.7562 -38.9143 56.9254 -49.1201C60.2448 -57.3377 64.0008 -64.0968 68.3522 -68.8668C72.7036 -73.6368 78.2601 -76.3115 83.5506 -77.4616L83.8158 -77.541C78.6976 -76.2979 72.1606 -74.4857 66.5102 -70.1937C60.6876 -65.9946 55.1158 -59.9924 50.5371 -52.1202C44.8038 -42.3131 42.9683 -32.5169 42.0492 -25.4512C40.9045 -18.1735 41.0742 -13.7454 41.0742 -13.7454Z" fill="url(#paint35_linear_1418_44367)" fill-opacity="0.2"/>
<path d="M81.4435 56.337C82.8638 57.6414 84.1905 58.8701 85.3481 60.1167C84.2083 59.0393 82.8727 57.726 81.4435 56.337Z" fill="#C4A767" fill-opacity="0.03"/>
<path d="M85.5442 60.3527C85.4507 60.277 85.4416 60.1923 85.3481 60.1167L85.5442 60.3527Z" fill="#C4A767" fill-opacity="0.03"/>
<path d="M96.208 100.71C94.6675 99.0764 92.9312 97.2066 91.0079 95.1854C83.1631 87.2876 71.8503 78.1301 58.6141 70.2013C47.9246 63.7149 38.7043 59.8107 31.2337 57.0907C23.9857 54.8604 18.1713 53.2489 13.8083 52.4253L13.6302 52.3586C18.0021 53.2667 23.6785 54.3796 30.8374 55.764C32.5826 56.0934 34.5994 56.5652 36.634 57.2063C38.6597 57.7627 40.8724 58.4706 43.1786 59.2541C47.7064 60.83 52.7951 62.86 58.2935 65.5311C71.819 72.1465 83.7908 82.6887 91.542 92.1357C93.4253 94.5888 95.2062 96.8815 96.6888 98.778C98.1135 100.937 99.3423 102.861 100.273 104.388C101.203 105.915 101.938 107.206 102.45 108.007C102.962 108.808 103.185 109.298 103.185 109.298C103.185 109.298 102.094 107.873 99.9389 105.278C98.9594 104.098 97.6727 102.438 96.208 100.71Z" fill="#C4A767" fill-opacity="0.03"/>
<path d="M106.244 135.917L106.373 136.331C106.355 136.162 106.244 135.917 106.226 135.748C106.235 135.832 106.235 135.832 106.244 135.917Z" fill="#C4A767" fill-opacity="0.03"/>
<path d="M103.719 130.623C102.669 128.767 101.458 127.013 100.22 125.005C97.611 121.346 94.6191 117.299 91.1197 113.305C89.3655 111.266 87.5179 109.152 85.5945 107.13C83.6623 105.025 81.5609 102.937 79.3571 100.688C75.0607 96.4369 70.1901 92.4168 64.9321 88.7796C51.8518 79.8936 40.3208 74.3511 32.0489 70.5181C23.7858 66.7697 18.7059 64.8242 18.7059 64.8242C18.7059 64.8242 19.908 64.8687 22.0761 65.1536C24.2443 65.4385 27.5566 66.0305 31.608 67.1434C39.8043 69.4449 51.6335 73.7587 65.1279 84.1405C70.5328 88.3609 75.3812 92.9821 79.7399 97.8258C84.0229 102.763 87.8295 107.237 91.2132 111.756C94.5879 116.19 97.513 120.415 100.149 124.328C102.112 127.543 103.955 130.428 105.3 133.45C105.3 133.45 105.291 133.366 105.206 133.375C104.761 132.395 104.249 131.594 103.719 130.623Z" fill="#C4A767" fill-opacity="0.03"/>
<path d="M106.141 135.757C105.892 135.013 105.558 134.278 105.224 133.544C105.642 134.27 105.976 135.004 106.141 135.757Z" fill="#C4A767" fill-opacity="0.03"/>
<path d="M102.532 191.643C102.559 191.897 102.586 192.151 102.537 192.498C102.51 192.244 102.559 191.897 102.532 191.643Z" fill="#C4A767" fill-opacity="0.03"/>
<path d="M102.577 193.691C102.617 193.259 102.581 192.921 102.537 192.498C102.563 192.752 102.59 193.006 102.532 193.268L102.577 193.691Z" fill="#C4A767" fill-opacity="0.03"/>
<path d="M97.1853 203.41C97.1497 203.072 97.1141 202.733 97.0784 202.395C97.123 202.818 97.1764 203.325 97.2209 203.748L97.1853 203.41Z" fill="#C4A767" fill-opacity="0.03"/>
<path d="M88.0328 236.703C88.242 236.253 88.3578 235.728 88.567 235.278C88.4335 235.634 88.3756 235.897 88.2421 236.253L88.0328 236.703Z" fill="#C4A767" fill-opacity="0.03"/>
<path d="M88.7318 234.405C88.6739 234.668 88.5314 234.94 88.4736 235.202C88.616 234.931 88.6739 234.668 88.7318 234.405Z" fill="#C4A767" fill-opacity="0.03"/>
<path d="M90.3209 219.442C90.1026 216.557 89.9512 213.494 89.4703 210.551C88.9894 207.609 88.4996 204.581 87.5869 201.598C84.4434 189.614 79.065 177.522 71.5942 165.052C67.0084 157.239 62.3781 150.628 58.242 144.648C54.0391 138.848 50.0856 133.79 46.8221 129.601C41.2168 122.665 37.477 118.012 36.404 116.757C36.551 117.34 36.7736 117.83 36.9205 118.413L36.9116 118.329C36.9116 118.329 36.9116 118.329 36.9205 118.413C38.7549 124.463 40.4869 130.353 42.0497 136.261C43.0782 140.344 44.0889 144.257 45.0151 148.179C46.3596 149.577 48.9819 152.551 52.5704 157.39C55.0681 160.805 57.9264 165.208 60.8159 170.72C63.7054 176.231 66.6262 182.851 68.9281 190.905C70.807 197.378 71.8489 204.025 72.3477 210.387C72.517 213.619 72.6862 216.851 72.4236 220.044C72.3302 223.218 71.8896 226.343 71.44 229.384C69.7618 240.251 65.4213 250.202 60.4575 257.481C65.3278 250.126 69.1875 240.483 70.5718 230.074C72.0585 218.2 70.8072 205.503 66.8668 193.26C64.5249 185.638 61.7066 179.178 58.9773 173.565C58.3184 172.18 57.6594 170.795 57.0094 169.495C56.3594 168.195 55.7182 166.98 55.0771 165.765C53.8038 163.418 52.6328 161.233 51.4886 159.3C49.2848 155.427 47.348 152.467 46.1014 150.374C45.6918 149.733 45.3846 149.252 45.0774 148.771C45.9857 152.524 46.8005 156.202 47.4462 159.897C48.1942 163.752 48.8398 167.448 49.392 171.067C49.6725 172.919 49.9441 174.687 50.2158 176.454C50.4028 178.23 50.6744 179.998 50.8525 181.69C51.1999 184.989 51.4537 188.212 51.6052 191.275C51.6052 191.275 51.6051 191.275 51.6141 191.36C51.7833 194.592 51.8502 197.664 51.8146 200.575C51.7257 206.229 51.4899 211.3 50.8177 215.476C50.653 216.349 50.564 217.128 50.475 217.907C50.4928 218.076 50.5106 218.245 50.4438 218.424C50.3815 219.456 50.3638 220.912 50.1367 222.818C49.9943 224.714 49.4646 226.994 48.7924 229.545C48.4096 230.783 47.9599 232.198 47.4257 233.623C46.8915 235.048 46.1035 236.499 45.409 238.026C44.857 239.282 44.118 240.386 43.3701 241.405C42.6311 242.509 42.0523 243.511 41.2955 244.446C39.7819 246.316 38.5131 248.075 37.0395 249.513C34.355 252.447 31.8262 254.423 30.2102 256.133L30.1345 256.226C31.7506 254.517 34.1012 252.473 36.3361 249.33C38.6733 246.347 40.9883 242.34 43.0628 237.674C45.6137 231.847 47.1184 226.642 48.4361 222.911C49.0103 221.055 49.451 219.554 49.8517 218.486C50.1678 217.426 50.3681 216.892 50.3681 216.892C50.3681 216.892 50.3948 217.146 50.4483 217.653C50.5462 216.959 50.6441 216.264 50.7421 215.57C51.1026 213.308 51.343 210.717 51.4809 207.966C51.423 208.228 51.3741 208.576 51.2494 209.016C50.9423 210.161 50.6796 211.728 50.0208 213.593C48.7965 217.4 46.6063 222.591 43.0937 227.408C41.589 229.362 40.3202 231.121 38.8466 232.559C38.1565 233.316 37.5422 233.979 36.8521 234.736C36.1532 235.408 35.5299 235.987 34.9066 236.566C33.7536 237.799 32.5649 238.694 31.6389 239.647C31.1759 240.123 30.7129 240.6 30.3345 241.067C29.9472 241.45 29.6533 241.909 29.4352 242.274C29.6533 241.909 29.8715 241.544 30.1742 241.17C30.5526 240.702 30.9221 240.15 31.3851 239.674C32.3022 238.636 33.3796 237.497 34.4303 236.103C34.96 235.449 35.5655 234.701 36.1709 233.953C36.6829 233.129 37.2795 232.297 37.876 231.464C38.5572 230.622 39.0513 229.63 39.639 228.713C40.2177 227.711 40.9656 226.691 41.4509 225.614C44.5627 220.24 46.8064 215.557 48.6183 212.458C49.9673 209.836 51.0758 208.179 51.3607 207.636C51.4764 205.486 51.4986 203.26 51.503 200.865C51.5652 198.207 51.4494 195.482 51.3158 192.588C51.2668 192.936 51.2179 193.283 51.1778 193.715C50.982 195.104 50.519 197.205 49.9225 199.663C48.6449 204.587 46.4457 211.318 42.5192 217.89C39.3984 223.179 36.2197 227.105 33.4506 230.048C31.238 232.59 29.1145 234.354 27.6676 236.045C29.1145 234.354 30.9486 232.279 32.8808 229.51C35.3427 226.086 38.2141 221.678 40.8585 215.926C44.1306 208.825 46.6458 202.659 48.4933 198.274C49.4638 196.119 50.1405 194.423 50.7014 193.252C50.9774 192.624 51.1867 192.174 51.3291 191.903C51.1688 188.755 50.906 185.447 50.4563 181.988C50.2782 180.296 50.0066 178.529 49.8195 176.752C49.5479 174.985 49.2763 173.218 48.9958 171.365C48.4436 167.746 47.7891 163.966 47.0499 160.195C46.1995 156.18 45.3312 151.995 44.2938 147.828C44.089 147.507 43.9955 147.431 43.9955 147.431C43.9955 147.431 44.089 147.507 44.1914 147.667C43.292 143.999 42.3926 140.33 41.3997 136.586C41.1237 135.589 40.8387 134.507 40.5626 133.51C40.4914 134.458 39.8816 139.226 38.5907 146.461C37.0416 154.492 34.433 165.458 29.9723 176.704C26.3886 185.719 22.7693 192.772 19.6485 198.061C18.0458 200.71 16.6613 202.994 15.4949 204.912C15.2011 205.371 14.9162 205.914 14.7069 206.364C14.4131 206.822 14.195 207.187 13.9857 207.637C13.8344 207.824 13.7765 208.087 13.7097 208.265C13.7765 208.087 13.8433 207.909 13.9101 207.731C14.3374 206.916 14.8405 206.008 15.3257 204.93C16.3986 202.936 17.6808 200.492 19.0965 197.691C21.8343 192.015 24.9595 184.33 28.0579 174.767C31.8552 162.907 34.8467 152.329 37.1527 144.987C39.1826 138.274 40.5404 134.111 40.7318 133.492C39.4896 129.004 38.1628 124.526 36.7425 119.971C36.2795 122.073 35.2111 126.547 33.4482 132.548C32.8161 134.668 32.1172 136.965 31.3604 139.525C30.5947 142 29.7623 144.654 28.863 147.485C28.3288 148.91 28.0484 150.308 27.5987 151.724C27.2515 153.3 26.8286 154.969 26.3211 156.648C25.8047 158.241 25.3729 159.826 24.8654 161.505C24.349 163.099 23.7569 164.786 23.2494 166.464C19.5901 177.198 15.953 185.706 13.0682 192.425C10.602 198.243 8.58529 202.647 8.15352 205.856C8.58529 202.647 10.2547 198.194 12.3559 192.157C14.8667 185.136 17.925 176.005 21.0902 164.639C22.0873 161.113 22.9331 157.774 23.8724 154.511C24.3042 152.926 24.6515 151.35 25.0833 149.765C25.5997 148.171 25.9291 146.426 26.4722 145.086C28.4399 139.405 30.2606 134.766 31.8143 130.839C33.368 126.912 34.6724 123.867 35.5672 121.806C35.9767 120.822 36.3284 120.1 36.5287 119.566C35.7451 116.997 34.9615 114.429 34.0933 111.869C33.0692 108.641 31.9606 105.422 30.852 102.203C30.8475 102.974 30.7274 104.269 30.5582 105.912C30.3535 108.841 29.9529 113.16 29.2185 118.369C28.8935 120.969 28.3326 123.765 27.7139 126.823C27.3577 128.315 27.0105 129.891 26.6633 131.467C26.2226 132.967 25.7908 134.552 25.2744 136.146C24.3173 139.24 23.2934 142.512 22.1092 145.887C21.0853 149.159 20.0214 152.863 18.9574 156.568C15.4406 168.655 12.4135 178.895 9.55099 186.637C6.8666 194.446 4.35577 199.842 3.97744 203.559C4.35577 199.842 6.43475 194.406 8.66058 186.303C10.971 178.191 13.3437 167.422 16.1615 154.382C17.1052 150.348 17.8976 146.502 19.055 142.873C20.2303 139.414 21.2453 136.057 22.2113 133.047C22.7366 131.538 23.1773 130.038 23.7115 128.613C24.1522 127.113 24.5173 125.706 24.8823 124.299C25.6213 121.57 26.3781 119.01 26.89 116.561C28.7953 108.663 30.1308 103.477 30.5537 101.807C30.2019 100.903 29.9348 99.9907 29.5831 99.0869C28.1138 94.8798 26.6356 90.588 25.0817 86.3898C24.9615 86.0603 24.8413 85.7309 24.7211 85.4015C24.6321 86.1806 24.5119 87.4761 24.3427 89.1189C23.9777 92.1508 23.5015 96.5628 22.6157 101.959C21.8144 107.346 20.6971 113.792 19.0322 120.724C18.2042 124.232 17.3006 127.834 16.2366 131.538C15.1638 135.158 14.3046 139.182 13.2763 143.225C10.0533 156.479 6.92825 167.413 4.05244 175.841C2.67685 179.834 1.35914 183.565 0.174976 186.94C-0.341423 188.534 -0.782139 190.034 -1.24067 191.365C-1.43209 191.984 -1.53892 192.594 -1.64576 193.204C-1.6146 192.688 -1.49886 192.162 -1.39203 191.552C-1.01809 190.23 -0.661964 188.739 -0.154472 187.06C0.793736 183.881 1.92447 179.999 3.07743 175.516C5.39228 166.634 7.85398 155.085 10.3201 141.141C11.1525 136.863 11.9003 132.593 12.9554 128.805C13.9258 125.025 14.9141 121.414 15.7599 118.075C17.5183 111.219 19.1031 105.151 20.3718 100.142C22.4463 92.2265 23.942 86.9374 24.5163 85.0809C23.0915 81.2967 21.6668 77.5125 20.2509 73.8129C19.2803 71.0927 18.1405 68.3903 17.0942 65.7636C16.658 68.1188 15.5674 73.1942 13.6487 80.1528C12.2687 84.9165 10.5548 90.5706 8.28439 96.6255C7.14919 99.6529 5.94722 102.858 4.57607 106.082C3.8059 107.702 3.19601 109.22 2.62174 111.077C2.03857 112.849 1.4643 114.705 0.805439 116.571C-3.04974 128.694 -6.32174 139.045 -9.19756 147.473C-10.631 151.729 -11.7706 155.527 -12.7856 158.883C-13.7071 162.316 -14.6731 165.326 -14.5484 168.135L-14.5217 168.389C-14.731 165.588 -13.8585 162.503 -13.1151 159.004C-12.2114 155.402 -11.2588 151.453 -10.0969 147.054C-7.79094 138.088 -5.26689 127.131 -2.11071 114.055C-1.63884 112.039 -1.15807 110.107 -0.592712 108.165C-0.0273476 106.224 0.631508 104.359 1.23249 102.756C2.59474 99.4482 3.80562 96.3273 5.03431 93.3755C7.40711 87.481 9.58849 82.2052 11.3603 77.9134C13.1321 73.6216 14.6546 70.2113 15.6073 67.8873C16.0925 66.8099 16.511 65.9106 16.787 65.2828C16.3062 63.965 15.7407 62.6562 15.2599 61.3384C14.9081 60.4346 14.5564 59.5308 14.2893 58.6182C14.08 59.0678 13.5948 60.1452 12.8246 61.7658C11.7874 64.0987 10.3405 67.4155 8.54199 71.4536C5.02953 79.5208 0.0791245 90.9894 -5.76608 104.519C-13.717 123.231 -17.7813 139.054 -19.4417 150.091C-19.2547 148.617 -19.1523 147.152 -18.8986 145.501C-18.2487 141.926 -17.8392 137.692 -16.8554 133.226C-15.1594 124.153 -12.5241 113.441 -8.63327 101.657C-3.74973 87.1162 1.93082 76.0839 6.39605 68.9427C8.67095 65.3676 10.6031 62.5984 12.041 60.822C13.1006 59.5131 13.7906 58.7562 14.1023 58.4668C13.0293 55.5864 12.0497 52.7816 11.1548 49.9679C10.8699 50.5111 10.4425 51.3258 9.94837 52.3186C8.89329 54.4824 7.33515 57.5543 5.42531 61.3475C4.43701 63.3331 3.38192 65.4969 2.26006 67.8387C1.1382 70.1805 -0.0771523 72.4466 -1.44387 74.8997C-4.09272 79.797 -7.20457 85.1707 -10.5435 90.8249C-11.928 93.1089 -13.0499 95.4507 -14.1984 97.5387C-15.3292 99.7959 -16.3843 101.96 -17.3548 104.114C-19.3893 108.348 -21.0186 112.369 -22.412 116.193C-25.1231 123.748 -26.7034 130.671 -26.0132 136.414L-25.9865 136.668C-26.6767 130.925 -25.555 123.708 -23.3291 115.605C-22.2251 111.469 -20.8006 107.129 -19.1579 102.423C-18.2898 100.108 -17.4395 97.6234 -16.5047 95.1302C-15.4763 92.7127 -14.3811 90.1171 -13.286 87.5215C-10.3478 81.3109 -7.33836 75.7769 -4.50252 71.031C-1.72012 65.7775 1.01779 61.726 3.41291 58.4804C5.80803 55.2348 7.86928 52.8796 9.24937 51.3659C9.93942 50.609 10.5627 50.0303 10.95 49.6474C10.9322 49.4782 10.8298 49.3179 10.8031 49.0642C10.2065 46.6467 9.53413 44.3228 8.86182 41.9988C8.55909 42.3728 8.18067 42.8403 7.72658 43.4012C6.36429 45.0841 4.31196 47.5239 1.91684 50.7695C-0.562878 54.024 -3.23401 57.8974 -6.16335 62.5677C-7.62356 64.9451 -9.15945 67.416 -10.6686 70.1407C-11.4655 71.5075 -12.1689 72.95 -12.9569 74.4014C-13.7538 75.7682 -14.5596 77.0504 -15.441 78.4261C-20.7699 87.1122 -24.7899 95.2328 -27.3319 102.77C-29.1793 110.405 -30.1496 117.435 -29.9091 122.969L-29.8824 123.223C-30.1229 117.689 -29.6022 110.45 -27.6391 102.289C-26.7042 98.1712 -25.2797 93.8304 -23.7038 89.3026C-22.8268 87.0721 -21.9587 84.757 -20.9303 82.3396C-20.454 81.1776 -19.893 80.0067 -19.341 78.7512C-19.065 78.1234 -18.7801 77.5803 -18.513 76.8679C-18.2459 76.1556 -17.9788 75.4433 -17.7117 74.7309C-14.9471 67.6833 -11.7685 62.1315 -8.63435 57.7818C-5.33994 53.3296 -2.00544 50.0706 0.808193 47.5507C3.63073 45.1154 6.01699 43.4102 7.70429 42.3773C8.34538 41.9677 8.82619 41.6605 9.23132 41.4468C8.81725 39.9509 8.39426 38.3704 8.06477 36.8656C8.02914 36.5273 7.90003 36.1132 7.8644 35.7749C7.46818 36.0732 6.836 36.5674 5.96786 37.2575C5.17542 37.854 4.2316 38.6376 3.11861 39.439C2.01452 40.325 0.834755 41.3045 -0.505283 42.3864C-3.16755 44.7193 -6.37741 47.5375 -9.86328 50.9835C-11.5639 52.702 -13.4159 54.6076 -15.2501 56.6823C-16.1672 57.7196 -17.0754 58.8416 -18.0682 59.9724C-18.9764 61.0943 -19.8846 62.2163 -20.7839 63.4228C-23.7088 67.3229 -26.0994 71.4233 -28.1428 75.5726C-29.1222 77.6429 -30.0081 79.7888 -30.7159 82.0014C-31.5529 83.8001 -32.4076 85.4296 -33.0843 87.1258C-35.8934 93.7505 -37.3846 99.8944 -37.9766 104.832L-38.0345 105.094C-37.5271 100.166 -36.4009 93.804 -34.0949 86.4625C-33.761 85.5721 -33.5206 84.606 -33.1868 83.7155C-32.9775 83.2659 -32.8707 82.656 -32.7639 82.046C-32.657 81.4361 -32.4656 80.8172 -32.3588 80.2073C-31.7623 77.7498 -31.0812 75.2833 -30.222 72.8836C-28.5125 67.9997 -26.5225 63.3428 -23.5086 58.6636C-16.1452 47.3686 -7.96247 42.2307 -1.70742 39.0919C3.18087 36.7812 6.68016 35.8996 7.93118 35.5968C7.59278 34.0074 7.34789 32.4937 7.00949 30.9044C6.62657 28.892 6.16795 26.9732 6.0388 24.9342C5.83395 22.9886 5.62911 21.0431 5.33968 19.1065C5.24171 18.176 5.13484 17.1609 5.03687 16.2304C4.9389 15.3 4.92553 14.3606 4.91215 13.4212C4.77404 9.67258 4.56025 6.01746 4.70263 2.49588C4.76937 0.692802 4.84501 -1.02569 4.83607 -2.73528C4.91171 -4.45377 5.16543 -6.10549 5.33456 -7.74829C6.70548 -20.7216 9.79939 -31.1395 12.5907 -37.9334C14.0286 -41.3348 15.2083 -43.9392 16.1388 -45.6622C17.0692 -47.3852 17.5901 -48.1242 17.5901 -48.1242C17.9596 -48.6763 18.6852 -49.0948 18.9746 -48.7832C19.1616 -48.6318 19.1973 -48.2934 19.1483 -47.9462C19.175 -47.6924 19.0415 -47.3363 18.899 -47.0647C18.899 -47.0647 18.7476 -46.8777 18.5295 -46.5126C18.3203 -46.0629 17.9507 -45.5109 17.5234 -44.6962C17.096 -43.8814 16.6107 -42.804 15.9652 -41.6242C15.4132 -40.3687 14.7187 -38.8416 14.0331 -37.23C11.3176 -30.5296 8.19692 -20.3655 6.8082 -7.56134C6.63015 -6.00312 6.37643 -4.35141 6.30079 -2.63292C6.22515 -0.914425 6.14059 0.719479 6.07386 2.52256C5.94925 4.58831 6.00274 6.72085 6.06512 8.93797C6.30107 8.74207 6.62161 8.53727 6.94215 8.33247C8.36678 7.24168 10.4592 5.99505 13.3218 4.75286C18.9714 2.36197 27.1365 0.304924 36.6104 0.93243C38.4981 0.990261 40.3012 1.057 42.1043 1.12373C43.8317 1.28397 45.4834 1.53769 47.1262 1.70683C50.3361 2.1386 53.2656 2.34332 55.8745 2.75285C61.0166 3.66539 65.2683 4.24405 68.4516 4.42205L68.6207 4.40424C65.4286 4.14165 61.2214 3.98593 55.9725 3.68332C53.3146 3.62106 50.4297 3.83928 47.2642 3.83045C45.6482 3.91508 44.0232 3.91512 42.2379 4.01756C40.5461 4.19569 38.6852 4.39162 36.8242 4.58756C27.5284 5.65182 19.6305 6.99654 13.923 8.02511C11.0826 8.66627 8.81648 9.07591 7.23602 9.49889C6.82198 9.62801 6.39904 9.67255 6.15417 9.78385C6.19427 10.977 6.24328 12.2547 6.29229 13.5325C6.30566 14.4719 6.31904 15.4112 6.41701 16.3417C6.51498 17.2722 6.61295 18.2027 6.71982 19.2177C6.87122 20.6557 7.03153 22.1783 7.19185 23.7009C8.10894 22.6636 10.7534 20.1615 15.0318 17.7439C17.7831 16.2568 21.1354 14.792 25.1423 13.857C29.1491 12.922 33.6412 12.5345 38.5518 12.8728C46.4765 13.4068 53.1368 14.9293 58.408 16.2559C60.9769 17.0972 63.519 17.6848 65.6382 18.317C67.7663 19.0337 69.5382 19.6169 71.1232 20.0487L71.3013 20.1155C69.7163 19.6836 67.8687 19.194 65.7584 18.6464C63.657 18.1834 61.1327 17.765 58.4303 17.2798C53.1368 16.5543 46.5834 16.0469 38.9526 16.6793C29.5365 17.4141 21.6075 19.2752 15.8777 20.9048C11.399 22.2317 8.36719 23.4917 7.30315 23.9458C7.33878 24.2841 7.3744 24.6225 7.41894 25.0454C7.53918 26.9999 7.9978 28.9187 8.38072 30.931C8.54546 31.6834 8.62563 32.4447 8.79037 33.1971C11.8711 31.5899 16.0605 29.9514 21.4118 28.7893C27.1015 27.5915 34.2248 27.0126 42.7594 27.6535C47.9327 28.0496 53.0748 28.9621 57.4645 30.0394C61.9389 31.1078 65.5762 32.3498 68.9509 33.534C69.7478 33.7922 70.5448 34.0504 71.2571 34.3175C71.9694 34.5846 72.6818 34.8517 73.3095 35.1277C74.5561 35.5952 75.5489 36.0893 76.4393 36.4232C78.1356 37.0999 79.026 37.4337 79.0438 37.6029C79.0438 37.6029 78.6787 37.3848 78.2469 37.3447C77.815 37.3047 77.1205 37.2067 76.2568 37.1266C75.3842 36.9619 74.3424 36.815 73.038 36.6103C72.428 36.5034 71.7246 36.3209 71.0301 36.223C70.3356 36.1251 69.5564 36.036 68.7684 35.8624C65.4561 35.2704 61.5338 34.5715 57.2643 33.8237C52.9948 33.0758 48.1999 32.2122 42.9064 31.4867C38.6457 30.8234 34.8437 30.454 31.3132 30.227C27.7827 30.0001 24.6173 29.9912 21.7324 30.2095C16.1317 30.6281 11.7955 31.6833 8.71468 33.2906C8.93287 34.5505 9.14214 35.7259 9.36032 36.9858C9.52506 37.7382 9.68091 38.406 9.84565 39.1584C10.8162 38.6286 14.0839 37.1727 19.3774 36.2732C22.574 35.7656 26.5496 35.347 31.1041 35.5517C33.4147 35.565 35.8455 35.9077 38.3431 36.0724C39.6387 36.1926 40.8675 36.4908 42.2565 36.6867C43.561 36.8915 44.8654 37.0962 46.2812 37.5458C48.3914 38.0934 50.5863 38.632 52.6966 39.1796C54.8069 39.7271 56.748 40.2925 58.6134 40.9514C60.4699 41.5256 62.2508 42.1934 63.8535 42.7944C64.3032 43.0036 64.6505 43.0526 65.109 43.3464C65.5676 43.6402 66.0262 43.9341 66.4847 44.2279C67.4019 44.8155 68.3279 45.4878 69.1605 46.0843C70.9013 47.1839 72.5085 48.6397 74.0979 49.9263C75.6027 51.2218 77.0897 52.3482 78.4165 53.5769C79.5562 54.6543 80.5179 55.6648 81.5641 56.6665C78.1627 53.6036 74.1602 50.5184 69.4143 47.6826C67.6824 46.6676 65.8748 45.746 64.0673 44.8245L62.6248 44.1211C62.1841 43.9965 61.7433 43.8718 61.3114 43.8318C60.4388 43.6671 59.5573 43.4178 58.6847 43.2531C55.0162 42.5275 51.0094 41.8375 46.6819 41.3523C45.2929 41.1565 43.9974 41.0363 42.7107 41.0007C41.4152 40.8805 40.2042 40.7515 38.9087 40.6313C36.5045 40.5423 34.1583 40.1907 31.9323 40.1684C27.5292 39.7768 23.5936 39.7635 20.2412 39.6033C14.7563 39.4966 11.0744 39.4566 9.96586 39.4878C10.1217 40.1556 10.2686 40.7389 10.4245 41.4067C10.5091 41.3978 10.5091 41.3978 10.5091 41.3978C10.5091 41.3978 10.5091 41.3978 10.4334 41.4912C10.892 43.4101 11.4263 45.2354 11.9695 47.1453C13.7636 47.1275 15.9051 47.1586 18.3003 47.163C20.7801 47.1584 23.6071 47.2029 26.7814 47.2963C33.1301 47.4831 40.8677 47.8658 49.9633 48.9608C50.3106 49.0098 50.6578 49.0587 51.0051 49.1077L52.1493 49.4149C52.8527 49.5974 53.6496 49.8556 54.362 50.1227C55.8712 50.648 57.2959 51.1822 58.7205 51.7164C61.5788 52.8694 64.3703 54.2005 67.0015 55.634C72.2638 58.501 76.9787 61.8533 80.7452 65.1343C82.6329 66.8172 84.4093 68.2551 85.8473 69.7287C87.2943 71.2869 88.5453 72.6091 89.6005 73.6954C91.6351 75.9615 92.7081 77.2169 92.7081 77.2169C92.7081 77.2169 91.5951 76.3933 89.5471 74.8129C88.5186 73.9804 87.2275 73.09 85.8162 71.8702C84.3381 70.8284 82.6819 69.7199 80.7541 68.4689C73.3057 63.5229 62.8166 58.1273 50.8004 53.6622C49.5538 53.1947 48.4007 52.803 47.2476 52.4112C45.8897 51.6989 44.7277 51.2226 43.7706 51.0668C41.6781 50.6884 39.6702 50.3011 37.7469 49.9049C33.9092 49.1972 30.3431 48.6318 27.1243 48.1155C20.6198 47.2608 15.6825 46.6688 12.0095 46.7135L11.9249 46.7224C12.0897 47.4748 12.3301 48.1337 12.4949 48.886C13.6926 52.9507 15.2286 56.9798 16.6801 61.0178C18.225 65.1314 19.8546 69.2362 21.4085 73.4344C22.103 75.1573 22.7219 76.9738 23.4165 78.6967C23.9418 78.8124 24.9836 78.9593 26.4839 79.4C28.7723 80.0144 32.1381 81.1139 36.4388 82.9703C44.9557 86.692 57.1812 93.9575 70.2661 106.948C80.7999 117.642 89.0498 128.576 95.4254 138.766C101.801 148.957 106.218 158.413 109.463 165.683L109.584 166.013C106.414 158.649 101.703 149.652 95.1538 140.249C88.5957 130.762 80.1143 120.878 69.6117 111.293C56.6693 99.6561 44.938 91.3979 36.5235 86.2114C29.7474 81.9643 25.1394 79.6271 23.5189 78.857C24.3693 81.2477 25.3042 83.6295 26.1457 85.9357C27.2277 88.9007 28.225 91.8746 29.3069 94.8397C30.1973 95.1736 34.6851 97.1813 41.8084 101.477C45.7397 103.886 50.4366 107.069 55.6724 111.307C60.8235 115.554 66.727 121.262 72.3012 128.714C81.3258 140.508 88.2089 152.27 93.3602 163.017C95.8936 168.395 97.9862 173.648 99.6202 178.608C100.479 181.083 101.085 183.585 101.673 185.918C101.984 187.254 102.287 188.505 102.43 189.858C102.22 188.683 102.011 187.507 101.717 186.341C101.13 184.008 100.439 181.515 99.5979 179.209C97.8972 174.427 95.671 169.53 92.9952 164.424C87.6525 154.295 80.3687 143.602 71.2729 132.757C65.5919 125.914 60.2404 120.576 55.1471 116.066C50.0539 111.557 45.5483 107.755 41.6304 104.661C37.7971 101.558 34.7118 99.0601 32.5703 97.404C30.8963 96.1263 29.8679 95.2938 29.485 94.9065C29.8724 96.1486 30.3443 97.3818 30.7317 98.6239C31.6088 101.268 32.477 103.828 33.3541 106.473C34.8055 107.261 38.6521 109.678 44.3108 113.872C51.3897 119.37 61.4293 127.806 71.5981 141.532C79.7723 152.559 85.8986 163.631 90.1773 174.214C94.2422 184.391 96.3839 194.172 97.3324 202.368C96.3928 194.257 94.0419 184.925 89.6431 175.638C85.1062 165.853 78.7395 155.747 70.4095 145.677C60.1294 133.331 50.6507 123.724 43.8612 116.913C38.7056 111.811 35.0816 108.258 33.5678 106.878C34.0665 108.365 34.5652 109.852 34.9792 111.348C35.5046 113.088 36.0389 114.914 36.6489 116.646C37.0229 116.948 38.0513 117.781 39.4626 119.001C41.4349 120.675 44.36 123.275 47.806 126.76C51.3454 130.322 55.4058 134.769 59.9292 140.366C64.3013 146.149 69.1186 152.911 73.5797 161.165C80.7924 174.432 85.9214 187.405 88.6286 200.12C88.967 201.71 89.2965 203.214 89.5503 204.813C89.8041 206.411 89.9733 208.018 90.2182 209.532C90.708 212.559 90.6992 215.725 90.8417 218.703C90.8997 221.69 90.7128 224.789 90.4146 227.643C90.2454 229.286 89.8982 230.862 89.551 232.438C89.8314 231.04 90.103 229.557 90.2988 228.168C90.2587 225.35 90.4634 222.421 90.3209 219.442Z" fill="#C4A767" fill-opacity="0.03"/>
<path d="M89.1816 232.99C89.0659 233.515 88.9412 233.956 88.8166 234.397C88.9412 233.956 89.057 233.43 89.1816 232.99Z" fill="#C4A767" fill-opacity="0.03"/>
<path d="M89.3059 232.549C89.2392 232.727 89.2484 232.812 89.1816 232.99C89.1638 232.821 89.2302 232.642 89.3059 232.549Z" fill="#C4A767" fill-opacity="0.03"/>
<path d="M81.1718 227.59C81.2297 227.327 81.2875 227.064 81.3454 226.802C81.2964 227.149 81.2386 227.412 81.1718 227.59Z" fill="#C4A767" fill-opacity="0.03"/>
<path d="M80.6646 229.268C80.7225 229.005 80.865 228.734 80.9139 228.387C80.8471 228.565 80.7804 228.743 80.7982 228.912L80.6646 229.268Z" fill="#C4A767" fill-opacity="0.03"/>
<path d="M81.5458 226.267C81.479 226.445 81.4122 226.623 81.43 226.793C81.4879 226.53 81.5547 226.352 81.6126 226.089C81.5369 226.183 81.5458 226.267 81.5458 226.267Z" fill="#C4A767" fill-opacity="0.03"/>
<path d="M80.9139 228.387C80.9718 228.124 81.1139 227.852 81.1718 227.59C81.1139 227.852 81.0564 228.115 80.9139 228.387Z" fill="#C4A767" fill-opacity="0.03"/>
<path d="M82.1556 216.624C82.0086 214.416 81.9373 212.114 81.6123 209.839C81.2872 207.564 80.8686 205.214 80.3655 202.872C79.7778 200.539 79.1901 198.206 78.4242 195.806C77.5827 193.5 76.7323 191.11 75.7217 188.821C74.6264 186.542 73.5312 184.262 72.2578 181.916C70.9845 179.57 69.6265 177.233 68.2597 174.811C61.1985 162.982 54.5291 153.25 49.7696 146.225C45.0191 139.284 42.0094 135.068 42.0094 135.068C42.0094 135.068 42.8598 135.834 44.2978 137.307C45.7448 138.866 47.9397 141.029 50.4864 144.097C55.6553 150.138 62.7521 159.055 69.5641 171.766C70.9487 174.357 72.2399 176.872 73.353 179.321C74.5506 181.76 75.588 184.302 76.6165 186.76C78.5978 191.768 79.9113 196.933 80.8597 201.879C81.7235 206.834 82.2311 211.656 82.2802 216.183C82.3426 218.401 82.1601 220.729 81.9509 222.804C81.804 223.845 81.6572 224.887 81.5103 225.929C81.5192 226.014 81.4435 226.107 81.4524 226.192C81.6082 225.234 81.7551 224.193 81.902 223.151C82.1112 221.076 82.2936 218.748 82.1556 216.624Z" fill="#C4A767" fill-opacity="0.03"/>
<path d="M58.5518 260.504C59.2241 259.578 59.8963 258.652 60.5686 257.726C59.8295 258.83 59.0905 259.934 58.3337 260.869L58.5518 260.504Z" fill="#C4A767" fill-opacity="0.03"/>
<path d="M64.3967 229.099C64.5836 227.626 64.6014 226.17 64.6948 224.62C64.7883 223.071 64.8818 221.522 64.7971 219.906C64.9661 213.388 64.0266 206.901 62.8823 200.094C60.8029 189.28 57.7976 181.044 55.0638 174.575C54.3871 173.021 53.6258 171.477 53.0514 170.083C52.3925 168.699 51.7424 167.399 51.1013 166.183C49.828 163.837 48.6748 161.82 47.5662 160.226L47.4638 160.066C49.5208 163.356 52.3702 167.675 55.4823 173.676C58.5944 179.677 62.2231 187.335 64.9613 197.908C66.5954 204.493 67.5616 211.233 67.4193 218.005C67.4373 224.674 66.4803 231.018 64.9356 236.654C64.4859 238.07 64.0274 239.401 63.6446 240.639C63.2617 241.877 62.7943 243.123 62.309 244.201C61.3475 246.44 60.5194 248.323 59.6558 249.868C57.9284 252.958 56.9045 254.605 56.9045 254.605C56.9045 254.605 57.5901 252.993 58.988 250.024C59.6913 248.581 60.2656 246.725 60.9823 244.597C61.7837 242.46 62.3045 240.096 62.9678 237.46C63.1503 236.757 63.3417 236.138 63.4397 235.443C63.5376 234.749 63.6355 234.054 63.818 233.351C64.0228 232.046 64.2097 230.573 64.3967 229.099Z" fill="#C4A767" fill-opacity="0.03"/>
<path d="M53.3858 187.068C52.9717 185.572 52.669 184.321 52.3751 183.154C52.0812 181.988 51.7206 181 51.5558 180.247C51.1329 178.667 50.8657 177.754 50.8657 177.754C50.8657 177.754 51.2753 178.395 52.0099 179.686C52.7446 180.977 53.8042 182.918 54.8505 185.545C57.1123 190.781 59.9039 198.612 60.7055 209.475C61.3691 218.214 60.5145 226.344 58.7739 233.369C56.9487 240.403 54.2109 246.08 51.8291 250.265L51.6778 250.452C52.8263 248.364 54.1931 245.91 55.1769 243.07C55.7111 241.645 56.2453 240.221 56.6771 238.636C57.1089 237.051 57.4562 235.475 57.8791 233.805C59.1388 227.087 59.4369 219.358 58.4128 211.256C57.0057 201.141 54.9486 192.976 53.3858 187.068Z" fill="#C4A767" fill-opacity="0.03"/>
<path d="M52.7407 202.873C52.5759 200.495 52.2865 198.558 52.1529 197.29C52.0104 195.936 51.9392 195.26 51.9392 195.26C51.9392 195.26 53.0166 197.37 54.3256 201.679C55.4566 205.922 56.8369 212.533 55.8665 221.188C55.6217 222.924 55.4615 224.652 55.1143 226.228C54.7759 227.889 54.4287 229.465 53.988 230.965C53.5473 232.465 53.022 233.974 52.5634 235.306C52.1138 236.721 51.5707 238.062 51.0187 239.317C50.3821 240.581 49.9057 241.743 49.2602 242.923C48.6058 244.018 48.027 245.02 47.4483 246.022C46.3754 248.016 45.0888 249.606 44.1227 250.99L44.0471 251.084C45.0131 249.699 46.2062 248.034 47.1945 246.049C47.6887 245.056 48.2674 244.054 48.7527 242.977C49.3225 241.89 49.7054 240.653 50.1817 239.491C51.1255 237.082 51.6953 234.371 52.4164 231.472C52.8838 228.601 53.3245 225.476 53.4179 222.301C53.6804 214.234 53.2395 207.609 52.7407 202.873Z" fill="#C4A767" fill-opacity="0.03"/>
<path d="M26.9285 237.149C27.0042 237.056 27.0797 236.962 27.1554 236.869C27.0797 236.962 27.0888 237.047 26.9285 237.149Z" fill="#C4A767" fill-opacity="0.03"/>
<path d="M47.1085 185.933C48.0522 183.524 48.7868 181.565 49.2453 180.234C49.7884 178.894 50.0555 178.181 50.0555 178.181C50.0555 178.181 49.9754 179.045 49.7128 180.612C49.5347 182.171 49.0896 184.441 48.5287 187.237C47.3134 192.753 45.0341 200.348 40.609 207.058C37.1677 212.552 33.3924 215.686 30.5966 218.375C29.0963 219.559 28.0634 221.122 26.8837 222.102C26.4385 222.747 25.9844 223.308 25.5214 223.784C25.0584 224.261 24.5954 224.737 24.2927 225.111L24.217 225.205C24.6043 224.822 24.9827 224.354 25.4368 223.793C25.8909 223.232 26.2515 222.596 26.6967 221.95C27.1419 221.305 27.7651 220.726 28.2771 219.902C28.7891 219.079 29.4035 218.415 30.1692 217.565C32.8181 214.292 36.1748 210.432 39.064 204.569C42.6923 197.601 45.399 190.816 47.1085 185.933Z" fill="#C4A767" fill-opacity="0.03"/>
<path d="M35.4488 194.601C38.979 185.078 41.6678 176.499 43.5999 170.48C45.5319 164.46 46.6983 160.917 46.6983 160.917C46.6983 160.917 46.5514 161.958 46.409 163.855C46.182 165.76 45.7813 168.454 45.1047 171.775C43.836 178.409 41.5479 187.544 37.2697 196.462C33.8373 203.665 30.3693 208.906 27.2663 212.739C24.1634 216.572 21.4922 218.82 19.8939 220.699L19.8183 220.793C21.4165 218.914 23.8918 216.43 26.6965 212.2C29.519 208.14 32.5774 202.259 35.4488 194.601Z" fill="#C4A767" fill-opacity="0.03"/>
<path d="M42.1125 159.603C40.6702 167.025 37.9814 177.229 33.5074 187.536C29.9281 195.781 26.2197 201.987 23.0277 206.6C19.9203 211.203 17.1423 214.061 16.0294 216.488L15.9537 216.581C17.0755 214.239 19.6665 211.23 22.4668 206.145C25.2759 201.146 28.499 194.392 31.5929 185.599C35.4125 174.763 38.3996 164.955 40.5988 158.223C42.7044 151.416 44.1646 147.414 44.1646 147.414C44.1646 147.414 44.0355 148.624 43.7417 150.708C43.3634 152.801 42.8381 155.935 42.1125 159.603Z" fill="#C4A767" fill-opacity="0.03"/>
<path d="M13.6253 208.274C13.4918 208.63 13.3493 208.902 13.3003 209.249C13.4339 208.893 13.4829 208.545 13.6253 208.274Z" fill="#C4A767" fill-opacity="0.03"/>
<path d="M13.6918 208.096C13.6918 208.096 13.7007 208.18 13.6161 208.189C13.7007 208.18 13.7007 208.18 13.6918 208.096Z" fill="#C4A767" fill-opacity="0.03"/>
<path d="M13.1087 209.868C13.1755 209.69 13.2333 209.427 13.2912 209.164C13.2333 209.427 13.0909 209.698 13.033 209.961L13.1087 209.868Z" fill="#C4A767" fill-opacity="0.03"/>
<path d="M8.02459 207.067C8.01569 206.983 8.00678 206.898 8.00678 206.898C8.01569 206.983 7.94891 207.161 7.95782 207.246L8.02459 207.067Z" fill="#C4A767" fill-opacity="0.03"/>
<path d="M8.0601 205.781C8.01114 206.128 7.97116 206.56 8.00678 206.898C8.04684 206.466 8.01114 206.128 8.0601 205.781Z" fill="#C4A767" fill-opacity="0.03"/>
<path d="M4.21334 203.363C4.22225 203.448 4.22225 203.448 4.14656 203.542L4.21334 203.363Z" fill="#C4A767" fill-opacity="0.03"/>
<path d="M-1.32082 193.854C-1.30301 194.023 -1.37869 194.117 -1.36088 194.286C-1.37869 194.117 -1.39651 193.947 -1.32082 193.854Z" fill="#C4A767" fill-opacity="0.03"/>
<path d="M-1.35646 193.516L-1.36536 193.431C-1.34755 193.6 -1.42323 193.694 -1.40542 193.863C-1.33864 193.685 -1.34755 193.6 -1.35646 193.516Z" fill="#C4A767" fill-opacity="0.03"/>
<path d="M-1.31623 193.084C-1.30733 193.168 -1.38301 193.262 -1.3741 193.346C-1.28951 193.338 -1.29842 193.253 -1.31623 193.084Z" fill="#C4A767" fill-opacity="0.03"/>
<path d="M-1.28083 195.047C-1.28974 194.962 -1.28996 194.963 -1.29886 194.878C-1.28996 194.963 -1.27193 195.132 -1.26302 195.216L-1.28083 195.047Z" fill="#C4A767" fill-opacity="0.03"/>
<path d="M3.55265 130.479C4.01561 128.378 4.64775 126.258 5.37338 124.215C6.04115 122.434 6.61541 120.578 7.29208 118.881C8.55193 115.413 9.6426 111.963 10.76 108.766C12.8078 102.222 14.6819 96.465 16.1376 91.6078C17.6779 86.7417 18.8087 82.8595 19.65 80.2906C20.4825 77.6372 20.9321 76.2214 20.9321 76.2214C20.9321 76.2214 20.7719 77.9488 20.3223 80.9895C19.9573 84.0214 19.2184 88.3755 18.2391 93.6958C17.1751 99.0249 15.7774 105.244 13.7474 111.958C12.8259 115.391 11.6417 118.765 10.3062 122.327C9.63844 124.108 8.97067 125.889 8.21832 127.678C7.88445 128.569 7.53275 129.29 7.28346 130.172C6.95849 131.147 6.70919 132.028 6.38421 133.003C4.48779 139.361 2.99651 145.505 1.51857 150.963C0.0495262 156.506 -1.39727 161.448 -2.63483 165.94C-3.96588 170.356 -5.09661 174.238 -6.0181 177.671C-6.94849 181.019 -7.83883 183.935 -7.82541 186.499L-7.88328 186.762C-7.8967 184.198 -7.09095 181.29 -6.34755 177.791C-5.53736 174.114 -4.59362 170.08 -3.52524 165.606C-2.55926 160.971 -1.40186 155.718 -0.306797 149.872C0.939629 143.84 2.05693 137.393 3.55265 130.479Z" fill="#C4A767" fill-opacity="0.03"/>
<path d="M-19.5928 155.153C-19.6017 155.068 -19.526 154.975 -19.5439 154.806L-19.535 154.89L-19.5928 155.153Z" fill="#C4A767" fill-opacity="0.03"/>
<path d="M-18.9162 150.207C-19.0765 151.934 -19.2545 153.492 -19.535 154.89C-19.348 153.416 -19.1699 151.858 -18.9162 150.207Z" fill="#C4A767" fill-opacity="0.03"/>
<path d="M-17.6326 29.9923C-12.8378 29.2309 -8.67509 28.9636 -5.10455 28.7588C1.95193 28.3579 6.32831 28.4958 6.32831 28.4958C6.32831 28.4958 2.40164 30.1921 -4.28973 32.4361C-7.59312 33.5537 -11.7424 34.7603 -16.3146 36.0114C-18.2156 36.6392 -20.3392 38.4023 -22.4361 40.4191C-24.5419 42.3513 -26.5942 44.7911 -28.7222 47.3244C-31.9677 51.4293 -34.6699 55.819 -37.0161 60.3424C-38.1468 62.5996 -39.193 64.8479 -40.1546 67.0873C-41.0316 69.3178 -41.7394 71.5305 -42.4472 73.7432C-43.7783 78.1596 -44.6953 82.447 -45.2829 86.6141C-45.314 87.1306 -45.4298 87.6559 -45.4609 88.1723C-45.4832 88.7734 -45.6345 88.9604 -45.7592 89.4011C-45.9417 90.1045 -46.1242 90.808 -46.3067 91.5114C-46.6718 92.9182 -46.8765 94.2227 -47.0902 95.4426L-47.1481 95.7052C-46.9344 94.4854 -46.7296 93.1809 -46.4581 91.6984C-46.2756 90.9949 -46.1776 90.3004 -46.004 89.5124L-45.8883 88.9871C-45.8215 88.809 -45.7547 88.6309 -45.7904 88.2925C-45.7592 87.7761 -45.737 87.1751 -45.6212 86.6497C-45.2296 82.2466 -44.6197 77.4785 -43.5959 72.5812C-43.3822 71.3614 -43.084 70.1326 -42.7857 68.9038C-42.4874 67.675 -42.1135 66.3528 -41.6461 65.1062C-40.8893 62.5462 -39.9633 59.9685 -38.9528 57.3818C-37.9422 54.7951 -36.8382 52.2842 -35.565 49.7554C-34.2071 47.2177 -32.6801 44.6622 -31.0597 42.1823C-28.9762 39.2261 -26.9417 36.6172 -24.7691 34.5068C-22.512 32.3876 -20.3038 30.6156 -17.6326 29.9923Z" fill="#C4A767" fill-opacity="0.03"/>
<path d="M-29.7023 21.7697C-20.1261 17.6825 -11.0038 19.0312 -4.62397 20.3266C1.77366 21.7912 5.56685 23.701 5.56685 23.701C5.56685 23.701 1.80042 23.6699 -4.32559 23.9728C-10.4427 24.3603 -19.0129 25.0061 -28.5046 27.4594C-32.3244 28.5458 -35.7614 30.0195 -38.9089 31.8048C-41.963 33.6659 -44.7276 35.8385 -46.8557 38.3718C-48.0265 39.4359 -48.9837 40.9051 -49.8741 42.1962C-50.7555 43.5719 -51.6459 44.863 -52.376 46.0517C-53.6893 49.0124 -54.8601 51.7014 -55.8039 54.11L-55.8707 54.2881C-54.9269 51.8795 -53.8496 49.1148 -52.6565 45.8247C-51.9531 44.3822 -51.1651 42.9308 -50.395 41.3102C-49.5313 39.7654 -48.779 37.9756 -47.6348 36.6578C-46.5931 35.1797 -45.3821 33.6837 -44.0955 32.0943C-42.7822 30.7587 -41.3843 29.4141 -39.9018 28.0607C-36.9947 25.6164 -33.5444 23.4571 -29.7023 21.7697Z" fill="#C4A767" fill-opacity="0.03"/>
<path d="M4.60032 5.58562C4.60032 5.58562 1.21678 5.94187 -4.47739 6.28482C-10.1715 6.62777 -18.0161 6.85501 -27.0804 6.8686C-34.4352 6.87323 -40.6681 7.78605 -45.6944 9.59816C-50.7207 11.4103 -54.3757 14.8741 -56.8955 18.5604L-57.0469 18.7474C-54.5093 15.2302 -51.1303 10.7692 -46.1441 7.76392C-41.0065 4.57168 -34.7559 2.20303 -27.3566 0.996346C-18.1899 -0.481956 -10.0559 1.22743 -4.43741 2.60297C1.27461 4.0542 4.60032 5.58562 4.60032 5.58562Z" fill="#C4A767" fill-opacity="0.03"/>
</g>
<defs>
<linearGradient id="paint0_linear_1418_44367" x1="41.602" y1="6.79995" x2="186.434" y2="180.963" gradientUnits="userSpaceOnUse">
<stop stop-color="#C4A767" stop-opacity="0.1"/>
<stop offset="0.693762" stop-color="#C4A767"/>
</linearGradient>
<linearGradient id="paint1_linear_1418_44367" x1="41.602" y1="6.79995" x2="186.434" y2="180.963" gradientUnits="userSpaceOnUse">
<stop stop-color="#C4A767" stop-opacity="0.1"/>
<stop offset="0.693762" stop-color="#C4A767"/>
</linearGradient>
<linearGradient id="paint2_linear_1418_44367" x1="41.602" y1="6.79995" x2="186.434" y2="180.963" gradientUnits="userSpaceOnUse">
<stop stop-color="#C4A767" stop-opacity="0.1"/>
<stop offset="0.693762" stop-color="#C4A767"/>
</linearGradient>
<linearGradient id="paint3_linear_1418_44367" x1="41.602" y1="6.79995" x2="186.434" y2="180.963" gradientUnits="userSpaceOnUse">
<stop stop-color="#C4A767" stop-opacity="0.1"/>
<stop offset="0.693762" stop-color="#C4A767"/>
</linearGradient>
<linearGradient id="paint4_linear_1418_44367" x1="41.602" y1="6.79995" x2="186.434" y2="180.963" gradientUnits="userSpaceOnUse">
<stop stop-color="#C4A767" stop-opacity="0.1"/>
<stop offset="0.693762" stop-color="#C4A767"/>
</linearGradient>
<linearGradient id="paint5_linear_1418_44367" x1="41.602" y1="6.79995" x2="186.434" y2="180.963" gradientUnits="userSpaceOnUse">
<stop stop-color="#C4A767" stop-opacity="0.1"/>
<stop offset="0.693762" stop-color="#C4A767"/>
</linearGradient>
<linearGradient id="paint6_linear_1418_44367" x1="41.602" y1="6.79995" x2="186.434" y2="180.963" gradientUnits="userSpaceOnUse">
<stop stop-color="#C4A767" stop-opacity="0.1"/>
<stop offset="0.693762" stop-color="#C4A767"/>
</linearGradient>
<linearGradient id="paint7_linear_1418_44367" x1="41.602" y1="6.79995" x2="186.434" y2="180.963" gradientUnits="userSpaceOnUse">
<stop stop-color="#C4A767" stop-opacity="0.1"/>
<stop offset="0.693762" stop-color="#C4A767"/>
</linearGradient>
<linearGradient id="paint8_linear_1418_44367" x1="41.602" y1="6.79995" x2="186.434" y2="180.963" gradientUnits="userSpaceOnUse">
<stop stop-color="#C4A767" stop-opacity="0.1"/>
<stop offset="0.693762" stop-color="#C4A767"/>
</linearGradient>
<linearGradient id="paint9_linear_1418_44367" x1="41.602" y1="6.79995" x2="186.434" y2="180.963" gradientUnits="userSpaceOnUse">
<stop stop-color="#C4A767" stop-opacity="0.1"/>
<stop offset="0.693762" stop-color="#C4A767"/>
</linearGradient>
<linearGradient id="paint10_linear_1418_44367" x1="41.602" y1="6.79995" x2="186.434" y2="180.963" gradientUnits="userSpaceOnUse">
<stop stop-color="#C4A767" stop-opacity="0.1"/>
<stop offset="0.693762" stop-color="#C4A767"/>
</linearGradient>
<linearGradient id="paint11_linear_1418_44367" x1="41.602" y1="6.79995" x2="186.434" y2="180.963" gradientUnits="userSpaceOnUse">
<stop stop-color="#C4A767" stop-opacity="0.1"/>
<stop offset="0.693762" stop-color="#C4A767"/>
</linearGradient>
<linearGradient id="paint12_linear_1418_44367" x1="41.602" y1="6.79995" x2="186.434" y2="180.963" gradientUnits="userSpaceOnUse">
<stop stop-color="#C4A767" stop-opacity="0.1"/>
<stop offset="0.693762" stop-color="#C4A767"/>
</linearGradient>
<linearGradient id="paint13_linear_1418_44367" x1="41.602" y1="6.79995" x2="186.434" y2="180.963" gradientUnits="userSpaceOnUse">
<stop stop-color="#C4A767" stop-opacity="0.1"/>
<stop offset="0.693762" stop-color="#C4A767"/>
</linearGradient>
<linearGradient id="paint14_linear_1418_44367" x1="41.602" y1="6.79995" x2="186.434" y2="180.963" gradientUnits="userSpaceOnUse">
<stop stop-color="#C4A767" stop-opacity="0.1"/>
<stop offset="0.693762" stop-color="#C4A767"/>
</linearGradient>
<linearGradient id="paint15_linear_1418_44367" x1="41.602" y1="6.79995" x2="186.434" y2="180.963" gradientUnits="userSpaceOnUse">
<stop stop-color="#C4A767" stop-opacity="0.1"/>
<stop offset="0.693762" stop-color="#C4A767"/>
</linearGradient>
<linearGradient id="paint16_linear_1418_44367" x1="41.602" y1="6.79995" x2="186.434" y2="180.963" gradientUnits="userSpaceOnUse">
<stop stop-color="#C4A767" stop-opacity="0.1"/>
<stop offset="0.693762" stop-color="#C4A767"/>
</linearGradient>
<linearGradient id="paint17_linear_1418_44367" x1="41.602" y1="6.79995" x2="186.434" y2="180.963" gradientUnits="userSpaceOnUse">
<stop stop-color="#C4A767" stop-opacity="0.1"/>
<stop offset="0.693762" stop-color="#C4A767"/>
</linearGradient>
<linearGradient id="paint18_linear_1418_44367" x1="41.602" y1="6.79995" x2="186.434" y2="180.963" gradientUnits="userSpaceOnUse">
<stop stop-color="#C4A767" stop-opacity="0.1"/>
<stop offset="0.693762" stop-color="#C4A767"/>
</linearGradient>
<linearGradient id="paint19_linear_1418_44367" x1="41.602" y1="6.79995" x2="186.434" y2="180.963" gradientUnits="userSpaceOnUse">
<stop stop-color="#C4A767" stop-opacity="0.1"/>
<stop offset="0.693762" stop-color="#C4A767"/>
</linearGradient>
<linearGradient id="paint20_linear_1418_44367" x1="41.602" y1="6.79995" x2="186.434" y2="180.963" gradientUnits="userSpaceOnUse">
<stop stop-color="#C4A767" stop-opacity="0.1"/>
<stop offset="0.693762" stop-color="#C4A767"/>
</linearGradient>
<linearGradient id="paint21_linear_1418_44367" x1="41.602" y1="6.79995" x2="186.434" y2="180.963" gradientUnits="userSpaceOnUse">
<stop stop-color="#C4A767" stop-opacity="0.1"/>
<stop offset="0.693762" stop-color="#C4A767"/>
</linearGradient>
<linearGradient id="paint22_linear_1418_44367" x1="41.602" y1="6.79995" x2="186.434" y2="180.963" gradientUnits="userSpaceOnUse">
<stop stop-color="#C4A767" stop-opacity="0.1"/>
<stop offset="0.693762" stop-color="#C4A767"/>
</linearGradient>
<linearGradient id="paint23_linear_1418_44367" x1="41.602" y1="6.79995" x2="186.434" y2="180.963" gradientUnits="userSpaceOnUse">
<stop stop-color="#C4A767" stop-opacity="0.1"/>
<stop offset="0.693762" stop-color="#C4A767"/>
</linearGradient>
<linearGradient id="paint24_linear_1418_44367" x1="41.602" y1="6.79995" x2="186.434" y2="180.963" gradientUnits="userSpaceOnUse">
<stop stop-color="#C4A767" stop-opacity="0.1"/>
<stop offset="0.693762" stop-color="#C4A767"/>
</linearGradient>
<linearGradient id="paint25_linear_1418_44367" x1="41.602" y1="6.79995" x2="186.434" y2="180.963" gradientUnits="userSpaceOnUse">
<stop stop-color="#C4A767" stop-opacity="0.1"/>
<stop offset="0.693762" stop-color="#C4A767"/>
</linearGradient>
<linearGradient id="paint26_linear_1418_44367" x1="41.602" y1="6.79995" x2="186.434" y2="180.963" gradientUnits="userSpaceOnUse">
<stop stop-color="#C4A767" stop-opacity="0.1"/>
<stop offset="0.693762" stop-color="#C4A767"/>
</linearGradient>
<linearGradient id="paint27_linear_1418_44367" x1="41.602" y1="6.79995" x2="186.434" y2="180.963" gradientUnits="userSpaceOnUse">
<stop stop-color="#C4A767" stop-opacity="0.1"/>
<stop offset="0.693762" stop-color="#C4A767"/>
</linearGradient>
<linearGradient id="paint28_linear_1418_44367" x1="41.602" y1="6.79995" x2="186.434" y2="180.963" gradientUnits="userSpaceOnUse">
<stop stop-color="#C4A767" stop-opacity="0.1"/>
<stop offset="0.693762" stop-color="#C4A767"/>
</linearGradient>
<linearGradient id="paint29_linear_1418_44367" x1="41.602" y1="6.79995" x2="186.434" y2="180.963" gradientUnits="userSpaceOnUse">
<stop stop-color="#C4A767" stop-opacity="0.1"/>
<stop offset="0.693762" stop-color="#C4A767"/>
</linearGradient>
<linearGradient id="paint30_linear_1418_44367" x1="41.602" y1="6.79995" x2="186.434" y2="180.963" gradientUnits="userSpaceOnUse">
<stop stop-color="#C4A767" stop-opacity="0.1"/>
<stop offset="0.693762" stop-color="#C4A767"/>
</linearGradient>
<linearGradient id="paint31_linear_1418_44367" x1="41.602" y1="6.79995" x2="186.434" y2="180.963" gradientUnits="userSpaceOnUse">
<stop stop-color="#C4A767" stop-opacity="0.1"/>
<stop offset="0.693762" stop-color="#C4A767"/>
</linearGradient>
<linearGradient id="paint32_linear_1418_44367" x1="41.602" y1="6.79995" x2="186.434" y2="180.963" gradientUnits="userSpaceOnUse">
<stop stop-color="#C4A767" stop-opacity="0.1"/>
<stop offset="0.693762" stop-color="#C4A767"/>
</linearGradient>
<linearGradient id="paint33_linear_1418_44367" x1="41.602" y1="6.79995" x2="186.434" y2="180.963" gradientUnits="userSpaceOnUse">
<stop stop-color="#C4A767" stop-opacity="0.1"/>
<stop offset="0.693762" stop-color="#C4A767"/>
</linearGradient>
<linearGradient id="paint34_linear_1418_44367" x1="41.602" y1="6.79995" x2="186.434" y2="180.963" gradientUnits="userSpaceOnUse">
<stop stop-color="#C4A767" stop-opacity="0.1"/>
<stop offset="0.693762" stop-color="#C4A767"/>
</linearGradient>
<linearGradient id="paint35_linear_1418_44367" x1="41.602" y1="6.79995" x2="186.434" y2="180.963" gradientUnits="userSpaceOnUse">
<stop stop-color="#C4A767" stop-opacity="0.1"/>
<stop offset="0.693762" stop-color="#C4A767"/>
</linearGradient>
<clipPath id="clip0_1418_44367">
<rect width="360" height="270" fill="white"/>
</clipPath>
</defs>
</svg>
