<svg width="360" height="304" viewBox="0 0 360 304" fill="none" xmlns="http://www.w3.org/2000/svg">
<path d="M68.8799 322.774C71.1243 322.928 73.2713 323.034 75.2235 323.041C73.223 322.887 71.1735 322.831 68.8799 322.774Z" fill="url(#paint0_linear_1309_25812)" fill-opacity="0.3"/>
<path d="M75.4676 323.042C75.3701 322.993 75.2236 323.041 75.1261 322.992L75.4676 323.042Z" fill="url(#paint1_linear_1309_25812)" fill-opacity="0.3"/>
<path d="M118.16 299.723C115.573 299.762 112.547 299.702 109.375 299.691C96.4426 299.399 79.6133 297.142 62.3057 292.198C48.2643 288.291 37.6418 283.665 29.3602 279.486C21.7625 275.164 15.7236 271.628 11.4885 268.635L11.2937 268.537C15.5288 271.529 20.9804 275.502 27.8925 280.457C29.5962 281.683 31.5439 282.911 33.6865 284.236C35.829 285.562 38.1182 286.839 40.6514 288.117C45.6686 290.771 51.4178 293.427 57.9975 295.892C74.4219 302.101 92.9129 303.73 107.119 302.708C110.732 302.331 114.051 302.05 116.883 301.768C119.813 301.29 122.451 300.666 124.6 300.283C126.651 299.851 128.312 299.467 129.435 299.178C130.559 298.889 131.096 298.794 131.096 298.794C131.096 298.794 128.899 299.03 125.14 299.211C123.237 299.351 120.795 299.586 118.16 299.723Z" fill="url(#paint2_linear_1309_25812)" fill-opacity="0.3"/>
<path d="M156.054 280.095L156.446 279.804C156.25 279.949 156.054 280.095 155.81 280.094C155.908 280.143 155.908 280.143 156.054 280.095Z" fill="url(#paint3_linear_1309_25812)" fill-opacity="0.3"/>
<path d="M149.458 282.267C147.064 282.893 144.574 283.225 141.888 283.704C136.614 284.465 130.902 285.128 124.703 285.3C121.53 285.533 118.358 285.521 115.039 285.558C111.72 285.595 108.206 285.533 104.693 285.471C97.6169 285.201 90.3481 284.345 83.082 282.757C65.1362 278.836 51.2467 273.417 41.3536 269.525C31.5096 265.536 25.9069 262.831 25.9069 262.831C25.9069 262.831 26.8795 263.811 28.8746 265.429C30.8696 267.047 33.9847 269.352 38.1724 271.954C46.6944 277.109 59.7992 283.599 79.3583 286.745C87.2117 287.897 95.0676 288.316 102.584 288.197C110.199 287.883 117.081 287.566 123.575 286.809C130.02 286.149 135.977 285.244 141.349 284.287C145.648 283.278 149.555 282.56 153.122 281.304L152.975 281.353C151.852 281.641 150.728 281.93 149.458 282.267Z" fill="url(#paint4_linear_1309_25812)" fill-opacity="0.3"/>
<path d="M200.153 232.428C199.712 232.816 199.32 233.108 198.831 233.35C199.32 233.108 199.761 232.719 200.153 232.428Z" fill="url(#paint5_linear_1309_25812)" fill-opacity="0.3"/>
<path d="M200.153 232.428C200.397 232.184 200.593 232.039 200.838 231.796C200.642 231.941 200.397 232.184 200.153 232.428Z" fill="url(#paint6_linear_1309_25812)" fill-opacity="0.3"/>
<path d="M198.831 233.35C198.782 233.447 198.636 233.496 198.586 233.593C198.733 233.545 198.782 233.447 198.831 233.35Z" fill="url(#paint7_linear_1309_25812)" fill-opacity="0.3"/>
<path d="M201.915 230.872C201.621 231.213 201.23 231.504 200.838 231.796C201.034 231.65 201.279 231.407 201.475 231.261L201.915 230.872Z" fill="url(#paint8_linear_1309_25812)" fill-opacity="0.3"/>
<path d="M205.865 218.441C205.523 218.635 205.278 218.879 204.886 219.17C205.278 218.879 205.816 218.539 206.207 218.247L205.865 218.441Z" fill="url(#paint9_linear_1309_25812)" fill-opacity="0.3"/>
<path d="M226.635 184.061C226.389 184.548 226.094 185.133 225.848 185.62C226.045 185.23 226.192 184.938 226.389 184.548L226.635 184.061Z" fill="url(#paint10_linear_1309_25812)" fill-opacity="0.3"/>
<path d="M225.356 186.594C225.504 186.302 225.651 186.01 225.799 185.718C225.651 186.01 225.553 186.205 225.356 186.594Z" fill="url(#paint11_linear_1309_25812)" fill-opacity="0.3"/>
<path d="M213.985 199.925C211.44 202.064 208.698 204.347 205.763 206.289C202.877 208.133 199.843 210.269 196.714 211.868C184.048 218.801 169.486 223.921 152.976 227.57C142.621 229.924 133.49 231.306 125.042 232.544C116.693 233.587 109.369 234.292 103.218 234.856C92.9172 235.648 85.9363 236.159 84.0324 236.299C84.668 236.008 85.206 235.668 85.8416 235.378L85.7924 235.475C85.7924 235.475 85.7924 235.475 85.8416 235.378C92.3934 232.083 98.7986 228.837 105.058 225.394C109.313 223.018 113.421 220.691 117.529 218.363C119.725 218.371 124.411 218.291 131.344 217.389C136.178 216.772 142.234 215.671 149.318 213.745C156.304 211.77 164.221 208.919 172.876 204.363C179.916 200.826 186.326 196.359 192.102 191.695C194.942 189.217 197.732 186.835 200.329 184.112C202.974 181.535 205.278 178.664 207.582 175.793C215.477 165.719 220.351 154.121 222.633 144.027C220.302 153.975 215.235 164.986 207.539 174.426C198.666 185.228 186.968 194.361 173.377 200.705C165.065 204.823 157.295 207.625 150.455 209.796C148.696 210.375 147.083 210.906 145.373 211.388C143.81 211.822 142.246 212.255 140.683 212.689C137.703 213.508 134.919 214.181 132.281 214.805C127.25 216.056 123.196 216.822 120.461 217.398C119.63 217.59 118.849 217.685 118.312 217.78C122.176 215.452 125.991 213.221 129.611 210.891C133.524 208.465 137.096 205.989 140.619 203.611C142.331 202.397 144.141 201.232 145.854 200.018C147.566 198.805 149.182 197.542 150.748 196.376C153.88 194.045 156.768 191.713 159.461 189.282C159.461 189.282 159.461 189.282 159.51 189.185C162.35 186.706 165.043 184.276 167.443 181.942C172.193 177.372 176.211 173.043 179.251 169.198C179.888 168.42 180.477 167.739 181.016 166.911C181.212 166.765 181.261 166.668 181.457 166.522C182.241 165.695 183.465 164.48 184.936 162.777C186.406 161.074 187.878 158.883 189.547 156.303C190.333 154.988 191.119 153.429 191.906 151.87C192.692 150.311 193.236 148.507 193.926 146.655C194.517 145.242 194.815 143.681 195.211 142.17C195.558 140.756 195.905 139.342 196.105 137.976C196.408 135.195 196.954 132.659 197.011 130.366C197.419 125.682 196.944 122.02 197.101 119.287L197.052 119.141C196.993 121.923 197.029 125.485 196.184 129.826C195.533 134.265 193.953 139.335 191.639 144.89C188.783 151.761 185.542 157.215 183.526 161.21C182.396 163.207 181.512 164.716 180.923 165.886C180.382 166.957 179.94 167.59 179.94 167.59C179.94 167.59 180.185 167.347 180.577 167.056C180.135 167.688 179.596 168.272 179.008 168.953C177.341 171.046 175.332 173.332 173.176 175.667C173.323 175.375 173.617 175.034 173.911 174.694C174.599 173.574 175.727 172.065 176.808 169.921C179.117 165.83 181.628 159.885 182.922 152.96C183.371 150.131 183.771 147.643 183.877 145.252C183.979 144.081 184.032 143.008 184.134 141.837C184.187 140.763 184.093 139.738 184.096 138.762C184.201 136.859 184.012 135.052 184.067 133.491C184.069 132.759 184.121 131.929 184.221 131.246C184.272 130.661 184.372 129.978 184.569 129.588C184.372 129.978 184.321 130.563 184.27 131.149C184.17 131.832 184.021 132.612 183.969 133.442C183.768 135.051 183.713 136.857 183.315 138.857C183.165 139.881 183.015 140.905 182.815 142.027C182.616 143.149 182.319 144.221 182.071 145.441C181.822 146.66 181.574 147.879 181.13 149.244C180.735 150.511 180.485 151.975 179.944 153.29C177.82 160.164 175.701 165.818 174.515 169.864C173.38 173.081 172.835 175.373 172.638 176.007C170.874 177.806 169.061 179.703 167.005 181.599C164.85 183.689 162.401 185.877 159.856 188.015C160.101 187.772 160.297 187.382 160.641 186.944C161.67 185.63 163.044 183.634 164.664 181.151C167.805 176.135 171.834 168.878 174.159 160.395C176.136 153.569 176.889 147.716 177.199 142.983C177.555 139.128 177.469 135.907 177.674 133.321C177.372 135.858 177.116 139.029 176.321 143.028C175.473 147.857 173.939 153.805 171.23 160.628C167.831 169.059 164.633 176.124 162.467 181.143C161.433 183.677 160.548 185.675 159.957 187.088C159.613 187.77 159.464 188.306 159.268 188.696C156.477 191.077 153.393 193.555 150.212 195.984C148.646 197.149 146.934 198.363 145.318 199.626C143.606 200.84 141.942 201.956 140.083 203.218C136.561 205.597 132.842 208.121 129.076 210.499C124.967 213.071 120.76 215.593 116.359 218.017C115.968 218.065 115.822 218.113 115.822 218.113C115.822 218.113 115.968 218.065 116.163 218.163C112.397 220.297 108.485 222.479 104.573 224.66C103.546 225.242 102.372 225.873 101.248 226.405C101.934 225.529 105.561 221.248 110.613 214.385C116.205 206.694 123.371 195.642 129.323 182.876C134.143 172.596 137.152 163.969 139.178 157.046C140.167 153.633 140.959 150.61 141.651 148.026C141.849 147.392 142.046 146.759 142.195 146.222C142.343 145.686 142.491 145.15 142.64 144.613C142.738 144.419 142.788 144.077 142.886 143.882C142.788 144.077 142.69 144.272 142.591 144.467C142.197 145.49 141.851 146.66 141.359 147.879C140.569 150.414 139.533 153.436 138.154 156.896C135.542 163.768 131.606 172.538 125.956 182.767C118.93 195.479 112.448 206.387 107.978 214.277C103.902 221.388 101.445 225.772 101.052 226.551C96.2601 229.023 91.3217 231.542 86.3832 234.062C87.8062 231.969 90.653 227.538 94.4339 221.256C95.7112 218.967 97.135 216.629 98.609 213.95C100.083 211.272 101.606 208.495 103.374 205.476C104.16 203.917 105.093 202.554 105.977 201.044C107.007 199.486 108.136 197.733 109.119 196.029C110.101 194.324 111.083 192.62 112.066 190.915C112.95 189.161 113.982 187.359 114.916 185.508C121.059 173.817 125.439 163.926 128.737 156.178C131.641 149.454 133.808 144.191 136.161 141.222C133.71 144.142 131.3 149.16 127.958 155.785C124.025 163.579 118.766 173.516 111.647 185.203C109.535 188.905 107.326 192.313 105.264 195.673C104.185 197.328 103.154 198.886 102.221 200.494C101.239 202.198 100.159 203.854 99.3722 205.412C96.1285 211.599 93.7179 216.861 91.6031 221.294C89.5857 225.777 88.06 229.285 86.9776 231.673C86.5342 232.794 86.0918 233.671 85.8943 234.304C83.1073 235.71 80.2229 237.066 77.4359 238.471C73.916 240.117 70.2494 241.812 66.7295 243.459C67.3176 242.777 68.3464 241.707 69.7184 240.2C72.0701 237.719 75.3541 233.875 79.227 229.107C81.1881 226.674 83.15 223.997 85.2103 221.125C86.1917 219.664 87.2223 218.106 88.2529 216.548C89.1861 214.941 90.1192 213.334 91.1015 211.629C93.017 208.318 94.8842 204.859 96.8497 201.206C98.7661 197.65 101.025 193.901 103.382 189.956C110.749 177.294 117.035 166.531 121.361 157.957C125.785 149.432 128.395 143.049 131.286 139.74C128.492 143.098 125.541 149.187 120.387 157.465C115.378 165.939 108.165 176.601 99.431 189.307C96.8299 193.251 94.1806 197.048 92.0676 200.993C90.053 204.744 88.1366 208.3 86.2703 211.514C85.4346 213.17 84.5014 214.777 83.7149 216.336C82.8309 217.846 81.9469 219.356 81.0146 220.719C79.3449 223.543 77.7244 226.271 76.0566 228.607C70.9519 236.544 67.5652 241.802 66.4854 243.458C65.5076 243.942 64.4323 244.377 63.4544 244.862C58.7126 246.992 53.9708 249.122 49.1315 251.203C48.7892 251.397 48.3494 251.542 48.0071 251.736C48.5952 251.055 49.624 249.985 50.8986 248.428C53.2512 245.703 56.5843 241.762 60.3607 236.7C64.2346 231.687 68.7958 225.555 73.3597 218.69C75.6175 215.184 77.9245 211.581 80.2323 207.734C82.491 203.984 85.0921 200.041 87.7914 195.902C96.3319 182.61 103.206 171.166 108.071 162.008C110.43 157.576 112.446 153.581 114.411 149.928C115.296 148.174 116.18 146.664 117.015 145.252C117.457 144.619 117.849 144.084 118.291 143.451C117.898 143.986 117.555 144.424 117.162 144.96C116.328 146.372 115.346 147.833 114.364 149.537C112.399 152.946 110.042 156.891 107.244 161.468C101.549 170.574 93.797 181.819 83.8898 195.156C80.9464 199.293 77.9548 203.284 75.5003 207.18C73.1924 211.027 70.8363 214.728 68.6277 218.136C64.2095 225.196 60.2829 231.283 57.1411 236.298C52.1822 244.43 48.7945 249.933 47.7139 251.832C43.3636 253.671 39.0624 255.412 34.7121 257.251C31.5837 258.606 28.5044 259.864 25.3769 260.975C26.9956 258.736 30.4306 253.624 34.7513 246.514C37.7465 241.547 41.1359 235.556 44.4305 228.785C46.1511 225.374 47.8235 221.818 49.4475 218.115C50.2842 216.214 51.0716 214.411 52.1522 212.512C53.2329 210.613 54.2161 208.664 55.3459 206.667C62.5188 193.662 68.6111 182.557 73.5245 173.546C75.9324 169.016 78.2412 164.925 80.3041 161.321C82.4645 157.766 84.2816 154.649 86.7298 152.462L86.9748 152.219C84.4291 154.357 82.612 157.474 80.1101 160.979C77.8032 164.582 75.2504 168.672 72.4036 173.103C66.6116 182.16 59.4458 193.212 50.9062 206.26C49.6298 208.306 48.4025 210.253 47.1753 212.201C45.9481 214.149 44.9157 216.195 44.0791 218.095C42.3084 221.847 40.7335 225.452 39.1595 228.814C36.1089 235.587 33.3542 241.531 31.1884 246.55C28.9253 251.52 27.3003 255.467 26.1679 258.196C25.6262 259.512 25.232 260.535 24.8879 261.217C23.3729 261.797 21.8578 262.377 20.391 263.104C19.3157 263.539 18.3379 264.024 17.2626 264.459C17.4601 263.825 17.9526 262.607 18.7892 260.707C19.9217 257.978 21.5949 254.177 23.6623 249.353C27.6988 239.9 33.4085 226.646 40.2015 210.76C49.7001 189.028 59.8611 173.008 67.8538 162.74C66.7266 164.005 65.6478 165.416 64.4224 166.876C61.9697 170.283 58.6375 173.98 55.6932 178.362C49.3658 187.026 42.4449 197.835 35.5169 210.597C27.0649 226.379 22.2812 239.978 19.9037 249.535C18.7149 254.313 17.8712 258.166 17.5199 260.8C17.2688 262.751 17.1669 263.922 17.116 264.507C13.841 265.911 10.7125 267.266 7.48576 268.816C7.73246 268.085 8.07745 267.159 8.47252 265.891C9.40923 263.308 10.8384 259.506 12.4661 254.827C13.4019 252.488 14.3878 249.807 15.4228 247.029C16.4578 244.251 17.4446 241.326 18.3831 238.255C20.4067 232.064 22.5304 225.191 24.6558 217.829C25.5452 214.855 26.5802 212.077 27.3712 209.298C28.4063 206.52 29.3921 203.839 30.4263 201.305C32.3972 196.188 34.4637 191.608 36.4801 187.369C40.6587 179.088 45.2718 172.125 50.7036 168.143L50.9486 167.9C45.5167 171.882 40.4165 178.599 35.2127 186.974C32.6107 191.162 30.0553 195.984 27.3524 201.099C26.025 203.729 24.6977 206.36 23.3695 209.235C22.1879 212.061 20.8105 215.033 19.5305 218.054C16.5747 225.608 14.3536 232.433 12.6715 238.674C10.5004 245.157 9.21063 250.862 8.36424 255.447C7.51781 260.031 7.16302 263.641 7.00752 266.13C6.90563 267.301 6.90206 268.277 6.8994 269.009C6.70364 269.155 6.45962 269.154 6.26388 269.299C3.7209 270.705 1.2271 272.014 -1.26672 273.323C-1.21578 272.737 -1.11567 272.054 -1.06384 271.225C-0.761758 268.688 -0.260351 265.03 0.488635 260.396C1.28678 255.665 2.37986 250.349 4.062 244.108C4.90307 240.988 5.84245 237.673 6.9776 234.212C7.52103 232.408 8.1619 230.653 8.70534 228.849C9.24876 227.046 9.59644 225.387 10.1399 223.584C13.2074 212.175 16.9042 202.183 21.2285 194.097C25.602 185.914 30.7987 179.491 35.7434 175.263L35.9884 175.02C31.1411 179.297 25.3598 185.425 20.0585 193.751C17.3591 197.89 14.8046 202.468 12.2974 207.437C11.0192 209.97 9.83852 212.553 8.6569 215.379C8.06607 216.792 7.52443 218.108 6.88445 219.619C6.54034 220.301 6.39106 221.081 5.99777 221.86C5.60451 222.64 5.21122 223.419 4.81794 224.199C1.03083 232.189 -1.09375 239.307 -2.2387 245.452C-3.33535 251.744 -3.45326 257.307 -3.32271 261.651C-3.09472 266.044 -2.56999 269.365 -2.13912 271.66C-1.94694 272.491 -1.80303 273.174 -1.70738 273.712C-3.36992 274.584 -4.93504 275.506 -6.50014 276.427C-6.84248 276.621 -7.23398 276.912 -7.57632 277.106C-7.62281 276.472 -7.76584 275.544 -7.85881 274.275C-8.00095 273.103 -8.1422 271.687 -8.33171 270.125C-8.47208 268.465 -8.56325 266.707 -8.75099 264.657C-8.97986 260.508 -9.05948 255.578 -8.98983 249.868C-8.88172 246.989 -8.72444 244.013 -8.5171 240.695C-8.41345 239.036 -8.21235 237.426 -7.9621 235.719C-7.71185 234.012 -7.51075 232.402 -7.21133 230.597C-6.21477 224.988 -4.78022 219.722 -2.71193 214.654C-1.67778 212.12 -0.59537 209.733 0.633641 207.297C1.47114 205.153 2.16205 203.057 2.99867 201.156C6.3943 193.458 10.37 187.274 14.0955 182.797L14.1938 182.603C10.5175 186.982 5.95629 193.114 1.58459 200.81C1.09299 201.784 0.454787 202.806 -0.0368147 203.781C-0.282608 204.268 -0.724143 204.901 -1.11653 205.436C-1.5581 206.069 -1.95049 206.604 -2.2946 207.286C-3.91422 209.769 -5.43641 212.302 -6.76374 214.932C-9.56499 220.242 -11.8299 225.7 -13.4146 231.99C-17.2767 247.154 -15.0723 258.289 -12.7089 265.96C-10.8273 271.921 -8.79107 275.638 -7.96603 276.91C-9.5803 277.929 -11.048 278.9 -12.6623 279.919C-14.1317 281.377 -16.1858 282.541 -18.0458 284.047C-19.8567 285.456 -21.7651 286.816 -23.5268 288.127C-24.4564 288.758 -25.2886 289.438 -26.2673 290.167C-27.0995 290.847 -27.9808 291.625 -28.813 292.305C-32.0934 295.172 -35.422 297.893 -38.1661 300.909C-39.6355 302.368 -41.0558 303.729 -42.4279 305.237C-43.7507 306.648 -45.0254 308.205 -46.2508 309.664C-56.2 321.146 -62.4872 332.153 -66.0294 339.9C-67.7518 343.798 -68.9834 346.966 -69.6744 349.062C-70.3653 351.158 -70.662 352.23 -70.662 352.23C-70.9087 352.962 -70.6683 353.939 -70.0336 353.892C-69.7896 353.893 -69.4473 353.699 -69.1532 353.358C-68.9083 353.115 -68.7608 352.823 -68.5642 352.433C-68.5642 352.433 -68.5633 352.189 -68.4149 351.653C-68.2665 351.117 -68.0198 350.386 -67.7231 349.313C-67.4263 348.24 -66.9339 347.022 -66.2939 345.511C-65.6539 344.001 -64.9156 342.295 -64.1764 340.346C-60.6834 332.696 -54.592 321.835 -44.8385 310.499C-43.6131 309.04 -42.3876 307.58 -41.0647 306.169C-39.7419 304.759 -38.3216 303.398 -36.8521 301.939C-35.2352 300.188 -33.3742 298.438 -31.465 296.834C-31.4176 297.225 -31.3702 297.615 -31.2746 298.152C-30.9894 300.252 -30.4137 302.987 -29.2061 306.408C-26.7417 313.152 -21.8433 321.613 -13.8182 329.207C-12.262 330.726 -10.7058 332.244 -9.19791 333.616C-7.68997 334.988 -6.08373 336.165 -4.7215 337.342C-1.753 339.695 0.727442 342.047 3.11226 343.861C7.97929 347.539 11.9212 350.629 14.5473 353.176L14.7422 353.274C11.9695 350.775 8.41906 347.395 3.99357 343.084C1.75625 340.977 -0.332711 338.334 -2.86054 335.592C-4.12446 334.22 -5.38837 332.849 -6.74882 331.185C-8.01184 329.57 -9.2257 327.857 -10.537 326.095C-17.1435 317.628 -22.3368 309.752 -25.9766 304.126C-27.7233 301.289 -29.2276 298.941 -30.1 297.278C-30.3423 296.789 -30.5363 296.447 -30.7302 296.105C-29.6532 295.181 -28.5761 294.258 -27.4499 293.237C-26.6177 292.557 -25.8338 291.73 -25.0016 291.05C-24.1695 290.37 -23.2399 289.738 -22.4077 289.058C-21.0375 288.038 -19.6672 287.018 -18.2478 285.901C-18.3515 287.56 -18.4158 291.806 -17.0204 297.277C-16.106 300.794 -14.5587 304.753 -12.231 308.861C-9.80599 313.018 -6.50229 317.13 -2.36822 321.05C4.34374 327.37 11.0137 331.835 16.4188 335.174C19.1951 336.697 21.6782 338.317 23.9674 339.594C26.3057 340.774 28.2051 341.854 29.7631 342.885L29.958 342.983C28.3026 341.903 26.4031 340.823 24.2606 339.497C22.1672 338.074 19.7824 336.26 17.2027 334.347C12.3366 330.425 6.59622 325.328 1.05787 318.378C-5.8901 309.86 -10.6428 301.595 -13.7928 295.483C-16.2152 290.594 -17.6176 287.075 -18.0521 285.755C-17.7097 285.561 -17.4157 285.221 -17.0733 285.027C-15.2624 283.618 -13.3058 282.405 -11.3 281.095C-10.5662 280.609 -9.83235 280.124 -9.00108 279.688C-7.89267 283.548 -5.90915 288.338 -2.61079 293.913C0.930695 299.734 6.08022 306.244 13.4742 312.908C17.9006 316.975 22.8168 320.556 27.2476 323.403C31.7759 326.299 35.7213 328.412 39.3745 330.377C40.2514 330.82 41.079 331.36 41.8585 331.753C42.6379 332.146 43.4174 332.539 44.1485 332.786C45.5617 333.377 46.7309 333.967 47.7052 334.458C49.6055 335.295 50.5798 335.787 50.873 335.69C50.873 335.69 50.4341 335.591 50.1427 335.199C49.7047 334.856 49.121 334.317 48.3425 333.68C47.5639 333.043 46.4931 332.258 45.3248 331.424C44.692 330.982 44.0591 330.541 43.3288 330.05C42.6477 329.462 41.9175 328.971 41.2363 328.383C38.1213 326.078 34.3733 323.331 30.3823 320.339C26.2938 317.299 21.7673 313.915 16.9494 310.139C13.0075 307.05 9.55278 304.207 6.58608 301.365C3.61936 298.524 1.04237 295.879 -1.04657 293.236C-5.12794 288.243 -7.8444 283.694 -8.90364 279.737C-7.63172 278.912 -6.50637 278.135 -5.23444 277.31C-4.5006 276.825 -3.71849 276.486 -2.98466 276.001C-2.64766 277.271 -1.29522 281.131 2.15062 286.415C4.33523 289.595 7.15267 293.217 10.897 296.94C12.7446 298.85 14.8854 300.663 17.1719 302.673C18.291 303.604 19.5567 304.487 20.7733 305.468C22.0389 306.351 23.2554 307.331 24.6677 308.166C26.8103 309.492 29.0011 310.964 31.1437 312.289C33.2863 313.615 35.3806 314.794 37.28 315.875C39.1794 316.955 41.2255 317.988 42.9792 318.872C43.4664 319.118 43.8069 319.412 44.4898 319.512C45.1236 319.71 45.8064 319.81 46.3428 319.958C47.562 320.207 48.8786 320.505 50.0978 320.753C52.3405 321.396 54.9755 321.503 57.2682 321.804C59.561 322.105 61.7563 322.357 63.8541 322.56C65.6597 322.616 67.3183 322.719 68.8799 322.774C63.6106 322.315 57.7089 321.415 51.5172 319.636C49.2746 318.993 47.081 318.253 44.8393 317.366L43.0847 316.725C42.5975 316.48 42.257 316.186 41.7698 315.94C40.9421 315.4 40.0169 314.811 39.141 314.124C35.6362 311.623 31.84 308.729 27.9964 305.445C26.7799 304.465 25.6125 303.387 24.5425 302.358C23.3752 301.28 22.2069 300.446 21.2344 299.467C19.1919 297.458 17.0994 295.791 15.2026 293.978C11.3108 290.548 8.10186 287.217 5.28085 284.572C0.807104 280.114 -2.10956 276.931 -2.98466 276.001C-2.29998 275.613 -1.66445 275.322 -0.979775 274.934L-0.931509 275.081L-0.882335 274.983C1.12253 273.917 3.12741 272.851 5.13229 271.784C6.54191 273.351 8.24382 275.066 10.2371 277.171C12.2304 279.277 14.516 281.531 17.0438 284.273C22.247 289.465 28.8124 295.834 36.9384 302.501C37.2789 302.795 37.5221 303.04 37.9118 303.237L39.0318 303.924C39.7621 304.415 40.6389 304.857 41.4184 305.25C43.0747 306.086 44.6335 306.873 46.2899 307.708C49.5542 309.233 52.966 310.466 56.183 311.6C62.8127 313.723 69.3476 315.064 75.2505 315.72C78.1779 315.975 80.812 316.326 83.2031 316.433C85.6433 316.442 87.8395 316.45 89.5968 316.358C93.0622 316.273 95.0635 316.183 95.0635 316.183C95.0635 316.183 93.3563 315.933 90.4298 315.434C88.9666 315.185 87.1619 314.885 85.0158 314.536C83.0162 314.138 80.7244 313.593 78.1403 312.9C67.9978 310.472 55.0325 305.886 41.5863 299.346C40.2223 298.657 38.9557 298.018 37.6891 297.379C36.4717 296.643 35.0585 296.052 34.1826 295.365C32.2357 293.894 30.2398 292.52 28.4387 291.245C24.7882 288.547 21.43 285.997 18.4615 283.644C12.427 278.888 8.04806 275.211 5.1314 272.028L5.03397 271.979C5.86524 271.543 6.54993 271.155 7.3812 270.719C11.7816 268.539 16.4251 266.603 21.0203 264.522C25.8104 262.538 30.5513 260.652 35.3414 258.669C37.3454 257.846 39.3494 257.024 41.4025 256.104C41.938 256.496 42.9114 257.232 44.4211 258.116C46.7585 259.54 50.3625 261.603 55.4306 263.671C65.4203 267.856 81.2164 272.404 102.834 273.166C120.256 273.522 136.173 271.775 149.897 269.043C163.621 266.311 175.201 262.498 183.851 259.406L184.291 259.261C175.495 262.401 164.209 265.63 150.976 267.631C137.742 269.633 122.561 270.407 106.07 269.176C85.8706 267.54 69.4846 264.162 58.3678 261.242C49.3962 258.915 43.596 256.844 41.744 256.154C44.4326 254.944 47.1696 253.88 49.8583 252.67C53.2799 251.218 56.6041 249.717 59.9283 248.217C60.9517 248.611 66.263 250.924 75.4777 253.495C80.6459 254.881 87.1316 256.32 94.8875 257.422C102.595 258.377 112.159 258.803 122.901 257.622C140.184 255.83 155.521 252.323 168.715 247.979C175.311 245.807 181.42 243.389 186.896 240.774C189.585 239.563 192.274 238.109 194.72 236.654C196.089 235.878 197.361 235.053 198.682 234.13C197.557 234.907 196.334 235.635 195.111 236.362C192.715 237.72 190.025 239.174 187.386 240.287C181.911 242.659 175.998 244.687 169.599 246.469C156.799 250.034 141.905 252.42 125.405 253.385C115.056 254.03 106.272 253.754 98.4173 253.091C90.5622 252.428 83.684 251.524 77.9277 250.82C72.2205 250.018 67.635 249.416 64.4645 248.916C62.0744 248.566 60.4646 248.365 59.9283 248.217C61.3459 247.587 62.6661 246.909 64.0837 246.28C67.0656 244.973 69.95 243.617 72.8344 242.261C74.7356 242.853 79.7573 244.287 87.8055 245.536C98.0972 247.185 113.269 248.85 133.044 246.482C148.912 244.588 163.225 240.931 175.542 236.145C187.418 231.503 197.445 225.439 205.129 219.659C197.494 225.341 187.665 230.771 176.377 234.488C164.454 238.495 150.779 241.13 135.695 242.197C116.998 243.398 101.382 243.097 90.1097 242.665C81.6674 242.439 75.7144 242.125 73.3233 242.018C74.9367 241.243 76.6475 240.518 78.3101 239.645C80.2658 238.676 82.2215 237.707 84.1281 236.836C84.7135 236.887 86.1768 237.136 88.4212 237.291C91.446 237.595 95.8857 238.001 101.693 238.12C107.5 238.239 114.626 238.167 122.925 237.465C131.323 236.569 140.796 235.237 151.397 232.396C168.349 227.87 183.5 221.825 196.364 214.014C197.979 212.995 199.544 212.074 201.061 211.006C202.577 209.938 204.094 208.869 205.611 207.801C208.596 205.762 211.338 203.235 213.933 200.999C216.577 198.666 218.929 195.941 221.134 193.509C222.36 192.05 223.488 190.541 224.518 188.983C223.586 190.346 222.507 191.757 221.478 193.071C218.884 195.063 216.532 197.543 213.985 199.925Z" fill="url(#paint12_linear_1309_25812)" fill-opacity="0.3"/>
<path d="M224.522 188.007C224.865 187.569 225.16 186.984 225.406 186.497C225.111 187.082 224.767 187.52 224.522 188.007Z" fill="url(#paint13_linear_1309_25812)" fill-opacity="0.3"/>
<path d="M224.178 188.445C224.277 188.25 224.326 188.152 224.424 187.958C224.326 188.152 224.227 188.347 224.178 188.445Z" fill="url(#paint14_linear_1309_25812)" fill-opacity="0.3"/>
<path d="M213.55 185.527C213.402 185.819 213.157 186.062 213.059 186.257C213.255 186.111 213.402 185.819 213.55 185.527Z" fill="url(#paint15_linear_1309_25812)" fill-opacity="0.3"/>
<path d="M214.532 183.822C214.384 184.114 214.237 184.407 214.04 184.796C214.139 184.601 214.237 184.407 214.335 184.212L214.532 183.822Z" fill="url(#paint16_linear_1309_25812)" fill-opacity="0.3"/>
<path d="M212.715 186.939C212.814 186.744 212.912 186.549 213.108 186.403C213.009 186.598 212.862 186.89 212.666 187.036L212.715 186.939Z" fill="url(#paint17_linear_1309_25812)" fill-opacity="0.3"/>
<path d="M205.023 195.159C203.064 196.86 201.057 198.658 198.855 200.114C196.605 201.668 194.354 203.221 191.908 204.676C189.512 206.034 186.969 207.44 184.378 208.7C181.689 209.91 179.05 211.023 176.313 212.087C173.528 213.004 170.645 213.872 167.665 214.691C164.734 215.412 161.607 216.279 158.432 216.999C142.753 220.456 129.178 222.652 119.46 224.227C109.791 225.704 103.834 226.61 103.834 226.61C103.834 226.61 105.151 226.663 107.64 226.819C110.08 226.828 113.74 226.841 118.328 226.712C127.603 226.257 140.882 225.135 157.052 220.704C160.326 219.788 163.452 218.921 166.531 217.907C169.56 216.991 172.59 215.831 175.376 214.67C181.241 212.251 186.621 209.342 191.562 206.091C196.454 202.936 200.908 199.438 204.825 195.792C206.784 194.091 208.548 192.048 210.214 190.199C211.047 189.275 211.783 188.302 212.518 187.328C212.568 187.231 212.617 187.133 212.666 187.036C211.931 188.009 211.244 188.886 210.411 189.81C208.745 191.658 206.932 193.555 205.023 195.159Z" fill="url(#paint18_linear_1309_25812)" fill-opacity="0.3"/>
<path d="M223.281 140.076C223.13 141.344 222.833 142.661 222.535 143.978C222.931 142.466 223.18 141.003 223.43 139.54L223.281 140.076Z" fill="url(#paint19_linear_1309_25812)" fill-opacity="0.3"/>
<path d="M201.454 170.255C200.326 171.52 199.102 172.736 197.926 174.098C196.652 175.411 195.378 176.724 194.007 177.988C188.716 183.386 182.356 187.755 175.702 192.221C164.891 199.112 155.506 203.177 147.833 206.028C145.927 206.656 144.119 207.333 142.36 207.912C140.65 208.394 139.038 208.925 137.474 209.358C134.494 210.177 131.857 210.802 129.61 211.135L129.366 211.134C133.811 210.321 139.72 209.269 147.292 207.1C154.865 204.932 164.247 201.842 175.396 195.734C182.341 191.903 188.8 187.339 194.433 181.747C200.065 176.4 204.722 170.56 208.16 164.716C209.044 163.206 209.781 161.745 210.47 160.381C211.158 159.017 211.846 157.653 212.388 156.337C213.471 153.706 214.455 151.513 215.097 149.514C216.331 145.614 216.974 143.372 216.974 143.372C216.974 143.372 216.137 145.272 214.709 148.83C214.068 150.584 212.841 152.532 211.661 154.87C210.481 157.209 208.911 159.594 207.193 162.272C206.751 162.905 206.358 163.684 205.916 164.317C205.475 164.95 204.887 165.631 204.445 166.264C203.562 167.53 202.532 168.844 201.454 170.255Z" fill="url(#paint20_linear_1309_25812)" fill-opacity="0.3"/>
<path d="M157.001 194.398C155.485 195.222 154.019 195.949 152.796 196.676C151.525 197.257 150.498 197.839 149.667 198.275C147.955 199.245 146.977 199.73 146.977 199.73C146.977 199.73 147.905 199.587 149.517 199.056C151.227 198.574 153.621 197.948 156.798 196.74C162.955 194.468 171.901 190.548 181.739 182.677C189.62 176.264 195.942 169.064 200.361 162.003C204.828 154.845 207.537 148.023 209.167 142.611L209.266 142.416C208.426 145.049 207.439 148.218 205.817 151.189C205.031 152.748 204.292 154.453 203.262 156.011C202.231 157.569 201.249 159.274 200.072 160.88C195.461 167.354 189.141 173.822 181.361 179.309C171.868 186.253 163.212 191.053 157.001 194.398Z" fill="url(#paint21_linear_1309_25812)" fill-opacity="0.3"/>
<path d="M169.836 181.316C167.731 183.065 165.775 184.278 164.551 185.25C163.327 186.222 162.594 186.707 162.594 186.707C162.594 186.707 165.28 185.985 169.877 183.659C174.424 181.187 181.028 177.062 187.693 169.424C189.017 167.77 190.243 166.31 191.42 164.704C192.5 163.048 193.628 161.54 194.561 159.932C195.494 158.325 196.33 156.669 197.067 155.208C197.951 153.698 198.591 152.187 199.231 150.677C199.871 149.166 200.462 147.753 200.906 146.388C201.253 144.974 201.697 143.609 202.092 142.341C202.882 139.806 203.183 137.514 203.678 135.563L203.777 135.369C203.379 137.368 202.98 139.612 202.093 142.097C201.698 143.365 201.205 144.583 200.761 145.948C200.317 147.313 199.58 148.53 198.892 149.894C197.516 152.623 195.798 155.301 193.835 158.222C191.824 160.996 189.569 163.77 186.875 166.444C180.262 173.009 174.241 177.916 169.836 181.316Z" fill="url(#paint22_linear_1309_25812)" fill-opacity="0.3"/>
<path d="M184.715 129.784L184.665 129.881C184.812 129.833 184.715 129.784 184.715 129.784Z" fill="url(#paint23_linear_1309_25812)" fill-opacity="0.3"/>
<path d="M178.213 132.493C178.114 132.932 178.064 133.274 178.062 133.762C178.064 133.274 178.163 132.835 178.213 132.493Z" fill="url(#paint24_linear_1309_25812)" fill-opacity="0.3"/>
<path d="M178.215 132.005C178.166 132.103 178.165 132.347 178.116 132.444C178.165 132.347 178.117 132.2 178.166 132.103L178.215 132.005Z" fill="url(#paint25_linear_1309_25812)" fill-opacity="0.3"/>
<path d="M151.015 190.032C149.638 192.76 148.654 194.953 147.917 196.414C147.277 197.925 146.883 198.704 146.883 198.704C146.883 198.704 147.521 197.926 148.746 196.466C149.972 195.006 151.541 192.865 153.406 190.139C157.135 184.686 161.654 176.699 163.932 167.58C165.911 160.267 165.493 154.555 165.558 150.066C165.371 147.771 165.818 145.674 165.727 143.917C165.828 142.99 165.977 142.21 166.029 141.38C166.081 140.551 166.083 139.818 166.134 139.233L166.183 139.136C166.083 139.818 166.081 140.551 165.981 141.233C165.831 142.014 165.633 142.892 165.434 143.769C165.236 144.647 165.33 145.672 165.033 146.745C164.736 147.818 164.635 148.988 164.533 150.159C163.929 154.989 163.273 160.892 160.612 168.105C157.358 176.976 153.718 184.674 151.015 190.032Z" fill="url(#paint26_linear_1309_25812)" fill-opacity="0.3"/>
<path d="M148.977 173.236C143.765 183.808 138.656 192.964 135.07 199.345C131.435 205.822 129.518 209.622 129.518 209.622C129.518 209.622 130.351 208.698 131.821 206.995C133.194 205.243 135.204 202.713 137.51 199.598C142.072 193.221 148.059 184.019 152.15 173.248C155.5 164.67 157.185 157.453 157.987 151.746C158.789 146.039 158.511 141.987 158.863 139.109L158.912 139.012C158.56 141.89 158.447 145.989 157.157 151.694C155.721 157.448 153.157 164.711 148.977 173.236Z" fill="url(#paint27_linear_1309_25812)" fill-opacity="0.3"/>
<path d="M124.794 206.872C129.896 199.667 136.474 189.296 141.544 177.309C145.679 167.66 147.954 159.518 149.294 153.227C150.684 146.839 150.896 142.301 152.029 139.328L152.078 139.231C150.994 142.106 150.538 146.643 148.514 153.078C146.539 159.415 143.385 167.603 138.372 177.297C132.228 189.232 126.334 199.459 122.354 206.863C118.325 214.12 116.016 218.455 116.016 218.455C116.016 218.455 116.898 217.434 118.516 215.438C119.939 213.345 122.243 210.474 124.794 206.872Z" fill="url(#paint28_linear_1309_25812)" fill-opacity="0.3"/>
<path d="M143.13 143.883C143.327 143.494 143.524 143.104 143.671 142.812C143.474 143.201 143.327 143.494 143.13 143.883Z" fill="url(#paint29_linear_1309_25812)" fill-opacity="0.3"/>
<path d="M143.081 143.981L143.13 143.883C143.081 143.981 143.081 143.981 143.081 143.981Z" fill="url(#paint30_linear_1309_25812)" fill-opacity="0.3"/>
<path d="M144.113 142.178C144.014 142.373 143.867 142.666 143.622 142.909C143.769 142.616 143.917 142.324 144.162 142.081L144.113 142.178Z" fill="url(#paint31_linear_1309_25812)" fill-opacity="0.3"/>
<path d="M137.581 140.105C137.531 140.202 137.531 140.202 137.385 140.251C137.434 140.153 137.63 140.007 137.679 139.91L137.581 140.105Z" fill="url(#paint32_linear_1309_25812)" fill-opacity="0.3"/>
<path d="M131.384 139.789C131.433 139.692 131.433 139.692 131.482 139.595L131.384 139.789Z" fill="url(#paint33_linear_1309_25812)" fill-opacity="0.3"/>
<path d="M119.025 142.722C119.074 142.624 119.27 142.478 119.319 142.381C119.123 142.527 119.074 142.624 119.025 142.722Z" fill="url(#paint34_linear_1309_25812)" fill-opacity="0.3"/>
<path d="M118.731 143.062L118.682 143.159C118.78 142.965 118.927 142.916 118.976 142.819C118.83 142.867 118.78 142.965 118.731 143.062Z" fill="url(#paint35_linear_1309_25812)" fill-opacity="0.3"/>
<path d="M120.005 141.749C119.955 141.846 119.955 141.846 119.809 141.895C119.955 141.846 120.005 141.749 120.2 141.603L120.005 141.749Z" fill="url(#paint36_linear_1309_25812)" fill-opacity="0.3"/>
<path d="M69.2396 197.543C67.8166 199.636 66.5885 201.828 65.4578 204.069C64.4254 206.115 63.4422 208.063 62.459 210.012C60.4926 213.909 58.5271 217.562 56.6599 221.02C52.7789 227.985 49.3886 234.22 46.4417 239.334C43.5922 244.497 41.2834 248.588 39.6138 251.412C38.0415 254.286 37.1575 255.796 37.1575 255.796C37.1575 255.796 38.4321 254.239 40.6873 251.465C42.9424 248.691 46.0806 244.652 49.7596 239.541C53.4386 234.43 57.561 228.198 61.7351 221.137C63.8464 217.679 65.7636 213.879 67.7792 209.885C68.7624 207.936 69.6482 205.938 70.5831 203.843C71.0747 202.869 71.3706 202.04 71.9113 200.969C72.4029 199.994 73.0411 198.972 73.5819 197.9C77.4128 191.277 81.486 185.142 84.8745 179.395C88.4578 173.747 91.4539 168.536 94.2525 163.959C96.9536 159.332 99.2624 155.241 101.423 151.686C103.534 148.229 105.351 145.112 107.457 143.118L107.653 142.973C105.449 144.917 103.632 148.034 101.326 151.393C98.8726 155.044 96.2225 159.085 93.2782 163.467C90.1382 167.994 86.5566 173.155 82.4852 178.801C78.4621 184.594 73.9009 190.727 69.2396 197.543Z" fill="url(#paint37_linear_1309_25812)" fill-opacity="0.3"/>
<path d="M71.5791 158.263C71.5299 158.361 71.4808 158.458 71.3342 158.506C71.3342 158.506 71.3342 158.507 71.3833 158.409L71.5791 158.263Z" fill="url(#paint38_linear_1309_25812)" fill-opacity="0.3"/>
<path d="M67.9514 162.789C69.226 161.232 70.4023 159.87 71.432 158.556C70.3049 159.82 69.1286 161.183 67.9514 162.789Z" fill="url(#paint39_linear_1309_25812)" fill-opacity="0.3"/>
<path d="M-32.7946 259.982C-29.6393 264.629 -26.5295 268.399 -23.8569 271.581C-18.609 277.896 -14.9129 281.472 -14.9129 281.472C-14.9129 281.472 -16.6042 276.829 -20.042 269.35C-21.7368 265.683 -24.0143 261.234 -26.6807 256.343C-27.6488 254.144 -27.8812 250.971 -27.7713 247.603C-27.808 244.285 -27.4041 240.577 -26.9018 236.674C-26.0009 230.528 -24.4179 224.726 -22.4944 219.218C-21.5568 216.391 -20.4735 213.76 -19.2928 211.177C-18.1121 208.595 -16.8348 206.306 -15.5084 203.919C-12.8072 199.293 -9.91212 195.009 -6.82393 191.311C-6.4807 190.873 -6.08831 190.337 -5.64765 189.948C-5.15783 189.462 -5.10778 189.121 -4.91113 188.731C-4.42042 188.001 -4.02714 187.221 -3.58559 186.588C-2.65333 185.225 -1.77022 183.96 -0.887117 182.694L-0.7888 182.499C-1.62274 183.667 -2.60328 184.884 -3.5847 186.344C-4.07541 187.075 -4.56611 187.805 -5.05684 188.535L-5.40006 188.973C-5.49839 189.168 -5.59671 189.363 -5.84162 189.606C-6.33144 190.092 -6.67467 190.53 -7.16449 191.017C-10.595 194.908 -14.1247 199.239 -17.4605 203.912C-18.2945 205.08 -19.1776 206.346 -19.9141 207.564C-20.6997 208.878 -21.4854 210.193 -22.2711 211.508C-23.7942 214.284 -25.3172 217.061 -26.6454 219.935C-27.9737 222.81 -29.2536 225.831 -30.3387 228.951C-31.473 232.168 -32.4123 235.483 -33.1077 238.799C-33.9524 242.896 -34.5521 246.749 -34.5163 250.312C-34.6271 253.923 -34.3463 257.243 -32.7946 259.982Z" fill="url(#paint40_linear_1309_25812)" fill-opacity="0.3"/>
<path d="M-49.4239 256.358C-45.2191 267.647 -36.8008 274.462 -30.618 278.682C-24.1912 282.902 -19.561 284.627 -19.561 284.627C-19.561 284.627 -22.5751 281.395 -27.1919 276.01C-31.7595 270.527 -38.1247 262.793 -43.554 252.719C-45.6376 248.612 -47.2332 244.507 -48.1459 240.501C-49.0585 236.496 -49.3849 232.298 -48.9317 228.493C-48.9738 226.638 -48.4786 224.687 -48.0818 222.932C-47.6357 221.079 -47.2389 219.323 -46.7938 217.715C-45.4146 214.254 -44.0364 211.038 -42.709 208.408L-42.6107 208.213C-43.9381 210.843 -45.4137 214.01 -47.1844 217.762C-47.8253 219.517 -48.4661 221.271 -49.1079 223.27C-49.7496 225.268 -50.538 227.315 -50.8383 229.364C-51.1878 231.51 -51.5372 233.656 -51.985 235.997C-51.993 238.193 -52.0502 240.487 -52.1074 242.781C-51.9277 247.027 -51.1151 251.716 -49.4239 256.358Z" fill="url(#paint41_linear_1309_25812)" fill-opacity="0.3"/>
<path d="M-35.6191 298.283C-35.6191 298.283 -38.0477 295.102 -42.3239 290.011C-46.6001 284.919 -52.7248 278.162 -59.9195 270.376C-65.7045 264.156 -70.0263 258.186 -72.446 252.565C-74.8166 246.846 -74.9418 241.038 -73.8496 235.966L-73.8487 235.722C-74.8918 240.697 -75.7936 247.087 -74.5001 253.729C-73.1584 260.518 -70.1585 267.654 -65.2557 274.895C-59.139 283.849 -51.2525 289.295 -45.556 293.025C-39.5663 296.658 -35.6191 298.283 -35.6191 298.283Z" fill="url(#paint42_linear_1309_25812)" fill-opacity="0.3"/>
<path d="M34.8771 228.882C36.4613 228.254 37.963 227.625 39.2993 226.993C37.8821 227.541 36.4631 228.172 34.8771 228.882Z" fill="url(#paint43_linear_1309_25812)" fill-opacity="0.3"/>
<path d="M39.4664 226.913C39.3838 226.912 39.2993 226.992 39.2167 226.991L39.4664 226.913Z" fill="url(#paint44_linear_1309_25812)" fill-opacity="0.3"/>
<path d="M61.0259 197.037C59.271 197.909 57.1838 198.856 55.0123 199.884C46.0798 203.908 33.8421 207.862 20.4004 210.136C9.5293 212.051 0.759572 212.359 -6.26419 212.208C-12.8677 211.736 -18.149 211.291 -22.0203 210.63L-22.1856 210.626C-18.3143 211.288 -13.2915 212.222 -6.95016 213.351C-5.38549 213.632 -3.65377 213.835 -1.75678 214.041C0.140211 214.247 2.12161 214.372 4.27005 214.418C8.56516 214.593 13.3614 214.531 18.6624 214.066C31.9138 212.946 45.0819 208.02 54.456 202.683C56.8017 201.245 58.9786 199.97 60.8214 198.852C62.6678 197.569 64.2663 196.28 65.6098 195.317C66.8706 194.352 67.88 193.547 68.5536 192.983C69.2271 192.419 69.563 192.178 69.563 192.178C69.563 192.178 68.1386 193.057 65.6294 194.408C64.3739 195.125 62.7825 196.083 61.0259 197.037Z" fill="url(#paint45_linear_1309_25812)" fill-opacity="0.3"/>
<path d="M80.5127 171.251L80.6851 170.924C80.5989 171.087 80.5127 171.251 80.3457 171.33C80.4283 171.332 80.4283 171.332 80.5127 171.251Z" fill="url(#paint46_linear_1309_25812)" fill-opacity="0.3"/>
<path d="M76.7142 174.889C75.2828 176.098 73.6896 177.139 72.0103 178.343C68.6552 180.585 64.9677 182.903 60.788 185.046C58.6955 186.241 56.524 187.269 54.268 188.378C52.012 189.486 49.5907 190.592 47.1694 191.697C42.2461 193.823 36.9993 195.612 31.5153 196.9C17.9714 200.081 6.71028 200.913 -1.32109 201.485C-9.35067 201.974 -14.0625 201.955 -14.0625 201.955C-14.0625 201.955 -13.0781 202.307 -11.1864 202.761C-9.29475 203.215 -6.41328 203.773 -2.70193 204.183C4.80516 204.923 15.8797 205.078 30.273 200.841C36.0156 199.063 41.5209 196.784 46.6185 194.248C51.7196 191.547 56.3195 189.083 60.5099 186.445C64.6985 183.89 68.4739 181.325 71.8326 178.917C74.4405 176.824 76.876 175.058 78.9036 173.035L78.8192 173.116C78.1457 173.68 77.4722 174.244 76.7142 174.889Z" fill="url(#paint47_linear_1309_25812)" fill-opacity="0.3"/>
<path d="M95.0825 124.278C94.9083 124.688 94.7359 125.015 94.4809 125.34C94.7359 125.015 94.9101 124.605 95.0825 124.278Z" fill="url(#paint48_linear_1309_25812)" fill-opacity="0.3"/>
<path d="M95.0825 124.278C95.1705 124.032 95.2567 123.868 95.3446 123.622C95.2584 123.786 95.1705 124.032 95.0825 124.278Z" fill="url(#paint49_linear_1309_25812)" fill-opacity="0.3"/>
<path d="M94.4809 125.34C94.4791 125.422 94.3946 125.503 94.3928 125.586C94.4773 125.505 94.4791 125.422 94.4809 125.34Z" fill="url(#paint50_linear_1309_25812)" fill-opacity="0.3"/>
<path d="M95.7792 122.64C95.6895 122.968 95.517 123.295 95.3446 123.622C95.4308 123.459 95.5189 123.213 95.605 123.049L95.7792 122.64Z" fill="url(#paint51_linear_1309_25812)" fill-opacity="0.3"/>
<path d="M94.4191 112.856C94.2485 113.1 94.1605 113.346 93.9882 113.673C94.1605 113.346 94.4173 112.938 94.5897 112.611L94.4191 112.856Z" fill="url(#paint52_linear_1309_25812)" fill-opacity="0.3"/>
<path d="M97.3861 82.5805C97.3772 82.9936 97.3665 83.4894 97.3576 83.9025C97.3648 83.572 97.3701 83.3241 97.3772 82.9936L97.3861 82.5805Z" fill="url(#paint53_linear_1309_25812)" fill-opacity="0.3"/>
<path d="M97.3396 84.7289C97.345 84.481 97.3503 84.2332 97.3556 83.9853C97.3503 84.2332 97.3467 84.3984 97.3396 84.7289Z" fill="url(#paint54_linear_1309_25812)" fill-opacity="0.3"/>
<path d="M93.9222 97.5515C92.8807 99.8438 91.7531 102.3 90.3812 104.585C89.011 106.787 87.6355 109.238 86.0192 111.353C79.6277 120.226 71.3482 128.48 61.2579 136.365C54.9501 141.355 49.1613 145.281 43.7927 148.886C38.4277 152.325 33.6536 155.199 29.6338 157.592C22.8534 161.497 18.2499 164.126 16.9944 164.843C17.3338 164.437 17.5906 164.03 17.93 163.624L17.9282 163.706C17.9282 163.706 17.9282 163.706 17.93 163.624C21.3314 159.233 24.6484 154.922 27.8019 150.526C29.9336 147.513 31.9808 144.581 34.0281 141.649C35.5315 140.937 38.7071 139.352 43.1507 136.472C46.2526 134.472 50.0316 131.742 54.2433 128.113C58.3724 124.481 62.8516 119.948 67.2784 114.009C70.9348 109.292 73.8564 104.147 76.2805 99.0739C77.4117 96.4528 78.5411 93.9144 79.4261 91.2054C80.392 88.5808 81.0292 85.8665 81.6664 83.1522C83.7716 73.6906 83.3152 64.1741 81.5784 56.5314C83.2343 64.0897 83.3673 73.2686 81.1901 82.2326C78.654 92.5115 73.6424 102.572 66.4264 111.345C62.0911 116.873 57.6963 121.326 53.7307 125.043C52.7178 126.013 51.7892 126.903 50.7781 127.79C49.8513 128.597 48.9246 129.404 47.9978 130.211C46.2287 131.743 44.5458 133.112 42.9473 134.401C39.9174 136.898 37.3975 138.746 35.7163 140.032C35.2116 140.435 34.7087 140.754 34.3729 140.995C36.2531 138.142 38.1315 135.372 39.8447 132.598C41.7266 129.662 43.359 126.804 44.9895 124.029C45.7634 122.64 46.62 121.253 47.3939 119.864C48.1679 118.475 48.8592 117.085 49.5488 115.777C50.9278 113.161 52.1399 110.625 53.1866 108.085C53.1866 108.085 53.1866 108.085 53.1884 108.002C54.3196 105.381 55.3663 102.841 56.2443 100.462C57.9984 95.7878 59.3304 91.5177 60.1524 87.898C60.3337 87.1579 60.5132 86.5004 60.6118 85.7585C60.698 85.595 60.6998 85.5124 60.786 85.3489C61.0517 84.528 61.4916 83.2974 61.9403 81.6537C62.3891 80.01 62.6797 78.0323 62.9774 75.724C63.085 74.5689 63.1134 73.2469 63.1419 71.9248C63.1704 70.6027 62.9528 69.1927 62.8195 67.7018C62.7618 66.5432 62.4562 65.3793 62.2332 64.2172C62.0085 63.1377 61.7837 62.0582 61.4745 61.0596C60.7735 59.0605 60.3187 57.1494 59.6088 55.5634C58.3579 52.2299 56.8377 49.8825 56.0523 47.9643L55.9715 47.8799C56.8395 49.7999 58.0274 52.2228 58.8669 55.4648C59.8717 58.7104 60.4473 62.6909 60.68 67.2425C60.9721 72.8702 60.5384 77.6556 60.4654 81.0434C60.3454 82.7768 60.2343 84.0971 60.2129 85.0886C60.1933 85.9976 60.0982 86.5742 60.0982 86.5742C60.0982 86.5742 60.1862 86.3281 60.3586 86.0011C60.2635 86.5777 60.0858 87.1526 59.9063 87.8101C59.4504 89.7843 58.8239 92.0028 58.113 94.3023C58.1184 94.0544 58.2081 93.7256 58.2979 93.3969C58.4019 92.4071 58.68 91.0077 58.7192 89.1899C58.961 85.6404 58.7355 80.7582 57.3584 75.6033C56.7419 73.5233 56.2026 71.6931 55.4945 70.0245C55.1818 69.1911 54.8672 68.4403 54.5545 67.607C54.24 66.8562 53.8411 66.1863 53.5248 65.5182C52.9748 64.1837 52.256 63.0109 51.7834 61.9261C51.5462 61.425 51.3107 60.8412 51.1561 60.3419C50.9998 59.9252 50.8452 59.4259 50.8523 59.0954C50.8452 59.4259 51.0016 59.8426 51.1579 60.2593C51.3125 60.7586 51.4653 61.3405 51.7008 61.9243C52.089 63.0899 52.6407 64.3418 53.0219 65.838C53.2537 66.587 53.4856 67.336 53.7157 68.1676C53.9458 68.9992 54.0933 69.8291 54.3216 70.7433C54.5499 71.6576 54.7783 72.5718 54.9204 73.6495C55.0643 74.6446 55.3717 75.7259 55.4312 76.8019C56.2244 82.1923 56.6223 86.7475 57.1331 89.8998C57.4085 92.4684 57.7843 94.2125 57.8562 94.7101C57.2387 96.5155 56.6193 98.4035 55.8329 100.371C55.0429 102.503 54.0841 104.797 53.0427 107.089C53.1307 106.843 53.1378 106.513 53.2293 106.101C53.5039 104.867 53.791 103.055 54.0869 100.829C54.5962 96.376 54.9794 90.1016 53.7978 83.5455C52.9202 78.2359 51.5236 73.9899 50.19 70.6545C49.1745 67.9047 48.0639 65.7315 47.3594 63.8977C47.9813 65.7297 48.8422 67.9802 49.6044 70.9726C50.6021 74.5487 51.4958 79.1147 51.8724 84.6615C52.3031 91.5321 52.4246 97.4041 52.5835 101.541C52.7043 103.61 52.7513 105.264 52.8091 106.423C52.7966 107.001 52.8703 107.416 52.8632 107.747C51.7338 110.285 50.4356 112.985 49.0547 115.684C48.3652 116.992 47.5913 118.38 46.8999 119.771C46.126 121.16 45.3538 122.466 44.4955 123.935C42.8649 126.711 41.1482 129.65 39.3506 132.505C37.3825 135.604 35.3316 138.701 33.1156 141.795C32.8641 141.955 32.7797 142.036 32.7797 142.036C32.7797 142.036 32.8641 141.955 33.0294 141.958C31.1527 144.646 29.1917 147.415 27.2306 150.183C26.7188 150.916 26.1226 151.73 25.5281 152.461C25.7112 151.639 26.7918 147.528 28.003 141.189C29.313 134.108 30.6008 124.215 30.4998 113.549C30.437 104.95 29.6758 98.0727 28.7999 92.6805C28.361 90.0258 27.9151 87.7015 27.5446 85.7095C27.4727 85.212 27.4007 84.7144 27.327 84.2995C27.2532 83.8846 27.1795 83.4697 27.1058 83.0547C27.1093 82.8895 27.032 82.6398 27.0356 82.4746C27.032 82.6398 27.0285 82.8051 27.0249 82.9703C27.0898 83.7984 27.2354 84.7109 27.2967 85.7042C27.5845 87.6944 27.8635 90.0977 28.0508 92.9124C28.51 98.461 28.6839 105.739 28.163 114.574C27.5131 125.554 26.6456 135.125 26.1673 141.976C25.7033 148.166 25.4562 151.964 25.4419 152.625C22.9744 155.879 20.4225 159.213 17.8705 162.548C18.1594 160.652 18.6579 156.695 19.1904 151.168C19.3157 149.187 19.5254 147.124 19.6579 144.813C19.7904 142.501 19.9246 140.106 20.1468 137.466C20.1753 136.144 20.3673 134.908 20.4784 133.587C20.6739 132.186 20.873 130.62 20.9877 129.134C21.1023 127.649 21.217 126.163 21.3317 124.678C21.3637 123.19 21.4802 121.622 21.514 120.052C21.8946 110.058 21.6576 101.869 21.3815 95.4972C21.1702 89.954 20.9322 85.6501 21.5712 82.8532C20.8496 85.6484 20.8415 89.8642 20.7204 95.483C20.5781 102.093 20.2295 110.601 19.1807 120.911C18.946 124.13 18.5496 127.181 18.2376 130.15C18.0403 131.634 17.8448 133.035 17.7319 134.438C17.6173 135.923 17.42 137.407 17.3915 138.729C17.195 144.016 17.2659 148.399 17.2684 152.119C17.3536 155.84 17.4566 158.736 17.4965 160.721C17.5596 161.632 17.5435 162.375 17.6155 162.873C16.1698 164.743 14.6415 166.612 13.1958 168.482C11.3281 170.756 9.3759 173.112 7.50815 175.386C7.68765 174.729 8.04131 173.662 8.48651 172.183C9.2836 169.721 10.2726 166.022 11.3621 161.498C11.9077 159.195 12.3743 156.725 12.8444 154.09C13.0382 152.772 13.2337 151.371 13.4292 149.969C13.5421 148.567 13.655 147.164 13.7696 145.678C13.9972 142.79 14.1439 139.817 14.2942 136.679C14.4427 133.623 14.7618 130.323 15.0844 126.858C15.9839 115.8 16.7653 106.393 16.9219 99.1214C17.1611 91.8519 16.8601 86.6374 17.7559 83.4326C16.9427 86.6391 16.915 91.7639 16.0956 99.1037C15.4396 106.53 13.9919 116.171 12.1727 127.705C11.683 131.249 11.1124 134.709 10.9568 138.095C10.8048 141.316 10.6563 144.371 10.4305 147.177C10.4003 148.582 10.2874 149.985 10.2589 151.307C10.1478 152.627 10.0367 153.947 9.84472 155.183C9.62607 157.658 9.40921 160.051 9.0324 162.192C8.13565 169.283 7.5384 173.982 7.34109 175.465C6.83106 176.116 6.2384 176.764 5.72837 177.415C3.18354 180.419 0.63871 183.423 -1.98876 186.425C-2.15935 186.669 -2.41258 186.912 -2.58319 187.156C-2.40368 186.499 -2.05003 185.432 -1.68745 183.952C-0.969454 181.322 0.0213833 177.54 0.949157 172.848C1.95956 168.158 3.07397 162.478 3.95114 156.297C4.34931 153.164 4.74923 149.948 5.07009 146.566C5.38918 143.266 5.87889 139.722 6.37214 136.012C7.86791 124.14 8.82873 114.076 9.16308 106.229C9.32758 102.43 9.40056 99.0425 9.55082 95.9044C9.58286 94.4171 9.69396 93.0968 9.80328 91.8591C9.89838 91.2825 9.99169 90.7885 10.0868 90.2118C9.99347 90.7059 9.90194 91.1172 9.80863 91.6112C9.6993 92.8489 9.50556 94.1674 9.39089 95.6529C9.16155 98.624 8.83891 102.089 8.42117 106.131C7.50305 114.213 5.87761 124.428 3.4622 136.777C2.8019 140.565 2.06076 144.269 1.65548 147.732C1.33461 151.115 0.932878 154.413 0.536498 157.463C-0.177194 163.731 -0.873081 169.172 -1.38235 173.625C-2.11562 180.801 -2.63379 185.667 -2.75202 187.318C-5.12445 189.995 -7.49512 192.59 -9.86756 195.267C-11.5629 197.214 -13.2565 199.079 -15.0309 200.86C-14.6559 198.801 -13.9778 194.186 -13.3468 187.917C-12.9219 183.545 -12.5619 178.345 -12.5217 172.641C-12.4594 169.749 -12.478 166.773 -12.5774 163.712C-12.6262 162.14 -12.6768 160.651 -12.5586 159.001C-12.4404 157.35 -12.4048 155.697 -12.2848 153.964C-11.6295 142.735 -11.0926 133.157 -10.6774 125.395C-10.5111 121.514 -10.2693 117.964 -10.0364 114.828C-9.72086 111.693 -9.49687 108.97 -8.53808 106.676L-8.4501 106.43C-9.49152 108.722 -9.71553 111.445 -10.2807 114.657C-10.6807 117.873 -11.0895 121.501 -11.5881 125.458C-12.5888 133.538 -13.8766 143.431 -15.4515 155.136C-15.6559 156.95 -15.8585 158.682 -16.0612 160.413C-16.2638 162.145 -16.3012 163.88 -16.2524 165.452C-16.2374 168.594 -16.1362 171.572 -16.1141 174.383C-15.9872 180.007 -15.9287 184.968 -15.7698 189.105C-15.6935 193.24 -15.515 196.468 -15.3978 198.703C-15.3383 199.778 -15.2735 200.607 -15.286 201.185C-16.1319 202.076 -16.9778 202.967 -17.7428 203.943C-18.3355 204.591 -18.8455 205.242 -19.4382 205.89C-19.5101 205.393 -19.5714 204.4 -19.6202 202.828C-19.7374 200.593 -19.8351 197.45 -19.9975 193.478C-20.326 185.701 -20.7522 174.779 -21.2973 161.706C-21.9027 143.754 -20.19 129.49 -18.0812 119.863C-18.4385 121.095 -18.7148 122.412 -19.0756 123.81C-19.639 126.939 -20.7089 130.553 -21.2902 134.509C-22.7849 142.495 -23.9847 152.142 -24.552 163.124C-25.1744 176.668 -24.0028 187.523 -22.5068 194.83C-21.7588 198.483 -21.0774 201.391 -20.4572 203.306C-19.9917 204.721 -19.679 205.555 -19.5226 205.971C-21.3024 208 -22.9977 209.947 -24.6967 212.06C-24.7668 211.48 -24.8335 210.735 -24.9774 209.739C-25.1808 207.668 -25.4454 204.604 -25.8611 200.875C-25.9855 198.971 -26.1871 196.817 -26.3869 194.581C-26.5868 192.345 -26.8675 190.024 -27.229 187.619C-27.8677 182.728 -28.661 177.337 -29.6124 171.613C-29.9757 169.29 -30.1756 167.054 -30.5425 164.897C-30.7423 162.661 -30.944 160.507 -31.0647 158.438C-31.3889 154.297 -31.4723 150.493 -31.4784 146.938C-31.3271 139.915 -30.4481 133.651 -28.0365 129.156L-27.9486 128.91C-30.3602 133.405 -31.6523 139.66 -32.4735 147.082C-32.8841 150.793 -33.0558 154.923 -33.2327 159.3C-33.2808 161.531 -33.3288 163.762 -33.2978 166.16C-33.1824 168.478 -33.1531 170.958 -33.0413 173.441C-32.5946 179.568 -31.8839 184.956 -30.9955 189.77C-30.3622 194.909 -29.3805 199.229 -28.4619 202.638C-27.5433 206.047 -26.6069 208.63 -25.9005 210.381C-25.5878 211.214 -25.2715 211.883 -25.0343 212.384C-25.1205 212.547 -25.2876 212.626 -25.3737 212.79C-26.6524 214.581 -27.9293 216.289 -29.2061 217.998C-29.3625 217.581 -29.5171 217.082 -29.7525 216.498C-30.3744 214.666 -31.2264 212.003 -32.2277 208.592C-33.2271 205.098 -34.2159 201.109 -35.1043 196.295C-35.5485 193.888 -35.9891 191.316 -36.3435 188.581C-36.5612 187.17 -36.6962 185.762 -36.9138 184.352C-37.1315 182.942 -37.4353 181.696 -37.6529 180.286C-39.2822 171.488 -40.0185 163.453 -39.7037 156.516C-39.3872 149.496 -37.9334 143.41 -35.9349 138.906L-35.847 138.66C-37.7628 143.166 -39.7124 149.241 -40.6163 156.662C-41.1095 160.371 -41.3602 164.334 -41.451 168.548C-41.4973 170.696 -41.4609 172.846 -41.3455 175.164C-41.2877 176.322 -41.2283 177.398 -41.1723 178.639C-41.1848 179.218 -41.032 179.8 -41.0462 180.461C-41.0604 181.122 -41.0747 181.783 -41.0889 182.444C-41.0678 189.14 -40.1955 194.698 -38.9712 199.271C-37.6661 203.928 -35.9301 207.768 -34.4224 210.694C-32.832 213.621 -31.3891 215.719 -30.3452 217.147C-29.9427 217.652 -29.6211 218.072 -29.3803 218.408C-30.2315 219.547 -31.0001 220.688 -31.7687 221.828C-31.9393 222.073 -32.1117 222.4 -32.2823 222.644C-32.5213 222.226 -32.922 221.638 -33.4 220.801C-33.8798 220.047 -34.4387 219.126 -35.0784 218.12C-35.7163 217.032 -36.3524 215.86 -37.1503 214.521C-38.6616 211.76 -40.3256 208.418 -42.1425 204.493C-43.0088 202.491 -43.8732 200.405 -44.815 198.071C-45.2859 196.903 -45.6741 195.737 -46.0606 194.489C-46.4471 193.241 -46.8353 192.075 -47.22 190.744C-48.3705 186.586 -49.1096 182.52 -49.3512 178.381C-49.4719 176.312 -49.5118 174.327 -49.4673 172.261C-49.5952 170.522 -49.8075 168.864 -49.8563 167.293C-50.0498 160.923 -49.3522 155.399 -48.268 151.124L-48.2645 150.959C-49.3468 155.152 -50.4612 160.832 -50.9359 167.518C-50.9537 168.344 -51.0559 169.251 -51.0737 170.077C-51.0826 170.49 -51.1777 171.067 -51.271 171.561C-51.3661 172.138 -51.4594 172.632 -51.4719 173.21C-51.7678 175.436 -51.9812 177.663 -52.0292 179.894C-52.2097 184.437 -51.9753 188.906 -51.0043 193.722C-48.6919 205.345 -43.5493 212.234 -39.4294 216.704C-36.1971 220.163 -33.592 222.037 -32.6129 222.637C-33.3832 223.86 -34.0692 225.003 -34.8396 226.226C-35.3675 227.703 -36.3911 229.169 -37.1703 230.806C-37.9479 232.36 -38.808 233.912 -39.5837 235.383C-40.0129 236.118 -40.3595 236.855 -40.7904 237.672C-41.137 238.409 -41.4853 239.228 -41.8319 239.964C-43.1372 242.995 -44.5234 245.941 -45.4138 248.898C-45.9416 250.375 -46.4677 251.769 -46.9129 253.247C-47.3563 254.643 -47.7188 256.123 -48.0796 257.521C-51.1294 268.615 -51.8316 278.19 -51.7226 284.64C-51.6267 287.866 -51.434 290.433 -51.2217 292.091C-51.0094 293.749 -50.8619 294.579 -50.8619 294.579C-50.7918 295.159 -50.3084 295.748 -49.8899 295.509C-49.7229 295.43 -49.5523 295.186 -49.4625 294.857C-49.3745 294.611 -49.3692 294.363 -49.3621 294.032C-49.3621 294.032 -49.4412 293.865 -49.5149 293.45C-49.5886 293.035 -49.6588 292.455 -49.8063 291.625C-49.9537 290.796 -50.015 289.802 -50.0709 288.561C-50.1269 287.32 -50.1792 285.913 -50.3107 284.34C-50.4215 277.972 -49.8055 268.561 -46.8419 257.63C-46.4811 256.233 -46.1203 254.835 -45.6769 253.439C-45.2335 252.043 -44.7075 250.649 -44.1796 249.173C-43.6465 247.448 -42.9462 245.644 -42.1652 243.925C-42.0053 244.177 -41.8453 244.428 -41.6045 244.764C-40.7241 246.105 -39.4375 247.786 -37.4953 249.73C-33.609 253.533 -27.4988 257.715 -19.5351 260.283C-17.9757 260.813 -16.4164 261.342 -14.9379 261.788C-13.4594 262.233 -11.9774 262.512 -10.6624 262.871C-7.86531 263.51 -5.40236 264.307 -3.18017 264.768C1.34681 265.692 5.04926 266.516 7.67571 267.399L7.84097 267.402C5.13011 266.6 1.60006 265.449 -2.83185 263.949C-5.04868 263.24 -7.33927 262.116 -9.96215 261.068C-11.2736 260.544 -12.585 260.019 -14.0582 259.326C-15.4487 258.635 -16.8374 257.861 -18.3088 257.086C-25.5883 253.457 -31.7092 249.771 -36.0336 247.116C-38.1536 245.747 -39.9483 244.634 -41.0874 243.783C-41.4126 243.528 -41.6569 243.357 -41.9013 243.187C-41.4667 242.204 -41.0322 241.221 -40.5959 240.156C-40.2494 239.42 -39.9837 238.599 -39.6371 237.862C-39.2906 237.126 -38.8614 236.391 -38.5149 235.654C-37.9115 234.51 -37.3082 233.365 -36.703 232.138C-36.2322 233.306 -34.8897 236.228 -32.1496 239.511C-30.3762 241.616 -28.0261 243.816 -25.0941 245.863C-22.0794 247.911 -18.4791 249.642 -14.3742 250.97C-7.7237 253.097 -1.70754 253.97 3.07625 254.486C5.47081 254.621 7.69657 254.916 9.67796 255.042C11.6611 255.084 13.312 255.202 14.7132 255.398L14.8785 255.401C13.3946 255.204 11.7438 255.086 9.84679 254.88C7.95156 254.591 5.7294 254.13 3.34196 253.665C-1.26411 252.575 -6.85109 250.966 -12.9054 248.026C-20.4346 244.475 -26.3814 240.379 -30.5298 237.231C-33.7817 234.681 -35.8892 232.735 -36.6169 231.975C-36.4462 231.731 -36.3565 231.402 -36.1859 231.158C-35.4084 229.604 -34.4674 228.136 -33.5246 226.585C-33.1816 226.014 -32.8386 225.443 -32.413 224.873C-30.3953 227.149 -27.4757 229.774 -23.401 232.507C-19.0802 235.328 -13.4355 238.094 -6.20656 240.234C-1.85374 241.567 2.67505 242.408 6.63251 242.907C10.6726 243.407 14.0588 243.562 17.197 243.712C17.9407 243.728 18.6826 243.827 19.3437 243.841C20.0047 243.855 20.6658 243.87 21.246 243.799C22.4046 243.742 23.3962 243.763 24.2225 243.781C25.7943 243.732 26.6207 243.749 26.7895 243.588C26.7895 243.588 26.4572 243.663 26.1302 243.491C25.7188 243.399 25.144 243.222 24.4038 243.041C23.6637 242.859 22.6757 242.673 21.605 242.484C21.0283 242.389 20.4517 242.294 19.7924 242.197C19.1349 242.018 18.4756 241.921 17.8181 241.742C14.9367 241.184 11.4786 240.531 7.77436 239.79C3.9875 239.047 -0.21075 238.213 -4.73596 237.207C-8.43841 236.383 -11.7277 235.568 -14.6829 234.595C-17.6381 233.623 -20.2627 232.657 -22.5533 231.533C-26.9727 229.454 -30.3144 227.233 -32.3304 224.875C-31.7306 223.896 -31.2152 222.998 -30.6154 222.018C-30.2724 221.447 -29.8486 220.96 -29.5056 220.389C-28.8606 221.147 -26.6758 223.343 -22.5958 225.828C-20.0644 227.288 -16.9564 228.843 -13.182 230.164C-11.2957 230.866 -9.24056 231.406 -7.02195 232.032C-5.95307 232.303 -4.79977 232.493 -3.64826 232.766C-2.49496 232.956 -1.34345 233.229 -0.105749 233.338C1.79124 233.544 3.76909 233.835 5.66608 234.041C7.56306 234.247 9.37919 234.368 11.0301 234.486C12.6809 234.605 14.4162 234.642 15.9036 234.674C16.3168 234.683 16.6455 234.772 17.1449 234.618C17.6425 234.546 18.1418 234.391 18.5567 234.318C19.471 234.089 20.468 233.863 21.3823 233.634C23.1247 233.341 24.9604 232.554 26.6255 232.011C28.2906 231.468 29.8731 230.923 31.3729 230.377C32.6249 229.825 33.7922 229.354 34.8771 228.882C31.1266 230.289 26.7997 231.601 21.9874 232.407C20.245 232.7 18.5044 232.911 16.6829 233.037L15.2746 233.172C14.8614 233.163 14.5327 233.074 14.1195 233.065C13.3776 232.966 12.553 232.866 11.7303 232.683C8.5183 232.118 4.97934 231.38 1.28046 230.392C0.128945 230.119 -1.0208 229.764 -2.0879 229.41C-3.23764 229.055 -4.3083 228.866 -5.29277 228.514C-7.34434 227.809 -9.31862 227.353 -11.2067 226.734C-14.9865 225.661 -18.2668 224.433 -21.0585 223.546C-25.5713 221.961 -28.6038 220.739 -29.5056 220.389C-29.1644 219.9 -28.825 219.494 -28.4838 219.006L-28.4029 219.09L-28.4011 219.007C-27.3793 217.624 -26.3574 216.241 -25.3356 214.857C-23.8607 215.468 -22.1379 216.083 -20.0881 216.871C-18.0383 217.659 -15.7406 218.453 -13.1177 219.501C-7.86658 221.35 -1.30047 223.558 6.42961 225.46C6.75837 225.549 7.00447 225.637 7.335 225.644L8.32481 225.748C8.98409 225.845 9.72779 225.861 10.3888 225.875C11.7936 225.906 13.1157 225.934 14.5205 225.964C17.2491 225.94 19.9831 225.668 22.5518 225.393C27.7755 224.678 32.6793 223.461 36.9273 221.981C39.011 221.199 40.9257 220.579 42.5944 219.871C44.2649 219.08 45.7683 218.369 46.9394 217.732C49.2798 216.543 50.6179 215.827 50.6179 215.827C50.6179 215.827 49.3695 216.214 47.2068 216.829C46.1255 217.136 44.7945 217.521 43.2138 217.983C41.7175 218.364 39.9733 218.74 37.9812 219.111C30.2573 220.763 19.8997 221.864 8.5755 221.786C7.41865 221.761 6.34443 221.738 5.27021 221.715C4.19777 221.609 3.03912 221.667 2.21636 221.484C0.405555 221.114 -1.40702 220.827 -3.05433 220.544C-6.42979 219.893 -9.55738 219.247 -12.3544 218.608C-18.0311 217.329 -22.224 216.247 -25.2565 215.024L-25.3392 215.022C-24.9135 214.453 -24.5723 213.964 -24.1467 213.395C-21.8516 210.468 -19.3103 207.629 -16.8499 204.706C-14.2242 201.786 -11.6003 198.949 -8.97463 196.03C-7.8737 194.813 -6.77278 193.597 -5.67008 192.298C-5.17606 192.391 -4.27068 192.576 -2.95034 192.687C-0.888085 192.897 2.2484 193.13 6.38713 192.888C14.5802 192.485 26.8597 190.434 41.8812 183.896C53.9031 178.45 64.2093 172.058 72.6958 165.709C81.1823 159.361 87.8508 152.973 92.7521 148.036L93.0053 147.794C88.0196 152.812 81.3618 158.703 72.9721 164.393C64.5825 170.082 54.4612 175.568 42.7894 180.112C28.452 185.591 16.1513 188.634 7.60096 190.269C0.71042 191.609 -3.92948 192.087 -5.42041 192.221C-3.97829 190.516 -2.4553 188.895 -1.01317 187.19C0.851014 185.081 2.63259 182.97 4.41414 180.859C5.24224 180.794 9.62709 180.64 16.7638 179.388C20.7479 178.647 25.6499 177.512 31.3099 175.732C36.8889 173.868 43.5636 171.036 50.5182 166.721C61.744 159.853 71.08 152.448 78.6771 145.171C82.4756 141.533 85.861 137.885 88.7488 134.31C90.191 132.605 91.554 130.733 92.75 128.94C93.4325 127.963 94.0323 126.983 94.6338 125.922C94.1184 126.82 93.5204 127.716 92.9224 128.613C91.7282 130.323 90.3651 132.195 88.9248 133.818C85.9579 137.226 82.5796 140.543 78.7882 143.851C71.2053 150.467 61.8063 156.961 50.8462 163.008C43.9849 166.829 37.8922 169.508 32.3078 171.62C26.7234 173.733 21.7281 175.361 17.5644 176.76C13.4025 178.076 10.0723 179.162 7.74257 179.855C5.99483 180.397 4.82907 180.785 4.41414 180.859C5.17741 179.966 5.85804 179.071 6.62131 178.178C8.23226 176.311 9.76058 174.443 11.2889 172.574C12.7816 172.358 16.6814 171.698 22.5892 169.924C30.1604 167.689 41.0725 163.873 53.8124 155.797C64.0377 149.321 72.6246 142.148 79.478 134.855C86.0782 127.805 90.9502 120.387 94.3135 113.928C90.952 120.304 86.008 127.224 79.5083 133.45C72.6691 140.082 64.1844 146.348 54.2247 152.003C41.8403 158.929 31.0703 163.823 23.2264 167.209C17.3834 169.812 13.2126 171.541 11.5439 172.249C12.3934 171.193 13.3255 170.138 14.1767 168.999C15.1968 167.698 16.2169 166.397 17.2351 165.179C17.6519 165.023 18.7332 164.715 20.3175 164.088C22.4837 163.308 25.6504 162.136 29.6577 160.321C33.665 158.506 38.5111 156.13 43.9534 152.94C49.3993 149.585 55.4378 145.581 61.7545 140.178C71.8608 131.55 80.2408 122.471 86.4812 112.933C87.2516 111.71 88.0202 110.569 88.7079 109.344C89.3957 108.118 90.0834 106.893 90.7712 105.668C92.1449 103.3 93.1935 100.677 94.2367 98.3023C95.2816 95.8447 95.9997 93.2148 96.7123 90.8327C97.0731 89.4352 97.3513 88.0358 97.5468 86.6346C97.3548 87.8705 97.0785 89.1873 96.8039 90.4214C95.6816 92.6293 94.8845 95.0922 93.9222 97.5515Z" fill="url(#paint55_linear_1309_25812)" fill-opacity="0.3"/>
<path d="M97.2303 85.9665C97.3219 85.5551 97.3325 85.0594 97.3414 84.6462C97.3308 85.142 97.2392 85.5534 97.2303 85.9665Z" fill="url(#paint56_linear_1309_25812)" fill-opacity="0.3"/>
<path d="M97.1387 86.3779C97.1422 86.2127 97.144 86.1301 97.1476 85.9648C97.144 86.1301 97.1404 86.2953 97.1387 86.3779Z" fill="url(#paint57_linear_1309_25812)" fill-opacity="0.3"/>
<path d="M88.9226 87.8548C88.9173 88.1027 88.8293 88.3488 88.8258 88.5141C88.912 88.3506 88.9173 88.1027 88.9226 87.8548Z" fill="url(#paint58_linear_1309_25812)" fill-opacity="0.3"/>
<path d="M89.0372 86.3693C89.0319 86.6172 89.0265 86.8651 89.0194 87.1956C89.023 87.0304 89.0265 86.8651 89.0301 86.6999L89.0372 86.3693Z" fill="url(#paint59_linear_1309_25812)" fill-opacity="0.3"/>
<path d="M88.8136 89.0921C88.8172 88.9269 88.8207 88.7616 88.9069 88.5981C88.9034 88.7634 88.898 89.0113 88.8118 89.1747L88.8136 89.0921Z" fill="url(#paint60_linear_1309_25812)" fill-opacity="0.3"/>
<path d="M86.2409 97.2211C85.4581 99.023 84.6734 100.907 83.6445 102.621C82.6137 104.418 81.583 106.214 80.387 108.007C79.1927 109.718 77.9141 111.509 76.5546 113.216C75.1125 114.921 73.6721 116.543 72.1491 118.164C70.5453 119.7 68.8588 121.235 67.0897 122.767C65.3224 124.217 63.4689 125.831 61.5346 127.36C51.9489 134.842 43.3887 140.776 37.2622 145.025C31.1375 149.192 27.3621 151.757 27.3621 151.757C27.3621 151.757 28.2799 151.363 30.0312 150.657C31.7017 149.866 34.2073 148.68 37.3003 147.093C43.4899 143.754 52.1976 138.65 61.801 130.342C63.7389 128.647 65.5924 127.034 67.3651 125.336C69.136 123.721 70.8278 121.938 72.3526 120.235C75.5709 116.667 78.297 112.923 80.6117 109.087C82.9247 105.334 84.8262 101.489 86.3129 97.7187C87.0957 95.9168 87.6342 93.9444 88.1692 92.1372C88.4366 91.2336 88.6215 90.3282 88.8063 89.4228C88.8081 89.3402 88.8101 89.2574 88.8118 89.1747C88.627 90.0801 88.4438 90.9031 88.1763 91.8067C87.6413 93.6138 87.022 95.5019 86.2409 97.2211Z" fill="url(#paint61_linear_1309_25812)" fill-opacity="0.3"/>
<path d="M80.7316 53.6199C81.0425 54.5359 81.269 55.5328 81.4956 56.5297C81.2726 55.3675 80.9652 54.2863 80.6578 53.205L80.7316 53.6199Z" fill="url(#paint62_linear_1309_25812)" fill-opacity="0.3"/>
<path d="M75.6699 81.3698C75.3127 82.6021 74.8728 83.8327 74.5138 85.1477C74.0722 86.4609 73.6305 87.774 73.1062 89.0855C71.2535 94.5017 68.3337 99.5643 65.245 104.789C60.1073 113.028 55.0212 118.871 50.709 123.325C49.6117 124.376 48.597 125.429 47.584 126.399C46.5728 127.286 45.6443 128.176 44.7175 128.983C42.9484 130.515 41.3499 131.804 39.9238 132.765L39.7568 132.844C42.5282 130.837 46.2227 128.188 50.6895 124.233C55.1562 120.279 60.5586 115.104 66.1832 107.289C69.6779 102.404 72.6013 97.176 74.6247 91.5154C76.7271 86.0219 78.0032 80.5106 78.4441 75.3947C78.5552 74.0744 78.5819 72.835 78.6068 71.6782C78.6317 70.5214 78.6566 69.3646 78.5971 68.2886C78.4781 66.1367 78.4346 64.3171 78.2206 62.7418C77.7906 59.6739 77.4975 57.9316 77.4975 57.9316C77.4975 57.9316 77.5463 59.5033 77.7319 62.4006C77.8669 63.8089 77.6643 65.5405 77.6215 67.5236C77.5788 69.5067 77.2847 71.6498 76.9851 74.0407C76.8901 74.6173 76.8758 75.2783 76.7807 75.855C76.6856 76.4316 76.5061 77.0891 76.411 77.6657C76.2209 78.819 75.9463 80.0531 75.6699 81.3698Z" fill="url(#paint63_linear_1309_25812)" fill-opacity="0.3"/>
<path d="M53.1765 112.383C52.4097 113.441 51.6446 114.417 51.0466 115.313C50.3677 116.126 49.8559 116.859 49.4303 117.428C48.5773 118.65 48.0673 119.3 48.0673 119.3C48.0673 119.3 48.6546 118.899 49.5831 118.01C50.5943 117.122 52.0257 115.913 53.8019 114.05C57.2682 110.487 62.1011 104.887 66.2543 96.296C69.5456 89.34 71.5148 82.3556 72.2285 76.0882C72.944 69.7382 72.5674 64.1914 71.9145 59.9613L71.918 59.7961C72.2041 61.8689 72.5639 64.3566 72.426 66.9164C72.3976 68.2384 72.4499 69.6449 72.2544 71.046C72.0589 72.4472 71.9442 73.9327 71.6643 75.4147C70.6272 81.3445 68.4208 87.8278 64.8958 94.1175C60.6759 101.963 56.3282 108.07 53.1765 112.383Z" fill="url(#paint64_linear_1309_25812)" fill-opacity="0.3"/>
<path d="M57.6757 99.2529C56.8085 101.136 55.8675 102.603 55.3485 103.667C54.8296 104.73 54.4866 105.302 54.4866 105.302C54.4866 105.302 56.0869 103.931 58.4682 100.841C60.7687 97.666 63.9347 92.6913 65.9954 85.2955C66.3598 83.7327 66.7205 82.3351 67.0005 80.8531C67.1978 79.3693 67.4759 77.97 67.5888 76.567C67.7017 75.1641 67.732 73.7594 67.7587 72.52C67.8698 71.1997 67.8138 69.9585 67.7579 68.7173C67.702 67.4761 67.6442 66.3175 67.5021 65.2398C67.2774 64.1603 67.1352 63.0825 66.9913 62.0874C66.7035 60.0972 66.1607 58.4322 65.8622 56.9378L65.8657 56.7726C66.2469 58.2688 66.7071 59.932 66.9122 61.9204C67.0562 62.9155 67.1174 63.9088 67.2596 64.9865C67.4017 66.0643 67.2959 67.1367 67.271 68.2935C67.2212 70.6071 66.9216 72.998 66.5342 75.6351C66.0658 78.1877 65.4305 80.8194 64.4628 83.5266C62.0875 90.1716 59.5755 95.491 57.6757 99.2529Z" fill="url(#paint65_linear_1309_25812)" fill-opacity="0.3"/>
<path d="M51.0157 59.1815L51.0139 59.2641C51.0983 59.1832 51.0157 59.1815 51.0157 59.1815Z" fill="url(#paint66_linear_1309_25812)" fill-opacity="0.3"/>
<path d="M47.4579 63.156C47.5334 63.4882 47.6107 63.7379 47.7688 64.072C47.6107 63.7379 47.5352 63.4056 47.4579 63.156Z" fill="url(#paint67_linear_1309_25812)" fill-opacity="0.3"/>
<path d="M47.2996 62.8219C47.2978 62.9045 47.3769 63.0715 47.3751 63.1542C47.3769 63.0715 47.296 62.9871 47.2978 62.9045L47.2996 62.8219Z" fill="url(#paint68_linear_1309_25812)" fill-opacity="0.3"/>
<path d="M47.6598 111.355C47.61 113.669 47.6534 115.488 47.6267 116.728C47.6827 117.969 47.6684 118.63 47.6684 118.63C47.6684 118.63 47.8497 117.89 48.2105 116.492C48.5713 115.095 48.9445 113.119 49.3285 110.647C50.0963 105.703 50.5763 98.7697 49.1558 91.7951C48.12 86.1515 45.969 82.3853 44.5475 79.2961C43.6705 77.7892 43.2912 76.2104 42.6551 75.0394C42.4214 74.373 42.2686 73.7911 42.0331 73.2073C41.7977 72.6236 41.5605 72.1225 41.4041 71.7058L41.4059 71.6232C41.5605 72.1225 41.7977 72.6236 41.9523 73.1229C42.1051 73.7049 42.2561 74.3695 42.4072 75.034C42.5582 75.6986 42.9571 76.3685 43.1046 77.1984C43.2521 78.0282 43.5648 78.8616 43.8775 79.695C45.0423 83.192 46.5215 87.4398 47.058 93.2381C47.7312 100.362 47.7577 106.811 47.6598 111.355Z" fill="url(#paint69_linear_1309_25812)" fill-opacity="0.3"/>
<path d="M40.783 100.543C40.6734 109.469 40.172 117.394 39.8049 122.925C39.436 128.539 39.3665 131.761 39.3665 131.761C39.3665 131.761 39.634 130.858 40.0828 129.214C40.4489 127.568 40.9963 125.183 41.5544 122.302C42.5897 116.454 43.6767 108.211 42.9546 99.5154C42.443 92.5604 41.2383 87.0785 39.9226 82.9168C38.6068 78.7552 37.0938 76.0773 36.3946 73.9956L36.3963 73.913C37.0955 75.9947 38.3571 78.8325 39.3388 83.1523C40.2361 87.5529 40.8552 93.3529 40.783 100.543Z" fill="url(#paint70_linear_1309_25812)" fill-opacity="0.3"/>
<path d="M35.2402 131.425C36.3742 124.836 37.4825 115.601 37.0332 105.754C36.7083 97.8105 35.6041 91.5041 34.466 86.7676C33.3298 81.9485 31.9927 78.7784 31.7964 76.3769L31.7982 76.2942C31.9962 78.6132 33.1663 81.8623 33.884 86.9205C34.6036 91.896 35.1223 98.5205 34.8617 106.782C34.5601 116.943 33.8721 125.856 33.5698 132.215C33.1866 138.49 33.0239 142.206 33.0239 142.206C33.0239 142.206 33.2932 141.22 33.7473 139.329C34.0361 137.433 34.6733 134.719 35.2402 131.425Z" fill="url(#paint71_linear_1309_25812)" fill-opacity="0.3"/>
<path d="M27.2026 82.3956C27.2097 82.0651 27.2168 81.7346 27.2221 81.4867C27.215 81.8172 27.2097 82.0651 27.2026 82.3956Z" fill="url(#paint72_linear_1309_25812)" fill-opacity="0.3"/>
<path d="M27.2007 82.4782L27.2026 82.3956C27.2008 82.4782 27.2007 82.4782 27.2007 82.4782Z" fill="url(#paint73_linear_1309_25812)" fill-opacity="0.3"/>
<path d="M27.3172 80.9099C27.3136 81.0751 27.3083 81.323 27.2203 81.5691C27.2257 81.3213 27.231 81.0734 27.319 80.8272L27.3172 80.9099Z" fill="url(#paint74_linear_1309_25812)" fill-opacity="0.3"/>
<path d="M22.1763 81.6261C22.1745 81.7087 22.1745 81.7087 22.0901 81.7896C22.0919 81.7069 22.178 81.5435 22.1798 81.4608L22.1763 81.6261Z" fill="url(#paint75_linear_1309_25812)" fill-opacity="0.3"/>
<path d="M17.8385 83.4342C17.8403 83.3516 17.8403 83.3516 17.8421 83.269L17.8385 83.4342Z" fill="url(#paint76_linear_1309_25812)" fill-opacity="0.3"/>
<path d="M10.3504 89.4737C10.3522 89.391 10.4384 89.2275 10.4402 89.1449C10.354 89.3084 10.3522 89.391 10.3504 89.4737Z" fill="url(#paint77_linear_1309_25812)" fill-opacity="0.3"/>
<path d="M10.2609 89.8022L10.2592 89.8849C10.2627 89.7196 10.3472 89.6388 10.3489 89.5561C10.2645 89.637 10.2627 89.7196 10.2609 89.8022Z" fill="url(#paint78_linear_1309_25812)" fill-opacity="0.3"/>
<path d="M10.7024 88.4892C10.7006 88.5718 10.7006 88.5718 10.6162 88.6526C10.7006 88.5718 10.7024 88.4891 10.7886 88.3257L10.7024 88.4892Z" fill="url(#paint79_linear_1309_25812)" fill-opacity="0.3"/>
<path d="M-5.76985 143.192C-6.05868 145.087 -6.18225 146.985 -6.22318 148.886C-6.26055 150.621 -6.29614 152.274 -6.33175 153.926C-6.40293 157.231 -6.5532 160.37 -6.6999 163.342C-7.07773 169.369 -7.35868 174.736 -7.70268 179.193C-7.96405 183.651 -8.20585 187.201 -8.42452 189.676C-8.56054 192.153 -8.67164 193.474 -8.67164 193.474C-8.67164 193.474 -8.30908 191.993 -7.67369 189.362C-7.03831 186.73 -6.21275 182.945 -5.36762 178.251C-4.52247 173.557 -3.74039 167.953 -3.19374 161.764C-2.88 158.712 -2.81058 155.49 -2.73761 152.102C-2.70201 150.45 -2.74906 148.795 -2.79432 147.058C-2.77652 146.232 -2.8449 145.569 -2.82533 144.66C-2.80754 143.834 -2.70533 142.927 -2.68576 142.018C-2.23064 136.241 -1.45033 130.719 -1.01124 125.686C-0.406877 120.656 -0.0610875 116.117 0.356654 112.075C0.691762 108.032 0.933564 104.482 1.24909 101.347C1.56284 98.2955 1.78683 95.5723 2.57501 93.5225L2.66122 93.359C1.79039 95.407 1.56638 98.1302 1.08737 101.179C0.60302 104.475 0.111549 108.102 -0.469674 112.057C-1.13709 116.176 -1.89959 120.872 -2.83804 126.06C-3.69564 131.332 -4.81004 137.012 -5.76985 143.192Z" fill="url(#paint80_linear_1309_25812)" fill-opacity="0.3"/>
<path d="M-16.9972 115.588C-16.999 115.67 -17.0008 115.753 -17.0852 115.834C-17.0852 115.834 -17.0852 115.834 -17.0834 115.751L-16.9972 115.588Z" fill="url(#paint81_linear_1309_25812)" fill-opacity="0.3"/>
<path d="M-17.9985 119.865C-17.6359 118.384 -17.2769 117.069 -17.0023 115.835C-17.3596 117.068 -17.7186 118.383 -17.9985 119.865Z" fill="url(#paint82_linear_1309_25812)" fill-opacity="0.3"/>
<path d="M-55.1075 219.178C-51.4335 221.323 -48.0776 222.883 -45.2122 224.185C-39.5639 226.786 -35.8704 228.023 -35.8704 228.023C-35.8704 228.023 -38.5421 225.403 -43.3338 221.415C-45.6892 219.463 -48.6985 217.166 -52.1175 214.695C-53.4973 213.508 -54.6923 211.416 -55.7167 209.079C-56.8255 206.823 -57.7601 204.158 -58.6912 201.327C-60.0825 196.833 -60.8953 192.352 -61.3794 187.96C-61.6619 185.722 -61.7809 183.57 -61.8172 181.42C-61.8536 179.27 -61.7283 177.288 -61.6011 175.224C-61.266 171.181 -60.6866 167.308 -59.7837 163.773C-59.6922 163.361 -59.5989 162.867 -59.4247 162.458C-59.2488 161.966 -59.3261 161.716 -59.319 161.385C-59.2221 160.726 -59.2078 160.065 -59.1128 159.488C-58.9208 158.253 -58.7306 157.099 -58.5404 155.946L-58.5369 155.781C-58.7253 156.851 -58.9981 158.003 -59.1918 159.321C-59.2887 159.981 -59.3856 160.64 -59.4824 161.299L-59.574 161.711C-59.5775 161.876 -59.5811 162.041 -59.6691 162.287C-59.845 162.779 -59.9365 163.191 -60.1125 163.683C-61.1859 167.463 -62.1839 171.575 -62.9375 175.857C-63.1259 176.928 -63.3161 178.081 -63.4218 179.153C-63.5294 180.308 -63.637 181.463 -63.7445 182.618C-63.8787 185.013 -64.013 187.407 -63.982 189.805C-63.9509 192.203 -63.8391 194.686 -63.5619 197.172C-63.2866 199.74 -62.846 202.313 -62.2383 204.806C-61.4778 207.881 -60.6294 210.71 -59.4415 213.132C-58.338 215.636 -57.0622 217.813 -55.1075 219.178Z" fill="url(#paint83_linear_1309_25812)" fill-opacity="0.3"/>
<path d="M-67.6545 222.132C-61.0947 228.473 -53.1168 230.381 -47.5138 231.245C-41.7437 232.03 -38.0164 231.697 -38.0164 231.697C-38.0164 231.697 -41.1315 230.473 -46.0449 228.3C-50.9566 226.046 -57.8319 222.839 -64.8315 217.729C-67.5965 215.603 -70.0274 213.318 -71.959 210.88C-73.8906 208.441 -75.4845 205.678 -76.4173 202.93C-77.0517 201.677 -77.3502 200.182 -77.6523 198.853C-77.9525 197.441 -78.2546 196.112 -78.4758 194.867C-78.6632 192.053 -78.7715 189.405 -78.7234 187.174L-78.7199 187.009C-78.7679 189.24 -78.7422 191.886 -78.7272 195.027C-78.5922 196.436 -78.4572 197.844 -78.2431 199.419C-78.029 200.994 -77.8994 202.651 -77.4356 204.149C-76.9737 205.729 -76.5117 207.31 -76.0532 209.056C-75.3416 210.559 -74.6317 212.145 -73.9219 213.731C-72.4123 216.574 -70.3262 219.512 -67.6545 222.132Z" fill="url(#paint84_linear_1309_25812)" fill-opacity="0.3"/>
<path d="M-44.5307 246.272C-44.5307 246.272 -47.2291 244.891 -51.8139 242.809C-56.3986 240.726 -62.7905 238.109 -70.2495 235.138C-76.2337 232.777 -81.1364 230.109 -84.6255 227.058C-88.1129 223.925 -90.0951 219.997 -91.0048 216.175L-91.0838 216.008C-90.1723 219.747 -88.702 224.408 -85.6492 228.524C-82.5155 232.725 -78.1352 236.622 -72.4204 239.969C-65.3167 244.089 -58.1491 245.235 -53.0383 245.924C-47.7588 246.451 -44.5307 246.272 -44.5307 246.272Z" fill="url(#paint85_linear_1309_25812)" fill-opacity="0.3"/>
<defs>
<linearGradient id="paint0_linear_1309_25812" x1="209.503" y1="139" x2="-23.4971" y2="320" gradientUnits="userSpaceOnUse">
<stop stop-color="#C4A767"/>
<stop offset="1" stop-color="#C4A767" stop-opacity="0"/>
</linearGradient>
<linearGradient id="paint1_linear_1309_25812" x1="209.503" y1="139" x2="-23.4971" y2="320" gradientUnits="userSpaceOnUse">
<stop stop-color="#C4A767"/>
<stop offset="1" stop-color="#C4A767" stop-opacity="0"/>
</linearGradient>
<linearGradient id="paint2_linear_1309_25812" x1="209.503" y1="139" x2="-23.4971" y2="320" gradientUnits="userSpaceOnUse">
<stop stop-color="#C4A767"/>
<stop offset="1" stop-color="#C4A767" stop-opacity="0"/>
</linearGradient>
<linearGradient id="paint3_linear_1309_25812" x1="209.503" y1="139" x2="-23.4971" y2="320" gradientUnits="userSpaceOnUse">
<stop stop-color="#C4A767"/>
<stop offset="1" stop-color="#C4A767" stop-opacity="0"/>
</linearGradient>
<linearGradient id="paint4_linear_1309_25812" x1="209.503" y1="139" x2="-23.4971" y2="320" gradientUnits="userSpaceOnUse">
<stop stop-color="#C4A767"/>
<stop offset="1" stop-color="#C4A767" stop-opacity="0"/>
</linearGradient>
<linearGradient id="paint5_linear_1309_25812" x1="209.503" y1="139" x2="-23.4971" y2="320" gradientUnits="userSpaceOnUse">
<stop stop-color="#C4A767"/>
<stop offset="1" stop-color="#C4A767" stop-opacity="0"/>
</linearGradient>
<linearGradient id="paint6_linear_1309_25812" x1="209.503" y1="139" x2="-23.4971" y2="320" gradientUnits="userSpaceOnUse">
<stop stop-color="#C4A767"/>
<stop offset="1" stop-color="#C4A767" stop-opacity="0"/>
</linearGradient>
<linearGradient id="paint7_linear_1309_25812" x1="209.503" y1="139" x2="-23.4971" y2="320" gradientUnits="userSpaceOnUse">
<stop stop-color="#C4A767"/>
<stop offset="1" stop-color="#C4A767" stop-opacity="0"/>
</linearGradient>
<linearGradient id="paint8_linear_1309_25812" x1="209.503" y1="139" x2="-23.4971" y2="320" gradientUnits="userSpaceOnUse">
<stop stop-color="#C4A767"/>
<stop offset="1" stop-color="#C4A767" stop-opacity="0"/>
</linearGradient>
<linearGradient id="paint9_linear_1309_25812" x1="209.503" y1="139" x2="-23.4971" y2="320" gradientUnits="userSpaceOnUse">
<stop stop-color="#C4A767"/>
<stop offset="1" stop-color="#C4A767" stop-opacity="0"/>
</linearGradient>
<linearGradient id="paint10_linear_1309_25812" x1="209.503" y1="139" x2="-23.4971" y2="320" gradientUnits="userSpaceOnUse">
<stop stop-color="#C4A767"/>
<stop offset="1" stop-color="#C4A767" stop-opacity="0"/>
</linearGradient>
<linearGradient id="paint11_linear_1309_25812" x1="209.503" y1="139" x2="-23.4971" y2="320" gradientUnits="userSpaceOnUse">
<stop stop-color="#C4A767"/>
<stop offset="1" stop-color="#C4A767" stop-opacity="0"/>
</linearGradient>
<linearGradient id="paint12_linear_1309_25812" x1="209.503" y1="139" x2="-23.4971" y2="320" gradientUnits="userSpaceOnUse">
<stop stop-color="#C4A767"/>
<stop offset="1" stop-color="#C4A767" stop-opacity="0"/>
</linearGradient>
<linearGradient id="paint13_linear_1309_25812" x1="209.503" y1="139" x2="-23.4971" y2="320" gradientUnits="userSpaceOnUse">
<stop stop-color="#C4A767"/>
<stop offset="1" stop-color="#C4A767" stop-opacity="0"/>
</linearGradient>
<linearGradient id="paint14_linear_1309_25812" x1="209.503" y1="139" x2="-23.4971" y2="320" gradientUnits="userSpaceOnUse">
<stop stop-color="#C4A767"/>
<stop offset="1" stop-color="#C4A767" stop-opacity="0"/>
</linearGradient>
<linearGradient id="paint15_linear_1309_25812" x1="209.503" y1="139" x2="-23.4971" y2="320" gradientUnits="userSpaceOnUse">
<stop stop-color="#C4A767"/>
<stop offset="1" stop-color="#C4A767" stop-opacity="0"/>
</linearGradient>
<linearGradient id="paint16_linear_1309_25812" x1="209.503" y1="139" x2="-23.4971" y2="320" gradientUnits="userSpaceOnUse">
<stop stop-color="#C4A767"/>
<stop offset="1" stop-color="#C4A767" stop-opacity="0"/>
</linearGradient>
<linearGradient id="paint17_linear_1309_25812" x1="209.503" y1="139" x2="-23.4971" y2="320" gradientUnits="userSpaceOnUse">
<stop stop-color="#C4A767"/>
<stop offset="1" stop-color="#C4A767" stop-opacity="0"/>
</linearGradient>
<linearGradient id="paint18_linear_1309_25812" x1="209.503" y1="139" x2="-23.4971" y2="320" gradientUnits="userSpaceOnUse">
<stop stop-color="#C4A767"/>
<stop offset="1" stop-color="#C4A767" stop-opacity="0"/>
</linearGradient>
<linearGradient id="paint19_linear_1309_25812" x1="209.503" y1="139" x2="-23.4971" y2="320" gradientUnits="userSpaceOnUse">
<stop stop-color="#C4A767"/>
<stop offset="1" stop-color="#C4A767" stop-opacity="0"/>
</linearGradient>
<linearGradient id="paint20_linear_1309_25812" x1="209.503" y1="139" x2="-23.4971" y2="320" gradientUnits="userSpaceOnUse">
<stop stop-color="#C4A767"/>
<stop offset="1" stop-color="#C4A767" stop-opacity="0"/>
</linearGradient>
<linearGradient id="paint21_linear_1309_25812" x1="209.503" y1="139" x2="-23.4971" y2="320" gradientUnits="userSpaceOnUse">
<stop stop-color="#C4A767"/>
<stop offset="1" stop-color="#C4A767" stop-opacity="0"/>
</linearGradient>
<linearGradient id="paint22_linear_1309_25812" x1="209.503" y1="139" x2="-23.4971" y2="320" gradientUnits="userSpaceOnUse">
<stop stop-color="#C4A767"/>
<stop offset="1" stop-color="#C4A767" stop-opacity="0"/>
</linearGradient>
<linearGradient id="paint23_linear_1309_25812" x1="209.503" y1="139" x2="-23.4971" y2="320" gradientUnits="userSpaceOnUse">
<stop stop-color="#C4A767"/>
<stop offset="1" stop-color="#C4A767" stop-opacity="0"/>
</linearGradient>
<linearGradient id="paint24_linear_1309_25812" x1="209.503" y1="139" x2="-23.4971" y2="320" gradientUnits="userSpaceOnUse">
<stop stop-color="#C4A767"/>
<stop offset="1" stop-color="#C4A767" stop-opacity="0"/>
</linearGradient>
<linearGradient id="paint25_linear_1309_25812" x1="209.503" y1="139" x2="-23.4971" y2="320" gradientUnits="userSpaceOnUse">
<stop stop-color="#C4A767"/>
<stop offset="1" stop-color="#C4A767" stop-opacity="0"/>
</linearGradient>
<linearGradient id="paint26_linear_1309_25812" x1="209.503" y1="139" x2="-23.4971" y2="320" gradientUnits="userSpaceOnUse">
<stop stop-color="#C4A767"/>
<stop offset="1" stop-color="#C4A767" stop-opacity="0"/>
</linearGradient>
<linearGradient id="paint27_linear_1309_25812" x1="209.503" y1="139" x2="-23.4971" y2="320" gradientUnits="userSpaceOnUse">
<stop stop-color="#C4A767"/>
<stop offset="1" stop-color="#C4A767" stop-opacity="0"/>
</linearGradient>
<linearGradient id="paint28_linear_1309_25812" x1="209.503" y1="139" x2="-23.4971" y2="320" gradientUnits="userSpaceOnUse">
<stop stop-color="#C4A767"/>
<stop offset="1" stop-color="#C4A767" stop-opacity="0"/>
</linearGradient>
<linearGradient id="paint29_linear_1309_25812" x1="209.503" y1="139" x2="-23.4971" y2="320" gradientUnits="userSpaceOnUse">
<stop stop-color="#C4A767"/>
<stop offset="1" stop-color="#C4A767" stop-opacity="0"/>
</linearGradient>
<linearGradient id="paint30_linear_1309_25812" x1="209.503" y1="139" x2="-23.4971" y2="320" gradientUnits="userSpaceOnUse">
<stop stop-color="#C4A767"/>
<stop offset="1" stop-color="#C4A767" stop-opacity="0"/>
</linearGradient>
<linearGradient id="paint31_linear_1309_25812" x1="209.503" y1="139" x2="-23.4971" y2="320" gradientUnits="userSpaceOnUse">
<stop stop-color="#C4A767"/>
<stop offset="1" stop-color="#C4A767" stop-opacity="0"/>
</linearGradient>
<linearGradient id="paint32_linear_1309_25812" x1="209.503" y1="139" x2="-23.4971" y2="320" gradientUnits="userSpaceOnUse">
<stop stop-color="#C4A767"/>
<stop offset="1" stop-color="#C4A767" stop-opacity="0"/>
</linearGradient>
<linearGradient id="paint33_linear_1309_25812" x1="209.503" y1="139" x2="-23.4971" y2="320" gradientUnits="userSpaceOnUse">
<stop stop-color="#C4A767"/>
<stop offset="1" stop-color="#C4A767" stop-opacity="0"/>
</linearGradient>
<linearGradient id="paint34_linear_1309_25812" x1="209.503" y1="139" x2="-23.4971" y2="320" gradientUnits="userSpaceOnUse">
<stop stop-color="#C4A767"/>
<stop offset="1" stop-color="#C4A767" stop-opacity="0"/>
</linearGradient>
<linearGradient id="paint35_linear_1309_25812" x1="209.503" y1="139" x2="-23.4971" y2="320" gradientUnits="userSpaceOnUse">
<stop stop-color="#C4A767"/>
<stop offset="1" stop-color="#C4A767" stop-opacity="0"/>
</linearGradient>
<linearGradient id="paint36_linear_1309_25812" x1="209.503" y1="139" x2="-23.4971" y2="320" gradientUnits="userSpaceOnUse">
<stop stop-color="#C4A767"/>
<stop offset="1" stop-color="#C4A767" stop-opacity="0"/>
</linearGradient>
<linearGradient id="paint37_linear_1309_25812" x1="209.503" y1="139" x2="-23.4971" y2="320" gradientUnits="userSpaceOnUse">
<stop stop-color="#C4A767"/>
<stop offset="1" stop-color="#C4A767" stop-opacity="0"/>
</linearGradient>
<linearGradient id="paint38_linear_1309_25812" x1="209.503" y1="139" x2="-23.4971" y2="320" gradientUnits="userSpaceOnUse">
<stop stop-color="#C4A767"/>
<stop offset="1" stop-color="#C4A767" stop-opacity="0"/>
</linearGradient>
<linearGradient id="paint39_linear_1309_25812" x1="209.503" y1="139" x2="-23.4971" y2="320" gradientUnits="userSpaceOnUse">
<stop stop-color="#C4A767"/>
<stop offset="1" stop-color="#C4A767" stop-opacity="0"/>
</linearGradient>
<linearGradient id="paint40_linear_1309_25812" x1="209.503" y1="139" x2="-23.4971" y2="320" gradientUnits="userSpaceOnUse">
<stop stop-color="#C4A767"/>
<stop offset="1" stop-color="#C4A767" stop-opacity="0"/>
</linearGradient>
<linearGradient id="paint41_linear_1309_25812" x1="209.503" y1="139" x2="-23.4971" y2="320" gradientUnits="userSpaceOnUse">
<stop stop-color="#C4A767"/>
<stop offset="1" stop-color="#C4A767" stop-opacity="0"/>
</linearGradient>
<linearGradient id="paint42_linear_1309_25812" x1="209.503" y1="139" x2="-23.4971" y2="320" gradientUnits="userSpaceOnUse">
<stop stop-color="#C4A767"/>
<stop offset="1" stop-color="#C4A767" stop-opacity="0"/>
</linearGradient>
<linearGradient id="paint43_linear_1309_25812" x1="78" y1="61" x2="-36.5" y2="224" gradientUnits="userSpaceOnUse">
<stop stop-color="#C4A767"/>
<stop offset="1" stop-color="#C4A767" stop-opacity="0"/>
</linearGradient>
<linearGradient id="paint44_linear_1309_25812" x1="78" y1="61" x2="-36.5" y2="224" gradientUnits="userSpaceOnUse">
<stop stop-color="#C4A767"/>
<stop offset="1" stop-color="#C4A767" stop-opacity="0"/>
</linearGradient>
<linearGradient id="paint45_linear_1309_25812" x1="78" y1="61" x2="-36.5" y2="224" gradientUnits="userSpaceOnUse">
<stop stop-color="#C4A767"/>
<stop offset="1" stop-color="#C4A767" stop-opacity="0"/>
</linearGradient>
<linearGradient id="paint46_linear_1309_25812" x1="78" y1="61" x2="-36.5" y2="224" gradientUnits="userSpaceOnUse">
<stop stop-color="#C4A767"/>
<stop offset="1" stop-color="#C4A767" stop-opacity="0"/>
</linearGradient>
<linearGradient id="paint47_linear_1309_25812" x1="78" y1="61" x2="-36.5" y2="224" gradientUnits="userSpaceOnUse">
<stop stop-color="#C4A767"/>
<stop offset="1" stop-color="#C4A767" stop-opacity="0"/>
</linearGradient>
<linearGradient id="paint48_linear_1309_25812" x1="78" y1="61" x2="-36.5" y2="224" gradientUnits="userSpaceOnUse">
<stop stop-color="#C4A767"/>
<stop offset="1" stop-color="#C4A767" stop-opacity="0"/>
</linearGradient>
<linearGradient id="paint49_linear_1309_25812" x1="78" y1="61" x2="-36.5" y2="224" gradientUnits="userSpaceOnUse">
<stop stop-color="#C4A767"/>
<stop offset="1" stop-color="#C4A767" stop-opacity="0"/>
</linearGradient>
<linearGradient id="paint50_linear_1309_25812" x1="78" y1="61" x2="-36.5" y2="224" gradientUnits="userSpaceOnUse">
<stop stop-color="#C4A767"/>
<stop offset="1" stop-color="#C4A767" stop-opacity="0"/>
</linearGradient>
<linearGradient id="paint51_linear_1309_25812" x1="78" y1="61" x2="-36.5" y2="224" gradientUnits="userSpaceOnUse">
<stop stop-color="#C4A767"/>
<stop offset="1" stop-color="#C4A767" stop-opacity="0"/>
</linearGradient>
<linearGradient id="paint52_linear_1309_25812" x1="78" y1="61" x2="-36.5" y2="224" gradientUnits="userSpaceOnUse">
<stop stop-color="#C4A767"/>
<stop offset="1" stop-color="#C4A767" stop-opacity="0"/>
</linearGradient>
<linearGradient id="paint53_linear_1309_25812" x1="78" y1="61" x2="-36.5" y2="224" gradientUnits="userSpaceOnUse">
<stop stop-color="#C4A767"/>
<stop offset="1" stop-color="#C4A767" stop-opacity="0"/>
</linearGradient>
<linearGradient id="paint54_linear_1309_25812" x1="78" y1="61" x2="-36.5" y2="224" gradientUnits="userSpaceOnUse">
<stop stop-color="#C4A767"/>
<stop offset="1" stop-color="#C4A767" stop-opacity="0"/>
</linearGradient>
<linearGradient id="paint55_linear_1309_25812" x1="78" y1="61" x2="-36.5" y2="224" gradientUnits="userSpaceOnUse">
<stop stop-color="#C4A767"/>
<stop offset="1" stop-color="#C4A767" stop-opacity="0"/>
</linearGradient>
<linearGradient id="paint56_linear_1309_25812" x1="78" y1="61" x2="-36.5" y2="224" gradientUnits="userSpaceOnUse">
<stop stop-color="#C4A767"/>
<stop offset="1" stop-color="#C4A767" stop-opacity="0"/>
</linearGradient>
<linearGradient id="paint57_linear_1309_25812" x1="78" y1="61" x2="-36.5" y2="224" gradientUnits="userSpaceOnUse">
<stop stop-color="#C4A767"/>
<stop offset="1" stop-color="#C4A767" stop-opacity="0"/>
</linearGradient>
<linearGradient id="paint58_linear_1309_25812" x1="78" y1="61" x2="-36.5" y2="224" gradientUnits="userSpaceOnUse">
<stop stop-color="#C4A767"/>
<stop offset="1" stop-color="#C4A767" stop-opacity="0"/>
</linearGradient>
<linearGradient id="paint59_linear_1309_25812" x1="78" y1="61" x2="-36.5" y2="224" gradientUnits="userSpaceOnUse">
<stop stop-color="#C4A767"/>
<stop offset="1" stop-color="#C4A767" stop-opacity="0"/>
</linearGradient>
<linearGradient id="paint60_linear_1309_25812" x1="78" y1="61" x2="-36.5" y2="224" gradientUnits="userSpaceOnUse">
<stop stop-color="#C4A767"/>
<stop offset="1" stop-color="#C4A767" stop-opacity="0"/>
</linearGradient>
<linearGradient id="paint61_linear_1309_25812" x1="78" y1="61" x2="-36.5" y2="224" gradientUnits="userSpaceOnUse">
<stop stop-color="#C4A767"/>
<stop offset="1" stop-color="#C4A767" stop-opacity="0"/>
</linearGradient>
<linearGradient id="paint62_linear_1309_25812" x1="78" y1="61" x2="-36.5" y2="224" gradientUnits="userSpaceOnUse">
<stop stop-color="#C4A767"/>
<stop offset="1" stop-color="#C4A767" stop-opacity="0"/>
</linearGradient>
<linearGradient id="paint63_linear_1309_25812" x1="78" y1="61" x2="-36.5" y2="224" gradientUnits="userSpaceOnUse">
<stop stop-color="#C4A767"/>
<stop offset="1" stop-color="#C4A767" stop-opacity="0"/>
</linearGradient>
<linearGradient id="paint64_linear_1309_25812" x1="78" y1="61" x2="-36.5" y2="224" gradientUnits="userSpaceOnUse">
<stop stop-color="#C4A767"/>
<stop offset="1" stop-color="#C4A767" stop-opacity="0"/>
</linearGradient>
<linearGradient id="paint65_linear_1309_25812" x1="78" y1="61" x2="-36.5" y2="224" gradientUnits="userSpaceOnUse">
<stop stop-color="#C4A767"/>
<stop offset="1" stop-color="#C4A767" stop-opacity="0"/>
</linearGradient>
<linearGradient id="paint66_linear_1309_25812" x1="78" y1="61" x2="-36.5" y2="224" gradientUnits="userSpaceOnUse">
<stop stop-color="#C4A767"/>
<stop offset="1" stop-color="#C4A767" stop-opacity="0"/>
</linearGradient>
<linearGradient id="paint67_linear_1309_25812" x1="78" y1="61" x2="-36.5" y2="224" gradientUnits="userSpaceOnUse">
<stop stop-color="#C4A767"/>
<stop offset="1" stop-color="#C4A767" stop-opacity="0"/>
</linearGradient>
<linearGradient id="paint68_linear_1309_25812" x1="78" y1="61" x2="-36.5" y2="224" gradientUnits="userSpaceOnUse">
<stop stop-color="#C4A767"/>
<stop offset="1" stop-color="#C4A767" stop-opacity="0"/>
</linearGradient>
<linearGradient id="paint69_linear_1309_25812" x1="78" y1="61" x2="-36.5" y2="224" gradientUnits="userSpaceOnUse">
<stop stop-color="#C4A767"/>
<stop offset="1" stop-color="#C4A767" stop-opacity="0"/>
</linearGradient>
<linearGradient id="paint70_linear_1309_25812" x1="78" y1="61" x2="-36.5" y2="224" gradientUnits="userSpaceOnUse">
<stop stop-color="#C4A767"/>
<stop offset="1" stop-color="#C4A767" stop-opacity="0"/>
</linearGradient>
<linearGradient id="paint71_linear_1309_25812" x1="78" y1="61" x2="-36.5" y2="224" gradientUnits="userSpaceOnUse">
<stop stop-color="#C4A767"/>
<stop offset="1" stop-color="#C4A767" stop-opacity="0"/>
</linearGradient>
<linearGradient id="paint72_linear_1309_25812" x1="78" y1="61" x2="-36.5" y2="224" gradientUnits="userSpaceOnUse">
<stop stop-color="#C4A767"/>
<stop offset="1" stop-color="#C4A767" stop-opacity="0"/>
</linearGradient>
<linearGradient id="paint73_linear_1309_25812" x1="78" y1="61" x2="-36.5" y2="224" gradientUnits="userSpaceOnUse">
<stop stop-color="#C4A767"/>
<stop offset="1" stop-color="#C4A767" stop-opacity="0"/>
</linearGradient>
<linearGradient id="paint74_linear_1309_25812" x1="78" y1="61" x2="-36.5" y2="224" gradientUnits="userSpaceOnUse">
<stop stop-color="#C4A767"/>
<stop offset="1" stop-color="#C4A767" stop-opacity="0"/>
</linearGradient>
<linearGradient id="paint75_linear_1309_25812" x1="78" y1="61" x2="-36.5" y2="224" gradientUnits="userSpaceOnUse">
<stop stop-color="#C4A767"/>
<stop offset="1" stop-color="#C4A767" stop-opacity="0"/>
</linearGradient>
<linearGradient id="paint76_linear_1309_25812" x1="78" y1="61" x2="-36.5" y2="224" gradientUnits="userSpaceOnUse">
<stop stop-color="#C4A767"/>
<stop offset="1" stop-color="#C4A767" stop-opacity="0"/>
</linearGradient>
<linearGradient id="paint77_linear_1309_25812" x1="78" y1="61" x2="-36.5" y2="224" gradientUnits="userSpaceOnUse">
<stop stop-color="#C4A767"/>
<stop offset="1" stop-color="#C4A767" stop-opacity="0"/>
</linearGradient>
<linearGradient id="paint78_linear_1309_25812" x1="78" y1="61" x2="-36.5" y2="224" gradientUnits="userSpaceOnUse">
<stop stop-color="#C4A767"/>
<stop offset="1" stop-color="#C4A767" stop-opacity="0"/>
</linearGradient>
<linearGradient id="paint79_linear_1309_25812" x1="78" y1="61" x2="-36.5" y2="224" gradientUnits="userSpaceOnUse">
<stop stop-color="#C4A767"/>
<stop offset="1" stop-color="#C4A767" stop-opacity="0"/>
</linearGradient>
<linearGradient id="paint80_linear_1309_25812" x1="78" y1="61" x2="-36.5" y2="224" gradientUnits="userSpaceOnUse">
<stop stop-color="#C4A767"/>
<stop offset="1" stop-color="#C4A767" stop-opacity="0"/>
</linearGradient>
<linearGradient id="paint81_linear_1309_25812" x1="78" y1="61" x2="-36.5" y2="224" gradientUnits="userSpaceOnUse">
<stop stop-color="#C4A767"/>
<stop offset="1" stop-color="#C4A767" stop-opacity="0"/>
</linearGradient>
<linearGradient id="paint82_linear_1309_25812" x1="78" y1="61" x2="-36.5" y2="224" gradientUnits="userSpaceOnUse">
<stop stop-color="#C4A767"/>
<stop offset="1" stop-color="#C4A767" stop-opacity="0"/>
</linearGradient>
<linearGradient id="paint83_linear_1309_25812" x1="78" y1="61" x2="-36.5" y2="224" gradientUnits="userSpaceOnUse">
<stop stop-color="#C4A767"/>
<stop offset="1" stop-color="#C4A767" stop-opacity="0"/>
</linearGradient>
<linearGradient id="paint84_linear_1309_25812" x1="78" y1="61" x2="-36.5" y2="224" gradientUnits="userSpaceOnUse">
<stop stop-color="#C4A767"/>
<stop offset="1" stop-color="#C4A767" stop-opacity="0"/>
</linearGradient>
<linearGradient id="paint85_linear_1309_25812" x1="78" y1="61" x2="-36.5" y2="224" gradientUnits="userSpaceOnUse">
<stop stop-color="#C4A767"/>
<stop offset="1" stop-color="#C4A767" stop-opacity="0"/>
</linearGradient>
</defs>
</svg>
