<svg width="222" height="114" viewBox="0 0 222 114" fill="none" xmlns="http://www.w3.org/2000/svg">
<g clip-path="url(#clip0_1418_45082)">
<g opacity="0.3">
<path d="M162.035 118.819C160.671 119.049 159.379 119.218 158.226 119.33C159.317 119.146 160.609 118.977 162.035 118.819Z" fill="#C4A767"/>
<path d="M157.953 119.376C158.02 119.381 158.086 119.386 158.159 119.325L157.953 119.376Z" fill="#C4A767"/>
<path d="M130.614 107.348C132.241 107.205 134.001 107.073 136.039 106.828C143.981 105.966 154.122 103.659 164.453 99.7505C172.839 96.6334 179.094 93.2156 183.969 90.229C188.377 87.2059 191.873 84.6504 194.318 82.619L194.463 82.4956C192.017 84.527 188.845 87.2424 184.947 90.6418C184.005 91.511 182.795 92.3594 181.58 93.2747C180.298 94.1847 178.949 95.0896 177.528 96.0562C174.624 97.9172 171.242 99.8755 167.329 101.725C157.61 106.422 146.42 108.378 137.588 108.565C135.369 108.526 133.352 108.504 131.535 108.497C129.729 108.356 128.061 108.159 126.795 107.993C125.462 107.822 124.464 107.677 123.795 107.624C123.131 107.505 122.73 107.474 122.73 107.474C122.73 107.474 124.073 107.511 126.435 107.426C127.449 107.371 128.926 107.418 130.614 107.348Z" fill="#C4A767"/>
<path d="M106.353 97.3102L106.09 97.2224C106.219 97.2997 106.353 97.3102 106.481 97.3875C106.415 97.3823 106.353 97.3102 106.353 97.3102Z" fill="#C4A767"/>
<path d="M110.449 98.3027C111.978 98.5565 113.522 98.6095 115.189 98.8067C118.406 98.9901 121.967 99.0656 125.817 98.8943C127.773 98.8447 129.734 98.7282 131.767 98.55C133.8 98.3718 135.9 98.1987 138.144 97.9023C142.426 97.3607 146.807 96.4228 151.218 95.0833C161.982 91.6802 170.234 87.6774 176.118 84.702C181.936 81.7215 185.251 79.7579 185.251 79.7579C185.251 79.7579 184.731 80.3907 183.567 81.5119C182.404 82.6332 180.668 84.1813 178.238 86.0118C173.316 89.6008 165.614 94.3198 153.811 97.2379C149.014 98.3454 144.247 99.0512 139.646 99.366C134.983 99.6086 130.732 99.7486 126.702 99.6366C122.734 99.5967 118.987 99.3047 115.709 99.0492C113.043 98.7068 110.639 98.4522 108.329 97.8682L108.396 97.8734C108.921 98.0489 109.651 98.1732 110.449 98.3027Z" fill="#C4A767"/>
<path d="M106.481 97.3875C107.006 97.5631 107.598 97.7438 108.128 97.8525C107.531 97.7386 107.006 97.5631 106.481 97.3875Z" fill="#C4A767"/>
<path d="M76.7318 70.4259C76.989 70.5806 77.308 70.8075 77.5653 70.9622C77.2411 70.8022 76.9839 70.6475 76.7318 70.4259Z" fill="#C4A767"/>
<path d="M77.5653 70.9622C77.6322 70.9674 77.6938 71.0395 77.7607 71.0447C77.6938 71.0395 77.627 71.0343 77.5653 70.9622Z" fill="#C4A767"/>
<path d="M75.5846 69.5959C75.775 69.7454 76.0271 69.967 76.2843 70.1217C76.1557 70.0444 75.9653 69.8949 75.8367 69.8175L75.5846 69.5959Z" fill="#C4A767"/>
<path d="M72.4539 62.2147C72.6443 62.3642 72.8398 62.4468 73.0971 62.6015C72.8398 62.4468 72.5157 62.2869 72.2636 62.0653L72.4539 62.2147Z" fill="#C4A767"/>
<path d="M57.9093 42.2959C58.0893 42.5792 58.2641 42.9295 58.511 43.2181C58.3927 43.0069 58.2075 42.7904 58.0841 42.6462L57.9093 42.2959Z" fill="#C4A767"/>
<path d="M58.8095 43.7126C58.686 43.5683 58.5678 43.3571 58.4443 43.2128C58.5678 43.3571 58.6912 43.5014 58.8095 43.7126Z" fill="#C4A767"/>
<path d="M66.5049 51.2475C68.2337 52.3922 70.0189 53.6759 71.8918 54.6972C73.7647 55.7184 75.6993 56.8118 77.7215 57.6427C85.7897 61.2341 95.0321 63.5702 105.361 64.9138C111.82 65.8211 117.517 66.1304 122.741 66.4701C127.908 66.6708 132.483 66.6907 136.251 66.715C142.648 66.6749 146.961 66.607 148.037 66.6235C147.646 66.4583 147.255 66.2932 146.925 66.2002C146.925 66.2002 146.925 66.2002 146.864 66.128C142.685 64.4558 138.574 62.7888 134.602 61.0653C131.869 59.8424 129.204 58.6247 126.605 57.4122C125.252 57.5088 122.344 57.6861 118.113 57.5585C115.092 57.4577 111.351 57.0988 106.904 56.281C102.525 55.4684 97.5126 54.1352 91.9708 51.818C87.4683 49.9859 83.3418 47.6443 79.5037 45.056C77.5898 43.6949 75.7429 42.339 74.0401 40.8597C72.3321 39.4473 70.7117 37.7724 69.22 36.1748C63.8756 30.4392 60.2353 23.557 58.2775 17.5466C60.2404 23.4901 63.9066 30.0376 69.1432 35.4282C75.1308 41.5506 82.8226 46.5266 91.4623 49.6911C96.7573 51.7197 101.703 53.0477 106.067 54.0611C107.127 54.2784 108.182 54.5626 109.242 54.7798C110.235 54.9919 111.233 55.137 112.227 55.3491C114.084 55.6959 115.88 55.9705 117.476 56.2295C120.6 56.7422 123.142 56.9404 124.871 57.2098C125.406 57.2515 125.875 57.288 126.209 57.314C123.678 56.1068 121.28 54.91 118.882 53.7131C116.423 52.4442 114.035 51.1135 111.715 49.788C110.552 49.1588 109.461 48.4678 108.365 47.8437C107.274 47.1528 106.179 46.5287 105.155 45.8429C103.169 44.5435 101.245 43.3163 99.3923 42.0273C99.3923 42.0273 99.3924 42.0273 99.3306 41.9552C97.4168 40.5941 95.7036 39.2486 94.0521 37.9753C90.8883 35.3721 88.1772 33.0063 86.1299 30.7594C85.6927 30.3214 85.3223 29.8885 84.952 29.4557C84.8903 29.3835 84.7617 29.3062 84.6999 29.234C84.1289 28.7856 83.3778 28.0537 82.3695 27.1672C81.3664 26.2137 80.3223 24.9204 79.1599 23.4158C78.6148 22.6327 78.0748 21.7826 77.4783 20.7935C76.8766 19.8713 76.4243 18.7588 75.9668 17.7132C75.5606 16.8735 75.2317 15.9053 74.9594 15.0761C74.6922 14.1799 74.3478 13.4124 74.1476 12.5215C73.8036 10.8788 73.3154 9.35943 73.2235 7.93831C72.7721 5.07521 72.8093 2.85618 72.5374 1.15171L72.5426 1.08479C72.7476 2.78405 72.9163 4.95179 73.6509 7.63496C74.3186 10.3129 75.4956 13.3672 77.1974 16.5971C79.3055 20.6666 81.553 23.8043 83.0494 26.2102C83.8363 27.3488 84.5049 28.2762 84.9266 28.915C85.3483 29.5539 85.59 29.9094 85.59 29.9094C85.59 29.9094 85.4613 29.832 85.1424 29.6052C85.451 29.9659 85.8265 30.3318 86.202 30.6977C87.3182 31.9293 88.6351 33.1766 90.1476 34.5064C90.0241 34.3621 89.839 34.1457 89.6538 33.9293C89.1652 33.2853 88.4245 32.4195 87.648 31.1471C86.0178 28.7308 84.1359 25.2175 82.9749 21.0872C82.5692 19.3723 82.1479 17.8582 81.9891 16.4318C81.9072 15.7521 81.7583 15.0672 81.6763 14.3875C81.5943 13.7078 81.574 13.1003 81.4868 12.4875C81.3073 11.3289 81.3285 10.1859 81.2003 9.23324C81.1697 8.75953 81.0721 8.2806 80.9694 7.86861C80.9336 7.46183 80.8257 7.11677 80.7126 6.83864C80.8257 7.11677 80.9388 7.39491 81.0415 7.80691C81.1442 8.21889 81.2418 8.69782 81.3393 9.17674C81.5344 10.1346 81.7139 11.2932 82.0273 12.4623C82.1813 13.0802 82.3354 13.6982 82.4843 14.3831C82.7001 15.0733 82.9159 15.7634 83.1317 16.4535C83.3423 17.2106 83.625 17.9059 83.8974 18.7351C84.1749 19.4974 84.4473 20.3266 84.8534 21.1662C86.4879 25.2662 88.1126 28.6247 89.0686 31.0558C89.9271 33.0079 90.3638 34.3213 90.5335 34.7385C91.6652 35.7693 92.9308 36.8106 94.2632 37.8571C95.7191 39.0478 97.3089 40.249 98.9707 41.3885C98.8472 41.2442 98.662 41.0278 98.41 40.8061C97.7258 40.0795 96.7383 38.9252 95.6428 37.4259C93.4467 34.4942 90.6078 30.3004 88.7165 25.1705C87.1489 21.0758 86.3479 17.5121 85.8965 14.6491C85.4757 12.2597 85.3583 10.2979 85.0761 8.72729C85.4252 10.3031 85.7485 12.2136 86.4421 14.5569C87.228 17.4461 88.4974 21.0462 90.5437 25.0436C93.0527 30.0196 95.418 34.2438 97.0789 37.1338C97.9067 38.6123 98.4877 39.8022 98.9659 40.5801C99.2025 41.0026 99.3773 41.3528 99.4286 41.5588C101.281 42.8478 103.262 44.2141 105.381 45.5239C106.41 46.1428 107.501 46.8338 108.597 47.4578C109.693 48.0819 110.856 48.7111 111.952 49.3352C114.272 50.6607 116.598 51.9192 119.124 53.1934C121.779 54.5449 124.506 55.8347 127.3 57.1298C127.568 57.1506 127.635 57.1558 127.635 57.1558C127.635 57.1558 127.568 57.1506 127.429 57.2071C129.899 58.3422 132.369 59.4773 134.911 60.5507C135.626 60.8758 136.346 61.1339 137.062 61.459C136.563 60.9488 134.124 58.5368 130.729 54.5691C126.897 50.1632 121.872 43.7791 117.61 36.2425C114.108 30.1791 111.815 25.0179 110.181 20.918C109.399 18.8372 108.731 17.0345 108.176 15.51C108.001 15.1597 107.899 14.7477 107.724 14.3974C107.616 14.0523 107.508 13.7073 107.328 13.4239C107.272 13.2849 107.215 13.1458 107.092 13.0015C107.148 13.1406 107.21 13.2127 107.266 13.3518C107.554 13.9802 107.837 14.6755 108.187 15.3761C108.809 16.9059 109.616 18.652 110.603 20.6816C112.577 24.7406 115.477 29.8818 119.519 35.92C124.461 43.3749 129.085 49.7277 132.166 54.277C135.076 58.409 136.763 60.9644 137.067 61.392C140.128 62.7079 143.262 63.9621 146.468 65.1546C145.485 63.9334 143.464 61.3519 140.852 57.7144C139.941 56.4315 138.974 55.0096 137.884 53.4433C136.861 51.8823 135.709 50.2439 134.562 48.5386C134.027 47.6216 133.348 46.828 132.741 45.9727C132.006 45.0401 131.275 44.0406 130.54 43.1079C129.877 42.1136 129.146 41.1141 128.483 40.1197C127.819 39.1254 127.094 38.0589 126.436 36.9976C122.049 30.192 118.867 24.3555 116.393 19.7862C114.208 15.8453 112.63 12.7598 111.015 11.0179C112.635 12.6928 114.363 15.5881 116.821 19.4828C119.634 24.0112 123.424 29.8278 128.418 36.6134C129.935 38.7516 131.462 40.7559 132.861 42.6829C133.597 43.6155 134.332 44.5481 135.001 45.4755C135.731 46.4751 136.467 47.4077 137.001 48.3247C139.347 51.9413 141.126 55.0425 142.607 57.6492C144.087 60.2559 145.27 62.368 146.036 63.7743C146.391 64.4079 146.684 64.9694 146.859 65.3197C148.624 65.9959 150.451 66.7442 152.282 67.4256C154.572 68.2774 156.795 69.1239 159.157 69.914C158.715 69.5428 158.087 68.9553 157.146 68.0739C155.577 66.605 153.385 64.4817 150.767 61.7864C149.461 60.4053 148.098 58.8851 146.678 57.2258C146.004 56.3653 145.263 55.4997 144.528 54.567C143.859 53.6396 143.191 52.7122 142.527 51.7179C141.195 49.7961 139.807 47.7353 138.49 45.6128C137.102 43.552 135.523 41.3417 133.949 39.0644C128.729 31.7225 124.301 25.4523 121.257 20.4345C118.074 15.4732 116.145 11.6871 114.206 9.78535C116.079 11.6819 118.29 15.2881 121.823 20.0746C125.346 24.995 130.325 31.1062 136.415 38.5159C138.256 40.814 140.036 43.04 141.548 45.2451C142.993 47.4449 144.381 49.5058 145.646 51.4223C146.248 52.3445 146.845 53.3336 147.451 54.1889C148.053 55.1111 148.732 55.9046 149.339 56.7599C150.558 58.4035 151.648 59.9697 152.754 61.3352C156.303 65.921 158.695 68.9353 159.425 69.9348C160.078 70.1877 160.737 70.3737 161.324 70.6215C164.339 71.6644 167.349 72.7743 170.437 73.7556C170.699 73.8433 170.895 73.9259 171.157 74.0137C170.715 73.6425 170.092 72.9881 169.213 72.1789C167.649 70.643 165.401 68.3806 162.798 65.4845C160.124 62.6502 157.032 59.11 153.838 55.1579C152.244 53.1483 150.66 51.005 149.014 48.7894C147.435 46.5791 145.588 44.348 143.757 41.916C137.76 34.1769 133.018 27.6129 129.532 22.224C127.912 19.6738 126.415 17.2679 125.032 15.1402C124.369 14.1459 123.767 13.2237 123.155 12.4353C122.846 12.0746 122.605 11.7191 122.291 11.4253C122.538 11.7139 122.852 12.0077 123.098 12.2963C123.71 13.0846 124.379 14.012 125.048 14.9394C126.441 16.9333 128.082 19.2158 130.098 21.8641C134.069 27.0887 139.418 33.6327 146.166 41.2284C148.203 43.6091 150.245 45.9228 151.953 48.2105C153.599 50.426 155.183 52.5694 156.71 54.5737C159.76 58.6493 162.512 62.2303 164.713 65.0951C168.185 69.8095 170.499 72.9524 171.353 74.0963C174.111 74.9845 176.869 75.8728 179.566 76.6889C181.537 77.3138 183.507 77.9387 185.484 78.4967C184.373 77.1981 181.97 74.3177 178.993 70.1804C176.925 67.326 174.508 63.7711 172.117 59.8815C170.924 57.9033 169.674 55.786 168.497 53.607C167.911 52.484 167.319 51.4279 166.599 50.2945C165.879 49.1611 165.093 48.0225 164.306 46.8839C159.168 39.3464 154.889 32.8858 151.398 27.5638C149.654 24.8694 148.086 22.5252 146.63 20.4592C145.103 18.4549 143.838 16.5383 142.176 15.3989L142.052 15.2546C143.714 16.394 145.051 18.2489 146.713 20.2636C148.369 22.3453 150.138 24.7051 152.092 27.2813C156.13 32.5111 161.155 38.8952 167.034 46.4231C167.954 47.5722 168.808 48.716 169.657 49.9268C170.511 51.0706 171.292 52.2762 171.884 53.3322C173.128 55.5165 174.377 57.6338 175.504 59.6068C177.751 63.6198 179.771 67.0765 181.36 70.0282C182.949 72.98 184.25 75.3033 185.067 76.9156C185.479 77.6883 185.767 78.3167 186.003 78.7392C186.991 79.0181 187.912 79.2919 188.895 79.6378C189.549 79.8908 190.207 80.0767 190.866 80.2627C190.691 79.9125 190.347 79.145 189.761 78.022C188.943 76.4097 187.704 74.1585 186.172 71.3458C183.169 65.7927 178.932 57.9214 173.929 48.6438C166.978 35.8477 159.89 26.5424 154.417 20.7293C155.168 21.4612 155.919 22.193 156.727 23.0639C158.46 25.017 160.652 27.1403 162.678 29.6549C167.004 34.6378 171.905 40.8776 176.714 48.3221C182.731 57.5441 186.412 65.6413 188.395 71.3171C189.387 74.155 190.081 76.4983 190.43 78.0741C190.676 79.238 190.82 79.9898 190.861 80.3297C192.894 81.0267 194.998 81.662 196.959 82.4208C196.789 82.0036 196.496 81.4421 196.152 80.6746C195.396 79.1344 194.357 76.8989 193.093 74.1071C192.393 72.706 191.643 71.0989 190.825 69.4865C190.013 67.8073 189.335 66.1385 188.538 64.2584C186.939 60.5653 185.305 56.4654 183.624 52.0925C182.951 50.3567 182.138 48.6775 181.46 47.0087C180.709 45.4016 179.959 43.7944 179.131 42.316C177.614 39.3025 176.144 36.562 174.652 34.0892C171.665 29.2105 168.471 25.2584 164.874 23.0255L164.745 22.9482C168.28 25.1089 171.819 28.9532 175.414 33.8119C177.245 36.2439 179.05 39.0105 180.968 42.0552C181.93 43.5441 182.881 45.1668 183.833 46.7896C184.712 48.4741 185.72 50.2359 186.661 51.9925C188.871 56.474 190.573 60.5791 192.038 64.2618C193.755 68.1662 194.839 71.5499 195.568 74.3C196.298 77.0501 196.734 79.2387 196.954 80.7372C197.098 81.489 197.118 82.0966 197.159 82.4364C197.288 82.5138 197.422 82.5242 197.551 82.6016C199.177 83.3343 200.808 84 202.372 84.6606C202.331 84.3207 202.228 83.9087 202.136 83.3629C201.782 81.854 201.345 79.6654 200.621 76.8484C199.902 73.9644 198.936 70.7919 197.61 67.0527C196.947 65.1831 196.222 63.2413 195.307 61.1501C194.85 60.1044 194.392 59.0588 193.94 57.9463C193.549 56.9059 193.159 55.8654 192.773 54.7581C190.276 47.8977 187.5 42.0255 184.368 37.2702C181.303 32.5202 177.753 28.8097 174.497 26.536L174.373 26.3917C177.558 28.7271 181.457 32.2629 185.13 36.9929C186.966 39.358 188.843 42.0628 190.638 44.9633C191.532 46.447 192.422 47.9976 193.306 49.6151C193.718 50.3878 194.191 51.2327 194.597 52.0723C194.833 52.4947 195.003 52.9119 195.306 53.3395C195.605 53.8341 195.908 54.2617 196.139 54.7511C198.875 59.4081 200.566 63.6471 201.619 67.4324C202.672 71.2177 203.015 74.611 203.148 77.2473C203.275 79.9504 203.114 82.0252 203.006 83.4307C202.964 83.9661 202.866 84.3625 202.84 84.6971C203.885 85.1151 204.924 85.6001 205.964 86.0851C206.221 86.2398 206.416 86.3224 206.674 86.4771C206.7 86.1425 206.679 85.5349 206.741 84.7318C206.732 83.9904 206.727 83.182 206.738 82.1729C206.748 81.1638 206.698 80.0825 206.662 78.8004C206.586 76.3033 206.423 73.1933 206.018 69.7279C205.819 67.9617 205.557 66.1233 205.239 64.146C205.044 63.1881 204.854 62.1633 204.664 61.1386C204.474 60.1138 204.218 59.0838 203.961 58.0538C203.077 54.6858 201.844 51.4924 200.389 48.5511C199.628 47.0778 198.8 45.5994 197.962 44.2547C197.319 42.9927 196.805 41.808 196.157 40.6129C193.684 36.0436 190.932 32.4626 188.365 29.9733L188.242 29.829C190.742 32.3131 193.838 35.7863 196.986 40.3408C197.346 40.9075 197.773 41.4794 198.128 42.1131C198.308 42.3964 198.616 42.7571 198.858 43.1126C199.166 43.4733 199.408 43.8288 199.717 44.1895C200.817 45.6219 201.913 47.1212 202.869 48.6771C204.849 51.7939 206.551 55.0238 207.877 58.763C211.012 67.8277 210.339 74.7778 209.287 79.6783C208.456 83.4514 207.4 85.793 206.931 86.6318C207.965 87.1837 208.938 87.6635 209.972 88.2154C211.263 88.922 212.565 89.4948 213.712 90.3249C214.932 91.0932 216.089 91.7894 217.309 92.5577C217.885 92.9393 218.466 93.2539 219.043 93.6355C219.619 94.017 220.123 94.4603 220.699 94.8419C222.865 96.4246 225.036 97.9404 226.924 99.6362C227.871 100.451 228.818 101.265 229.769 102.012C230.649 102.822 231.523 103.698 232.336 104.502C239.034 111.016 243.457 117.353 246.059 122C247.359 124.323 248.228 126.142 248.804 127.398C249.38 128.655 249.601 129.279 249.601 129.279C249.77 129.696 249.657 130.293 249.317 130.334C249.111 130.385 248.921 130.235 248.798 130.091C248.607 129.942 248.484 129.797 248.438 129.525C248.438 129.525 248.381 129.385 248.273 129.04C248.165 128.695 247.929 128.273 247.708 127.65C247.42 127.021 247.075 126.254 246.669 125.414C246.201 124.502 245.672 123.518 245.086 122.395C242.54 117.888 238.246 111.628 231.615 105.119C230.803 104.315 229.995 103.444 229.115 102.635C228.236 101.826 227.284 101.078 226.337 100.264C225.206 99.2329 223.997 98.3307 222.788 97.4285C222.772 97.6293 222.751 97.897 222.725 98.2317C222.694 99.5085 222.492 101.243 221.92 103.421C220.718 107.636 218.271 113.169 213.708 118.2C212.822 119.208 211.937 120.216 211.123 121.163C210.242 122.104 209.372 122.912 208.569 123.724C206.895 125.345 205.5 126.852 204.12 128.158C201.303 130.632 199.115 132.818 197.575 134.449L197.503 134.51C199.042 132.88 201.041 130.544 203.549 127.71C204.805 126.259 205.949 124.53 207.365 122.755C208.04 121.865 208.786 120.913 209.471 119.89C210.157 118.866 210.852 117.708 211.542 116.617C215.137 111.039 217.883 106.001 219.846 102.384C220.799 100.506 221.521 99.0131 222.005 97.9735C222.159 97.7163 222.247 97.4538 222.335 97.1913C221.635 96.6654 220.935 96.1396 220.169 95.6085C219.659 95.2322 219.088 94.7837 218.512 94.4021C217.936 94.0206 217.355 93.7059 216.778 93.3244C215.878 92.7829 214.983 92.1745 214.082 91.633C214.21 92.5856 214.477 95.2323 213.945 98.6247C213.573 100.818 212.836 103.386 211.625 105.985C210.342 108.646 208.586 111.337 206.227 113.981C202.401 118.194 198.596 121.264 195.45 123.645C193.885 124.735 192.386 125.83 191.104 126.74C189.761 127.578 188.623 128.365 187.691 129.1L187.619 129.162C188.551 128.426 189.688 127.64 190.904 126.724C192.124 125.742 193.432 124.497 194.946 123.201C197.711 120.522 200.94 117.07 203.984 112.527C207.78 106.965 210.279 101.638 211.866 97.6548C213.118 94.5204 213.763 92.2814 213.959 91.4887C213.768 91.3392 213.511 91.1845 213.316 91.1019C212.163 90.3388 210.867 89.6991 209.575 88.9925C209.055 88.75 208.608 88.4458 208.088 88.2033C207.629 90.6587 206.654 93.6801 204.898 97.2464C203.058 101.008 200.241 105.233 196.054 109.754C193.551 112.522 190.74 114.929 188.16 116.949C185.581 118.97 183.243 120.472 181.117 121.854C180.618 122.22 180.123 122.518 179.696 122.821C179.202 123.119 178.78 123.356 178.357 123.592C177.513 124.065 176.808 124.481 176.247 124.774C175.119 125.427 174.491 125.715 174.424 125.709C174.424 125.709 174.702 125.596 174.918 125.411C175.14 125.159 175.5 124.851 175.938 124.413C176.376 123.976 176.952 123.483 177.673 122.865C178.034 122.557 178.394 122.248 178.76 121.873C179.125 121.497 179.558 121.127 179.99 120.757C181.798 119.147 183.893 117.29 186.205 115.249C188.517 113.207 191.123 110.851 193.883 108.238C196.133 106.124 198.033 104.185 199.728 102.297C201.422 100.409 202.838 98.6345 203.982 96.9057C206.258 93.5819 207.562 90.6535 208.088 88.2033C207.311 87.8061 206.539 87.342 205.696 86.9395C205.243 86.7023 204.723 86.4598 204.265 86.2894C204.136 87.0873 203.476 89.5271 201.662 92.9544C200.498 94.9509 199.03 97.3951 196.888 99.8541C195.914 101.125 194.607 102.37 193.36 103.686C192.706 104.309 191.985 104.926 191.259 105.61C190.539 106.227 189.812 106.911 189.03 107.456C187.81 108.438 186.522 109.415 185.307 110.331C184.092 111.246 182.882 112.094 181.744 112.881C180.607 113.668 179.474 114.387 178.419 114.978C178.135 115.158 177.924 115.277 177.574 115.451C177.229 115.559 176.812 115.729 176.467 115.836C175.711 116.047 174.949 116.324 174.197 116.467C172.813 116.965 171.243 117.247 169.874 117.544C168.437 117.836 167.202 118.144 165.905 118.38C164.819 118.497 163.8 118.62 162.781 118.742C165.987 118.184 169.555 117.318 173.23 115.921C174.548 115.417 175.871 114.847 177.266 114.215L178.249 113.686C178.533 113.506 178.749 113.321 178.965 113.136C179.47 112.704 179.969 112.339 180.474 111.907C182.492 110.179 184.66 108.26 186.854 106.007C187.58 105.323 188.172 104.629 188.831 103.939C189.49 103.25 190.144 102.628 190.731 102C191.844 100.673 193.079 99.49 194.115 98.2914C196.313 95.9715 198.101 93.7541 199.651 91.9896C202.169 89.0213 203.745 86.9222 204.265 86.2894C203.874 86.1243 203.421 85.887 202.963 85.7166C202.958 85.7836 202.958 85.7836 202.958 85.7836L202.963 85.7166C201.661 85.1439 200.427 84.5763 199.12 84.0705C198.301 85.084 197.399 86.293 196.287 87.6203C195.169 89.0145 193.908 90.5321 192.491 92.307C189.597 95.7847 185.905 100.008 181.244 104.56C181.028 104.745 180.879 104.936 180.668 105.054L180.024 105.542C179.597 105.846 179.097 106.211 178.67 106.514C177.748 107.116 176.76 107.712 175.844 108.247C173.939 109.377 171.915 110.297 169.964 111.155C166.001 112.799 162.073 113.974 158.521 114.64C156.746 114.973 155.109 115.249 153.678 115.474C152.185 115.627 150.832 115.724 149.751 115.774C147.589 115.875 146.436 115.987 146.436 115.987C146.436 115.987 147.399 115.726 149.252 115.264C150.142 115.064 151.244 114.746 152.546 114.443C153.787 114.069 155.166 113.638 156.69 113.083C162.769 111.066 170.445 107.557 178.348 102.853C179.125 102.375 179.902 101.897 180.613 101.414C181.324 100.93 182.101 100.452 182.678 99.9587C183.831 98.9713 184.917 97.9787 185.994 97.1199C188.089 95.2632 189.974 93.5248 191.714 91.9098C195.128 88.6746 197.61 86.1748 199.253 84.0809L199.258 84.014C198.739 83.7715 198.281 83.6011 197.761 83.3586C194.952 82.2644 191.998 81.2936 189.044 80.3227C186.023 79.3467 182.998 78.4376 179.977 77.4616C178.727 77.0948 177.414 76.6559 176.102 76.217C175.814 76.4638 175.237 76.9575 174.377 77.6312C173.018 78.6699 170.892 80.0528 167.942 81.6409C162.047 84.7501 152.611 88.3913 139.43 89.99C128.77 91.1793 118.966 90.8866 110.356 89.9463C101.812 89.0112 94.4793 87.2278 88.9987 85.8581L88.7363 85.7703C94.2786 87.2122 101.37 88.6401 109.61 89.1475C117.849 89.655 127.165 89.3036 137.187 87.6606C149.463 85.5874 159.315 82.6519 165.961 80.2746C171.361 78.3388 174.712 76.782 175.896 76.2683C174.188 75.7311 172.485 75.1271 170.709 74.5848C168.543 73.8773 166.449 73.1081 164.349 72.4058C163.716 72.7605 160.627 74.405 155.083 76.4643C151.963 77.6351 148.103 78.8156 143.372 79.9282C138.652 80.907 132.867 81.7355 126.217 81.554C115.527 81.3942 105.94 80.0411 97.6081 78.1126C93.4449 77.1148 89.5597 76.0041 86.0967 74.6569C84.3265 74.0476 82.6388 73.2428 81.0797 72.5153C80.2358 72.1129 79.3251 71.7053 78.5585 71.1742C79.3303 71.6384 80.0455 71.9634 80.8224 72.3606C82.3815 73.0881 84.0744 73.826 85.7829 74.3631C89.2615 75.5095 92.9563 76.4708 97.0064 77.1904C105.035 78.6913 114.273 79.3439 124.458 79.0603C130.799 78.8811 136.162 78.2891 141.006 77.4546C145.782 76.6148 149.957 75.7282 153.447 74.9902C156.875 74.18 159.68 73.5906 161.533 73.1291C162.975 72.77 163.932 72.5753 164.277 72.4675C163.428 72.1321 162.507 71.8583 161.658 71.5228C159.759 70.8362 157.922 70.2217 156.09 69.5403C154.978 69.9923 151.931 71.1014 147.118 72.4097C140.874 73.943 131.645 75.7824 119.494 75.3742C109.689 75.0815 100.719 73.5745 92.887 71.2808C85.3894 69.0133 78.9009 65.8817 73.8948 62.731C78.9061 65.8148 85.1476 68.6578 92.2905 70.2917C99.8244 72.0908 108.301 73.0206 117.606 72.8031C129.135 72.5569 138.708 71.485 145.569 70.6731C150.732 70.0654 154.335 69.6055 155.766 69.3804C154.721 68.9623 153.671 68.6112 152.627 68.1931C151.387 67.6925 150.142 67.2588 148.901 66.7582C148.557 66.866 147.666 67.0659 146.302 67.2962C144.454 67.6909 141.726 68.1516 138.195 68.5498C134.664 68.948 130.269 69.2114 125.215 69.2889C120.042 69.1551 114.139 68.8971 107.5 67.7064C96.8786 65.8014 87.2711 62.9654 78.9767 58.8179C77.9425 58.2659 76.9031 57.781 75.9358 57.2343C74.9068 56.6154 73.9395 56.0687 73.0391 55.5272C71.1045 54.4338 69.3296 53.0162 67.6061 51.8046C65.8877 50.5261 64.257 48.985 62.7497 47.5883C61.9421 46.7174 61.1346 45.8465 60.4608 44.986C61.1397 45.7795 61.8187 46.5731 62.5646 47.3719C63.2124 48.567 64.8535 49.9742 66.5049 51.2475Z" fill="#C4A767"/>
<path d="M59.483 44.5731C59.2361 44.2846 59.0564 44.0012 58.8095 43.7126C58.9895 43.996 59.2361 44.2846 59.483 44.5731Z" fill="#C4A767"/>
<path d="M59.663 44.8565C59.6013 44.7844 59.5395 44.7122 59.483 44.5731C59.5447 44.6453 59.6065 44.7174 59.663 44.8565Z" fill="#C4A767"/>
<path d="M65.311 41.4588C65.4293 41.67 65.5527 41.8142 65.6762 41.9585C65.6144 41.8864 65.5579 41.7473 65.4293 41.67L65.311 41.4588Z" fill="#C4A767"/>
<path d="M66.5863 43.2414C66.5297 43.1023 66.401 43.0249 66.3445 42.8859C66.4679 43.0301 66.5246 43.1692 66.5863 43.2414Z" fill="#C4A767"/>
<path d="M65.6762 41.9585C65.7996 42.1028 65.9176 42.314 66.0411 42.4583C65.8507 42.3088 65.7944 42.1697 65.6762 41.9585Z" fill="#C4A767"/>
<path d="M71.746 47.8853C73.0219 48.7927 74.3595 49.7723 75.7744 50.6232C77.1945 51.4071 78.6763 52.2633 80.2303 53.0577C81.7893 53.7851 83.4205 54.4509 85.0517 55.1167C86.688 55.7155 88.4634 56.2578 90.177 56.728C91.8958 57.1313 93.7484 57.545 95.6062 57.8918C97.4692 58.1716 99.3939 58.5236 101.391 58.8138C111.184 60.1157 119.619 60.7057 125.646 61.108C131.673 61.5103 135.358 61.7301 135.358 61.7301C135.358 61.7301 134.539 61.8684 133.047 62.0214C131.554 62.1744 129.315 62.4039 126.479 62.5196C120.807 62.7509 112.593 62.7841 102.44 60.9155C100.381 60.5531 98.3946 60.129 96.4751 59.7101C94.5555 59.2912 92.7133 58.7436 90.871 58.1961C87.1917 57.0341 83.6773 55.4809 80.5078 53.8199C77.3434 52.0921 74.3902 50.246 71.8539 48.2304C70.5831 47.256 69.3897 46.1531 68.2579 45.1222C67.692 44.6068 67.1983 44.0297 66.6993 43.5195C66.6376 43.4473 66.6376 43.4473 66.5758 43.3752C67.0696 43.9523 67.5686 44.4625 68.0676 44.9727C69.2714 45.9418 70.4649 47.0448 71.746 47.8853Z" fill="#C4A767"/>
<path d="M57.5891 15.1364C57.7997 15.8935 58.0051 16.7175 58.2827 17.4797C58.0155 16.5836 57.7484 15.6875 57.4812 14.7913L57.5891 15.1364Z" fill="#C4A767"/>
<path d="M72.6087 32.399C73.3597 33.1309 74.1829 33.801 75.0008 34.5381C75.8188 35.2751 76.7036 36.0174 77.5936 36.6927C81.1331 39.6618 85.1874 42.065 89.5815 44.4274C96.5689 48.0691 102.543 50.016 107.35 51.4005C108.538 51.6951 109.727 51.9898 110.782 52.274C111.842 52.4912 112.902 52.7085 113.834 52.8484C115.692 53.1952 117.359 53.3925 118.759 53.5689L118.893 53.5793C116.155 53.2986 112.48 52.9449 107.704 52.0341C102.929 51.1233 97.0467 49.7223 89.8892 46.5386C85.4692 44.5109 81.2141 42.092 77.4844 38.9735C73.7442 35.9888 70.5705 32.6442 68.1378 29.29C67.5309 28.4348 66.991 27.5847 66.4458 26.8016C65.9007 26.0185 65.4224 25.2406 65.0111 24.4679C64.1884 22.9225 63.484 21.5883 62.9648 20.4705C62.0036 18.1063 61.4999 16.7878 61.4999 16.7878C61.4999 16.7878 62.086 17.9108 63.2018 20.0177C63.7262 21.0685 64.513 22.2071 65.3513 23.5517C66.1843 24.9633 67.2901 26.3287 68.4525 27.8333C68.7611 28.194 69.0646 28.6216 69.3732 28.9823C69.6818 29.343 70.0573 29.709 70.3659 30.0697C71.1118 30.8684 71.8577 31.6672 72.6087 32.399Z" fill="#C4A767"/>
<path d="M101.125 44.8557C102.103 45.2685 103.014 45.6761 103.796 46.0064C104.578 46.3367 105.299 46.5948 105.818 46.8373C106.925 47.3275 107.511 47.5752 107.511 47.5752C107.511 47.5752 106.976 47.5335 105.916 47.3162C104.856 47.099 103.327 46.8452 101.351 46.2872C97.4608 45.2434 91.754 43.3174 85.292 38.9759C80.111 35.4749 75.8517 31.3725 72.7349 27.2917C69.6233 23.144 67.5821 19.0797 66.3486 15.8864L66.2921 15.7473C66.9757 17.3492 67.7108 19.1571 68.8472 20.9963C69.382 21.9132 69.9785 22.9024 70.6471 23.8298C71.3157 24.7572 72.0512 25.6898 72.8536 26.6276C76.0632 30.379 80.2302 33.9356 85.3136 36.9577C91.6216 40.6811 97.1531 43.1321 101.125 44.8557Z" fill="#C4A767"/>
<path d="M92.5391 37.5207C93.9437 38.5055 95.1734 39.14 95.94 39.671C96.7735 40.2073 97.2263 40.4446 97.2263 40.4446C97.2263 40.4446 95.5692 40.1134 92.5641 38.9366C89.698 37.7033 85.3553 35.547 80.9159 31.1611C80.0466 30.2181 79.167 29.4089 78.4315 28.4763C77.696 27.5436 76.9553 26.6779 76.2867 25.7505C75.6181 24.8231 75.0164 23.9009 74.4816 22.9839C73.8748 22.1287 73.4069 21.2169 72.939 20.3051C72.4711 19.3934 72.065 18.5537 71.7257 17.7193C71.3865 16.8849 71.1141 16.0557 70.7697 15.2882C70.1478 13.7585 69.85 12.3886 69.4697 11.2144L69.4132 11.0753C69.7934 12.2496 70.1529 13.6915 70.7853 15.0874C71.1349 15.788 71.4793 16.5555 71.8185 17.3899C72.163 18.1574 72.7081 18.9405 73.1864 19.7184C74.1377 21.3412 75.3669 22.8509 76.7145 24.5719C78.1393 26.1642 79.631 27.7618 81.4007 29.2463C85.7581 32.9524 89.6528 35.6798 92.5391 37.5207Z" fill="#C4A767"/>
<path d="M84.7933 8.03196C84.8446 8.23796 84.8908 8.51088 84.937 8.78381C84.9577 8.5161 84.9115 8.24317 84.7933 8.03196Z" fill="#C4A767"/>
<path d="M84.7473 7.759C84.7422 7.82593 84.7987 7.96499 84.7935 8.03192C84.7987 7.96499 84.737 7.89286 84.7422 7.82593L84.7473 7.759Z" fill="#C4A767"/>
<path d="M104.519 41.8882C105.47 43.5109 106.247 44.7834 106.786 45.6334C107.321 46.5504 107.558 46.9729 107.558 46.9729C107.558 46.9729 107.121 46.5348 106.308 45.7308C105.495 44.9268 104.379 43.6952 103.088 42.1133C100.501 39.0165 97.2966 34.3229 95.4312 28.8584C93.8843 24.4959 93.7576 20.9175 93.4965 18.2039C93.4715 16.788 93.0964 15.5468 93.0455 14.4655C92.9532 13.9197 92.7887 13.4355 92.6912 12.9566C92.6606 12.4829 92.5578 12.0709 92.522 11.6641L92.5272 11.5972C92.563 12.004 92.6657 12.416 92.7633 12.8949C92.8608 13.3738 93.0253 13.858 93.1845 14.409C93.3438 14.9601 93.3641 15.5677 93.6519 16.1961C93.8729 16.8193 94.0218 17.5042 94.0986 18.2508C94.7456 21.1965 95.4128 24.7497 97.4384 29.0148C99.9319 34.1916 102.611 38.7096 104.519 41.8882Z" fill="#C4A767"/>
<path d="M104.92 31.4831C108.679 37.7012 112.305 43.0336 114.773 46.7945C117.309 50.5607 118.749 52.8275 118.749 52.8275C118.749 52.8275 118.183 52.312 117.247 51.3638C116.316 50.3486 114.942 48.9623 113.337 47.0866C110.189 43.4074 106.023 38.1002 102.949 31.7335C100.45 26.6236 99.0371 22.2716 98.2258 18.8418C97.4813 15.4172 97.4054 12.92 97.0049 11.1382L97.01 11.0713C97.4157 12.7862 97.6254 15.2938 98.7714 18.7496C99.9225 22.1386 101.876 26.4653 104.92 31.4831Z" fill="#C4A767"/>
<path d="M121.534 50.7553C118.016 46.6432 113.439 40.5633 109.675 33.5369C106.682 27.8499 104.77 22.9877 103.583 19.1919C102.396 15.3962 102.012 12.5383 101.2 10.8591L101.138 10.7869C101.95 12.4662 102.541 15.2728 104.067 19.0277C105.589 22.8494 107.979 27.6143 111.579 33.2813C115.95 40.2877 120.131 46.2694 122.965 50.5301C125.866 54.796 127.424 57.274 127.424 57.274C127.424 57.274 126.863 56.6917 125.737 55.5939C124.811 54.5118 123.324 52.8474 121.534 50.7553Z" fill="#C4A767"/>
<path d="M106.217 12.1254C106.341 12.2697 106.397 12.4087 106.521 12.553C106.397 12.4087 106.279 12.1975 106.155 12.0532L106.217 12.1254Z" fill="#C4A767"/>
<path d="M110.109 10.5434C110.176 10.5486 110.171 10.6155 110.238 10.6207C110.176 10.5486 110.114 10.4764 110.047 10.4712L110.109 10.5434Z" fill="#C4A767"/>
<path d="M110.798 11.2031C110.613 10.9867 110.423 10.8372 110.232 10.6877C110.361 10.765 110.546 10.9814 110.798 11.2031Z" fill="#C4A767"/>
<path d="M121.828 11.3219C121.828 11.3219 121.699 11.2445 121.637 11.1724C121.699 11.2445 121.766 11.2498 121.828 11.3219Z" fill="#C4A767"/>
<path d="M122.013 11.5383C121.951 11.4662 121.884 11.461 121.889 11.394C121.956 11.3993 121.951 11.4662 122.013 11.5383Z" fill="#C4A767"/>
<path d="M120.938 10.6466C121.005 10.6518 120.999 10.7188 121.066 10.724C121.005 10.6518 120.938 10.6466 120.809 10.5692L120.938 10.6466Z" fill="#C4A767"/>
<path d="M155.049 42.1226C156.032 43.3438 156.942 44.6267 157.718 45.8992C158.433 47.0995 159.153 48.233 159.873 49.3664C161.313 51.6332 162.696 53.7609 164.018 55.8165C166.8 59.8712 169.212 63.4931 171.269 66.4813C173.327 69.4695 174.957 71.8858 176.109 73.5242C177.194 75.1574 177.796 76.0796 177.796 76.0796C177.796 76.0796 176.921 75.2035 175.424 73.6729C173.927 72.1423 171.757 69.7512 169.221 66.8603C166.69 63.9025 163.872 60.3163 160.956 56.2512C159.495 54.2521 158.055 51.9853 156.682 49.7237C155.962 48.5903 155.314 47.3951 154.599 46.1948C154.239 45.6281 154.008 45.1388 153.586 44.4999C153.16 43.928 152.8 43.3613 152.378 42.7224C149.647 38.8737 146.828 35.2875 144.457 32.0055C142.02 28.7183 139.829 25.7197 137.885 23.0096C136.007 20.3047 134.305 17.9501 132.85 15.8841C131.389 13.885 130.119 12.0354 128.658 10.9115L128.534 10.7672C129.995 11.8911 131.276 13.6068 132.87 15.6164C134.527 17.698 136.435 20.0013 138.456 22.5828C140.678 25.1799 143.07 28.1942 145.853 31.3736C148.692 34.6921 151.855 38.1705 155.049 42.1226Z" fill="#C4A767"/>
<path d="M151.454 18.1418C151.516 18.2139 151.577 18.2861 151.644 18.2913C151.644 18.2913 151.644 18.2913 151.577 18.2861L151.454 18.1418Z" fill="#C4A767"/>
<path d="M154.016 20.698C153.141 19.8219 152.328 19.0179 151.644 18.2913C152.395 19.0231 153.141 19.8219 154.016 20.698Z" fill="#C4A767"/>
<path d="M220.895 74.9271C219.18 77.958 217.511 80.3865 216.069 82.4961C213.19 86.6482 211.186 89.0507 211.186 89.0507C211.186 89.0507 211.955 86.0807 213.671 81.2992C214.527 78.942 215.691 76.0702 217.005 73.008C217.449 71.6286 217.465 69.6772 217.219 67.6381C217.04 65.6042 216.609 63.3487 216.116 61.021C215.191 57.3131 213.979 53.852 212.483 50.5709C211.737 48.8968 210.915 47.3514 210.092 45.806C209.264 44.3275 208.364 42.9108 207.392 41.5557C205.515 38.8509 203.483 36.4033 201.431 34.2234C201.184 33.9348 200.932 33.7132 200.618 33.4194C200.304 33.1256 200.248 32.9866 200.068 32.7032C199.764 32.2756 199.461 31.8479 199.157 31.4203C198.545 30.632 197.928 29.9106 197.311 29.1891L197.188 29.0449C197.81 29.6993 198.427 30.4208 199.106 31.2143C199.41 31.6419 199.785 32.0079 200.155 32.4407L200.397 32.7962C200.454 32.9353 200.582 33.0126 200.706 33.1569C201.02 33.4507 201.272 33.6723 201.585 33.9661C203.905 36.1668 206.272 38.6405 208.55 41.3767C209.106 42.0259 209.723 42.7473 210.273 43.4635C210.824 44.1797 211.369 44.9629 211.909 45.8129C212.999 47.3792 214.012 49.0741 215.025 50.769C216.038 52.4639 216.907 54.2822 217.776 56.1005C218.639 57.9858 219.359 59.9945 220.012 61.9979C220.762 64.4803 221.321 66.8132 221.49 68.9809C221.731 71.087 221.709 73.1052 220.895 74.9271Z" fill="#C4A767"/>
<path d="M230.897 71.8012C228.927 78.9868 224.133 83.5284 220.534 86.5472C216.806 89.4886 214.083 90.7577 214.083 90.7577C214.083 90.7577 215.726 88.6638 218.291 85.0931C220.794 81.4503 224.281 76.4028 227.069 69.9543C228.146 67.3449 228.888 64.7095 229.219 62.1767C229.549 59.6439 229.546 57.085 229.053 54.7573C229.007 53.6091 228.555 52.4966 228.236 51.3945C227.851 50.2871 227.527 49.2519 227.198 48.2837C226.144 46.2489 225.147 44.3532 224.19 42.7974L224.134 42.6583C225.09 44.2142 226.155 46.1151 227.471 48.2376C227.929 49.2832 228.453 50.3341 228.967 51.5187C229.481 52.7034 230.062 53.8934 230.37 55.1293C230.745 56.3705 231.043 57.7403 231.408 59.1154C231.572 60.4748 231.669 61.829 231.828 63.2553C231.888 65.9533 231.66 68.8981 230.897 71.8012Z" fill="#C4A767"/>
<path d="M224.676 98.249C224.676 98.249 225.984 96.129 228.328 92.8104C230.671 89.4918 234.05 84.9746 238.083 79.835C241.296 75.7089 243.614 71.8496 244.769 68.2364C245.924 64.6232 245.663 61.0343 244.687 57.9956L244.63 57.8566C245.478 60.8179 246.454 64.7318 245.999 68.8709C245.539 73.0769 244.105 77.6784 241.452 82.3869C238.176 88.1914 233.64 92.0124 230.35 94.5166C226.993 97.0156 224.676 98.249 224.676 98.249Z" fill="#C4A767"/>
</g>
<g opacity="0.1">
<path d="M179.392 82.465C177.967 81.5304 176.588 80.6645 175.302 79.9357C176.566 80.7792 177.898 81.5765 179.392 82.465Z" fill="#C4A767"/>
<path d="M175.141 79.8446C175.187 79.9132 175.302 79.9357 175.348 80.0043L175.141 79.8446Z" fill="#C4A767"/>
<path d="M138.301 79.4069C140.024 80.3404 141.999 81.5022 144.09 82.6864C152.521 87.6755 162.797 95.4085 172.392 105.092C180.216 112.88 185.514 119.875 189.433 125.706C192.847 131.378 195.523 135.953 197.21 139.5L197.302 139.637C195.615 136.09 193.489 131.445 190.762 125.609C190.092 124.168 189.261 122.635 188.338 120.965C187.415 119.295 186.377 117.603 185.178 115.819C182.849 112.206 180.038 108.319 176.607 104.252C168.065 94.0596 156.458 86.1252 146.699 81.5307C144.173 80.4397 141.877 79.3937 139.902 78.5299C137.79 77.7583 135.817 77.1925 134.256 76.6481C132.741 76.1723 131.502 75.8101 130.653 75.584C129.804 75.3579 129.414 75.2218 129.414 75.2218C129.414 75.2218 130.952 75.8809 133.501 77.1552C134.81 77.7693 136.509 78.5195 138.301 79.4069Z" fill="#C4A767"/>
<path d="M105.998 78.3108L105.631 78.358C105.814 78.3344 105.998 78.3108 106.159 78.4019C106.112 78.3333 106.112 78.3333 105.998 78.3108Z" fill="#C4A767"/>
<path d="M111.159 79.3234C112.972 79.7981 114.74 80.5022 116.691 81.1827C120.456 82.6359 124.473 84.3174 128.631 86.5027C130.812 87.5262 132.903 88.7105 135.108 89.9173C137.313 91.1241 139.611 92.4681 141.908 93.812C146.48 96.6147 150.962 99.8762 155.171 103.62C165.567 112.865 172.729 121.596 177.819 127.835C182.84 134.12 185.536 137.984 185.536 137.984C185.536 137.984 185.257 136.976 184.54 135.168C183.822 133.36 182.62 130.682 180.82 127.411C177.105 120.846 170.858 111.7 159.11 102.368C154.351 98.6947 149.319 95.504 144.311 92.7946C139.166 90.1774 134.504 87.8335 129.935 85.9248C125.435 83.97 121.165 82.3582 117.263 80.9972C114.05 80.0692 111.204 79.094 108.383 78.6001L108.497 78.6226C109.346 78.8487 110.195 79.0748 111.159 79.3234Z" fill="#C4A767"/>
<path d="M59.1985 93.4286C59.6337 93.3353 60.0003 93.2881 60.413 93.3095C60.0003 93.2881 59.5651 93.3814 59.1985 93.4286Z" fill="#C4A767"/>
<path d="M59.1985 93.4286C58.9466 93.4982 58.7633 93.5218 58.5114 93.5915C58.6947 93.5679 58.9466 93.4982 59.1985 93.4286Z" fill="#C4A767"/>
<path d="M60.413 93.3095C60.4816 93.2634 60.5964 93.2859 60.665 93.2398C60.5503 93.2173 60.4816 93.2634 60.413 93.3095Z" fill="#C4A767"/>
<path d="M57.4576 93.8017C57.7781 93.6859 58.1448 93.6387 58.5114 93.5915C58.3281 93.6151 58.0761 93.6848 57.8928 93.7084L57.4576 93.8017Z" fill="#C4A767"/>
<path d="M50.239 100.545C50.537 100.544 50.7889 100.474 51.1555 100.427C50.7889 100.474 50.3076 100.499 49.941 100.546L50.239 100.545Z" fill="#C4A767"/>
<path d="M23.7724 115.542C24.1154 115.311 24.527 115.035 24.87 114.804C24.5956 114.988 24.3898 115.127 24.1154 115.311L23.7724 115.542Z" fill="#C4A767"/>
<path d="M25.5562 114.343C25.3504 114.482 25.1446 114.62 24.9388 114.758C25.1446 114.62 25.2818 114.528 25.5562 114.343Z" fill="#C4A767"/>
<path d="M38.0093 109.759C40.4833 109.291 43.1406 108.8 45.799 108.607C48.3888 108.46 51.1844 108.174 53.8439 108.279C64.7789 108.399 76.2941 110.42 88.5491 114.134C96.26 116.421 102.802 118.896 108.84 121.212C114.74 123.62 119.838 125.87 124.109 127.78C131.204 131.078 136.004 133.329 137.313 133.944C136.785 133.9 136.304 133.924 135.777 133.88L135.845 133.834C135.845 133.834 135.845 133.834 135.777 133.88C130.228 133.626 124.794 133.394 119.384 133.345C115.694 133.335 112.118 133.349 108.542 133.362C107.094 132.542 103.97 130.857 99.0574 128.881C95.6366 127.495 91.2296 125.976 85.8375 124.62C80.4915 123.333 74.2065 122.279 66.8015 122.077C60.8403 121.801 54.9511 122.373 49.4071 123.31C46.6126 123.893 43.8867 124.43 41.162 125.266C38.4597 125.986 35.8732 127.027 33.2867 128.068C24.3375 131.792 16.8175 137.642 11.5669 143.461C16.7951 137.756 24.2251 132.365 32.8088 128.987C42.6745 125.145 53.786 123.454 65.1135 124.307C72.1294 124.67 78.2997 125.702 83.6221 126.806C84.9985 127.076 86.2602 127.323 87.5681 127.639C88.7612 127.933 89.9543 128.227 91.1474 128.52C93.419 129.085 95.5072 129.673 97.4807 130.239C101.267 131.28 104.228 132.277 106.248 132.912C106.867 133.093 107.418 133.32 107.808 133.456C104.393 133.56 101.047 133.619 97.7921 133.814C94.3083 133.964 91.0314 134.274 87.8231 134.538C86.242 134.704 84.6148 134.802 83.0337 134.968C81.4526 135.135 79.9176 135.37 78.4512 135.558C75.5184 135.936 72.7463 136.405 70.0666 137.01C70.0666 137.01 70.0666 137.01 69.998 137.056C67.2035 137.64 64.5237 138.246 62.0733 138.897C57.2411 140.152 52.9825 141.52 49.5492 142.931C48.8396 143.209 48.1986 143.44 47.5351 143.787C47.3518 143.81 47.2832 143.856 47.0999 143.88C46.2756 144.135 45.0162 144.484 43.4137 145.063C41.8112 145.642 40.0265 146.542 37.9675 147.627C36.961 148.204 35.8634 148.941 34.7658 149.679C33.6683 150.416 32.6404 151.406 31.4978 152.373C30.5836 153.087 29.8076 154.007 28.9855 154.858C28.232 155.663 27.4786 156.468 26.8398 157.295C25.6084 159.019 24.3072 160.491 23.4188 161.984C21.4125 164.926 20.3678 167.52 19.251 169.266L19.2285 169.381C20.2992 167.566 21.597 165.2 23.7651 162.648C25.8411 159.958 28.765 157.197 32.3535 154.387C36.7877 150.909 40.9508 148.51 43.7634 146.62C45.25 145.721 46.3937 145.052 47.2169 144.498C47.9715 143.991 48.4977 143.737 48.4977 143.737C48.4977 143.737 48.2459 143.807 47.8793 143.854C48.4055 143.6 48.9779 143.415 49.6189 143.183C51.4958 142.42 53.6707 141.655 55.9603 140.913C55.7545 141.052 55.434 141.167 55.1135 141.283C54.2442 141.768 52.9397 142.346 51.4305 143.36C48.3886 145.205 44.5257 148.199 41.1025 152.292C39.7564 153.993 38.5699 155.487 37.6129 157.027C37.1113 157.762 36.6783 158.451 36.1768 159.187C35.7438 159.876 35.4255 160.588 35.0612 161.231C34.2863 162.449 33.7409 163.711 33.1257 164.722C32.8524 165.205 32.5105 165.733 32.1912 166.147C31.9404 166.515 31.621 166.928 31.3466 167.113C31.621 166.928 31.8718 166.561 32.1226 166.193C32.442 165.779 32.8299 165.319 33.1718 164.791C33.9016 163.802 34.6079 162.631 35.6122 161.458C36.0912 160.837 36.5703 160.217 37.118 159.55C37.6657 158.883 38.2594 158.285 38.8757 157.572C39.492 156.859 40.1083 156.146 40.9078 155.41C41.6388 154.72 42.3462 153.846 43.1918 153.178C47.1436 149.427 50.6399 146.48 52.9239 144.248C54.866 142.545 56.0761 141.234 56.4416 140.889C58.2734 140.355 60.1739 139.775 62.2352 139.286C64.4337 138.704 66.8616 138.168 69.3356 137.701C69.0837 137.77 68.8093 137.955 68.4202 138.117C67.2529 138.602 65.6055 139.411 63.615 140.45C59.6801 142.596 54.3284 145.893 49.6468 150.633C45.8097 154.406 43.1411 157.992 41.1809 161.002C39.5165 163.415 38.3784 165.574 37.2841 167.206C38.4245 165.643 39.7695 163.643 41.778 161.298C44.1284 158.424 47.3481 155.065 51.6675 151.565C57.0385 147.259 61.7706 143.78 65.0622 141.269C66.685 139.98 68.0108 138.989 68.9251 138.275C69.4053 137.953 69.7022 137.654 69.9766 137.469C72.7025 136.932 75.6578 136.44 78.6592 136.016C80.1256 135.827 81.7067 135.661 83.2417 135.426C84.8228 135.26 86.3353 135.14 88.0311 134.996C91.2394 134.732 94.631 134.444 98.0001 134.272C101.667 134.098 105.38 133.992 109.186 134.024C109.461 134.138 109.576 134.16 109.576 134.16C109.576 134.16 109.461 134.138 109.369 134.001C112.647 133.988 116.04 133.999 119.433 134.009C120.327 134.006 121.335 134.025 122.275 134.091C121.497 134.414 117.514 135.896 111.633 138.554C105.088 141.558 96.2567 146.198 87.5919 152.419C80.596 157.419 75.4095 161.999 71.5038 165.819C69.5853 167.706 67.9411 169.408 66.5253 170.857C66.1598 171.202 65.7943 171.548 65.4974 171.847C65.2006 172.146 64.9037 172.445 64.6068 172.744C64.4696 172.836 64.3099 173.043 64.1727 173.135C64.3099 173.043 64.4471 172.951 64.5843 172.859C65.2242 172.329 65.8865 171.685 66.6636 171.063C68.1256 169.682 69.9305 168.071 72.1245 166.298C76.3979 162.729 82.2501 158.398 89.7746 153.74C99.1287 147.952 107.455 143.154 113.333 139.602C118.662 136.419 121.91 134.436 122.459 134.067C126.54 134.212 130.735 134.38 134.931 134.548C133.215 135.403 129.692 137.272 124.865 140.018C123.173 141.056 121.365 142.071 119.399 143.293C117.432 144.515 115.396 145.784 113.109 147.121C112.011 147.859 110.89 148.413 109.746 149.082C108.488 149.729 107.093 150.467 105.812 151.229C104.531 151.99 103.25 152.751 101.969 153.512C100.734 154.342 99.3848 155.149 98.0814 156.025C89.6888 161.465 83.1281 166.372 78.0766 170.265C73.6649 173.628 70.2822 176.299 67.6271 177.386C70.3283 176.368 73.7807 173.948 78.4454 170.813C83.9332 167.126 91.0911 162.515 100.127 157.439C102.894 155.778 105.617 154.347 108.225 152.893C109.552 152.2 110.81 151.554 112.022 150.839C113.303 150.078 114.63 149.385 115.728 148.648C120.164 145.766 123.708 143.186 126.749 141.043C129.743 138.831 132.052 137.08 133.652 135.905C134.361 135.33 134.978 134.915 135.344 134.57C137.705 134.676 140.113 134.85 142.474 134.956C145.409 135.175 148.459 135.415 151.394 135.634C150.753 135.865 149.677 136.19 148.212 136.677C145.739 137.443 142.145 138.762 137.819 140.475C135.621 141.354 133.333 142.394 130.907 143.526C129.717 144.126 128.459 144.773 127.201 145.419C125.988 146.134 124.776 146.849 123.495 147.61C121.002 149.087 118.486 150.678 115.833 152.361C113.249 153.998 110.367 155.636 107.348 157.366C97.7865 162.994 89.6436 167.769 83.607 171.826C77.5242 175.814 73.433 179.061 70.2967 180.173C73.3869 178.993 77.5939 176.066 84.068 172.512C90.5185 168.775 99.236 164.41 109.716 159.26C112.896 157.621 116.054 156.096 118.912 154.275C121.634 152.546 124.218 150.909 126.643 149.479C127.809 148.695 129.021 147.98 130.119 147.242C131.262 146.573 132.406 145.904 133.527 145.35C135.677 144.104 137.759 142.905 139.727 141.981C146.041 138.634 150.228 136.418 151.555 135.725C152.38 135.768 153.252 135.879 154.077 135.922C157.999 136.274 161.92 136.627 165.887 137.048C166.185 137.047 166.529 137.114 166.827 137.113C166.186 137.345 165.11 137.669 163.691 138.225C161.127 139.151 157.464 140.517 153.093 142.459C148.676 144.332 143.389 146.689 137.829 149.529C135.038 151.006 132.179 152.53 129.228 154.214C126.346 155.852 123.165 157.491 119.848 159.223C109.278 164.832 100.494 169.838 93.8851 174.08C90.6835 176.132 87.871 178.022 85.2181 179.705C83.9834 180.535 82.8397 181.204 81.7646 181.827C81.2383 182.081 80.7806 182.289 80.2543 182.543C80.712 182.335 81.1011 182.173 81.5588 181.965C82.6339 181.342 83.8237 180.742 85.1045 179.981C87.6663 178.459 90.6857 176.728 94.2315 174.744C101.369 170.844 110.659 166.294 122.147 161.163C125.626 159.522 129.081 157.997 132.147 156.335C135.098 154.651 138.026 153.081 140.749 151.65C146.285 148.627 151.135 146.065 155.07 143.918C161.361 140.388 165.639 138.011 167.057 137.158C170.611 137.558 174.097 138.003 177.652 138.403C180.22 138.668 182.72 138.98 185.198 139.406C183.298 140.284 179.134 142.386 173.644 145.478C169.824 147.646 165.364 150.345 160.677 153.594C158.276 155.207 155.852 156.936 153.406 158.778C152.149 159.723 150.96 160.621 149.542 161.475C148.124 162.328 146.752 163.25 145.266 164.149C135.706 170.076 127.564 175.149 120.977 179.276C117.707 181.374 114.665 183.219 111.966 184.833C109.221 186.379 106.865 187.763 104.437 188.3L104.185 188.369C106.659 187.902 109.015 186.518 111.967 185.131C114.827 183.608 118.03 181.854 121.553 179.984C128.737 176.153 137.568 171.513 148.046 166.065C149.648 165.188 151.181 164.357 152.713 163.526C154.246 162.695 155.687 161.727 156.944 160.783C159.505 158.962 161.882 157.166 164.168 155.53C168.695 152.189 172.718 149.286 176.01 146.775C179.348 144.333 181.885 142.33 183.644 140.948C184.49 140.28 185.13 139.751 185.61 139.428C186.826 139.607 188.041 139.786 189.28 139.85C190.151 139.961 190.977 140.004 191.848 140.116C191.483 140.461 190.705 141.082 189.448 142.027C187.688 143.409 185.174 145.298 182.019 147.716C175.848 152.461 167.162 159.095 156.784 167.064C142.451 177.89 129.8 184.699 120.714 188.515C121.927 188.098 123.163 187.566 124.514 187.057C127.397 185.717 130.969 184.511 134.538 182.71C141.93 179.336 150.509 174.766 159.817 168.91C171.251 161.624 179.454 154.419 184.569 148.99C187.126 146.276 189.112 144.045 190.321 142.436C191.21 141.241 191.712 140.506 191.963 140.138C194.646 140.426 197.214 140.692 199.92 140.865C199.486 141.256 198.915 141.74 198.184 142.43C196.607 143.789 194.253 145.769 191.443 148.255C189.957 149.452 188.312 150.856 186.598 152.307C184.884 153.757 183.148 155.322 181.389 157.002C177.757 160.339 173.805 164.09 169.671 168.163C167.981 169.796 166.267 171.247 164.714 172.788C163 174.239 161.355 175.643 159.732 176.933C156.533 179.581 153.469 181.838 150.566 183.889C144.735 187.808 139.107 190.694 134.043 191.308L133.791 191.378C138.855 190.763 144.714 188.22 151.256 184.62C154.528 182.82 158.004 180.584 161.685 178.209C163.538 176.965 165.39 175.72 167.333 174.315C169.162 172.887 171.173 171.435 173.139 169.915C177.893 166.024 181.891 162.341 185.316 158.844C189.154 155.369 192.122 152.08 194.381 149.367C196.641 146.654 198.214 144.402 199.239 142.816C199.741 142.081 200.105 141.438 200.379 140.955C200.562 140.932 200.723 141.023 200.906 140.999C203.107 141.014 205.239 141.075 207.371 141.136C207.12 141.503 206.801 141.917 206.459 142.446C205.319 144.009 203.631 146.238 201.417 149.02C199.136 151.848 196.442 154.953 193.017 158.449C191.304 160.198 189.454 162.038 187.421 163.903C186.393 164.892 185.319 165.813 184.291 166.802C183.263 167.792 182.419 168.758 181.391 169.747C175.134 176.143 168.987 181.369 163.132 185.104C157.209 188.885 151.396 191.198 146.562 192.156L146.31 192.226C151.097 191.2 157.188 189.298 163.777 185.766C167.094 184.035 170.479 181.959 173.978 179.608C175.761 178.41 177.499 177.143 179.327 175.715C180.242 175.001 181.087 174.333 182.07 173.573C182.55 173.25 182.938 172.79 183.487 172.421C184.036 172.053 184.585 171.684 185.133 171.315C190.598 167.444 194.641 163.532 197.676 159.899C200.734 156.152 202.875 152.522 204.4 149.605C205.879 146.62 206.764 144.233 207.331 142.557C207.512 141.938 207.67 141.433 207.806 141.042C209.228 141.083 210.603 141.055 211.978 141.027C212.276 141.026 212.643 140.979 212.941 140.978C212.736 141.414 212.487 142.08 212.077 142.952C211.736 143.779 211.305 144.766 210.85 145.868C210.327 147.016 209.736 148.21 209.099 149.634C207.711 152.458 205.936 155.743 203.772 159.487C202.633 161.348 201.425 163.255 200.057 165.369C199.374 166.426 198.644 167.414 197.845 168.449C197.047 169.483 196.317 170.472 195.45 171.552C192.712 174.886 189.811 177.831 186.566 180.41C184.943 181.7 183.343 182.875 181.628 184.027C180.279 185.132 179.046 186.26 177.788 187.205C172.691 191.028 167.772 193.637 163.652 195.211L163.514 195.303C167.566 193.775 172.853 191.418 178.594 187.958C179.28 187.497 180.08 187.059 180.766 186.598C181.109 186.367 181.636 186.113 182.093 185.905C182.62 185.651 183.077 185.443 183.557 185.12C185.548 184.081 187.492 182.974 189.344 181.729C193.163 179.263 196.683 176.499 200.063 172.934C208.237 164.353 210.912 156.183 212.196 150.241C213.165 145.607 213.198 142.398 213.125 141.252C214.569 141.178 215.898 141.082 217.342 141.007C218.854 140.589 220.642 140.583 222.429 140.278C224.147 140.02 225.911 139.83 227.561 139.617C228.409 139.546 229.211 139.405 230.127 139.287C230.929 139.147 231.799 138.96 232.601 138.82C235.831 138.143 239.038 137.581 241.969 136.607C243.48 136.189 244.923 135.817 246.388 135.33C247.785 134.89 249.204 134.334 250.555 133.825C261.383 129.934 269.617 124.999 274.829 121.197C277.412 119.262 279.401 117.627 280.634 116.5C281.868 115.372 282.462 114.774 282.462 114.774C282.896 114.382 283.099 113.648 282.663 113.443C282.502 113.352 282.204 113.353 281.884 113.469C281.632 113.539 281.426 113.677 281.152 113.862C281.152 113.862 281.061 114.022 280.764 114.321C280.467 114.62 280.033 115.012 279.439 115.61C278.845 116.208 278.068 116.83 277.085 117.59C276.102 118.35 274.982 119.202 273.771 120.215C268.627 123.971 260.577 128.883 249.932 132.75C248.581 133.259 247.23 133.769 245.834 134.209C244.437 134.65 242.994 135.022 241.483 135.44C239.766 135.997 237.888 136.462 236.032 136.813C236.146 136.537 236.259 136.262 236.396 135.871C236.986 134.379 237.62 132.36 238.092 129.653C238.965 124.286 238.869 116.882 236.386 108.891C235.922 107.312 235.458 105.732 234.971 104.266C234.484 102.801 233.86 101.428 233.397 100.146C232.309 97.491 231.544 95.0181 230.642 92.9355C228.792 88.7016 227.335 85.1998 226.545 82.5437L226.453 82.4065C227.357 85.0851 228.448 88.6341 229.771 93.1221C230.467 95.343 230.866 97.8631 231.519 100.611C231.845 101.986 232.171 103.36 232.452 104.963C232.687 106.498 232.853 108.079 233.066 109.729C234.288 117.77 234.796 124.897 235.113 129.962C235.214 132.483 235.336 134.592 235.296 136.013C235.274 136.426 235.275 136.724 235.277 137.022C234.223 137.232 233.169 137.442 232.047 137.698C231.245 137.839 230.421 138.094 229.619 138.234C228.817 138.375 227.969 138.447 227.167 138.587C225.884 138.753 224.601 138.918 223.25 139.129C223.933 138.072 225.551 135.292 226.658 131.162C227.359 128.501 227.806 125.313 227.792 121.737C227.733 118.092 227.076 114.152 225.8 110.031C223.712 103.368 220.964 97.9453 218.633 93.7361C217.364 91.7007 216.325 89.7102 215.287 88.0177C214.181 86.3714 213.328 84.9533 212.681 83.6949L212.589 83.5577C213.281 84.8847 214.135 86.3028 215.058 87.9727C215.913 89.6888 216.814 91.7714 217.808 93.9913C219.567 98.386 221.467 103.88 222.547 110.524C223.976 118.725 224.048 125.945 223.862 131.15C223.648 135.276 223.269 138.12 223.066 139.153C222.768 139.154 222.448 139.269 222.15 139.271C220.431 139.529 218.69 139.604 216.879 139.725C216.214 139.774 215.55 139.822 214.839 139.802C215.539 136.842 216.006 132.944 215.896 128.039C215.716 122.882 214.73 116.673 212.319 109.53C210.905 105.203 208.986 101.015 207.116 97.4919C205.2 93.9001 203.379 91.0415 201.695 88.3886C201.28 87.7713 200.934 87.1078 200.565 86.559C200.196 86.0102 199.827 85.4614 199.436 85.0273C198.722 84.113 198.169 83.2899 197.708 82.6039C196.763 81.3466 196.302 80.6606 196.073 80.6156C196.073 80.6156 196.326 80.8439 196.373 81.2105C196.535 81.5996 196.72 82.172 196.998 82.8816C197.276 83.5911 197.692 84.5065 198.154 85.4905C198.408 86.0168 198.662 86.5431 198.963 87.138C199.194 87.7789 199.494 88.3738 199.726 89.0148C200.928 91.6923 202.384 94.8962 203.91 98.3519C205.482 101.876 207.216 105.79 208.997 110.07C210.454 113.571 211.681 116.73 212.586 119.707C213.491 122.683 214.212 125.386 214.611 127.906C215.455 132.716 215.561 136.727 214.793 139.733C213.647 139.806 212.616 139.902 211.47 139.975C210.805 140.023 210.163 139.956 209.499 140.005C209.747 139.041 210.286 135.99 209.97 131.224C209.707 128.313 209.19 124.877 208.098 121.03C207.587 119.083 206.846 117.092 206.081 114.917C205.688 113.887 205.179 112.834 204.74 111.736C204.231 110.683 203.792 109.584 203.169 108.509C202.246 106.839 201.345 105.055 200.422 103.385C199.499 101.715 198.553 100.16 197.699 98.7415C196.846 97.3234 195.878 95.8828 195.048 94.6481C194.817 94.3051 194.702 93.9846 194.288 93.6652C193.942 93.2997 193.529 92.9803 193.23 92.6834C192.517 92.0671 191.758 91.3822 191.045 90.7659C189.802 89.5098 188.102 88.4616 186.7 87.4123C185.297 86.363 183.941 85.3823 182.631 84.4702C181.459 83.7639 180.403 83.0802 179.392 82.465C182.701 84.7222 186.264 87.5056 189.693 90.9772C190.935 92.2334 192.109 93.5357 193.261 94.9526L194.182 96.0266C194.412 96.3696 194.528 96.6901 194.759 97.0331C195.105 97.6966 195.498 98.4287 195.821 99.2068C197.208 102.159 198.641 105.477 199.962 109.071C200.401 110.17 200.772 111.315 201.097 112.391C201.468 113.536 201.93 114.52 202.209 115.527C202.813 117.611 203.577 119.488 204.157 121.388C205.454 125.097 206.338 128.486 207.22 131.28C208.521 135.882 209.266 139.066 209.499 140.005C208.903 140.007 208.375 139.963 207.779 139.965L207.802 139.851L207.733 139.897C206.014 139.857 204.294 139.818 202.575 139.778C202.225 138.221 201.737 136.457 201.202 134.328C200.667 132.198 199.993 129.862 199.341 127.114C197.831 121.755 195.858 115.115 192.965 107.699C192.849 107.378 192.779 107.126 192.595 106.852L192.11 105.983C191.81 105.388 191.395 104.77 191.026 104.222C190.242 103.055 189.505 101.958 188.721 100.792C187.131 98.574 185.335 96.4947 183.632 94.5525C180.041 90.6918 176.223 87.382 172.569 84.7594C170.73 83.5054 169.121 82.2964 167.582 81.3393C165.973 80.4283 164.526 79.6084 163.332 79.0168C161.012 77.7875 159.657 77.1048 159.657 77.1048C159.657 77.1048 160.692 77.9033 162.439 79.3181C163.313 80.0255 164.394 80.8926 165.681 81.9194C166.854 82.9237 168.165 84.1337 169.615 85.5496C175.411 90.9151 182.272 98.7524 188.725 108.058C189.371 109.019 189.97 109.91 190.569 110.802C191.1 111.74 191.814 112.654 192.138 113.432C192.878 115.126 193.686 116.773 194.403 118.284C195.813 121.419 197.084 124.348 198.172 127.003C200.393 132.382 201.921 136.434 202.666 139.617L202.712 139.686C202.001 139.666 201.405 139.668 200.695 139.647C196.98 139.455 193.196 139.01 189.39 138.68C185.491 138.213 181.661 137.7 177.762 137.233C176.134 137.033 174.506 136.833 172.809 136.678C172.601 136.221 172.231 135.374 171.562 134.23C170.546 132.423 168.931 129.724 166.352 126.479C161.307 120.01 152.563 111.148 138.571 102.627C127.199 95.9291 116.04 91.1793 105.965 87.8926C95.8889 84.6059 86.8275 82.8283 79.969 81.6615L79.6249 81.594C86.5981 82.7833 95.2479 84.8374 104.729 88.4244C114.21 92.0113 124.521 97.131 134.955 104.061C147.686 112.633 157.253 120.942 163.511 126.993C168.573 131.857 171.635 135.376 172.602 136.519C170.377 136.321 168.176 136.008 165.951 135.81C163.153 135.499 160.402 135.257 157.65 135.015C157.12 134.375 154.471 130.878 149.34 125.762C146.441 122.93 142.692 119.574 137.979 115.97C133.244 112.48 127.086 108.652 119.555 105.447C107.478 100.219 96.0493 96.846 85.7261 94.8209C80.5646 93.8084 75.6335 93.1388 71.0477 92.8348C68.8233 92.6367 66.5079 92.5993 64.3533 92.6531C63.1613 92.6575 62.0154 92.7304 60.8009 92.8495C61.8321 92.754 62.9094 92.7272 63.9867 92.7003C66.0727 92.6926 68.3881 92.7299 70.5439 92.9742C75.0386 93.439 79.6953 94.2929 84.5825 95.4899C94.3568 97.8837 105.077 101.833 116.33 107.316C123.403 110.728 129.101 114.169 134.042 117.52C138.983 120.872 143.19 124.019 146.73 126.62C150.201 129.266 153.006 131.364 154.914 132.87C156.362 133.988 157.351 134.718 157.65 135.015C156.48 134.905 155.357 134.863 154.188 134.753C151.734 134.509 149.326 134.335 146.919 134.16C145.883 133.064 143.099 130.255 138.248 126.444C132.063 121.539 122.662 114.811 108.726 109.04C97.5447 104.405 86.7369 101.511 76.8286 100.103C67.2645 98.7627 58.3942 99.0475 51.1769 100.014C58.3256 99.0936 66.8304 99.154 75.6624 100.887C85.0219 102.663 95.029 105.996 105.386 110.886C118.177 117.028 128.378 123.019 135.661 127.485C141.152 130.766 144.966 133.182 146.506 134.139C145.153 134.052 143.754 133.897 142.333 133.856C140.682 133.771 139.031 133.685 137.449 133.553C137.081 133.303 136.207 132.595 134.783 131.661C132.898 130.338 130.117 128.423 126.326 126.19C122.536 123.958 117.804 121.362 112.063 118.747C106.185 116.224 99.4358 113.59 91.3819 111.534C78.5095 108.234 66.2622 106.606 54.8707 106.992C53.4268 107.066 52.0515 107.094 50.6537 107.236C49.2559 107.379 47.8581 107.522 46.4603 107.664C43.7333 107.904 40.9849 108.556 38.4423 109.069C35.8311 109.629 33.2671 110.555 30.9089 111.343C29.5584 111.853 28.2539 112.431 26.9955 113.077C28.1167 112.523 29.3526 111.991 30.5198 111.505C32.9713 111.153 35.4442 110.387 38.0093 109.759Z" fill="#C4A767"/>
<path d="M26.6312 113.72C26.2421 113.882 25.8305 114.159 25.4875 114.389C25.8991 114.113 26.2882 113.951 26.6312 113.72Z" fill="#C4A767"/>
<path d="M27.0204 113.559C26.8833 113.651 26.8147 113.697 26.6775 113.789C26.8147 113.697 26.9519 113.605 27.0204 113.559Z" fill="#C4A767"/>
<path d="M32.9566 119.428C33.1623 119.289 33.4142 119.22 33.5514 119.127C33.3681 119.151 33.1623 119.289 32.9566 119.428Z" fill="#C4A767"/>
<path d="M31.6758 120.189C31.8816 120.051 32.0874 119.912 32.3618 119.728C32.2246 119.82 32.0874 119.912 31.9502 120.004L31.6758 120.189Z" fill="#C4A767"/>
<path d="M34.0312 118.805C33.894 118.897 33.7568 118.989 33.5735 119.013C33.7107 118.921 33.9165 118.782 34.0998 118.759L34.0312 118.805Z" fill="#C4A767"/>
<path d="M42.1597 116.23C44.0838 115.834 46.0765 115.391 48.0703 115.246C50.1327 115.055 52.1951 114.864 54.3497 114.81C56.4357 114.803 58.6364 114.817 60.8146 114.947C63.039 115.145 65.1947 115.389 67.3965 115.702C69.5758 116.13 71.8013 116.626 74.0728 117.19C76.2758 117.801 78.662 118.389 81.0258 119.09C92.6612 122.624 102.44 126.209 109.441 128.774C116.374 131.384 120.644 132.996 120.644 132.996C120.644 132.996 119.794 132.472 118.208 131.447C116.6 130.536 114.188 129.169 111.11 127.553C104.817 124.413 95.6323 120.229 83.3109 117.156C80.8099 116.547 78.4237 115.96 76.015 115.487C73.6748 114.968 71.2436 114.611 68.9732 114.344C64.2029 113.765 59.5721 113.691 55.1031 114.005C50.7028 114.274 46.4644 114.931 42.5252 115.885C40.6011 116.282 38.6781 116.977 36.8923 117.579C35.9994 117.881 35.1526 118.251 34.3058 118.62C34.2372 118.666 34.1684 118.713 34.0998 118.759C34.9466 118.389 35.725 118.065 36.6179 117.764C38.4037 117.161 40.3042 116.581 42.1597 116.23Z" fill="#C4A767"/>
<path d="M9.67321 145.829C10.2434 145.047 10.9282 144.288 11.6131 143.529C10.7911 144.38 10.0837 145.254 9.37632 146.128L9.67321 145.829Z" fill="#C4A767"/>
<path d="M35.2801 133.998C36.4935 133.581 37.753 133.232 39.035 132.769C40.3631 132.375 41.6912 131.98 43.0653 131.654C48.561 130.052 54.3816 129.527 60.4316 129.046C70.1263 128.506 77.8316 129.303 83.9558 130.266C85.4469 130.558 86.8919 130.782 88.2683 131.052C89.5761 131.368 90.8379 131.616 92.031 131.91C94.3025 132.474 96.2761 133.04 97.883 133.653L98.0438 133.744C94.8074 132.633 90.5151 131.136 84.7103 129.759C78.9055 128.382 71.5646 126.942 61.9363 126.84C55.9302 126.793 49.9724 127.411 44.1787 129.014C38.4762 130.456 33.2346 132.584 28.7971 135.168C27.6534 135.837 26.6245 136.528 25.6641 137.174C24.7037 137.819 23.7433 138.464 22.8977 139.132C21.2063 140.468 19.7433 141.551 18.5782 142.632C16.3167 144.75 15.0605 145.992 15.0605 145.992C15.0605 145.992 16.3178 145.048 18.5804 143.228C19.6544 142.308 21.1872 141.477 22.8335 140.37C24.4799 139.264 26.4017 138.271 28.5294 137.14C29.0557 136.886 29.6045 136.517 30.1308 136.263C30.6571 136.009 31.2981 135.778 31.8244 135.524C32.8769 135.015 34.0442 134.53 35.2801 133.998Z" fill="#C4A767"/>
<path d="M73.5878 134.545C74.8946 134.563 76.1327 134.627 77.21 134.6C78.2648 134.688 79.1588 134.685 79.8695 134.705C81.3595 134.7 82.1849 134.742 82.1849 134.742C82.1849 134.742 81.5192 134.493 80.2575 134.245C78.9497 133.929 77.1369 133.454 74.591 133.074C69.6824 132.29 62.3212 131.56 52.9054 133.108C45.3227 134.42 38.4775 136.829 32.9413 139.852C27.3365 142.921 23.0171 146.421 19.9335 149.39L19.7963 149.482C21.3268 148.055 23.1543 146.329 25.3269 144.969C26.4245 144.231 27.5445 143.379 28.8029 142.732C30.0613 142.086 31.3422 141.325 32.7153 140.701C38.1615 138.136 44.7333 136.21 51.9057 135.473C60.7502 134.409 68.2463 134.45 73.5878 134.545Z" fill="#C4A767"/>
<path d="M60.2606 138.422C62.2994 138.048 64.0413 137.972 65.2097 137.785C66.3781 137.597 67.0427 137.549 67.0427 137.549C67.0427 137.549 65.0006 137.029 61.1029 136.86C57.1828 136.806 51.2925 137.079 44.0583 139.65C42.5705 140.252 41.2199 140.761 39.8468 141.385C38.5198 142.078 37.2153 142.656 36.0031 143.371C34.7908 144.086 33.6246 144.869 32.5957 145.561C31.452 146.23 30.4691 146.99 29.4862 147.75C28.5034 148.51 27.5891 149.224 26.7895 149.96C26.036 150.765 25.2365 151.502 24.5055 152.192C23.0436 153.573 21.9943 154.975 20.944 156.079L20.8068 156.172C21.811 154.999 22.9064 153.665 24.4144 152.353C25.1454 151.663 25.9225 151.041 26.722 150.304C27.5216 149.568 28.4595 149.037 29.4199 148.392C31.3406 147.101 33.4683 145.97 35.8478 144.769C38.2049 143.683 40.7228 142.689 43.4937 141.922C50.2949 140.04 56.0908 139.033 60.2606 138.422Z" fill="#C4A767"/>
<path d="M31.323 166.93L31.3916 166.883C31.2769 166.861 31.323 166.93 31.323 166.93Z" fill="#C4A767"/>
<path d="M36.6209 167.552C36.8492 167.299 37.0089 167.092 37.191 166.77C37.0089 167.092 36.7806 167.345 36.6209 167.552Z" fill="#C4A767"/>
<path d="M36.4388 167.874C36.5074 167.827 36.5984 167.667 36.667 167.621C36.5984 167.667 36.5759 167.781 36.5073 167.827L36.4388 167.874Z" fill="#C4A767"/>
<path d="M75.922 139.648C77.8427 138.357 79.3058 137.274 80.3348 136.583C81.3177 135.823 81.8664 135.454 81.8664 135.454C81.8664 135.454 81.1568 135.732 79.8063 136.241C78.4557 136.75 76.6249 137.582 74.3825 138.691C69.8978 140.908 63.9511 144.506 59.0648 149.681C55.0456 153.776 53.2035 157.703 51.4952 160.643C50.7676 162.228 49.6947 163.446 49.1032 164.641C48.6927 165.215 48.3047 165.675 47.9628 166.204C47.6209 166.732 47.3477 167.214 47.0969 167.582L47.0283 167.628C47.3477 167.214 47.6209 166.732 47.9403 166.318C48.3283 165.858 48.7849 165.352 49.2415 164.846C49.6981 164.34 50.0163 163.629 50.6101 163.031C51.2039 162.432 51.7054 161.697 52.207 160.962C54.3966 157.997 57.0191 154.342 61.4522 150.567C66.8906 145.916 72.1491 142.183 75.922 139.648Z" fill="#C4A767"/>
<path d="M71.0378 151.494C78.4003 146.447 85.1702 142.296 89.9046 139.413C94.7076 136.484 97.3829 134.686 97.3829 134.686C97.3829 134.686 96.49 134.988 94.8875 135.567C93.3311 136.214 91.0652 137.14 88.3876 138.341C83.01 140.86 75.643 144.715 68.9473 150.31C63.5539 154.731 59.7641 158.871 57.1179 162.342C54.4718 165.813 53.1526 168.591 51.8525 170.361L51.7839 170.407C53.084 168.637 54.6786 165.973 57.6464 162.684C60.7289 159.417 65.1158 155.573 71.0378 151.494Z" fill="#C4A767"/>
<path d="M99.4823 138.255C93.4412 141.119 85.251 145.528 77.4566 151.562C71.1478 156.399 66.6259 160.931 63.4073 164.588C60.1202 168.291 58.2972 171.209 56.4462 172.751L56.3776 172.797C58.16 171.301 60.1438 168.474 63.8673 164.976C67.5221 161.524 72.6412 157.288 79.5471 152.746C88.0308 147.145 95.716 142.578 101.09 139.166C106.442 135.868 109.575 133.862 109.575 133.862C109.575 133.862 108.614 134.21 106.805 134.927C105.089 135.781 102.503 136.822 99.4823 138.255Z" fill="#C4A767"/>
<path d="M64.012 173.044C63.7376 173.229 63.4632 173.413 63.2574 173.551C63.5318 173.367 63.7376 173.229 64.012 173.044Z" fill="#C4A767"/>
<path d="M64.0807 172.998L64.012 173.044C64.0806 172.998 64.0807 172.998 64.0807 172.998Z" fill="#C4A767"/>
<path d="M62.731 173.805C62.8682 173.713 63.074 173.575 63.3259 173.505C63.1201 173.644 62.9143 173.782 62.6624 173.852L62.731 173.805Z" fill="#C4A767"/>
<path d="M66.2754 177.598C66.344 177.551 66.344 177.551 66.4587 177.574C66.3901 177.62 66.2068 177.644 66.1382 177.69L66.2754 177.598Z" fill="#C4A767"/>
<path d="M70.2505 180.104C70.1819 180.15 70.1819 180.15 70.1133 180.197L70.2505 180.104Z" fill="#C4A767"/>
<path d="M79.4989 182.752C79.4303 182.799 79.247 182.822 79.1784 182.868C79.3617 182.845 79.4303 182.799 79.4989 182.752Z" fill="#C4A767"/>
<path d="M79.8191 182.637L79.8877 182.59C79.7505 182.683 79.6358 182.66 79.5672 182.706C79.6819 182.729 79.7505 182.683 79.8191 182.637Z" fill="#C4A767"/>
<path d="M78.4912 183.031C78.5598 182.985 78.5598 182.985 78.6745 183.008C78.5598 182.985 78.4912 183.031 78.3079 183.055L78.4912 183.031Z" fill="#C4A767"/>
<path d="M132.707 165.021C134.423 164.166 136.047 163.175 137.624 162.114C139.065 161.146 140.437 160.224 141.809 159.303C144.553 157.459 147.206 155.775 149.721 154.185C154.867 151.025 159.418 148.166 163.261 145.883C167.058 143.531 170.1 141.686 172.25 140.44C174.354 139.125 175.497 138.457 175.497 138.457C175.497 138.457 174.078 139.012 171.56 140.007C169.042 141.002 165.472 142.505 161.147 144.515C156.822 146.525 151.788 149.111 146.413 152.225C143.737 153.725 141.061 155.523 138.249 157.413C136.877 158.335 135.551 159.326 134.156 160.362C133.47 160.823 132.968 161.261 132.213 161.768C131.527 162.229 130.727 162.667 129.972 163.174C124.986 166.127 120.021 168.666 115.652 171.204C111.191 173.604 107.279 175.934 103.734 177.918C100.234 179.971 97.1922 181.816 94.4471 183.362C91.7707 184.862 89.4147 186.246 87.2848 186.781L87.1015 186.805C89.2775 186.338 91.6335 184.954 94.4021 183.592C97.3766 182.091 100.625 180.405 104.195 178.604C107.947 176.78 112.226 174.701 117.009 172.483C121.814 170.15 127.101 167.792 132.707 165.021Z" fill="#C4A767"/>
<path d="M116.594 190.089C116.662 190.043 116.731 189.997 116.845 190.019C116.845 190.019 116.845 190.019 116.777 190.065L116.594 190.089Z" fill="#C4A767"/>
<path d="M120.668 188.446C119.248 189.001 117.966 189.465 116.799 189.95C118.012 189.533 119.294 189.07 120.668 188.446Z" fill="#C4A767"/>
<path d="M223.242 161.639C222.882 157.4 222.227 153.757 221.642 150.665C220.519 144.549 219.405 140.817 219.405 140.817C219.405 140.817 218.8 144.509 218.296 150.723C218.055 153.773 217.908 157.556 217.855 161.774C217.679 163.585 216.655 165.767 215.334 167.949C214.127 170.154 212.485 172.452 210.706 174.843C207.832 178.567 204.635 181.811 201.322 184.734C199.654 186.253 197.963 187.589 196.225 188.856C194.488 190.123 192.795 191.161 191.034 192.245C187.535 194.298 184.034 196.053 180.623 197.349C180.234 197.511 179.776 197.719 179.341 197.812C178.837 197.952 178.678 198.158 178.403 198.343C177.808 198.643 177.259 199.012 176.733 199.266C175.612 199.82 174.559 200.328 173.507 200.836L173.37 200.929C174.354 200.467 175.452 200.027 176.642 199.427C177.237 199.126 177.832 198.826 178.427 198.526L178.816 198.364C178.953 198.272 179.09 198.18 179.342 198.11C179.846 197.971 180.235 197.809 180.739 197.669C184.448 196.372 188.385 194.822 192.321 192.974C193.305 192.511 194.357 192.003 195.295 191.473C196.302 190.896 197.308 190.319 198.315 189.742C200.35 188.474 202.385 187.206 204.329 185.8C206.272 184.395 208.238 182.875 210.111 181.218C212.053 179.514 213.903 177.674 215.592 175.742C217.669 173.35 219.495 171.028 220.792 168.662C222.205 166.319 223.251 164.023 223.242 161.639Z" fill="#C4A767"/>
<path d="M232.879 170.2C234.29 161.186 231.258 153.564 228.74 148.484C226.062 143.314 223.644 140.457 223.644 140.457C223.644 140.457 224.436 143.709 225.487 148.978C226.47 154.292 227.804 161.76 227.653 170.425C227.506 173.91 227.037 177.213 226.154 180.196C225.271 183.179 223.929 186.072 222.219 188.417C221.559 189.657 220.508 190.761 219.595 191.773C218.614 192.831 217.7 193.843 216.81 194.74C214.616 196.513 212.513 198.126 210.661 199.37L210.523 199.462C212.376 198.218 214.525 196.674 217.085 194.854C218.159 193.933 219.233 193.012 220.398 191.93C221.563 190.849 222.843 189.79 223.801 188.548C224.828 187.261 225.855 185.973 227.019 184.594C227.838 183.147 228.727 181.653 229.615 180.16C231.072 177.289 232.274 173.892 232.879 170.2Z" fill="#C4A767"/>
<path d="M239.313 137.397C239.313 137.397 239.737 140.398 240.672 145.346C241.608 150.294 243.146 157.027 245.009 164.837C246.522 171.089 247.162 176.634 246.675 181.244C246.119 185.899 244.047 189.78 241.445 192.724L241.354 192.885C243.888 189.987 246.853 186.103 248.463 181.237C250.095 176.257 250.761 170.432 250.209 163.832C249.49 155.651 246.303 149.13 243.924 144.554C241.317 139.934 239.313 137.397 239.313 137.397Z" fill="#C4A767"/>
</g>
</g>
<defs>
<clipPath id="clip0_1418_45082">
<rect width="222" height="115" fill="white"/>
</clipPath>
</defs>
</svg>
