<svg width="361" height="144" viewBox="0 0 361 144" fill="none" xmlns="http://www.w3.org/2000/svg">
<path d="M189.994 -97.2823C187.327 -97.4913 184.776 -97.6409 182.455 -97.6713C184.832 -97.466 187.268 -97.3761 189.994 -97.2823Z" fill="#C4A767" fill-opacity="0.03"/>
<path d="M182.165 -97.675C182.281 -97.6155 182.455 -97.6712 182.571 -97.6116L182.165 -97.675Z" fill="#C4A767" fill-opacity="0.03"/>
<path d="M131.152 -70.4346C134.227 -70.4522 137.823 -70.347 141.594 -70.2975C156.964 -69.8057 176.945 -66.9324 197.464 -60.8606C214.112 -56.0581 226.688 -50.4388 236.486 -45.3781C245.469 -40.154 252.608 -35.8825 257.609 -32.2774L257.84 -32.1583C252.839 -35.7635 246.403 -40.5479 238.242 -46.5155C236.23 -47.9926 233.929 -49.4734 231.396 -51.0733C228.864 -52.6732 226.157 -54.2173 223.16 -55.7653C217.226 -58.9765 210.421 -62.1992 202.628 -65.2027C183.172 -72.7691 161.209 -74.9142 144.31 -73.8594C140.011 -73.4516 136.061 -73.1553 132.692 -72.8514C129.203 -72.3169 126.061 -71.6038 123.502 -71.1732C121.059 -70.6831 119.08 -70.2448 117.741 -69.9143C116.402 -69.5837 115.762 -69.476 115.762 -69.476C115.762 -69.476 118.377 -69.7318 122.847 -69.9053C125.112 -70.0496 128.017 -70.3016 131.152 -70.4346Z" fill="#C4A767" fill-opacity="0.03"/>
<path d="M85.8822 -47.5287L85.4135 -47.1867C85.6478 -47.3577 85.8822 -47.5287 86.1722 -47.5249C86.057 -47.5844 86.057 -47.5844 85.8822 -47.5287Z" fill="#C4A767" fill-opacity="0.03"/>
<path d="M93.7482 -50.0365C96.6008 -50.7533 99.5649 -51.1206 102.763 -51.6589C109.041 -52.5049 115.84 -53.228 123.21 -53.3634C126.985 -53.604 130.756 -53.5545 134.702 -53.5607C138.648 -53.567 142.824 -53.4541 147 -53.3413C155.409 -52.9408 164.04 -51.8411 172.66 -49.8712C193.949 -45.0079 210.4 -38.4092 222.116 -33.6715C233.774 -28.8185 240.404 -25.5401 240.404 -25.5401C240.404 -25.5401 239.258 -26.7157 236.905 -28.6614C234.551 -30.6071 230.874 -33.3825 225.925 -36.5228C215.853 -42.7476 200.347 -50.6103 177.131 -54.5706C167.808 -56.0275 158.474 -56.6142 149.538 -56.5574C140.482 -56.2701 132.297 -55.9713 124.568 -55.1443C116.9 -54.4326 109.807 -53.4232 103.411 -52.3467C98.2894 -51.1954 93.6367 -50.3861 89.3819 -48.9333L89.5567 -48.989C90.8956 -49.3196 92.2345 -49.6501 93.7482 -50.0365Z" fill="#C4A767" fill-opacity="0.03"/>
<path d="M32.9227 8.64056C33.4509 8.1833 33.9196 7.84132 34.5036 7.55887C33.9196 7.84132 33.3914 8.29857 32.9227 8.64056Z" fill="#C4A767" fill-opacity="0.03"/>
<path d="M32.9227 8.64056C32.6288 8.92683 32.3944 9.09784 32.1006 9.38411C32.3349 9.2131 32.6288 8.92683 32.9227 8.64056Z" fill="#C4A767" fill-opacity="0.03"/>
<path d="M34.5036 7.55887C34.5631 7.44359 34.7381 7.38779 34.7976 7.27252C34.6228 7.32825 34.5631 7.44359 34.5036 7.55887Z" fill="#C4A767" fill-opacity="0.03"/>
<path d="M30.8097 10.4696C31.1631 10.0681 31.6319 9.7261 32.1006 9.38411C31.8662 9.5551 31.5722 9.84134 31.3379 10.0123L30.8097 10.4696Z" fill="#C4A767" fill-opacity="0.03"/>
<path d="M25.9744 25.2026C26.3836 24.9759 26.6775 24.6896 27.1462 24.3476C26.6775 24.6896 26.034 25.0873 25.5653 25.4293L25.9744 25.2026Z" fill="#C4A767" fill-opacity="0.03"/>
<path d="M0.896484 65.8389C1.19417 65.2626 1.5514 64.571 1.84909 63.9946C1.61094 64.4557 1.43232 64.8015 1.19417 65.2626L0.896484 65.8389Z" fill="#C4A767" fill-opacity="0.03"/>
<path d="M2.44487 62.8419C2.26626 63.1877 2.08764 63.5335 1.90903 63.8793C2.08764 63.5335 2.20672 63.303 2.44487 62.8419Z" fill="#C4A767" fill-opacity="0.03"/>
<path d="M16.1125 47.1225C19.1628 44.6094 22.4474 41.9254 25.9588 39.6505C29.4106 37.4908 33.041 34.9854 36.7791 33.1196C51.9138 25.0207 69.2829 19.098 88.9497 14.9462C101.286 12.2649 112.157 10.7249 122.213 9.34819C132.151 8.20206 140.864 7.44604 148.183 6.84581C160.437 6.0202 168.742 5.49091 171.007 5.34656C170.248 5.68475 169.604 6.08247 168.846 6.42065L168.905 6.30539C168.905 6.30539 168.905 6.30539 168.846 6.42065C161.02 10.2636 153.369 14.0509 145.889 18.0725C140.804 20.849 135.895 23.5697 130.985 26.2905C128.374 26.2562 122.803 26.2992 114.551 27.2933C108.797 27.9722 101.586 29.2121 93.1434 31.4223C84.8161 33.692 75.3728 36.9915 65.0326 42.3102C56.6229 46.4356 48.9529 51.6732 42.034 57.1528C38.6304 60.0674 35.2862 62.8667 32.1688 66.0752C28.9956 69.1089 26.224 72.4959 23.4524 75.883C13.9544 87.7695 8.02975 101.502 5.20346 113.476C8.08548 101.676 14.2331 88.6435 23.4891 77.5082C34.1588 64.7667 48.1675 54.0419 64.3953 46.6537C74.3226 41.8518 83.5911 38.608 91.7474 36.104C93.8451 35.4352 95.7679 34.8221 97.8061 34.2686C99.6694 33.7709 101.533 33.2731 103.396 32.7753C106.948 31.8355 110.265 31.0667 113.408 30.3537C119.403 28.9237 124.231 28.0586 127.489 27.4051C128.478 27.186 129.408 27.0821 130.048 26.9745C125.428 29.6991 120.868 32.3083 116.538 35.0367C111.859 37.8765 107.585 40.7797 103.37 43.5676C101.321 44.9913 99.1561 46.3555 97.1065 47.7792C95.057 49.203 93.1227 50.6862 91.248 52.0542C87.4985 54.7902 84.039 57.53 80.8101 60.3888C80.8101 60.3888 80.8101 60.3888 80.7506 60.5041C77.3469 63.4187 74.118 66.2776 71.2388 69.025C65.5398 74.4045 60.7148 79.5054 57.0577 84.0414C56.2914 84.9597 55.5845 85.7628 54.9334 86.7406C54.6991 86.9117 54.6395 87.0269 54.4052 87.1979C53.464 88.172 51.9946 89.6033 50.2275 91.611C48.4604 93.6187 46.6857 96.2065 44.6729 99.2554C43.7241 100.81 42.7715 102.654 41.8189 104.498C40.8663 106.342 40.1999 108.481 39.3588 110.675C38.6405 112.348 38.2681 114.2 37.7804 115.992C37.3522 117.669 36.924 119.346 36.6706 120.968C36.2792 124.27 35.6014 127.278 35.5076 130.004C34.9704 135.568 35.4934 139.926 35.2767 143.173L35.3325 143.348C35.4339 140.042 35.4314 135.806 36.4855 130.655C37.3089 125.386 39.2446 119.377 42.0581 112.799C45.5303 104.663 49.4446 98.2155 51.8856 93.4895C53.2512 91.1284 54.319 89.3437 55.0335 87.9605C55.6884 86.6925 56.2204 85.9452 56.2204 85.9452C56.2204 85.9452 55.9265 86.2314 55.4579 86.5735C55.9899 85.8261 56.6372 85.1383 57.344 84.3353C59.3493 81.8665 61.7636 79.171 64.3528 76.4198C64.1742 76.7656 63.8208 77.1671 63.4674 77.5687C62.6377 78.8924 61.2797 80.6733 59.9699 83.2092C57.1792 88.0467 54.1276 95.0856 52.5111 103.304C51.9448 106.662 51.4419 109.615 51.2885 112.456C51.1542 113.847 51.0795 115.122 50.9452 116.513C50.8704 117.789 50.9704 119.008 50.9552 120.169C50.8095 122.43 51.0134 124.579 50.931 126.435C50.9196 127.305 50.8486 128.291 50.7219 129.102C50.6548 129.797 50.5281 130.608 50.2899 131.069C50.5281 130.608 50.5952 129.912 50.6624 129.217C50.7891 128.406 50.9753 127.48 51.0462 126.495C51.3034 124.583 51.3896 122.437 51.885 120.065C52.075 118.849 52.265 117.633 52.5146 116.302C52.7642 114.97 53.129 113.699 53.4381 112.252C53.7472 110.805 54.0563 109.359 54.5998 107.741C55.0837 106.239 55.3966 104.502 56.0553 102.944C58.6573 94.7969 61.2403 88.1 62.6958 83.303C64.0804 79.4915 64.7544 76.7732 64.9963 76.0221C67.113 73.903 69.2893 71.6685 71.7556 69.4379C74.341 66.9768 77.276 64.4042 80.3262 61.8911C80.0324 62.1774 79.7942 62.6385 79.3812 63.1553C78.1424 64.7057 76.4867 67.063 74.5334 69.9966C70.7421 75.9234 65.8714 84.5052 63.0122 94.564C60.5851 102.656 59.6235 109.606 59.2015 115.229C58.7353 119.807 58.8011 123.637 58.5286 126.709C58.9163 123.697 59.2559 119.93 60.2465 115.185C61.3082 109.454 63.1995 102.4 66.4969 94.3196C70.6317 84.3356 74.513 75.9729 77.1441 70.0309C78.402 67.0301 79.4775 64.6652 80.1957 62.9919C80.6125 62.185 80.7949 61.5491 81.0331 61.0881C84.3772 58.2887 88.071 55.3779 91.88 52.5267C93.7548 51.1587 95.8043 49.735 97.7386 48.2517C99.7881 46.828 101.778 45.5195 104.003 44.0401C108.217 41.2522 112.666 38.2933 117.17 35.5092C122.084 32.4984 127.113 29.5471 132.372 26.7149C132.837 26.6629 133.012 26.6072 133.012 26.6072C133.012 26.6072 132.837 26.6629 132.606 26.5439C137.107 24.0499 141.782 21.5001 146.458 18.9503C147.685 18.2701 149.087 17.5342 150.43 16.9136C149.604 17.9472 145.244 22.9961 139.161 31.0978C132.427 40.1773 123.784 53.2355 116.565 68.3433C110.719 80.5098 107.045 90.732 104.559 98.9388C103.345 102.985 102.37 106.569 101.517 109.634C101.275 110.385 101.033 111.136 100.851 111.772C100.668 112.408 100.486 113.043 100.303 113.679C100.184 113.91 100.121 114.315 100.002 114.546C100.121 114.315 100.24 114.085 100.359 113.854C100.839 112.642 101.264 111.255 101.863 109.812C102.831 106.808 104.096 103.227 105.775 99.1289C108.957 90.9892 113.735 80.6074 120.567 68.5119C129.061 53.4789 136.89 40.584 142.293 31.2549C147.219 22.848 150.188 17.6647 150.665 16.7426C156.389 13.8584 162.288 10.9185 168.187 7.97868C166.472 10.4512 163.038 15.6864 158.472 23.1117C156.928 25.8186 155.209 28.5812 153.427 31.7492C151.645 34.9172 149.803 38.2004 147.667 41.7699C146.714 43.6142 145.591 45.2242 144.523 47.0089C143.28 48.8494 141.918 50.9204 140.732 52.9357C139.545 54.951 138.358 56.9663 137.171 58.9816C136.099 61.0564 134.853 63.187 133.721 65.3771C126.287 79.2055 120.969 90.9147 116.961 100.088C113.433 108.049 110.798 114.281 107.967 117.784C110.913 114.341 113.834 108.403 117.883 100.564C122.646 91.3429 129.009 79.5893 137.604 65.7762C140.156 61.3998 142.82 57.373 145.309 53.402C146.612 51.4462 147.854 49.6057 148.982 47.7057C150.169 45.6904 151.471 43.7347 152.423 41.8904C156.349 34.5728 159.274 28.3445 161.838 23.0978C164.287 17.7917 166.14 13.6383 167.454 10.8123C167.993 9.48479 168.529 8.44736 168.771 7.69621C172.1 6.05719 175.544 4.47771 178.873 2.83867C183.076 0.92099 187.454 -1.05243 191.657 -2.97011C190.95 -2.16704 189.715 -0.906708 188.067 0.870438C185.243 3.79265 181.296 8.3248 176.638 13.9501C174.28 16.8204 171.917 19.9807 169.436 23.3716C168.252 25.0968 167.01 26.9373 165.767 28.7778C164.64 30.6778 163.512 32.5779 162.325 34.5932C160.011 38.5085 157.752 42.5986 155.375 46.9193C153.057 51.1246 150.329 55.5568 147.483 60.2194C138.583 75.1891 130.989 87.9129 125.749 98.0565C120.395 108.141 117.22 115.7 113.745 119.6C117.105 115.641 120.681 108.434 126.902 98.6518C132.952 88.6349 141.647 76.0416 152.172 61.0353C155.309 56.3764 158.501 51.8924 161.057 47.2259C163.494 42.79 165.812 38.5846 168.067 34.7846C169.079 32.825 170.207 30.925 171.159 29.0807C172.227 27.2959 173.295 25.5112 174.419 23.9012C176.435 20.5623 178.393 17.3386 180.402 14.5797C186.559 5.20251 190.645 -1.01054 191.947 -2.96631C193.115 -3.53122 194.398 -4.03661 195.566 -4.60152C201.227 -7.08032 206.888 -9.55912 212.664 -11.9784C213.073 -12.2051 213.597 -12.3723 214.007 -12.599C213.3 -11.796 212.065 -10.5356 210.532 -8.69895C207.705 -5.48667 203.698 -0.839249 199.152 5.13567C194.49 11.051 188.999 18.2901 183.496 26.3994C180.772 30.5414 177.989 34.7987 175.203 39.3461C172.475 43.7782 169.339 48.4371 166.083 53.3265C155.781 69.032 147.48 82.5589 141.593 93.3903C138.739 98.6331 136.298 103.359 133.92 107.68C132.849 109.755 131.781 111.539 130.773 113.209C130.241 113.956 129.768 114.588 129.236 115.336C129.709 114.704 130.121 114.187 130.594 113.555C131.602 111.885 132.785 110.16 133.972 108.145C136.346 104.114 139.193 99.4514 142.571 94.0414C149.443 83.281 158.785 69.9998 170.713 54.2576C174.259 49.372 177.86 44.6612 180.822 40.0581C183.608 35.5107 186.451 31.1382 189.115 27.1114C194.447 18.7678 199.183 11.5768 202.974 5.65004C208.961 -3.96153 213.05 -10.4647 214.356 -12.7105C219.548 -14.8473 224.681 -16.8688 229.873 -19.0056C233.608 -20.5813 237.282 -22.0417 241.013 -23.3273C239.063 -20.6838 234.922 -14.6455 229.706 -6.24236C226.089 -0.371292 221.993 6.71198 218 14.725C215.916 18.7594 213.888 22.9686 211.916 27.3526C210.9 29.6022 209.943 31.7366 208.637 33.9824C207.331 36.2283 206.14 38.5336 204.775 40.8947C196.101 56.2735 188.734 69.4065 182.792 80.0631C179.878 85.4211 177.087 90.2586 174.594 94.5197C171.986 98.7213 169.791 102.406 166.856 104.979L166.562 105.265C169.612 102.752 171.808 99.0671 174.821 94.9288C177.604 90.6715 180.685 85.8379 184.119 80.6027C191.106 69.9018 199.749 56.8436 210.048 41.4281C211.588 39.0113 213.069 36.7097 214.55 34.4082C216.031 32.1066 217.281 29.686 218.297 27.4363C220.444 22.9966 222.357 18.7279 224.266 14.7492C227.969 6.73239 231.311 -0.30278 233.942 -6.2448C236.688 -12.1273 238.664 -16.8014 240.041 -20.0327C240.7 -21.5907 241.18 -22.8029 241.597 -23.6098C243.404 -24.2824 245.212 -24.9549 246.964 -25.8023C248.247 -26.3077 249.415 -26.8726 250.698 -27.378C250.456 -26.6269 249.857 -25.1841 248.841 -22.9345C247.464 -19.7032 245.432 -15.2039 242.92 -9.49241C238.015 1.70003 231.078 17.3917 222.824 36.1995C211.288 61.9271 199.028 80.8564 189.411 92.9734C190.765 91.4825 192.064 89.8168 193.537 88.0954C196.491 84.0725 200.494 79.7151 204.043 74.5395C211.663 64.3111 220.012 51.5391 228.391 36.4466C238.616 17.7808 244.456 1.66852 247.39 -9.66584C248.857 -15.333 249.904 -19.9032 250.351 -23.0307C250.671 -25.3475 250.806 -26.7383 250.873 -27.4337C254.782 -29.0652 258.516 -30.6409 262.37 -32.4471C262.068 -31.5807 261.647 -30.4837 261.164 -28.9814C260.021 -25.9211 258.279 -21.418 256.292 -15.8737C255.153 -13.1035 253.951 -9.92789 252.689 -6.63704C251.427 -3.34618 250.221 0.119476 249.071 3.75993C246.596 11.0966 243.994 19.244 241.384 27.9715C240.293 31.4966 239.032 34.7875 238.06 38.0821C236.798 41.373 235.596 44.5486 234.338 47.5494C231.938 53.6105 229.429 59.0319 226.985 64.0479C221.924 73.8457 216.362 82.0703 209.86 86.743L209.566 87.0293C216.068 82.3566 222.206 74.4297 228.487 64.5319C231.627 59.5829 234.719 53.8791 237.99 47.8294C239.598 44.7171 241.205 41.6049 242.816 38.2026C244.253 34.856 245.924 31.3384 247.479 27.7613C251.078 18.8147 253.796 10.7269 255.865 3.32689C258.519 -4.35558 260.117 -11.1235 261.175 -16.564C262.232 -22.0044 262.695 -26.2922 262.908 -29.2486C263.042 -30.6395 263.057 -31.7998 263.069 -32.67C263.303 -32.841 263.593 -32.8372 263.828 -33.0082C266.866 -34.651 269.846 -36.1786 272.825 -37.7062C272.758 -37.0107 272.631 -36.2001 272.56 -35.2146C272.173 -32.2024 271.535 -27.8589 270.593 -22.3589C269.591 -16.7436 268.231 -10.4368 266.161 -3.03677C265.126 0.663239 263.972 4.59377 262.584 8.6953C261.918 10.8335 261.136 12.9121 260.47 15.0503C259.803 17.1885 259.371 19.1556 258.705 21.2938C254.93 34.8221 250.423 46.658 245.191 56.2215C239.9 65.9002 233.65 73.4774 227.724 78.4478L227.43 78.7341C233.241 73.7041 240.182 66.4841 246.578 56.6458C249.834 51.7564 252.922 46.3426 255.958 40.464C257.506 37.467 258.939 34.4105 260.376 31.0639C261.094 29.3906 261.753 27.8326 262.53 26.044C262.947 25.2371 263.133 24.3112 263.61 23.3891C264.086 22.4669 264.562 21.5447 265.038 20.6226C269.63 11.1668 272.236 2.72939 273.667 -4.56296C275.041 -12.0301 275.244 -18.6423 275.138 -23.8079C274.916 -29.033 274.33 -32.9864 273.843 -35.72C273.624 -36.7093 273.461 -37.5237 273.353 -38.1634C275.339 -39.1818 277.21 -40.2597 279.081 -41.3376C279.49 -41.5644 279.959 -41.9064 280.368 -42.1331C280.416 -41.3781 280.576 -40.2736 280.672 -38.7637C280.828 -37.369 280.98 -35.6843 281.188 -33.8248C281.336 -31.85 281.424 -29.76 281.624 -27.3203C281.85 -22.3852 281.889 -16.5242 281.742 -9.73725C281.581 -6.3159 281.36 -2.77928 281.077 1.16269C280.935 3.13367 280.678 5.0451 280.361 7.07182C280.044 9.09853 279.787 11.01 279.411 13.1519C278.163 19.8084 276.398 26.0519 273.882 32.0535C272.624 35.0543 271.311 37.8802 269.822 40.762C268.803 43.3017 267.958 45.7856 266.942 48.0353C262.818 57.1491 258.022 64.4553 253.543 69.7348L253.424 69.9653C257.844 64.8011 263.335 57.562 268.619 48.4635C269.214 47.3108 269.984 46.1024 270.58 44.9497C270.877 44.3733 271.409 43.626 271.882 42.9939C272.414 42.2466 272.886 41.6145 273.303 40.8076C275.257 37.874 277.095 34.8809 278.702 31.7686C282.092 25.4884 284.846 19.0258 286.801 11.5662C291.563 -6.41699 289.067 -19.6794 286.344 -28.825C284.175 -35.9325 281.796 -40.3736 280.829 -41.895C282.76 -43.0881 284.516 -44.2256 286.446 -45.4188C288.209 -47.1364 290.664 -48.4967 292.892 -50.2663C295.061 -51.9205 297.345 -53.5153 299.454 -55.0543C300.566 -55.794 301.563 -56.5932 302.735 -57.4482C303.732 -58.2475 304.788 -59.162 305.785 -59.9613C309.717 -63.3332 313.705 -66.5302 317.001 -70.0845C318.764 -71.8021 320.468 -73.4044 322.116 -75.1816C323.704 -76.8434 325.237 -78.6801 326.71 -80.4015C338.667 -93.9384 346.265 -106.952 350.563 -116.122C352.654 -120.736 354.154 -124.488 354.999 -126.972C355.844 -129.456 356.209 -130.728 356.209 -130.728C356.51 -131.594 356.236 -132.759 355.481 -132.71C355.19 -132.714 354.781 -132.488 354.428 -132.086C354.134 -131.8 353.955 -131.454 353.717 -130.993C353.717 -130.993 353.713 -130.703 353.531 -130.067C353.349 -129.431 353.047 -128.565 352.682 -127.293C352.317 -126.021 351.718 -124.578 350.94 -122.79C350.163 -121.001 349.266 -118.982 348.365 -116.673C344.127 -107.619 336.763 -94.7758 325.041 -81.4099C323.567 -79.6884 322.094 -77.967 320.506 -76.3052C318.917 -74.6433 317.213 -73.041 315.45 -71.3234C313.508 -69.2599 311.276 -67.2003 308.989 -65.3156C308.937 -65.7804 308.885 -66.2453 308.777 -66.885C308.462 -69.3842 307.808 -72.6422 306.411 -76.7222C303.557 -84.7671 297.83 -94.8806 288.375 -103.998C286.542 -105.821 284.71 -107.644 282.932 -109.292C281.155 -110.94 279.259 -112.358 277.653 -113.771C274.151 -116.602 271.228 -119.426 268.414 -121.61C262.669 -126.037 258.018 -129.754 254.925 -132.812L254.694 -132.931C257.962 -129.929 262.145 -125.87 267.357 -120.695C269.993 -118.166 272.447 -115 275.421 -111.712C276.908 -110.068 278.395 -108.423 279.994 -106.429C281.477 -104.495 282.901 -102.446 284.44 -100.337C292.198 -90.1964 298.283 -80.7746 302.546 -74.0458C304.591 -70.6535 306.353 -67.8452 307.371 -65.859C307.654 -65.275 307.88 -64.8659 308.107 -64.4567C306.816 -63.3712 305.525 -62.2857 304.175 -61.0849C303.178 -60.2856 302.237 -59.3116 301.24 -58.5123C300.243 -57.713 299.131 -56.9733 298.134 -56.174C296.494 -54.977 294.853 -53.7801 293.153 -52.4678C293.295 -54.4388 293.419 -59.4853 291.822 -66.005C290.775 -70.1966 288.98 -74.9201 286.259 -79.8299C283.423 -84.7992 279.542 -89.7243 274.672 -94.4302C266.764 -102.019 258.885 -107.403 252.497 -111.432C249.214 -113.274 246.281 -115.227 243.574 -116.772C240.807 -118.201 238.561 -119.507 236.721 -120.749L236.49 -120.868C238.446 -119.566 240.692 -118.26 243.224 -116.66C245.697 -114.945 248.511 -112.761 251.556 -110.458C257.297 -105.741 264.063 -99.6175 270.569 -91.2926C278.733 -81.0892 284.289 -71.2101 287.965 -63.9087C290.79 -58.0692 292.417 -53.87 292.919 -52.2968C292.51 -52.0701 292.156 -51.6685 291.747 -51.4418C289.579 -49.7875 287.239 -48.3676 284.84 -46.8325C283.962 -46.2637 283.084 -45.695 282.091 -45.1858C280.817 -49.7865 278.513 -55.5032 274.655 -62.1686C270.51 -69.1279 264.462 -76.9246 255.747 -84.9304C250.531 -89.8149 244.727 -94.1269 239.492 -97.561C234.141 -101.055 229.475 -103.611 225.154 -105.989C224.117 -106.525 223.139 -107.176 222.217 -107.652C221.295 -108.128 220.373 -108.605 219.506 -108.906C217.833 -109.624 216.45 -110.339 215.297 -110.934C213.047 -111.95 211.895 -112.545 211.545 -112.434C211.545 -112.434 212.066 -112.311 212.408 -111.842C212.925 -111.429 213.612 -110.782 214.531 -110.016C215.449 -109.249 216.713 -108.304 218.093 -107.3C218.84 -106.768 219.587 -106.236 220.45 -105.644C221.253 -104.937 222.115 -104.346 222.919 -103.639C226.596 -100.864 231.02 -97.5561 235.731 -93.9548C240.557 -90.2939 245.9 -86.2201 251.585 -81.6776C256.236 -77.961 260.311 -74.5421 263.806 -71.1307C267.3 -67.7195 270.334 -64.5463 272.788 -61.3808C277.583 -55.3993 280.761 -49.9613 281.976 -45.2453C280.454 -44.2789 279.108 -43.3682 277.587 -42.4017C276.709 -41.833 275.775 -41.4391 274.897 -40.8703C274.511 -42.384 272.947 -46.9885 268.91 -53.3082C266.349 -57.1134 263.04 -61.4507 258.631 -65.9184C256.456 -68.2099 253.932 -70.39 251.236 -72.8044C249.916 -73.9242 248.422 -74.9882 246.986 -76.1675C245.492 -77.2316 244.057 -78.4109 242.387 -79.4193C239.855 -81.0192 237.267 -82.7939 234.735 -84.3938C232.203 -85.9937 229.727 -87.4188 227.481 -88.7248C225.235 -90.0308 222.814 -91.2811 220.74 -92.3528C220.163 -92.6505 219.762 -93.0039 218.951 -93.1306C218.2 -93.3725 217.389 -93.4992 216.753 -93.6816C215.307 -93.9907 213.745 -94.3594 212.298 -94.6685C209.64 -95.4577 206.508 -95.6148 203.786 -95.9987C201.064 -96.3826 198.457 -96.7069 195.966 -96.9717C193.82 -97.0579 191.849 -97.1999 189.994 -97.2823C196.252 -96.6779 203.258 -95.5415 210.598 -93.3562C213.257 -92.567 215.856 -91.6625 218.511 -90.5832L220.59 -89.8016C221.166 -89.5039 221.568 -89.1505 222.144 -88.8528C223.122 -88.2017 224.215 -87.4911 225.249 -86.6652C229.387 -83.6516 233.867 -80.1693 238.4 -76.2222C239.835 -75.0429 241.21 -73.7483 242.471 -72.5132C243.846 -71.2186 245.226 -70.2141 246.371 -69.0386C248.776 -66.628 251.245 -64.6227 253.479 -62.4465C258.067 -58.3246 261.844 -54.3293 265.168 -51.1524C270.436 -45.803 273.868 -41.9863 274.897 -40.8703C274.079 -40.4169 273.32 -40.0787 272.502 -39.6252L272.446 -39.8L272.387 -39.6848C269.991 -38.4396 267.596 -37.1945 265.201 -35.9494C263.543 -37.828 261.539 -39.8852 259.193 -42.411C256.847 -44.9369 254.155 -47.6413 251.181 -50.9297C245.054 -57.1608 237.321 -64.8055 227.736 -72.8226C227.335 -73.1761 227.049 -73.4699 226.588 -73.7081L225.264 -74.5378C224.401 -75.1294 223.364 -75.6652 222.442 -76.1415C220.482 -77.1536 218.638 -78.1062 216.678 -79.1184C212.815 -80.9679 208.773 -82.4715 204.961 -83.8561C197.104 -86.4543 189.351 -88.1227 182.341 -88.969C178.864 -89.3048 175.736 -89.752 172.895 -89.9054C169.994 -89.9434 167.384 -89.9777 165.294 -89.8891C161.173 -89.8271 158.793 -89.7423 158.793 -89.7423C158.793 -89.7423 160.82 -89.4256 164.293 -88.7997C166.03 -88.4868 168.172 -88.1105 170.719 -87.6709C173.091 -87.1756 175.81 -86.5017 178.874 -85.6491C190.904 -82.648 206.265 -77.0501 222.175 -69.124C223.789 -68.2905 225.288 -67.5165 226.786 -66.7425C228.225 -65.8533 229.898 -65.135 230.932 -64.3091C233.23 -62.5382 235.587 -60.8826 237.714 -59.346C242.023 -56.0981 245.987 -53.0288 249.489 -50.1976C256.609 -44.4758 261.773 -40.0561 265.204 -36.2395L265.32 -36.18C264.327 -35.6708 263.508 -35.2173 262.515 -34.7081C257.26 -32.166 251.718 -29.9177 246.232 -27.4946C240.515 -25.1907 234.858 -23.0019 229.141 -20.698C226.75 -19.7429 224.358 -18.7879 221.907 -17.7176C221.275 -18.1901 220.126 -19.0755 218.341 -20.1434C215.579 -21.8624 211.318 -24.3553 205.316 -26.8711C193.488 -31.9585 174.761 -37.5425 149.071 -38.692C128.364 -39.3119 109.423 -37.4136 93.0778 -34.3207C76.7323 -31.2278 62.9226 -26.825 52.6053 -23.2469L52.0808 -23.0797C62.573 -26.7136 76.0254 -30.4247 91.7794 -32.655C107.533 -34.8853 125.589 -35.6347 145.18 -33.985C169.173 -31.8134 188.615 -27.6125 201.797 -24.0161C212.436 -21.1493 219.308 -18.622 221.502 -17.7809C218.292 -16.3724 215.026 -15.1387 211.816 -13.7302C207.733 -12.0431 203.764 -10.2964 199.795 -8.54973C198.583 -9.02983 192.295 -11.8395 181.37 -15.0002C175.242 -16.7053 167.548 -18.489 158.34 -19.8864C149.188 -21.109 137.824 -21.7223 125.041 -20.4394C104.475 -18.5044 86.203 -14.5084 70.4705 -9.49264C62.6042 -6.98476 55.3143 -4.17917 48.7755 -1.13164C45.5657 0.276855 42.352 1.97542 39.4284 3.6778C37.7918 4.5847 36.2705 5.55116 34.6896 6.63289C36.0361 5.72215 37.4979 4.87097 38.9597 4.01978C41.8238 2.43268 45.0374 0.7341 48.1878 -0.559128C54.7227 -3.31659 61.7745 -5.66107 69.4026 -7.70788C84.6588 -11.8015 102.391 -14.47 122.016 -15.431C134.326 -16.0818 144.765 -15.6547 154.096 -14.7779C163.426 -13.9011 171.592 -12.7495 178.427 -11.8474C185.203 -10.8301 190.647 -10.0624 194.411 -9.43273C197.248 -8.98932 199.159 -8.73215 199.795 -8.54973C198.103 -7.81761 196.526 -7.02596 194.834 -6.29385C191.274 -4.7739 187.83 -3.19441 184.386 -1.61491C182.132 -2.34079 176.179 -4.10164 166.625 -5.67763C154.409 -7.75277 136.392 -9.90405 112.858 -7.31167C93.9727 -5.23853 76.9165 -1.05247 62.2214 4.49913C48.0507 9.88353 36.0625 16.9793 26.8636 23.7635C36.003 17.0946 47.7492 10.75 61.2092 6.45869C75.428 1.82924 91.7141 -1.14839 109.658 -2.24747C131.898 -3.46425 150.459 -2.93053 163.854 -2.29054C173.887 -1.92676 180.961 -1.48579 183.802 -1.33246C181.875 -0.429352 179.833 0.41423 177.847 1.4326C175.511 2.56245 173.175 3.69231 170.899 4.70688C170.204 4.63972 168.467 4.3268 165.801 4.11774C162.208 3.72244 156.935 3.18904 150.033 2.98241C143.131 2.77577 134.659 2.78064 124.785 3.52144C114.792 4.49275 103.516 5.96947 90.8816 9.22713C70.6789 14.4163 52.5991 21.4321 37.2187 30.5723C35.2882 31.7655 33.4173 32.8434 31.602 34.0961C29.7868 35.3488 27.9716 36.6015 26.1564 37.8543C22.5855 40.2444 19.2971 43.2186 16.1873 45.8469C13.018 48.5905 10.1906 51.8028 7.54191 54.6693C6.0687 56.3907 4.71073 58.1716 3.46806 60.0121C4.59166 58.4021 5.89008 56.7365 7.12894 55.1861C10.2349 52.8478 13.0585 49.9256 16.1125 47.1225Z" fill="#C4A767" fill-opacity="0.03"/>
<path d="M3.45309 61.1725C3.04014 61.6893 2.6829 62.381 2.38521 62.9573C2.74244 62.2657 3.15541 61.7489 3.45309 61.1725Z" fill="#C4A767" fill-opacity="0.03"/>
<path d="M3.86629 60.6557C3.74722 60.8863 3.68768 61.0015 3.5686 61.2321C3.68768 61.0015 3.80675 60.771 3.86629 60.6557Z" fill="#C4A767" fill-opacity="0.03"/>
<path d="M16.4683 64.2444C16.6469 63.8986 16.9408 63.6123 17.0599 63.3818C16.8255 63.5528 16.6469 63.8986 16.4683 64.2444Z" fill="#C4A767" fill-opacity="0.03"/>
<path d="M15.2816 66.2596C15.4602 65.9138 15.6388 65.568 15.8769 65.107C15.7579 65.3375 15.6388 65.568 15.5197 65.7986L15.2816 66.2596Z" fill="#C4A767" fill-opacity="0.03"/>
<path d="M17.476 62.5752C17.3569 62.8057 17.2378 63.0363 17.0035 63.2073C17.1226 62.9767 17.3012 62.6309 17.5355 62.4599L17.476 62.5752Z" fill="#C4A767" fill-opacity="0.03"/>
<path d="M26.7134 52.8901C29.0606 50.89 31.4674 48.7747 34.1009 47.0685C36.7939 45.2471 39.487 43.4256 42.4105 41.7232C45.2746 40.1361 48.3134 38.4933 51.408 37.0253C54.6179 35.6168 57.7682 34.3235 61.0337 33.0899C64.3551 32.031 67.7916 31.0316 71.3435 30.0918C74.8358 29.2673 78.5624 28.2717 82.3448 27.451C101.022 23.5183 117.186 21.0613 128.756 19.2983C140.266 17.6506 147.358 16.6413 147.358 16.6413C147.358 16.6413 145.793 16.5627 142.836 16.3498C139.936 16.3117 135.584 16.2546 130.129 16.3571C119.098 16.7926 103.3 17.9778 84.0271 23.0632C80.1256 24.1145 76.399 25.11 72.7281 26.2803C69.1167 27.3354 65.5015 28.6806 62.1764 30.0295C55.1765 32.8389 48.7492 36.236 42.8387 40.0461C36.9878 43.741 31.6536 47.8487 26.9553 52.1389C24.6081 54.139 22.4876 56.5482 20.4861 58.7269C19.4854 59.8162 18.5999 60.9651 17.7145 62.114C17.655 62.2292 17.595 62.3447 17.5355 62.4599C18.421 61.3111 19.2473 60.2773 20.248 59.1879C22.2494 57.0093 24.4257 54.7749 26.7134 52.8901Z" fill="#C4A767" fill-opacity="0.03"/>
<path d="M4.38786 118.165C4.5817 116.659 4.95034 115.097 5.31899 113.535C4.83127 115.328 4.51836 117.064 4.20544 118.801L4.38786 118.165Z" fill="#C4A767" fill-opacity="0.03"/>
<path d="M30.676 82.5348C32.0301 81.0439 33.4995 79.6126 34.9132 78.0065C36.4421 76.4599 37.9711 74.9133 39.6153 73.4262C45.9654 67.0688 53.5758 61.9464 61.5359 56.7126C74.4652 48.6428 85.6681 43.9157 94.8213 40.6124C97.0938 39.8879 99.251 39.1038 101.349 38.4351C103.387 37.8815 105.31 37.2685 107.173 36.7708C110.725 35.8309 113.868 35.1179 116.542 34.7468L116.832 34.7506C111.539 35.6676 104.503 36.8518 95.4762 39.3444C86.4497 41.8371 75.2621 45.4038 61.9388 52.5401C53.6405 57.0152 45.911 62.368 39.1518 68.9522C32.3963 75.2462 26.7935 82.1357 22.6411 89.0442C21.5733 90.8289 20.6802 92.558 19.8467 94.1717C19.0132 95.7855 18.1796 97.3992 17.5209 98.9572C16.2035 102.073 15.0089 104.669 14.2235 107.037C12.7122 111.66 11.923 114.318 11.923 114.318C11.923 114.318 12.939 112.069 14.677 107.856C15.4586 105.777 16.9394 103.476 18.3683 100.709C19.7972 97.9427 21.691 95.1243 23.7634 91.9602C24.2954 91.2128 24.7717 90.2906 25.3037 89.5433C25.8358 88.796 26.5426 87.9929 27.0746 87.2456C28.1387 85.7509 29.3776 84.2005 30.676 82.5348Z" fill="#C4A767" fill-opacity="0.03"/>
<path d="M83.7913 54.3353C85.6027 53.3727 87.3545 52.5253 88.8163 51.6741C90.3338 50.9977 91.5613 50.3175 92.5544 49.8083C94.6001 48.6747 95.768 48.1097 95.768 48.1097C95.768 48.1097 94.6635 48.2693 92.7406 48.8824C90.7025 49.4359 87.8499 50.1527 84.0599 51.5536C76.7142 54.1844 66.0358 58.7442 54.2515 67.9896C44.8106 75.525 37.2141 84.013 31.8823 92.3566C26.4911 100.815 23.1937 108.896 21.1947 115.31L21.0756 115.541C22.1029 112.421 23.3127 108.665 25.2737 105.151C26.2263 103.307 27.1231 101.288 28.3658 99.4475C29.6085 97.607 30.7954 95.5917 32.2129 93.6955C37.7675 86.0511 45.3527 78.4333 54.6631 71.9987C66.0269 63.8503 76.3708 58.2416 83.7913 54.3353Z" fill="#C4A767" fill-opacity="0.03"/>
<path d="M68.3862 69.7418C70.9082 67.686 73.2479 66.2661 74.7135 65.1248C76.1791 63.9836 77.0569 63.4149 77.0569 63.4149C77.0569 63.4149 73.8547 64.2432 68.3647 66.9563C62.9305 69.8443 55.0338 74.6728 47.0243 83.6776C45.432 85.6295 43.9588 87.3509 42.5413 89.2471C41.2391 91.2029 39.8811 92.9838 38.7537 94.8839C37.6263 96.7839 36.6142 98.7434 35.7211 100.472C34.6532 102.257 33.8755 104.046 33.0977 105.834C32.3199 107.623 31.6016 109.296 31.0581 110.914C30.63 112.591 30.0865 114.208 29.6026 115.711C28.6348 118.715 28.2509 121.437 27.6403 123.75L27.5212 123.981C28.0166 121.608 28.5157 118.946 29.5988 116.001C30.0827 114.498 30.6819 113.056 31.2253 111.438C31.7688 109.821 32.658 108.382 33.4916 106.768C35.1586 103.54 37.231 100.376 39.5973 96.9258C42.0193 93.6501 44.7314 90.3783 47.9641 87.2294C55.8988 79.5002 63.1116 73.7343 68.3862 69.7418Z" fill="#C4A767" fill-opacity="0.03"/>
<path d="M50.119 130.835L50.1786 130.719C50.0038 130.775 50.119 130.835 50.119 130.835Z" fill="#C4A767" fill-opacity="0.03"/>
<path d="M57.8779 127.687C58.0008 127.166 58.0641 126.761 58.0717 126.181C58.0641 126.761 57.9412 127.281 57.8779 127.687Z" fill="#C4A767" fill-opacity="0.03"/>
<path d="M57.8704 128.267C57.93 128.152 57.9338 127.862 57.9933 127.746C57.9338 127.862 57.9895 128.036 57.93 128.152L57.8704 128.267Z" fill="#C4A767" fill-opacity="0.03"/>
<path d="M90.859 59.5924C92.5261 56.3649 93.7207 53.7695 94.6137 52.0404C95.3915 50.2519 95.8678 49.3297 95.8678 49.3297C95.8678 49.3297 95.1014 50.2481 93.6282 51.9695C92.155 53.6909 90.265 56.2192 88.0178 59.4391C83.5234 65.8789 78.0612 75.3232 75.2502 86.137C72.8154 94.8088 73.2484 101.603 73.1204 106.94C73.3166 109.67 72.7618 112.157 72.8504 114.248C72.7199 115.348 72.5337 116.274 72.4627 117.26C72.3917 118.245 72.3803 119.115 72.3132 119.811L72.2536 119.926C72.3803 119.115 72.3917 118.245 72.5184 117.435C72.7046 116.509 72.9504 115.467 73.1962 114.426C73.4419 113.385 73.3419 112.165 73.7067 110.893C74.0716 109.622 74.2059 108.231 74.3402 106.84C75.1117 101.106 75.9581 94.0957 79.2035 85.5506C83.1711 75.0422 87.5845 65.9322 90.859 59.5924Z" fill="#C4A767" fill-opacity="0.03"/>
<path d="M93.0919 79.5821C99.4066 67.0736 105.583 56.246 109.918 48.7016C114.312 41.042 116.634 36.5466 116.634 36.5466C116.634 36.5466 115.634 37.6359 113.867 39.6436C112.215 41.7108 109.797 44.6963 107.021 48.3735C101.526 55.9026 94.3044 66.7745 89.3209 79.5326C85.2419 89.6914 83.1567 98.2517 82.1394 105.027C81.1221 111.803 81.407 116.623 80.9559 120.04L80.8964 120.155C81.3474 116.738 81.5274 111.866 83.1249 105.098C84.8971 98.2746 88.0274 89.67 93.0919 79.5821Z" fill="#C4A767" fill-opacity="0.03"/>
<path d="M122.219 39.8693C116.073 48.3763 108.137 60.6314 101.974 74.8246C96.9501 86.2476 94.1542 95.901 92.4896 103.364C90.7655 110.943 90.4626 116.335 89.0818 119.857L89.0223 119.972C90.3435 116.566 90.9365 111.177 93.4156 103.551C95.8351 96.0392 99.676 86.3414 105.745 74.8741C113.183 60.7556 120.305 48.6639 125.12 39.9073C129.991 31.3256 132.785 26.198 132.785 26.198C132.785 26.198 131.725 27.4026 129.779 29.7561C128.064 32.2287 125.292 35.6158 122.219 39.8693Z" fill="#C4A767" fill-opacity="0.03"/>
<path d="M99.712 114.542C99.4739 115.003 99.2357 115.464 99.0571 115.81C99.2952 115.349 99.4739 115.003 99.712 114.542Z" fill="#C4A767" fill-opacity="0.03"/>
<path d="M99.7717 114.427L99.712 114.542C99.7716 114.427 99.7717 114.427 99.7717 114.427Z" fill="#C4A767" fill-opacity="0.03"/>
<path d="M98.525 116.557C98.6441 116.327 98.8227 115.981 99.1166 115.695C98.938 116.041 98.7593 116.386 98.4655 116.673L98.525 116.557Z" fill="#C4A767" fill-opacity="0.03"/>
<path d="M106.267 119.096C106.326 118.981 106.326 118.981 106.501 118.925C106.442 119.04 106.207 119.211 106.148 119.327L106.267 119.096Z" fill="#C4A767" fill-opacity="0.03"/>
<path d="M113.63 119.541C113.571 119.656 113.571 119.656 113.511 119.771L113.63 119.541Z" fill="#C4A767" fill-opacity="0.03"/>
<path d="M128.355 116.194C128.295 116.31 128.061 116.481 128.001 116.596C128.236 116.425 128.295 116.31 128.355 116.194Z" fill="#C4A767" fill-opacity="0.03"/>
<path d="M128.708 115.793L128.767 115.678C128.648 115.908 128.473 115.964 128.414 116.079C128.589 116.023 128.648 115.908 128.708 115.793Z" fill="#C4A767" fill-opacity="0.03"/>
<path d="M127.179 117.339C127.239 117.224 127.239 117.224 127.414 117.168C127.239 117.224 127.179 117.339 126.945 117.51L127.179 117.339Z" fill="#C4A767" fill-opacity="0.03"/>
<path d="M188.156 51.5853C189.871 49.1127 191.355 46.5211 192.725 43.8699C193.975 41.4493 195.166 39.144 196.357 36.8386C198.738 32.2279 201.116 27.9072 203.374 23.8171C208.066 15.5811 212.167 8.20775 215.728 2.16187C219.173 -3.94354 221.964 -8.78098 223.981 -12.12C225.882 -15.5185 226.95 -17.3032 226.95 -17.3032C226.95 -17.3032 225.417 -15.4665 222.705 -12.1947C219.993 -8.9229 216.217 -4.1564 211.786 1.87804C207.355 7.91249 202.384 15.2744 197.342 23.6219C194.794 27.7082 192.472 32.2036 190.031 36.9296C188.84 39.235 187.764 41.5999 186.629 44.0801C186.034 45.2328 185.673 46.2144 185.018 47.4824C184.423 48.6351 183.653 49.8435 182.998 51.1114C178.369 58.9421 173.458 66.1887 169.365 72.9819C165.042 79.6561 161.421 85.8172 158.043 91.2272C154.78 96.6967 151.989 101.534 149.381 105.736C146.832 109.822 144.637 113.507 142.111 115.853L141.877 116.024C144.518 113.737 146.713 110.053 149.492 106.085C152.45 101.772 155.646 96.9982 159.195 91.8226C162.979 86.4759 167.295 80.3819 172.199 73.7154C177.046 66.8741 182.538 59.635 188.156 51.5853Z" fill="#C4A767" fill-opacity="0.03"/>
<path d="M184.932 98.2529C184.992 98.1377 185.051 98.0224 185.226 97.9667C185.226 97.9667 185.226 97.9667 185.166 98.0819L184.932 98.2529Z" fill="#C4A767" fill-opacity="0.03"/>
<path d="M189.296 92.914C187.763 94.7506 186.349 96.3568 185.11 97.9072C186.464 96.4163 187.878 94.8102 189.296 92.914Z" fill="#C4A767" fill-opacity="0.03"/>
<path d="M310.154 -21.4914C306.456 -27.0523 302.801 -31.5682 299.66 -35.381C293.493 -42.9472 289.139 -47.2401 289.139 -47.2401C289.139 -47.2401 291.097 -41.7021 295.1 -32.7717C297.073 -28.394 299.731 -23.0788 302.845 -17.2355C303.971 -14.6096 304.212 -10.8348 304.043 -6.83334C304.05 -2.88757 303.528 1.51546 302.887 6.14903C301.746 13.4452 299.799 20.3246 297.451 26.8506C296.304 30.201 294.987 33.317 293.554 36.3735C292.121 39.43 290.577 42.1369 288.973 44.9591C285.71 50.4286 282.22 55.489 278.508 59.8502C278.095 60.367 277.622 60.999 277.094 61.4563C276.506 62.0288 276.443 62.4342 276.205 62.8952C275.613 63.7578 275.137 64.68 274.605 65.4273C273.481 67.0373 272.417 68.532 271.353 70.0267L271.234 70.2572C272.239 68.8778 273.418 67.4426 274.601 65.7174C275.193 64.8548 275.784 63.9922 276.376 63.1296L276.789 62.6128C276.908 62.3822 277.027 62.1517 277.321 61.8655C277.908 61.2929 278.321 60.7761 278.909 60.2036C283.031 55.6157 287.276 50.5072 291.294 44.9895C292.299 43.6101 293.363 42.1154 294.252 40.6765C295.201 39.1223 296.15 37.5681 297.098 36.0138C298.94 32.7306 300.782 29.4474 302.393 26.0451C304.005 22.6427 305.56 19.0656 306.885 15.3694C308.27 11.558 309.424 7.62743 310.288 3.69307C311.338 -1.16722 312.094 -5.74125 312.092 -9.9771C312.264 -14.2687 311.968 -18.2182 310.154 -21.4914Z" fill="#C4A767" fill-opacity="0.03"/>
<path d="M329.882 -16.9968C325.01 -30.4645 315.08 -38.6602 307.777 -43.7462C300.185 -48.836 294.7 -50.9388 294.7 -50.9388C294.7 -50.9388 298.247 -47.0626 303.674 -40.6087C309.043 -34.0395 316.522 -24.7734 322.863 -12.7371C325.294 -7.83108 327.144 -2.93271 328.184 1.83896C329.224 6.61064 329.565 11.6052 328.983 16.1236C329.012 18.3289 328.401 20.6418 327.91 22.7243C327.359 24.922 326.867 27.0045 326.32 28.9121C324.642 33.0098 322.967 36.8175 321.359 39.9297L321.24 40.1602C322.848 37.048 324.638 33.2999 326.785 28.8602C327.567 26.7815 328.348 24.7029 329.134 22.3342C329.919 19.9655 330.879 17.541 331.259 15.109C331.699 12.5617 332.138 10.0143 332.697 7.23647C332.731 4.62579 332.825 1.89987 332.919 -0.826065C332.753 -5.87639 331.84 -11.4588 329.882 -16.9968Z" fill="#C4A767" fill-opacity="0.03"/>
<path d="M313.943 -66.9914C313.943 -66.9914 316.794 -63.1824 321.821 -57.0818C326.847 -50.9813 334.051 -42.8793 342.517 -33.5423C349.324 -26.0838 354.394 -18.9382 357.207 -12.2285C359.961 -5.40344 360.044 1.50261 358.689 7.51939L358.685 7.80946C359.981 1.90794 361.125 -5.67828 359.662 -13.5889C358.144 -21.6742 354.658 -30.1916 348.911 -38.8547C341.74 -49.5673 332.427 -56.1303 325.697 -60.6285C318.617 -65.0152 313.943 -66.9914 313.943 -66.9914Z" fill="#C4A767" fill-opacity="0.03"/>
</svg>
