<svg width="785" height="462" viewBox="0 0 785 462" fill="none" xmlns="http://www.w3.org/2000/svg">
<path d="M166.503 256.081C166.404 255.75 166.305 255.418 166.305 255.418L166.503 256.081Z" fill="url(#paint0_linear_563_1665)" fill-opacity="0.7"/>
<path d="M268.507 331.381C265.627 325.38 262.351 318.054 258.975 310.395C245.372 279.431 232.339 237.098 224.91 190.559C218.735 153.037 217.925 122.577 218.669 98.5151C220.473 75.5807 222.34 57.6841 224.834 44.2955L224.967 43.5333C222.804 56.8226 219.314 74.1216 215.025 95.9939C214.093 101.33 213.029 107.427 212.495 114.089C211.96 120.75 211.426 127.412 210.759 134.836C210.087 149.485 210.01 166.123 211.524 184.453C214.711 230.094 231.255 275.71 249.397 308.566C254.397 316.822 258.767 324.183 262.509 330.648C267.012 337.247 271.119 342.519 274.364 347.327C277.841 351.704 280.358 355.285 282.146 357.639C283.935 359.994 284.995 361.121 284.995 361.121C284.995 361.121 282.081 356.214 277.314 347.528C274.831 342.853 271.818 337.614 268.507 331.381Z" fill="url(#paint1_linear_563_1665)" fill-opacity="0.7"/>
<path d="M356.827 399.579L357.788 400.375C357.357 400.143 356.827 399.579 356.396 399.346C356.396 399.346 356.396 399.346 356.827 399.579Z" fill="url(#paint2_linear_563_1665)" fill-opacity="0.7"/>
<path d="M344.539 386.28C340.432 381.008 336.756 375.968 332.783 369.933C325.365 358.428 317.452 345.265 309.904 330.909C305.964 323.781 302.257 316.222 298.782 308.232C294.975 300.341 291.4 292.02 287.727 283.367C280.479 266.393 274.69 248.26 270.459 229.299C260.08 182.56 257.453 143.614 256.011 115.872C254.57 88.1295 254.746 71.8228 254.746 71.8228C254.746 71.8228 253.55 75.0702 251.922 81.698C250.294 88.3257 248.134 98.0024 246.867 110.663C244.1 136.414 242.917 174.694 257.138 224.617C263.092 244.507 270.604 263.57 279.144 281.241C288.016 298.812 296.723 314.627 305.464 329.348C314.105 343.738 322.781 357.034 330.96 368.673C338.014 377.758 343.776 386.147 350.997 393.377C350.997 393.377 350.898 393.046 350.567 393.145C348.546 391.221 346.426 388.966 344.539 386.28Z" fill="url(#paint3_linear_563_1665)" fill-opacity="0.7"/>
<path d="M514.462 449.558C514.031 449.325 514.031 449.325 513.6 449.093C514.031 449.325 514.462 449.558 514.462 449.558Z" fill="url(#paint4_linear_563_1665)" fill-opacity="0.7"/>
<path d="M524.071 453.906C522.878 453.54 522.017 453.076 520.724 452.379C521.487 452.512 522.017 453.076 522.779 453.209L524.071 453.906Z" fill="url(#paint5_linear_563_1665)" fill-opacity="0.7"/>
<path d="M557.814 449.583C556.952 449.119 556.091 448.654 555.229 448.19C556.521 448.886 557.814 449.583 559.106 450.28L557.814 449.583Z" fill="url(#paint6_linear_563_1665)" fill-opacity="0.7"/>
<path d="M662.011 461.015C660.586 461.081 658.73 460.914 657.304 460.979C658.398 461.013 659.492 461.047 660.254 461.18L662.011 461.015Z" fill="url(#paint7_linear_563_1665)" fill-opacity="0.7"/>
<path d="M654.786 461.012C655.548 461.145 656.642 461.179 657.404 461.312C656.211 460.947 655.449 460.814 654.786 461.012Z" fill="url(#paint8_linear_563_1665)" fill-opacity="0.7"/>
<path d="M610.612 448.588C602.627 444.838 594.211 440.855 586.69 436.244C579.169 431.632 570.787 426.556 563.632 420.751C533.451 398.361 504.998 369.674 478.505 334.26C461.548 312.607 448.171 292.049 436.151 273.614C424.463 255.08 414.795 238.469 406.584 224.311C393.308 200.473 384.269 184.757 381.885 180.414C383.277 181.442 384.668 182.47 386.06 183.499C386.06 183.499 386.06 183.499 386.391 183.399C401.133 195.241 416.206 206.983 430.982 217.73C441.152 225.161 451.323 232.591 461.295 239.359C463.645 244.796 469.107 255.803 478.709 270.989C485.596 281.93 494.935 295.028 507.189 309.42C519.444 323.812 534.946 339.399 555.154 355.022C571.188 367.56 588.814 378.177 606.507 386.606C615.686 390.722 624.433 394.605 633.645 397.627C642.625 401.079 651.971 403.339 661.316 405.598C693.925 413.175 726.804 412.002 752.925 406.35C726.804 412.002 694.953 411.784 664.101 404.042C628.808 394.74 594.316 377.253 564.436 352.244C545.752 336.887 530.349 321.631 517.531 307.769C514.352 304.386 511.172 301.004 508.324 297.522C505.475 294.04 502.726 290.89 499.977 287.739C494.479 281.439 489.843 275.603 485.736 270.33C477.191 259.885 470.9 250.932 466.595 244.997C465.336 243.206 464.177 241.747 463.349 240.189C472.99 247.055 482.432 253.259 492.206 259.364C502.079 265.799 512.184 271.805 521.759 277.246C526.596 280.133 531.335 282.688 536.172 285.574C540.91 288.129 545.648 290.684 550.386 293.239C559.431 298.117 568.278 302.331 576.694 306.314C576.694 306.314 576.694 306.314 577.026 306.215C585.872 310.429 594.521 313.981 603.07 317.201C619.406 323.508 633.82 328.224 646.215 331.015C648.932 331.647 651.219 332.046 653.605 332.777C654.035 333.009 654.466 333.241 654.897 333.473C657.714 334.436 662.154 335.997 667.688 337.591C673.222 339.185 680.082 340.383 688.367 341.515C692.411 341.749 696.786 341.884 701.591 342.252C706.298 342.288 711.236 341.893 716.175 341.499C720.451 341.302 724.196 340.542 727.942 339.782C731.688 339.022 735.433 338.262 738.748 337.27C745.71 335.186 752.108 333.632 757.777 330.852C769.181 326.716 777.437 321.716 784.2 318.969L784.531 318.87C777.768 321.617 769.646 325.854 758.176 328.565C746.905 331.939 733.381 333.82 717.704 334.539C698.414 335.257 682.042 333.656 670.011 333.284C664.111 332.882 659.306 332.515 656.024 332.413C652.743 332.312 650.887 332.145 650.887 332.145C650.887 332.145 651.749 332.61 652.942 332.975C650.986 332.477 649.031 331.978 646.745 331.579C639.785 330.05 632.296 327.958 624.608 325.202C625.371 325.335 626.464 325.369 627.657 325.734C631.038 326.167 636.042 327.198 642.273 327.5C654.403 328.203 671.273 327.849 689.14 323.584C696.433 321.401 702.831 319.848 708.6 317.398C711.484 316.174 714.136 315.38 716.689 314.255C719.242 313.129 721.794 312.004 724.016 310.978C728.889 309.158 732.901 306.874 736.349 305.119C738.238 304.192 740.227 303.597 741.885 303.101C743.542 302.604 744.868 302.208 746.294 302.142C744.868 302.208 743.542 302.604 742.216 303.001C740.559 303.498 738.57 304.093 736.581 304.688C732.603 305.879 728.16 307.931 723.089 309.088C720.437 309.882 717.785 310.676 715.133 311.47C712.05 312.031 709.398 312.825 705.984 313.486C703 314.379 699.586 315.04 696.073 315.369C692.658 316.03 688.913 316.79 685.399 317.119C666.704 319.825 651.126 320.876 640.121 322.726C631.006 323.648 625.172 324.672 623.515 325.168C617.451 323.01 610.956 320.62 604.031 317.997C596.674 315.142 588.788 311.724 580.902 308.305C581.664 308.438 582.857 308.803 584.382 309.069C588.624 309.967 594.721 311.031 602.675 312.262C618.053 314.161 639.463 315.699 662.566 312.034C680.83 309.095 695.748 304.63 707.052 300.163C716.567 296.953 724.027 292.915 730.557 290.598C724.259 292.484 716.17 295.628 706.026 297.941C693.662 301.281 677.917 304.188 658.726 305.237C634.928 306.582 614.677 306.503 600.325 306.825C593.199 307.153 587.399 307.083 583.554 307.511C581.466 307.775 580.041 307.84 578.947 307.807C570.1 303.592 561.154 299.046 551.777 294.267C547.039 291.712 542.633 289.058 537.895 286.503C533.157 283.948 528.651 280.962 523.814 278.076C514.139 272.303 504.465 266.53 494.493 259.763C484.09 252.763 473.256 245.531 462.655 237.868C462.026 236.973 461.926 236.641 461.926 236.641C461.926 236.641 462.026 236.973 462.224 237.636C453.014 231.002 443.374 224.135 434.064 217.169C431.282 215.112 428.929 213.288 426.147 211.231C428.963 212.194 443.08 215.915 464.953 220.204C489.112 224.892 523.446 229.785 560.235 229.609C589.8 229.428 613.731 227.322 632.426 224.615C641.773 223.262 649.695 221.974 656.524 220.653C658.28 220.488 659.938 219.992 661.363 219.927C662.689 219.53 664.446 219.365 665.871 219.3C666.534 219.101 667.296 219.234 667.959 219.036C667.296 219.234 666.866 219.002 666.534 219.101C663.684 219.232 660.601 219.793 657.087 220.123C650.16 221.113 642.039 221.738 632.162 222.527C613.07 223.907 587.881 224.223 557.29 222.183C519.375 219.806 486.532 216.273 462.835 214.336C441.657 212.368 428.433 211.63 426.246 211.563C415.015 203.005 403.686 194.115 392.356 185.226C398.785 186.191 412.737 188.155 431.728 190.056C438.389 190.59 445.813 191.258 453.668 192.157C461.423 192.726 469.94 193.427 478.79 194.029C483.164 194.164 487.738 194.962 492.212 195.429C497.117 196.128 502.353 196.728 507.59 197.328C512.727 197.596 517.632 198.295 523.199 198.796C528.337 199.064 533.805 199.233 539.042 199.833C573.477 201.445 601.848 200.899 623.757 200.481C642.815 200.195 657.73 199.342 667.407 201.502C657.631 199.01 643.511 198.902 623.725 197.962C601.088 197.153 571.691 195.478 536.229 191.644C525.094 190.643 514.522 189.112 504.48 188.145C499.575 187.446 494.67 186.747 489.765 186.048C484.529 185.448 479.292 184.848 474.917 184.713C456.556 183.707 441.443 183.897 428.417 183.823C415.822 183.981 405.415 184.206 398.521 184.103C395.339 184.333 392.82 184.364 390.964 184.198C384.77 179.189 378.144 173.948 371.85 168.608C364.065 161.908 355.949 155.308 348.164 148.608C350.55 149.339 354.129 150.435 359 152.227C367.782 155.017 380.043 158.571 395.684 162.558C403.505 164.551 411.989 166.346 421.135 167.942C425.709 168.741 430.613 169.44 435.187 170.238C439.992 170.605 444.897 171.304 450.034 171.573C459.977 172.209 470.351 173.077 480.956 173.514C491.33 174.382 502.797 175.284 514.695 176.418C553.007 180.121 585.321 183.09 610.046 183.636C634.969 184.844 653.066 183.762 664.134 186.95C653.165 184.093 635.334 183.651 610.246 180.686C584.594 178.251 551.487 172.629 511.619 166.142C499.191 164.444 487.327 162.216 475.86 161.314C464.823 160.644 454.118 159.876 444.507 159.14C439.701 158.773 434.995 158.737 430.521 158.27C425.715 157.903 421.573 157.337 417.098 156.87C408.482 155.837 400.296 155.037 392.773 154.038C368.248 150.543 352.109 148.511 347.204 147.812C345.183 145.888 342.831 144.064 340.479 142.24C330.243 133.384 320.007 124.528 309.672 115.341C308.711 114.545 308.181 113.981 307.22 113.185C309.606 113.916 313.185 115.012 318.288 116.374C327.302 118.733 340.325 122.42 356.531 125.876C372.835 129.665 392.089 133.654 413.664 136.948C424.236 138.479 435.57 140.144 447.369 140.946C458.935 142.18 471.031 143.977 483.791 145.576C524.886 151.335 559.154 154.803 586.265 156.079C599.058 156.584 611.189 157.287 621.794 157.724C626.932 157.993 631.737 158.36 635.781 158.595C637.636 158.762 639.592 159.26 641.448 159.427C639.923 159.161 638.299 158.563 636.444 158.396C632.301 157.83 627.495 157.463 622.59 156.764C612.217 155.896 600.22 154.43 586.466 153.129C558.66 149.532 523.366 143.843 480.947 134.868C467.89 132.275 455.164 129.583 443.266 128.449C431.601 126.884 420.366 125.551 409.562 124.451C388.185 121.819 369.328 119.156 353.951 117.257C329.194 114.193 312.49 112.691 306.823 111.859C297.88 103.7 288.505 95.3093 279.893 87.0512C273.4 81.0482 266.908 75.0452 260.747 68.9429C268.037 70.3726 283.613 72.9342 305.222 75.1349C320.169 76.8013 338.297 78.2375 357.885 78.5147C367.729 78.819 378.235 78.9249 388.643 78.6993C394.012 78.5368 399.05 78.4737 404.949 78.875C410.517 79.3756 416.417 79.7769 422.316 80.1782C461.092 83.0192 493.87 85.1274 520.749 86.8342C534.304 87.4722 546.202 88.6064 556.907 89.3752C567.712 90.4756 576.991 91.3099 584.977 95.0601L585.739 95.1931C577.754 91.4429 568.474 90.6087 557.471 88.8453C546.236 87.5127 533.808 85.8147 520.188 83.7515C492.382 80.1549 458.379 75.1625 417.948 69.205C411.85 68.1406 405.52 67.507 399.62 67.1057C393.622 66.3728 387.391 66.0707 382.353 66.1339C371.515 66.1273 361.439 66.2537 351.695 66.2809C332.206 66.3352 315.237 66.3579 300.885 66.6806C286.865 66.904 275.463 67.4273 267.906 67.5221C264.294 67.5199 261.443 67.6507 259.355 67.9146C256.275 64.8635 253.293 62.1439 249.881 59.192C247.529 57.3676 245.409 55.1126 243.389 53.189C245.146 53.0243 248.659 52.695 254.028 52.5326C261.818 52.0071 272.656 52.0137 286.245 51.558C313.092 50.7459 351.009 49.5096 395.82 48.377C457.502 46.8902 507.114 53.3505 540.055 60.8281C535.714 59.5991 531.373 58.3701 526.7 57.2404C515.93 55.0463 503.337 51.5916 489.617 49.1968C461.978 43.7443 428.837 39.2164 391.021 37.1715C344.356 34.5245 306.802 38.1805 281.477 42.8714C268.815 45.2169 258.672 47.5307 252.141 49.8468C247.168 51.3352 244.284 52.5598 242.958 52.9567C236.035 46.7214 229.211 40.8176 222.387 34.9138C224.144 34.7492 226.895 34.2869 230.507 34.2891C237.866 33.5313 248.075 32.6427 261.134 31.6232C267.829 31.0639 275.287 30.6376 283.076 30.112C290.865 29.5865 298.887 28.6302 307.24 27.5748C323.945 25.4638 342.739 23.0889 362.329 19.7534C370.252 18.4657 378.041 17.9401 385.631 16.7516C393.321 15.8946 400.779 15.4683 407.905 15.1412C422.058 14.1555 435.415 14.1306 447.778 14.4033C472.171 15.048 493.414 18.4417 509.02 27.1349L509.881 27.5995C494.375 19.2377 473.066 14.4188 447.216 11.3206C434.457 9.72186 420.139 8.95079 405.158 8.37817C397.502 8.14148 389.846 7.90477 381.527 7.86653C373.639 8.06056 364.988 8.12157 356.437 8.51405C335.489 9.72754 316.695 12.1024 299.856 14.9756C282.057 17.0527 267.405 19.9935 255.372 23.2343C243.67 26.3758 234.819 29.3864 228.719 31.9348C225.835 33.1593 223.614 34.1854 221.956 34.6816C221.525 34.4493 220.995 33.8855 220.565 33.6532C214.568 29.3077 208.804 24.5315 202.808 20.186C204.134 19.7891 206.123 19.1937 208.112 18.5983C214.41 16.713 223.593 13.6031 235.295 10.4616C247.328 7.22087 261.118 3.81549 277.625 1.04152C285.879 -0.345459 294.796 -1.93089 304.242 -2.95256C309.082 -3.67876 314.02 -4.07349 318.86 -4.79968C323.699 -5.52588 328.108 -6.48434 332.947 -7.21054C363.443 -12.7269 390.987 -14.8312 414.916 -13.3251C439.176 -11.9182 459.822 -6.9008 475.362 0.367218L476.124 0.500259C460.683 -6.43626 439.542 -13.1111 414.255 -16.7393C401.728 -18.7687 387.742 -19.6391 373.192 -19.9794C365.867 -20.3153 358.31 -20.2205 350.422 -20.0265C346.478 -19.9295 342.534 -19.8325 338.689 -19.4039C336.501 -19.4716 334.844 -18.9754 332.656 -19.0431C330.469 -19.1107 327.95 -19.0791 325.762 -19.1467C302.562 -19.4261 283.536 -16.6205 267.757 -12.6198C251.746 -8.18831 238.65 -2.46245 228.207 2.46959C217.863 7.73312 210.701 12.7666 205.561 16.111C203.771 17.3693 202.312 18.5285 201.085 19.2569C197.341 16.4043 193.266 13.6508 189.523 10.7981C188.661 10.3336 187.701 9.53757 186.839 9.07303C188.066 8.34462 190.188 6.98701 193.305 5.33173C195.758 3.87489 199.107 1.78889 202.787 -0.396347C206.468 -2.58159 210.479 -4.86606 215.154 -7.34898C224.504 -12.3148 236.075 -18.3068 249.833 -24.2311C256.497 -27.3094 263.923 -30.2546 272.111 -33.0668C275.99 -34.5891 280.299 -35.879 284.51 -37.5005C288.819 -38.7905 292.797 -39.9812 297.438 -41.3704C311.792 -45.3058 325.979 -47.3851 340.132 -48.3708C347.258 -48.6979 354.052 -48.9257 361.045 -48.4905C367.078 -48.8514 372.68 -49.4446 378.049 -49.607C399.957 -50.0245 419.146 -47.4606 433.694 -43.5076L434.456 -43.3746C419.908 -47.3276 400.654 -51.3167 377.289 -53.3528C374.339 -53.5534 371.39 -53.7541 368.44 -53.9548C367.015 -53.8893 365.06 -54.3877 363.204 -54.5546C361.348 -54.7214 359.392 -55.2198 357.536 -55.3866C350.013 -56.3855 342.159 -57.2852 334.503 -57.5219C318.76 -58.2276 303.315 -57.9388 287.006 -54.5018C247.03 -46.87 222.957 -29.5506 207.304 -15.474C195.133 -4.24573 188.731 4.53348 186.542 8.07852C182.467 5.32509 178.491 2.90314 174.416 0.149704C169.148 -2.96904 164.112 -6.51852 158.943 -9.30577C153.775 -12.093 148.274 -14.781 143.007 -17.8998C140.422 -19.2934 137.838 -20.687 135.253 -22.0807C132.669 -23.4743 129.852 -24.4372 127.367 -25.4993C116.996 -29.9801 106.857 -34.8916 96.4519 -38.2786C91.5808 -40.0714 86.3783 -41.7649 81.5073 -43.5576C76.6362 -45.3504 71.6321 -46.3809 66.8603 -47.8422C28.5527 -58.77 -4.09217 -61.6403 -26.7627 -61.3559C-37.9323 -61.2633 -46.7159 -60.4401 -52.3176 -59.847C-58.2508 -59.1546 -61.002 -58.6922 -61.002 -58.6922C-63.0902 -58.4284 -65.113 -56.7393 -64.3846 -55.5125C-64.1861 -54.8495 -63.3246 -54.385 -62.1317 -54.0197C-61.2702 -53.5551 -60.1766 -53.5213 -59.1821 -53.819C-59.1821 -53.819 -58.519 -54.0175 -57.0938 -54.0829C-55.6686 -54.1483 -53.5804 -54.4121 -50.8292 -54.8745C-48.078 -55.3368 -44.4653 -55.3346 -40.2888 -55.8623C-36.0132 -56.0586 -31.3067 -56.0226 -25.6058 -56.2842C-3.59827 -56.3702 28.6159 -53.7321 66.3936 -43.368C71.1654 -41.9068 76.1695 -40.8763 80.6098 -39.3158C85.4809 -37.523 90.3519 -35.7303 95.223 -33.9375C101.188 -32.111 107.351 -29.6214 113.282 -26.7011C112.387 -26.0719 111.491 -25.4427 110.596 -24.8136C106.021 -21.9991 100.184 -17.3626 93.4192 -11.0031C80.4186 2.27962 65.3254 23.0516 56.5917 50.5888C54.5667 55.8905 52.8732 61.093 51.1797 66.2956C49.8176 71.3989 48.4556 76.5023 47.3258 81.1749C44.7348 90.6193 42.1776 98.9699 40.6149 107.023C37.3903 122.797 34.2672 135.291 31.2454 144.503L31.0132 144.934C33.7034 135.821 38.0195 123.693 43.1993 108.417C45.9549 100.729 49.7051 92.7435 53.5883 83.9959C55.4802 79.4564 57.3723 74.9168 59.4965 69.9465C62.0515 65.2085 64.6065 60.4705 67.3937 55.3018C80.1032 30.1866 93.009 9.34697 102.331 -5.36319C107.374 -12.6517 110.957 -18.7811 114.141 -22.6239C114.937 -23.5845 115.634 -24.8768 116.198 -25.4067C119.544 -23.8801 122.891 -22.3534 126.569 -20.9259C129.054 -19.8638 131.871 -18.9009 134.455 -17.5073C137.04 -16.1137 139.624 -14.72 142.208 -13.3264C146.085 -11.236 150.293 -9.24478 154.269 -6.82285C150.39 -5.3006 140.179 -0.799286 128.838 8.37462C121.642 14.5018 113.849 22.2527 106.517 32.7548C99.5176 43.1577 93.014 55.218 88.6302 69.5335C81.0263 92.3981 77.8649 113.21 75.9324 129.682C75.4635 137.769 74.2323 145.722 73.6979 152.384C73.5943 159.278 72.7621 164.945 72.3946 169.751L72.4938 170.082C73.1928 165.177 73.9257 159.179 74.5593 152.849C75.5244 146.419 77.1863 138.698 78.749 130.645C82.6366 114.672 88.4817 95.5845 98.8685 74.7765C111.379 48.9983 125.81 28.4248 136.756 14.3122C145.645 2.98245 152.544 -4.13924 155.031 -6.68979C155.892 -6.22525 157.085 -5.85994 158.046 -5.0639C163.546 -2.37589 168.582 1.1736 173.518 4.39157C175.341 5.65216 177.494 6.81351 179.316 8.0741C171.324 15.162 161.939 24.8342 152.749 38.7822C143.095 53.5916 133.405 73.1073 125.635 97.8279C120.786 113.005 117.794 128.349 115.731 141.969C113.767 155.922 113.295 167.621 112.527 178.326C112.227 180.944 112.258 183.463 112.191 185.651C112.123 187.838 112.155 190.357 112.319 192.114C112.416 196.058 112.414 199.671 112.446 202.19C112.608 207.559 112.407 210.509 112.937 211.073C112.937 211.073 112.64 210.078 113.336 208.786C113.702 207.593 114.101 205.306 114.832 202.92C115.463 200.203 115.995 197.154 116.992 193.244C117.49 191.289 117.657 189.433 118.056 187.146C118.455 184.859 119.285 182.805 119.585 180.187C121.646 170.178 124.305 158.547 126.898 145.49C129.491 132.432 132.781 118.083 136.337 102.209C139.361 89.3846 142.218 78.4157 145.605 68.0107C149.092 57.9371 152.544 48.9572 156.294 40.9718C163.661 25.7633 171.457 14.3998 179.549 7.64337C182.663 9.60077 185.876 11.8896 189.322 13.7478C191.144 15.0084 192.966 16.269 194.789 17.5296C192.202 19.7486 184.309 27.168 175.882 41.249C170.905 49.9627 164.999 60.3995 160.649 73.6212C158.259 80.1159 156.399 87.1744 153.974 94.7628C152.978 98.6732 152.312 102.484 151.316 106.395C150.319 110.305 149.753 114.448 149.187 118.59C148.321 125.351 147.455 132.112 146.49 138.541C145.857 144.871 145.223 151.201 144.822 157.101C144.42 163 144.251 168.469 144.082 173.937C144.148 175.363 143.782 176.556 144.278 178.213C144.775 179.871 144.939 181.627 145.435 183.285C146.096 186.699 146.989 189.683 147.65 193.097C148.773 199.262 150.99 205.461 153.108 211.329C155.225 217.197 156.481 222.6 158.4 227.805C160.121 232.347 161.975 236.126 163.497 240.005C158.533 227.043 154.4 212.026 151.957 195.419C150.933 189.586 150.473 183.222 150.013 176.858L149.718 172.251C149.652 170.825 150.018 169.632 150.284 168.108C150.584 165.49 151.215 162.772 151.515 160.154C153.61 149.052 156.169 137.089 159.856 124.066C160.853 120.155 162.181 116.146 163.277 112.567C164.605 108.557 165.37 105.078 166.466 101.499C168.757 94.6725 170.617 87.614 173.007 81.1193C177.026 67.9968 181.308 56.9625 184.562 47.3196C190.405 31.845 194.554 21.573 195.749 18.3256C197.141 19.3539 198.963 20.6145 200.454 21.9743L200.122 22.0735C200.122 22.0735 200.122 22.0735 200.454 21.9743C205.158 25.623 209.862 29.2717 214.798 32.4897C212.773 37.7915 210.516 43.524 207.562 50.5486C204.939 57.4741 201.951 65.5925 198.499 74.5724C191.693 92.8636 184.222 114.966 177.146 142.007C176.781 143.2 176.648 143.962 176.283 145.155L175.85 148.536C175.45 150.822 175.482 153.341 175.414 155.529C175.047 160.334 175.011 165.041 174.975 169.747C174.903 179.16 175.494 188.374 176.748 197.39C178.924 215.521 183.322 232.626 188.019 247.113C190.534 254.307 192.85 260.837 195.299 266.606C198.179 272.607 200.33 277.381 202.283 281.492C206.521 289.615 208.573 294.057 208.573 294.057C208.573 294.057 207.283 289.748 205.431 282.355C204.34 278.709 202.951 274.068 201.595 268.333C200.339 262.93 198.984 257.195 197.662 250.367C192.243 223.815 188.751 188.018 189.737 149.074C189.971 145.031 189.973 141.418 190.307 137.706C190.641 133.994 190.544 130.05 191.175 127.333C192.472 120.804 193.635 115.038 194.799 109.272C197.126 97.7391 199.651 86.8694 201.812 77.1928C206.464 57.7402 210.417 43.1925 214.898 32.8212L214.798 32.4897C216.621 33.7503 218.443 35.0109 220.364 36.603C230.402 44.7956 240.207 53.419 250.012 62.0424C259.917 70.9973 269.92 80.2838 279.825 89.2386C283.866 93.0858 288.239 96.8337 292.379 101.012C292.113 102.537 291.349 106.017 290.882 110.491C290.115 117.583 289.346 128.288 289.669 142.639C290.547 170.912 297.448 213.274 319.49 265.19C337.793 307.029 359.679 342.739 381.105 372.084C402.63 401.761 424.69 424.776 441.45 442.154L442.411 442.95C425.319 425.672 405.016 402.492 385.778 373.214C366.539 343.936 348.132 308.991 332.745 268.447C314.248 218.72 304.066 176.256 298.847 146.755C294.553 122.756 293.072 106.946 292.578 101.675C298.11 106.882 303.973 111.99 309.836 117.098C316.859 123.665 324.113 129.801 331.368 135.937C331.499 138.787 332.02 153.802 336.181 178.563C338.493 192.319 342.128 209.291 348.314 228.75C354.5 248.209 363.965 271.383 378.666 295.156C401.876 334.081 427.145 366.61 452.053 393.107C464.341 406.406 476.896 418.179 489.285 428.196C495.149 433.304 501.576 437.882 507.572 442.228C510.786 444.516 514.331 446.706 517.876 448.896C514.761 446.938 511.647 444.981 508.864 442.924C502.868 438.579 496.772 433.902 491.24 428.695C479.514 418.479 468.385 406.64 456.859 393.475C434.47 366.946 412.151 334.617 391.658 296.324C378.813 272.717 369.612 251.632 362.663 232.04C355.814 212.779 349.892 195.408 345.626 181.154C341.359 166.899 337.886 155.297 335.173 147.44C333.387 141.473 332.196 137.495 331.7 135.838C334.681 138.557 337.563 140.945 340.876 143.566C347.269 149.237 353.563 154.577 360.189 159.818C361.014 164.989 363.227 178.414 368.716 199.165C376.223 225.453 388.961 263.178 416.277 307.376C438.064 342.753 462.539 372.631 487.747 396.51C511.994 419.593 537.306 436.578 559.273 448.424C537.306 436.578 513.751 419.428 492.553 396.878C469.864 372.967 448.769 343.522 429.7 308.776C406.393 265.907 389.81 228.61 378.392 201.325C369.82 181.135 364.029 166.615 361.58 160.846C365.324 163.699 368.835 166.982 372.578 169.835C376.852 173.251 381.225 176.999 385.829 180.317C386.326 181.974 387.417 185.621 389.435 191.157C392.049 198.682 396.086 209.755 402.01 223.513C407.935 237.271 416.177 253.948 426.97 273.111C438.427 292.077 451.903 312.966 470.384 334.885C499.728 370.168 530.468 399.254 563.399 421.182C567.474 423.936 571.549 426.689 575.525 429.111C579.832 431.434 583.808 433.856 588.115 436.178C596.067 441.022 605.146 444.806 613.463 448.457C621.78 452.108 630.893 454.798 639.243 457.356C643.916 458.485 648.92 459.516 653.825 460.215C649.682 459.649 645.01 458.519 640.768 457.622C627.379 455.128 618.83 451.907 610.612 448.588Z" fill="url(#paint9_linear_563_1665)" fill-opacity="0.7"/>
<path d="M648.787 460.279C649.218 460.511 649.549 460.412 650.312 460.545C649.881 460.312 649.119 460.18 648.787 460.279Z" fill="url(#paint10_linear_563_1665)" fill-opacity="0.7"/>
<path d="M649.102 432.372C648.34 432.238 647.246 432.205 646.484 432.072C646.915 432.304 647.578 432.105 648.009 432.338L649.102 432.372Z" fill="url(#paint11_linear_563_1665)" fill-opacity="0.7"/>
<path d="M639.724 431.207C640.486 431.34 640.818 431.24 641.58 431.374C640.818 431.24 640.154 431.439 639.724 431.207Z" fill="url(#paint12_linear_563_1665)" fill-opacity="0.7"/>
<path d="M646.484 432.072C645.722 431.939 644.628 431.905 643.866 431.771C644.96 431.805 645.722 431.939 646.484 432.072Z" fill="url(#paint13_linear_563_1665)" fill-opacity="0.7"/>
<path d="M611.755 422.239C605.493 419.418 599.23 416.597 593.101 413.014C586.972 409.43 580.842 405.847 574.846 401.502C568.849 397.156 562.853 392.811 557.089 388.034C551.325 383.258 545.793 378.051 540.162 372.513C534.862 366.875 529.894 361.138 524.495 355.169C519.428 349.1 514.262 342.701 508.996 335.969C483.529 302.776 463.429 273.034 449.09 251.681C434.752 230.327 426.176 217.363 426.176 217.363C426.176 217.363 427.5 220.579 429.949 226.347C432.398 232.116 436.403 240.669 442.197 251.577C453.353 273.161 470.602 303.034 499.119 336.758C504.815 343.722 510.645 349.924 516.143 356.224C521.641 362.525 527.702 368.296 533.665 373.735C545.689 384.945 558.643 394.432 571.531 402.494C584.419 410.556 597.672 417.425 610.429 422.636C616.692 425.457 623.419 427.417 629.715 429.144C632.863 430.008 636.011 430.871 639.06 431.404C639.392 431.304 639.491 431.636 639.822 431.537C636.774 431.004 633.957 430.042 630.809 429.178C624.413 427.119 617.587 424.828 611.755 422.239Z" fill="url(#paint14_linear_563_1665)" fill-opacity="0.7"/>
<path d="M762.272 404.998C758.957 405.99 755.543 406.651 752.129 407.312C756.206 406.452 759.952 405.692 763.598 404.601L762.272 404.998Z" fill="url(#paint15_linear_563_1665)" fill-opacity="0.7"/>
<path d="M667.062 386.18C662.721 384.951 658.612 383.292 653.84 381.83C649.4 380.27 644.959 378.709 640.42 376.817C621.797 370.111 604.701 360.058 586.644 349.209C558.185 331.36 538.376 313.45 523.404 298.427C519.694 294.48 516.183 291.197 512.904 287.483C509.724 284.1 506.876 280.619 504.127 277.468C498.629 271.168 494.423 265.564 491.178 260.756L490.747 260.523C497.569 270.04 506.477 282.905 520.222 298.657C533.868 314.077 551.455 333.013 578.323 352.783C595.02 365.123 613.21 375.21 632.362 382.48C651.184 389.85 670.305 394.601 687.771 396.236C692.245 396.702 696.62 396.838 700.663 397.072C704.706 397.307 708.418 397.64 712.263 397.212C719.721 396.785 725.852 396.756 731.454 396.163C742.227 394.744 748.061 393.721 748.061 393.721C748.061 393.721 742.691 393.883 732.715 394.341C727.776 394.736 721.777 394.003 715.215 393.8C708.321 393.696 701.13 392.598 692.844 391.466C690.988 391.299 688.702 390.9 686.415 390.501C684.46 390.003 682.173 389.603 680.218 389.105C675.645 388.307 671.403 387.409 667.062 386.18Z" fill="url(#paint16_linear_563_1665)" fill-opacity="0.7"/>
<path d="M560.784 307.464C557.041 304.612 553.827 302.323 550.945 299.934C548.063 297.546 545.711 295.722 543.458 294.229C539.284 291.144 537.263 289.221 537.263 289.221C537.263 289.221 538.521 291.011 541.469 294.824C544.317 298.306 548.755 303.48 554.916 309.582C567.238 321.786 585.987 338.568 615.974 353.071C639.698 364.752 663.789 371.627 685.596 374.491C707.303 377.023 726.826 375.875 741.013 373.796L741.676 373.597C734.317 374.355 726.064 375.742 716.883 375.24C712.508 375.104 707.47 375.167 702.565 374.468C697.661 373.769 692.756 373.07 687.519 372.471C667.172 368.448 644.97 360.645 623.235 348.369C596.431 333.636 575.659 318.543 560.784 307.464Z" fill="url(#paint17_linear_563_1665)" fill-opacity="0.7"/>
<path d="M606.049 323.533C599.356 320.48 594.419 317.262 590.973 315.404C587.527 313.546 585.374 312.384 585.374 312.384C585.374 312.384 589.911 317.889 600.711 326.215C611.411 334.209 628.474 345.356 654.09 352.497C659.524 353.76 664.296 355.221 669.3 356.252C674.304 357.282 679.209 357.981 684.015 358.349C688.82 358.716 693.626 359.084 698.001 359.219C702.475 359.686 706.751 359.49 711.027 359.294C715.302 359.097 719.246 359 723.091 358.572C726.837 357.812 730.682 357.383 734.096 356.722C741.024 355.732 746.991 353.946 752.063 352.789L752.394 352.69C747.322 353.847 741.355 355.633 734.66 356.193C731.147 356.522 727.633 356.851 724.12 357.18C720.275 357.609 716.563 357.275 712.619 357.372C704.631 357.235 696.346 356.103 687.199 354.506C678.384 352.81 669.37 350.452 660.059 347.099C637.095 339.163 618.871 330.17 606.049 323.533Z" fill="url(#paint18_linear_563_1665)" fill-opacity="0.7"/>
<path d="M744.537 302.308C744.106 302.075 744.106 302.075 744.537 302.308V302.308Z" fill="url(#paint19_linear_563_1665)" fill-opacity="0.7"/>
<path d="M731.917 289.108C731.586 289.208 731.254 289.307 730.591 289.505C731.254 289.307 731.254 289.307 731.917 289.108Z" fill="url(#paint20_linear_563_1665)" fill-opacity="0.7"/>
<path d="M564.541 288.64C556.553 288.503 550.422 288.532 546.047 288.397C541.672 288.262 539.153 288.293 539.153 288.293C539.153 288.293 541.87 288.925 546.543 290.055C551.216 291.184 558.175 292.713 566.559 294.177C583.66 297.004 607.688 298.842 631.588 294.217C651.078 290.55 664.108 283.398 674.982 278.699C680.221 275.686 685.624 274.43 689.735 272.477C692.056 271.782 694.045 271.187 696.034 270.591C697.923 269.664 699.581 269.168 701.238 268.672L701.57 268.573C699.912 269.069 698.354 269.897 696.365 270.492C694.376 271.087 692.288 271.351 689.636 272.145C687.315 272.84 685.094 273.866 682.011 274.427C679.26 274.89 676.376 276.114 673.392 277.007C661.127 280.679 646.74 285.708 626.653 287.386C602.291 289.26 580.185 289.015 564.541 288.64Z" fill="url(#paint21_linear_563_1665)" fill-opacity="0.7"/>
<path d="M602.041 265.497C571.085 264.649 544.107 262.611 524.653 261.572C505.43 260.102 494.062 259.531 494.062 259.531C494.062 259.531 497.21 260.395 502.744 261.989C508.278 263.583 516.431 265.478 526.77 267.439C547.019 271.131 575.354 275.291 605.417 273.155C629.547 271.712 648.508 267.481 662.762 263.214C677.016 258.947 686.267 253.65 693.56 251.467L693.891 251.368C686.598 253.551 677.149 258.185 661.835 261.324C647.084 263.934 627.098 265.943 602.041 265.497Z" fill="url(#paint22_linear_563_1665)" fill-opacity="0.7"/>
<path d="M495.827 244.915C518.363 249.006 550.311 253.169 584.284 252.029C611.463 251.118 633.572 247.751 649.781 243.982C666.422 240.446 677.627 235.647 685.416 235.122L685.748 235.022C677.627 235.647 666.455 239.352 649.087 241.662C631.718 243.971 609.013 245.349 580.577 244.47C545.478 243.057 514.689 240.353 492.948 238.915C471.206 237.476 458.413 236.971 458.413 236.971C458.413 236.971 461.893 237.736 468.189 239.463C475.049 240.66 484.394 242.92 495.827 244.915Z" fill="url(#paint23_linear_563_1665)" fill-opacity="0.7"/>
<path d="M670.577 219.336C669.815 219.203 669.053 219.07 668.39 219.268C669.152 219.401 670.246 219.435 671.008 219.568L670.577 219.336Z" fill="url(#paint24_linear_563_1665)" fill-opacity="0.7"/>
<path d="M668.268 201.968L667.838 201.735C668.268 201.967 668.6 201.868 669.031 202.101L668.268 201.968Z" fill="url(#paint25_linear_563_1665)" fill-opacity="0.7"/>
<path d="M640.221 160.156C640.221 160.156 640.652 160.389 641.083 160.621C641.083 160.621 640.652 160.389 640.221 160.156Z" fill="url(#paint26_linear_563_1665)" fill-opacity="0.7"/>
<path d="M642.607 160.886C643.369 161.019 643.899 161.584 644.33 161.816C643.568 161.683 643.038 161.119 642.607 160.886Z" fill="url(#paint27_linear_563_1665)" fill-opacity="0.7"/>
<path d="M639.127 160.123C639.459 160.023 639.558 160.355 639.889 160.256C639.889 160.256 639.459 160.023 639.127 160.123Z" fill="url(#paint28_linear_563_1665)" fill-opacity="0.7"/>
<path d="M644.33 161.816C644.761 162.048 645.191 162.28 645.191 162.28L644.33 161.816Z" fill="url(#paint29_linear_563_1665)" fill-opacity="0.7"/>
<path d="M456.639 103.135C450.21 102.17 443.449 101.304 436.886 101.101C431.086 101.031 425.187 100.63 419.718 100.461C408.35 99.8904 397.413 99.5523 387.04 98.6842C366.392 97.2795 347.932 95.9424 332.322 94.4745C316.811 93.3381 304.582 92.3032 296.064 91.602C287.546 90.9007 283.172 90.7654 283.172 90.7654C283.172 90.7654 288.275 92.1275 297.289 94.4862C306.302 96.8449 319.459 99.7697 335.565 102.895C351.671 106.02 370.959 108.916 392.136 110.884C402.609 112.084 413.977 112.654 425.246 112.893C431.046 112.963 436.846 113.033 442.646 113.103C445.596 113.303 448.015 112.94 450.965 113.141C453.915 113.342 456.865 113.542 459.814 113.743C479.799 115.346 498.755 118.341 516.32 120.307C533.554 122.372 549.263 124.172 563.348 125.374C577.434 126.575 589.663 127.61 600.136 128.81C610.609 130.009 619.888 130.844 627.245 133.699L628.007 133.832C620.982 130.878 611.702 130.043 601.031 128.181C589.697 126.517 577.17 124.487 563.549 122.424C549.398 119.797 533.159 117.434 515.43 113.711C497.567 110.75 477.882 106.529 456.639 103.135Z" fill="url(#paint30_linear_563_1665)" fill-opacity="0.7"/>
<path d="M552.614 65.3777C552.282 65.4769 551.851 65.2446 551.851 65.2446L552.614 65.3777Z" fill="url(#paint31_linear_563_1665)" fill-opacity="0.7"/>
<path d="M537.834 61.8549C542.937 63.217 547.278 64.446 551.52 65.3435C547.51 64.0153 542.838 62.8855 537.834 61.8549Z" fill="url(#paint32_linear_563_1665)" fill-opacity="0.7"/>
<path d="M196.5 -69.6697C189.101 -56.9801 183.492 -45.549 178.813 -35.8407C169.455 -16.4241 165.238 -3.96461 165.238 -3.96461C165.238 -3.96461 174.391 -13.2061 188.255 -29.637C195.187 -37.8524 203.281 -48.2215 211.839 -59.452C215.918 -63.9239 223.279 -68.2944 231.269 -71.7696C239.159 -75.5763 248.342 -78.6862 257.856 -81.8953C273.437 -86.5591 288.95 -89.0354 303.998 -90.6502C311.688 -91.5072 319.145 -91.9335 326.702 -92.0283C333.928 -92.0239 340.921 -91.5887 347.914 -91.1536C361.668 -89.8526 374.957 -87.6901 387.45 -84.5669C388.975 -84.3008 390.599 -83.7032 392.123 -83.4371C393.747 -82.8395 394.741 -83.1372 395.934 -82.7719C398.221 -82.3728 400.408 -82.3052 402.695 -81.906C406.838 -81.34 411.079 -80.4426 414.891 -79.7774L415.653 -79.6443C411.842 -80.3095 407.931 -81.3062 403.689 -82.2037C401.403 -82.6028 399.116 -83.002 396.829 -83.4011L394.973 -83.568C394.211 -83.701 393.88 -83.6018 393.018 -84.0663C391.395 -84.6639 389.87 -84.93 388.246 -85.5276C375.124 -89.546 361.106 -92.9353 346.193 -95.6953C342.382 -96.3606 338.571 -97.0258 334.859 -97.3595C331.048 -98.0247 327.004 -98.2592 322.961 -98.4937C314.874 -98.9626 306.456 -99.3324 298.137 -99.3706C289.818 -99.4088 281.266 -99.0164 272.814 -98.2924C264.031 -97.4692 255.114 -95.8837 246.297 -93.9668C235.49 -91.4545 225.877 -88.5769 217.655 -84.6709C209.002 -80.9972 201.641 -76.6268 196.5 -69.6697Z" fill="url(#paint33_linear_563_1665)" fill-opacity="0.7"/>
<path d="M187.113 -113.094C164.959 -90.5697 158.314 -63.2964 154.756 -43.81C151.628 -24.0913 152.979 -11.1313 152.979 -11.1313C152.979 -11.1313 157.029 -21.7348 164.994 -38.567C172.959 -55.3992 184.308 -79.0238 202.022 -103.108C209.319 -112.517 217.345 -120.699 226.099 -127.653C234.621 -134.177 244.203 -139.574 253.717 -142.783C258.16 -144.835 263.232 -145.992 267.972 -147.05C272.712 -148.108 277.452 -149.165 281.629 -149.693C291.605 -150.151 300.157 -150.544 308.144 -150.406L308.907 -150.273C301.25 -150.51 291.838 -150.582 281.331 -150.688C276.393 -150.293 271.454 -149.898 266.184 -149.404C260.913 -148.91 254.881 -148.549 249.909 -147.061C244.505 -145.805 238.87 -144.118 232.903 -142.332C227.797 -140.081 222.36 -137.731 216.691 -134.951C206.115 -129.256 195.935 -122.236 187.113 -113.094Z" fill="url(#paint34_linear_563_1665)" fill-opacity="0.7"/>
<path d="M102.681 -34.3633C102.681 -34.3633 107.558 -43.4086 115.059 -59.3793C122.327 -74.9193 131.886 -97.2856 142.309 -122.8C150.607 -143.344 159.997 -160.242 170.876 -172.167C181.754 -184.092 195.645 -190.778 208.872 -193.654L209.535 -193.852C196.739 -190.745 180.397 -186.214 166.271 -175.484C151.714 -164.986 137.785 -149.981 126.338 -130.3C112.005 -105.783 107.416 -81.2921 105.118 -63.6278C102.256 -45.4336 102.681 -34.3633 102.681 -34.3633Z" fill="url(#paint35_linear_563_1665)" fill-opacity="0.7"/>
<defs>
<linearGradient id="paint0_linear_563_1665" x1="104" y1="17.0001" x2="466.08" y2="452.408" gradientUnits="userSpaceOnUse">
<stop stop-color="#163127" stop-opacity="0.1"/>
<stop offset="0.693762" stop-color="#163127"/>
</linearGradient>
<linearGradient id="paint1_linear_563_1665" x1="104" y1="17.0001" x2="466.08" y2="452.408" gradientUnits="userSpaceOnUse">
<stop stop-color="#163127" stop-opacity="0.1"/>
<stop offset="0.693762" stop-color="#163127"/>
</linearGradient>
<linearGradient id="paint2_linear_563_1665" x1="104" y1="17.0001" x2="466.08" y2="452.408" gradientUnits="userSpaceOnUse">
<stop stop-color="#163127" stop-opacity="0.1"/>
<stop offset="0.693762" stop-color="#163127"/>
</linearGradient>
<linearGradient id="paint3_linear_563_1665" x1="104" y1="17.0001" x2="466.08" y2="452.408" gradientUnits="userSpaceOnUse">
<stop stop-color="#163127" stop-opacity="0.1"/>
<stop offset="0.693762" stop-color="#163127"/>
</linearGradient>
<linearGradient id="paint4_linear_563_1665" x1="104" y1="17.0001" x2="466.08" y2="452.408" gradientUnits="userSpaceOnUse">
<stop stop-color="#163127" stop-opacity="0.1"/>
<stop offset="0.693762" stop-color="#163127"/>
</linearGradient>
<linearGradient id="paint5_linear_563_1665" x1="104" y1="17.0001" x2="466.08" y2="452.408" gradientUnits="userSpaceOnUse">
<stop stop-color="#163127" stop-opacity="0.1"/>
<stop offset="0.693762" stop-color="#163127"/>
</linearGradient>
<linearGradient id="paint6_linear_563_1665" x1="104" y1="17.0001" x2="466.08" y2="452.408" gradientUnits="userSpaceOnUse">
<stop stop-color="#163127" stop-opacity="0.1"/>
<stop offset="0.693762" stop-color="#163127"/>
</linearGradient>
<linearGradient id="paint7_linear_563_1665" x1="104" y1="17.0001" x2="466.08" y2="452.408" gradientUnits="userSpaceOnUse">
<stop stop-color="#163127" stop-opacity="0.1"/>
<stop offset="0.693762" stop-color="#163127"/>
</linearGradient>
<linearGradient id="paint8_linear_563_1665" x1="104" y1="17.0001" x2="466.08" y2="452.408" gradientUnits="userSpaceOnUse">
<stop stop-color="#163127" stop-opacity="0.1"/>
<stop offset="0.693762" stop-color="#163127"/>
</linearGradient>
<linearGradient id="paint9_linear_563_1665" x1="104" y1="17.0001" x2="466.08" y2="452.408" gradientUnits="userSpaceOnUse">
<stop stop-color="#163127" stop-opacity="0.1"/>
<stop offset="0.693762" stop-color="#163127"/>
</linearGradient>
<linearGradient id="paint10_linear_563_1665" x1="104" y1="17.0001" x2="466.08" y2="452.408" gradientUnits="userSpaceOnUse">
<stop stop-color="#163127" stop-opacity="0.1"/>
<stop offset="0.693762" stop-color="#163127"/>
</linearGradient>
<linearGradient id="paint11_linear_563_1665" x1="104" y1="17.0001" x2="466.08" y2="452.408" gradientUnits="userSpaceOnUse">
<stop stop-color="#163127" stop-opacity="0.1"/>
<stop offset="0.693762" stop-color="#163127"/>
</linearGradient>
<linearGradient id="paint12_linear_563_1665" x1="104" y1="17.0001" x2="466.08" y2="452.408" gradientUnits="userSpaceOnUse">
<stop stop-color="#163127" stop-opacity="0.1"/>
<stop offset="0.693762" stop-color="#163127"/>
</linearGradient>
<linearGradient id="paint13_linear_563_1665" x1="104" y1="17.0001" x2="466.08" y2="452.408" gradientUnits="userSpaceOnUse">
<stop stop-color="#163127" stop-opacity="0.1"/>
<stop offset="0.693762" stop-color="#163127"/>
</linearGradient>
<linearGradient id="paint14_linear_563_1665" x1="104" y1="17.0001" x2="466.08" y2="452.408" gradientUnits="userSpaceOnUse">
<stop stop-color="#163127" stop-opacity="0.1"/>
<stop offset="0.693762" stop-color="#163127"/>
</linearGradient>
<linearGradient id="paint15_linear_563_1665" x1="104" y1="17.0001" x2="466.08" y2="452.408" gradientUnits="userSpaceOnUse">
<stop stop-color="#163127" stop-opacity="0.1"/>
<stop offset="0.693762" stop-color="#163127"/>
</linearGradient>
<linearGradient id="paint16_linear_563_1665" x1="104" y1="17.0001" x2="466.08" y2="452.408" gradientUnits="userSpaceOnUse">
<stop stop-color="#163127" stop-opacity="0.1"/>
<stop offset="0.693762" stop-color="#163127"/>
</linearGradient>
<linearGradient id="paint17_linear_563_1665" x1="104" y1="17.0001" x2="466.08" y2="452.408" gradientUnits="userSpaceOnUse">
<stop stop-color="#163127" stop-opacity="0.1"/>
<stop offset="0.693762" stop-color="#163127"/>
</linearGradient>
<linearGradient id="paint18_linear_563_1665" x1="104" y1="17.0001" x2="466.08" y2="452.408" gradientUnits="userSpaceOnUse">
<stop stop-color="#163127" stop-opacity="0.1"/>
<stop offset="0.693762" stop-color="#163127"/>
</linearGradient>
<linearGradient id="paint19_linear_563_1665" x1="104" y1="17.0001" x2="466.08" y2="452.408" gradientUnits="userSpaceOnUse">
<stop stop-color="#163127" stop-opacity="0.1"/>
<stop offset="0.693762" stop-color="#163127"/>
</linearGradient>
<linearGradient id="paint20_linear_563_1665" x1="104" y1="17.0001" x2="466.08" y2="452.408" gradientUnits="userSpaceOnUse">
<stop stop-color="#163127" stop-opacity="0.1"/>
<stop offset="0.693762" stop-color="#163127"/>
</linearGradient>
<linearGradient id="paint21_linear_563_1665" x1="104" y1="17.0001" x2="466.08" y2="452.408" gradientUnits="userSpaceOnUse">
<stop stop-color="#163127" stop-opacity="0.1"/>
<stop offset="0.693762" stop-color="#163127"/>
</linearGradient>
<linearGradient id="paint22_linear_563_1665" x1="104" y1="17.0001" x2="466.08" y2="452.408" gradientUnits="userSpaceOnUse">
<stop stop-color="#163127" stop-opacity="0.1"/>
<stop offset="0.693762" stop-color="#163127"/>
</linearGradient>
<linearGradient id="paint23_linear_563_1665" x1="104" y1="17.0001" x2="466.08" y2="452.408" gradientUnits="userSpaceOnUse">
<stop stop-color="#163127" stop-opacity="0.1"/>
<stop offset="0.693762" stop-color="#163127"/>
</linearGradient>
<linearGradient id="paint24_linear_563_1665" x1="104" y1="17.0001" x2="466.08" y2="452.408" gradientUnits="userSpaceOnUse">
<stop stop-color="#163127" stop-opacity="0.1"/>
<stop offset="0.693762" stop-color="#163127"/>
</linearGradient>
<linearGradient id="paint25_linear_563_1665" x1="104" y1="17.0001" x2="466.08" y2="452.408" gradientUnits="userSpaceOnUse">
<stop stop-color="#163127" stop-opacity="0.1"/>
<stop offset="0.693762" stop-color="#163127"/>
</linearGradient>
<linearGradient id="paint26_linear_563_1665" x1="104" y1="17.0001" x2="466.08" y2="452.408" gradientUnits="userSpaceOnUse">
<stop stop-color="#163127" stop-opacity="0.1"/>
<stop offset="0.693762" stop-color="#163127"/>
</linearGradient>
<linearGradient id="paint27_linear_563_1665" x1="104" y1="17.0001" x2="466.08" y2="452.408" gradientUnits="userSpaceOnUse">
<stop stop-color="#163127" stop-opacity="0.1"/>
<stop offset="0.693762" stop-color="#163127"/>
</linearGradient>
<linearGradient id="paint28_linear_563_1665" x1="104" y1="17.0001" x2="466.08" y2="452.408" gradientUnits="userSpaceOnUse">
<stop stop-color="#163127" stop-opacity="0.1"/>
<stop offset="0.693762" stop-color="#163127"/>
</linearGradient>
<linearGradient id="paint29_linear_563_1665" x1="104" y1="17.0001" x2="466.08" y2="452.408" gradientUnits="userSpaceOnUse">
<stop stop-color="#163127" stop-opacity="0.1"/>
<stop offset="0.693762" stop-color="#163127"/>
</linearGradient>
<linearGradient id="paint30_linear_563_1665" x1="104" y1="17.0001" x2="466.08" y2="452.408" gradientUnits="userSpaceOnUse">
<stop stop-color="#163127" stop-opacity="0.1"/>
<stop offset="0.693762" stop-color="#163127"/>
</linearGradient>
<linearGradient id="paint31_linear_563_1665" x1="104" y1="17.0001" x2="466.08" y2="452.408" gradientUnits="userSpaceOnUse">
<stop stop-color="#163127" stop-opacity="0.1"/>
<stop offset="0.693762" stop-color="#163127"/>
</linearGradient>
<linearGradient id="paint32_linear_563_1665" x1="104" y1="17.0001" x2="466.08" y2="452.408" gradientUnits="userSpaceOnUse">
<stop stop-color="#163127" stop-opacity="0.1"/>
<stop offset="0.693762" stop-color="#163127"/>
</linearGradient>
<linearGradient id="paint33_linear_563_1665" x1="104" y1="17.0001" x2="466.08" y2="452.408" gradientUnits="userSpaceOnUse">
<stop stop-color="#163127" stop-opacity="0.1"/>
<stop offset="0.693762" stop-color="#163127"/>
</linearGradient>
<linearGradient id="paint34_linear_563_1665" x1="104" y1="17.0001" x2="466.08" y2="452.408" gradientUnits="userSpaceOnUse">
<stop stop-color="#163127" stop-opacity="0.1"/>
<stop offset="0.693762" stop-color="#163127"/>
</linearGradient>
<linearGradient id="paint35_linear_563_1665" x1="104" y1="17.0001" x2="466.08" y2="452.408" gradientUnits="userSpaceOnUse">
<stop stop-color="#163127" stop-opacity="0.1"/>
<stop offset="0.693762" stop-color="#163127"/>
</linearGradient>
</defs>
</svg>
