<svg width="343" height="379" viewBox="0 0 343 379" fill="none" xmlns="http://www.w3.org/2000/svg">
<path d="M327.295 150.382C326.523 147.329 325.727 144.427 324.886 141.827C325.553 144.555 326.372 147.306 327.295 150.382Z" fill="#C4A767" fill-opacity="0.07"/>
<path d="M324.781 141.502C324.758 141.653 324.886 141.827 324.863 141.978L324.781 141.502Z" fill="#C4A767" fill-opacity="0.07"/>
<path d="M275.152 94.8714C276.332 98.2954 277.571 102.347 278.938 106.572C284.187 123.902 288.518 147.275 289.485 172.454C290.408 192.836 288.883 208.984 286.933 221.822C284.494 233.813 282.422 243.388 280.287 250.326L280.241 250.628C282.376 243.69 285.286 234.706 288.864 223.351C289.753 220.55 290.537 217.424 291.367 213.996C292.196 210.568 292.898 206.966 293.494 203.039C294.838 195.208 295.866 186.402 296.276 176.575C297.378 152.019 291.487 126.711 283.936 108.258C281.859 103.616 280.039 99.3219 278.429 95.678C276.517 91.9882 274.536 88.7515 273.091 86.0597C271.622 83.5189 270.387 81.4771 269.513 80.1083C268.64 78.7394 268.278 78.0665 268.278 78.0665C268.278 78.0665 269.55 80.8864 271.429 85.8074C272.445 88.2794 273.821 91.4244 275.152 94.8714Z" fill="#C4A767" fill-opacity="0.07"/>
<path d="M232.525 53.0137L231.967 52.6199C232.246 52.8168 232.525 53.0137 232.631 53.3387C232.654 53.1877 232.654 53.1877 232.525 53.0137Z" fill="#C4A767" fill-opacity="0.07"/>
<path d="M238.29 60.8423C240.166 63.7539 241.693 66.9218 243.5 70.2866C246.812 76.9703 250.183 84.281 253.114 92.4522C254.806 96.5721 256.173 100.797 257.669 105.196C259.164 109.595 260.613 114.297 262.063 118.998C264.788 128.528 266.817 138.571 267.87 148.93C270.476 174.512 269.32 195.351 268.455 210.208C267.438 225.042 266.282 233.675 266.282 233.675C266.282 233.675 267.161 231.954 268.444 228.595C269.727 225.235 271.436 220.087 273.072 213.382C276.216 199.798 279.139 179.536 274.799 152.145C272.908 141.196 270.041 130.562 266.607 120.615C262.871 110.622 259.45 101.604 255.613 93.2952C251.926 85.0094 248.125 77.4788 244.512 70.7492C241.296 65.4707 238.638 60.5861 235.412 56.3878L235.54 56.5618C236.414 57.9306 237.288 59.2995 238.29 60.8423Z" fill="#C4A767" fill-opacity="0.07"/>
<path d="M149.893 15.1247C150.603 15.5414 151.161 15.9353 151.696 16.4801C151.161 15.9353 150.452 15.5185 149.893 15.1247Z" fill="#C4A767" fill-opacity="0.07"/>
<path d="M149.893 15.1247C149.463 14.9048 149.184 14.7079 148.754 14.4881C149.033 14.685 149.463 14.9048 149.893 15.1247Z" fill="#C4A767" fill-opacity="0.07"/>
<path d="M151.696 16.4801C151.847 16.503 151.975 16.6772 152.127 16.7001C151.998 16.5262 151.847 16.503 151.696 16.4801Z" fill="#C4A767" fill-opacity="0.07"/>
<path d="M147.056 13.4575C147.637 13.7003 148.195 14.0942 148.754 14.4881C148.475 14.2912 148.044 14.0712 147.765 13.8743L147.056 13.4575Z" fill="#C4A767" fill-opacity="0.07"/>
<path d="M128.798 13.6211C129.205 13.992 129.635 14.2118 130.193 14.6056C129.635 14.2118 128.949 13.644 128.39 13.2502L128.798 13.6211Z" fill="#C4A767" fill-opacity="0.07"/>
<path d="M74.0091 0.974659C74.7642 1.08933 75.6705 1.22694 76.4257 1.34162C75.8215 1.24988 75.3684 1.18107 74.7642 1.08933L74.0091 0.974659Z" fill="#C4A767" fill-opacity="0.07"/>
<path d="M77.9362 1.57142C77.4831 1.50261 77.03 1.43381 76.5769 1.365C77.03 1.43381 77.3321 1.47968 77.9362 1.57142Z" fill="#C4A767" fill-opacity="0.07"/>
<path d="M100.626 10.8883C104.58 13.3429 108.813 15.9945 112.675 19.0533C116.386 22.0891 120.551 25.1938 124.042 28.6598C138.785 42.4875 151.943 59.6286 163.992 80.0007C171.637 92.7505 177.455 104.296 182.784 114.994C187.811 125.647 191.941 135.082 195.371 143.02C200.914 156.378 204.637 165.441 205.652 167.913C204.989 167.195 204.302 166.627 203.639 165.908L203.79 165.931C203.79 165.931 203.79 165.931 203.639 165.908C196.4 158.628 189.29 151.522 181.982 144.695C176.967 140.071 172.08 135.62 167.193 131.169C166.247 128.244 164.098 122.046 159.876 113.216C156.949 107.054 152.845 99.4773 147.195 90.8934C141.523 82.4604 134.28 73.1711 124.447 63.6429C116.673 55.818 107.937 49.2378 99.2151 43.5868C94.6801 40.8894 90.2961 38.215 85.5412 35.9477C80.9603 33.5524 76.1366 31.7383 71.3129 29.9241C54.4711 23.8127 36.9183 22.3835 22.4953 23.7474C36.7443 22.5116 53.6012 24.4532 69.5139 30.5781C87.7514 37.674 104.999 49.2552 119.361 64.5704C128.462 73.8329 135.577 82.9483 141.446 91.102C142.984 93.1897 144.393 95.1034 145.779 97.1681C147.037 99.0589 148.295 100.95 149.553 102.84C151.941 106.448 154.05 109.859 156.031 113.095C159.888 119.244 162.673 124.302 164.631 127.69C165.249 128.711 165.716 129.709 166.077 130.382C161.295 126.256 156.664 122.154 151.988 118.353C147.055 114.205 142.205 110.532 137.505 106.883C135.144 105.133 132.805 103.233 130.444 101.484C128.083 99.7347 125.699 98.1365 123.466 96.5613C119 93.4107 114.638 90.5852 110.231 88.0617C110.231 88.0617 110.231 88.0617 110.08 88.0388C105.545 85.3414 101.138 82.818 96.9877 80.6425C88.8372 76.3144 81.3273 72.8563 74.8881 70.4878C73.5746 69.9793 72.4122 69.4937 71.0758 69.1363C70.7966 68.9394 70.6456 68.9164 70.3665 68.7195C68.9249 68.0371 66.774 66.9379 63.8679 65.724C60.9619 64.5101 57.4058 63.5065 53.2456 62.4112C51.1539 61.9391 48.7373 61.5722 46.3207 61.2052C43.9041 60.8382 41.2677 60.9015 38.5031 60.7907C36.3656 60.6207 34.1594 60.9037 31.9761 61.0357C29.9437 61.1907 27.9115 61.3457 26.0073 61.6746C22.176 62.4835 18.5645 62.8622 15.4884 63.7858C9.07989 65.285 4.41509 67.5125 0.711825 68.4954L0.537918 68.6235C4.26404 67.4896 8.98815 65.8891 15.1309 65.1222C21.3195 64.0531 28.7528 63.9457 37.1516 64.603C47.5368 65.4074 56.2053 67.3418 62.3979 68.2821C65.5467 68.9148 67.9404 69.4328 69.7528 69.708C71.4142 69.9603 72.4485 70.2719 72.4485 70.2719C72.4485 70.2719 72.0184 70.052 71.4601 69.6582C72.4944 69.9698 73.5058 70.4324 74.6683 70.918C78.1785 72.2236 82.096 73.9001 86.1415 75.7506C85.6884 75.6818 85.1072 75.439 84.526 75.1962C82.7365 74.77 80.2376 73.927 76.9148 73.4224C70.4661 72.1341 61.4631 71.3851 51.686 72.6818C47.7265 73.3167 44.2431 73.8694 41.016 74.77C39.4139 75.1448 37.9628 75.5426 36.3607 75.9174C34.9096 76.3151 33.5866 76.8868 32.2866 77.3075C29.7094 77.9978 27.3885 79.0361 25.2874 79.6441C24.3123 79.9596 23.1863 80.2522 22.2342 80.4167C21.4331 80.6041 20.481 80.7685 19.8769 80.6768C20.481 80.7685 21.282 80.5811 22.0831 80.3937C23.0352 80.2293 24.1384 80.0877 25.2644 79.7951C27.4936 79.361 29.9197 78.6478 32.7531 78.3054C34.1813 78.0588 35.6094 77.8121 37.1886 77.5883C38.7677 77.3645 40.324 77.2918 42.0542 77.091C43.7844 76.8902 45.5146 76.6893 47.524 76.6854C49.3823 76.6586 51.4376 76.3526 53.424 76.4997C63.4937 76.329 71.9384 76.6843 77.8384 76.4985C82.6123 76.6054 85.8987 76.3318 86.8279 76.3184C89.9902 77.8802 93.3035 79.465 96.722 81.3747C100.443 83.3304 104.419 85.634 108.373 88.0886C107.943 87.8688 107.339 87.777 106.607 87.5113C104.41 86.7142 101.156 85.7565 97.1466 84.6841C89.1052 82.6905 77.6952 80.4943 65.3962 81.099C55.4546 81.4436 47.3389 82.9926 40.9074 84.6429C35.6251 85.8495 31.377 87.3677 27.8478 88.2225C31.3541 87.5188 35.6843 86.4766 41.3511 85.7919C48.1438 84.8146 56.7261 84.2636 66.9833 84.894C79.6799 85.7403 90.4724 86.9156 98.0931 87.6092C101.915 87.8805 104.959 88.1882 107.096 88.3582C108.153 88.5188 108.931 88.4824 109.536 88.5742C113.92 91.2487 118.56 94.2711 123.177 97.4445C125.41 99.0198 127.771 100.769 130.156 102.367C132.517 104.116 134.727 105.843 137.216 107.766C141.916 111.415 146.895 115.262 151.699 119.236C156.911 123.582 162.1 128.078 167.243 132.877C167.476 133.376 167.605 133.55 167.605 133.55C167.605 133.55 167.476 133.376 167.522 133.074C172.002 137.153 176.61 141.407 181.218 145.661C182.439 146.773 183.789 148.06 184.988 149.324C183.523 148.792 176.247 145.833 164.915 142.103C152.247 138.017 134.421 133.301 114.845 130.946C99.0682 129.014 86.2798 128.772 76.1871 129.094C71.2163 129.266 66.8497 129.53 63.1101 129.735C62.1809 129.748 61.2518 129.762 60.4736 129.798C59.6955 129.834 58.9174 129.871 58.1393 129.907C57.8372 129.861 57.3611 129.943 57.0591 129.898C57.3611 129.943 57.6632 129.989 57.9653 130.035C59.4986 130.114 61.2059 130.064 63.0413 130.188C66.7579 130.134 71.2298 130.195 76.4338 130.522C86.7139 131.001 100.097 132.415 116.166 135.474C136.14 139.279 153.476 143.148 165.921 145.656C177.157 147.98 184.059 149.337 185.267 149.52C190.643 154.818 196.148 160.289 201.652 165.761C198.247 164.78 191.112 162.924 181.107 160.632C177.505 159.931 173.775 159.055 169.569 158.262C165.363 157.469 161.006 156.653 156.219 155.617C153.802 155.25 151.582 154.604 149.189 154.086C146.667 153.394 143.843 152.656 141.147 152.092C138.452 151.528 135.756 150.964 133.06 150.401C130.341 149.988 127.495 149.401 124.625 148.965C106.395 145.888 91.3279 144.373 79.5833 143.362C69.372 142.429 61.4263 141.841 56.4516 140.004C61.4034 141.992 69.1292 143.01 79.3998 144.57C91.4828 146.405 106.994 149.069 125.644 153.446C131.489 154.643 136.985 156.096 142.354 157.375C145.027 158.089 147.549 158.781 150.093 159.322C152.789 159.886 155.462 160.601 157.878 160.968C167.522 162.587 175.573 163.5 182.392 164.381C189.235 165.111 194.567 165.612 198.215 166.012C199.899 166.113 201.259 166.319 202.188 166.306C205.272 169.401 208.333 172.647 211.417 175.742C215.141 179.707 218.994 183.846 222.718 187.811C221.556 187.326 219.684 186.423 217.08 185.255C212.755 183.208 206.211 180.514 198.179 177.441C194.088 175.892 189.671 174.449 184.953 172.96C182.582 172.291 180.06 171.599 177.538 170.907C174.994 170.366 172.449 169.825 169.753 169.261C164.513 168.156 159.098 167.18 153.382 166.157C147.817 165.157 141.844 163.787 135.569 162.371C115.513 158.089 98.4557 154.417 85.1644 152.399C71.8961 150.229 62.266 149.54 56.6049 147.135C62.289 149.389 71.6762 150.66 84.935 153.909C98.3908 156.88 115.718 161.829 136.428 167.909C142.808 169.651 149.014 171.52 155.183 172.611C161.051 173.657 166.616 174.657 171.706 175.738C174.273 176.128 176.818 176.669 179.235 177.036C181.628 177.554 184.022 178.072 186.242 178.718C190.727 179.708 195.061 180.676 198.896 181.876C211.679 185.208 220.151 187.421 222.824 188.136C223.894 189.226 224.942 190.467 226.013 191.556C230.913 196.936 235.813 202.316 240.691 207.847C241.098 208.217 241.482 208.739 241.89 209.11C240.727 208.625 238.855 207.722 236.228 206.705C231.579 204.763 224.883 202.047 216.503 199.229C208.147 196.26 198 192.865 186.879 189.786C181.231 188.31 175.432 186.812 169.309 185.418C163.336 184.048 156.956 182.306 150.274 180.519C128.869 174.951 110.648 170.793 96.3457 168.313C89.4209 167.106 83.2284 166.166 77.5119 165.144C74.7932 164.731 72.3995 164.213 70.1569 163.718C69.1226 163.406 68.2393 163.117 67.2049 162.806C68.0882 163.095 68.8205 163.36 69.7038 163.649C71.9464 164.144 74.3171 164.813 77.0129 165.377C82.4044 166.505 88.6791 167.921 95.9882 169.649C110.584 173.256 128.922 178.668 150.982 186.035C157.769 188.147 164.382 190.387 170.634 191.955C176.758 193.348 182.707 194.87 188.204 196.323C199.522 199.123 209.33 201.694 217.372 203.688C230.351 206.74 239.148 208.849 242.146 209.458C246.488 214.444 250.679 219.407 255.021 224.393C258.187 227.964 261.202 231.512 264.043 235.189C260.359 234.011 252.062 231.67 240.72 229.02C232.807 227.201 223.361 225.303 212.916 223.871C207.63 223.068 202.169 222.394 196.535 221.847C193.643 221.563 190.901 221.301 187.903 220.691C184.905 220.081 181.885 219.623 178.736 218.99C158.309 215.116 140.881 211.851 126.752 209.242C119.676 208.013 113.227 206.725 107.534 205.551C101.863 204.226 96.9248 203.168 92.948 200.864L92.5178 200.644C96.4717 203.099 101.41 204.158 107.163 205.958C112.962 207.457 119.515 209.07 126.651 210.926C141.223 214.684 159.049 219.4 180.13 225.073C183.407 225.88 186.533 226.664 189.659 227.447C192.784 228.231 195.956 228.713 198.849 228.998C204.611 229.718 210.094 230.242 215.253 230.87C225.592 231.977 234.7 233.051 242.321 233.745C249.919 234.589 255.878 235.031 260.002 235.348C261.988 235.495 263.521 235.573 264.579 235.734C266.011 237.496 267.443 239.259 269.049 240.894C270.097 242.134 271.167 243.224 272.215 244.465C271.286 244.478 269.451 244.354 266.558 244.069C262.434 243.752 256.649 243.183 249.33 242.535C234.995 241.285 214.875 239.466 190.781 237.353C157.731 234.188 131.991 227.653 114.847 221.496C117.021 222.444 119.369 223.264 121.845 224.258C127.447 226.036 133.817 228.857 140.929 230.864C155.213 235.506 172.609 240.002 192.605 243.656C217.284 248.022 237.46 248.458 251.21 247.456C258.085 246.955 263.577 246.398 267.235 245.717C269.94 245.201 271.542 244.826 272.343 244.639C275.638 248.384 278.804 251.955 282.272 255.572C281.192 255.563 279.81 255.507 277.951 255.534C274.106 255.414 268.426 255.169 261.492 255.044C257.972 254.818 253.977 254.675 249.83 254.509C245.683 254.343 241.362 254.305 236.867 254.395C227.75 254.401 217.68 254.572 206.96 254.953C202.616 255.066 198.47 254.899 194.428 255.058C190.281 254.892 186.285 254.749 182.464 254.478C174.797 254.086 167.803 253.333 161.286 252.498C148.448 250.549 137.175 247.446 129.51 241.956L129.08 241.736C136.745 247.226 147.903 251.084 161.313 254.356C168.018 255.993 175.547 257.29 183.529 258.657C187.607 259.276 191.685 259.895 196.088 260.409C200.363 260.75 204.917 261.287 209.494 261.673C220.831 262.312 230.878 262.293 239.913 261.811C249.484 261.873 257.636 261.102 264.104 260.23C270.572 259.358 275.529 258.257 278.907 257.379C280.509 257.004 281.809 256.584 282.784 256.268C283.064 256.465 283.169 256.79 283.448 256.987C286.427 259.757 289.254 262.504 292.082 265.251C291.281 265.439 290.329 265.603 289.203 265.896C285.697 266.6 280.611 267.527 274.12 268.55C267.479 269.55 259.931 270.413 250.895 270.895C246.378 271.136 241.558 271.332 236.459 271.33C233.823 271.393 231.209 271.305 228.573 271.369C225.936 271.432 223.579 271.692 220.942 271.755C204.428 272.647 189.525 272.084 176.884 269.855C164.091 267.603 153.281 263.49 145.502 258.754L145.072 258.534C152.874 263.119 163.546 268.139 176.933 271.562C183.615 273.349 190.819 274.752 198.522 275.922C202.449 276.518 206.399 276.964 210.674 277.304C212.812 277.474 214.798 277.621 217.086 277.814C218.144 277.975 219.247 277.833 220.455 278.016C221.663 278.2 222.872 278.383 224.08 278.567C236.36 280.123 246.755 279.847 255.429 278.692C264.277 277.408 271.729 275.14 277.451 273.074C283.196 270.855 287.385 268.71 290.251 267.137C291.272 266.519 292.119 266.03 292.792 265.668C294.677 267.5 296.585 269.18 298.493 270.861C298.9 271.231 299.458 271.625 299.866 271.996C299.042 272.334 297.87 272.929 296.222 273.606C294.725 274.306 292.903 275.111 290.907 276.044C288.76 276.954 286.462 277.841 283.816 278.985C278.396 281.098 271.873 283.352 264.247 285.748C260.369 286.859 256.341 287.947 251.837 289.117C249.585 289.702 247.356 290.136 244.975 290.548C242.595 290.959 240.366 291.393 237.835 291.781C229.939 292.9 222.309 293.286 214.665 292.744C210.843 292.472 207.195 292.073 203.419 291.5C200.202 291.32 197.112 291.315 194.219 291.03C182.498 289.868 172.539 287.274 164.96 284.269L164.658 284.223C172.086 287.205 182.232 290.6 194.374 293.062C195.885 293.291 197.523 293.695 199.034 293.924C199.789 294.039 200.823 294.35 201.706 294.639C202.741 294.951 203.624 295.239 204.681 295.4C208.691 296.472 212.723 297.394 216.801 298.013C225.085 299.425 233.333 300.06 242.391 299.426C264.247 297.955 278.1 290.169 287.275 283.682C294.385 278.581 298.441 274.252 299.774 272.6C301.833 274.304 303.764 275.833 305.823 277.536C308.404 278.855 310.848 281.081 313.662 282.899C316.325 284.694 318.966 286.64 321.478 288.412C322.723 289.374 323.99 290.184 325.386 291.169C326.654 291.979 328.072 292.813 329.34 293.623C334.584 296.738 339.655 299.98 344.863 302.316C347.444 303.635 349.874 304.931 352.478 306.099C354.931 307.244 357.558 308.261 360.034 309.255C379.644 317.487 397.027 321.053 408.876 322.389C414.813 322.982 419.564 323.24 422.653 323.245C425.743 323.251 427.299 323.178 427.299 323.178C428.379 323.187 429.574 322.442 429.236 321.618C429.13 321.293 428.723 320.922 428.142 320.679C427.712 320.459 427.259 320.39 426.655 320.299C426.655 320.299 426.33 320.404 425.551 320.44C424.773 320.477 423.693 320.467 422.137 320.54C420.581 320.613 418.745 320.488 416.457 320.295C414.168 320.102 411.578 319.864 408.662 319.73C396.963 318.417 379.86 315.047 360.529 307.013C358.053 306.019 355.577 305.025 353.124 303.879C350.671 302.734 348.241 301.438 345.66 300.119C342.626 298.731 339.486 297.018 336.521 295.177C337.02 294.944 337.519 294.711 338.192 294.35C340.861 293.055 344.248 291.097 348.273 288C356.17 281.782 365.291 271.578 371.896 257.592C373.238 254.86 374.58 252.128 375.748 249.524C376.916 246.92 377.782 244.27 378.753 241.946C380.59 236.971 382.638 232.646 384.012 228.683C386.784 220.605 389.175 214.015 391.42 209.411L391.465 209.109C389.349 213.887 386.4 220.083 382.593 227.849C380.766 231.744 378.16 235.675 375.614 240.233C374.341 242.512 373.067 244.791 371.446 247.326C369.848 249.71 368.099 252.071 366.327 254.584C357.942 267.063 349.727 277.404 343.829 284.698C340.817 288.258 338.348 291.283 336.517 293.168C335.972 293.703 335.601 294.111 335.23 294.518C333.533 293.488 331.835 292.457 329.986 291.404C328.718 290.593 327.277 289.911 326.009 289.1C324.742 288.29 323.497 287.328 322.229 286.517C320.275 285.139 318.321 283.761 316.216 282.359C318.469 281.774 324.145 280.009 330.815 275.769C335.095 273.019 339.688 269.235 344.138 264.348C348.612 259.31 352.642 253.124 356.054 245.916C361.537 234.232 364.57 223.413 366.656 214.767C367.472 210.41 368.544 206.401 369.246 202.799C369.796 199.174 370.406 196.176 371.098 193.654L371.144 193.352C370.429 196.025 369.819 199.023 368.989 202.451C368.009 205.856 366.634 209.819 365.214 214.085C362.117 222.268 357.839 232.125 351.006 242.522C342.704 255.477 333.78 265.402 327.022 272.257C321.573 277.61 317.503 281.01 315.937 282.163C315.53 281.792 314.949 281.549 314.542 281.178C311.878 279.383 309.412 277.309 306.794 275.211C305.829 274.447 304.863 273.682 303.921 272.766C308.572 269.61 314.08 264.883 320.06 258.065C326.26 250.817 332.675 241.129 338.319 228.389C341.8 220.728 344.421 212.627 346.277 205.492C348.156 198.206 349.247 192.036 350.27 186.32C350.476 184.96 350.833 183.624 351.017 182.416C351.2 181.207 351.384 179.999 351.393 178.919C351.563 176.781 351.839 174.969 352.068 173.458C352.353 170.566 352.582 169.055 352.326 168.707C352.326 168.707 352.385 169.335 351.991 169.893C351.726 170.625 351.263 171.636 350.755 172.95C350.246 174.263 349.669 176.03 349.069 177.948C348.757 178.982 348.445 180.016 348.111 181.202C347.625 182.364 347.291 183.549 346.805 184.712C345.096 189.861 343.076 196.044 340.835 202.657C338.572 209.421 336.043 216.918 333.12 224.972C330.729 231.563 328.452 237.398 325.965 242.583C323.478 247.768 321.083 252.349 318.477 256.28C313.613 263.885 308.746 269.482 303.944 272.615C302.292 271.283 300.768 270.124 299.116 268.792C298.151 268.027 297.359 267.134 296.394 266.37C297.936 265.368 302.483 261.886 308.009 254.999C311.288 250.707 314.878 245.38 318.199 238.777C319.935 235.486 321.414 231.848 323.091 227.931C323.842 226.036 324.465 223.967 325.239 221.921C325.863 219.853 326.637 217.807 327.132 215.564C327.961 212.136 328.965 208.58 329.794 205.152C330.624 201.724 331.28 198.424 331.889 195.427C332.499 192.429 332.981 189.257 333.394 186.538C333.508 185.783 333.751 185.202 333.587 184.25C333.573 183.321 333.409 182.369 333.372 181.59C333.172 179.86 332.994 177.979 332.793 176.249C332.67 172.985 331.664 169.433 331.066 166.252C330.467 163.07 329.846 160.04 329.201 157.161C328.488 154.735 327.903 152.483 327.295 150.382C328.982 157.592 330.357 165.835 330.688 174.847C330.81 178.111 330.782 181.352 330.579 184.72L330.491 187.334C330.377 188.089 330.134 188.67 330.019 189.425C329.662 190.762 329.281 192.249 328.75 193.714C326.949 199.467 324.755 205.778 322.061 212.322C321.287 214.368 320.362 216.391 319.46 218.262C318.534 220.285 317.934 222.203 317.055 223.924C315.273 227.516 313.967 231.026 312.383 234.34C309.515 241.012 306.483 246.732 304.193 251.638C300.213 259.533 297.25 264.8 296.394 266.37C295.579 265.628 294.916 264.909 294.101 264.167L294.275 264.039L294.124 264.016C291.832 261.814 289.539 259.612 287.247 257.409C288.717 254.851 290.256 251.84 292.188 248.27C294.121 244.701 296.123 240.678 298.669 236.12C303.309 226.935 308.919 215.426 314.247 201.71C314.49 201.129 314.71 200.698 314.801 200.094L315.228 198.305C315.562 197.119 315.769 195.76 315.952 194.552C316.342 191.984 316.709 189.568 317.099 187C317.705 181.993 317.857 176.917 317.964 172.143C317.899 162.398 316.835 153.12 315.135 144.981C314.198 140.976 313.518 137.319 312.617 134.091C311.565 130.841 310.619 127.916 309.731 125.618C308.108 121.045 307.116 118.422 307.116 118.422C307.116 118.422 307.527 120.802 308.139 124.913C308.445 126.968 308.833 129.499 309.304 132.507C309.646 135.34 309.919 138.626 310.124 142.366C311.314 156.917 310.864 176.164 308.024 196.902C307.703 199.016 307.405 200.98 307.106 202.943C306.657 204.884 306.487 207.021 305.956 208.486C304.847 211.717 303.889 214.971 302.978 217.923C300.98 223.955 299.051 229.534 297.214 234.509C293.517 244.609 290.535 252.037 287.572 257.304L287.549 257.455C286.606 256.539 285.792 255.798 284.849 254.882C280.031 249.978 275.433 244.644 270.661 239.439C265.934 233.931 261.359 228.446 256.632 222.938C254.665 220.631 252.698 218.323 250.579 215.993C250.868 215.109 251.422 213.494 251.94 211.1C252.816 207.37 253.989 201.676 254.532 194.033C255.745 178.92 254.911 155.924 246.503 126.833C239.384 103.501 230.122 83.089 220.506 66.0224C210.891 48.9557 200.771 35.2118 192.887 25.0526L192.503 24.5307C200.514 34.8639 209.728 48.4701 218.158 65.2023C226.589 81.9344 234.235 101.793 239.784 124.268C246.412 151.852 249.059 175.123 250.02 191.184C250.835 204.133 250.608 212.752 250.497 215.517C247.715 212.467 245.107 209.29 242.325 206.241C238.903 202.321 235.458 198.553 232.012 194.785C232.091 193.252 232.853 185.178 232.258 171.799C231.848 164.32 230.936 155.065 229.022 144.267C226.933 133.597 223.331 120.688 217.078 106.913C207.162 84.7018 195.813 65.8266 184.283 50.1691C178.519 42.3403 172.64 35.2667 166.774 29.1223C163.992 26.0731 160.885 23.1289 157.883 20.5098C156.254 19.0263 154.602 17.6938 152.799 16.3384C154.323 17.4969 155.824 18.8064 157.325 20.116C160.176 22.7122 163.282 25.6563 165.913 28.6826C171.454 34.9322 176.729 41.9141 181.89 49.6511C192.211 65.1251 201.876 83.8991 210.35 105.428C215.72 118.914 219.181 130.72 221.722 141.458C224.263 152.197 226.059 161.741 227.631 169.706C229.052 177.647 230.249 184.01 230.966 188.446C231.542 191.778 231.976 194.007 232.012 194.785C230.557 193.174 229.079 191.713 227.624 190.101C224.586 186.704 221.525 183.458 218.464 180.212C218.424 177.424 218.142 170.119 216.297 158.868C214.004 144.458 209.608 123.549 197.839 98.2745C188.403 77.9902 177.3 60.5431 165.564 46.2449C154.213 32.4687 141.776 21.7724 130.738 14.0701C141.625 21.7495 153.133 32.4591 162.997 45.855C173.524 59.9698 182.989 77.0135 190.983 96.6154C200.729 120.964 207.135 141.87 211.473 157.054C214.852 168.383 217.028 176.44 217.929 179.667C216.195 177.858 214.483 175.899 212.598 174.067C210.457 171.888 208.315 169.709 206.325 167.552C206.138 166.751 205.832 164.696 205.059 161.643C204.145 157.486 202.751 151.403 200.378 143.625C198.005 135.848 194.804 126.4 190.253 115.665C185.401 104.884 179.5 92.8629 171.101 79.9985C157.692 59.4199 143.046 41.8985 127.049 28.1893C124.99 26.4859 123.082 24.8055 121 23.2532C118.918 21.7009 116.836 20.1486 114.754 18.5962C110.74 15.5145 106.182 12.9681 102.078 10.4906C97.8216 7.99006 93.1719 6.04785 88.9753 4.17444C86.4994 3.18039 84.0006 2.33735 81.4788 1.64537C83.6985 2.29148 86.0463 3.11158 88.243 3.90872C92.0229 6.49146 96.3476 8.53883 100.626 10.8883Z" fill="#C4A767" fill-opacity="0.07"/>
<path d="M80.1787 2.0664C79.4464 1.80069 78.5402 1.66306 77.785 1.54839C78.6912 1.686 79.4235 1.95173 80.1787 2.0664Z" fill="#C4A767" fill-opacity="0.07"/>
<path d="M80.911 2.33238C80.609 2.28651 80.4579 2.26357 80.1558 2.2177C80.4579 2.26357 80.76 2.30945 80.911 2.33238Z" fill="#C4A767" fill-opacity="0.07"/>
<path d="M81.6613 17.7434C82.1144 17.8122 82.5446 18.0321 82.8467 18.0779C82.5675 17.881 82.1144 17.8122 81.6613 17.7434Z" fill="#C4A767" fill-opacity="0.07"/>
<path d="M78.9657 17.1798C79.4188 17.2486 79.8719 17.3174 80.4761 17.4091C80.174 17.3632 79.8719 17.3174 79.5699 17.2715L78.9657 17.1798Z" fill="#C4A767" fill-opacity="0.07"/>
<path d="M83.9034 18.2379C83.6013 18.192 83.2992 18.1461 83.0201 17.9492C83.3221 17.9951 83.7752 18.0639 84.0544 18.2608L83.9034 18.2379Z" fill="#C4A767" fill-opacity="0.07"/>
<path d="M98.1913 24.8889C101.308 26.7528 104.575 28.6397 107.472 30.9337C110.519 33.2508 113.567 35.5678 116.569 38.1869C119.419 40.783 122.398 43.5532 125.203 46.4514C127.985 49.5007 130.616 52.527 133.224 55.7044C135.658 59.0099 138.069 62.4664 140.457 66.0739C142.694 69.6586 145.21 73.4401 147.552 77.3497C158.984 96.701 167.822 113.804 174.152 126.045C180.332 138.264 184.133 145.794 184.133 145.794C184.133 145.794 183.63 144.018 182.752 140.64C181.701 137.39 180.123 132.515 177.951 126.468C173.305 114.328 166.024 97.1518 153.081 77.5712C150.437 73.6157 147.921 69.8342 145.231 66.1808C142.692 62.5503 139.827 59.025 137.068 55.8246C131.294 49.0761 125.08 43.1879 118.601 38.0319C112.272 32.8989 105.678 28.4981 99.1205 24.8755C96.004 23.0115 92.5168 21.5549 89.3315 20.1441C87.7389 19.4387 86.1234 18.8843 84.5078 18.3299C84.3568 18.307 84.2054 18.2837 84.0544 18.2608C85.6699 18.8151 87.1348 19.3469 88.7274 20.0523C91.9126 21.4631 95.2259 23.0479 98.1913 24.8889Z" fill="#C4A767" fill-opacity="0.07"/>
<path d="M16.9567 24.6063C18.7099 24.2545 20.5912 24.0766 22.4724 23.8987C20.2891 24.0307 18.2338 24.3367 16.1786 24.6427L16.9567 24.6063Z" fill="#C4A767" fill-opacity="0.07"/>
<path d="M66.6176 40.4909C68.7914 41.4391 70.9423 42.5383 73.2672 43.5094C75.5691 44.6316 77.871 45.7537 80.15 47.0269C89.6369 51.7124 98.2214 58.2697 107.062 65.1748C120.941 76.5535 130.439 87.2671 137.577 96.2315C139.242 98.4931 140.93 100.604 142.468 102.691C143.854 104.756 145.263 106.67 146.521 108.561C148.909 112.168 150.89 115.405 152.313 118.248L152.418 118.573C149.399 113.015 145.424 105.613 139.238 96.4838C133.053 87.355 124.854 76.2207 111.869 64.0504C103.747 56.4818 94.86 49.8787 84.9659 44.8223C75.3968 39.6608 65.5984 36.0096 56.3258 33.9835C53.9321 33.4655 51.6666 33.1215 49.552 32.8004C47.4375 32.4793 45.323 32.1582 43.3365 32.011C39.3637 31.7168 36.018 31.3633 33.0794 31.3806C27.3534 31.4383 24.0899 31.5608 24.0899 31.5608C24.0899 31.5608 26.9825 31.8455 32.3376 32.1951C34.9512 32.2829 38.0771 33.0666 41.702 33.6171C45.3269 34.1675 49.185 35.217 53.4963 36.3352C54.5307 36.6468 55.739 36.8302 56.7733 37.1418C57.8076 37.4534 58.9701 37.939 60.0044 38.2506C62.0731 38.8737 64.2698 39.6708 66.6176 40.4909Z" fill="#C4A767" fill-opacity="0.07"/>
<path d="M118.109 89.1038C119.866 90.7613 121.472 92.3959 122.973 93.7054C124.3 95.1431 125.521 96.2557 126.464 97.1714C128.5 99.0258 129.571 100.116 129.571 100.116C129.571 100.116 128.976 98.9436 127.567 97.0299C126.181 94.9652 124.305 92.0535 121.313 88.3542C115.608 81.1525 106.493 70.9608 91.7352 61.3029C79.7685 53.614 67.4349 48.3417 56.1166 45.5413C44.6472 42.7181 34.3901 42.0877 26.4807 42.2773L26.1787 42.2314C30.0464 42.2007 34.6921 42.1335 39.3514 42.9955C41.768 43.3625 44.3586 43.6014 46.8803 44.2933C49.4021 44.9853 52.0978 45.5492 54.7477 46.4151C65.3701 49.7278 76.7287 55.3157 87.4183 63.2742C100.794 72.8768 110.952 82.2999 118.109 89.1038Z" fill="#C4A767" fill-opacity="0.07"/>
<path d="M95.1121 77.7309C98.3566 79.7687 100.823 81.843 102.649 83.0474C104.475 84.2517 105.44 85.0164 105.44 85.0164C105.44 85.0164 103.308 81.7568 98.2112 76.6562C92.94 71.6838 84.5752 64.6963 71.5094 59.1583C68.7314 58.1184 66.2555 57.1244 63.6056 56.2584C60.9328 55.5435 58.434 54.7005 55.8893 54.1596C53.3445 53.6186 50.7769 53.2287 48.5114 52.8847C46.1177 52.3667 43.8292 52.1737 41.5407 51.9807C39.2522 51.7878 37.1147 51.6177 35.1054 51.6216C33.0731 51.7766 31.0637 51.7805 29.2054 51.8073C25.4887 51.8611 22.3075 52.4596 19.497 52.6509L19.195 52.6051C22.0283 52.2627 25.1867 51.8152 28.8804 51.9125C30.7387 51.8857 32.5741 52.0099 34.5834 52.0059C36.5928 52.002 38.5334 52.4512 40.6479 52.7723C44.8769 53.4145 49.1882 54.5327 53.9297 55.8708C58.4972 57.337 63.1699 59.1281 67.9018 61.5464C79.5166 67.4821 88.6689 73.353 95.1121 77.7309Z" fill="#C4A767" fill-opacity="0.07"/>
<path d="M20.0736 80.3978L20.2246 80.4208C20.0965 80.2468 20.0736 80.3978 20.0736 80.3978Z" fill="#C4A767" fill-opacity="0.07"/>
<path d="M26.5116 87.8654C27.1387 87.8061 27.6147 87.7239 28.2648 87.5135C27.6147 87.7239 26.9876 87.7831 26.5116 87.8654Z" fill="#C4A767" fill-opacity="0.07"/>
<path d="M25.8615 88.0759C26.0126 88.0989 26.3376 87.9937 26.4886 88.0167C26.3376 87.9937 26.1636 88.1218 26.0125 88.0989L25.8615 88.0759Z" fill="#C4A767" fill-opacity="0.07"/>
<path d="M114.91 98.9708C119.139 99.613 122.485 99.9665 124.751 100.311C127.039 100.504 128.247 100.687 128.247 100.687C128.247 100.687 126.934 100.179 124.458 99.1845C121.982 98.1904 118.449 97.0358 114.01 95.7436C105.131 93.1592 92.5354 90.6285 79.4125 91.5717C68.8209 92.1267 61.4049 95.1726 55.4037 97.0427C52.4327 98.2913 49.4484 98.6107 47.1503 99.4979C45.8732 99.7675 44.7701 99.9091 43.644 100.202C42.5179 100.494 41.5429 100.81 40.7419 100.997L40.5908 100.974C41.5429 100.81 42.5179 100.494 43.47 100.33C44.5732 100.188 45.8274 100.07 47.0815 99.951C48.3357 99.8324 49.6587 99.2607 51.2149 99.188C52.7712 99.1152 54.3733 98.7404 55.9754 98.3656C62.663 97.0633 70.8017 95.3633 81.5578 95.7605C94.7764 96.2225 106.603 97.7094 114.91 98.9708Z" fill="#C4A767" fill-opacity="0.07"/>
<path d="M93.4542 109.001C109.789 111.327 124.197 114.133 134.248 116.123C144.45 118.136 150.34 119.03 150.34 119.03C150.34 119.03 148.747 118.325 145.841 117.111C142.912 116.048 138.67 114.477 133.521 112.768C123.05 109.478 108.198 105.523 92.087 104.776C79.2164 104.058 68.8809 104.961 60.9392 106.382C52.9974 107.803 47.7284 109.939 43.7461 110.725L43.595 110.702C47.5774 109.916 53.0796 108.279 61.2317 107.508C69.5119 106.911 80.291 107.157 93.4542 109.001Z" fill="#C4A767" fill-opacity="0.07"/>
<path d="M148.74 126.513C136.932 122.866 120.268 118.636 102.111 117.115C87.4742 115.819 75.6513 116.342 66.6981 117.3C57.5939 118.236 51.4646 119.932 47.0157 119.72L46.8647 119.697C51.1625 119.886 57.397 118.515 66.8397 118.403C76.1313 118.269 88.3978 118.896 103.479 121.34C122.033 124.312 138.208 127.695 149.792 129.763C161.202 131.96 167.976 133.143 167.976 133.143C167.976 133.143 166.232 132.414 162.873 131.132C159.468 130.151 154.644 128.337 148.74 126.513Z" fill="#C4A767" fill-opacity="0.07"/>
<path d="M56.9541 129.573C56.3499 129.481 55.7458 129.389 55.2927 129.32C55.8968 129.412 56.3499 129.481 56.9541 129.573Z" fill="#C4A767" fill-opacity="0.07"/>
<path d="M57.1051 129.596L56.9541 129.573C57.1051 129.596 57.1051 129.596 57.1051 129.596Z" fill="#C4A767" fill-opacity="0.07"/>
<path d="M54.258 129.009C54.5601 129.055 55.0132 129.124 55.4434 129.343C54.9903 129.275 54.5372 129.206 54.107 128.986L54.258 129.009Z" fill="#C4A767" fill-opacity="0.07"/>
<path d="M54.3464 138.602C54.4975 138.625 54.4975 138.625 54.6256 138.799C54.4745 138.776 54.1954 138.58 54.0444 138.557L54.3464 138.602Z" fill="#C4A767" fill-opacity="0.07"/>
<path d="M56.6276 146.984C56.4766 146.961 56.4766 146.961 56.3256 146.938L56.6276 146.984Z" fill="#C4A767" fill-opacity="0.07"/>
<path d="M65.9146 162.147C65.7636 162.124 65.4844 161.927 65.3334 161.904C65.6125 162.101 65.7636 162.124 65.9146 162.147Z" fill="#C4A767" fill-opacity="0.07"/>
<path d="M66.4956 162.389L66.6466 162.412C66.3446 162.366 66.2165 162.192 66.0654 162.169C66.1935 162.343 66.3446 162.366 66.4956 162.389Z" fill="#C4A767" fill-opacity="0.07"/>
<path d="M64.1938 161.267C64.3448 161.29 64.3448 161.29 64.4729 161.464C64.3448 161.29 64.1938 161.267 63.9146 161.07L64.1938 161.267Z" fill="#C4A767" fill-opacity="0.07"/>
<path d="M160.542 204.484C163.947 205.464 167.398 206.143 170.872 206.671C174.043 207.152 177.064 207.611 180.085 208.07C186.126 208.987 191.843 210.01 197.257 210.986C208.214 213.114 217.986 214.906 226.073 216.598C234.183 218.139 240.632 219.427 245.117 220.417C249.625 221.256 252.019 221.774 252.019 221.774C252.019 221.774 249.392 220.757 244.72 218.966C240.047 217.175 233.306 214.76 224.903 212.094C216.5 209.427 206.413 206.659 195.2 204.184C189.68 202.882 183.79 201.988 177.597 201.047C174.577 200.589 171.533 200.281 168.338 199.95C166.828 199.721 165.597 199.689 163.935 199.436C162.425 199.207 160.786 198.804 159.125 198.551C148.644 196.342 138.708 193.597 129.586 191.594C120.511 189.288 112.272 187.574 104.963 185.846C97.6313 184.269 91.1825 182.981 85.5119 181.656C79.9923 180.354 75.0539 179.295 71.4844 177.363L71.2052 177.166C74.7518 179.25 79.6902 180.309 85.1639 181.912C91.0907 183.585 97.6217 185.349 104.734 187.356C112.125 189.56 120.551 192.076 129.837 195.031C139.297 197.858 149.443 201.253 160.542 204.484Z" fill="#C4A767" fill-opacity="0.07"/>
<path d="M107.269 218.491C107.42 218.514 107.571 218.537 107.699 218.711C107.699 218.711 107.699 218.711 107.548 218.688L107.269 218.491Z" fill="#C4A767" fill-opacity="0.07"/>
<path d="M114.87 221.344C112.243 220.327 109.918 219.356 107.722 218.559C109.895 219.507 112.22 220.478 114.87 221.344Z" fill="#C4A767" fill-opacity="0.07"/>
<path d="M288.075 313.008C292.883 306.785 296.542 301.005 299.611 296.063C305.724 286.329 308.871 279.853 308.871 279.853C308.871 279.853 303.432 284.127 294.98 291.96C290.841 295.812 285.914 300.782 280.571 306.46C278.066 308.707 273.946 310.399 269.419 311.72C265.02 313.215 259.912 314.294 254.501 315.327C245.932 316.807 237.524 317.23 229.359 317.071C225.189 317.056 221.216 316.762 217.266 316.317C213.316 315.872 209.714 315.17 205.961 314.446C198.629 312.869 191.668 310.885 185.403 308.388C184.67 308.122 183.787 307.834 183.078 307.417C182.217 306.977 181.741 307.059 181.137 306.968C179.952 306.633 178.744 306.45 177.709 306.138C175.49 305.492 173.421 304.869 171.352 304.246L171.05 304.2C172.968 304.8 175.014 305.574 177.384 306.243C178.57 306.578 179.755 306.912 180.94 307.247L181.673 307.513C181.975 307.558 182.277 307.604 182.707 307.824C183.567 308.264 184.3 308.53 185.16 308.969C191.832 311.837 199.132 314.645 206.802 317.046C208.72 317.646 210.789 318.269 212.729 318.718C214.821 319.19 216.912 319.663 219.004 320.135C223.361 320.951 227.718 321.767 232.121 322.281C236.524 322.795 241.101 323.181 245.724 323.265C250.498 323.372 255.318 323.177 260.033 322.656C265.85 321.995 271.238 321.113 275.962 319.513C280.814 318.086 285.108 316.266 288.075 313.008Z" fill="#C4A767" fill-opacity="0.07"/>
<path d="M290.503 336.709C303.688 326.195 309.085 312.026 312.004 301.962C314.817 291.573 315.094 284.662 315.094 284.662C315.094 284.662 312.108 290.08 306.956 298.569C301.653 307.035 294.138 318.873 283.103 330.486C278.548 335.048 273.782 338.96 268.851 341.92C263.921 344.88 258.478 347.144 253.218 348.199C250.769 349.064 247.959 349.255 245.45 349.492C242.791 349.706 240.283 349.944 237.948 350.053C232.744 349.726 227.865 349.294 223.787 348.675L223.485 348.629C227.563 349.248 232.419 349.831 238.182 350.552C240.795 350.639 243.409 350.727 246.347 350.71C249.286 350.693 252.352 350.849 255.209 350.356C258.216 349.885 261.223 349.415 264.533 348.99C267.458 348.044 270.534 347.12 273.61 346.197C279.181 344.107 285.064 340.982 290.503 336.709Z" fill="#C4A767" fill-opacity="0.07"/>
<path d="M340.259 300.072C340.259 300.072 337.086 304.689 332.176 312.597C327.267 320.505 320.947 331.598 313.725 344.562C307.972 354.969 301.914 363.32 295.491 368.989C288.916 374.635 281.244 377.333 274.021 378.09L273.696 378.196C280.768 377.415 289.662 375.83 297.934 371.214C306.38 366.471 314.567 359.37 322.063 349.691C331.308 337.652 335.116 324.787 337.595 315.583C339.818 306.031 340.259 300.072 340.259 300.072Z" fill="#C4A767" fill-opacity="0.07"/>
</svg>
