<svg width="121" height="348" viewBox="0 0 121 348" fill="none" xmlns="http://www.w3.org/2000/svg">
<path d="M83.2554 75.1156C85.1491 76.8549 86.9181 78.4931 88.4615 80.1552C86.9418 78.7187 85.1609 76.9676 83.2554 75.1156Z" fill="#C4A767" fill-opacity="0.03"/>
<path d="M88.7229 80.4699C88.5983 80.369 88.5861 80.2561 88.4615 80.1552L88.7229 80.4699Z" fill="#C4A767" fill-opacity="0.03"/>
<path d="M102.941 134.28C100.887 132.102 98.5723 129.608 96.0078 126.914C85.5482 116.383 70.4644 104.173 52.8162 93.6014C38.5635 84.9529 26.2698 79.7473 16.309 76.1206C6.645 73.1468 -1.10754 70.9982 -6.92492 69.9001L-7.16236 69.8111C-1.33311 71.0219 6.2354 72.5058 15.7806 74.3516C18.1076 74.7908 20.7966 75.42 23.5094 76.2747C26.2104 77.0167 29.1606 77.9604 32.2355 79.0051C38.2726 81.1063 45.0576 83.813 52.3887 87.3745C70.4227 96.195 86.3851 110.251 96.7201 122.847C99.2311 126.118 101.606 129.175 103.582 131.704C105.482 134.583 107.12 137.147 108.361 139.183C109.602 141.219 110.581 142.941 111.264 144.009C111.947 145.077 112.243 145.73 112.243 145.73C112.243 145.73 110.789 143.831 107.916 140.37C106.61 138.797 104.894 136.583 102.941 134.28Z" fill="#C4A767" fill-opacity="0.03"/>
<path d="M116.322 181.222L116.495 181.774C116.471 181.548 116.322 181.222 116.299 180.996C116.311 181.109 116.311 181.109 116.322 181.222Z" fill="#C4A767" fill-opacity="0.03"/>
<path d="M112.957 174.164C111.556 171.689 109.941 169.35 108.291 166.673C104.812 161.794 100.823 156.398 96.157 151.073C93.8181 148.355 91.3546 145.535 88.7901 142.84C86.2138 140.033 83.4119 137.249 80.4735 134.251C74.745 128.582 68.2508 123.222 61.2402 118.372C43.7998 106.524 28.4252 99.1345 17.3959 94.0238C6.37839 89.0259 -0.394722 86.432 -0.394722 86.432C-0.394722 86.432 1.20802 86.4913 4.09888 86.8712C6.98976 87.251 11.4062 88.0404 16.8081 89.5243C27.7365 92.5929 43.5087 98.3446 61.5013 112.187C68.7078 117.814 75.1723 123.976 80.9839 130.434C86.6945 137.017 91.77 142.983 96.2816 149.008C100.781 154.92 104.681 160.553 108.196 165.771C110.814 170.057 113.271 173.903 115.064 177.934C115.064 177.934 115.052 177.821 114.939 177.833C114.346 176.527 113.663 175.458 112.957 174.164Z" fill="#C4A767" fill-opacity="0.03"/>
<path d="M116.186 181.008C115.853 180.017 115.408 179.038 114.963 178.058C115.521 179.026 115.966 180.005 116.186 181.008Z" fill="#C4A767" fill-opacity="0.03"/>
<path d="M111.374 255.524C111.409 255.862 111.445 256.201 111.38 256.664C111.344 256.325 111.409 255.862 111.374 255.524Z" fill="#C4A767" fill-opacity="0.03"/>
<path d="M111.433 258.255C111.486 257.679 111.439 257.228 111.38 256.664C111.415 257.002 111.451 257.34 111.374 257.691L111.433 258.255Z" fill="#C4A767" fill-opacity="0.03"/>
<path d="M104.244 271.213C104.197 270.762 104.149 270.311 104.102 269.86C104.161 270.423 104.233 271.1 104.292 271.664L104.244 271.213Z" fill="#C4A767" fill-opacity="0.03"/>
<path d="M92.0411 315.603C92.3201 315.004 92.4744 314.303 92.7534 313.704C92.5753 314.179 92.4982 314.529 92.3201 315.004L92.0411 315.603Z" fill="#C4A767" fill-opacity="0.03"/>
<path d="M92.9731 312.54C92.8959 312.89 92.706 313.253 92.6288 313.603C92.8188 313.241 92.8959 312.89 92.9731 312.54Z" fill="#C4A767" fill-opacity="0.03"/>
<path d="M95.0919 292.589C94.8009 288.743 94.599 284.659 93.9578 280.735C93.3166 276.811 92.6635 272.775 91.4465 268.798C87.2553 252.818 80.0841 236.696 70.123 220.069C64.0086 209.651 57.8349 200.836 52.3201 192.864C46.7162 185.13 41.4448 178.387 37.0936 172.801C29.6198 163.553 24.6334 157.35 23.2028 155.676C23.3987 156.453 23.6955 157.106 23.8914 157.884L23.8795 157.771C23.8795 157.771 23.8795 157.771 23.8914 157.884C26.3372 165.951 28.6466 173.804 30.7303 181.681C32.1017 187.125 33.4493 192.342 34.6841 197.572C36.4769 199.436 39.9733 203.401 44.7579 209.854C48.0882 214.406 51.8993 220.277 55.752 227.626C59.6046 234.975 63.4989 243.801 66.5681 254.54C69.0734 263.171 70.4626 272.033 71.1277 280.516C71.3533 284.825 71.579 289.135 71.2289 293.391C71.1043 297.624 70.5168 301.791 69.9173 305.845C67.6798 320.335 61.8925 333.602 55.274 343.308C61.7678 333.501 66.914 320.644 68.7598 306.765C70.7421 290.934 69.0736 274.004 63.8198 257.68C60.6972 247.517 56.9395 238.904 53.3005 231.419C52.4219 229.573 51.5433 227.727 50.6766 225.994C49.8099 224.26 48.955 222.64 48.1002 221.019C46.4024 217.891 44.8412 214.976 43.3155 212.4C40.3771 207.236 37.7948 203.288 36.1326 200.499C35.5865 199.644 35.1768 199.003 34.7673 198.362C35.9783 203.366 37.0648 208.269 37.9256 213.196C38.923 218.336 39.7838 223.263 40.52 228.089C40.8941 230.559 41.2562 232.915 41.6184 235.272C41.8678 237.64 42.2299 239.997 42.4674 242.253C42.9305 246.651 43.269 250.949 43.4709 255.033C43.4709 255.033 43.4709 255.033 43.4828 255.146C43.7085 259.455 43.7976 263.551 43.7502 267.433C43.6317 274.972 43.3172 281.733 42.421 287.301C42.2014 288.465 42.0827 289.504 41.964 290.543C41.9878 290.768 42.0115 290.994 41.9225 291.231C41.8394 292.608 41.8157 294.549 41.513 297.09C41.3232 299.619 40.6168 302.658 39.7206 306.059C39.2101 307.71 38.6106 309.597 37.8983 311.497C37.1861 313.396 36.1354 315.332 35.2094 317.368C34.4734 319.042 33.4881 320.514 32.4908 321.873C31.5055 323.345 30.7338 324.681 29.7247 325.928C27.7065 328.421 26.0148 330.766 24.05 332.683C20.4707 336.595 17.0991 339.231 14.9443 341.51L14.8434 341.635C16.9982 339.355 20.1323 336.631 23.1121 332.44C26.2285 328.462 29.3151 323.12 32.0811 316.899C35.4823 309.129 37.4885 302.189 39.2455 297.215C40.0112 294.739 40.5988 292.739 41.133 291.314C41.5544 289.901 41.8215 289.189 41.8215 289.189C41.8215 289.189 41.8572 289.527 41.9284 290.204C42.059 289.278 42.1896 288.352 42.3201 287.426C42.8009 284.411 43.1213 280.956 43.3053 277.287C43.2281 277.637 43.1628 278.101 42.9966 278.688C42.5871 280.214 42.2369 282.303 41.3584 284.79C39.7261 289.866 36.8057 296.787 32.1223 303.21C30.116 305.816 28.4243 308.161 26.4595 310.078C25.5395 311.088 24.7203 311.972 23.8002 312.981C22.8683 313.878 22.0373 314.649 21.2062 315.421C19.6688 317.065 18.0839 318.259 16.8493 319.529C16.2319 320.164 15.6146 320.799 15.11 321.423C14.5936 321.933 14.2018 322.545 13.911 323.031C14.2018 322.545 14.4927 322.058 14.8963 321.559C15.4009 320.936 15.8936 320.2 16.5109 319.565C17.7337 318.181 19.1702 316.662 20.5711 314.804C21.2774 313.931 22.0847 312.934 22.892 311.937C23.5746 310.838 24.37 309.728 25.1654 308.618C26.0736 307.496 26.7325 306.173 27.516 304.95C28.2877 303.614 29.2849 302.255 29.9319 300.818C34.081 293.653 37.0726 287.408 39.4885 283.277C41.2871 279.78 42.7651 277.572 43.145 276.848C43.2992 273.981 43.3288 271.013 43.3347 267.819C43.4177 264.275 43.2633 260.643 43.0851 256.784C43.0198 257.247 42.9545 257.71 42.9011 258.286C42.64 260.138 42.0227 262.94 41.2274 266.217C39.5239 272.782 36.5917 281.757 31.3563 290.519C27.1953 297.571 22.9571 302.807 19.2649 306.731C16.3148 310.12 13.4833 312.471 11.5542 314.727C13.4833 312.471 15.9289 309.705 18.5051 306.012C21.7876 301.448 25.6162 295.571 29.1421 287.901C33.5048 278.433 36.8585 270.212 39.3218 264.365C40.6158 261.491 41.5181 259.23 42.266 257.669C42.634 256.832 42.913 256.232 43.1029 255.87C42.8891 251.673 42.5388 247.263 41.9391 242.65C41.7016 240.395 41.3394 238.038 41.0901 235.67C40.7279 233.313 40.3658 230.956 39.9917 228.487C39.2556 223.661 38.3828 218.621 37.3973 213.593C36.2634 208.239 35.1057 202.659 33.7225 197.103C33.4494 196.676 33.3248 196.575 33.3248 196.575C33.3248 196.575 33.4494 196.676 33.5859 196.889C32.3867 191.998 31.1875 187.107 29.8637 182.115C29.4956 180.785 29.1156 179.343 28.7476 178.013C28.6526 179.277 27.8396 185.635 26.1183 195.281C24.0528 205.99 20.5747 220.61 14.6271 235.605C9.84886 247.626 5.02308 257.028 0.862068 264.081C-1.27483 267.613 -3.12087 270.658 -4.67606 273.216C-5.06782 273.828 -5.44771 274.552 -5.72669 275.151C-6.11845 275.763 -6.40931 276.25 -6.68829 276.849C-6.89011 277.099 -6.96727 277.449 -7.0563 277.686C-6.96727 277.449 -6.87823 277.211 -6.7892 276.974C-6.21936 275.888 -5.54861 274.677 -4.90162 273.24C-3.47109 270.581 -1.76159 267.322 0.125984 263.588C3.77648 256.019 7.94334 245.774 12.0745 233.023C17.1376 217.209 21.1263 203.105 24.2009 193.316C26.9076 184.365 28.7179 178.814 28.9732 177.989C27.3168 172.006 25.5478 166.034 23.654 159.961C23.0367 162.763 21.6122 168.729 19.2617 176.731C18.4189 179.557 17.487 182.62 16.4779 186.033C15.457 189.333 14.3471 192.871 13.1481 196.647C12.4358 198.546 12.0619 200.41 11.4624 202.298C10.9994 204.399 10.4355 206.625 9.75888 208.863C9.07035 210.988 8.49459 213.101 7.81794 215.339C7.12941 217.465 6.33997 219.714 5.66331 221.952C0.784218 236.264 -4.06527 247.608 -7.91162 256.566C-11.2 264.324 -13.8889 270.195 -14.4646 274.475C-13.8889 270.195 -11.663 264.259 -8.8614 256.21C-5.51369 246.848 -1.43591 234.673 2.78426 219.518C4.11382 214.817 5.24156 210.365 6.49397 206.014C7.06971 203.901 7.53268 201.799 8.10842 199.686C8.79696 197.561 9.23617 195.234 9.96032 193.447C12.5839 185.873 15.0116 179.687 17.0831 174.452C19.1547 169.216 20.8939 165.156 22.0869 162.407C22.633 161.095 23.1019 160.134 23.369 159.421C22.3242 155.996 21.2794 152.571 20.1218 149.158C18.7564 144.854 17.2782 140.563 15.8 136.271C15.7941 137.298 15.6339 139.025 15.4083 141.216C15.1354 145.121 14.6013 150.879 13.622 157.825C13.1888 161.291 12.4409 165.019 11.6159 169.097C11.1411 171.086 10.6781 173.187 10.2151 175.289C9.6275 177.289 9.05176 179.402 8.36323 181.528C7.08707 185.653 5.72189 190.016 4.14301 194.516C2.77782 198.879 1.35921 203.818 -0.0593796 208.756C-4.74847 224.873 -8.78465 238.526 -12.6013 248.849C-16.1805 259.261 -19.5283 266.456 -20.0327 271.412C-19.5283 266.456 -16.7563 259.207 -13.7885 248.404C-10.708 237.588 -7.5444 223.229 -3.7873 205.842C-2.52899 200.464 -1.47249 195.335 0.0707703 190.497C1.63778 185.885 2.99108 181.409 4.27911 177.396C4.97952 175.384 5.56714 173.383 6.27942 171.484C6.86704 169.483 7.35375 167.607 7.84046 165.732C8.82576 162.093 9.83481 158.68 10.5174 155.415C13.0578 144.884 14.8384 137.969 15.4023 135.742C14.9333 134.537 14.5771 133.321 14.1081 132.116C12.1491 126.506 10.1782 120.784 8.10635 115.186C7.94607 114.747 7.78577 114.308 7.62549 113.868C7.5068 114.907 7.34656 116.634 7.12104 118.825C6.63438 122.867 5.99937 128.75 4.81828 135.945C3.74995 143.127 2.26022 151.723 0.0403595 160.965C-1.06364 165.643 -2.26853 170.445 -3.68713 175.384C-5.11761 180.21 -6.26314 185.576 -7.63423 190.966C-11.9315 208.638 -16.0983 223.217 -19.9327 234.454C-21.7668 239.779 -23.5238 244.753 -25.1026 249.253C-25.7912 251.378 -26.3788 253.379 -26.9902 255.153C-27.2454 255.979 -27.3878 256.792 -27.5303 257.605C-27.4887 256.916 -27.3344 256.216 -27.192 255.403C-26.6934 253.64 -26.2186 251.651 -25.5419 249.413C-24.2776 245.175 -22.77 239.999 -21.2327 234.021C-18.1462 222.178 -14.864 206.78 -11.5758 188.188C-10.4659 182.484 -9.46882 176.791 -8.0621 171.739C-6.76816 166.7 -5.45048 161.885 -4.32274 157.433C-1.97822 148.292 0.134827 140.201 1.82644 133.523C4.59239 122.968 6.58673 115.916 7.35242 113.441C5.45275 108.395 3.55309 103.35 1.6653 98.4168C0.371147 94.7899 -1.14857 91.1868 -2.54363 87.6845C-3.12529 90.8247 -4.57945 97.5919 -7.13766 106.87C-8.97769 113.222 -11.2629 120.761 -14.2901 128.834C-15.8037 132.87 -17.4063 137.144 -19.2345 141.442C-20.2614 143.603 -21.0746 145.627 -21.8403 148.102C-22.6179 150.465 -23.3835 152.94 -24.262 155.427C-29.4023 171.591 -33.7649 185.393 -37.5993 196.63C-39.5106 202.305 -41.0301 207.368 -42.3834 211.844C-43.6121 216.421 -44.9001 220.434 -44.7338 224.179L-44.6982 224.518C-44.9773 220.784 -43.8139 216.67 -42.8227 212.005C-41.6178 207.202 -40.3476 201.937 -38.7984 196.072C-35.7239 184.117 -32.3585 169.508 -28.1502 152.074C-27.5211 149.385 -26.88 146.808 -26.1262 144.22C-25.3724 141.632 -24.4939 139.145 -23.6926 137.008C-21.8763 132.597 -20.2618 128.436 -18.6235 124.5C-15.4598 116.641 -12.5513 109.607 -10.1889 103.884C-7.82647 98.1618 -5.79646 93.6147 -4.52621 90.5161C-3.87921 89.0795 -3.32124 87.8805 -2.95323 87.0435C-3.59437 85.2864 -4.3483 83.5412 -4.98943 81.7841C-5.45841 80.5791 -5.92739 79.3741 -6.28358 78.1573C-6.56256 78.7568 -7.20956 80.1933 -8.23645 82.3541C-9.61948 85.4646 -11.5486 89.887 -13.9466 95.2711C-18.6299 106.027 -25.2304 121.319 -33.0241 139.359C-43.6253 164.308 -49.0444 185.405 -51.2581 200.121C-51.0089 198.156 -50.8724 196.203 -50.5341 194.001C-49.6675 189.234 -49.1216 183.589 -47.8098 177.635C-45.5485 165.537 -42.0347 151.255 -36.847 135.542C-30.3356 116.155 -22.7615 101.445 -16.8079 91.9232C-13.7747 87.1565 -11.1985 83.4642 -9.28122 81.0957C-7.86848 79.3504 -6.94843 78.3413 -6.53291 77.9554C-7.96359 74.1148 -9.26962 70.3751 -10.4629 66.6236C-10.8428 67.3478 -11.4126 68.4341 -12.0714 69.7579C-13.4782 72.6428 -15.5557 76.7388 -18.1022 81.7963C-19.4199 84.4439 -20.8267 87.3288 -22.3225 90.4512C-23.8183 93.5736 -25.4388 96.5951 -27.2611 99.866C-30.7929 106.396 -34.942 113.561 -39.3939 121.1C-41.2399 124.145 -42.7358 127.267 -44.2672 130.051C-45.7749 133.061 -47.1817 135.946 -48.4756 138.819C-51.1883 144.464 -53.3608 149.825 -55.2186 154.924C-58.8334 164.997 -60.9405 174.228 -60.0202 181.885L-59.9846 182.224C-60.9049 174.566 -59.4092 164.944 -56.4415 154.14C-54.9695 148.625 -53.0701 142.838 -50.8798 136.563C-49.7223 133.477 -48.5886 130.164 -47.3421 126.84C-45.971 123.617 -44.5108 120.156 -43.0506 116.695C-39.133 108.414 -35.1204 101.036 -31.3393 94.7076C-27.6294 87.703 -23.9789 82.301 -20.7854 77.9736C-17.5919 73.6461 -14.8436 70.5059 -13.0034 68.4876C-12.0834 67.4784 -11.2523 66.7067 -10.7359 66.1962C-10.7597 65.9706 -10.8962 65.7569 -10.9318 65.4186C-11.7273 62.1953 -12.6238 59.0967 -13.5202 55.9981C-13.9238 56.4967 -14.4284 57.12 -15.0338 57.868C-16.8502 60.1119 -19.5867 63.3649 -22.7802 67.6924C-26.0864 72.0317 -29.648 77.1962 -33.5537 83.4232C-35.5007 86.5931 -37.5485 89.8877 -39.5608 93.5206C-40.6233 95.343 -41.5611 97.2663 -42.6118 99.2015C-43.6743 101.024 -44.7487 102.734 -45.924 104.568C-53.0292 116.149 -58.3892 126.977 -61.7784 137.027C-64.2416 147.207 -65.5355 156.58 -65.2147 163.959L-65.1791 164.297C-65.4998 156.918 -64.8055 147.266 -62.188 136.385C-60.9416 130.895 -59.0422 125.107 -56.941 119.07C-55.7716 116.096 -54.6142 113.009 -53.243 109.786C-52.6079 108.236 -51.86 106.675 -51.124 105.001C-50.7559 104.164 -50.3761 103.44 -50.0199 102.49C-49.6638 101.54 -49.3076 100.591 -48.9515 99.6409C-45.2654 90.244 -41.0273 82.8417 -36.8484 77.042C-32.4559 71.1059 -28.0099 66.7605 -24.2584 63.4006C-20.495 60.1535 -17.3133 57.8799 -15.0636 56.5027C-14.2088 55.9566 -13.5677 55.547 -13.0275 55.262C-13.5796 53.2675 -14.1436 51.1602 -14.5829 49.1538C-14.6304 48.7027 -14.8026 48.1506 -14.8501 47.6995C-15.3784 48.0972 -16.2213 48.7562 -17.3788 49.6763C-18.4354 50.4717 -19.6938 51.5165 -21.1778 52.585C-22.6499 53.7664 -24.2229 55.0723 -26.0097 56.5148C-29.5593 59.6254 -33.8392 63.383 -38.487 67.9777C-40.7545 70.2691 -43.2238 72.8098 -45.6694 75.576C-46.8922 76.9592 -48.1031 78.4551 -49.4269 79.9629C-50.6378 81.4588 -51.8487 82.9547 -53.0477 84.5634C-56.9476 89.7635 -60.1351 95.2307 -62.8597 100.763C-64.1655 103.523 -65.3467 106.385 -66.2905 109.335C-67.4064 111.733 -68.5461 113.906 -69.4483 116.167C-73.1938 125 -75.1821 133.192 -75.9715 139.775L-76.0486 140.126C-75.3721 133.554 -73.8705 125.072 -70.7958 115.283C-70.3506 114.096 -70.0301 112.808 -69.585 111.62C-69.306 111.021 -69.1635 110.208 -69.0211 109.394C-68.8786 108.581 -68.6234 107.756 -68.481 106.943C-67.6856 103.666 -66.7775 100.377 -65.6319 97.1779C-63.3526 90.6659 -60.6993 84.4568 -56.6808 78.2178C-46.8629 63.1578 -35.9526 56.3073 -27.6125 52.1222C-21.0948 49.0412 -16.4291 47.8658 -14.761 47.4621C-15.2122 45.3429 -15.5388 43.3246 -15.99 41.2055C-16.5005 38.5224 -17.112 35.964 -17.2842 33.2452C-17.5573 30.6512 -17.8305 28.0571 -18.2164 25.475C-18.347 24.2343 -18.4895 22.8809 -18.6201 21.6403C-18.7507 20.3996 -18.7686 19.1471 -18.7864 17.8946C-18.9706 12.8965 -19.2556 8.02295 -19.0658 3.32752C-18.9768 0.923409 -18.8759 -1.36791 -18.8879 -3.64736C-18.787 -5.93868 -18.4487 -8.14097 -18.2232 -10.3314C-16.3953 -27.6291 -12.2701 -41.5196 -8.54839 -50.5781C-6.63116 -55.1133 -5.05819 -58.586 -3.81761 -60.8833C-2.57703 -63.1806 -1.88252 -64.166 -1.88252 -64.166C-1.38985 -64.9021 -0.422287 -65.4601 -0.0364304 -65.0445C0.212891 -64.8427 0.260391 -64.3916 0.195107 -63.9286C0.230728 -63.5902 0.0526581 -63.1153 -0.137283 -62.7532C-0.137283 -62.7532 -0.339104 -62.5039 -0.629959 -62.0171C-0.908943 -61.4176 -1.40162 -60.6815 -1.97146 -59.5952C-2.54129 -58.5089 -3.18828 -57.0723 -4.04897 -55.4993C-4.785 -53.8253 -5.71098 -51.7892 -6.62508 -49.6403C-10.2459 -40.7064 -14.4067 -27.1543 -16.2583 -10.0821C-16.4957 -8.00449 -16.834 -5.8022 -16.9349 -3.51088C-17.0358 -1.21955 -17.1485 0.958984 -17.2375 3.36309C-17.4036 6.11743 -17.3323 8.96081 -17.2491 11.917C-16.9345 11.6558 -16.5071 11.3827 -16.0797 11.1096C-14.1802 9.65525 -11.3903 7.99307 -7.57349 6.33682C-0.0406952 3.14897 10.846 0.406242 23.478 1.24291C25.9949 1.32002 28.399 1.409 30.8031 1.49799C33.1063 1.71162 35.3085 2.04993 37.499 2.27544C41.7789 2.85114 45.6848 3.12411 49.1634 3.67014C56.0195 4.88686 61.6885 5.65841 65.9328 5.89574L66.1584 5.872C61.9022 5.52188 56.2926 5.31425 49.294 4.91077C45.7502 4.82775 41.9036 5.11871 37.683 5.10695C35.5283 5.21979 33.3616 5.21983 30.9812 5.35642C28.7255 5.59393 26.2443 5.85517 23.763 6.11642C11.3685 7.53544 0.837997 9.3284 -6.772 10.6998C-10.5592 11.5547 -13.5806 12.1009 -15.6879 12.6649C-16.24 12.837 -16.8039 12.8964 -17.1304 13.0448C-17.0769 14.6357 -17.0116 16.3393 -16.9462 18.043C-16.9284 19.2955 -16.9106 20.548 -16.7799 21.7886C-16.6493 23.0293 -16.5187 24.2699 -16.3762 25.6233C-16.1743 27.5407 -15.9606 29.5708 -15.7468 31.6009C-14.524 30.2178 -10.9981 26.8816 -5.29361 23.6582C-1.62517 21.6755 2.84464 19.7224 8.18707 18.4757C13.5295 17.229 19.519 16.7124 26.0665 17.1634C36.6327 17.8755 45.5131 19.9054 52.5414 21.6741C55.9666 22.796 59.3561 23.5794 62.1817 24.4223C65.0191 25.3779 67.3817 26.1555 69.4949 26.7313L69.7324 26.8203C67.6191 26.2445 65.1557 25.5916 62.3419 24.8616C59.5401 24.2443 56.1743 23.6864 52.5711 23.0394C45.5131 22.072 36.7752 21.3955 26.6008 22.2387C14.0461 23.2185 3.47401 25.7 -4.16566 27.8728C-10.1373 29.6419 -14.1797 31.3219 -15.5984 31.9274C-15.5509 32.3785 -15.5034 32.8297 -15.444 33.3936C-15.2837 35.9995 -14.6722 38.558 -14.1617 41.2411C-13.942 42.2442 -13.8351 43.2593 -13.6154 44.2625C-9.50774 42.1195 -3.92197 39.9349 3.21313 38.3854C10.7994 36.7884 20.2971 36.0165 31.6765 36.871C38.5743 37.3991 45.4304 38.6158 51.2834 40.0522C57.2492 41.4767 62.099 43.1328 66.5986 44.7117C67.6611 45.0559 68.7237 45.4002 69.6735 45.7563C70.6233 46.1125 71.5731 46.4686 72.4101 46.8366C74.0722 47.4599 75.3959 48.1188 76.5832 48.5639C78.8448 49.4661 80.032 49.9113 80.0558 50.1369C80.0558 50.1369 79.569 49.846 78.9932 49.7926C78.4174 49.7392 77.4914 49.6086 76.3398 49.5018C75.1763 49.2822 73.7873 49.0864 72.048 48.8133C71.2348 48.6709 70.2969 48.4276 69.3708 48.297C68.4448 48.1664 67.406 48.0477 66.3553 47.8162C61.9388 47.0268 56.7091 46.095 51.0164 45.0979C45.3237 44.1008 38.9306 42.9493 31.8725 41.9819C26.1917 41.0976 21.1223 40.605 16.415 40.3024C11.7077 39.9998 7.48715 39.988 3.64059 40.279C-3.82697 40.8371 -9.60866 42.2441 -13.7164 44.3872C-13.4255 46.0671 -13.1464 47.6342 -12.8555 49.3141C-12.6359 50.3173 -12.4281 51.2077 -12.2084 52.2109C-10.9144 51.5044 -6.55735 49.5632 0.500603 48.364C4.76268 47.6871 10.0636 47.129 16.1362 47.4019C19.217 47.4197 22.4581 47.8767 25.7882 48.0962C27.5156 48.2564 29.154 48.6541 31.0061 48.9153C32.7453 49.1883 34.4846 49.4613 36.3723 50.0608C39.186 50.7909 42.1125 51.5091 44.9262 52.2391C47.7399 52.9692 50.3281 53.723 52.8153 54.6015C55.2906 55.3672 57.6651 56.2575 59.8021 57.0588C60.4017 57.3378 60.8647 57.4031 61.4761 57.7949C62.0875 58.1866 62.6989 58.5784 63.3104 58.9702C64.5332 59.7537 65.768 60.65 66.878 61.4454C69.1991 62.9116 71.342 64.8526 73.4612 66.5681C75.4677 68.2954 77.4503 69.7972 79.2193 71.4355C80.739 72.872 82.0212 74.2195 83.4162 75.555C78.881 71.4711 73.5444 67.3576 67.2164 63.5765C64.9073 62.2231 62.4972 60.9944 60.0871 59.7657L58.1638 58.8278C57.5761 58.6616 56.9884 58.4954 56.4126 58.442C55.2492 58.2224 54.0738 57.89 52.9103 57.6704C48.019 56.703 42.6765 55.783 36.9066 55.1361C35.0546 54.875 33.3272 54.7148 31.6117 54.6673C29.8843 54.5071 28.2697 54.335 26.5423 54.1747C23.3368 54.0561 20.2085 53.5872 17.2404 53.5576C11.3697 53.0354 6.12217 53.0177 1.65231 52.8041C-5.66093 52.6618 -10.5701 52.6085 -12.0481 52.6501C-11.8403 53.5405 -11.6444 54.3181 -11.4367 55.2085C-11.3239 55.1967 -11.3239 55.1967 -11.3239 55.1967C-11.3239 55.1967 -11.3239 55.1967 -11.4248 55.3213C-10.8133 57.8798 -10.1009 60.3135 -9.37665 62.8601C-6.98441 62.8363 -4.12917 62.8778 -0.935562 62.8836C2.37083 62.8776 6.14021 62.9369 10.3726 63.0614C18.8375 63.3105 29.1544 63.8208 41.2818 65.2807C41.7448 65.346 42.2078 65.4113 42.6708 65.4766L44.1964 65.8862C45.1343 66.1295 46.1969 66.4738 47.1467 66.8299C49.159 67.5303 51.0585 68.2426 52.9581 68.9549C56.7691 70.4922 60.4911 72.267 63.9993 74.1784C71.0158 78.001 77.3023 82.4707 82.3243 86.8455C84.8412 89.0892 87.2098 91.0065 89.1272 92.9713C91.0564 95.0489 92.7245 96.8119 94.1314 98.2602C96.8442 101.282 98.2749 102.956 98.2749 102.956C98.2749 102.956 96.7908 101.857 94.0602 99.7502C92.6889 98.6402 90.9674 97.453 89.0857 95.8266C87.1149 94.4376 84.9066 92.9595 82.3362 91.2916C72.405 84.6969 58.4195 77.5027 42.3979 71.5492C40.7358 70.926 39.1983 70.4036 37.6609 69.8813C35.8504 68.9316 34.301 68.2964 33.0248 68.0887C30.2348 67.5842 27.5576 67.0678 24.9932 66.5396C19.8763 65.5959 15.1215 64.8421 10.8297 64.1536C2.15713 63.0141 -4.42599 62.2248 -9.32324 62.2843L-9.43603 62.2962C-9.21636 63.2993 -8.8958 64.1779 -8.67614 65.1811C-7.0792 70.6006 -5.03113 75.9727 -3.09584 81.3567C-1.03589 86.8416 1.13683 92.3146 3.20866 97.9122C4.13474 100.209 4.95992 102.631 5.886 104.929C6.58646 105.083 7.97551 105.279 9.97598 105.866C13.0271 106.686 17.5148 108.152 23.2491 110.627C34.6049 115.589 50.9056 125.276 68.3521 142.597C82.3972 156.855 93.3971 171.434 101.898 185.022C110.399 198.609 116.288 211.217 120.615 220.911L120.775 221.35C116.549 211.532 110.268 199.535 101.536 186.998C92.7917 174.349 81.4832 161.171 67.4797 148.391C50.2232 132.875 34.5814 121.863 23.362 114.948C14.3272 109.285 8.18329 106.169 6.02254 105.142C7.1564 108.33 8.40305 111.506 9.52504 114.581C10.9676 118.534 12.2974 122.499 13.74 126.453C14.9272 126.898 20.9108 129.575 30.4086 135.303C35.6503 138.514 41.9129 142.758 48.8939 148.409C55.762 154.072 63.6334 161.682 71.0656 171.619C83.0984 187.343 92.276 203.026 99.1443 217.355C102.522 224.526 105.312 231.531 107.491 238.143C108.637 241.444 109.444 244.78 110.228 247.89C110.643 249.671 111.047 251.339 111.237 253.144C110.958 251.576 110.679 250.009 110.287 248.454C109.503 245.344 108.583 242.02 107.461 238.945C105.194 232.569 102.225 226.04 98.6576 219.231C91.534 205.727 81.8223 191.469 69.6945 177.009C62.1199 167.885 54.9846 160.768 48.1936 154.755C41.4026 148.742 35.3951 143.673 30.1713 139.547C25.0602 135.41 20.9465 132.08 18.0912 129.872C15.8592 128.168 14.4879 127.058 13.9774 126.542C14.4939 128.198 15.1231 129.842 15.6396 131.498C16.8091 135.024 17.9667 138.437 19.1362 141.963C21.0714 143.014 26.2002 146.237 33.7451 151.829C43.1836 159.16 56.5697 170.408 70.1282 188.709C81.0271 203.412 89.1955 218.175 94.9004 232.285C100.32 245.854 103.176 258.896 104.441 269.824C103.188 259.009 100.053 246.567 94.1881 234.184C88.139 221.137 79.6501 207.662 68.5434 194.235C54.8366 177.775 42.1984 164.965 33.1457 155.883C26.2715 149.081 21.4395 144.344 19.4212 142.504C20.086 144.486 20.7509 146.469 21.303 148.463C22.0035 150.784 22.7159 153.218 23.5292 155.527C24.0279 155.931 25.3991 157.041 27.2809 158.667C29.9106 160.899 33.8107 164.366 38.4053 169.014C43.1246 173.762 48.5385 179.692 54.5697 187.154C60.3991 194.865 66.8221 203.881 72.7704 214.887C82.3872 232.576 89.226 249.873 92.8355 266.827C93.2867 268.946 93.726 270.952 94.0644 273.083C94.4028 275.214 94.6285 277.357 94.955 279.375C95.6081 283.412 95.5963 287.633 95.7863 291.604C95.8636 295.587 95.6144 299.718 95.2168 303.523C94.9913 305.714 94.5283 307.815 94.0654 309.917C94.4393 308.053 94.8013 306.076 95.0625 304.224C95.0089 300.466 95.2819 296.56 95.0919 292.589Z" fill="#C4A767" fill-opacity="0.03"/>
<path d="M93.5729 310.653C93.4186 311.353 93.2524 311.941 93.0862 312.528C93.2524 311.941 93.4067 311.24 93.5729 310.653Z" fill="#C4A767" fill-opacity="0.03"/>
<path d="M93.7386 310.065C93.6496 310.302 93.6619 310.415 93.5729 310.653C93.5491 310.427 93.6377 310.189 93.7386 310.065Z" fill="#C4A767" fill-opacity="0.03"/>
<path d="M82.8931 303.452C82.9703 303.102 83.0474 302.752 83.1246 302.402C83.0593 302.865 82.9822 303.215 82.8931 303.452Z" fill="#C4A767" fill-opacity="0.03"/>
<path d="M82.2169 305.69C82.2941 305.34 82.484 304.978 82.5493 304.515C82.4602 304.753 82.3712 304.99 82.395 305.216L82.2169 305.69Z" fill="#C4A767" fill-opacity="0.03"/>
<path d="M83.3918 301.689C83.3027 301.927 83.2137 302.164 83.2374 302.39C83.3146 302.04 83.4036 301.802 83.4808 301.452C83.3799 301.577 83.3918 301.689 83.3918 301.689Z" fill="#C4A767" fill-opacity="0.03"/>
<path d="M82.5493 304.515C82.6264 304.165 82.816 303.803 82.8931 303.452C82.816 303.803 82.7392 304.153 82.5493 304.515Z" fill="#C4A767" fill-opacity="0.03"/>
<path d="M84.2048 288.832C84.0089 285.888 83.9138 282.819 83.4804 279.785C83.047 276.752 82.4889 273.618 81.8181 270.495C81.0344 267.385 80.2508 264.275 79.2297 261.075C78.1077 258 76.9738 254.812 75.6263 251.761C74.1659 248.722 72.7056 245.683 71.0078 242.555C69.31 239.426 67.4994 236.31 65.677 233.081C56.262 217.309 47.3695 204.333 41.0236 194.966C34.6896 185.712 30.6767 180.09 30.6767 180.09C30.6767 180.09 31.8105 181.111 33.7278 183.076C35.6571 185.154 38.5837 188.039 41.9792 192.129C48.8712 200.184 58.3336 212.073 67.4162 229.021C69.2624 232.475 70.9839 235.829 72.468 239.094C74.0649 242.347 75.4481 245.736 76.8194 249.013C79.4611 255.691 81.2124 262.577 82.4769 269.172C83.6287 275.779 84.3056 282.207 84.371 288.244C84.4542 291.2 84.2109 294.305 83.932 297.071C83.7361 298.46 83.5403 299.849 83.3444 301.238C83.3563 301.351 83.2554 301.476 83.2672 301.589C83.475 300.312 83.6708 298.923 83.8667 297.534C84.1456 294.768 84.3889 291.663 84.2048 288.832Z" fill="#C4A767" fill-opacity="0.03"/>
<path d="M52.7332 347.338C53.6295 346.104 54.5258 344.869 55.4221 343.634C54.4368 345.106 53.4514 346.579 52.4423 347.825L52.7332 347.338Z" fill="#C4A767" fill-opacity="0.03"/>
<path d="M60.5263 305.465C60.7756 303.5 60.7992 301.559 60.9238 299.494C61.0485 297.428 61.1731 295.362 61.0602 293.207C61.2856 284.517 60.0329 275.868 58.5071 266.792C55.7346 252.373 51.7275 241.392 48.0825 232.767C47.1802 230.695 46.1651 228.635 45.3993 226.777C44.5207 224.931 43.654 223.198 42.7991 221.577C41.1013 218.449 39.5638 215.76 38.0857 213.635L37.9492 213.421C40.6917 217.808 44.491 223.566 48.6405 231.568C52.79 239.569 57.6281 249.779 61.2792 263.877C63.4579 272.657 64.7462 281.644 64.5565 290.673C64.5805 299.565 63.3044 308.024 61.2448 315.539C60.6453 317.426 60.0339 319.201 59.5235 320.852C59.013 322.502 58.3898 324.164 57.7428 325.6C56.4606 328.586 55.3566 331.097 54.205 333.157C51.902 337.277 50.5367 339.473 50.5367 339.473C50.5367 339.473 51.4508 337.324 53.3147 333.365C54.2525 331.442 55.0182 328.966 55.9738 326.129C57.0423 323.279 57.7367 320.127 58.6211 316.613C58.8644 315.675 59.1197 314.85 59.2502 313.924C59.3808 312.998 59.5114 312.072 59.7547 311.134C60.0278 309.395 60.277 307.43 60.5263 305.465Z" fill="#C4A767" fill-opacity="0.03"/>
<path d="M45.8451 249.423C45.293 247.429 44.8893 245.761 44.4975 244.206C44.1057 242.65 43.6248 241.332 43.4052 240.329C42.8412 238.222 42.485 237.005 42.485 237.005C42.485 237.005 43.0311 237.86 44.0106 239.581C44.9901 241.303 46.403 243.891 47.798 247.393C50.8137 254.374 54.5359 264.815 55.6047 279.299C56.4895 290.952 55.35 301.791 53.0293 311.158C50.5957 320.537 46.9452 328.106 43.7696 333.686L43.5677 333.935C45.0992 331.151 46.9215 327.88 48.2333 324.093C48.9455 322.193 49.6578 320.294 50.2336 318.181C50.8093 316.067 51.2723 313.966 51.8361 311.74C53.5158 302.782 53.9133 292.477 52.5477 281.674C50.6716 268.187 47.9289 257.3 45.8451 249.423Z" fill="#C4A767" fill-opacity="0.03"/>
<path d="M44.985 270.496C44.7653 267.327 44.3794 264.744 44.2013 263.053C44.0113 261.248 43.9163 260.346 43.9163 260.346C43.9163 260.346 45.3529 263.159 47.0982 268.905C48.6061 274.562 50.4465 283.377 49.1527 294.917C48.8263 297.232 48.6127 299.535 48.1497 301.637C47.6986 303.851 47.2357 305.952 46.648 307.953C46.0604 309.953 45.36 311.966 44.7486 313.741C44.1491 315.628 43.425 317.415 42.6889 319.089C41.8401 320.775 41.205 322.324 40.3443 323.897C39.4718 325.358 38.7001 326.693 37.9284 328.029C36.4979 330.688 34.7825 332.807 33.4944 334.654L33.3935 334.778C34.6815 332.932 36.2724 330.712 37.5901 328.064C38.249 326.741 39.0206 325.405 39.6676 323.969C40.4274 322.52 40.9379 320.87 41.573 319.321C42.8313 316.109 43.5911 312.494 44.5526 308.63C45.1758 304.801 45.7634 300.634 45.8879 296.401C46.2379 285.645 45.65 276.812 44.985 270.496Z" fill="#C4A767" fill-opacity="0.03"/>
<path d="M10.5687 316.199C10.6696 316.074 10.7703 315.95 10.8712 315.825C10.7703 315.95 10.7824 316.062 10.5687 316.199Z" fill="#C4A767" fill-opacity="0.03"/>
<path d="M37.4753 247.91C38.7337 244.698 39.7131 242.086 40.3244 240.311C41.0486 238.525 41.4047 237.575 41.4047 237.575C41.4047 237.575 41.2979 238.727 40.9477 240.816C40.7103 242.894 40.1168 245.921 39.369 249.649C37.7486 257.004 34.7096 267.131 28.8094 276.077C24.221 283.402 19.1873 287.581 15.4595 291.166C13.4591 292.745 12.082 294.829 10.509 296.135C9.91537 296.996 9.30991 297.744 8.69258 298.379C8.07524 299.014 7.45791 299.649 7.05427 300.148L6.95335 300.273C7.46978 299.762 7.97433 299.139 8.5798 298.391C9.18526 297.643 9.66605 296.794 10.2596 295.933C10.8532 295.072 11.6842 294.301 12.3669 293.203C13.0495 292.104 13.8687 291.22 14.8896 290.086C18.4215 285.723 22.8971 280.576 26.7495 272.758C31.5871 263.468 35.196 254.422 37.4753 247.91Z" fill="#C4A767" fill-opacity="0.03"/>
<path d="M21.9291 259.468C26.6361 246.77 30.2212 235.331 32.7972 227.306C35.3733 219.28 36.9284 214.555 36.9284 214.555C36.9284 214.555 36.7326 215.944 36.5427 218.473C36.24 221.014 35.7058 224.605 34.8036 229.033C33.1121 237.878 30.0612 250.059 24.357 261.949C19.7805 271.554 15.1565 278.54 11.0192 283.651C6.88187 288.763 3.3203 291.76 1.18932 294.265L1.08842 294.39C3.2194 291.885 6.51977 288.573 10.2594 282.933C14.0227 277.519 18.1006 269.678 21.9291 259.468Z" fill="#C4A767" fill-opacity="0.03"/>
<path d="M30.8141 212.804C28.891 222.699 25.306 236.305 19.3406 250.047C14.5682 261.041 9.6237 269.316 5.36769 275.466C1.22447 281.604 -2.47955 285.415 -3.96349 288.65L-4.06438 288.775C-2.56857 285.652 0.886108 281.639 4.61973 274.86C8.36522 268.194 12.6627 259.189 16.788 247.465C21.8808 233.017 25.8635 219.939 28.7957 210.964C31.6033 201.888 33.5502 196.551 33.5502 196.551C33.5502 196.551 33.3781 198.166 32.9864 200.944C32.4819 203.734 31.7815 207.913 30.8141 212.804Z" fill="#C4A767" fill-opacity="0.03"/>
<path d="M-7.16885 277.698C-7.34692 278.173 -7.53688 278.535 -7.60217 278.998C-7.4241 278.523 -7.3588 278.06 -7.16885 277.698Z" fill="#C4A767" fill-opacity="0.03"/>
<path d="M-7.08024 277.461C-7.08024 277.461 -7.06837 277.573 -7.18115 277.585C-7.06837 277.573 -7.06837 277.573 -7.08024 277.461Z" fill="#C4A767" fill-opacity="0.03"/>
<path d="M-7.85767 279.823C-7.76864 279.586 -7.69148 279.236 -7.61432 278.885C-7.69148 279.236 -7.88142 279.598 -7.95858 279.948L-7.85767 279.823Z" fill="#C4A767" fill-opacity="0.03"/>
<path d="M-14.6365 276.09C-14.6484 275.977 -14.6602 275.864 -14.6602 275.864C-14.6484 275.977 -14.7374 276.214 -14.7255 276.327L-14.6365 276.09Z" fill="#C4A767" fill-opacity="0.03"/>
<path d="M-14.5891 274.374C-14.6544 274.837 -14.7077 275.413 -14.6602 275.864C-14.6068 275.288 -14.6544 274.837 -14.5891 274.374Z" fill="#C4A767" fill-opacity="0.03"/>
<path d="M-19.7182 271.151C-19.7063 271.264 -19.7063 271.264 -19.8072 271.388L-19.7182 271.151Z" fill="#C4A767" fill-opacity="0.03"/>
<path d="M-27.097 258.472C-27.0733 258.697 -27.1742 258.822 -27.1505 259.047C-27.1742 258.822 -27.198 258.596 -27.097 258.472Z" fill="#C4A767" fill-opacity="0.03"/>
<path d="M-27.1446 258.02L-27.1564 257.908C-27.1327 258.133 -27.2336 258.258 -27.2098 258.483C-27.1208 258.246 -27.1327 258.133 -27.1446 258.02Z" fill="#C4A767" fill-opacity="0.03"/>
<path d="M-27.0909 257.445C-27.079 257.557 -27.18 257.682 -27.1681 257.795C-27.0553 257.783 -27.0672 257.67 -27.0909 257.445Z" fill="#C4A767" fill-opacity="0.03"/>
<path d="M-27.0437 260.062C-27.0556 259.95 -27.0559 259.95 -27.0678 259.837C-27.0559 259.95 -27.0319 260.175 -27.02 260.288L-27.0437 260.062Z" fill="#C4A767" fill-opacity="0.03"/>
<path d="M-20.5991 173.972C-19.9818 171.17 -19.1389 168.344 -18.1714 165.62C-17.2811 163.245 -16.5154 160.77 -15.6132 158.508C-13.9334 153.884 -12.4791 149.283 -10.9893 145.021C-8.25892 136.295 -5.76003 128.62 -3.8191 122.143C-1.76538 115.655 -0.257744 110.479 0.86409 107.054C1.97404 103.516 2.57355 101.628 2.57355 101.628C2.57355 101.628 2.3599 103.931 1.76046 107.986C1.2738 112.028 0.288559 117.834 -1.0172 124.927C-2.43575 132.033 -4.29947 140.326 -7.0061 149.277C-8.23475 153.854 -9.81363 158.354 -11.5943 163.102C-12.4847 165.477 -13.375 167.851 -14.3782 170.238C-14.8234 171.425 -15.2923 172.387 -15.6247 173.562C-16.058 174.862 -16.3904 176.037 -16.8237 177.337C-19.3522 185.814 -21.3406 194.006 -23.3112 201.284C-25.2699 208.674 -27.199 215.263 -28.849 221.253C-30.6238 227.141 -32.1314 232.317 -33.3601 236.894C-34.6006 241.358 -35.7877 245.246 -35.7698 248.665L-35.847 249.016C-35.8649 245.597 -34.7905 241.72 -33.7993 237.054C-32.7191 232.151 -31.4608 226.773 -30.0363 220.807C-28.7483 214.628 -27.2051 207.623 -25.745 199.829C-24.0831 191.786 -22.5934 183.19 -20.5991 173.972Z" fill="#C4A767" fill-opacity="0.03"/>
<path d="M-51.4597 206.87C-51.4716 206.757 -51.3707 206.633 -51.3944 206.407L-51.3825 206.52L-51.4597 206.87Z" fill="#C4A767" fill-opacity="0.03"/>
<path d="M-50.5576 200.275C-50.7712 202.578 -51.0086 204.656 -51.3825 206.52C-51.1333 204.555 -50.8959 202.477 -50.5576 200.275Z" fill="#C4A767" fill-opacity="0.03"/>
<path d="M-48.8461 39.9894C-42.4529 38.9742 -36.9027 38.6179 -32.142 38.3447C-22.7334 37.8102 -16.8982 37.9941 -16.8982 37.9941C-16.8982 37.9941 -22.1338 40.2559 -31.0556 43.2478C-35.4601 44.7379 -40.9925 46.3467 -47.0888 48.0149C-49.6235 48.852 -52.4549 51.2027 -55.2507 53.8918C-58.0584 56.4681 -60.7949 59.7212 -63.6322 63.0988C-67.9595 68.572 -71.5625 74.4251 -74.6907 80.4562C-76.1984 83.4658 -77.5933 86.4635 -78.8754 89.4494C-80.0447 92.4234 -80.9885 95.3737 -81.9322 98.3239C-83.707 104.213 -84.9297 109.929 -85.7131 115.485C-85.7546 116.174 -85.909 116.874 -85.9505 117.563C-85.9802 118.364 -86.182 118.613 -86.3482 119.201C-86.5915 120.139 -86.8349 121.077 -87.0782 122.015C-87.5649 123.891 -87.838 125.63 -88.1229 127.256L-88.2 127.607C-87.9151 125.98 -87.6421 124.241 -87.2801 122.264C-87.0367 121.326 -86.9061 120.4 -86.6746 119.35L-86.5203 118.649C-86.4313 118.412 -86.3423 118.174 -86.3898 117.723C-86.3482 117.034 -86.3186 116.233 -86.1642 115.533C-85.642 109.662 -84.8289 103.304 -83.4638 96.7746C-83.1789 95.1481 -82.7812 93.5098 -82.3835 91.8714C-81.9859 90.233 -81.4873 88.47 -80.864 86.8079C-79.855 83.3947 -78.6204 79.9576 -77.273 76.5087C-75.9256 73.0599 -74.4535 69.7119 -72.7559 66.3402C-70.9455 62.9566 -68.9095 59.5492 -66.7488 56.2428C-63.9708 52.3012 -61.2582 48.8226 -58.3614 46.0088C-55.3519 43.1832 -52.4077 40.8205 -48.8461 39.9894Z" fill="#C4A767" fill-opacity="0.03"/>
<path d="M-64.939 29.0259C-52.1707 23.5763 -40.0077 25.3746 -31.5012 27.1018C-22.9711 29.0546 -17.9135 31.601 -17.9135 31.601C-17.9135 31.601 -22.9354 31.5596 -31.1034 31.9634C-39.2595 32.4801 -50.6864 33.3411 -63.3421 36.6122C-68.4352 38.0607 -73.0178 40.0256 -77.2145 42.4061C-81.2866 44.8875 -84.9728 47.7844 -87.8102 51.1621C-89.3713 52.5808 -90.6475 54.5397 -91.8347 56.2612C-93.01 58.0955 -94.1971 59.817 -95.1706 61.402C-96.9217 65.3495 -98.4828 68.9349 -99.7411 72.1463L-99.8302 72.3838C-98.5718 69.1723 -97.1354 65.486 -95.5446 61.0992C-94.6067 59.1759 -93.5561 57.2407 -92.5292 55.08C-91.3777 53.0201 -90.3745 50.6338 -88.849 48.8767C-87.46 46.9059 -85.8455 44.9113 -84.13 42.7921C-82.3789 41.0113 -80.515 39.2185 -78.5384 37.4139C-74.6622 34.1549 -70.0618 31.2758 -64.939 29.0259Z" fill="#C4A767" fill-opacity="0.03"/>
<path d="M-19.2022 7.44717C-19.2022 7.44717 -23.7136 7.92216 -31.3058 8.37943C-38.898 8.83669 -49.3573 9.13969 -61.4432 9.1578C-71.2496 9.16398 -79.56 10.3811 -86.2618 12.7972C-92.9635 15.2134 -97.8369 19.8317 -101.197 24.7469L-101.398 24.9962C-98.015 20.3066 -93.5097 14.3586 -86.8614 10.3516C-80.0113 6.09525 -71.6771 2.93705 -61.8114 1.32814C-49.5891 -0.642937 -38.7438 1.63625 -31.2525 3.47031C-23.6365 5.40528 -19.2022 7.44717 -19.2022 7.44717Z" fill="#C4A767" fill-opacity="0.03"/>
</svg>
