<svg width="314" height="185" viewBox="0 0 314 185" fill="none" xmlns="http://www.w3.org/2000/svg">
<path d="M66.5993 102.432C66.5596 102.3 66.5199 102.167 66.5199 102.167L66.5993 102.432Z" fill="url(#paint0_linear_1409_37993)" fill-opacity="0.2"/>
<path d="M107.401 132.552C106.249 130.152 104.938 127.221 103.588 124.158C98.1467 111.772 92.9336 94.8391 89.9621 76.2237C87.4921 61.2146 87.1681 49.0307 87.4657 39.4059C88.1872 30.2322 88.934 23.0735 89.9316 17.7181L89.9848 17.4132C89.1198 22.729 87.7235 29.6486 86.008 38.3975C85.6354 40.5317 85.2097 42.9708 84.9959 45.6355C84.7822 48.3001 84.5685 50.9647 84.3015 53.9343C84.0328 59.7939 84.0022 66.4492 84.6075 73.781C85.8823 92.0374 92.4999 110.284 99.757 123.426C101.757 126.729 103.505 129.673 105.002 132.259C106.803 134.899 108.446 137.008 109.744 138.931C111.135 140.682 112.141 142.114 112.857 143.056C113.572 143.997 113.996 144.448 113.996 144.448C113.996 144.448 112.83 142.486 110.924 139.011C109.93 137.141 108.725 135.046 107.401 132.552Z" fill="url(#paint1_linear_1409_37993)" fill-opacity="0.2"/>
<path d="M142.729 159.831L143.113 160.15C142.941 160.057 142.729 159.831 142.557 159.739C142.557 159.739 142.557 159.738 142.729 159.831Z" fill="url(#paint2_linear_1409_37993)" fill-opacity="0.2"/>
<path d="M137.813 154.512C136.171 152.403 134.7 150.387 133.111 147.973C130.144 143.371 126.979 138.106 123.96 132.363C122.384 129.512 120.901 126.489 119.511 123.293C117.988 120.136 116.558 116.808 115.089 113.347C112.19 106.557 109.874 99.3038 108.182 91.7195C104.03 73.0238 102.979 57.4455 102.403 46.3486C101.826 35.2517 101.896 28.729 101.896 28.729C101.896 28.729 101.418 30.028 100.767 32.6791C100.116 35.3302 99.2517 39.2009 98.7448 44.2649C97.6381 54.5654 97.1647 69.8775 102.853 89.8469C105.235 97.8029 108.239 105.428 111.656 112.496C115.204 119.525 118.687 125.851 122.184 131.739C125.64 137.495 129.11 142.814 132.382 147.469C135.204 151.103 137.509 154.459 140.397 157.351C140.397 157.351 140.357 157.218 140.225 157.258C139.416 156.488 138.568 155.586 137.813 154.512Z" fill="url(#paint3_linear_1409_37993)" fill-opacity="0.2"/>
<path d="M205.783 179.823C205.611 179.73 205.61 179.73 205.438 179.637C205.61 179.73 205.783 179.823 205.783 179.823Z" fill="url(#paint4_linear_1409_37993)" fill-opacity="0.2"/>
<path d="M209.626 181.562C209.149 181.416 208.805 181.23 208.288 180.951C208.593 181.005 208.805 181.23 209.11 181.283L209.626 181.562Z" fill="url(#paint5_linear_1409_37993)" fill-opacity="0.2"/>
<path d="M223.124 179.833C222.779 179.647 222.434 179.462 222.09 179.276C222.607 179.554 223.124 179.833 223.64 180.112L223.124 179.833Z" fill="url(#paint6_linear_1409_37993)" fill-opacity="0.2"/>
<path d="M264.802 184.406C264.232 184.432 263.49 184.365 262.92 184.392C263.357 184.405 263.795 184.419 264.1 184.472L264.802 184.406Z" fill="url(#paint7_linear_1409_37993)" fill-opacity="0.2"/>
<path d="M261.912 184.405C262.217 184.458 262.655 184.471 262.96 184.525C262.482 184.379 262.178 184.325 261.912 184.405Z" fill="url(#paint8_linear_1409_37993)" fill-opacity="0.2"/>
<path d="M244.243 179.435C241.049 177.935 237.682 176.342 234.674 174.497C231.666 172.653 228.313 170.622 225.451 168.3C213.379 159.344 201.997 147.87 191.4 133.704C184.617 125.043 179.266 116.82 174.458 109.446C169.783 102.032 165.916 95.3874 162.632 89.7244C157.321 80.189 153.706 73.9027 152.752 72.1653C153.309 72.5767 153.865 72.988 154.422 73.3993C154.422 73.3993 154.422 73.3993 154.554 73.3596C160.451 78.0962 166.48 82.793 172.391 87.0921C176.459 90.0643 180.527 93.0365 184.516 95.7435C185.456 97.9183 187.641 102.321 191.482 108.395C194.237 112.772 197.972 118.011 202.874 123.768C207.776 129.525 213.976 135.759 222.06 142.009C228.473 147.024 235.524 151.271 242.601 154.642C246.272 156.289 249.771 157.842 253.456 159.051C257.048 160.432 260.786 161.335 264.524 162.239C277.568 165.27 290.72 164.801 301.168 162.54C290.72 164.801 277.979 164.713 265.638 161.617C251.521 157.896 237.725 150.901 225.772 140.897C218.299 134.755 212.138 128.652 207.011 123.108C205.739 121.754 204.467 120.401 203.327 119.009C202.188 117.616 201.089 116.356 199.989 115.096C197.79 112.575 195.935 110.241 194.293 108.132C190.875 103.954 188.358 100.373 186.636 97.9985C186.133 97.2823 185.669 96.6987 185.338 96.0754C189.194 98.8221 192.971 101.304 196.88 103.745C200.83 106.32 204.872 108.722 208.702 110.898C210.637 112.053 212.532 113.075 214.467 114.23C216.362 115.252 218.257 116.274 220.152 117.296C223.77 119.247 227.309 120.932 230.676 122.525C230.676 122.525 230.676 122.525 230.808 122.486C234.347 124.172 237.806 125.592 241.226 126.88C247.76 129.403 253.526 131.289 258.484 132.406C259.571 132.659 260.486 132.818 261.44 133.111C261.612 133.203 261.785 133.296 261.957 133.389C263.083 133.774 264.86 134.399 267.073 135.036C269.287 135.674 272.031 136.153 275.345 136.606C276.962 136.7 278.712 136.754 280.634 136.901C282.517 136.915 284.493 136.757 286.468 136.599C288.178 136.521 289.677 136.217 291.175 135.913C292.673 135.609 294.171 135.305 295.497 134.908C298.282 134.074 300.841 133.453 303.109 132.341C307.67 130.686 310.973 128.686 313.678 127.588L313.811 127.548C311.105 128.647 307.856 130.342 303.268 131.426C298.76 132.775 293.351 133.528 287.08 133.816C279.363 134.103 272.815 133.462 268.002 133.313C265.643 133.153 263.72 133.006 262.408 132.965C261.095 132.925 260.353 132.858 260.353 132.858C260.353 132.858 260.698 133.044 261.175 133.19C260.393 132.991 259.611 132.791 258.696 132.632C255.912 132.02 252.916 131.183 249.841 130.081C250.146 130.134 250.584 130.147 251.061 130.294C252.413 130.467 254.415 130.879 256.907 131C261.759 131.281 268.507 131.139 275.654 129.434C278.571 128.56 281.131 127.939 283.438 126.959C284.592 126.469 285.652 126.152 286.674 125.702C287.695 125.252 288.716 124.802 289.604 124.391C291.554 123.663 293.158 122.749 294.538 122.048C295.293 121.677 296.089 121.439 296.752 121.24C297.415 121.042 297.945 120.883 298.515 120.857C297.945 120.883 297.415 121.042 296.885 121.2C296.222 121.399 295.426 121.637 294.63 121.875C293.039 122.352 291.262 123.172 289.233 123.635C288.173 123.953 287.112 124.27 286.051 124.588C284.818 124.812 283.757 125.13 282.392 125.394C281.198 125.751 279.832 126.016 278.427 126.147C277.061 126.412 275.563 126.716 274.158 126.848C266.68 127.93 260.448 128.35 256.047 129.09C252.4 129.459 250.067 129.869 249.404 130.067C246.978 129.204 244.38 128.248 241.61 127.199C238.668 126.057 235.513 124.689 232.359 123.322C232.664 123.375 233.141 123.521 233.751 123.628C235.447 123.987 237.887 124.412 241.068 124.905C247.219 125.664 255.783 126.279 265.025 124.814C272.33 123.638 278.297 121.852 282.819 120.065C286.625 118.781 289.609 117.166 292.221 116.239C289.702 116.993 286.466 118.251 282.409 119.176C277.463 120.512 271.165 121.675 263.488 122.095C253.969 122.633 245.869 122.601 240.128 122.73C237.278 122.861 234.958 122.833 233.42 123.004C232.584 123.11 232.014 123.136 231.577 123.123C228.038 121.437 224.46 119.618 220.709 117.707C218.814 116.685 217.051 115.623 215.156 114.601C213.261 113.579 211.458 112.385 209.524 111.23C205.654 108.921 201.784 106.612 197.795 103.905C193.634 101.105 189.3 98.2123 185.06 95.1472C184.808 94.7891 184.769 94.6565 184.769 94.6565C184.769 94.6565 184.808 94.7891 184.888 95.0543C181.204 92.4005 177.347 89.6538 173.624 86.8675C172.511 86.0448 171.57 85.3151 170.457 84.4924C171.583 84.8776 177.23 86.3659 185.979 88.0815C195.643 89.9567 209.376 91.914 224.092 91.8435C235.918 91.7712 245.49 90.9285 252.968 89.846C256.707 89.3047 259.876 88.7896 262.608 88.261C263.31 88.1951 263.973 87.9967 264.543 87.9705C265.074 87.8118 265.776 87.7459 266.346 87.7197C266.612 87.6403 266.917 87.6936 267.182 87.6142C266.917 87.6936 266.744 87.6007 266.612 87.6404C265.472 87.6927 264.238 87.9173 262.833 88.049C260.062 88.445 256.814 88.6949 252.863 89.0107C245.226 89.5629 235.15 89.6892 222.914 88.873C207.748 87.9225 194.611 86.5091 185.132 85.7344C176.661 84.947 171.371 84.6521 170.496 84.625C166.004 81.2018 161.472 77.6461 156.94 74.0903C159.512 74.4763 165.093 75.2619 172.689 76.0222C175.354 76.236 178.323 76.503 181.465 76.8628C184.567 77.0901 187.974 77.3706 191.514 77.6114C193.264 77.6655 195.093 77.9848 196.883 78.1715C198.845 78.4511 200.939 78.6911 203.034 78.931C205.089 79.0383 207.051 79.3179 209.278 79.5181C211.333 79.6254 213.52 79.6931 215.615 79.933C229.389 80.5778 240.737 80.3594 249.501 80.1924C257.124 80.0777 263.09 79.7367 266.961 80.6008C263.05 79.6041 257.403 79.5609 249.488 79.1848C240.433 78.8611 228.674 78.191 214.49 76.6577C210.035 76.2572 205.807 75.6448 201.79 75.2579C199.828 74.9783 197.866 74.6986 195.904 74.419C193.81 74.1791 191.715 73.9392 189.965 73.8851C182.621 73.4829 176.575 73.5587 171.365 73.529C166.327 73.5922 162.164 73.6825 159.407 73.641C158.134 73.733 157.126 73.7457 156.384 73.6789C153.906 71.6755 151.256 69.5792 148.738 67.4432C145.624 64.7633 142.378 62.123 139.264 59.4431C140.218 59.7354 141.65 60.1737 143.598 60.8908C147.111 62.0066 152.015 63.4282 158.272 65.0229C161.4 65.8203 164.793 66.5383 168.452 67.1769C170.282 67.4962 172.243 67.7758 174.073 68.0951C175.995 68.2421 177.957 68.5217 180.012 68.629C183.989 68.8833 188.138 69.2306 192.381 69.4055C196.53 69.7528 201.117 70.1135 205.876 70.5672C221.201 72.0482 234.126 73.236 244.016 73.4542C253.986 73.9376 261.225 73.5045 265.652 74.78C261.264 73.6371 254.132 73.4604 244.097 72.2743C233.836 71.3002 220.593 69.0516 204.646 66.4566C199.675 65.7774 194.929 64.8863 190.342 64.5255C185.927 64.2577 181.645 63.9501 177.801 63.6561C175.879 63.5091 173.996 63.4947 172.206 63.308C170.284 63.161 168.627 62.9346 166.837 62.7479C163.391 62.3348 160.116 62.0146 157.107 61.615C147.297 60.2169 140.841 59.4043 138.88 59.1247C138.071 58.3553 137.13 57.6255 136.19 56.8958C132.095 53.3535 128.001 49.8112 123.867 46.1364C123.482 45.8179 123.27 45.5924 122.886 45.274C123.841 45.5663 125.272 46.0046 127.313 46.5495C130.919 47.4929 136.128 48.9677 142.61 50.3505C149.132 51.8658 156.834 53.4615 165.464 54.7792C169.692 55.3917 174.226 56.0573 178.945 56.3784C183.572 56.8718 188.411 57.5906 193.514 58.2301C209.952 60.5338 223.66 61.9209 234.504 62.4314C239.621 62.6334 244.473 62.9147 248.716 63.0897C250.771 63.197 252.693 63.344 254.31 63.4378C255.053 63.5045 255.835 63.7039 256.577 63.7706C255.967 63.6642 255.318 63.4252 254.575 63.3584C252.918 63.132 250.996 62.985 249.034 62.7054C244.885 62.3582 240.086 61.7719 234.584 61.2515C223.462 59.8129 209.344 57.5372 192.377 53.9473C187.154 52.91 182.064 51.833 177.305 51.3793C172.638 50.7533 168.144 50.2203 163.823 49.7801C155.272 48.7276 147.729 47.6623 141.578 46.9029C131.676 45.6771 124.994 45.0764 122.727 44.7436C119.15 41.4801 115.4 38.1236 111.955 34.8204C109.358 32.4192 106.761 30.018 104.297 27.5771C107.213 28.1489 113.443 29.1736 122.087 30.0539C128.066 30.7204 135.317 31.2949 143.152 31.4058C147.09 31.5275 151.292 31.5699 155.455 31.4796C157.603 31.4146 159.618 31.3894 161.978 31.5499C164.205 31.7501 166.565 31.9107 168.924 32.0712C184.435 33.2076 197.546 34.0508 208.298 34.7336C213.72 34.9888 218.479 35.4425 222.761 35.75C227.083 36.1901 230.795 36.5239 233.989 38.0239L234.294 38.0771C231.1 36.5771 227.388 36.2434 222.987 35.538C218.493 35.005 213.521 34.3258 208.073 33.5005C196.951 32.0619 183.35 30.0649 167.177 27.6819C164.738 27.2561 162.206 27.0027 159.846 26.8422C157.447 26.549 154.954 26.4282 152.939 26.4535C148.604 26.4508 144.574 26.5014 140.676 26.5122C132.881 26.534 126.093 26.5431 120.352 26.6721C114.744 26.7615 110.183 26.9708 107.161 27.0088C105.716 27.0079 104.575 27.0602 103.74 27.1657C102.508 25.9453 101.315 24.8575 99.9506 23.6767C99.0098 22.947 98.1618 22.0449 97.3536 21.2755C98.0563 21.2096 99.4616 21.0779 101.609 21.0129C104.725 20.8027 109.06 20.8054 114.496 20.6231C125.235 20.2983 140.402 19.8038 158.326 19.3507C182.999 18.756 202.844 21.3401 216.02 24.3311C214.283 23.8395 212.547 23.3479 210.678 22.896C206.37 22.0184 201.333 20.6365 195.845 19.6786C184.789 17.4976 171.533 15.6865 156.407 14.8685C137.741 13.8097 122.719 15.2721 112.589 17.1485C107.524 18.0867 103.467 19.0122 100.854 19.9386C98.8654 20.534 97.7117 21.0238 97.1813 21.1826C94.412 18.6885 91.6824 16.327 88.9528 13.9654C89.6555 13.8996 90.756 13.7147 92.201 13.7155C95.1444 13.4124 99.2279 13.057 104.452 12.6492C107.13 12.4254 110.113 12.2549 113.229 12.0447C116.344 11.8345 119.553 11.452 122.894 11.0298C129.576 10.1854 137.094 9.23547 144.93 7.90127C148.099 7.38616 151.214 7.17595 154.251 6.70054C157.327 6.35773 160.31 6.18721 163.16 6.05638C168.821 5.66212 174.164 5.65214 179.109 5.76122C188.866 6.0191 197.364 7.37656 203.606 10.8539L203.95 11.0397C197.748 7.69498 189.225 5.76743 178.884 4.52814C173.781 3.88865 168.054 3.58022 162.061 3.35117C158.999 3.25649 155.936 3.16181 152.609 3.14651C149.453 3.22413 145.993 3.24853 142.573 3.40553C134.194 3.89092 126.676 4.84084 119.941 5.99013C112.821 6.82099 106.96 7.99732 102.147 9.29361C97.4662 10.5502 93.9257 11.7545 91.4857 12.7738C90.332 13.2636 89.4435 13.6741 88.7805 13.8725C88.6082 13.7796 88.3962 13.5541 88.2239 13.4612C85.8254 11.723 83.5197 9.81252 81.1212 8.0743C81.6516 7.91554 82.4472 7.67739 83.2428 7.43924C85.7622 6.6851 89.4353 5.44114 94.116 4.18454C98.9292 2.88825 104.445 1.5261 111.048 0.416512C114.35 -0.138283 117.916 -0.772453 121.695 -1.18112C123.631 -1.4716 125.606 -1.62949 127.542 -1.91997C129.478 -2.21045 131.241 -2.59383 133.177 -2.88432C145.375 -5.09085 156.393 -5.93258 165.964 -5.33012C175.669 -4.76736 183.927 -2.76041 190.143 0.14679L190.448 0.200005C184.271 -2.5746 175.815 -5.24454 165.7 -6.69581C160.689 -7.50759 155.095 -7.85571 149.275 -7.99186C146.345 -8.12623 143.322 -8.08831 140.167 -8.0107C138.589 -7.97189 137.012 -7.93308 135.474 -7.76167C134.599 -7.78873 133.936 -7.59028 133.061 -7.61732C132.186 -7.64438 131.178 -7.63173 130.303 -7.65878C121.023 -7.77053 113.412 -6.64831 107.101 -5.04801C100.696 -3.27542 95.4581 -0.985077 91.2808 0.98774C87.1431 3.09315 84.2783 5.10654 82.2226 6.4443C81.5063 6.94764 80.9227 7.4113 80.432 7.70267C78.9346 6.5616 77.3046 5.46023 75.8072 4.31916C75.4626 4.13335 75.0783 3.81493 74.7338 3.62911C75.2245 3.33775 76.0733 2.79471 77.3199 2.13259C78.3013 1.54987 79.6409 0.715462 81.113 -0.158638C82.5851 -1.03273 84.1898 -1.94652 86.0597 -2.93969C89.7996 -4.92603 94.4279 -7.32281 99.9313 -9.69254C102.597 -10.9239 105.567 -12.102 108.842 -13.2268C110.394 -13.8357 112.118 -14.3517 113.802 -15.0003C115.526 -15.5163 117.117 -15.9926 118.973 -16.5483C124.715 -18.1224 130.389 -18.9542 136.051 -19.3484C138.901 -19.4792 141.619 -19.5704 144.416 -19.3963C146.829 -19.5407 149.07 -19.7779 151.218 -19.8429C159.981 -20.0099 167.656 -18.9844 173.476 -17.4031L173.78 -17.3499C167.961 -18.9311 160.26 -20.5268 150.914 -21.3412C149.734 -21.4215 148.554 -21.5017 147.374 -21.582C146.804 -21.5558 146.022 -21.7552 145.279 -21.8219C144.537 -21.8887 143.755 -22.088 143.013 -22.1547C140.003 -22.5543 136.862 -22.9142 133.799 -23.0089C127.502 -23.2911 121.324 -23.1756 114.8 -21.8008C98.8099 -18.7481 89.1807 -11.8203 82.9197 -6.1897C78.0514 -1.69839 75.4906 1.81329 74.6147 3.23132C72.9847 2.12994 71.3944 1.16116 69.7644 0.0597839C67.6572 -1.18771 65.6429 -2.60751 63.5754 -3.7224C61.508 -4.8373 59.3078 -5.91251 57.2007 -7.16001C56.1669 -7.71746 55.1332 -8.27491 54.0994 -8.83236C53.0657 -9.38981 51.939 -9.77496 50.9449 -10.1998C46.7964 -11.9921 42.7408 -13.9567 38.5788 -15.3115C36.6304 -16.0286 34.5494 -16.7061 32.601 -17.4232C30.6525 -18.1403 28.6509 -18.5525 26.7422 -19.137C11.4191 -23.5081 -1.63882 -24.6562 -10.707 -24.5425C-15.1749 -24.5054 -18.6883 -24.1761 -20.929 -23.9389C-23.3023 -23.6619 -24.4028 -23.477 -24.4028 -23.477C-25.238 -23.3714 -26.0471 -22.6958 -25.7558 -22.2051C-25.6764 -21.9399 -25.3318 -21.7541 -24.8546 -21.608C-24.51 -21.4221 -24.0726 -21.4086 -23.6748 -21.5277C-23.6748 -21.5277 -23.4096 -21.6071 -22.8395 -21.6332C-22.2694 -21.6594 -21.4341 -21.765 -20.3336 -21.9499C-19.2331 -22.1348 -17.7881 -22.1339 -16.1175 -22.345C-14.4072 -22.4235 -12.5246 -22.4091 -10.2443 -22.5138C-1.44126 -22.5482 11.4444 -21.4929 26.5555 -17.3473C28.4642 -16.7628 30.4658 -16.3506 32.242 -15.7264C34.1904 -15.0093 36.1388 -14.2922 38.0872 -13.5751C40.4731 -12.8445 42.9384 -11.8487 45.3108 -10.6805C44.9527 -10.4289 44.5946 -10.1772 44.2365 -9.92551C42.4063 -8.79975 40.0718 -6.94512 37.3657 -4.40134C32.1655 0.911751 26.1282 9.22054 22.6347 20.2354C21.8247 22.3561 21.1473 24.4371 20.4699 26.5181C19.9251 28.5595 19.3803 30.6008 18.9284 32.4698C17.892 36.2476 16.8691 39.5879 16.244 42.8091C14.9542 49.1189 13.7049 54.1162 12.4962 57.8011L12.4033 57.9733C13.4794 54.3282 15.2058 49.477 17.2778 43.3665C18.38 40.2915 19.8801 37.0973 21.4334 33.5983C22.1901 31.7824 22.947 29.9666 23.7967 27.9785C24.8187 26.0833 25.8406 24.1881 26.9555 22.1206C32.0393 12.0745 37.2016 3.73869 40.9306 -2.14537C42.9475 -5.0608 44.3808 -7.51255 45.6545 -9.04964C45.9729 -9.43392 46.2517 -9.95081 46.4772 -10.1628C47.8158 -9.55212 49.1544 -8.94145 50.6257 -8.37048C51.6197 -7.94563 52.7464 -7.56046 53.7801 -7.00301C54.8139 -6.44556 55.8476 -5.88811 56.8814 -5.33067C58.432 -4.49449 60.1152 -3.69801 61.7055 -2.72923C60.154 -2.12034 56.0696 -0.319809 51.5332 3.34975C48.6549 5.80063 45.5375 8.90098 42.605 13.1018C39.8051 17.263 37.2037 22.0871 35.4501 27.8133C32.4086 36.9591 31.144 45.2841 30.371 51.8726C30.1834 55.1073 29.691 58.2889 29.4772 60.9535C29.4357 63.711 29.1029 65.9779 28.9559 67.9001L28.9956 68.0327C29.2752 66.0708 29.5683 63.6713 29.8218 61.1393C30.2078 58.5676 30.8726 55.479 31.4977 52.2578C33.0527 45.8686 35.3907 38.2337 39.5454 29.9105C44.5498 19.5992 50.3219 11.3698 54.7004 5.72478C58.2562 1.19288 61.0155 -1.65579 62.0104 -2.67601C62.355 -2.4902 62.8322 -2.34408 63.2165 -2.02566C65.4165 -0.950447 67.4308 0.469345 69.4054 1.75653C70.1343 2.26077 70.9957 2.72531 71.7245 3.22955C68.5277 6.0647 64.7735 9.9336 61.0977 15.5128C57.2362 21.4365 53.3602 29.2428 50.2519 39.1311C48.3126 45.2018 47.1156 51.3393 46.2903 56.7877C45.5047 62.3686 45.3162 67.0484 45.0087 71.3304C44.8887 72.3777 44.9014 73.3853 44.8743 74.2602C44.8473 75.1352 44.8599 76.1428 44.9258 76.8455C44.9646 78.4232 44.9637 79.8682 44.9763 80.8758C45.0413 83.0236 44.961 84.2034 45.173 84.4289C45.173 84.4289 45.0539 84.0311 45.3326 83.5143C45.4788 83.0371 45.6384 82.1224 45.9307 81.1681C46.1832 80.0811 46.3961 78.8615 46.7948 77.2974C46.9941 76.5153 47.0609 75.7729 47.2205 74.8583C47.3802 73.9436 47.7121 73.1218 47.8321 72.0746C48.6565 68.0713 49.7199 63.4185 50.7572 58.1957C51.7945 52.9729 53.1105 47.2332 54.533 40.8837C55.7426 35.7537 56.8854 31.3662 58.2402 27.2042C59.6347 23.1747 61.0157 19.5828 62.5157 16.3886C65.4626 10.3052 68.581 5.7598 71.8175 3.05725C73.0632 3.84021 74.3486 4.75576 75.727 5.49902C76.4558 6.00326 77.1846 6.5075 77.9135 7.01173C76.8789 7.89935 73.7218 10.8671 70.3509 16.4995C68.3602 19.985 65.9977 24.1597 64.2577 29.4484C63.3016 32.0463 62.5575 34.8697 61.5878 37.905C61.1891 39.4692 60.923 40.9936 60.5244 42.5578C60.1257 44.1219 59.8993 45.779 59.6729 47.4361C59.3265 50.1404 58.9802 52.8447 58.5941 55.4164C58.3407 57.9485 58.0872 60.4805 57.9267 62.8402C57.7662 65.2 57.6985 67.3874 57.6309 69.5749C57.6571 70.145 57.511 70.6222 57.7094 71.2852C57.9079 71.9482 57.9737 72.6508 58.1722 73.3138C58.4365 74.6795 58.7937 75.8729 59.058 77.2386C59.5073 79.7048 60.394 82.1845 61.2411 84.5316C62.0881 86.8787 62.5906 89.04 63.3582 91.1219C64.0465 92.9386 64.788 94.4504 65.3969 96.0019C63.4114 90.817 61.7579 84.8103 60.7809 78.1677C60.3714 75.8341 60.1873 73.2886 60.0033 70.743L59.8851 68.9001C59.859 68.33 60.0051 67.8528 60.1115 67.2431C60.2315 66.1958 60.484 65.1088 60.604 64.0616C61.4419 59.6208 62.4657 54.8355 63.9405 49.6262C64.3391 48.062 64.8704 46.4582 65.3088 45.0266C65.8401 43.4228 66.1459 42.0309 66.5843 40.5994C67.5007 37.8689 68.2449 35.0455 69.201 32.4476C70.8084 27.1986 72.5213 22.7849 73.8229 18.9277C76.16 12.7379 77.8197 8.62909 78.2978 7.33015C78.8544 7.74147 79.5832 8.2457 80.1795 8.78963L80.0469 8.82932C80.0469 8.82932 80.0469 8.82932 80.1795 8.78963C82.0611 10.2491 83.9428 11.7086 85.9174 12.9958C85.1074 15.1165 84.2045 17.4095 83.0228 20.2194C81.9738 22.9895 80.7786 26.2369 79.3976 29.8289C76.6754 37.1454 73.687 45.9863 70.8565 56.8027C70.7104 57.2799 70.6572 57.5848 70.5111 58.062L70.3379 59.4141C70.1782 60.3288 70.1909 61.3364 70.1638 62.2114C70.0168 64.1336 70.0024 66.0162 69.988 67.8987C69.9591 71.6639 70.1955 75.3496 70.6971 78.956C71.5677 86.2084 73.3267 93.0503 75.2057 98.845C76.2116 101.723 77.138 104.335 78.1176 106.642C79.2696 109.043 80.1301 110.952 80.9113 112.597C82.6063 115.846 83.4271 117.623 83.4271 117.623C83.4271 117.623 82.9112 115.899 82.1706 112.942C81.734 111.483 81.1783 109.627 80.6361 107.333C80.1337 105.172 79.5915 102.878 79.0629 100.147C76.8951 89.526 75.4986 75.207 75.8927 59.6297C75.9865 58.0123 75.9873 56.5672 76.1208 55.0825C76.2543 53.5977 76.2155 52.02 76.468 50.9331C76.9867 48.3217 77.4521 46.0151 77.9175 43.7086C78.8484 39.0956 79.8586 34.7477 80.7227 30.877C82.5836 23.096 84.1648 17.2769 85.9571 13.1284L85.9174 12.9958C86.6463 13.5 87.3751 14.0042 88.1437 14.6411C92.1587 17.9182 96.0808 21.3675 100.003 24.8169C103.965 28.3988 107.966 32.1134 111.928 35.6954C113.545 37.2342 115.294 38.7334 116.95 40.4049C116.843 41.0146 116.538 42.4065 116.351 44.1962C116.044 47.0331 115.737 51.3151 115.866 57.0557C116.217 68.3646 118.977 85.3094 127.794 106.076C135.115 122.812 143.87 137.095 152.44 148.833C161.05 160.704 169.874 169.91 176.578 176.861L176.962 177.18C170.126 170.268 162.005 160.997 154.309 149.285C146.614 137.574 139.251 123.596 133.096 107.379C125.697 87.4877 121.624 70.5023 119.537 58.7019C117.819 49.1023 117.227 42.7781 117.029 40.6701C119.242 42.7529 121.587 44.796 123.933 46.8391C126.742 49.4658 129.643 51.9202 132.545 54.3746C132.598 55.5148 132.806 61.5206 134.471 71.425C135.395 76.9274 136.849 83.7162 139.324 91.4999C141.798 99.2835 145.584 108.553 151.465 118.062C160.749 133.632 170.856 146.644 180.819 157.243C185.735 162.562 190.756 167.272 195.712 171.278C198.057 173.322 200.628 175.153 203.027 176.891C204.312 177.806 205.73 178.682 207.148 179.558C205.903 178.775 204.657 177.992 203.544 177.17C201.145 175.431 198.707 173.561 196.494 171.478C191.804 167.392 187.352 162.656 182.742 157.39C173.786 146.778 164.858 133.847 156.661 118.529C151.523 109.087 147.843 100.653 145.063 92.8159C142.324 85.1116 139.955 78.1632 138.248 72.4614C136.542 66.7596 135.152 62.1186 134.067 58.9759C133.353 56.5891 132.876 54.9979 132.678 54.3349C133.87 55.4228 135.023 56.378 136.348 57.4262C138.906 59.6948 141.423 61.8308 144.074 63.9271C144.404 65.9955 145.289 71.3653 147.484 79.6659C150.487 90.1809 155.582 105.271 166.509 122.95C175.224 137.101 185.014 149.052 195.097 158.604C204.796 167.837 214.92 174.631 223.707 179.369C214.92 174.631 205.498 167.771 197.019 158.751C187.944 149.187 179.506 137.409 171.878 123.51C162.555 106.363 155.922 91.4437 151.355 80.53C147.926 72.4541 145.61 66.6458 144.63 64.3384C146.128 65.4795 147.532 66.7928 149.029 67.9339C150.739 69.3005 152.488 70.7997 154.33 72.1265C154.528 72.7895 154.965 74.2481 155.772 76.4626C156.818 79.4727 158.432 83.9017 160.802 89.4051C163.172 94.9084 166.469 101.579 170.786 109.244C175.369 116.831 180.759 125.186 188.152 133.954C199.889 148.067 212.185 159.702 225.358 168.473C226.988 169.574 228.618 170.676 230.208 171.644C231.931 172.573 233.521 173.542 235.244 174.471C238.425 176.409 242.056 177.922 245.383 179.383C248.71 180.843 252.355 181.919 255.695 182.942C257.564 183.394 259.566 183.806 261.528 184.086C259.871 183.859 258.002 183.408 256.305 183.049C250.95 182.051 247.53 180.763 244.243 179.435Z" fill="url(#paint9_linear_1409_37993)" fill-opacity="0.2"/>
<path d="M259.513 184.111C259.685 184.204 259.818 184.165 260.123 184.218C259.95 184.125 259.645 184.072 259.513 184.111Z" fill="url(#paint10_linear_1409_37993)" fill-opacity="0.2"/>
<path d="M259.639 172.949C259.334 172.895 258.897 172.882 258.592 172.829C258.764 172.921 259.029 172.842 259.202 172.935L259.639 172.949Z" fill="url(#paint11_linear_1409_37993)" fill-opacity="0.2"/>
<path d="M255.888 172.483C256.192 172.536 256.325 172.496 256.63 172.549C256.325 172.496 256.06 172.575 255.888 172.483Z" fill="url(#paint12_linear_1409_37993)" fill-opacity="0.2"/>
<path d="M258.592 172.829C258.287 172.775 257.849 172.762 257.544 172.708C257.982 172.722 258.287 172.775 258.592 172.829Z" fill="url(#paint13_linear_1409_37993)" fill-opacity="0.2"/>
<path d="M244.7 168.896C242.195 167.767 239.69 166.639 237.238 165.205C234.787 163.772 232.335 162.339 229.936 160.601C227.538 158.862 225.139 157.124 222.834 155.214C220.528 153.303 218.315 151.22 216.063 149.005C213.943 146.75 211.956 144.455 209.796 142.067C207.769 139.64 205.703 137.08 203.596 134.388C193.41 121.11 185.369 109.214 179.634 100.672C173.899 92.1308 170.468 86.945 170.468 86.945C170.468 86.945 170.998 88.2313 171.978 90.5387C172.957 92.8461 174.559 96.2676 176.877 100.631C181.339 109.264 188.239 121.213 199.645 134.703C201.924 137.489 204.256 139.969 206.455 142.49C208.654 145.01 211.079 147.318 213.464 149.494C218.274 153.978 223.455 157.773 228.61 160.997C233.766 164.222 239.067 166.97 244.17 169.054C246.675 170.183 249.366 170.967 251.884 171.658C253.143 172.003 254.403 172.348 255.622 172.561C255.755 172.522 255.794 172.654 255.927 172.615C254.707 172.402 253.581 172.017 252.322 171.671C249.763 170.848 247.033 169.931 244.7 168.896Z" fill="url(#paint14_linear_1409_37993)" fill-opacity="0.2"/>
<path d="M304.907 161.999C303.581 162.396 302.215 162.66 300.85 162.925C302.48 162.581 303.979 162.277 305.437 161.84L304.907 161.999Z" fill="url(#paint15_linear_1409_37993)" fill-opacity="0.2"/>
<path d="M266.823 154.472C265.086 153.98 263.443 153.317 261.534 152.732C259.758 152.108 257.982 151.484 256.166 150.727C248.717 148.044 241.878 144.023 234.656 139.683C223.272 132.544 215.348 125.38 209.36 119.371C207.876 117.792 206.471 116.479 205.16 114.993C203.888 113.64 202.748 112.247 201.649 110.987C199.45 108.467 197.767 106.225 196.469 104.302L196.297 104.209C199.026 108.016 202.589 113.162 208.087 119.463C213.545 125.631 220.58 133.205 231.327 141.113C238.006 146.049 245.282 150.084 252.943 152.992C260.471 155.94 268.12 157.84 275.106 158.494C276.896 158.681 278.646 158.735 280.263 158.829C281.881 158.923 283.365 159.056 284.903 158.885C287.886 158.714 290.339 158.702 292.58 158.465C296.889 157.898 299.222 157.488 299.222 157.488C299.222 157.488 297.075 157.553 293.084 157.736C291.108 157.894 288.709 157.601 286.084 157.52C283.327 157.478 280.45 157.039 277.136 156.586C276.393 156.52 275.479 156.36 274.564 156.2C273.782 156.001 272.867 155.841 272.085 155.642C270.256 155.323 268.559 154.964 266.823 154.472Z" fill="url(#paint16_linear_1409_37993)" fill-opacity="0.2"/>
<path d="M224.312 122.986C222.814 121.845 221.529 120.929 220.376 119.974C219.223 119.018 218.282 118.289 217.381 117.692C215.712 116.458 214.903 115.688 214.903 115.688C214.903 115.688 215.407 116.404 216.586 117.93C217.725 119.322 219.5 121.392 221.965 123.833C226.893 128.714 234.393 135.427 246.388 141.228C255.877 145.901 265.514 148.651 274.236 149.796C282.919 150.809 290.728 150.35 296.403 149.518L296.668 149.439C293.725 149.742 290.424 150.297 286.751 150.096C285.001 150.042 282.986 150.067 281.024 149.787C279.062 149.508 277.1 149.228 275.006 148.988C266.867 147.379 257.986 144.258 249.292 139.347C238.57 133.454 230.262 127.417 224.312 122.986Z" fill="url(#paint17_linear_1409_37993)" fill-opacity="0.2"/>
<path d="M242.418 129.413C239.74 128.192 237.766 126.905 236.387 126.161C235.009 125.418 234.148 124.954 234.148 124.954C234.148 124.954 235.962 127.156 240.282 130.486C244.563 133.683 251.388 138.142 261.634 140.999C263.808 141.504 265.717 142.088 267.718 142.501C269.72 142.913 271.682 143.192 273.604 143.339C275.526 143.486 277.449 143.634 279.198 143.688C280.988 143.874 282.698 143.796 284.409 143.717C286.119 143.639 287.697 143.6 289.235 143.429C290.733 143.125 292.271 142.953 293.637 142.689C296.408 142.293 298.794 141.578 300.823 141.116L300.956 141.076C298.927 141.539 296.54 142.253 293.862 142.477C292.457 142.609 291.051 142.74 289.646 142.872C288.108 143.043 286.623 142.91 285.046 142.949C281.85 142.894 278.536 142.441 274.878 141.802C271.352 141.124 267.746 140.181 264.022 138.839C254.836 135.665 247.547 132.068 242.418 129.413Z" fill="url(#paint18_linear_1409_37993)" fill-opacity="0.2"/>
<path d="M297.813 120.923C297.641 120.83 297.641 120.83 297.813 120.923V120.923Z" fill="url(#paint19_linear_1409_37993)" fill-opacity="0.2"/>
<path d="M292.765 115.643C292.632 115.683 292.5 115.723 292.235 115.802C292.5 115.723 292.5 115.723 292.765 115.643Z" fill="url(#paint20_linear_1409_37993)" fill-opacity="0.2"/>
<path d="M225.814 115.456C222.619 115.401 220.167 115.413 218.417 115.359C216.667 115.305 215.659 115.317 215.659 115.317C215.659 115.317 216.746 115.57 218.615 116.022C220.484 116.474 223.268 117.085 226.622 117.671C233.462 118.802 243.073 119.537 252.633 117.687C260.429 116.22 265.641 113.359 269.991 111.479C272.086 110.274 274.248 109.772 275.892 108.991C276.82 108.713 277.616 108.475 278.411 108.236C279.167 107.866 279.83 107.667 280.493 107.469L280.626 107.429C279.963 107.628 279.34 107.959 278.544 108.197C277.749 108.435 276.913 108.54 275.852 108.858C274.924 109.136 274.036 109.546 272.803 109.771C271.702 109.956 270.548 110.446 269.355 110.803C264.449 112.271 258.694 114.283 250.659 114.954C240.915 115.704 232.072 115.606 225.814 115.456Z" fill="url(#paint21_linear_1409_37993)" fill-opacity="0.2"/>
<path d="M240.814 106.199C228.432 105.86 217.641 105.044 209.859 104.629C202.17 104.04 197.623 103.812 197.623 103.812C197.623 103.812 198.882 104.158 201.096 104.796C203.309 105.433 206.57 106.191 210.706 106.976C218.806 108.452 230.14 110.116 242.165 109.262C251.817 108.685 259.401 106.992 265.103 105.286C270.805 103.579 274.505 101.46 277.422 100.587L277.555 100.547C274.637 101.42 270.858 103.274 264.732 104.53C258.832 105.573 250.837 106.377 240.814 106.199Z" fill="url(#paint22_linear_1409_37993)" fill-opacity="0.2"/>
<path d="M198.329 97.9661C207.343 99.6023 220.122 101.267 233.712 100.812C244.583 100.447 253.427 99.1002 259.911 97.5928C266.567 96.1783 271.049 94.2587 274.165 94.0485L274.297 94.0088C271.049 94.2587 266.58 95.7409 259.633 96.6646C252.685 97.5884 243.603 98.1397 232.229 97.788C218.189 97.2226 205.874 96.1412 197.177 95.5658C188.481 94.9904 183.363 94.7884 183.363 94.7884C183.363 94.7884 184.755 95.0942 187.274 95.7851C190.018 96.2641 193.756 97.1678 198.329 97.9661Z" fill="url(#paint23_linear_1409_37993)" fill-opacity="0.2"/>
<path d="M268.229 87.7342C267.924 87.681 267.619 87.6277 267.354 87.7071C267.659 87.7603 268.096 87.7738 268.401 87.8271L268.229 87.7342Z" fill="url(#paint24_linear_1409_37993)" fill-opacity="0.2"/>
<path d="M267.305 80.7869L267.133 80.694C267.305 80.7869 267.438 80.7472 267.61 80.8401L267.305 80.7869Z" fill="url(#paint25_linear_1409_37993)" fill-opacity="0.2"/>
<path d="M256.087 64.0624C256.087 64.0624 256.259 64.1553 256.431 64.2482C256.431 64.2482 256.259 64.1553 256.087 64.0624Z" fill="url(#paint26_linear_1409_37993)" fill-opacity="0.2"/>
<path d="M257.041 64.3545C257.346 64.4077 257.558 64.6333 257.73 64.7262C257.425 64.673 257.213 64.4474 257.041 64.3545Z" fill="url(#paint27_linear_1409_37993)" fill-opacity="0.2"/>
<path d="M255.649 64.0489C255.782 64.0092 255.821 64.1418 255.954 64.1022C255.954 64.1022 255.782 64.0092 255.649 64.0489Z" fill="url(#paint28_linear_1409_37993)" fill-opacity="0.2"/>
<path d="M257.73 64.7262C257.902 64.8191 258.075 64.9119 258.075 64.9119L257.73 64.7262Z" fill="url(#paint29_linear_1409_37993)" fill-opacity="0.2"/>
<path d="M182.654 41.2539C180.082 40.8678 177.378 40.5215 174.753 40.4403C172.433 40.4124 170.073 40.2518 167.885 40.1842C163.338 39.9561 158.963 39.8208 154.814 39.4736C146.555 38.9117 139.171 38.3769 132.927 37.7897C126.722 37.3351 121.831 36.9212 118.424 36.6407C115.017 36.3602 113.267 36.3061 113.267 36.3061C113.267 36.3061 115.308 36.8509 118.913 37.7944C122.519 38.7379 127.781 39.9078 134.224 41.1579C140.666 42.4081 148.381 43.5662 156.853 44.3536C161.042 44.8334 165.589 45.0616 170.096 45.1572C172.416 45.1851 174.736 45.213 177.057 45.241C178.236 45.3212 179.204 45.176 180.384 45.2563C181.564 45.3365 182.744 45.4168 183.924 45.4971C191.918 46.1383 199.5 47.3361 206.526 48.1226C213.42 48.9488 219.703 49.6686 225.337 50.1493C230.972 50.63 235.863 51.044 240.052 51.5239C244.242 52.0037 247.953 52.3374 250.896 53.4794L251.201 53.5326C248.391 52.3509 244.679 52.0172 240.411 51.2722C235.877 50.6065 230.866 49.7948 225.418 48.9694C219.757 47.9186 213.262 46.9734 206.17 45.4842C199.025 44.2999 191.151 42.6113 182.654 41.2539Z" fill="url(#paint30_linear_1409_37993)" fill-opacity="0.2"/>
<path d="M221.044 26.151C220.911 26.1907 220.739 26.0977 220.739 26.0977L221.044 26.151Z" fill="url(#paint31_linear_1409_37993)" fill-opacity="0.2"/>
<path d="M215.132 24.7419C217.173 25.2867 218.909 25.7783 220.606 26.1373C219.002 25.606 217.133 25.1541 215.132 24.7419Z" fill="url(#paint32_linear_1409_37993)" fill-opacity="0.2"/>
<path d="M78.5979 -27.868C75.6384 -22.7922 73.395 -18.2197 71.5233 -14.3364C67.7799 -6.56974 66.0932 -1.58595 66.0932 -1.58595C66.0932 -1.58595 69.7545 -5.28255 75.3002 -11.8549C78.073 -15.1411 81.3104 -19.2887 84.7336 -23.7809C86.3654 -25.5697 89.3096 -27.3179 92.5055 -28.7079C95.6618 -30.2306 99.3349 -31.4746 103.141 -32.7582C109.373 -34.6237 115.578 -35.6142 121.597 -36.2602C124.673 -36.603 127.656 -36.7735 130.679 -36.8114C133.569 -36.8097 136.366 -36.6356 139.164 -36.4615C144.665 -35.9411 149.981 -35.0761 154.978 -33.8268C155.588 -33.7204 156.237 -33.4814 156.847 -33.3749C157.497 -33.1359 157.895 -33.255 158.372 -33.1089C159.286 -32.9492 160.161 -32.9222 161.076 -32.7625C162.733 -32.5361 164.43 -32.1771 165.954 -31.911L166.259 -31.8578C164.735 -32.1239 163.171 -32.5226 161.474 -32.8816C160.559 -33.0412 159.644 -33.2009 158.73 -33.3605L157.987 -33.4273C157.683 -33.4805 157.55 -33.4408 157.205 -33.6266C156.556 -33.8657 155.946 -33.9721 155.297 -34.2111C150.048 -35.8185 144.441 -37.1742 138.475 -38.2782C136.951 -38.5443 135.426 -38.8104 133.942 -38.9439C132.417 -39.21 130.8 -39.3038 129.182 -39.3976C125.948 -39.5851 122.58 -39.733 119.253 -39.7483C115.925 -39.7636 112.505 -39.6066 109.124 -39.3171C105.61 -38.9878 102.044 -38.3536 98.5167 -37.5868C94.1941 -36.5819 90.3487 -35.4308 87.0599 -33.8685C83.5988 -32.399 80.6545 -30.6508 78.5979 -27.868Z" fill="url(#paint33_linear_1409_37993)" fill-opacity="0.2"/>
<path d="M74.8434 -45.2377C65.9818 -36.228 63.3236 -25.3186 61.9003 -17.5241C60.6493 -9.63661 61.1897 -4.4526 61.1897 -4.4526C61.1897 -4.4526 62.8096 -8.69401 65.9956 -15.4269C69.1815 -22.1598 73.7214 -31.6096 80.8068 -41.2435C83.7258 -45.0068 86.9361 -48.2795 90.4378 -51.0614C93.8466 -53.6711 97.6794 -55.8297 101.485 -57.1134C103.262 -57.9342 105.291 -58.397 107.187 -58.8201C109.083 -59.2432 110.979 -59.6662 112.65 -59.8773C116.64 -60.0605 120.061 -60.2175 123.256 -60.1625L123.561 -60.1093C120.498 -60.204 116.733 -60.2328 112.531 -60.2751C110.555 -60.1173 108.58 -59.9594 106.472 -59.7618C104.363 -59.5642 101.95 -59.4199 99.9615 -58.8245C97.8002 -58.322 95.546 -57.6473 93.1592 -56.9329C91.117 -56.0326 88.9422 -55.0926 86.6745 -53.9804C82.4439 -51.7027 78.3721 -48.8946 74.8434 -45.2377Z" fill="url(#paint34_linear_1409_37993)" fill-opacity="0.2"/>
<path d="M41.0703 -13.7454C41.0703 -13.7454 43.0214 -17.3635 46.0215 -23.7518C48.9287 -29.9678 52.7523 -38.9143 56.9215 -49.1201C60.2409 -57.3377 63.9969 -64.0968 68.3483 -68.8668C72.6997 -73.6368 78.2562 -76.3115 83.5467 -77.4616L83.8119 -77.541C78.6937 -76.2979 72.1567 -74.4857 66.5063 -70.1937C60.6837 -65.9946 55.1119 -59.9924 50.5332 -52.1202C44.7999 -42.3131 42.9643 -32.5169 42.0452 -25.4512C40.9006 -18.1735 41.0703 -13.7454 41.0703 -13.7454Z" fill="url(#paint35_linear_1409_37993)" fill-opacity="0.2"/>
<defs>
<linearGradient id="paint0_linear_1409_37993" x1="41.5981" y1="6.79995" x2="186.43" y2="180.963" gradientUnits="userSpaceOnUse">
<stop stop-color="#C4A767" stop-opacity="0.1"/>
<stop offset="0.693762" stop-color="#C4A767"/>
</linearGradient>
<linearGradient id="paint1_linear_1409_37993" x1="41.5981" y1="6.79995" x2="186.43" y2="180.963" gradientUnits="userSpaceOnUse">
<stop stop-color="#C4A767" stop-opacity="0.1"/>
<stop offset="0.693762" stop-color="#C4A767"/>
</linearGradient>
<linearGradient id="paint2_linear_1409_37993" x1="41.5981" y1="6.79995" x2="186.43" y2="180.963" gradientUnits="userSpaceOnUse">
<stop stop-color="#C4A767" stop-opacity="0.1"/>
<stop offset="0.693762" stop-color="#C4A767"/>
</linearGradient>
<linearGradient id="paint3_linear_1409_37993" x1="41.5981" y1="6.79995" x2="186.43" y2="180.963" gradientUnits="userSpaceOnUse">
<stop stop-color="#C4A767" stop-opacity="0.1"/>
<stop offset="0.693762" stop-color="#C4A767"/>
</linearGradient>
<linearGradient id="paint4_linear_1409_37993" x1="41.5981" y1="6.79995" x2="186.43" y2="180.963" gradientUnits="userSpaceOnUse">
<stop stop-color="#C4A767" stop-opacity="0.1"/>
<stop offset="0.693762" stop-color="#C4A767"/>
</linearGradient>
<linearGradient id="paint5_linear_1409_37993" x1="41.5981" y1="6.79995" x2="186.43" y2="180.963" gradientUnits="userSpaceOnUse">
<stop stop-color="#C4A767" stop-opacity="0.1"/>
<stop offset="0.693762" stop-color="#C4A767"/>
</linearGradient>
<linearGradient id="paint6_linear_1409_37993" x1="41.5981" y1="6.79995" x2="186.43" y2="180.963" gradientUnits="userSpaceOnUse">
<stop stop-color="#C4A767" stop-opacity="0.1"/>
<stop offset="0.693762" stop-color="#C4A767"/>
</linearGradient>
<linearGradient id="paint7_linear_1409_37993" x1="41.5981" y1="6.79995" x2="186.43" y2="180.963" gradientUnits="userSpaceOnUse">
<stop stop-color="#C4A767" stop-opacity="0.1"/>
<stop offset="0.693762" stop-color="#C4A767"/>
</linearGradient>
<linearGradient id="paint8_linear_1409_37993" x1="41.5981" y1="6.79995" x2="186.43" y2="180.963" gradientUnits="userSpaceOnUse">
<stop stop-color="#C4A767" stop-opacity="0.1"/>
<stop offset="0.693762" stop-color="#C4A767"/>
</linearGradient>
<linearGradient id="paint9_linear_1409_37993" x1="41.5981" y1="6.79995" x2="186.43" y2="180.963" gradientUnits="userSpaceOnUse">
<stop stop-color="#C4A767" stop-opacity="0.1"/>
<stop offset="0.693762" stop-color="#C4A767"/>
</linearGradient>
<linearGradient id="paint10_linear_1409_37993" x1="41.5981" y1="6.79995" x2="186.43" y2="180.963" gradientUnits="userSpaceOnUse">
<stop stop-color="#C4A767" stop-opacity="0.1"/>
<stop offset="0.693762" stop-color="#C4A767"/>
</linearGradient>
<linearGradient id="paint11_linear_1409_37993" x1="41.5981" y1="6.79995" x2="186.43" y2="180.963" gradientUnits="userSpaceOnUse">
<stop stop-color="#C4A767" stop-opacity="0.1"/>
<stop offset="0.693762" stop-color="#C4A767"/>
</linearGradient>
<linearGradient id="paint12_linear_1409_37993" x1="41.5981" y1="6.79995" x2="186.43" y2="180.963" gradientUnits="userSpaceOnUse">
<stop stop-color="#C4A767" stop-opacity="0.1"/>
<stop offset="0.693762" stop-color="#C4A767"/>
</linearGradient>
<linearGradient id="paint13_linear_1409_37993" x1="41.5981" y1="6.79995" x2="186.43" y2="180.963" gradientUnits="userSpaceOnUse">
<stop stop-color="#C4A767" stop-opacity="0.1"/>
<stop offset="0.693762" stop-color="#C4A767"/>
</linearGradient>
<linearGradient id="paint14_linear_1409_37993" x1="41.5981" y1="6.79995" x2="186.43" y2="180.963" gradientUnits="userSpaceOnUse">
<stop stop-color="#C4A767" stop-opacity="0.1"/>
<stop offset="0.693762" stop-color="#C4A767"/>
</linearGradient>
<linearGradient id="paint15_linear_1409_37993" x1="41.5981" y1="6.79995" x2="186.43" y2="180.963" gradientUnits="userSpaceOnUse">
<stop stop-color="#C4A767" stop-opacity="0.1"/>
<stop offset="0.693762" stop-color="#C4A767"/>
</linearGradient>
<linearGradient id="paint16_linear_1409_37993" x1="41.5981" y1="6.79995" x2="186.43" y2="180.963" gradientUnits="userSpaceOnUse">
<stop stop-color="#C4A767" stop-opacity="0.1"/>
<stop offset="0.693762" stop-color="#C4A767"/>
</linearGradient>
<linearGradient id="paint17_linear_1409_37993" x1="41.5981" y1="6.79995" x2="186.43" y2="180.963" gradientUnits="userSpaceOnUse">
<stop stop-color="#C4A767" stop-opacity="0.1"/>
<stop offset="0.693762" stop-color="#C4A767"/>
</linearGradient>
<linearGradient id="paint18_linear_1409_37993" x1="41.5981" y1="6.79995" x2="186.43" y2="180.963" gradientUnits="userSpaceOnUse">
<stop stop-color="#C4A767" stop-opacity="0.1"/>
<stop offset="0.693762" stop-color="#C4A767"/>
</linearGradient>
<linearGradient id="paint19_linear_1409_37993" x1="41.5981" y1="6.79995" x2="186.43" y2="180.963" gradientUnits="userSpaceOnUse">
<stop stop-color="#C4A767" stop-opacity="0.1"/>
<stop offset="0.693762" stop-color="#C4A767"/>
</linearGradient>
<linearGradient id="paint20_linear_1409_37993" x1="41.5981" y1="6.79995" x2="186.43" y2="180.963" gradientUnits="userSpaceOnUse">
<stop stop-color="#C4A767" stop-opacity="0.1"/>
<stop offset="0.693762" stop-color="#C4A767"/>
</linearGradient>
<linearGradient id="paint21_linear_1409_37993" x1="41.5981" y1="6.79995" x2="186.43" y2="180.963" gradientUnits="userSpaceOnUse">
<stop stop-color="#C4A767" stop-opacity="0.1"/>
<stop offset="0.693762" stop-color="#C4A767"/>
</linearGradient>
<linearGradient id="paint22_linear_1409_37993" x1="41.5981" y1="6.79995" x2="186.43" y2="180.963" gradientUnits="userSpaceOnUse">
<stop stop-color="#C4A767" stop-opacity="0.1"/>
<stop offset="0.693762" stop-color="#C4A767"/>
</linearGradient>
<linearGradient id="paint23_linear_1409_37993" x1="41.5981" y1="6.79995" x2="186.43" y2="180.963" gradientUnits="userSpaceOnUse">
<stop stop-color="#C4A767" stop-opacity="0.1"/>
<stop offset="0.693762" stop-color="#C4A767"/>
</linearGradient>
<linearGradient id="paint24_linear_1409_37993" x1="41.5981" y1="6.79995" x2="186.43" y2="180.963" gradientUnits="userSpaceOnUse">
<stop stop-color="#C4A767" stop-opacity="0.1"/>
<stop offset="0.693762" stop-color="#C4A767"/>
</linearGradient>
<linearGradient id="paint25_linear_1409_37993" x1="41.5981" y1="6.79995" x2="186.43" y2="180.963" gradientUnits="userSpaceOnUse">
<stop stop-color="#C4A767" stop-opacity="0.1"/>
<stop offset="0.693762" stop-color="#C4A767"/>
</linearGradient>
<linearGradient id="paint26_linear_1409_37993" x1="41.5981" y1="6.79995" x2="186.43" y2="180.963" gradientUnits="userSpaceOnUse">
<stop stop-color="#C4A767" stop-opacity="0.1"/>
<stop offset="0.693762" stop-color="#C4A767"/>
</linearGradient>
<linearGradient id="paint27_linear_1409_37993" x1="41.5981" y1="6.79995" x2="186.43" y2="180.963" gradientUnits="userSpaceOnUse">
<stop stop-color="#C4A767" stop-opacity="0.1"/>
<stop offset="0.693762" stop-color="#C4A767"/>
</linearGradient>
<linearGradient id="paint28_linear_1409_37993" x1="41.5981" y1="6.79995" x2="186.43" y2="180.963" gradientUnits="userSpaceOnUse">
<stop stop-color="#C4A767" stop-opacity="0.1"/>
<stop offset="0.693762" stop-color="#C4A767"/>
</linearGradient>
<linearGradient id="paint29_linear_1409_37993" x1="41.5981" y1="6.79995" x2="186.43" y2="180.963" gradientUnits="userSpaceOnUse">
<stop stop-color="#C4A767" stop-opacity="0.1"/>
<stop offset="0.693762" stop-color="#C4A767"/>
</linearGradient>
<linearGradient id="paint30_linear_1409_37993" x1="41.5981" y1="6.79995" x2="186.43" y2="180.963" gradientUnits="userSpaceOnUse">
<stop stop-color="#C4A767" stop-opacity="0.1"/>
<stop offset="0.693762" stop-color="#C4A767"/>
</linearGradient>
<linearGradient id="paint31_linear_1409_37993" x1="41.5981" y1="6.79995" x2="186.43" y2="180.963" gradientUnits="userSpaceOnUse">
<stop stop-color="#C4A767" stop-opacity="0.1"/>
<stop offset="0.693762" stop-color="#C4A767"/>
</linearGradient>
<linearGradient id="paint32_linear_1409_37993" x1="41.5981" y1="6.79995" x2="186.43" y2="180.963" gradientUnits="userSpaceOnUse">
<stop stop-color="#C4A767" stop-opacity="0.1"/>
<stop offset="0.693762" stop-color="#C4A767"/>
</linearGradient>
<linearGradient id="paint33_linear_1409_37993" x1="41.5981" y1="6.79995" x2="186.43" y2="180.963" gradientUnits="userSpaceOnUse">
<stop stop-color="#C4A767" stop-opacity="0.1"/>
<stop offset="0.693762" stop-color="#C4A767"/>
</linearGradient>
<linearGradient id="paint34_linear_1409_37993" x1="41.5981" y1="6.79995" x2="186.43" y2="180.963" gradientUnits="userSpaceOnUse">
<stop stop-color="#C4A767" stop-opacity="0.1"/>
<stop offset="0.693762" stop-color="#C4A767"/>
</linearGradient>
<linearGradient id="paint35_linear_1409_37993" x1="41.5981" y1="6.79995" x2="186.43" y2="180.963" gradientUnits="userSpaceOnUse">
<stop stop-color="#C4A767" stop-opacity="0.1"/>
<stop offset="0.693762" stop-color="#C4A767"/>
</linearGradient>
</defs>
</svg>
