<svg width="227" height="653" viewBox="0 0 227 653" fill="none" xmlns="http://www.w3.org/2000/svg">
<path d="M156.103 140.842C159.654 144.103 162.97 147.175 165.864 150.291C163.015 147.598 159.676 144.314 156.103 140.842Z" fill="#163127" fill-opacity="0.15"/>
<path d="M166.355 150.881C166.121 150.692 166.098 150.48 165.864 150.291L166.355 150.881Z" fill="#163127" fill-opacity="0.15"/>
<path d="M193.014 251.775C189.163 247.69 184.822 243.016 180.014 237.963C160.402 218.219 132.12 195.325 99.0294 175.503C72.3056 159.287 49.2549 149.526 30.5784 142.726C12.4584 137.15 -2.07761 133.122 -12.9852 131.063L-13.4304 130.896C-2.50055 133.166 11.6904 135.948 29.5877 139.409C33.9508 140.233 38.9928 141.413 44.0793 143.015C49.1435 144.406 54.6752 146.176 60.4407 148.135C71.7601 152.074 84.4819 157.15 98.2278 163.827C132.042 180.366 161.971 206.721 181.349 230.339C186.057 236.471 190.51 242.203 194.216 246.945C197.778 252.343 200.85 257.151 203.176 260.968C205.502 264.786 207.339 268.014 208.619 270.017C209.899 272.02 210.456 273.245 210.456 273.245C210.456 273.245 207.729 269.683 202.341 263.194C199.893 260.245 196.676 256.094 193.014 251.775Z" fill="#163127" fill-opacity="0.15"/>
<path d="M218.104 339.791L218.427 340.827C218.382 340.404 218.104 339.791 218.059 339.368C218.081 339.58 218.081 339.58 218.104 339.791Z" fill="#163127" fill-opacity="0.15"/>
<path d="M211.793 326.558C209.166 321.917 206.138 317.532 203.044 312.512C196.522 303.363 189.042 293.246 180.293 283.263C175.908 278.165 171.289 272.879 166.48 267.826C161.65 262.561 156.396 257.341 150.887 251.721C140.146 241.092 127.969 231.041 114.824 221.948C82.1236 199.734 53.2963 185.877 32.6163 176.295C11.9585 166.924 -0.741074 162.06 -0.741074 162.06C-0.741074 162.06 2.26405 162.171 7.68445 162.884C13.1048 163.596 21.3857 165.076 31.5142 167.858C52.0049 173.612 81.5779 184.396 115.314 210.351C128.826 220.902 140.947 232.455 151.844 244.564C162.551 256.907 172.068 268.093 180.527 279.389C188.964 290.475 196.277 301.037 202.866 310.82C207.775 318.856 212.383 326.068 215.744 333.626C215.744 333.626 215.722 333.414 215.51 333.436C214.397 330.988 213.117 328.984 211.793 326.558Z" fill="#163127" fill-opacity="0.15"/>
<path d="M217.847 339.391C217.224 337.532 216.389 335.696 215.554 333.859C216.6 335.673 217.435 337.51 217.847 339.391Z" fill="#163127" fill-opacity="0.15"/>
<path d="M208.825 479.108C208.891 479.742 208.958 480.376 208.836 481.245C208.769 480.61 208.891 479.742 208.825 479.108Z" fill="#163127" fill-opacity="0.15"/>
<path d="M208.936 484.227C209.036 483.148 208.947 482.302 208.836 481.245C208.903 481.879 208.969 482.513 208.824 483.17L208.936 484.227Z" fill="#163127" fill-opacity="0.15"/>
<path d="M195.457 508.525C195.368 507.679 195.279 506.833 195.19 505.987C195.302 507.044 195.435 508.313 195.546 509.37L195.457 508.525Z" fill="#163127" fill-opacity="0.15"/>
<path d="M172.576 591.756C173.099 590.632 173.389 589.319 173.912 588.195C173.578 589.085 173.433 589.742 173.099 590.632L172.576 591.756Z" fill="#163127" fill-opacity="0.15"/>
<path d="M174.324 586.013C174.179 586.67 173.823 587.349 173.678 588.005C174.034 587.326 174.179 586.67 174.324 586.013Z" fill="#163127" fill-opacity="0.15"/>
<path d="M178.296 548.605C177.751 541.393 177.372 533.735 176.17 526.378C174.968 519.021 173.743 511.453 171.461 503.995C163.603 474.033 150.157 443.804 131.48 412.629C120.015 393.096 108.439 376.568 98.0992 361.621C87.5919 347.118 77.7081 334.475 69.5495 324.002C55.5362 306.661 46.1866 295.031 43.5042 291.892C43.8715 293.35 44.4281 294.574 44.7954 296.032L44.7731 295.821C44.7731 295.821 44.7731 295.821 44.7954 296.032C49.3814 311.158 53.7114 325.883 57.6184 340.653C60.1897 350.859 62.7165 360.642 65.0318 370.448C68.3932 373.943 74.949 381.377 83.9202 393.476C90.1644 402.012 97.3102 413.02 104.534 426.799C111.758 440.578 119.06 457.128 124.814 477.262C129.512 493.445 132.116 510.062 133.363 525.967C133.787 534.048 134.21 542.128 133.553 550.109C133.32 558.044 132.218 565.858 131.094 573.46C126.899 600.628 116.047 625.504 103.638 643.702C115.814 625.315 125.463 601.207 128.924 575.185C132.64 545.501 129.512 513.758 119.661 483.15C113.806 464.095 106.761 447.946 99.9374 433.911C98.2901 430.449 96.6427 426.988 95.0176 423.738C93.3925 420.488 91.7897 417.45 90.1869 414.411C87.0036 408.546 84.0762 403.081 81.2157 398.25C75.706 388.567 70.8642 381.166 67.7477 375.935C66.7236 374.332 65.9557 373.13 65.1876 371.928C67.4584 381.311 69.4955 390.504 71.1096 399.742C72.9796 409.381 74.5937 418.619 75.9741 427.667C76.6754 432.298 77.3545 436.716 78.0335 441.135C78.5011 445.576 79.1801 449.994 79.6254 454.224C80.4938 462.471 81.1284 470.529 81.507 478.187C81.507 478.187 81.507 478.187 81.5293 478.398C81.9524 486.479 82.1196 494.159 82.0307 501.438C81.8084 515.573 81.2188 528.25 79.5385 538.69C79.1267 540.872 78.9042 542.82 78.6816 544.767C78.7261 545.19 78.7707 545.613 78.6037 546.058C78.448 548.641 78.4035 552.28 77.836 557.044C77.4799 561.785 76.1556 567.484 74.4751 573.862C73.518 576.956 72.394 580.495 71.0584 584.057C69.7229 587.619 67.753 591.247 66.0168 595.065C64.6367 598.203 62.7892 600.964 60.9194 603.513C59.0718 606.273 57.625 608.777 55.7329 611.115C51.9488 615.789 48.7768 620.186 45.0928 623.781C38.3815 631.116 32.0598 636.058 28.0196 640.332L27.8304 640.566C31.8706 636.292 37.7471 631.183 43.3343 623.325C49.1774 615.867 54.9648 605.85 60.1512 594.186C66.5284 579.616 70.29 566.605 73.5843 557.278C75.02 552.636 76.1218 548.886 77.1234 546.214C77.9136 543.565 78.4144 542.23 78.4144 542.23C78.4144 542.23 78.4812 542.864 78.6148 544.133C78.8596 542.397 79.1045 540.66 79.3493 538.924C80.2507 533.27 80.8515 526.792 81.1964 519.914C81.0517 520.57 80.9293 521.439 80.6177 522.541C79.8498 525.401 79.1932 529.319 77.5461 533.982C74.4855 543.499 69.0098 556.477 60.2284 568.52C56.4666 573.406 53.2946 577.802 49.6106 581.397C47.8855 583.289 46.3496 584.948 44.6245 586.84C42.8771 588.521 41.3189 589.968 39.7607 591.415C36.8781 594.498 33.9064 596.735 31.5914 599.117C30.4339 600.308 29.2764 601.499 28.3304 602.668C27.3621 603.625 26.6275 604.771 26.0821 605.684C26.6275 604.771 27.1729 603.859 27.9297 602.924C28.8757 601.755 29.7995 600.375 30.957 599.184C33.2497 596.59 35.9431 593.741 38.5698 590.257C39.8942 588.621 41.4078 586.751 42.9215 584.881C44.2014 582.822 45.6928 580.741 47.1842 578.659C48.887 576.556 50.1224 574.074 51.5916 571.781C53.0384 569.277 54.9082 566.728 56.1213 564.034C63.9009 550.6 69.5103 538.891 74.04 531.144C77.4123 524.589 80.1836 520.448 80.8958 519.09C81.1851 513.714 81.2406 508.149 81.2516 502.161C81.4073 495.517 81.1177 488.705 80.7836 481.47C80.6612 482.339 80.5388 483.207 80.4387 484.286C79.949 487.759 78.7916 493.012 77.3004 499.156C74.1063 511.466 68.6084 528.295 58.7921 544.723C50.9902 557.946 43.0435 567.763 36.1208 575.12C30.5892 581.476 25.2803 585.883 21.6631 590.113C25.2803 585.883 29.8658 580.697 34.6961 573.774C40.8508 565.214 48.0295 554.195 54.6404 539.815C62.8206 522.062 69.1087 506.647 73.7275 495.684C76.1537 490.297 77.8454 486.056 79.2477 483.129C79.9377 481.559 80.4608 480.435 80.817 479.756C80.4161 471.887 79.7592 463.618 78.6349 454.97C78.1896 450.74 77.5105 446.322 77.0429 441.881C76.3639 437.462 75.6849 433.043 74.9836 428.413C73.6032 419.364 71.9668 409.915 70.119 400.488C67.9929 390.449 65.8223 379.986 63.2287 369.569C62.7167 368.767 62.4829 368.578 62.4829 368.578C62.4829 368.578 62.7167 368.767 62.9727 369.168C60.7242 359.997 58.4757 350.826 55.9934 341.465C55.3033 338.972 54.5909 336.267 53.9008 333.774C53.7227 336.145 52.1982 348.065 48.9709 366.152C45.0981 386.231 38.5765 413.644 27.4249 441.759C18.4657 464.298 9.41731 481.928 1.61542 495.151C-2.39127 501.774 -5.8526 507.484 -8.76857 512.281C-9.50313 513.427 -10.2154 514.785 -10.7385 515.909C-11.4731 517.056 -12.0184 517.968 -12.5415 519.092C-12.9199 519.56 -13.0646 520.217 -13.2315 520.662C-13.0646 520.217 -12.8977 519.771 -12.7307 519.326C-11.6623 517.289 -10.4046 515.019 -9.1915 512.325C-6.50926 507.339 -3.30394 501.228 0.23526 494.227C7.07994 480.036 14.8928 460.826 22.6388 436.918C32.132 407.267 39.6108 380.822 45.3758 362.468C50.4507 345.684 53.8452 335.277 54.3237 333.73C51.2181 322.511 47.9011 311.314 44.3503 299.928C43.1929 305.181 40.5219 316.367 36.1148 331.371C34.5344 336.669 32.7871 342.412 30.8952 348.812C28.9809 355 26.8998 361.634 24.6517 368.712C23.3161 372.274 22.615 375.769 21.491 379.308C20.6229 383.249 19.5657 387.422 18.2969 391.618C17.0059 395.603 15.9264 399.565 14.6577 403.761C13.3667 407.746 11.8865 411.964 10.6177 416.161C1.46944 442.995 -7.62335 464.265 -14.8353 481.061C-21.001 495.608 -26.0426 506.616 -27.1221 514.641C-26.0426 506.616 -21.8691 495.486 -16.6161 480.393C-10.3391 462.841 -2.69328 440.013 5.21953 411.597C7.71246 402.782 9.82697 394.435 12.1752 386.276C13.2547 382.314 14.1228 378.374 15.2023 374.411C16.4933 370.427 17.3168 366.064 18.6746 362.714C23.5938 348.511 28.1457 336.914 32.0299 327.097C35.9141 317.28 39.175 309.667 41.412 304.514C42.436 302.054 43.3152 300.251 43.816 298.915C41.8569 292.493 39.8979 286.071 37.7274 279.671C35.1673 271.602 32.3956 263.555 29.624 255.508C29.613 257.433 29.3125 260.672 28.8897 264.779C28.3779 272.103 27.3764 282.899 25.5403 295.921C24.728 302.421 23.3257 309.411 21.7788 317.058C20.8885 320.786 20.0204 324.726 19.1524 328.666C18.0506 332.417 16.9711 336.38 15.6801 340.364C13.2873 348.1 10.7276 356.28 7.76717 364.717C5.20744 372.898 2.54756 382.158 -0.112305 391.419C-8.90436 421.637 -16.4722 447.237 -23.6284 466.592C-30.3394 486.114 -36.6164 499.604 -37.5623 508.898C-36.6164 499.604 -31.419 486.014 -25.8544 465.757C-20.0784 445.478 -14.1467 418.554 -7.10216 385.954C-4.74281 375.87 -2.76189 366.253 0.131729 357.182C3.06987 348.534 5.60732 340.142 8.02237 332.618C9.33563 328.845 10.4374 325.094 11.7729 321.532C12.8747 317.781 13.7873 314.264 14.6999 310.747C16.5473 303.924 18.4393 297.524 19.7191 291.403C24.4823 271.658 27.821 258.691 28.8783 254.517C27.999 252.258 27.3311 249.976 26.4518 247.717C22.7786 237.199 19.0831 226.47 15.1984 215.974C14.8979 215.15 14.5974 214.327 14.2968 213.503C14.0743 215.451 13.7738 218.69 13.351 222.797C12.4385 230.376 11.2479 241.406 9.03329 254.896C7.0302 268.364 4.23695 284.48 0.074707 301.81C-1.99529 310.581 -4.25447 319.585 -6.91434 328.845C-9.59648 337.894 -11.7443 347.956 -14.3152 358.062C-22.3725 391.196 -30.1852 418.532 -37.3748 439.602C-40.8137 449.586 -44.108 458.913 -47.0684 467.349C-48.3594 471.334 -49.4612 475.085 -50.6075 478.413C-51.0861 479.96 -51.3532 481.485 -51.6203 483.01C-51.5424 481.719 -51.253 480.405 -50.9859 478.88C-50.0511 475.575 -49.1608 471.846 -47.892 467.65C-45.5215 459.703 -42.6947 449.997 -39.8123 438.789C-34.0251 416.585 -27.8709 387.713 -21.7057 352.853C-19.6246 342.157 -17.755 331.483 -15.1174 322.011C-12.6913 312.562 -10.2206 303.535 -8.10609 295.188C-3.71011 278.047 0.251831 262.877 3.42361 250.355C8.60977 230.566 12.3492 217.343 13.7848 212.702C10.2229 203.241 6.66109 193.781 3.12148 184.532C0.694946 177.731 -2.15454 170.975 -4.77028 164.409C-5.86089 170.296 -8.58743 182.985 -13.3841 200.381C-16.8341 212.291 -21.1189 226.426 -26.7949 241.563C-29.6329 249.132 -32.6378 257.146 -36.0657 265.204C-37.9911 269.255 -39.5158 273.051 -40.9515 277.692C-42.4094 282.122 -43.8451 286.763 -45.4923 291.427C-55.1302 321.734 -63.3102 347.612 -70.4997 368.681C-74.0834 379.322 -76.9325 388.816 -79.4699 397.208C-81.7736 405.789 -84.1887 413.314 -83.8769 420.337L-83.8101 420.971C-84.3334 413.97 -82.1521 406.257 -80.2935 397.509C-78.0344 388.504 -75.6527 378.632 -72.7481 367.635C-66.9832 345.219 -60.6731 317.828 -52.7826 285.138C-51.603 280.096 -50.401 275.266 -48.9876 270.413C-47.5742 265.56 -45.9271 260.897 -44.4246 256.89C-41.019 248.62 -37.9918 240.818 -34.9201 233.438C-28.9881 218.702 -23.5346 205.513 -19.1051 194.783C-14.6756 184.054 -10.8693 175.528 -8.48761 169.718C-7.27449 167.024 -6.2283 164.776 -5.53827 163.207C-6.7404 159.912 -8.15402 156.64 -9.35616 153.345C-10.2355 151.086 -11.1148 148.827 -11.7827 146.545C-12.3058 147.669 -13.5189 150.363 -15.4443 154.414C-18.0375 160.246 -21.6546 168.538 -26.1509 178.633C-34.9321 198.801 -47.308 227.473 -61.9211 261.298C-81.7983 308.078 -91.9591 347.635 -96.11 375.227C-95.6426 371.542 -95.3867 367.881 -94.7524 363.751C-93.1276 354.814 -92.1039 344.229 -89.6444 333.066C-85.4044 310.382 -78.816 283.603 -69.089 254.141C-56.8802 217.79 -42.6788 190.209 -31.5157 172.356C-25.8285 163.419 -20.9982 156.496 -17.4033 152.055C-14.7544 148.782 -13.0293 146.89 -12.2502 146.167C-14.9327 138.965 -17.3815 131.954 -19.6188 124.919C-20.3311 126.277 -21.3996 128.314 -22.6349 130.796C-25.2726 136.205 -29.168 143.885 -33.9426 153.368C-36.4133 158.332 -39.0511 163.742 -41.8557 169.596C-44.6604 175.451 -47.6987 181.116 -51.1155 187.249C-57.7377 199.492 -65.5173 212.926 -73.8645 227.062C-77.3259 232.772 -80.1305 238.626 -83.0019 243.846C-85.8289 249.489 -88.4666 254.899 -90.8928 260.286C-95.979 270.871 -100.052 280.921 -103.536 290.482C-110.314 309.37 -114.264 326.677 -112.539 341.035L-112.472 341.67C-114.198 327.312 -111.393 309.27 -105.829 289.013C-103.069 278.673 -99.5073 267.821 -95.4006 256.056C-93.2304 250.269 -91.1047 244.058 -88.7675 237.825C-86.1966 231.781 -83.4587 225.292 -80.7209 218.803C-73.3754 203.277 -65.8518 189.442 -58.7622 177.577C-51.8062 164.443 -44.9614 154.315 -38.9736 146.201C-32.9858 138.087 -27.8327 132.199 -24.3824 128.414C-22.6573 126.522 -21.0991 125.075 -20.1308 124.118C-20.1754 123.695 -20.4314 123.294 -20.4982 122.66C-21.9897 116.616 -23.6705 110.806 -25.3513 104.997C-26.1081 105.932 -27.0542 107.1 -28.1894 108.503C-31.5951 112.71 -36.726 118.809 -42.7138 126.923C-48.9131 135.06 -55.5909 144.743 -62.9142 156.419C-66.5648 162.362 -70.4045 168.54 -74.1774 175.351C-76.1697 178.768 -77.9281 182.374 -79.8981 186.003C-81.8903 189.42 -83.9047 192.625 -86.1084 196.065C-99.4306 217.78 -109.481 238.082 -115.835 256.925C-120.454 276.013 -122.88 293.588 -122.279 307.422L-122.212 308.057C-122.813 294.222 -121.511 276.125 -116.603 255.723C-114.266 245.427 -110.705 234.576 -106.765 223.256C-104.573 217.68 -102.403 211.892 -99.8316 205.848C-98.6408 202.943 -97.2385 200.016 -95.8584 196.877C-95.1684 195.308 -94.4561 193.95 -93.7883 192.169C-93.1205 190.389 -92.4528 188.608 -91.785 186.827C-84.8736 169.208 -76.9271 155.328 -69.0917 144.454C-60.8557 133.324 -52.5195 125.176 -45.4854 118.876C-38.429 112.788 -32.4634 108.525 -28.2451 105.943C-26.6424 104.919 -25.4404 104.151 -24.4276 103.616C-25.4627 99.8767 -26.5202 95.9255 -27.3439 92.1636C-27.433 91.3177 -27.7558 90.2826 -27.8448 89.4367C-28.8354 90.1824 -30.4159 91.4179 -32.5862 93.1432C-34.5673 94.6346 -36.9268 96.5936 -39.7093 98.5971C-42.4695 100.812 -45.419 103.261 -48.7691 105.965C-55.4247 111.798 -63.4494 118.843 -72.1641 127.458C-76.4157 131.755 -81.0457 136.518 -85.6312 141.705C-87.9239 144.299 -90.1944 147.103 -92.6763 149.931C-94.9468 152.735 -97.2173 155.54 -99.4655 158.557C-106.778 168.307 -112.754 178.558 -117.863 188.931C-120.311 194.107 -122.526 199.471 -124.296 205.003C-126.388 209.5 -128.525 213.573 -130.217 217.814C-137.239 234.376 -140.967 249.736 -142.447 262.079L-142.592 262.736C-141.324 250.414 -138.508 234.509 -132.743 216.156C-131.908 213.93 -131.307 211.514 -130.473 209.288C-129.95 208.164 -129.683 206.639 -129.416 205.115C-129.148 203.59 -128.67 202.043 -128.403 200.518C-126.911 194.374 -125.209 188.208 -123.061 182.209C-118.787 169.999 -113.812 158.357 -106.277 146.659C-87.8689 118.421 -67.412 105.576 -51.7744 97.7292C-39.5537 91.9524 -30.8055 89.7484 -27.6779 88.9915C-28.5239 85.0181 -29.1361 81.2338 -29.9821 77.2604C-30.9395 72.2296 -32.086 67.4326 -32.4089 62.335C-32.921 57.4711 -33.4331 52.6073 -34.1567 47.7657C-34.4016 45.4395 -34.6688 42.9018 -34.9137 40.5756C-35.1586 38.2495 -35.192 35.901 -35.2255 33.5525C-35.5708 24.181 -36.1052 15.0432 -35.7493 6.23923C-35.5824 1.73152 -35.3933 -2.5647 -35.4157 -6.83867C-35.2266 -11.1349 -34.5923 -15.2642 -34.1694 -19.3712C-30.7422 -51.8045 -23.0074 -77.8492 -16.0292 -94.8339C-12.4344 -103.337 -9.48508 -109.849 -7.15898 -114.156C-4.83289 -118.463 -3.5307 -120.311 -3.5307 -120.311C-2.60693 -121.691 -0.792755 -122.737 -0.0692749 -121.958C0.398193 -121.58 0.487259 -120.734 0.364853 -119.866C0.431656 -119.232 0.0977631 -118.341 -0.258377 -117.662C-0.258377 -117.662 -0.636795 -117.195 -1.18214 -116.282C-1.70523 -115.158 -2.62901 -113.778 -3.69745 -111.741C-4.76588 -109.704 -5.97899 -107.011 -7.59279 -104.061C-8.97284 -100.922 -10.7091 -97.1046 -12.423 -93.0754C-19.212 -76.3244 -27.0135 -50.9142 -30.4854 -18.9038C-30.9305 -15.0083 -31.5648 -10.879 -31.7539 -6.58277C-31.943 -2.28654 -32.1544 1.79822 -32.3212 6.30592C-32.6327 11.4703 -32.499 16.8016 -32.3431 22.3444C-31.7532 21.8547 -30.9518 21.3427 -30.1505 20.8307C-26.5889 18.1037 -21.3578 14.9872 -14.2012 11.8817C-0.0772705 5.90445 20.3353 0.761833 44.0202 2.3306C48.7394 2.47517 53.2471 2.64201 57.7548 2.80885C62.0733 3.20943 66.2026 3.84375 70.3096 4.26659C78.3344 5.34602 85.6581 5.85783 92.1803 6.88164C105.036 9.16299 115.665 10.6096 123.623 11.0547L124.046 11.0101C116.066 10.3537 105.548 9.96436 92.4253 9.20782C85.7806 9.05217 78.5683 9.59772 70.6548 9.57565C66.6145 9.78723 62.552 9.78732 58.0889 10.0434C53.8594 10.4887 49.207 10.9786 44.5547 11.4684C21.315 14.1291 1.57028 17.4909 -12.6985 20.0623C-19.7995 21.6652 -25.4646 22.6893 -29.4158 23.7467C-30.4509 24.0695 -31.5083 24.1809 -32.1204 24.4592C-32.0202 27.442 -31.8977 30.6364 -31.7751 33.8307C-31.7417 36.1792 -31.7083 38.5276 -31.4633 40.8538C-31.2184 43.18 -30.9735 45.5062 -30.7063 48.0438C-30.3278 51.6389 -29.927 55.4454 -29.5262 59.2519C-27.2335 56.6585 -20.6224 50.4032 -9.92648 44.3593C-3.04816 40.6416 5.33273 36.9796 15.3498 34.642C25.3669 32.3045 36.5971 31.3359 48.8737 32.1815C68.6853 33.5166 85.3361 37.3227 98.5142 40.6391C104.936 42.7426 111.292 44.2116 116.59 45.7919C121.91 47.5838 126.34 49.0417 130.302 50.1212L130.747 50.2882C126.785 49.2086 122.166 47.9844 116.89 46.6156C111.637 45.4581 105.326 44.4121 98.5699 43.1991C85.3362 41.3852 68.9526 40.1167 49.8756 41.6977C26.3354 43.5347 6.5128 48.1876 -7.81157 52.2616C-19.0084 55.5786 -26.5879 58.7287 -29.248 59.864C-29.1589 60.7099 -29.0699 61.5558 -28.9585 62.6131C-28.6579 67.4993 -27.5114 72.2963 -26.5541 77.3271C-26.1422 79.2081 -25.9418 81.1113 -25.5299 82.9923C-17.828 78.9742 -7.35468 74.878 6.02367 71.9727C20.2479 68.9784 38.0561 67.531 59.3925 69.1332C72.3258 70.1235 85.1811 72.4048 96.1555 75.0981C107.341 77.769 116.435 80.8741 124.871 83.8345C126.864 84.48 128.856 85.1255 130.637 85.7933C132.418 86.461 134.199 87.1288 135.768 87.8188C138.884 88.9874 141.366 90.2228 143.592 91.0575C147.833 92.7492 150.059 93.5839 150.104 94.0068C150.104 94.0068 149.191 93.4615 148.111 93.3613C147.032 93.2612 145.295 93.0163 143.136 92.8161C140.955 92.4043 138.35 92.0371 135.089 91.5252C133.564 91.2581 131.806 90.8018 130.069 90.557C128.333 90.3121 126.385 90.0896 124.415 89.6556C116.134 88.1755 106.329 86.4283 95.6548 84.5587C84.981 82.6891 72.9938 80.5301 59.7601 78.7162C49.1085 77.0581 39.6033 76.1346 30.7771 75.5671C21.9509 74.9997 14.0374 74.9777 6.82513 75.5232C-7.17653 76.5698 -18.0172 79.2079 -25.7191 83.2261C-25.1737 86.3759 -24.6505 89.3142 -24.1051 92.464C-23.6932 94.345 -23.3036 96.0145 -22.8917 97.8955C-20.4654 96.571 -12.296 92.9312 0.937668 90.6826C8.92906 89.4135 18.8682 88.3671 30.2543 88.8788C36.0309 88.912 42.108 89.7689 48.352 90.1805C51.5909 90.481 54.6628 91.2266 58.1354 91.7163C61.3965 92.2282 64.6576 92.7401 68.1971 93.8641C73.4728 95.233 78.96 96.5796 84.2357 97.9485C89.5114 99.3174 94.3641 100.731 99.0277 102.378C103.669 103.814 108.121 105.483 112.128 106.985C113.252 107.509 114.12 107.631 115.267 108.366C116.413 109.1 117.56 109.835 118.706 110.569C120.999 112.038 123.314 113.719 125.395 115.21C129.747 117.959 133.765 121.599 137.739 124.815C141.501 128.054 145.218 130.87 148.535 133.942C151.385 136.635 153.789 139.162 156.404 141.666C147.901 134.009 137.895 126.296 126.03 119.206C121.7 116.668 117.181 114.365 112.662 112.061L109.056 110.302C107.954 109.991 106.852 109.679 105.773 109.579C103.591 109.167 101.387 108.544 99.2059 108.132C90.0347 106.318 80.0175 104.593 69.199 103.38C65.7264 102.891 62.4875 102.59 59.2709 102.501C56.032 102.201 53.0047 101.878 49.7658 101.578C43.7555 101.355 37.8899 100.476 32.3248 100.421C21.3171 99.4415 11.4781 99.4083 3.09711 99.0079C-10.6152 98.7411 -19.8198 98.6411 -22.5912 98.7191C-22.2016 100.389 -21.8343 101.847 -21.4447 103.516C-21.2332 103.494 -21.2332 103.494 -21.2332 103.494C-21.2332 103.494 -21.2332 103.494 -21.4224 103.728C-20.2759 108.525 -18.9402 113.088 -17.5822 117.863C-13.0967 117.818 -7.74315 117.896 -1.75514 117.907C4.44434 117.896 11.5119 118.007 19.4477 118.24C35.3193 118.707 54.6635 119.664 77.4024 122.402C78.2705 122.524 79.1387 122.646 80.0068 122.769L82.8673 123.537C84.6259 123.993 86.6182 124.638 88.399 125.306C92.1721 126.62 95.7338 127.955 99.2955 129.291C106.441 132.173 113.42 135.501 119.998 139.085C133.154 146.252 144.941 154.633 154.357 162.835C159.076 167.042 163.517 170.637 167.112 174.321C170.73 178.217 173.857 181.522 176.495 184.238C181.582 189.903 184.264 193.042 184.264 193.042C184.264 193.042 181.482 190.983 176.362 187.032C173.791 184.95 170.563 182.725 167.035 179.675C163.339 177.071 159.199 174.299 154.379 171.172C135.758 158.807 109.536 145.318 79.4951 134.155C76.3787 132.986 73.4959 132.007 70.6132 131.028C67.2185 129.247 64.3135 128.056 61.9205 127.666C56.6893 126.721 51.6696 125.752 46.8614 124.762C37.2672 122.992 28.3519 121.579 20.3048 120.288C4.04366 118.152 -8.2997 116.672 -17.482 116.783L-17.6935 116.805C-17.2816 118.686 -16.6806 120.334 -16.2687 122.215C-13.2745 132.376 -9.43433 142.449 -5.80566 152.544C-1.94325 162.828 2.1306 173.09 6.01527 183.586C7.75168 187.893 9.29889 192.434 11.0353 196.741C12.3486 197.031 14.9531 197.398 18.704 198.5C24.4249 200.035 32.8393 202.784 43.5912 207.425C64.8833 216.73 95.4471 234.893 128.159 267.37C154.494 294.104 175.119 321.439 191.058 346.916C206.997 372.392 218.038 396.032 226.152 414.207L226.453 415.031C218.528 396.622 206.752 374.128 190.379 350.622C173.983 326.904 152.78 302.196 126.523 278.233C94.1674 249.14 64.8391 228.494 43.8028 215.528C26.8625 204.91 15.3427 199.067 11.2913 197.142C13.4173 203.119 15.7548 209.073 17.8585 214.839C20.5633 222.251 23.0566 229.686 25.7614 237.099C27.9875 237.933 39.2068 242.953 57.0152 253.693C66.8433 259.714 78.5857 267.672 91.675 278.267C104.553 288.885 119.312 303.154 133.247 321.785C155.809 351.268 173.016 380.674 185.895 407.542C192.228 420.987 197.46 434.12 201.545 446.519C203.693 452.707 205.207 458.962 206.676 464.794C207.455 468.133 208.212 471.261 208.568 474.644C208.045 471.706 207.522 468.768 206.787 465.852C205.318 460.02 203.593 453.787 201.489 448.021C197.237 436.068 191.672 423.825 184.982 411.059C171.625 385.738 153.416 359.004 130.676 331.891C116.474 314.785 103.095 301.44 90.362 290.166C77.6288 278.891 66.3649 269.386 56.5702 261.651C46.987 253.894 39.2737 247.65 33.92 243.509C29.735 240.315 27.1639 238.234 26.2066 237.266C27.175 240.371 28.3549 243.454 29.3233 246.559C31.5161 253.171 33.6866 259.57 35.8794 266.182C39.5079 268.151 49.1245 274.195 63.2711 284.679C80.9684 298.424 106.067 319.515 131.489 353.829C151.925 381.398 167.241 409.078 177.937 435.534C188.1 460.977 193.454 485.43 195.825 505.92C193.476 485.641 187.599 462.313 176.602 439.096C165.26 414.632 149.343 389.367 128.518 364.191C102.818 333.328 79.121 309.31 62.1472 292.281C49.2582 279.526 40.198 270.645 36.4137 267.194C37.6604 270.912 38.907 274.629 39.9422 278.369C41.2557 282.721 42.5914 287.284 44.1163 291.614C45.0513 292.37 47.6224 294.452 51.1507 297.501C56.0815 301.686 63.3941 308.186 72.0091 316.901C80.8577 325.804 91.0087 336.923 102.317 350.913C113.247 365.371 125.291 382.278 136.443 402.913C154.475 436.08 167.298 468.513 174.066 500.3C174.912 504.274 175.735 508.036 176.37 512.031C177.004 516.027 177.427 520.045 178.04 523.829C179.264 531.398 179.242 539.311 179.598 546.757C179.743 554.226 179.276 561.972 178.531 569.107C178.108 573.214 177.24 577.154 176.372 581.094C177.073 577.599 177.751 573.892 178.241 570.42C178.141 563.375 178.653 556.051 178.296 548.605Z" fill="#163127" fill-opacity="0.15"/>
<path d="M175.448 582.474C175.159 583.787 174.847 584.889 174.536 585.991C174.847 584.889 175.137 583.576 175.448 582.474Z" fill="#163127" fill-opacity="0.15"/>
<path d="M175.759 581.372C175.592 581.817 175.615 582.029 175.448 582.474C175.404 582.051 175.57 581.605 175.759 581.372Z" fill="#163127" fill-opacity="0.15"/>
<path d="M155.424 568.974C155.568 568.317 155.713 567.66 155.858 567.004C155.735 567.872 155.591 568.528 155.424 568.974Z" fill="#163127" fill-opacity="0.15"/>
<path d="M154.156 573.17C154.3 572.513 154.657 571.834 154.779 570.966C154.612 571.411 154.445 571.856 154.49 572.279L154.156 573.17Z" fill="#163127" fill-opacity="0.15"/>
<path d="M156.359 565.668C156.192 566.113 156.025 566.558 156.069 566.981C156.214 566.325 156.381 565.879 156.526 565.223C156.336 565.456 156.359 565.668 156.359 565.668Z" fill="#163127" fill-opacity="0.15"/>
<path d="M154.779 570.966C154.924 570.309 155.279 569.63 155.424 568.974C155.279 569.63 155.135 570.287 154.779 570.966Z" fill="#163127" fill-opacity="0.15"/>
<path d="M157.883 541.56C157.516 536.039 157.337 530.285 156.525 524.598C155.712 518.91 154.666 513.034 153.408 507.179C151.939 501.347 150.469 495.515 148.555 489.516C146.451 483.75 144.325 477.774 141.798 472.053C139.06 466.354 136.322 460.656 133.139 454.79C129.955 448.925 126.56 443.081 123.143 437.027C105.49 407.454 88.8168 383.124 76.9182 365.561C65.042 348.21 57.5177 337.67 57.5177 337.67C57.5177 337.67 59.6436 339.584 63.2388 343.268C66.8561 347.163 72.3434 352.573 78.7101 360.241C91.6325 375.344 109.374 397.638 126.404 429.414C129.866 435.891 133.094 442.18 135.877 448.301C138.871 454.4 141.464 460.756 144.035 466.899C148.989 479.421 152.272 492.332 154.643 504.697C156.803 517.085 158.072 529.139 158.195 540.458C158.351 546.001 157.894 551.822 157.371 557.009C157.004 559.613 156.637 562.218 156.27 564.822C156.292 565.033 156.103 565.267 156.125 565.479C156.515 563.086 156.882 560.481 157.249 557.877C157.772 552.69 158.228 546.869 157.883 541.56Z" fill="#163127" fill-opacity="0.15"/>
<path d="M98.8737 651.26C100.554 648.945 102.235 646.63 103.916 644.315C102.068 647.075 100.22 649.835 98.3284 652.173L98.8737 651.26Z" fill="#163127" fill-opacity="0.15"/>
<path d="M113.486 572.748C113.953 569.063 113.998 565.424 114.231 561.551C114.465 557.677 114.699 553.804 114.487 549.764C114.91 533.469 112.561 517.253 109.7 500.235C104.501 473.2 96.988 452.609 90.1537 436.438C88.4619 432.553 86.5585 428.691 85.1227 425.207C83.4753 421.746 81.8503 418.496 80.2474 415.457C77.0641 409.592 74.1812 404.55 71.4097 400.566L71.1537 400.165C76.2961 408.39 83.4196 419.186 91.1999 434.189C98.9803 449.192 108.052 468.336 114.897 494.77C118.983 511.231 121.398 528.082 121.043 545.011C121.087 561.684 118.695 577.544 114.833 591.635C113.709 595.175 112.563 598.503 111.606 601.597C110.648 604.691 109.48 607.807 108.267 610.501C105.863 616.1 103.793 620.808 101.634 624.67C97.3152 632.394 94.7554 636.513 94.7554 636.513C94.7554 636.513 96.4693 632.483 99.964 625.059C101.723 621.453 103.158 616.812 104.95 611.492C106.953 606.149 108.255 600.239 109.914 593.65C110.37 591.891 110.848 590.344 111.093 588.608C111.338 586.872 111.583 585.135 112.039 583.377C112.551 580.116 113.018 576.432 113.486 572.748Z" fill="#163127" fill-opacity="0.15"/>
<path d="M85.9586 467.669C84.9235 463.929 84.1665 460.802 83.4319 457.885C82.6972 454.969 81.7956 452.499 81.3838 450.618C80.3263 446.666 79.6584 444.385 79.6584 444.385C79.6584 444.385 80.6824 445.987 82.519 449.215C84.3555 452.443 87.0046 457.296 89.6204 463.862C95.2748 476.951 102.254 496.529 104.258 523.686C105.917 545.535 103.78 565.858 99.4289 583.422C94.866 601.007 88.0213 615.199 82.067 625.661L81.6886 626.128C84.56 620.908 87.9768 614.776 90.4364 607.674C91.7719 604.113 93.1075 600.551 94.187 596.589C95.2665 592.626 96.1346 588.686 97.1918 584.513C100.341 567.717 101.086 548.395 98.526 528.138C95.0083 502.851 89.8657 482.438 85.9586 467.669Z" fill="#163127" fill-opacity="0.15"/>
<path d="M84.3459 507.181C83.934 501.237 83.2104 496.396 82.8764 493.224C82.5202 489.84 82.3421 488.148 82.3421 488.148C82.3421 488.148 85.0357 493.424 88.3082 504.198C91.1355 514.805 94.5863 531.333 92.1604 552.97C91.5484 557.311 91.1478 561.629 90.2798 565.569C89.434 569.721 88.5659 573.661 87.4641 577.412C86.3623 581.163 85.0491 584.936 83.9027 588.264C82.7787 591.803 81.4209 595.153 80.0408 598.292C78.4493 601.453 77.2585 604.358 75.6447 607.308C74.0086 610.046 72.5617 612.55 71.1149 615.054C68.4326 620.041 65.2161 624.014 62.801 627.476L62.6118 627.709C65.0269 624.248 68.0097 620.085 70.4805 615.121C71.7159 612.639 73.1627 610.135 74.3758 607.441C75.8004 604.725 76.7575 601.631 77.9484 598.726C80.3078 592.705 81.7323 585.926 83.5352 578.681C84.7037 571.502 85.8054 563.688 86.0389 555.753C86.6951 535.585 85.5928 519.023 84.3459 507.181Z" fill="#163127" fill-opacity="0.15"/>
<path d="M19.8154 592.873C20.0046 592.639 20.1934 592.406 20.3826 592.172C20.1934 592.406 20.216 592.617 19.8154 592.873Z" fill="#163127" fill-opacity="0.15"/>
<path d="M70.2653 464.831C72.6247 458.809 74.461 453.912 75.6074 450.584C76.9651 447.234 77.6329 445.453 77.6329 445.453C77.6329 445.453 77.4326 447.612 76.776 451.53C76.3309 455.426 75.2181 461.102 73.8159 468.092C70.7777 481.882 65.0795 500.87 54.0166 517.644C45.4133 531.379 35.9752 539.214 28.9856 545.937C25.2348 548.898 22.6527 552.805 19.7033 555.253C18.5903 556.867 17.4551 558.27 16.2976 559.461C15.1401 560.652 13.9826 561.842 13.2258 562.777L13.0366 563.011C14.0049 562.054 14.9509 560.885 16.0862 559.483C17.2214 558.08 18.1229 556.489 19.2359 554.875C20.3488 553.261 21.907 551.814 23.1869 549.755C24.4668 547.696 26.0028 546.037 27.9171 543.911C34.5393 535.731 42.9312 526.081 50.1543 511.422C59.2249 494.003 65.9916 477.041 70.2653 464.831Z" fill="#163127" fill-opacity="0.15"/>
<path d="M41.116 486.502C49.9417 462.695 56.6637 441.247 61.4938 426.199C66.3239 411.151 69.2398 402.291 69.2398 402.291C69.2398 402.291 68.8726 404.895 68.5165 409.637C67.949 414.401 66.9475 421.134 65.2559 429.437C62.0842 446.021 56.3639 468.86 45.6684 491.154C37.0875 509.163 28.4175 522.263 20.66 531.847C12.9025 541.43 6.22461 547.051 2.229 551.748L2.03981 551.982C6.03542 547.285 12.2236 541.074 19.2353 530.5C26.2916 520.349 33.9376 505.646 41.116 486.502Z" fill="#163127" fill-opacity="0.15"/>
<path d="M57.7754 399.008C54.1697 417.562 47.4477 443.072 36.2626 468.839C27.3145 489.452 18.0435 504.967 10.0635 516.498C2.29492 528.007 -4.65012 535.153 -7.4325 541.219L-7.62169 541.453C-4.81705 535.598 1.66049 528.074 8.66103 515.363C15.6838 502.864 23.7416 485.979 31.4765 463.997C41.0255 436.906 48.4932 412.386 53.9911 395.557C59.2552 378.539 62.9056 368.533 62.9056 368.533C62.9056 368.533 62.5829 371.561 61.8485 376.77C60.9025 382.001 59.5894 389.836 57.7754 399.008Z" fill="#163127" fill-opacity="0.15"/>
<path d="M-13.4426 520.684C-13.7764 521.574 -14.1326 522.253 -14.255 523.122C-13.9211 522.231 -13.7987 521.363 -13.4426 520.684Z" fill="#163127" fill-opacity="0.15"/>
<path d="M-13.2764 520.239C-13.2764 520.239 -13.2542 520.45 -13.4656 520.473C-13.2542 520.45 -13.2542 520.45 -13.2764 520.239Z" fill="#163127" fill-opacity="0.15"/>
<path d="M-14.7341 524.669C-14.5672 524.223 -14.4225 523.567 -14.2778 522.91C-14.4225 523.567 -14.7786 524.246 -14.9233 524.902L-14.7341 524.669Z" fill="#163127" fill-opacity="0.15"/>
<path d="M-27.4444 517.668C-27.4666 517.457 -27.4889 517.245 -27.4889 517.245C-27.4666 517.457 -27.6336 517.902 -27.6113 518.113L-27.4444 517.668Z" fill="#163127" fill-opacity="0.15"/>
<path d="M-27.3556 514.451C-27.478 515.319 -27.578 516.399 -27.4889 517.245C-27.3888 516.166 -27.478 515.319 -27.3556 514.451Z" fill="#163127" fill-opacity="0.15"/>
<path d="M-36.9725 508.408C-36.9502 508.62 -36.9502 508.62 -37.1395 508.853L-36.9725 508.408Z" fill="#163127" fill-opacity="0.15"/>
<path d="M-50.8079 484.634C-50.7634 485.057 -50.9526 485.291 -50.9081 485.714C-50.9526 485.291 -50.9971 484.868 -50.8079 484.634Z" fill="#163127" fill-opacity="0.15"/>
<path d="M-50.897 483.788L-50.9193 483.577C-50.8747 484 -51.0639 484.234 -51.0194 484.656C-50.8525 484.211 -50.8747 484 -50.897 483.788Z" fill="#163127" fill-opacity="0.15"/>
<path d="M-50.7964 482.709C-50.7742 482.92 -50.9634 483.154 -50.9411 483.366C-50.7296 483.343 -50.7519 483.132 -50.7964 482.709Z" fill="#163127" fill-opacity="0.15"/>
<path d="M-50.7079 487.617C-50.7302 487.406 -50.7308 487.406 -50.753 487.194C-50.7308 487.406 -50.6857 487.829 -50.6634 488.04L-50.7079 487.617Z" fill="#163127" fill-opacity="0.15"/>
<path d="M-38.6242 326.197C-37.4668 320.943 -35.8865 315.645 -34.0724 310.537C-32.403 306.085 -30.9673 301.443 -29.2757 297.203C-26.126 288.532 -23.3994 279.906 -20.6059 271.915C-15.4864 255.553 -10.801 241.162 -7.16177 229.019C-3.31105 216.854 -0.484238 207.148 1.6192 200.726C3.70038 194.092 4.82443 190.553 4.82443 190.553C4.82443 190.553 4.42386 194.872 3.2999 202.473C2.38741 210.053 0.540085 220.938 -1.90822 234.239C-4.56799 247.562 -8.06247 263.111 -13.1374 279.895C-15.4411 288.476 -18.4015 296.913 -21.7403 305.817C-23.4097 310.269 -25.0792 314.721 -26.9601 319.196C-27.7948 321.422 -28.674 323.225 -29.2972 325.429C-30.1096 327.866 -30.7329 330.07 -31.5453 332.508C-36.2864 348.401 -40.0146 363.761 -43.7094 377.407C-47.382 391.264 -50.999 403.618 -54.0929 414.849C-57.4206 425.89 -60.2474 435.595 -62.5511 444.177C-64.8771 452.547 -67.1029 459.837 -67.0694 466.248L-67.2141 466.905C-67.2476 460.494 -65.2332 453.226 -63.3747 444.477C-61.3493 435.284 -58.9899 425.2 -56.319 414.014C-53.904 402.428 -51.0105 389.294 -48.2729 374.68C-45.1568 359.599 -42.3635 343.482 -38.6242 326.197Z" fill="#163127" fill-opacity="0.15"/>
<path d="M-96.4879 387.881C-96.5102 387.67 -96.321 387.436 -96.3655 387.013L-96.3432 387.225L-96.4879 387.881Z" fill="#163127" fill-opacity="0.15"/>
<path d="M-94.7964 375.516C-95.197 379.834 -95.6421 383.73 -96.3432 387.225C-95.8759 383.541 -95.4307 379.645 -94.7964 375.516Z" fill="#163127" fill-opacity="0.15"/>
<path d="M-91.5873 74.9802C-79.6002 73.0767 -69.1936 72.4086 -60.2672 71.8964C-42.626 70.8943 -31.6851 71.239 -31.6851 71.239C-31.6851 71.239 -41.5018 75.4799 -58.2302 81.0898C-66.4887 83.8837 -76.8619 86.9002 -88.2924 90.0281C-93.045 91.5975 -98.3539 96.0052 -103.596 101.047C-108.861 105.878 -113.991 111.977 -119.311 118.31C-127.425 128.573 -134.181 139.547 -140.046 150.855C-142.873 156.499 -145.488 162.119 -147.892 167.718C-150.085 173.294 -151.854 178.826 -153.624 184.357C-156.952 195.399 -159.244 206.117 -160.713 216.535C-160.791 217.826 -161.08 219.139 -161.158 220.43C-161.214 221.933 -161.592 222.4 -161.904 223.502C-162.36 225.261 -162.816 227.019 -163.273 228.778C-164.185 232.295 -164.697 235.556 -165.231 238.606L-165.376 239.263C-164.842 236.213 -164.33 232.952 -163.651 229.245C-163.195 227.487 -162.95 225.751 -162.516 223.781L-162.227 222.467C-162.06 222.022 -161.893 221.577 -161.982 220.731C-161.904 219.44 -161.848 217.937 -161.559 216.624C-160.58 205.616 -159.055 193.696 -156.496 181.453C-155.961 178.403 -155.216 175.331 -154.47 172.259C-153.724 169.187 -152.79 165.881 -151.621 162.765C-149.729 156.365 -147.414 149.921 -144.888 143.454C-142.361 136.987 -139.601 130.71 -136.418 124.388C-133.024 118.044 -129.206 111.655 -125.155 105.455C-119.946 98.0648 -114.86 91.5424 -109.429 86.2666C-103.786 80.9685 -98.2654 76.5386 -91.5873 74.9802Z" fill="#163127" fill-opacity="0.15"/>
<path d="M-121.762 54.4237C-97.821 44.2057 -75.0153 47.5775 -59.0658 50.816C-43.0717 54.4774 -33.5887 59.252 -33.5887 59.252C-33.5887 59.252 -43.0048 59.1743 -58.3198 59.9316C-73.6126 60.9003 -95.038 62.5146 -118.767 68.6479C-128.317 71.3639 -136.909 75.0482 -144.778 79.5116C-152.413 84.1642 -159.325 89.5958 -164.645 95.929C-167.572 98.5892 -169.965 102.262 -172.191 105.49C-174.395 108.929 -176.621 112.157 -178.446 115.129C-181.729 122.53 -184.656 129.253 -187.016 135.275L-187.183 135.72C-184.823 129.698 -182.13 122.786 -179.147 114.561C-177.389 110.955 -175.419 107.327 -173.493 103.275C-171.334 99.4129 -169.453 94.9385 -166.593 91.644C-163.989 87.9487 -160.961 84.2089 -157.745 80.2354C-154.461 76.8962 -150.967 73.5349 -147.26 70.1512C-139.993 64.0406 -131.367 58.6423 -121.762 54.4237Z" fill="#163127" fill-opacity="0.15"/>
<path d="M-36.0051 13.9636C-36.0051 13.9636 -44.4639 14.8542 -58.6993 15.7116C-72.9347 16.5689 -92.546 17.1371 -115.207 17.171C-133.594 17.1826 -149.176 19.4646 -161.742 23.9949C-174.308 28.5252 -183.445 37.1846 -189.745 46.4005L-190.123 46.868C-183.779 38.0751 -175.332 26.9225 -162.866 19.4093C-150.022 11.4287 -134.396 5.5071 -115.897 2.49039C-92.9805 -1.20538 -72.6457 3.06809 -58.5994 6.50696C-44.3194 10.135 -36.0051 13.9636 -36.0051 13.9636Z" fill="#163127" fill-opacity="0.15"/>
</svg>
