<svg width="361" height="144" viewBox="0 0 361 144" fill="none" xmlns="http://www.w3.org/2000/svg">
<path d="M189.994 -97.2825C187.327 -97.4916 184.776 -97.6411 182.455 -97.6716C184.832 -97.4663 187.268 -97.3763 189.994 -97.2825Z" fill="#163127" fill-opacity="0.3"/>
<path d="M182.165 -97.6752C182.281 -97.6157 182.455 -97.6714 182.571 -97.6119L182.165 -97.6752Z" fill="#163127" fill-opacity="0.3"/>
<path d="M131.152 -70.4348C134.227 -70.4525 137.823 -70.3473 141.594 -70.2978C156.964 -69.8059 176.945 -66.9326 197.464 -60.8608C214.112 -56.0584 226.688 -50.439 236.486 -45.3783C245.469 -40.1543 252.608 -35.8828 257.609 -32.2776L257.84 -32.1586C252.839 -35.7637 246.403 -40.5482 238.242 -46.5158C236.23 -47.9928 233.929 -49.4736 231.396 -51.0735C228.864 -52.6734 226.157 -54.2176 223.16 -55.7656C217.226 -58.9768 210.421 -62.1994 202.628 -65.2029C183.172 -72.7694 161.209 -74.9144 144.31 -73.8597C140.011 -73.4519 136.061 -73.1556 132.692 -72.8516C129.203 -72.3172 126.061 -71.6041 123.502 -71.1735C121.059 -70.6833 119.08 -70.2451 117.741 -69.9145C116.402 -69.5839 115.762 -69.4763 115.762 -69.4763C115.762 -69.4763 118.377 -69.7321 122.847 -69.9055C125.112 -70.0499 128.017 -70.3019 131.152 -70.4348Z" fill="#163127" fill-opacity="0.3"/>
<path d="M85.8822 -47.5289L85.4135 -47.1869C85.6478 -47.3579 85.8822 -47.5289 86.1722 -47.5251C86.057 -47.5847 86.057 -47.5847 85.8822 -47.5289Z" fill="#163127" fill-opacity="0.3"/>
<path d="M93.7482 -50.0367C96.6008 -50.7536 99.5649 -51.1208 102.763 -51.6591C109.041 -52.5051 115.84 -53.2283 123.21 -53.3636C126.985 -53.6042 130.756 -53.5547 134.702 -53.561C138.648 -53.5672 142.824 -53.4544 147 -53.3415C155.409 -52.9411 164.04 -51.8414 172.66 -49.8715C193.949 -45.0081 210.4 -38.4095 222.116 -33.6718C233.774 -28.8188 240.404 -25.5404 240.404 -25.5404C240.404 -25.5404 239.258 -26.7159 236.905 -28.6616C234.551 -30.6073 230.874 -33.3827 225.925 -36.523C215.853 -42.7478 200.347 -50.6106 177.131 -54.5708C167.808 -56.0277 158.474 -56.6144 149.538 -56.5576C140.482 -56.2703 132.297 -55.9715 124.568 -55.1446C116.9 -54.4329 109.807 -53.4235 103.411 -52.3469C98.2894 -51.1956 93.6367 -50.3863 89.3819 -48.9335L89.5567 -48.9892C90.8956 -49.3198 92.2345 -49.6504 93.7482 -50.0367Z" fill="#163127" fill-opacity="0.3"/>
<path d="M32.9227 8.64032C33.4509 8.18306 33.9196 7.84108 34.5036 7.55862C33.9196 7.84108 33.3914 8.29832 32.9227 8.64032Z" fill="#163127" fill-opacity="0.3"/>
<path d="M32.9227 8.64032C32.6288 8.92659 32.3944 9.0976 32.1006 9.38387C32.3349 9.21286 32.6288 8.92659 32.9227 8.64032Z" fill="#163127" fill-opacity="0.3"/>
<path d="M34.5036 7.55862C34.5631 7.44334 34.7381 7.38754 34.7976 7.27228C34.6228 7.328 34.5631 7.44334 34.5036 7.55862Z" fill="#163127" fill-opacity="0.3"/>
<path d="M30.8097 10.4694C31.1631 10.0678 31.6319 9.72586 32.1006 9.38387C31.8662 9.55486 31.5722 9.84109 31.3379 10.0121L30.8097 10.4694Z" fill="#163127" fill-opacity="0.3"/>
<path d="M25.9744 25.2023C26.3836 24.9756 26.6775 24.6893 27.1462 24.3474C26.6775 24.6893 26.034 25.0871 25.5653 25.4291L25.9744 25.2023Z" fill="#163127" fill-opacity="0.3"/>
<path d="M0.896484 65.8387C1.19417 65.2623 1.5514 64.5707 1.84909 63.9944C1.61094 64.4554 1.43232 64.8012 1.19417 65.2623L0.896484 65.8387Z" fill="#163127" fill-opacity="0.3"/>
<path d="M2.44487 62.8417C2.26626 63.1875 2.08764 63.5333 1.90903 63.8791C2.08764 63.5333 2.20672 63.3027 2.44487 62.8417Z" fill="#163127" fill-opacity="0.3"/>
<path d="M16.1125 47.1222C19.1628 44.6092 22.4474 41.9251 25.9588 39.6502C29.4106 37.4906 33.041 34.9851 36.7791 33.1194C51.9138 25.0204 69.2829 19.0978 88.9497 14.946C101.286 12.2647 112.157 10.7246 122.213 9.34795C132.151 8.20181 140.864 7.4458 148.183 6.84557C160.437 6.01996 168.742 5.49066 171.007 5.34631C170.248 5.68451 169.604 6.08223 168.846 6.42041L168.905 6.30515C168.905 6.30515 168.905 6.30515 168.846 6.42041C161.02 10.2634 153.369 14.0507 145.889 18.0723C140.804 20.8487 135.895 23.5695 130.985 26.2902C128.374 26.256 122.803 26.2989 114.551 27.2931C108.797 27.9719 101.586 29.2118 93.1434 31.422C84.8161 33.6918 75.3728 36.9913 65.0326 42.3099C56.6229 46.4354 48.9529 51.673 42.034 57.1526C38.6304 60.0672 35.2862 62.8665 32.1688 66.075C28.9956 69.1086 26.224 72.4957 23.4524 75.8828C13.9544 87.7693 8.02975 101.501 5.20346 113.475C8.08548 101.676 14.2331 88.6433 23.4891 77.5079C34.1588 64.7665 48.1675 54.0417 64.3953 46.6534C74.3226 41.8516 83.5911 38.6078 91.7474 36.1037C93.8451 35.435 95.7679 34.8219 97.8061 34.2684C99.6694 33.7706 101.533 33.2729 103.396 32.7751C106.948 31.8353 110.265 31.0665 113.408 30.3534C119.403 28.9234 124.231 28.0584 127.489 27.4049C128.478 27.1857 129.408 27.0819 130.048 26.9742C125.428 29.6988 120.868 32.3081 116.538 35.0365C111.859 37.8763 107.585 40.7795 103.37 43.5674C101.321 44.9911 99.1561 46.3553 97.1065 47.779C95.057 49.2027 93.1227 50.686 91.248 52.054C87.4985 54.7899 84.039 57.5297 80.8101 60.3886C80.8101 60.3886 80.8101 60.3886 80.7506 60.5039C77.3469 63.4185 74.118 66.2773 71.2388 69.0247C65.5398 74.4043 60.7148 79.5051 57.0577 84.0411C56.2914 84.9594 55.5845 85.7625 54.9334 86.7404C54.6991 86.9114 54.6395 87.0267 54.4052 87.1977C53.464 88.1718 51.9946 89.6031 50.2275 91.6107C48.4604 93.6184 46.6857 96.2062 44.6729 99.2551C43.7241 100.809 42.7715 102.654 41.8189 104.498C40.8663 106.342 40.1999 108.48 39.3588 110.674C38.6405 112.348 38.2681 114.2 37.7804 115.992C37.3522 117.669 36.924 119.346 36.6706 120.967C36.2792 124.27 35.6014 127.278 35.5076 130.004C34.9704 135.567 35.4934 139.926 35.2767 143.173L35.3325 143.347C35.4339 140.041 35.4314 135.806 36.4855 130.655C37.3089 125.386 39.2446 119.377 42.0581 112.799C45.5303 104.663 49.4446 98.2153 51.8856 93.4893C53.2512 91.1282 54.319 89.3434 55.0335 87.9602C55.6884 86.6923 56.2204 85.9449 56.2204 85.9449C56.2204 85.9449 55.9265 86.2312 55.4579 86.5732C55.9899 85.8259 56.6372 85.1381 57.344 84.335C59.3493 81.8663 61.7636 79.1708 64.3528 76.4196C64.1742 76.7654 63.8208 77.1669 63.4674 77.5684C62.6377 78.8921 61.2797 80.6731 59.9699 83.209C57.1792 88.0464 54.1276 95.0854 52.5111 103.304C51.9448 106.662 51.4419 109.614 51.2885 112.456C51.1542 113.846 51.0795 115.122 50.9452 116.513C50.8704 117.788 50.9704 119.008 50.9552 120.168C50.8095 122.43 51.0134 124.579 50.931 126.435C50.9196 127.305 50.8486 128.291 50.7219 129.101C50.6548 129.797 50.5281 130.607 50.2899 131.068C50.5281 130.607 50.5952 129.912 50.6624 129.217C50.7891 128.406 50.9753 127.48 51.0462 126.494C51.3034 124.583 51.3896 122.437 51.885 120.065C52.075 118.849 52.265 117.633 52.5146 116.301C52.7642 114.97 53.129 113.698 53.4381 112.252C53.7472 110.805 54.0563 109.359 54.5998 107.741C55.0837 106.239 55.3966 104.502 56.0553 102.944C58.6573 94.7967 61.2403 88.0997 62.6958 83.3028C64.0804 79.4913 64.7544 76.773 64.9963 76.0219C67.113 73.9027 69.2893 71.6683 71.7556 69.4377C74.341 66.9765 77.276 64.404 80.3262 61.8909C80.0324 62.1772 79.7942 62.6382 79.3812 63.155C78.1424 64.7054 76.4867 67.0628 74.5334 69.9964C70.7421 75.9232 65.8714 84.5049 63.0122 94.5637C60.5851 102.655 59.6235 109.606 59.2015 115.229C58.7353 119.806 58.8011 123.637 58.5286 126.709C58.9163 123.696 59.2559 119.929 60.2465 115.184C61.3082 109.454 63.1995 102.4 66.4969 94.3194C70.6317 84.3353 74.513 75.9726 77.1441 70.0306C78.402 67.0298 79.4775 64.6649 80.1957 62.9917C80.6125 62.1848 80.7949 61.5489 81.0331 61.0878C84.3772 58.2885 88.071 55.3777 91.88 52.5265C93.7548 51.1585 95.8043 49.7348 97.7386 48.2515C99.7881 46.8278 101.778 45.5193 104.003 44.0399C108.217 41.252 112.666 38.293 117.17 35.5089C122.084 32.4981 127.113 29.5468 132.372 26.7146C132.837 26.6627 133.012 26.607 133.012 26.607C133.012 26.607 132.837 26.6627 132.606 26.5436C137.107 24.0496 141.782 21.4998 146.458 18.9501C147.685 18.2699 149.087 17.534 150.43 16.9133C149.604 17.9469 145.244 22.9959 139.161 31.0975C132.427 40.1771 123.784 53.2353 116.565 68.343C110.719 80.5096 107.045 90.7317 104.559 98.9386C103.345 102.984 102.37 106.569 101.517 109.633C101.275 110.384 101.033 111.136 100.851 111.771C100.668 112.407 100.486 113.043 100.303 113.679C100.184 113.91 100.121 114.315 100.002 114.546C100.121 114.315 100.24 114.084 100.359 113.854C100.839 112.642 101.264 111.255 101.863 109.812C102.831 106.807 104.096 103.226 105.775 99.1286C108.957 90.9889 113.735 80.6072 120.567 68.5116C129.061 53.4786 136.89 40.5838 142.293 31.2547C147.219 22.8477 150.188 17.6645 150.665 16.7423C156.389 13.8582 162.288 10.9183 168.187 7.97844C166.472 10.451 163.038 15.6862 158.472 23.1115C156.928 25.8184 155.209 28.581 153.427 31.749C151.645 34.9169 149.803 38.2002 147.667 41.7697C146.714 43.614 145.591 45.2239 144.523 47.0087C143.28 48.8492 141.918 50.9202 140.732 52.9355C139.545 54.9508 138.358 56.966 137.171 58.9813C136.099 61.0562 134.853 63.1867 133.721 65.3768C126.287 79.2052 120.969 90.9144 116.961 100.088C113.433 108.049 110.798 114.281 107.967 117.783C110.913 114.341 113.834 108.402 117.883 100.564C122.646 91.3426 129.009 79.5891 137.604 65.7759C140.156 61.3995 142.82 57.3728 145.309 53.4017C146.612 51.446 147.854 49.6055 148.982 47.7055C150.169 45.6902 151.471 43.7344 152.423 41.8902C156.349 34.5725 159.274 28.3442 161.838 23.0976C164.287 17.7915 166.14 13.638 167.454 10.812C167.993 9.48454 168.529 8.44711 168.771 7.69597C172.1 6.05695 175.544 4.47746 178.873 2.83842C183.076 0.920746 187.454 -1.05267 191.657 -2.97035C190.95 -2.16728 189.715 -0.906952 188.067 0.870193C185.243 3.7924 181.296 8.32455 176.638 13.9499C174.28 16.8201 171.917 19.9805 169.436 23.3714C168.252 25.0966 167.01 26.9371 165.767 28.7776C164.64 30.6776 163.512 32.5776 162.325 34.5929C160.011 38.5082 157.752 42.5983 155.375 46.919C153.057 51.1244 150.329 55.5565 147.483 60.2192C138.583 75.1888 130.989 87.9126 125.749 98.0562C120.395 108.14 117.22 115.7 113.745 119.6C117.105 115.64 120.681 108.434 126.902 98.6516C132.952 88.6347 141.647 76.0414 152.172 61.035C155.309 56.3762 158.501 51.8921 161.057 47.2257C163.494 42.7897 165.812 38.5844 168.067 34.7843C169.079 32.8248 170.207 30.9247 171.159 29.0804C172.227 27.2957 173.295 25.511 174.419 23.901C176.435 20.562 178.393 17.3383 180.402 14.5795C186.559 5.20227 190.645 -1.01079 191.947 -2.96655C193.115 -3.53146 194.398 -4.03685 195.566 -4.60176C201.227 -7.08057 206.888 -9.55936 212.664 -11.9786C213.073 -12.2054 213.597 -12.3725 214.007 -12.5993C213.3 -11.7962 212.065 -10.5359 210.532 -8.6992C207.705 -5.48692 203.698 -0.839493 199.152 5.13542C194.49 11.0508 188.999 18.2899 183.496 26.3991C180.772 30.5412 177.989 34.7985 175.203 39.3459C172.475 43.778 169.339 48.4368 166.083 53.3262C155.781 69.0318 147.48 82.5586 141.593 93.39C138.739 98.6328 136.298 103.359 133.92 107.68C132.849 109.754 131.781 111.539 130.773 113.209C130.241 113.956 129.768 114.588 129.236 115.335C129.709 114.703 130.121 114.186 130.594 113.554C131.602 111.885 132.785 110.16 133.972 108.144C136.346 104.114 139.193 99.4512 142.571 94.0412C149.443 83.2807 158.785 69.9996 170.713 54.2574C174.259 49.3718 177.86 44.661 180.822 40.0579C183.608 35.5105 186.451 31.1379 189.115 27.1112C194.447 18.7675 199.183 11.5766 202.974 5.6498C208.961 -3.96178 213.05 -10.4649 214.356 -12.7107C219.548 -14.8475 224.681 -16.8691 229.873 -19.0059C233.608 -20.5816 237.282 -22.042 241.013 -23.3276C239.063 -20.684 234.922 -14.6458 229.706 -6.24261C226.089 -0.371536 221.993 6.71173 218 14.7248C215.916 18.7592 213.888 22.9684 211.916 27.3524C210.9 29.602 209.943 31.7364 208.637 33.9822C207.331 36.228 206.14 38.5334 204.775 40.8945C196.101 56.2733 188.734 69.4062 182.792 80.0628C179.878 85.4209 177.087 90.2583 174.594 94.5195C171.986 98.721 169.791 102.406 166.856 104.978L166.562 105.265C169.612 102.752 171.808 99.0668 174.821 94.9286C177.604 90.6713 180.685 85.8377 184.119 80.6025C191.106 69.9016 199.749 56.8433 210.048 41.4279C211.588 39.011 213.069 36.7095 214.55 34.4079C216.031 32.1064 217.281 29.6857 218.297 27.4361C220.444 22.9964 222.357 18.7277 224.266 14.749C227.969 6.73215 231.311 -0.303024 233.942 -6.24505C236.688 -12.1275 238.664 -16.8016 240.041 -20.0329C240.7 -21.5909 241.18 -22.8032 241.597 -23.61C243.404 -24.2826 245.212 -24.9552 246.964 -25.8026C248.247 -26.308 249.415 -26.8729 250.698 -27.3783C250.456 -26.6271 249.857 -25.1844 248.841 -22.9347C247.464 -19.7034 245.432 -15.2041 242.92 -9.49265C238.015 1.69978 231.078 17.3915 222.824 36.1992C211.288 61.9269 199.028 80.8562 189.411 92.9732C190.765 91.4823 192.064 89.8166 193.537 88.0952C196.491 84.0722 200.494 79.7149 204.043 74.5392C211.663 64.3108 220.012 51.5389 228.391 36.4464C238.616 17.7805 244.456 1.66827 247.39 -9.66608C248.857 -15.3333 249.904 -19.9035 250.351 -23.031C250.671 -25.3477 250.806 -26.7386 250.873 -27.434C254.782 -29.0654 258.516 -30.6411 262.37 -32.4473C262.068 -31.5809 261.647 -30.484 261.164 -28.9817C260.021 -25.9213 258.279 -21.4183 256.292 -15.874C255.153 -13.1037 253.951 -9.92814 252.689 -6.63728C251.427 -3.34642 250.221 0.119232 249.071 3.75969C246.596 11.0964 243.994 19.2437 241.384 27.9712C240.293 31.4964 239.032 34.7872 238.06 38.0819C236.798 41.3727 235.596 44.5484 234.338 47.5491C231.938 53.6102 229.429 59.0316 226.985 64.0477C221.924 73.8455 216.362 82.0701 209.86 86.7428L209.566 87.029C216.068 82.3563 222.206 74.4295 228.487 64.5316C231.627 59.5827 234.719 53.8788 237.99 47.8291C239.598 44.7169 241.205 41.6047 242.816 38.2023C244.253 34.8558 245.924 31.3382 247.479 27.7611C251.078 18.8145 253.796 10.7267 255.865 3.32664C258.519 -4.35582 260.117 -11.1238 261.175 -16.5642C262.232 -22.0047 262.695 -26.2924 262.908 -29.2489C263.042 -30.6397 263.057 -31.8 263.069 -32.6702C263.303 -32.8412 263.593 -32.8374 263.828 -33.0084C266.866 -34.6513 269.846 -36.1788 272.825 -37.7064C272.758 -37.011 272.631 -36.2003 272.56 -35.2148C272.173 -32.2026 271.535 -27.8591 270.593 -22.3591C269.591 -16.7439 268.231 -10.437 266.161 -3.03702C265.126 0.662994 263.972 4.59352 262.584 8.69505C261.918 10.8332 261.136 12.9119 260.47 15.05C259.803 17.1882 259.371 19.1554 258.705 21.2936C254.93 34.8218 250.423 46.6577 245.191 56.2212C239.9 65.8999 233.65 73.4772 227.724 78.4476L227.43 78.7338C233.241 73.7039 240.182 66.4839 246.578 56.6456C249.834 51.7562 252.922 46.3424 255.958 40.4637C257.506 37.4667 258.939 34.4102 260.376 31.0636C261.094 29.3904 261.753 27.8323 262.53 26.0438C262.947 25.2369 263.133 24.311 263.61 23.3888C264.086 22.4667 264.562 21.5445 265.038 20.6224C269.63 11.1665 272.236 2.72914 273.667 -4.5632C275.041 -12.0304 275.244 -18.6425 275.138 -23.8081C274.916 -29.0333 274.33 -32.9867 273.843 -35.7202C273.624 -36.7095 273.461 -37.524 273.353 -38.1637C275.339 -39.182 277.21 -40.26 279.081 -41.3379C279.49 -41.5646 279.959 -41.9066 280.368 -42.1333C280.416 -41.3784 280.576 -40.2738 280.672 -38.7639C280.828 -37.3693 280.98 -35.6846 281.188 -33.825C281.336 -31.8503 281.424 -29.7602 281.624 -27.3205C281.85 -22.3855 281.889 -16.5245 281.742 -9.7375C281.581 -6.31615 281.36 -2.77953 281.077 1.16245C280.935 3.13342 280.678 5.04486 280.361 7.07158C280.044 9.09828 279.787 11.0097 279.411 13.1517C278.163 19.8082 276.398 26.0517 273.882 32.0533C272.624 35.054 271.311 37.88 269.822 40.7617C268.803 43.3014 267.958 45.7854 266.942 48.035C262.818 57.1488 258.022 64.455 253.543 69.7345L253.424 69.9651C257.844 64.8009 263.335 57.5618 268.619 48.4632C269.214 47.3105 269.984 46.1021 270.58 44.9494C270.877 44.3731 271.409 43.6258 271.882 42.9937C272.414 42.2464 272.886 41.6143 273.303 40.8074C275.257 37.8738 277.095 34.8806 278.702 31.7684C282.092 25.4882 284.846 19.0255 286.801 11.566C291.563 -6.41724 289.067 -19.6796 286.344 -28.8253C284.175 -35.9328 281.796 -40.3739 280.829 -41.8952C282.76 -43.0884 284.516 -44.2258 286.446 -45.419C288.209 -47.1366 290.664 -48.497 292.892 -50.2665C295.061 -51.9208 297.345 -53.5155 299.454 -55.0545C300.566 -55.7942 301.563 -56.5935 302.735 -57.4485C303.732 -58.2477 304.788 -59.1623 305.785 -59.9615C309.717 -63.3334 313.705 -66.5304 317.001 -70.0847C318.764 -71.8023 320.468 -73.4047 322.116 -75.1818C323.704 -76.8437 325.237 -78.6804 326.71 -80.4018C338.667 -93.9387 346.265 -106.953 350.563 -116.122C352.654 -120.737 354.154 -124.489 354.999 -126.973C355.844 -129.457 356.209 -130.728 356.209 -130.728C356.51 -131.595 356.236 -132.759 355.481 -132.711C355.19 -132.714 354.781 -132.488 354.428 -132.086C354.134 -131.8 353.955 -131.454 353.717 -130.993C353.717 -130.993 353.713 -130.703 353.531 -130.067C353.349 -129.431 353.047 -128.565 352.682 -127.293C352.317 -126.021 351.718 -124.579 350.94 -122.79C350.163 -121.001 349.266 -118.982 348.365 -116.673C344.127 -107.619 336.763 -94.776 325.041 -81.4101C323.567 -79.6887 322.094 -77.9673 320.506 -76.3054C318.917 -74.6435 317.213 -73.0412 315.45 -71.3236C313.508 -69.2602 311.276 -67.2006 308.989 -65.3158C308.937 -65.7807 308.885 -66.2456 308.777 -66.8852C308.462 -69.3844 307.808 -72.6424 306.411 -76.7225C303.557 -84.7673 297.83 -94.8808 288.375 -103.999C286.542 -105.822 284.71 -107.644 282.932 -109.292C281.155 -110.94 279.259 -112.358 277.653 -113.772C274.151 -116.603 271.228 -119.426 268.414 -121.61C262.669 -126.037 258.018 -129.754 254.925 -132.812L254.694 -132.931C257.962 -129.929 262.145 -125.87 267.357 -120.696C269.993 -118.166 272.447 -115 275.421 -111.712C276.908 -110.068 278.395 -108.424 279.994 -106.43C281.477 -104.495 282.901 -102.446 284.44 -100.337C292.198 -90.1967 298.283 -80.7748 302.546 -74.046C304.591 -70.6538 306.353 -67.8455 307.371 -65.8592C307.654 -65.2753 307.88 -64.8661 308.107 -64.457C306.816 -63.3715 305.525 -62.2859 304.175 -61.0851C303.178 -60.2859 302.237 -59.3118 301.24 -58.5125C300.243 -57.7133 299.131 -56.9735 298.134 -56.1743C296.494 -54.9773 294.853 -53.7803 293.153 -52.468C293.295 -54.439 293.419 -59.4855 291.822 -66.0053C290.775 -70.1968 288.98 -74.9204 286.259 -79.8302C283.423 -84.7995 279.542 -89.7245 274.672 -94.4304C266.764 -102.019 258.885 -107.403 252.497 -111.433C249.214 -113.274 246.281 -115.228 243.574 -116.772C240.807 -118.201 238.561 -119.507 236.721 -120.749L236.49 -120.869C238.446 -119.566 240.692 -118.26 243.224 -116.66C245.697 -114.945 248.511 -112.761 251.556 -110.458C257.297 -105.741 264.063 -99.6178 270.569 -91.2929C278.733 -81.0894 284.289 -71.2103 287.965 -63.909C290.79 -58.0694 292.417 -53.8703 292.919 -52.297C292.51 -52.0703 292.156 -51.6688 291.747 -51.442C289.579 -49.7878 287.239 -48.3679 284.84 -46.8327C283.962 -46.264 283.084 -45.6952 282.091 -45.1861C280.817 -49.7867 278.513 -55.5034 274.655 -62.1689C270.51 -69.1282 264.462 -76.9249 255.747 -84.9306C250.531 -89.8151 244.727 -94.1271 239.492 -97.5612C234.141 -101.055 229.475 -103.611 225.154 -105.989C224.117 -106.525 223.139 -107.176 222.217 -107.652C221.295 -108.128 220.373 -108.605 219.506 -108.906C217.833 -109.625 216.45 -110.339 215.297 -110.934C213.047 -111.95 211.895 -112.546 211.545 -112.434C211.545 -112.434 212.066 -112.311 212.408 -111.843C212.925 -111.43 213.612 -110.782 214.531 -110.016C215.449 -109.25 216.713 -108.305 218.093 -107.3C218.84 -106.768 219.587 -106.236 220.45 -105.644C221.253 -104.938 222.115 -104.346 222.919 -103.639C226.596 -100.864 231.02 -97.5564 235.731 -93.955C240.557 -90.2942 245.9 -86.2203 251.585 -81.6778C256.236 -77.9612 260.311 -74.5423 263.806 -71.131C267.3 -67.7197 270.334 -64.5465 272.788 -61.381C277.583 -55.3995 280.761 -49.9615 281.976 -45.2456C280.454 -44.2791 279.108 -43.3684 277.587 -42.4019C276.709 -41.8332 275.775 -41.4393 274.897 -40.8706C274.511 -42.3843 272.947 -46.9888 268.91 -53.3084C266.349 -57.1136 263.04 -61.4509 258.631 -65.9187C256.456 -68.2102 253.932 -70.3902 251.236 -72.8046C249.916 -73.9244 248.422 -74.9885 246.986 -76.1678C245.492 -77.2318 244.057 -78.4112 242.387 -79.4195C239.855 -81.0194 237.267 -82.7941 234.735 -84.394C232.203 -85.9939 229.727 -87.419 227.481 -88.725C225.235 -90.031 222.814 -91.2813 220.74 -92.353C220.163 -92.6507 219.762 -93.0041 218.951 -93.1308C218.2 -93.3728 217.389 -93.4995 216.753 -93.6819C215.307 -93.991 213.745 -94.3596 212.298 -94.6687C209.64 -95.4579 206.508 -95.6151 203.786 -95.999C201.064 -96.3828 198.457 -96.7072 195.966 -96.972C193.82 -97.0582 191.849 -97.2001 189.994 -97.2825C196.252 -96.6781 203.258 -95.5417 210.598 -93.3565C213.257 -92.5673 215.856 -91.6628 218.511 -90.5835L220.59 -89.8019C221.166 -89.5042 221.568 -89.1508 222.144 -88.8531C223.122 -88.202 224.215 -87.4913 225.249 -86.6654C229.387 -83.6518 233.867 -80.1696 238.4 -76.2225C239.835 -75.0431 241.21 -73.7485 242.471 -72.5135C243.846 -71.2189 245.226 -70.2143 246.371 -69.0388C248.776 -66.6282 251.245 -64.623 253.479 -62.4467C258.067 -58.3248 261.844 -54.3296 265.168 -51.1526C270.436 -45.8032 273.868 -41.9866 274.897 -40.8706C274.079 -40.4171 273.32 -40.0789 272.502 -39.6255L272.446 -39.8003L272.387 -39.685C269.991 -38.4399 267.596 -37.1948 265.201 -35.9497C263.543 -37.8282 261.539 -39.8854 259.193 -42.4112C256.847 -44.9371 254.155 -47.6416 251.181 -50.93C245.054 -57.161 237.321 -64.8057 227.736 -72.8229C227.335 -73.1763 227.049 -73.4702 226.588 -73.7083L225.264 -74.5381C224.401 -75.1296 223.364 -75.6655 222.442 -76.1418C220.482 -77.1539 218.638 -78.1065 216.678 -79.1186C212.815 -80.9681 208.773 -82.4718 204.961 -83.8564C197.104 -86.4545 189.351 -88.123 182.341 -88.9693C178.864 -89.305 175.736 -89.7523 172.895 -89.9056C169.994 -89.9437 167.384 -89.9779 165.294 -89.8893C161.173 -89.8273 158.793 -89.7425 158.793 -89.7425C158.793 -89.7425 160.82 -89.4258 164.293 -88.8C166.03 -88.487 168.172 -88.1108 170.719 -87.6712C173.091 -87.1758 175.81 -86.5019 178.874 -85.6493C190.904 -82.6483 206.265 -77.0504 222.175 -69.1243C223.789 -68.2907 225.288 -67.5167 226.786 -66.7428C228.225 -65.8535 229.898 -65.1352 230.932 -64.3093C233.23 -62.5384 235.587 -60.8828 237.714 -59.3462C242.023 -56.0983 245.987 -53.029 249.489 -50.1979C256.609 -44.476 261.773 -40.0564 265.204 -36.2397L265.32 -36.1802C264.327 -35.671 263.508 -35.2176 262.515 -34.7084C257.26 -32.1662 251.718 -29.918 246.232 -27.4949C240.515 -25.1909 234.858 -23.0022 229.141 -20.6982C226.75 -19.7432 224.358 -18.7881 221.907 -17.7178C221.275 -18.1903 220.126 -19.0758 218.341 -20.1436C215.579 -21.8626 211.318 -24.3556 205.316 -26.8714C193.488 -31.9587 174.761 -37.5427 149.071 -38.6922C128.364 -39.3121 109.423 -37.4138 93.0778 -34.3209C76.7323 -31.228 62.9226 -26.8253 52.6053 -23.2471L52.0808 -23.0799C62.573 -26.7138 76.0254 -30.4249 91.7794 -32.6552C107.533 -34.8855 125.589 -35.635 145.18 -33.9853C169.173 -31.8136 188.615 -27.6128 201.797 -24.0163C212.436 -21.1495 219.308 -18.6223 221.502 -17.7812C218.292 -16.3727 215.026 -15.139 211.816 -13.7305C207.733 -12.0433 203.764 -10.2967 199.795 -8.54997C198.583 -9.03008 192.295 -11.8398 181.37 -15.0004C175.242 -16.7056 167.548 -18.4892 158.34 -19.8866C149.188 -21.1092 137.824 -21.7225 125.041 -20.4397C104.475 -18.5046 86.203 -14.5086 70.4705 -9.49288C62.6042 -6.985 55.3143 -4.17941 48.7755 -1.13188C45.5657 0.276611 42.352 1.97517 39.4284 3.67755C37.7918 4.58446 36.2705 5.55092 34.6896 6.63264C36.0361 5.72191 37.4979 4.87073 38.9597 4.01953C41.8238 2.43243 45.0374 0.733856 48.1878 -0.559372C54.7227 -3.31683 61.7745 -5.66132 69.4026 -7.70812C84.6588 -11.8017 102.391 -14.4703 122.016 -15.4312C134.326 -16.082 144.765 -15.6549 154.096 -14.7781C163.426 -13.9014 171.592 -12.7497 178.427 -11.8477C185.203 -10.8304 190.647 -10.0626 194.411 -9.43298C197.248 -8.98956 199.159 -8.73239 199.795 -8.54997C198.103 -7.81786 196.526 -7.02621 194.834 -6.29409C191.274 -4.77414 187.83 -3.19466 184.386 -1.61516C182.132 -2.34103 176.179 -4.10188 166.625 -5.67787C154.409 -7.75301 136.392 -9.9043 112.858 -7.31191C93.9727 -5.23877 76.9165 -1.05272 62.2214 4.49889C48.0507 9.88329 36.0625 16.9791 26.8636 23.7633C36.003 17.0943 47.7492 10.7497 61.2092 6.45845C75.428 1.82899 91.7141 -1.14864 109.658 -2.24771C131.898 -3.46449 150.459 -2.93077 163.854 -2.29079C173.887 -1.927 180.961 -1.48604 183.802 -1.3327C181.875 -0.429596 179.833 0.413986 177.847 1.43236C175.511 2.56221 173.175 3.69206 170.899 4.70663C170.204 4.63948 168.467 4.32655 165.801 4.11749C162.208 3.7222 156.935 3.1888 150.033 2.98216C143.131 2.77553 134.659 2.7804 124.785 3.52119C114.792 4.49251 103.516 5.96922 90.8816 9.22688C70.6789 14.4161 52.5991 21.4319 37.2187 30.5721C35.2882 31.7652 33.4173 32.8431 31.602 34.0959C29.7868 35.3486 27.9716 36.6013 26.1564 37.854C22.5855 40.2442 19.2971 43.2183 16.1873 45.8466C13.018 48.5903 10.1906 51.8026 7.54191 54.669C6.0687 56.3904 4.71073 58.1714 3.46806 60.0118C4.59166 58.4019 5.89008 56.7362 7.12894 55.1858C10.2349 52.8476 13.0585 49.9254 16.1125 47.1222Z" fill="#163127" fill-opacity="0.3"/>
<path d="M3.45309 61.1723C3.04014 61.6891 2.6829 62.3807 2.38521 62.957C2.74244 62.2654 3.15541 61.7486 3.45309 61.1723Z" fill="#163127" fill-opacity="0.3"/>
<path d="M3.86629 60.6555C3.74722 60.886 3.68768 61.0013 3.5686 61.2318C3.68768 61.0013 3.80675 60.7708 3.86629 60.6555Z" fill="#163127" fill-opacity="0.3"/>
<path d="M16.4683 64.2442C16.6469 63.8984 16.9408 63.6121 17.0599 63.3815C16.8255 63.5526 16.6469 63.8984 16.4683 64.2442Z" fill="#163127" fill-opacity="0.3"/>
<path d="M15.2816 66.2594C15.4602 65.9136 15.6388 65.5678 15.8769 65.1067C15.7579 65.3372 15.6388 65.5678 15.5197 65.7983L15.2816 66.2594Z" fill="#163127" fill-opacity="0.3"/>
<path d="M17.476 62.575C17.3569 62.8055 17.2378 63.036 17.0035 63.207C17.1226 62.9765 17.3012 62.6307 17.5355 62.4597L17.476 62.575Z" fill="#163127" fill-opacity="0.3"/>
<path d="M26.7134 52.8898C29.0606 50.8898 31.4674 48.7745 34.1009 47.0683C36.7939 45.2468 39.487 43.4254 42.4105 41.723C45.2746 40.1359 48.3134 38.493 51.408 37.025C54.6179 35.6165 57.7682 34.3233 61.0337 33.0896C64.3551 32.0307 67.7916 31.0314 71.3435 30.0916C74.8358 29.267 78.5624 28.2715 82.3448 27.4508C101.022 23.5181 117.186 21.0611 128.756 19.2981C140.266 17.6504 147.358 16.641 147.358 16.641C147.358 16.641 145.793 16.5624 142.836 16.3495C139.936 16.3115 135.584 16.2544 130.129 16.3569C119.098 16.7923 103.3 17.9776 84.0271 23.0629C80.1256 24.1142 76.399 25.1098 72.7281 26.2801C69.1167 27.3352 65.5015 28.6803 62.1764 30.0293C55.1765 32.8387 48.7492 36.2358 42.8387 40.0459C36.9878 43.7407 31.6536 47.8485 26.9553 52.1387C24.6081 54.1387 22.4876 56.548 20.4861 58.7266C19.4854 59.816 18.5999 60.9648 17.7145 62.1137C17.655 62.229 17.595 62.3444 17.5355 62.4597C18.421 61.3108 19.2473 60.277 20.248 59.1877C22.2494 57.009 24.4257 54.7746 26.7134 52.8898Z" fill="#163127" fill-opacity="0.3"/>
<path d="M4.38786 118.165C4.5817 116.659 4.95034 115.097 5.31899 113.535C4.83127 115.327 4.51836 117.064 4.20544 118.801L4.38786 118.165Z" fill="#163127" fill-opacity="0.3"/>
<path d="M30.676 82.5345C32.0301 81.0437 33.4995 79.6124 34.9132 78.0062C36.4421 76.4596 37.9711 74.913 39.6153 73.4259C45.9654 67.0685 53.5758 61.9462 61.5359 56.7123C74.4652 48.6425 85.6681 43.9155 94.8213 40.6121C97.0938 39.8876 99.251 39.1036 101.349 38.4348C103.387 37.8813 105.31 37.2683 107.173 36.7705C110.725 35.8307 113.868 35.1176 116.542 34.7465L116.832 34.7504C111.539 35.6673 104.503 36.8515 95.4762 39.3442C86.4497 41.8368 75.2621 45.4036 61.9388 52.5399C53.6405 57.0149 45.911 62.3678 39.1518 68.9519C32.3963 75.246 26.7935 82.1355 22.6411 89.0439C21.5733 90.8287 20.6802 92.5577 19.8467 94.1715C19.0132 95.7852 18.1796 97.399 17.5209 98.957C16.2035 102.073 15.0089 104.668 14.2235 107.037C12.7122 111.659 11.923 114.318 11.923 114.318C11.923 114.318 12.939 112.068 14.677 107.855C15.4586 105.777 16.9394 103.475 18.3683 100.709C19.7972 97.9424 21.691 95.1241 23.7634 91.9599C24.2954 91.2126 24.7717 90.2904 25.3037 89.5431C25.8358 88.7957 26.5426 87.9927 27.0746 87.2453C28.1387 85.7506 29.3776 84.2002 30.676 82.5345Z" fill="#163127" fill-opacity="0.3"/>
<path d="M83.7913 54.3351C85.6027 53.3724 87.3545 52.525 88.8163 51.6738C90.3338 50.9974 91.5613 50.3172 92.5544 49.808C94.6001 48.6744 95.768 48.1095 95.768 48.1095C95.768 48.1095 94.6635 48.2691 92.7406 48.8821C90.7025 49.4356 87.8499 50.1525 84.0599 51.5534C76.7142 54.1841 66.0358 58.744 54.2515 67.9893C44.8106 75.5247 37.2141 84.0127 31.8823 92.3563C26.4911 100.815 23.1937 108.895 21.1947 115.31L21.0756 115.54C22.1029 112.421 23.3127 108.665 25.2737 105.151C26.2263 103.307 27.1231 101.288 28.3658 99.4472C29.6085 97.6068 30.7954 95.5915 32.2129 93.6952C37.7675 86.0508 45.3527 78.4331 54.6631 71.9985C66.0269 63.8501 76.3708 58.2414 83.7913 54.3351Z" fill="#163127" fill-opacity="0.3"/>
<path d="M68.3862 69.7416C70.9082 67.6858 73.2479 66.2659 74.7135 65.1246C76.1791 63.9833 77.0569 63.4146 77.0569 63.4146C77.0569 63.4146 73.8547 64.243 68.3647 66.9561C62.9305 69.844 55.0338 74.6725 47.0243 83.6773C45.432 85.6293 43.9588 87.3507 42.5413 89.2469C41.2391 91.2026 39.8811 92.9836 38.7537 94.8836C37.6263 96.7836 36.6142 98.7432 35.7211 100.472C34.6532 102.257 33.8755 104.046 33.0977 105.834C32.3199 107.623 31.6016 109.296 31.0581 110.913C30.63 112.591 30.0865 114.208 29.6026 115.71C28.6348 118.715 28.2509 121.437 27.6403 123.75L27.5212 123.981C28.0166 121.608 28.5157 118.946 29.5988 116.001C30.0827 114.498 30.6819 113.055 31.2253 111.438C31.7688 109.82 32.658 108.381 33.4916 106.768C35.1586 103.54 37.231 100.376 39.5973 96.9255C42.0193 93.6499 44.7314 90.3781 47.9641 87.2291C55.8988 79.4999 63.1116 73.7341 68.3862 69.7416Z" fill="#163127" fill-opacity="0.3"/>
<path d="M50.119 130.834L50.1786 130.719C50.0038 130.775 50.119 130.834 50.119 130.834Z" fill="#163127" fill-opacity="0.3"/>
<path d="M57.8779 127.686C58.0008 127.166 58.0641 126.76 58.0717 126.18C58.0641 126.76 57.9412 127.281 57.8779 127.686Z" fill="#163127" fill-opacity="0.3"/>
<path d="M57.8704 128.267C57.93 128.151 57.9338 127.861 57.9933 127.746C57.9338 127.861 57.9895 128.036 57.93 128.151L57.8704 128.267Z" fill="#163127" fill-opacity="0.3"/>
<path d="M90.859 59.5922C92.5261 56.3647 93.7207 53.7692 94.6137 52.0402C95.3915 50.2516 95.8678 49.3295 95.8678 49.3295C95.8678 49.3295 95.1014 50.2478 93.6282 51.9693C92.155 53.6907 90.265 56.2189 88.0178 59.4388C83.5234 65.8786 78.0612 75.323 75.2502 86.1367C72.8154 94.8085 73.2484 101.603 73.1204 106.94C73.3166 109.669 72.7618 112.157 72.8504 114.247C72.7199 115.348 72.5337 116.274 72.4627 117.259C72.3917 118.245 72.3803 119.115 72.3132 119.811L72.2536 119.926C72.3803 119.115 72.3917 118.245 72.5184 117.434C72.7046 116.508 72.9504 115.467 73.1962 114.426C73.4419 113.385 73.3419 112.165 73.7067 110.893C74.0716 109.621 74.2059 108.23 74.3402 106.84C75.1117 101.105 75.9581 94.0954 79.2035 85.5504C83.1711 75.0419 87.5845 65.9319 90.859 59.5922Z" fill="#163127" fill-opacity="0.3"/>
<path d="M93.0919 79.5819C99.4066 67.0734 105.583 56.2458 109.918 48.7014C114.312 41.0418 116.634 36.5463 116.634 36.5463C116.634 36.5463 115.634 37.6356 113.867 39.6433C112.215 41.7105 109.797 44.6961 107.021 48.3732C101.526 55.9024 94.3044 66.7743 89.3209 79.5323C85.2419 89.6912 83.1567 98.2515 82.1394 105.027C81.1221 111.803 81.407 116.622 80.9559 120.04L80.8964 120.155C81.3474 116.738 81.5274 111.866 83.1249 105.098C84.8971 98.2743 88.0274 89.6697 93.0919 79.5819Z" fill="#163127" fill-opacity="0.3"/>
<path d="M122.219 39.869C116.073 48.376 108.137 60.6312 101.974 74.8244C96.9501 86.2473 94.1542 95.9008 92.4896 103.364C90.7655 110.943 90.4626 116.335 89.0818 119.856L89.0223 119.972C90.3435 116.566 90.9365 111.177 93.4156 103.55C95.8351 96.0389 99.676 86.3411 105.745 74.8739C113.183 60.7554 120.305 48.6637 125.12 39.9071C129.991 31.3253 132.785 26.1978 132.785 26.1978C132.785 26.1978 131.725 27.4024 129.779 29.7559C128.064 32.2284 125.292 35.6155 122.219 39.869Z" fill="#163127" fill-opacity="0.3"/>
<path d="M99.712 114.542C99.4739 115.003 99.2357 115.464 99.0571 115.81C99.2952 115.348 99.4739 115.003 99.712 114.542Z" fill="#163127" fill-opacity="0.3"/>
<path d="M99.7717 114.426L99.712 114.542C99.7716 114.426 99.7717 114.426 99.7717 114.426Z" fill="#163127" fill-opacity="0.3"/>
<path d="M98.525 116.557C98.6441 116.327 98.8227 115.981 99.1166 115.695C98.938 116.04 98.7593 116.386 98.4655 116.672L98.525 116.557Z" fill="#163127" fill-opacity="0.3"/>
<path d="M106.267 119.096C106.326 118.98 106.326 118.98 106.501 118.925C106.442 119.04 106.207 119.211 106.148 119.326L106.267 119.096Z" fill="#163127" fill-opacity="0.3"/>
<path d="M113.63 119.541C113.571 119.656 113.571 119.656 113.511 119.771L113.63 119.541Z" fill="#163127" fill-opacity="0.3"/>
<path d="M128.355 116.194C128.295 116.309 128.061 116.48 128.001 116.596C128.236 116.425 128.295 116.309 128.355 116.194Z" fill="#163127" fill-opacity="0.3"/>
<path d="M128.708 115.793L128.767 115.677C128.648 115.908 128.473 115.964 128.414 116.079C128.589 116.023 128.648 115.908 128.708 115.793Z" fill="#163127" fill-opacity="0.3"/>
<path d="M127.179 117.339C127.239 117.224 127.239 117.224 127.414 117.168C127.239 117.224 127.179 117.339 126.945 117.51L127.179 117.339Z" fill="#163127" fill-opacity="0.3"/>
<path d="M188.156 51.5851C189.871 49.1125 191.355 46.5209 192.725 43.8697C193.975 41.4491 195.166 39.1437 196.357 36.8383C198.738 32.2276 201.116 27.907 203.374 23.8168C208.066 15.5809 212.167 8.2075 215.728 2.16162C219.173 -3.94379 221.964 -8.78123 223.981 -12.1202C225.882 -15.5187 226.95 -17.3035 226.95 -17.3035C226.95 -17.3035 225.417 -15.4668 222.705 -12.195C219.993 -8.92315 216.217 -4.15665 211.786 1.87779C207.355 7.91225 202.384 15.2742 197.342 23.6216C194.794 27.7079 192.472 32.2034 190.031 36.9294C188.84 39.2348 187.764 41.5997 186.629 44.0798C186.034 45.2325 185.673 46.2142 185.018 47.4821C184.423 48.6348 183.653 49.8432 182.998 51.1112C178.369 58.9418 173.458 66.1885 169.365 72.9817C165.042 79.6558 161.421 85.817 158.043 91.227C154.78 96.6965 151.989 101.534 149.381 105.736C146.832 109.822 144.637 113.507 142.111 115.852L141.877 116.023C144.518 113.737 146.713 110.052 149.492 106.085C152.45 101.772 155.646 96.998 159.195 91.8223C162.979 86.4757 167.295 80.3817 172.199 73.7152C177.046 66.8739 182.538 59.6348 188.156 51.5851Z" fill="#163127" fill-opacity="0.3"/>
<path d="M184.932 98.2527C184.992 98.1374 185.051 98.0222 185.226 97.9664C185.226 97.9664 185.226 97.9664 185.166 98.0817L184.932 98.2527Z" fill="#163127" fill-opacity="0.3"/>
<path d="M189.296 92.9137C187.763 94.7504 186.349 96.3566 185.11 97.907C186.464 96.4161 187.878 94.8099 189.296 92.9137Z" fill="#163127" fill-opacity="0.3"/>
<path d="M310.154 -21.4917C306.456 -27.0526 302.801 -31.5684 299.66 -35.3813C293.493 -42.9474 289.139 -47.2403 289.139 -47.2403C289.139 -47.2403 291.097 -41.7023 295.1 -32.772C297.073 -28.3942 299.731 -23.0791 302.845 -17.2357C303.971 -14.6098 304.212 -10.8351 304.043 -6.83358C304.05 -2.88782 303.528 1.51521 302.887 6.14879C301.746 13.4449 299.799 20.3243 297.451 26.8503C296.304 30.2007 294.987 33.3168 293.554 36.3733C292.121 39.4298 290.577 42.1367 288.973 44.9588C285.71 50.4284 282.22 55.4888 278.508 59.8499C278.095 60.3667 277.622 60.9988 277.094 61.4561C276.506 62.0286 276.443 62.4339 276.205 62.895C275.613 63.7576 275.137 64.6797 274.605 65.4271C273.481 67.037 272.417 68.5317 271.353 70.0264L271.234 70.2569C272.239 68.8775 273.418 67.4424 274.601 65.7172C275.193 64.8546 275.784 63.9919 276.376 63.1293L276.789 62.6125C276.908 62.382 277.027 62.1515 277.321 61.8652C277.908 61.2927 278.321 60.7759 278.909 60.2033C283.031 55.6154 287.276 50.5069 291.294 44.9893C292.299 43.6099 293.363 42.1152 294.252 40.6763C295.201 39.122 296.15 37.5678 297.098 36.0136C298.94 32.7304 300.782 29.4471 302.393 26.0448C304.005 22.6425 305.56 19.0654 306.885 15.3692C308.27 11.5577 309.424 7.62718 310.288 3.69283C311.338 -1.16747 312.094 -5.74149 312.092 -9.97734C312.264 -14.2689 311.968 -18.2185 310.154 -21.4917Z" fill="#163127" fill-opacity="0.3"/>
<path d="M329.882 -16.9971C325.01 -30.4647 315.08 -38.6605 307.777 -43.7464C300.185 -48.8362 294.7 -50.9391 294.7 -50.9391C294.7 -50.9391 298.247 -47.0629 303.674 -40.6089C309.043 -34.0397 316.522 -24.7736 322.863 -12.7373C325.294 -7.83132 327.144 -2.93295 328.184 1.83871C329.224 6.6104 329.565 11.605 328.983 16.1233C329.012 18.3286 328.401 20.6416 327.91 22.724C327.359 24.9218 326.867 27.0042 326.32 28.9118C324.642 33.0096 322.967 36.8172 321.359 39.9295L321.24 40.16C322.848 37.0478 324.638 33.2996 326.785 28.8599C327.567 26.7813 328.348 24.7026 329.134 22.3339C329.919 19.9652 330.879 17.5408 331.259 15.1087C331.699 12.5614 332.138 10.0141 332.697 7.23622C332.731 4.62555 332.825 1.89963 332.919 -0.826309C332.753 -5.87663 331.84 -11.459 329.882 -16.9971Z" fill="#163127" fill-opacity="0.3"/>
<path d="M313.943 -66.9917C313.943 -66.9917 316.794 -63.1826 321.821 -57.0821C326.847 -50.9815 334.051 -42.8796 342.517 -33.5425C349.324 -26.0841 354.394 -18.9385 357.207 -12.2287C359.961 -5.40369 360.044 1.50237 358.689 7.51915L358.685 7.80922C359.981 1.9077 361.125 -5.67853 359.662 -13.5891C358.144 -21.6745 354.658 -30.1918 348.911 -38.8549C341.74 -49.5676 332.427 -56.1305 325.697 -60.6287C318.617 -65.0155 313.943 -66.9917 313.943 -66.9917Z" fill="#163127" fill-opacity="0.3"/>
</svg>
