<svg width="343" height="225" viewBox="0 0 343 225" fill="none" xmlns="http://www.w3.org/2000/svg">
<path d="M222.574 6.27463C219.92 5.61123 217.399 5.08051 215.144 4.68246C217.266 5.21319 219.787 5.74391 222.574 6.27463Z" fill="url(#paint0_linear_1409_37895)" fill-opacity="0.7"/>
<path d="M214.612 4.54982C214.745 4.54982 214.878 4.54982 215.01 4.6825L214.612 4.54982Z" fill="url(#paint1_linear_1409_37895)" fill-opacity="0.7"/>
<path d="M158.887 24.0538C162.071 24.5845 165.521 25.1152 169.502 25.9113C185.025 28.8302 204.662 34.9335 224.431 44.2211C240.485 51.6512 252.294 59.3467 261.449 65.9807C269.675 72.6147 276.176 78.1872 280.687 82.5657L280.953 82.831C276.442 78.4526 270.604 72.6147 263.439 65.3173C261.714 63.4597 259.459 61.6022 257.203 59.612C254.815 57.6218 252.294 55.6316 249.64 53.5087C244.2 49.3957 237.832 45.0172 230.402 40.7715C211.959 30.0244 190.2 24.4518 172.819 22.727C168.44 22.4616 164.46 22.1962 160.877 21.9309C157.295 21.9309 153.978 22.0636 151.457 22.1962C148.803 22.3289 146.813 22.4616 145.486 22.4616C144.16 22.5943 143.364 22.5943 143.364 22.5943C143.364 22.5943 146.017 22.727 150.661 23.2577C152.651 23.523 155.57 23.6557 158.887 24.0538Z" fill="url(#paint2_linear_1409_37895)" fill-opacity="0.7"/>
<path d="M109.53 40.108L109 40.2407C109.265 40.108 109.53 40.108 109.796 39.9753C109.663 39.9753 109.53 40.108 109.53 40.108Z" fill="url(#paint3_linear_1409_37895)" fill-opacity="0.7"/>
<path d="M117.756 38.7812C120.808 38.5158 123.86 38.6485 127.177 38.5158C133.545 38.6485 140.577 39.0465 148.14 39.9753C151.988 40.3733 155.835 40.9041 159.816 41.5675C163.796 42.2309 167.909 42.8943 172.288 43.823C180.647 45.5479 189.138 48.0688 197.63 51.3858C218.328 59.7446 233.984 68.8996 245.129 75.6662C256.142 82.4329 262.378 86.8114 262.378 86.8114C262.378 86.8114 261.449 85.4846 259.326 83.0963C257.203 80.7081 254.019 77.3911 249.508 73.4107C240.353 65.5826 225.891 55.1008 203.07 47.5381C193.782 44.6191 184.494 42.4962 175.472 41.1694C166.317 39.9753 157.958 39.0465 149.998 38.6485C142.169 38.1178 134.739 38.1178 128.238 38.1178C122.931 38.3831 118.154 38.5158 113.511 39.3119H113.643C114.705 39.0465 116.164 38.9139 117.756 38.7812Z" fill="url(#paint4_linear_1409_37895)" fill-opacity="0.7"/>
<path d="M109.796 39.9753C110.857 39.71 112.051 39.4446 113.112 39.3119C111.918 39.4446 110.857 39.71 109.796 39.9753Z" fill="url(#paint5_linear_1409_37895)" fill-opacity="0.7"/>
<path d="M47.0376 88.5363C47.5684 88.2709 48.2318 87.8729 48.7625 87.6075C48.0991 87.8729 47.5684 88.1382 47.0376 88.5363Z" fill="url(#paint6_linear_1409_37895)" fill-opacity="0.7"/>
<path d="M48.7625 87.6075C48.8952 87.6075 49.0276 87.4749 49.1602 87.4749C49.0276 87.4749 48.8952 87.4748 48.7625 87.6075Z" fill="url(#paint7_linear_1409_37895)" fill-opacity="0.7"/>
<path d="M44.6497 89.9957C45.0477 89.7304 45.5784 89.3323 46.1092 89.067C45.8438 89.1996 45.4457 89.465 45.1804 89.5977L44.6497 89.9957Z" fill="url(#paint8_linear_1409_37895)" fill-opacity="0.7"/>
<path d="M37.3519 104.06C37.7499 103.795 38.148 103.662 38.6787 103.396C38.148 103.662 37.4845 103.927 36.9538 104.325L37.3519 104.06Z" fill="url(#paint9_linear_1409_37895)" fill-opacity="0.7"/>
<path d="M5.64119 141.078C6.03923 140.547 6.43727 139.883 6.968 139.353C6.70264 139.751 6.3046 140.149 6.03924 140.414L5.64119 141.078Z" fill="url(#paint10_linear_1409_37895)" fill-opacity="0.7"/>
<path d="M7.63191 138.424C7.36655 138.689 7.10119 139.087 6.83583 139.353C7.10119 139.087 7.36655 138.822 7.63191 138.424Z" fill="url(#paint11_linear_1409_37895)" fill-opacity="0.7"/>
<path d="M23.9513 124.758C27.5337 122.768 31.2487 120.512 35.0964 118.787C38.9442 117.062 42.9246 115.205 47.0376 113.878C63.49 108.04 82.0652 104.856 102.631 103.794C115.501 102.998 126.778 103.264 137.127 103.396C147.344 103.794 156.366 104.458 163.796 104.989C176.401 106.05 184.892 106.846 187.015 106.979C186.219 107.244 185.423 107.51 184.76 107.642C184.76 107.642 184.76 107.642 184.627 107.775C176.135 110.428 167.777 113.082 159.683 115.868C154.11 117.859 148.671 119.849 143.363 121.839C140.71 121.441 135.005 120.645 126.646 120.247C120.675 119.981 113.245 120.114 104.355 121.043C95.5986 121.972 85.5149 123.829 74.2371 127.544C65.0821 130.463 56.5906 134.444 48.6298 138.955C44.6494 141.343 40.8017 143.731 37.2193 146.385C33.6369 148.906 30.1873 151.957 27.0029 154.876C15.5925 165.358 7.36629 178.361 2.58981 189.904C7.36629 178.493 15.5925 166.154 26.7376 156.336C39.4749 145.191 55.3965 136.566 72.9103 131.657C83.6574 128.473 93.6084 126.615 102.365 125.289C104.488 125.023 106.611 124.625 108.734 124.36C110.724 124.095 112.714 123.962 114.704 123.696C118.42 123.298 122.002 123.033 125.186 122.768C131.422 122.237 136.464 122.237 139.914 121.972C140.975 121.972 141.904 121.972 142.567 121.972C137.393 123.962 132.484 125.952 127.574 127.942C122.533 130.065 117.623 132.321 112.847 134.576C110.459 135.638 108.203 136.832 105.948 137.893C103.692 139.087 101.436 140.149 99.3136 141.343C95.2005 143.599 91.2201 145.721 87.3724 147.977C87.3724 147.977 87.3724 147.977 87.2397 148.11C83.2593 150.498 79.6769 152.886 76.2273 155.142C69.5933 159.785 63.888 164.031 59.5096 168.144C58.5808 168.94 57.7847 169.736 56.9887 170.533C56.856 170.665 56.5906 170.798 56.4579 170.931C55.2638 171.727 53.6716 173.053 51.5488 174.646C49.4259 176.37 47.1703 178.759 44.6494 181.545C43.4553 183.005 42.2612 184.597 40.9344 186.454C39.6076 188.179 38.5461 190.302 37.4847 192.292C36.5559 193.884 35.7598 195.742 35.0964 197.334C34.433 199.059 33.637 200.518 33.1062 202.243C32.1775 205.427 30.9834 208.346 30.5853 211.133C29.2585 216.705 28.9931 221.084 28.1971 224.401V224.533C28.8605 221.216 29.5239 216.971 31.3814 211.796C33.1062 206.622 35.8925 200.784 39.7402 194.68C44.5167 186.985 49.4259 181.147 52.7429 176.636C54.4677 174.513 55.9272 172.788 56.856 171.594C57.7847 170.4 58.3155 169.736 58.3155 169.736C58.3155 169.736 58.0501 169.869 57.3867 170.267C58.0501 169.604 58.8462 168.94 59.6423 168.277C62.0305 166.021 64.8168 163.766 68.0011 161.378C67.7357 161.643 67.3377 162.041 66.9397 162.439C65.8782 163.633 64.2861 165.225 62.5612 167.614C58.9789 172.125 54.7331 178.759 51.8141 186.72C50.7527 190.037 49.6912 192.956 49.1605 195.742C48.8952 197.069 48.4971 198.395 48.2318 199.722C47.9664 201.049 47.8337 202.243 47.5684 203.437C47.0376 205.693 46.905 207.948 46.5069 209.806C46.3742 210.735 46.1089 211.663 45.8435 212.459C45.7108 213.256 45.4455 213.919 45.1801 214.45C45.4455 213.919 45.7108 213.388 45.9762 212.592C46.2416 211.796 46.5069 210.867 46.7723 209.939C47.303 208.081 47.8337 205.825 48.6298 203.57C49.0278 202.376 49.4259 201.182 49.8239 199.855C50.3546 198.528 50.8854 197.201 51.4161 195.874C51.9468 194.415 52.6102 193.088 53.2736 191.496C53.937 190.037 54.6004 188.444 55.5292 186.852C59.3769 179.024 63.0919 172.655 65.3475 168.012C67.3377 164.297 68.3991 161.776 68.7972 160.98C71.1854 159.122 73.839 157.265 76.6253 155.407C79.677 153.284 82.9939 151.161 86.4436 149.171C86.1783 149.436 85.7802 149.834 85.2495 150.233C83.79 151.559 81.6672 153.682 79.2789 156.468C74.5024 161.908 68.2664 169.736 63.7553 179.555C60.0403 187.383 57.9174 194.282 56.5906 199.855C55.3965 204.499 54.8658 208.346 54.0697 211.398C54.9985 208.346 55.9272 204.631 57.6521 200.12C59.6423 194.548 62.6939 187.648 67.3377 180.086C73.0429 170.665 78.3501 162.704 82.0652 157.265C83.9227 154.478 85.2495 152.223 86.3109 150.763C86.8417 149.967 87.2397 149.304 87.3724 148.906C91.2201 146.65 95.3332 144.262 99.7116 142.006C101.835 140.945 104.09 139.751 106.346 138.689C108.601 137.628 110.989 136.566 113.245 135.505C118.021 133.249 122.798 131.127 127.973 129.004C133.412 126.748 138.985 124.625 144.69 122.502C145.221 122.502 145.354 122.502 145.354 122.502C145.354 122.502 145.221 122.502 144.956 122.37C149.997 120.512 155.039 118.655 160.214 116.93C161.673 116.399 163.133 116.001 164.592 115.47C163.531 116.399 158.356 120.778 151.059 128.075C142.833 136.168 131.953 147.977 122.4 162.174C114.572 173.584 109.265 183.403 105.417 191.231C103.559 195.211 101.967 198.661 100.64 201.58C100.242 202.243 99.977 203.039 99.5789 203.703C99.3136 204.366 99.0482 205.029 98.6502 205.56C98.5175 205.825 98.3848 206.091 98.1195 206.356C98.2522 206.091 98.3848 205.958 98.5175 205.693C99.1809 204.499 99.8443 203.172 100.64 201.845C102.1 198.926 103.957 195.609 106.213 191.761C110.724 184.066 117.225 174.38 126.115 163.102C136.995 149.171 147.078 137.363 153.845 128.871C160.214 121.176 163.929 116.399 164.592 115.603C170.828 113.48 177.197 111.49 183.698 109.632C181.575 111.888 177.197 116.664 171.492 123.431C169.501 125.819 167.378 128.473 164.99 131.392C162.735 134.311 160.214 137.363 157.693 140.547C156.499 142.272 155.039 143.731 153.712 145.323C152.12 147.048 150.528 148.906 148.936 150.631C147.476 152.488 145.884 154.346 144.425 156.203C142.965 158.061 141.373 160.051 139.914 162.041C130.228 174.778 123.063 185.791 117.491 194.415C112.582 201.845 108.999 207.683 105.55 210.867C108.999 207.816 112.847 202.376 118.287 195.078C124.523 186.587 132.882 175.707 143.761 163.102C147.078 159.122 150.395 155.407 153.447 151.825C155.039 150.1 156.631 148.375 158.091 146.65C159.683 144.793 161.275 143.068 162.469 141.343C167.644 134.576 171.624 128.738 174.941 123.829C178.258 118.92 180.912 114.94 182.637 112.286C183.433 111.092 184.096 110.03 184.494 109.367C188.077 108.306 191.792 107.111 195.507 106.05C200.15 104.723 204.662 103.396 209.438 102.202C208.509 102.866 207.183 103.927 205.192 105.519C201.875 108.173 197.232 112.021 191.659 116.93C188.873 119.451 185.954 122.237 182.902 125.289C181.443 126.881 179.85 128.473 178.258 130.198C176.799 131.923 175.339 133.647 173.88 135.505C170.961 139.087 167.909 142.935 164.99 146.916C161.939 150.763 158.489 154.876 155.039 159.122C143.629 172.788 133.943 184.464 127.176 193.884C120.144 203.172 115.766 210.337 111.653 213.786C115.633 210.337 120.542 203.57 128.238 194.68C135.933 185.525 146.68 174.248 159.816 160.582C163.796 156.336 167.644 152.223 170.961 148.11C174.145 143.997 177.197 140.149 179.983 136.566C181.31 134.842 182.637 132.984 183.964 131.392C185.29 129.667 186.75 128.208 188.077 126.615C190.73 123.564 193.118 120.645 195.507 118.124C203.202 109.632 208.377 104.06 209.969 102.202C211.296 101.804 212.622 101.539 213.817 101.141C219.92 99.5487 226.023 97.8239 232.259 96.3644C232.79 96.2317 233.188 96.099 233.719 95.9664C232.79 96.6298 231.463 97.8239 229.605 99.2834C226.288 102.07 221.512 106.183 215.939 111.49C210.234 116.664 203.6 123.166 196.701 130.463C193.251 134.178 189.801 138.159 186.219 142.272C182.769 146.385 178.789 150.498 174.809 155.009C161.806 169.338 151.457 181.545 143.761 191.629C140.179 196.405 136.862 200.916 133.81 204.897C132.351 206.754 131.024 208.479 129.697 209.939C129.034 210.602 128.503 211.265 127.84 211.796C128.371 211.265 129.034 210.735 129.565 210.204C130.891 208.744 132.351 207.02 133.81 205.295C136.862 201.58 140.444 197.334 144.823 192.425C153.447 182.739 164.99 170.665 179.452 156.734C183.831 152.355 188.209 148.11 191.924 143.864C195.507 139.751 198.956 135.77 202.273 132.055C208.907 124.493 214.878 117.859 219.654 112.551C227.217 103.794 232.259 97.9566 234.117 95.8337C239.689 94.5069 245.262 93.1801 250.702 91.986C254.682 91.0572 258.662 90.1284 262.643 89.3324C260.255 91.7206 255.08 97.0278 248.579 104.723C244.068 110.03 238.76 116.664 233.453 123.962C230.8 127.677 228.013 131.657 225.36 135.77C224.033 137.893 222.706 139.883 221.114 142.006C219.522 144.129 217.797 146.252 216.072 148.375C204.794 162.439 195.374 174.513 187.679 184.464C183.831 189.506 180.381 193.884 177.197 197.732C173.88 201.447 171.094 205.029 167.644 207.02L167.378 207.285C170.828 205.295 173.747 201.845 177.329 198.13C180.912 194.282 184.76 189.904 189.005 185.127C197.762 175.442 208.642 163.633 221.379 149.702C223.37 147.579 225.227 145.456 227.085 143.2C228.942 141.078 230.667 138.822 231.994 136.832C234.78 132.719 237.566 128.738 240.087 125.023C245.129 117.461 249.64 110.959 253.223 105.387C256.805 99.8141 259.724 95.4356 261.581 92.384C262.51 90.9245 263.174 89.7304 263.704 88.9343C265.694 88.5363 267.552 88.1382 269.542 87.6075C270.869 87.2095 272.196 86.9441 273.523 86.6788C273.125 87.3422 272.328 88.8016 271.002 90.9245C269.144 93.9762 266.358 98.2219 262.908 103.529C256.141 114.011 246.589 128.871 235.311 146.385C219.654 170.533 204.264 187.781 192.588 198.395C194.18 197.069 195.772 195.742 197.497 194.15C201.212 190.567 205.856 186.72 210.234 182.076C219.522 172.921 230.136 161.378 240.751 147.446C254.019 130.198 262.51 114.807 267.287 103.927C269.675 98.4873 271.4 93.9762 272.328 90.9245C272.992 88.669 273.39 87.2095 273.523 86.5461C277.636 85.4846 281.881 84.5559 285.862 83.3618C285.464 84.1578 284.8 85.2193 284.004 86.6788C282.279 89.5977 279.891 93.8435 276.972 99.1507C275.38 101.804 273.655 104.856 271.798 107.908C269.94 111.092 268.348 114.276 266.491 117.859C262.776 124.891 258.928 132.719 254.947 141.078C253.355 144.395 251.498 147.579 249.906 150.763C248.181 153.815 246.456 156.867 244.598 159.653C241.149 165.358 237.832 170.533 234.515 175.176C227.881 184.331 220.981 191.629 213.551 195.476L213.286 195.609C220.583 191.894 228.146 184.862 235.974 175.84C239.955 171.329 243.935 166.154 248.181 160.449C250.304 157.663 252.426 154.611 254.549 151.559C256.54 148.375 258.795 145.058 260.918 141.741C265.96 133.249 269.94 125.421 273.39 118.389C277.37 110.959 280.024 104.458 281.881 99.1507C283.739 93.8435 284.933 89.5977 285.596 86.6788C285.995 85.2193 286.127 84.0252 286.26 83.3618C286.525 83.2291 286.791 83.2291 287.056 83.0964C290.373 81.9023 293.69 80.8408 296.874 79.7794C296.742 80.4428 296.476 81.2389 296.211 82.3003C295.282 85.2193 294.088 89.465 292.23 94.9049C290.373 100.477 287.985 106.581 284.8 113.745C283.208 117.328 281.483 121.043 279.361 125.023C278.299 127.014 277.238 129.004 276.176 131.127C275.247 133.117 274.319 135.107 273.39 137.23C267.419 150.365 261.051 161.51 254.151 170.4C247.385 179.289 239.822 186.056 233.055 190.037L232.79 190.302C239.424 186.189 247.65 179.82 255.611 171.063C259.591 166.685 263.704 161.643 267.685 156.203C269.675 153.417 271.665 150.498 273.655 147.446C274.584 145.987 275.645 144.395 276.574 142.802C277.105 142.006 277.503 141.21 278.166 140.414C278.83 139.485 279.493 138.689 280.024 137.761C286.127 129.004 290.108 120.91 292.761 113.613C295.415 106.315 296.609 99.6814 297.272 94.5069C297.936 89.1997 297.936 85.0866 297.936 82.3003C297.936 81.2389 297.803 80.4428 297.803 79.7794C299.926 79.116 302.049 78.3199 304.172 77.5238C304.702 77.2585 305.1 77.1258 305.631 76.8604C305.631 77.5238 305.498 78.7179 305.498 80.3101C305.366 81.7696 305.233 83.3618 305.1 85.352C304.968 87.3422 304.702 89.465 304.437 91.986C303.906 96.8951 303.11 102.998 301.783 109.765C301.12 113.215 300.324 116.797 299.395 120.645C298.864 122.502 298.334 124.493 297.803 126.483C297.272 128.473 296.609 130.463 295.945 132.453C293.69 138.955 290.771 145.058 287.454 150.631C285.729 153.417 283.872 156.203 282.014 158.724C280.555 161.112 279.36 163.368 277.901 165.623C272.328 174.248 266.358 180.882 260.918 185.393L260.653 185.658C265.96 181.147 272.594 174.778 279.493 166.287C280.289 165.225 281.218 164.164 282.014 162.97C282.412 162.439 283.076 161.776 283.606 161.112C284.27 160.449 284.8 159.785 285.464 159.122C287.852 156.468 290.24 153.682 292.363 150.763C296.742 144.925 300.589 138.822 303.774 131.657C311.336 114.276 311.071 100.477 309.744 90.6592C308.683 83.0964 306.958 78.3199 306.162 76.5951C308.285 75.6663 310.275 74.8702 312.398 73.9415C315.051 72.7473 317.705 71.8186 320.093 70.3591C322.614 69.0323 325.002 67.8382 327.523 66.5114C328.717 65.848 329.912 65.3173 331.106 64.6539C332.3 63.9905 333.361 63.1944 334.555 62.531C339.067 59.7447 343.578 57.0911 347.558 54.0395C349.548 52.58 351.538 51.1205 353.529 49.7937C355.386 48.3342 357.244 46.7421 358.969 45.2826C373.165 33.474 382.851 21.6655 388.689 12.9086C391.608 8.53019 393.598 5.08051 394.925 2.69226C396.252 0.304022 396.782 -0.8901 396.782 -0.8901C397.18 -1.68618 397.048 -2.8803 396.384 -3.01298C395.986 -3.14566 395.588 -2.8803 395.323 -2.61494C394.925 -2.34958 394.66 -2.08422 394.527 -1.5535C394.527 -1.5535 394.394 -1.28814 394.129 -0.624739C393.863 0.038662 393.333 0.834742 392.802 2.02886C392.139 3.22298 391.342 4.68246 390.414 6.27463C389.352 7.99947 388.158 9.85699 386.831 11.9799C381.126 20.4714 371.706 32.1472 357.642 43.9558C355.917 45.4152 354.192 47.0074 352.335 48.4669C350.477 49.9264 348.487 51.2532 346.497 52.7127C344.108 54.5702 341.587 56.1623 339.067 57.7545C339.067 57.3565 339.067 56.8257 339.067 56.1623C339.199 53.6414 339.066 50.1917 338.27 45.8133C336.546 37.3218 332.565 26.044 324.339 15.4296C322.747 13.3067 321.155 11.1838 319.695 9.19359C318.103 7.20339 316.511 5.47854 315.051 3.7537C312 0.30402 309.479 -2.8803 306.958 -5.66658C301.783 -10.9738 297.803 -15.6176 295.017 -19.0673L294.884 -19.2C297.67 -15.7503 301.253 -10.8411 305.764 -4.8705C308.019 -1.81886 310.01 1.7635 312.531 5.47854C313.725 7.33606 315.051 9.32627 316.246 11.4491C317.44 13.572 318.634 15.9603 319.828 18.2158C326.064 29.759 330.708 40.108 334.025 47.5381C335.617 51.3859 336.811 54.4375 337.607 56.5604C337.872 57.0911 338.005 57.6218 338.138 58.1525C336.678 59.0813 335.219 60.0101 333.627 60.9388C332.565 61.6022 331.371 62.3983 330.177 63.0617C328.983 63.7251 327.789 64.2558 326.595 64.9192C324.737 65.848 322.88 66.9094 321.022 67.8382C321.42 65.9807 322.349 60.8061 321.818 54.0395C321.42 49.661 320.359 44.4865 318.368 39.1793C316.246 33.7394 313.194 28.1668 308.948 22.5943C302.049 13.7047 295.017 7.07071 289.179 1.89618C286.26 -0.492058 283.474 -2.8803 281.085 -4.8705C278.564 -6.72802 276.442 -8.45286 274.717 -10.045L274.584 -10.1777C276.309 -8.58555 278.432 -6.8607 280.687 -4.8705C282.943 -2.74762 285.331 -0.0940189 288.117 2.69226C293.159 8.39751 298.997 15.6949 304.304 25.1152C310.938 36.6584 315.051 47.5381 317.572 55.6316C319.563 62.0003 320.491 66.5114 320.757 68.1036C320.359 68.3689 319.828 68.6343 319.43 68.7669C317.042 70.0938 314.388 71.1552 311.734 72.3493C310.673 72.7473 309.744 73.2781 308.683 73.6761C308.152 68.7669 306.693 62.6637 303.774 55.3663C300.722 47.6708 295.813 38.9139 288.25 29.361C283.739 23.523 278.564 18.3485 273.788 13.9701C269.011 9.59163 264.633 6.27463 260.653 3.22298C259.724 2.4269 258.795 1.7635 257.999 1.1001C257.07 0.436701 256.274 -0.0940189 255.478 -0.624739C253.886 -1.68618 252.559 -2.61494 251.498 -3.27834C249.375 -4.73782 248.181 -5.40122 248.048 -5.40122C248.048 -5.40122 248.579 -5.13586 248.977 -4.73782C249.375 -4.2071 250.038 -3.5437 250.834 -2.61494C251.63 -1.68618 252.692 -0.624739 254.019 0.702063C254.682 1.36546 255.345 2.02886 256.009 2.82494C256.672 3.62102 257.468 4.4171 258.264 5.21319C261.581 8.66287 265.429 12.6433 269.675 17.0217C273.921 21.4002 278.697 26.442 283.739 32.0146C287.852 36.5257 291.302 40.6388 294.353 44.6192C297.405 48.5996 299.926 52.3146 301.916 55.897C305.896 62.7963 308.019 68.7669 308.683 73.6761C307.091 74.3395 305.498 75.1356 303.774 75.799C302.845 76.197 301.783 76.5951 300.855 76.8604C300.722 75.2683 299.793 70.3591 296.742 63.3271C294.751 59.214 292.23 54.1721 288.383 48.9976C286.658 46.344 284.27 43.6904 282.014 40.9041C280.82 39.5773 279.493 38.2505 278.166 36.791C276.84 35.4642 275.513 34.0048 274.053 32.8106C271.798 30.6878 269.409 28.5649 267.154 26.5747C264.898 24.5845 262.643 22.727 260.52 21.0021C258.397 19.2773 256.274 17.6851 254.284 16.3583C253.753 15.9603 253.355 15.6949 252.692 15.2969C252.028 15.0315 251.232 14.6335 250.569 14.3681C249.109 13.8374 247.65 13.174 246.19 12.7759C243.537 11.5818 240.485 10.7857 237.832 9.98967C235.045 9.19359 232.657 8.3975 230.136 7.7341C228.013 7.33607 226.023 6.93803 224.033 6.53999C230.269 8.13215 237.168 10.3877 244.2 13.7047C246.721 14.8988 249.242 16.2256 251.896 17.6851L253.753 18.8792C254.284 19.2773 254.682 19.6753 255.08 20.0734C256.009 21.0021 256.938 21.7982 257.866 22.727C261.581 26.442 265.562 30.5551 269.542 35.3316C270.869 36.791 271.93 38.2505 273.125 39.71C274.319 41.1695 275.513 42.4963 276.574 43.8231C278.564 46.6094 280.82 49.1303 282.677 51.6512C286.658 56.5604 289.842 61.2042 292.629 64.9192C297.14 71.1552 299.926 75.5336 300.855 76.8604C300.059 77.1258 299.13 77.5238 298.201 77.7892C298.201 77.6565 298.201 77.6565 298.201 77.6565V77.7892C295.547 78.7179 293.027 79.6467 290.373 80.4428C288.913 78.3199 287.321 75.799 285.331 73.0127C283.341 70.0937 281.085 66.9094 278.564 63.1944C273.39 55.897 266.756 47.0074 258.264 37.3218C257.866 36.9237 257.601 36.5257 257.203 36.2603L256.009 35.1989C255.213 34.5355 254.284 33.7394 253.488 33.076C251.763 31.7492 249.906 30.4224 248.181 29.2283C244.598 26.7074 240.751 24.5845 237.036 22.5943C229.473 18.7466 221.91 15.8276 215.011 13.9701C211.561 13.0413 208.377 12.2452 205.59 11.5818C202.671 11.0511 200.018 10.6531 197.895 10.3877C193.649 9.85699 191.394 9.45894 191.394 9.45894C191.394 9.45894 193.251 10.1223 196.833 11.3165C198.558 11.8472 200.681 12.6433 203.202 13.4394C205.59 14.3681 208.244 15.4296 211.163 16.7564C222.839 21.6655 237.434 29.759 252.294 40.2407C253.753 41.3022 255.213 42.3636 256.54 43.425C257.866 44.4865 259.326 45.5479 260.387 46.6094C262.51 48.7322 264.5 50.8551 266.491 52.7127C270.338 56.6931 273.788 60.4081 276.972 63.8578C283.208 70.7571 287.719 76.0643 290.638 80.4428V80.5755C289.577 80.9735 288.648 81.2389 287.587 81.6369C281.881 83.3618 275.911 84.8212 269.94 86.2807C263.837 87.7402 257.734 89.067 251.63 90.5265C249.109 91.0572 246.456 91.7206 243.802 92.384C243.272 91.8533 242.21 90.7918 240.618 89.3324C238.097 87.0768 234.117 84.0252 228.544 80.4428C217.399 73.4107 199.354 64.7865 173.614 59.612C152.784 55.6316 133.412 54.7029 116.297 55.2336C99.3136 55.7643 84.5861 58.1525 73.5737 60.0101L73.0429 60.1427C84.1881 58.1525 98.3848 56.4277 114.704 56.6931C131.024 56.9584 149.334 59.0813 168.838 63.8578C192.72 69.8284 211.694 77.1258 224.431 82.831C234.78 87.4748 241.149 91.0572 243.404 92.2513C239.954 93.0474 236.505 93.9762 232.922 94.7722C228.544 95.8337 224.298 97.0278 220.053 98.0892C218.858 97.2932 213.02 93.5781 202.406 88.669C196.435 85.8827 189.005 82.9637 179.85 80.0448C170.695 77.3912 159.418 74.8702 146.282 74.2068C125.186 72.88 106.08 74.0741 89.3626 76.5951C81.0037 77.9219 73.1756 79.514 66.1436 81.6369C62.5612 82.5657 59.1115 83.8925 55.9272 85.0866C54.2024 85.75 52.3449 86.4134 50.7527 87.3422C52.3449 86.5461 53.8043 86.0154 55.3965 85.352C58.5808 84.1578 62.0305 82.9637 65.4802 82.1676C72.5122 80.4428 79.9423 79.116 88.0358 78.3199C104.09 76.5951 122.4 76.7277 142.435 78.8506C154.907 80.1774 165.388 82.1676 174.809 84.5559C184.096 86.9441 192.19 89.3324 198.956 91.3226C205.59 93.4454 211.03 95.0376 214.613 96.2317C217.399 97.1605 219.256 97.6912 219.92 97.9566C218.195 98.4873 216.337 98.8853 214.613 99.416C210.765 100.477 207.05 101.406 203.335 102.468C201.212 101.406 195.374 98.7526 186.086 95.4356C174.012 91.4552 156.101 86.4134 132.086 85.352C112.714 84.4232 94.8025 86.0154 79.0135 89.3324C63.888 92.6494 50.62 97.8239 40.271 103.264C50.62 97.9566 63.3573 93.3128 77.6867 91.1899C92.8123 88.8016 109.663 88.2709 127.973 90.1284C150.661 92.384 169.369 95.9664 182.769 98.62C192.853 100.61 199.885 102.07 202.671 102.733C200.549 103.396 198.426 103.927 196.303 104.591C193.782 105.387 191.261 106.05 188.74 106.846C188.077 106.581 186.352 106.05 183.698 105.387C180.116 104.325 174.809 102.998 167.909 101.672C161.01 100.345 152.386 99.1507 142.435 98.2219C132.218 97.6912 120.542 97.2932 107.274 98.62C86.0456 100.743 66.6743 104.856 49.6912 111.755C47.5684 112.684 45.4455 113.48 43.4553 114.409C41.3324 115.47 39.3422 116.399 37.4847 117.328C33.5043 119.185 29.7892 121.706 26.2069 123.829C22.6245 126.085 19.1748 128.871 15.9905 131.392C14.2657 132.984 12.5408 134.576 11.0813 136.168C12.5408 134.709 14.0003 133.249 15.5925 131.79C17.0519 129.534 20.5016 127.013 23.9513 124.758Z" fill="url(#paint12_linear_1409_37895)" fill-opacity="0.7"/>
<path d="M9.09087 136.832C8.56015 137.363 8.16263 137.893 7.63191 138.424C8.02995 137.893 8.56015 137.363 9.09087 136.832Z" fill="url(#paint13_linear_1409_37895)" fill-opacity="0.7"/>
<path d="M9.48905 136.301C9.35637 136.434 9.22355 136.566 9.09087 136.832C9.22355 136.699 9.35637 136.566 9.48905 136.301Z" fill="url(#paint14_linear_1409_37895)" fill-opacity="0.7"/>
<path d="M20.1038 143.864C20.3692 143.466 20.6346 143.2 20.8999 142.935C20.7672 143.068 20.6346 143.333 20.3692 143.466L20.1038 143.864Z" fill="url(#paint15_linear_1409_37895)" fill-opacity="0.7"/>
<path d="M22.8897 140.547C22.7571 140.812 22.4916 140.945 22.3589 141.21C22.6242 140.945 22.7571 140.68 22.8897 140.547Z" fill="url(#paint16_linear_1409_37895)" fill-opacity="0.7"/>
<path d="M20.8999 142.935C21.1653 142.67 21.4301 142.272 21.6955 142.006C21.2974 142.272 21.1653 142.537 20.8999 142.935Z" fill="url(#paint17_linear_1409_37895)" fill-opacity="0.7"/>
<path d="M33.7694 132.188C36.423 130.596 39.2093 128.871 42.1282 127.412C45.0472 126.085 48.0988 124.625 51.2831 123.299C54.4675 122.104 57.7845 121.043 61.1015 119.982C64.4185 119.053 68.0008 118.257 71.4505 117.593C74.9002 117.063 78.6152 116.532 82.3303 116.134C86.0453 115.868 89.8931 115.47 93.8735 115.205C113.377 114.144 130.095 114.276 142.036 114.409C153.978 114.542 161.275 114.674 161.275 114.674C161.275 114.674 159.683 114.276 156.764 113.746C153.845 113.215 149.466 112.419 143.894 111.755C132.749 110.429 116.562 109.102 96.2617 111.225C92.1486 111.623 88.1682 112.153 84.3205 112.684C80.4728 113.215 76.7577 114.011 73.0427 114.807C65.6126 116.532 58.4479 119.053 51.9466 121.839C45.4452 124.758 39.3419 127.942 34.0347 131.525C31.3811 133.25 28.8602 135.24 26.472 137.097C25.2779 138.026 24.2164 139.087 23.155 140.016C23.0223 140.149 23.0223 140.149 22.8896 140.282C23.951 139.22 25.0125 138.291 26.0739 137.363C28.5949 135.638 31.1158 133.648 33.7694 132.188Z" fill="url(#paint18_linear_1409_37895)" fill-opacity="0.7"/>
<path d="M0.864966 194.548C1.39569 193.088 1.92641 191.496 2.58981 190.036C1.92641 191.761 1.26301 193.486 0.599609 195.211L0.864966 194.548Z" fill="url(#paint19_linear_1409_37895)" fill-opacity="0.7"/>
<path d="M33.1065 162.837C34.6987 161.51 36.4235 160.316 38.1483 158.989C39.8732 157.663 41.7307 156.336 43.5882 155.142C51.0183 149.834 59.3771 145.721 68.3994 141.741C82.7289 135.638 94.8027 132.719 104.488 130.729C106.877 130.33 109.265 129.932 111.388 129.534C113.511 129.269 115.634 129.004 117.491 128.871C121.206 128.473 124.523 128.34 127.309 128.208H127.575C122.135 128.34 114.837 128.473 105.284 129.534C95.7315 130.596 83.923 132.453 69.3282 137.628C60.3059 140.945 51.549 145.058 43.7209 150.631C35.8928 155.938 29.1261 162.041 23.8189 168.277C22.4921 169.869 21.298 171.461 20.1038 172.921C18.9097 174.38 17.8483 175.84 16.9195 177.299C15.062 180.218 13.4698 182.739 12.2757 184.862C10.0202 189.373 8.82603 191.894 8.82603 191.894C8.82603 191.894 10.1528 189.771 12.6738 185.791C13.8679 183.801 15.5927 181.678 17.4502 179.157C19.3078 176.503 21.696 173.982 24.2169 171.196C24.8803 170.533 25.5437 169.736 26.2071 169.073C26.8705 168.41 27.6666 167.746 28.33 167.083C29.9222 165.623 31.5143 164.164 33.1065 162.837Z" fill="url(#paint20_linear_1409_37895)" fill-opacity="0.7"/>
<path d="M91.2204 142.67C93.2106 142.006 95.0681 141.343 96.6603 140.812C98.2524 140.281 99.7119 139.883 100.773 139.485C103.029 138.689 104.223 138.291 104.223 138.291C104.223 138.291 103.162 138.291 101.039 138.557C98.9158 138.822 95.8642 139.087 91.8838 139.883C84.0557 141.343 72.5125 144.262 59.1118 151.825C48.3647 157.928 39.3424 165.358 32.5758 172.921C25.8091 180.616 21.1653 188.312 18.2463 194.415L18.1136 194.68C19.7058 191.629 21.4306 188.179 23.9516 184.729C25.1457 183.004 26.4725 181.147 27.932 179.422C29.3915 177.697 30.9836 175.972 32.7085 174.248C39.6078 167.348 48.3647 160.98 58.8464 155.805C71.8491 149.436 83.1269 145.456 91.2204 142.67Z" fill="url(#paint21_linear_1409_37895)" fill-opacity="0.7"/>
<path d="M73.1754 155.805C76.0943 154.08 78.6153 153.019 80.2074 152.09C81.9323 151.161 82.861 150.763 82.861 150.763C82.861 150.763 79.544 151.161 73.4407 153.019C67.6028 155.009 58.7132 158.591 49.2929 166.552C47.4354 168.277 45.5779 169.736 43.9857 171.461C42.3936 173.186 40.8014 174.778 39.3419 176.503C37.8825 178.228 36.5557 179.953 35.3615 181.678C34.0347 183.27 32.9733 184.995 31.9119 186.719C30.8504 188.444 29.9217 190.037 29.1256 191.629C28.3295 193.221 27.6661 194.813 26.87 196.272C25.4105 199.191 24.6144 201.845 23.6857 204.101L23.553 204.366C24.4818 202.11 25.4105 199.324 26.87 196.671C27.6661 195.344 28.4622 193.884 29.2583 192.292C30.0543 190.833 31.2485 189.373 32.3099 187.914C34.4328 184.862 37.0864 182.076 40.0053 178.891C43.057 175.972 46.2413 173.053 49.9563 170.4C59.1113 163.766 67.2048 158.989 73.1754 155.805Z" fill="url(#paint22_linear_1409_37895)" fill-opacity="0.7"/>
<path d="M53.406 212.725C53.5387 212.327 53.6714 211.796 53.8041 211.265C53.8041 211.796 53.6714 212.327 53.406 212.725Z" fill="url(#paint23_linear_1409_37895)" fill-opacity="0.7"/>
<path d="M53.2739 213.256C53.2739 213.123 53.4066 212.858 53.4066 212.725C53.4066 212.858 53.2739 212.99 53.2739 213.123V213.256Z" fill="url(#paint24_linear_1409_37895)" fill-opacity="0.7"/>
<path d="M97.4563 149.038C99.5792 145.987 101.304 143.598 102.498 142.006C103.692 140.281 104.223 139.485 104.223 139.485C104.223 139.485 103.294 140.281 101.569 141.741C99.8446 143.2 97.4563 145.456 94.6701 148.375C89.0975 154.08 82.0655 162.837 77.5543 173.319C73.8393 181.678 73.0432 188.71 72.1144 194.017C71.8491 196.803 70.9203 199.191 70.655 201.314C70.3896 202.376 69.9916 203.305 69.7262 204.233C69.5935 205.162 69.3282 205.958 69.1955 206.754V206.887C69.3282 206.091 69.5935 205.295 69.8589 204.366C70.1242 203.437 70.5223 202.508 70.9203 201.447C71.3184 200.386 71.451 199.191 72.1144 197.997C72.6452 196.803 73.0432 195.476 73.3086 194.017C75.0334 188.312 76.8909 181.412 81.5347 173.319C87.24 163.501 93.2106 155.009 97.4563 149.038Z" fill="url(#paint25_linear_1409_37895)" fill-opacity="0.7"/>
<path d="M96.6597 169.604C105.019 157.928 112.979 147.977 118.419 140.945C123.992 133.913 127.176 129.667 127.176 129.667C127.176 129.667 125.982 130.596 123.992 132.321C122.002 134.178 119.083 136.699 115.633 140.149C108.866 146.915 99.8441 156.734 92.812 168.808C87.1068 178.493 83.6571 186.852 81.5342 193.486C79.544 200.12 79.0133 205.029 77.9519 208.479V208.612C79.0133 205.295 79.8094 200.386 82.5957 193.752C85.3819 187.25 89.893 179.024 96.6597 169.604Z" fill="url(#paint26_linear_1409_37895)" fill-opacity="0.7"/>
<path d="M132.351 134.178C124.788 141.741 114.837 153.019 106.346 166.287C99.5788 177.034 95.0677 186.321 92.1488 193.619C89.2298 200.916 88.0357 206.489 86.1782 209.673L86.0455 209.806C87.903 206.622 89.4951 201.182 93.0775 194.017C96.6599 186.72 102.1 177.697 110.061 167.083C119.746 153.948 128.901 142.802 135.137 134.842C141.506 126.881 144.955 122.237 144.955 122.237C144.955 122.237 143.761 123.298 141.373 125.289C139.383 127.279 136.199 130.33 132.351 134.178Z" fill="url(#paint27_linear_1409_37895)" fill-opacity="0.7"/>
<path d="M96.262 207.948C96.5273 207.683 96.66 207.418 96.9254 207.152C96.66 207.418 96.3946 207.816 96.1293 208.081L96.262 207.948Z" fill="url(#paint28_linear_1409_37895)" fill-opacity="0.7"/>
<path d="M103.692 211.663C103.825 211.663 103.825 211.531 103.958 211.531C103.825 211.663 103.692 211.796 103.56 211.796L103.692 211.663Z" fill="url(#paint29_linear_1409_37895)" fill-opacity="0.7"/>
<path d="M105.151 210.469C104.753 210.867 104.355 211.133 103.957 211.398C104.223 211.265 104.621 210.867 105.151 210.469Z" fill="url(#paint30_linear_1409_37895)" fill-opacity="0.7"/>
<path d="M126.911 211.929C126.911 211.929 126.646 212.061 126.513 212.194C126.646 212.061 126.778 212.061 126.911 211.929Z" fill="url(#paint31_linear_1409_37895)" fill-opacity="0.7"/>
<path d="M127.309 211.531C127.176 211.663 127.043 211.663 127.043 211.796C127.176 211.796 127.176 211.663 127.309 211.531Z" fill="url(#paint32_linear_1409_37895)" fill-opacity="0.7"/>
<path d="M125.054 213.123C125.186 213.123 125.186 212.99 125.319 212.99C125.186 213.123 125.054 213.123 124.788 213.256L125.054 213.123Z" fill="url(#paint33_linear_1409_37895)" fill-opacity="0.7"/>
<path d="M197.099 156.336C199.222 154.08 201.212 151.692 202.937 149.304C204.529 147.048 206.121 144.925 207.713 142.802C210.898 138.557 213.949 134.576 216.868 130.729C222.972 123.166 228.279 116.399 232.79 110.827C237.301 105.254 240.883 100.743 243.404 97.6912C245.793 94.6396 247.119 92.9147 247.119 92.9147C247.119 92.9147 245.262 94.5069 242.078 97.2932C238.893 100.079 234.249 104.458 228.809 109.765C223.37 115.205 217.266 121.839 210.898 129.402C207.713 133.117 204.529 137.363 201.477 141.608C199.885 143.731 198.426 145.987 196.834 148.242C196.038 149.304 195.507 150.233 194.578 151.427C193.649 152.488 192.853 153.55 191.924 154.744C185.954 161.908 179.851 168.542 174.676 174.646C169.369 180.749 164.592 186.321 160.347 191.363C156.234 196.405 152.518 200.784 149.334 204.631C146.15 208.346 143.364 211.796 140.312 213.786L140.047 214.052C143.098 212.061 145.884 208.877 149.334 205.162C152.917 201.314 157.03 197.069 161.408 192.292C166.185 187.516 171.359 181.943 177.33 176.105C183.433 170.002 190.2 163.633 197.099 156.336Z" fill="url(#paint34_linear_1409_37895)" fill-opacity="0.7"/>
<path d="M186.352 203.039C186.484 202.907 186.617 202.774 186.75 202.774C186.75 202.774 186.75 202.774 186.617 202.774L186.352 203.039Z" fill="url(#paint35_linear_1409_37895)" fill-opacity="0.7"/>
<path d="M191.791 198.395C189.934 199.988 188.209 201.447 186.75 202.774C188.342 201.447 189.934 199.988 191.791 198.395Z" fill="url(#paint36_linear_1409_37895)" fill-opacity="0.7"/>
<path d="M331.902 101.804C328.983 95.5683 326.064 90.5265 323.543 86.148C318.501 77.5238 314.919 72.482 314.919 72.482C314.919 72.482 315.98 78.4526 318.634 88.1382C319.961 92.9147 321.818 98.7526 323.941 104.989C324.605 107.775 324.339 111.623 323.543 115.603C322.88 119.583 321.686 123.962 320.359 128.473C317.971 135.638 315.052 142.272 311.602 148.508C309.877 151.692 308.02 154.611 306.162 157.53C304.305 160.316 302.314 162.97 300.192 165.491C296.078 170.533 291.7 175.044 287.322 179.024C286.791 179.555 286.26 179.953 285.597 180.484C284.933 181.014 284.801 181.28 284.403 181.81C283.739 182.606 283.076 183.403 282.412 184.199C281.086 185.658 279.759 186.985 278.432 188.312L278.167 188.577C279.493 187.383 280.82 186.056 282.28 184.597C282.943 183.801 283.739 183.137 284.535 182.341L285.066 181.678C285.199 181.412 285.464 181.28 285.729 181.014C286.393 180.484 286.924 180.086 287.587 179.555C292.496 175.574 297.538 171.063 302.447 166.021C303.641 164.827 304.968 163.501 306.162 162.174C307.356 160.847 308.55 159.387 309.744 157.795C312.133 154.876 314.388 151.692 316.644 148.508C318.899 145.323 320.89 141.874 322.88 138.424C324.87 134.842 326.595 130.994 328.187 127.146C330.045 122.37 331.504 117.859 332.167 113.613C332.964 109.5 333.229 105.519 331.902 101.804Z" fill="url(#paint37_linear_1409_37895)" fill-opacity="0.7"/>
<path d="M351.14 109.5C348.354 95.0376 339.597 85.352 332.963 78.8507C326.064 72.482 320.889 69.5631 320.889 69.5631C320.889 69.5631 323.808 73.9415 328.319 81.3716C332.698 88.9344 338.801 99.4161 343.312 112.551C345.037 117.859 346.098 123.166 346.364 128.208C346.629 133.249 346.231 138.291 344.904 142.802C344.639 145.058 343.578 147.181 342.781 149.304C341.853 151.427 341.057 153.417 340.26 155.274C337.872 159.122 335.617 162.704 333.494 165.623L333.361 165.889C335.484 162.97 337.872 159.387 340.791 155.407C341.853 153.417 343.047 151.427 344.241 149.171C345.435 146.916 346.762 144.66 347.558 142.272C348.487 139.883 349.283 137.23 350.212 134.576C350.742 131.923 351.14 129.269 351.671 126.483C352.202 121.176 352.202 115.338 351.14 109.5Z" fill="url(#paint38_linear_1409_37895)" fill-opacity="0.7"/>
<path d="M342.914 56.4277C342.914 56.4277 345.17 60.8061 349.283 67.7055C353.396 74.6049 359.367 84.0252 366.531 94.7722C372.237 103.396 376.217 111.357 377.942 118.655C379.667 125.952 378.605 132.984 376.217 138.822L376.084 139.087C378.207 133.382 380.728 125.819 380.463 117.593C380.197 109.234 378.075 99.9468 373.563 90.2611C367.991 78.3199 359.632 70.0937 353.529 64.6539C347.293 59.214 342.914 56.4277 342.914 56.4277Z" fill="url(#paint39_linear_1409_37895)" fill-opacity="0.7"/>
<defs>
<linearGradient id="paint0_linear_1409_37895" x1="338.733" y1="40" x2="41.1329" y2="169.067" gradientUnits="userSpaceOnUse">
<stop stop-color="#163127" stop-opacity="0"/>
<stop offset="1" stop-color="#163127"/>
</linearGradient>
<linearGradient id="paint1_linear_1409_37895" x1="338.733" y1="40" x2="41.1329" y2="169.067" gradientUnits="userSpaceOnUse">
<stop stop-color="#163127" stop-opacity="0"/>
<stop offset="1" stop-color="#163127"/>
</linearGradient>
<linearGradient id="paint2_linear_1409_37895" x1="338.733" y1="40" x2="41.1329" y2="169.067" gradientUnits="userSpaceOnUse">
<stop stop-color="#163127" stop-opacity="0"/>
<stop offset="1" stop-color="#163127"/>
</linearGradient>
<linearGradient id="paint3_linear_1409_37895" x1="338.733" y1="40" x2="41.1329" y2="169.067" gradientUnits="userSpaceOnUse">
<stop stop-color="#163127" stop-opacity="0"/>
<stop offset="1" stop-color="#163127"/>
</linearGradient>
<linearGradient id="paint4_linear_1409_37895" x1="338.733" y1="40" x2="41.1329" y2="169.067" gradientUnits="userSpaceOnUse">
<stop stop-color="#163127" stop-opacity="0"/>
<stop offset="1" stop-color="#163127"/>
</linearGradient>
<linearGradient id="paint5_linear_1409_37895" x1="338.733" y1="40" x2="41.1329" y2="169.067" gradientUnits="userSpaceOnUse">
<stop stop-color="#163127" stop-opacity="0"/>
<stop offset="1" stop-color="#163127"/>
</linearGradient>
<linearGradient id="paint6_linear_1409_37895" x1="338.733" y1="40" x2="41.1329" y2="169.067" gradientUnits="userSpaceOnUse">
<stop stop-color="#163127" stop-opacity="0"/>
<stop offset="1" stop-color="#163127"/>
</linearGradient>
<linearGradient id="paint7_linear_1409_37895" x1="338.733" y1="40" x2="41.1329" y2="169.067" gradientUnits="userSpaceOnUse">
<stop stop-color="#163127" stop-opacity="0"/>
<stop offset="1" stop-color="#163127"/>
</linearGradient>
<linearGradient id="paint8_linear_1409_37895" x1="338.733" y1="40" x2="41.1329" y2="169.067" gradientUnits="userSpaceOnUse">
<stop stop-color="#163127" stop-opacity="0"/>
<stop offset="1" stop-color="#163127"/>
</linearGradient>
<linearGradient id="paint9_linear_1409_37895" x1="338.733" y1="40" x2="41.1329" y2="169.067" gradientUnits="userSpaceOnUse">
<stop stop-color="#163127" stop-opacity="0"/>
<stop offset="1" stop-color="#163127"/>
</linearGradient>
<linearGradient id="paint10_linear_1409_37895" x1="338.733" y1="40" x2="41.1329" y2="169.067" gradientUnits="userSpaceOnUse">
<stop stop-color="#163127" stop-opacity="0"/>
<stop offset="1" stop-color="#163127"/>
</linearGradient>
<linearGradient id="paint11_linear_1409_37895" x1="338.733" y1="40" x2="41.1329" y2="169.067" gradientUnits="userSpaceOnUse">
<stop stop-color="#163127" stop-opacity="0"/>
<stop offset="1" stop-color="#163127"/>
</linearGradient>
<linearGradient id="paint12_linear_1409_37895" x1="338.733" y1="40" x2="41.1329" y2="169.067" gradientUnits="userSpaceOnUse">
<stop stop-color="#163127" stop-opacity="0"/>
<stop offset="1" stop-color="#163127"/>
</linearGradient>
<linearGradient id="paint13_linear_1409_37895" x1="338.733" y1="40" x2="41.1329" y2="169.067" gradientUnits="userSpaceOnUse">
<stop stop-color="#163127" stop-opacity="0"/>
<stop offset="1" stop-color="#163127"/>
</linearGradient>
<linearGradient id="paint14_linear_1409_37895" x1="338.733" y1="40" x2="41.1329" y2="169.067" gradientUnits="userSpaceOnUse">
<stop stop-color="#163127" stop-opacity="0"/>
<stop offset="1" stop-color="#163127"/>
</linearGradient>
<linearGradient id="paint15_linear_1409_37895" x1="338.733" y1="40" x2="41.1329" y2="169.067" gradientUnits="userSpaceOnUse">
<stop stop-color="#163127" stop-opacity="0"/>
<stop offset="1" stop-color="#163127"/>
</linearGradient>
<linearGradient id="paint16_linear_1409_37895" x1="338.733" y1="40" x2="41.1329" y2="169.067" gradientUnits="userSpaceOnUse">
<stop stop-color="#163127" stop-opacity="0"/>
<stop offset="1" stop-color="#163127"/>
</linearGradient>
<linearGradient id="paint17_linear_1409_37895" x1="338.733" y1="40" x2="41.1329" y2="169.067" gradientUnits="userSpaceOnUse">
<stop stop-color="#163127" stop-opacity="0"/>
<stop offset="1" stop-color="#163127"/>
</linearGradient>
<linearGradient id="paint18_linear_1409_37895" x1="338.733" y1="40" x2="41.1329" y2="169.067" gradientUnits="userSpaceOnUse">
<stop stop-color="#163127" stop-opacity="0"/>
<stop offset="1" stop-color="#163127"/>
</linearGradient>
<linearGradient id="paint19_linear_1409_37895" x1="338.733" y1="40" x2="41.1329" y2="169.067" gradientUnits="userSpaceOnUse">
<stop stop-color="#163127" stop-opacity="0"/>
<stop offset="1" stop-color="#163127"/>
</linearGradient>
<linearGradient id="paint20_linear_1409_37895" x1="338.733" y1="40" x2="41.1329" y2="169.067" gradientUnits="userSpaceOnUse">
<stop stop-color="#163127" stop-opacity="0"/>
<stop offset="1" stop-color="#163127"/>
</linearGradient>
<linearGradient id="paint21_linear_1409_37895" x1="338.733" y1="40" x2="41.1329" y2="169.067" gradientUnits="userSpaceOnUse">
<stop stop-color="#163127" stop-opacity="0"/>
<stop offset="1" stop-color="#163127"/>
</linearGradient>
<linearGradient id="paint22_linear_1409_37895" x1="338.733" y1="40" x2="41.1329" y2="169.067" gradientUnits="userSpaceOnUse">
<stop stop-color="#163127" stop-opacity="0"/>
<stop offset="1" stop-color="#163127"/>
</linearGradient>
<linearGradient id="paint23_linear_1409_37895" x1="338.733" y1="40" x2="41.1329" y2="169.067" gradientUnits="userSpaceOnUse">
<stop stop-color="#163127" stop-opacity="0"/>
<stop offset="1" stop-color="#163127"/>
</linearGradient>
<linearGradient id="paint24_linear_1409_37895" x1="338.733" y1="40" x2="41.1329" y2="169.067" gradientUnits="userSpaceOnUse">
<stop stop-color="#163127" stop-opacity="0"/>
<stop offset="1" stop-color="#163127"/>
</linearGradient>
<linearGradient id="paint25_linear_1409_37895" x1="338.733" y1="40" x2="41.1329" y2="169.067" gradientUnits="userSpaceOnUse">
<stop stop-color="#163127" stop-opacity="0"/>
<stop offset="1" stop-color="#163127"/>
</linearGradient>
<linearGradient id="paint26_linear_1409_37895" x1="338.733" y1="40" x2="41.1329" y2="169.067" gradientUnits="userSpaceOnUse">
<stop stop-color="#163127" stop-opacity="0"/>
<stop offset="1" stop-color="#163127"/>
</linearGradient>
<linearGradient id="paint27_linear_1409_37895" x1="338.733" y1="40" x2="41.1329" y2="169.067" gradientUnits="userSpaceOnUse">
<stop stop-color="#163127" stop-opacity="0"/>
<stop offset="1" stop-color="#163127"/>
</linearGradient>
<linearGradient id="paint28_linear_1409_37895" x1="338.733" y1="40" x2="41.1329" y2="169.067" gradientUnits="userSpaceOnUse">
<stop stop-color="#163127" stop-opacity="0"/>
<stop offset="1" stop-color="#163127"/>
</linearGradient>
<linearGradient id="paint29_linear_1409_37895" x1="338.733" y1="40" x2="41.1329" y2="169.067" gradientUnits="userSpaceOnUse">
<stop stop-color="#163127" stop-opacity="0"/>
<stop offset="1" stop-color="#163127"/>
</linearGradient>
<linearGradient id="paint30_linear_1409_37895" x1="338.733" y1="40" x2="41.1329" y2="169.067" gradientUnits="userSpaceOnUse">
<stop stop-color="#163127" stop-opacity="0"/>
<stop offset="1" stop-color="#163127"/>
</linearGradient>
<linearGradient id="paint31_linear_1409_37895" x1="338.733" y1="40" x2="41.1329" y2="169.067" gradientUnits="userSpaceOnUse">
<stop stop-color="#163127" stop-opacity="0"/>
<stop offset="1" stop-color="#163127"/>
</linearGradient>
<linearGradient id="paint32_linear_1409_37895" x1="338.733" y1="40" x2="41.1329" y2="169.067" gradientUnits="userSpaceOnUse">
<stop stop-color="#163127" stop-opacity="0"/>
<stop offset="1" stop-color="#163127"/>
</linearGradient>
<linearGradient id="paint33_linear_1409_37895" x1="338.733" y1="40" x2="41.1329" y2="169.067" gradientUnits="userSpaceOnUse">
<stop stop-color="#163127" stop-opacity="0"/>
<stop offset="1" stop-color="#163127"/>
</linearGradient>
<linearGradient id="paint34_linear_1409_37895" x1="338.733" y1="40" x2="41.1329" y2="169.067" gradientUnits="userSpaceOnUse">
<stop stop-color="#163127" stop-opacity="0"/>
<stop offset="1" stop-color="#163127"/>
</linearGradient>
<linearGradient id="paint35_linear_1409_37895" x1="338.733" y1="40" x2="41.1329" y2="169.067" gradientUnits="userSpaceOnUse">
<stop stop-color="#163127" stop-opacity="0"/>
<stop offset="1" stop-color="#163127"/>
</linearGradient>
<linearGradient id="paint36_linear_1409_37895" x1="338.733" y1="40" x2="41.1329" y2="169.067" gradientUnits="userSpaceOnUse">
<stop stop-color="#163127" stop-opacity="0"/>
<stop offset="1" stop-color="#163127"/>
</linearGradient>
<linearGradient id="paint37_linear_1409_37895" x1="338.733" y1="40" x2="41.1329" y2="169.067" gradientUnits="userSpaceOnUse">
<stop stop-color="#163127" stop-opacity="0"/>
<stop offset="1" stop-color="#163127"/>
</linearGradient>
<linearGradient id="paint38_linear_1409_37895" x1="338.733" y1="40" x2="41.1329" y2="169.067" gradientUnits="userSpaceOnUse">
<stop stop-color="#163127" stop-opacity="0"/>
<stop offset="1" stop-color="#163127"/>
</linearGradient>
<linearGradient id="paint39_linear_1409_37895" x1="338.733" y1="40" x2="41.1329" y2="169.067" gradientUnits="userSpaceOnUse">
<stop stop-color="#163127" stop-opacity="0"/>
<stop offset="1" stop-color="#163127"/>
</linearGradient>
</defs>
</svg>
