<svg width="642" height="421" viewBox="0 0 642 421" fill="none" xmlns="http://www.w3.org/2000/svg">
<path d="M416.201 11.7648C411.226 10.521 406.499 9.52586 402.27 8.77953C406.25 9.77464 410.977 10.7697 416.201 11.7648Z" fill="url(#paint0_linear_563_1667)" fill-opacity="0.7"/>
<path d="M401.274 8.53082C401.523 8.53082 401.771 8.53082 402.02 8.77959L401.274 8.53082Z" fill="url(#paint1_linear_563_1667)" fill-opacity="0.7"/>
<path d="M296.789 45.1007C302.76 46.0958 309.228 47.0909 316.691 48.5836C345.798 54.0566 382.616 65.5003 419.684 82.9145C449.786 96.8459 471.927 111.275 489.092 123.714C504.516 136.152 516.706 146.601 525.165 154.811L525.662 155.308C517.204 147.099 506.258 136.152 492.824 122.47C489.59 118.987 485.361 115.504 481.132 111.772C476.654 108.041 471.927 104.309 466.951 100.329C456.751 92.6168 444.81 84.4072 430.879 76.4464C396.299 56.2956 355.5 45.847 322.91 42.613C314.701 42.1154 307.238 41.6179 300.521 41.1203C293.804 41.1203 287.584 41.3691 282.858 41.6179C277.882 41.8666 274.151 42.1154 271.663 42.1154C269.175 42.3642 267.682 42.3642 267.682 42.3642C267.682 42.3642 272.658 42.613 281.365 43.6081C285.097 44.1056 290.57 44.3544 296.789 45.1007Z" fill="url(#paint2_linear_563_1667)" fill-opacity="0.7"/>
<path d="M204.245 75.2024L203.25 75.4512C203.747 75.2024 204.245 75.2024 204.742 74.9537C204.494 74.9537 204.245 75.2024 204.245 75.2024Z" fill="url(#paint3_linear_563_1667)" fill-opacity="0.7"/>
<path d="M219.669 72.7146C225.391 72.2171 231.112 72.4659 237.332 72.2171C249.273 72.4659 262.458 73.2122 276.638 74.9536C283.853 75.6999 291.067 76.695 298.53 77.9389C305.994 79.1828 313.706 80.4267 321.915 82.1681C337.588 85.4022 353.51 90.1289 369.431 96.3483C408.24 112.021 437.596 129.187 458.493 141.874C479.141 154.562 490.834 162.771 490.834 162.771C490.834 162.771 489.092 160.283 485.112 155.806C481.131 151.328 475.161 145.108 466.702 137.645C449.537 122.967 422.421 103.314 379.631 89.1338C362.217 83.6607 344.803 79.6803 327.886 77.1926C310.72 74.9536 295.048 73.2122 280.121 72.4659C265.443 71.4708 251.512 71.4708 239.322 71.4708C229.371 71.9683 220.415 72.2171 211.708 73.7097H211.957C213.947 73.2122 216.683 72.9634 219.669 72.7146Z" fill="url(#paint4_linear_563_1667)" fill-opacity="0.7"/>
<path d="M204.742 74.9537C206.733 74.4561 208.971 73.9586 210.961 73.7098C208.722 73.9586 206.733 74.4561 204.742 74.9537Z" fill="url(#paint5_linear_563_1667)" fill-opacity="0.7"/>
<path d="M87.0713 166.005C88.0664 165.508 89.3103 164.762 90.3054 164.264C89.0615 164.762 88.0664 165.259 87.0713 166.005Z" fill="url(#paint6_linear_563_1667)" fill-opacity="0.7"/>
<path d="M90.3054 164.264C90.5542 164.264 90.8024 164.015 91.0512 164.015C90.8024 164.015 90.5542 164.015 90.3054 164.264Z" fill="url(#paint7_linear_563_1667)" fill-opacity="0.7"/>
<path d="M82.5938 168.742C83.3402 168.244 84.3353 167.498 85.3304 167C84.8328 167.249 84.0865 167.747 83.5889 167.996L82.5938 168.742Z" fill="url(#paint8_linear_563_1667)" fill-opacity="0.7"/>
<path d="M68.9105 195.112C69.6568 194.615 70.4031 194.366 71.3982 193.868C70.4031 194.366 69.1593 194.863 68.1642 195.61L68.9105 195.112Z" fill="url(#paint9_linear_563_1667)" fill-opacity="0.7"/>
<path d="M9.45297 264.52C10.1993 263.525 10.9456 262.281 11.9407 261.286C11.4432 262.033 10.6969 262.779 10.1993 263.277L9.45297 264.52Z" fill="url(#paint10_linear_563_1667)" fill-opacity="0.7"/>
<path d="M13.1856 259.545C12.688 260.043 12.1905 260.789 11.6929 261.286C12.1905 260.789 12.688 260.291 13.1856 259.545Z" fill="url(#paint11_linear_563_1667)" fill-opacity="0.7"/>
<path d="M43.7844 233.921C50.5014 230.189 57.4671 225.96 64.6815 222.726C71.896 219.492 79.3593 216.009 87.0713 213.521C117.919 202.575 152.748 196.605 191.308 194.615C215.439 193.122 236.585 193.619 255.99 193.868C275.145 194.615 292.062 195.858 305.993 196.854C329.627 198.844 345.549 200.336 349.529 200.585C348.036 201.083 346.544 201.58 345.3 201.829C345.3 201.829 345.3 201.829 345.051 202.078C329.13 207.053 313.457 212.029 298.281 217.253C287.833 220.985 277.633 224.716 267.682 228.448C262.707 227.702 252.009 226.209 236.336 225.463C225.142 224.965 211.21 225.214 194.542 226.955C178.123 228.697 159.216 232.18 138.07 239.145C120.905 244.618 104.983 252.082 90.0566 260.54C82.5933 265.018 75.3789 269.496 68.6619 274.471C61.945 279.198 55.4768 284.92 49.5062 290.393C28.1116 310.046 12.6875 334.426 3.73163 356.07C12.6875 334.675 28.1116 311.539 49.0087 293.13C72.8911 272.232 102.744 256.062 135.582 246.857C155.733 240.887 174.391 237.404 190.811 234.916C194.791 234.419 198.771 233.672 202.752 233.175C206.483 232.677 210.215 232.428 213.947 231.931C220.912 231.185 227.629 230.687 233.6 230.189C245.292 229.194 254.746 229.194 261.214 228.697C263.204 228.697 264.946 228.697 266.189 228.697C256.487 232.428 247.283 236.16 238.078 239.892C228.624 243.872 219.42 248.101 210.464 252.33C205.986 254.321 201.757 256.56 197.527 258.55C193.298 260.789 189.069 262.779 185.089 265.018C177.377 269.247 169.913 273.228 162.699 277.457C162.699 277.457 162.699 277.457 162.45 277.705C154.987 282.183 148.27 286.661 141.802 290.891C129.363 299.598 118.666 307.559 110.456 315.271C108.715 316.763 107.222 318.256 105.729 319.749C105.481 319.997 104.983 320.246 104.734 320.495C102.495 321.987 99.51 324.475 95.5296 327.461C91.5492 330.695 87.3201 335.173 82.5934 340.397C80.3544 343.133 78.1154 346.119 75.6276 349.602C73.1399 352.836 71.1497 356.816 69.1595 360.548C67.4181 363.533 65.9254 367.016 64.6815 370.001C63.4377 373.235 61.945 375.972 60.9499 379.206C59.2085 385.176 56.9695 390.649 56.2232 395.874C53.7354 406.322 53.2379 414.532 51.7452 420.751V421C52.9891 414.781 54.233 406.82 57.7158 397.118C60.9499 387.415 66.1742 376.469 73.3887 365.026C82.3446 350.597 91.5493 339.651 97.7687 331.192C101.003 327.212 103.739 323.978 105.481 321.739C107.222 319.5 108.217 318.256 108.217 318.256C108.217 318.256 107.72 318.505 106.476 319.251C107.72 318.007 109.212 316.763 110.705 315.519C115.183 311.29 120.407 307.061 126.378 302.583C125.88 303.081 125.134 303.827 124.388 304.573C122.397 306.812 119.412 309.797 116.178 314.275C109.461 322.734 101.5 335.173 96.0272 350.099C94.037 356.318 92.0468 361.792 91.0517 367.016C90.5541 369.504 89.8078 371.991 89.3103 374.479C88.8127 376.967 88.5639 379.206 88.0664 381.445C87.0713 385.674 86.8225 389.903 86.0762 393.386C85.8274 395.127 85.3299 396.869 84.8323 398.361C84.5835 399.854 84.086 401.098 83.5884 402.093C84.086 401.098 84.5835 400.103 85.0811 398.61C85.5787 397.118 86.0762 395.376 86.5738 393.635C87.5689 390.152 88.5639 385.923 90.0566 381.694C90.8029 379.455 91.5492 377.216 92.2956 374.728C93.2907 372.24 94.2858 369.752 95.2809 367.265C96.276 364.528 97.5199 362.04 98.7637 359.055C100.008 356.318 101.251 353.333 102.993 350.348C110.207 335.67 117.173 323.729 121.402 315.022C125.134 308.056 127.124 303.329 127.87 301.837C132.348 298.354 137.324 294.871 142.548 291.388C148.27 287.408 154.489 283.427 160.958 279.696C160.46 280.193 159.714 280.94 158.719 281.686C155.982 284.174 152.002 288.154 147.524 293.378C138.568 303.578 126.875 318.256 118.417 336.665C111.451 351.343 107.471 364.279 104.983 374.728C102.744 383.435 101.749 390.649 100.256 396.371C101.998 390.649 103.739 383.684 106.973 375.225C110.705 364.777 116.427 351.84 125.134 337.66C135.831 319.997 145.782 305.071 152.748 294.871C156.231 289.647 158.719 285.418 160.709 282.681C161.704 281.188 162.45 279.944 162.699 279.198C169.913 274.969 177.625 270.491 185.835 266.262C189.815 264.272 194.045 262.033 198.274 260.042C202.503 258.052 206.981 256.062 211.21 254.072C220.166 249.843 229.122 245.862 238.824 241.882C249.024 237.653 259.472 233.672 270.17 229.692C271.165 229.692 271.414 229.692 271.414 229.692C271.414 229.692 271.165 229.692 270.667 229.443C280.121 225.96 289.574 222.477 299.277 219.243C302.013 218.248 304.75 217.502 307.486 216.507C305.496 218.248 295.794 226.458 282.111 240.14C266.687 255.316 246.287 277.457 228.376 304.076C213.698 325.47 203.747 343.88 196.532 358.557C193.05 366.021 190.064 372.489 187.576 377.962C186.83 379.206 186.333 380.698 185.586 381.942C185.089 383.186 184.591 384.43 183.845 385.425C183.596 385.923 183.347 386.42 182.85 386.918C183.099 386.42 183.347 386.171 183.596 385.674C184.84 383.435 186.084 380.947 187.576 378.459C190.313 372.986 193.796 366.767 198.025 359.553C206.483 345.124 218.673 326.963 235.341 305.817C255.741 279.696 274.648 257.555 287.335 241.633C299.277 227.204 306.242 218.248 307.486 216.756C319.179 212.775 331.12 209.044 343.31 205.561C339.329 209.79 331.12 218.746 320.422 231.433C316.691 235.911 312.71 240.887 308.232 246.36C304.003 251.833 299.276 257.555 294.55 263.525C292.311 266.759 289.574 269.496 287.087 272.481C284.101 275.715 281.116 279.198 278.131 282.432C275.394 285.915 272.409 289.398 269.672 292.881C266.936 296.364 263.95 300.095 261.214 303.827C243.053 327.709 229.619 348.358 219.171 364.528C209.966 378.459 203.249 389.406 196.781 395.376C203.249 389.654 210.464 379.455 220.664 365.772C232.356 349.85 248.029 329.451 268.428 305.817C274.648 298.354 280.867 291.388 286.589 284.671C289.574 281.437 292.56 278.203 295.296 274.969C298.281 271.486 301.267 268.252 303.506 265.018C313.208 252.33 320.671 241.384 326.891 232.18C333.11 222.975 338.085 215.512 341.32 210.536C342.812 208.297 344.056 206.307 344.802 205.063C351.519 203.073 358.485 200.834 365.451 198.844C374.158 196.356 382.616 193.868 391.572 191.629C389.831 192.873 387.343 194.863 383.611 197.849C377.392 202.824 368.685 210.039 358.236 219.243C353.012 223.97 347.539 229.194 341.817 234.916C339.081 237.901 336.095 240.887 333.11 244.121C330.373 247.355 327.637 250.589 324.9 254.072C319.427 260.789 313.705 268.003 308.232 275.467C302.511 282.681 296.042 290.393 289.574 298.354C268.18 323.978 250.019 345.87 237.331 363.533C224.146 380.947 215.937 394.381 208.225 400.849C215.688 394.381 224.893 381.694 239.322 365.026C253.751 347.86 273.901 326.714 298.53 301.09C305.993 293.13 313.208 285.418 319.427 277.705C325.398 269.993 331.12 262.779 336.344 256.062C338.832 252.828 341.32 249.345 343.807 246.36C346.295 243.126 349.032 240.389 351.519 237.404C356.495 231.682 360.973 226.209 365.451 221.482C379.88 205.561 389.582 195.112 392.567 191.629C395.055 190.883 397.543 190.385 399.782 189.639C411.225 186.654 422.669 183.42 434.361 180.683C435.357 180.434 436.103 180.186 437.098 179.937C435.357 181.181 432.869 183.42 429.386 186.156C423.167 191.381 414.211 199.093 403.762 209.044C393.065 218.746 380.626 230.936 367.69 244.618C361.222 251.584 354.753 259.047 348.036 266.759C341.568 274.471 334.105 282.183 326.642 290.642C302.262 317.51 282.857 340.397 268.428 359.304C261.711 368.26 255.492 376.718 249.77 384.181C247.034 387.664 244.546 390.898 242.058 393.635C240.814 394.879 239.819 396.122 238.575 397.118C239.57 396.122 240.814 395.127 241.809 394.132C244.297 391.396 247.034 388.162 249.77 384.928C255.492 377.962 262.209 370.001 270.419 360.796C286.589 342.636 308.232 319.997 335.349 293.876C343.559 285.666 351.768 277.706 358.734 269.745C365.451 262.033 371.919 254.569 378.138 247.604C390.577 233.424 401.772 220.985 410.728 211.034C424.908 194.615 434.361 183.668 437.844 179.688C448.293 177.2 458.741 174.713 468.941 172.474C476.404 170.732 483.868 168.991 491.331 167.498C486.853 171.976 477.151 181.927 464.961 196.356C456.502 206.307 446.551 218.746 436.6 232.428C431.625 239.394 426.401 246.857 421.425 254.569C418.937 258.55 416.45 262.281 413.464 266.262C410.479 270.242 407.245 274.223 404.011 278.203C382.865 304.573 365.202 327.212 350.773 345.87C343.559 355.323 337.09 363.533 331.12 370.747C324.9 377.713 319.676 384.43 313.208 388.162L312.71 388.659C319.179 384.928 324.652 378.459 331.369 371.494C338.085 364.279 345.3 356.07 353.261 347.114C369.68 328.953 390.079 306.812 413.962 280.691C417.694 276.71 421.176 272.73 424.659 268.501C428.142 264.52 431.376 260.291 433.864 256.56C439.088 248.848 444.312 241.384 449.039 234.419C458.493 220.238 466.951 208.048 473.668 197.6C480.385 187.151 485.858 178.942 489.341 173.22C491.082 170.483 492.326 168.244 493.321 166.752C497.053 166.005 500.536 165.259 504.267 164.264C506.755 163.518 509.243 163.02 511.731 162.523C510.984 163.766 509.492 166.503 507.004 170.483C503.521 176.205 498.297 184.166 491.829 194.117C479.141 213.77 461.229 241.633 440.083 274.471C410.728 319.749 381.87 352.089 359.978 371.991C362.963 369.504 365.948 367.016 369.182 364.03C376.148 357.314 384.855 350.099 393.065 341.392C410.479 324.226 430.381 302.583 450.283 276.462C475.161 244.121 491.082 215.263 500.038 194.863C504.516 184.664 507.75 176.205 509.492 170.483C510.735 166.254 511.482 163.518 511.731 162.274C519.443 160.284 527.403 158.542 534.867 156.303C534.12 157.796 532.876 159.786 531.384 162.523C528.15 167.996 523.672 175.956 518.199 185.907C515.213 190.883 511.979 196.605 508.496 202.327C505.014 208.297 502.028 214.268 498.545 220.985C491.58 234.17 484.365 248.848 476.902 264.52C473.917 270.74 470.434 276.71 467.449 282.681C464.215 288.403 460.98 294.125 457.498 299.349C451.029 310.046 444.81 319.749 438.591 328.456C426.152 345.621 413.216 359.304 399.284 366.518L398.787 366.767C412.469 359.801 426.649 346.616 441.327 329.699C448.79 321.241 456.254 311.539 464.214 300.842C468.195 295.617 472.175 289.895 476.156 284.174C479.887 278.203 484.116 271.984 488.097 265.764C497.55 249.843 505.014 235.165 511.482 221.98C518.945 208.048 523.92 195.858 527.403 185.907C530.886 175.956 533.125 167.996 534.369 162.523C535.115 159.786 535.364 157.547 535.613 156.303C536.111 156.054 536.608 156.054 537.106 155.806C543.325 153.567 549.544 151.576 555.515 149.586C555.266 150.83 554.769 152.323 554.271 154.313C552.53 159.786 550.291 167.747 546.808 177.947C543.325 188.395 538.847 199.839 532.876 213.273C529.891 219.99 526.657 226.955 522.677 234.419C520.686 238.15 518.696 241.882 516.706 245.862C514.965 249.594 513.223 253.326 511.482 257.306C500.287 281.935 488.346 302.832 475.409 319.5C462.722 336.168 448.542 348.855 435.854 356.318L435.357 356.816C447.795 349.104 463.219 337.163 478.146 320.744C485.609 312.534 493.321 303.081 500.784 292.881C504.516 287.656 508.248 282.183 511.979 276.462C513.721 273.725 515.711 270.74 517.452 267.754C518.447 266.262 519.194 264.769 520.438 263.277C521.682 261.535 522.925 260.042 523.92 258.301C535.364 241.882 542.827 226.707 547.803 213.024C552.778 199.341 555.017 186.903 556.261 177.2C557.505 167.249 557.505 159.537 557.505 154.313C557.505 152.323 557.256 150.83 557.256 149.586C561.237 148.342 565.217 146.85 569.198 145.357C570.193 144.86 570.939 144.611 571.934 144.113C571.934 145.357 571.685 147.596 571.685 150.581C571.437 153.318 571.188 156.303 570.939 160.035C570.69 163.766 570.193 167.747 569.695 172.474C568.7 181.678 567.207 193.122 564.72 205.809C563.476 212.278 561.983 218.995 560.242 226.209C559.247 229.692 558.251 233.424 557.256 237.155C556.261 240.887 555.017 244.618 553.773 248.35C549.544 260.54 544.071 271.984 537.852 282.432C534.618 287.656 531.135 292.881 527.652 297.608C524.916 302.085 522.677 306.315 519.94 310.544C509.492 326.714 498.297 339.153 488.097 347.611L487.599 348.109C497.55 339.651 509.989 327.709 522.925 311.788C524.418 309.797 526.159 307.807 527.652 305.568C528.398 304.573 529.642 303.329 530.637 302.085C531.881 300.842 532.876 299.598 534.12 298.354C538.598 293.378 543.076 288.154 547.057 282.681C555.266 271.735 562.481 260.291 568.451 246.857C582.631 214.268 582.134 188.395 579.646 169.986C577.656 155.806 574.422 146.85 572.929 143.616C576.91 141.874 580.641 140.382 584.622 138.64C589.597 136.401 594.573 134.66 599.051 131.923C603.777 129.436 608.255 127.197 612.982 124.709C615.221 123.465 617.46 122.47 619.699 121.226C621.938 119.982 623.928 118.489 626.167 117.245C634.625 112.021 643.084 107.046 650.547 101.324C654.279 98.5874 658.01 95.8508 661.742 93.3631C665.225 90.6266 668.708 87.6413 671.942 84.9047C698.561 62.7637 716.721 40.6228 727.667 24.2036C733.14 15.994 736.872 9.52586 739.36 5.0479C741.848 0.569954 742.843 -1.66903 742.843 -1.66903C743.589 -3.16168 743.34 -5.40065 742.096 -5.64943C741.35 -5.8982 740.604 -5.40065 740.106 -4.9031C739.36 -4.40555 738.862 -3.908 738.614 -2.9129C738.614 -2.9129 738.365 -2.41535 737.867 -1.17147C737.37 0.072403 736.374 1.56505 735.379 3.80403C734.135 6.043 732.643 8.77953 730.901 11.7648C728.911 14.9989 726.672 18.4818 724.184 22.4622C713.487 38.3838 695.824 60.276 669.454 82.417C666.22 85.1535 662.986 88.1388 659.503 90.8753C656.02 93.6119 652.289 96.0996 648.557 98.8362C644.079 102.319 639.352 105.304 634.625 108.29C634.625 107.543 634.625 106.548 634.625 105.304C634.874 100.578 634.625 94.1094 633.133 85.8998C629.899 69.9782 622.435 48.8323 607.011 28.9303C604.026 24.9499 601.041 20.9695 598.304 17.2379C595.319 13.5063 592.334 10.2722 589.597 7.0381C583.875 0.569946 579.149 -5.40065 574.422 -10.6249C564.72 -20.5759 557.256 -29.2831 552.032 -35.7512L551.783 -36C557.008 -29.5318 563.724 -20.3272 572.183 -9.13228C576.412 -3.41045 580.144 3.30647 584.87 10.2722C587.109 13.755 589.597 17.4867 591.836 21.4671C594.075 25.4475 596.314 29.9254 598.553 34.1546C610.245 55.798 618.953 75.2025 625.172 89.1339C628.157 96.3484 630.396 102.07 631.889 106.051C632.386 107.046 632.635 108.041 632.884 109.036C630.148 110.777 627.411 112.519 624.426 114.26C622.435 115.504 620.197 116.997 617.958 118.241C615.719 119.484 613.48 120.48 611.241 121.723C607.758 123.465 604.275 125.455 600.792 127.197C601.538 123.714 603.28 114.011 602.285 101.324C601.538 93.1143 599.548 83.4121 595.817 73.4611C591.836 63.2613 586.114 52.8127 578.154 42.3642C565.217 25.6962 552.032 13.2575 541.086 3.55526C535.613 -0.922699 530.389 -5.40066 525.911 -9.13228C521.184 -12.6151 517.204 -15.8492 513.969 -18.8345L513.721 -19.0833C516.955 -16.098 520.935 -12.8639 525.164 -9.13228C529.394 -5.15188 533.871 -0.176373 539.096 5.0479C548.549 15.7452 559.495 29.4279 569.446 47.0909C581.885 68.7344 589.597 89.1339 594.324 104.309C598.056 116.25 599.797 124.709 600.294 127.694C599.548 128.192 598.553 128.689 597.807 128.938C593.329 131.426 588.353 133.416 583.378 135.655C581.388 136.401 579.646 137.396 577.656 138.143C576.661 128.938 573.924 117.494 568.451 103.812C562.729 89.3827 553.525 72.9635 539.345 55.0517C530.886 44.1056 521.184 34.4034 512.228 26.1938C503.272 17.9842 495.063 11.7648 487.599 6.04301C485.858 4.55035 484.116 3.30648 482.624 2.0626C480.882 0.818722 479.39 -0.176373 477.897 -1.17147C474.912 -3.16167 472.424 -4.9031 470.434 -6.14698C466.453 -8.88351 464.214 -10.1274 463.966 -10.1274C463.966 -10.1274 464.961 -9.62983 465.707 -8.8835C466.453 -7.8884 467.697 -6.64453 469.19 -4.9031C470.683 -3.16168 472.673 -1.17147 475.161 1.31628C476.404 2.56015 477.648 3.80402 478.892 5.29668C480.136 6.78933 481.629 8.28198 483.121 9.77464C489.341 16.2428 496.555 23.706 504.516 31.9156C512.477 40.1252 521.433 49.5787 530.886 60.0272C538.598 68.4856 545.066 76.1976 550.788 83.6609C556.51 91.1241 561.237 98.0898 564.968 104.807C572.432 117.743 576.412 128.938 577.656 138.143C574.671 139.387 571.685 140.879 568.451 142.123C566.71 142.869 564.72 143.616 562.978 144.113C562.729 141.128 560.988 131.923 555.266 118.738C551.535 111.026 546.808 101.573 539.593 91.8704C536.359 86.8949 531.881 81.9194 527.652 76.6952C525.413 74.2074 522.925 71.7197 520.438 68.9831C517.95 66.4954 515.462 63.7588 512.726 61.5199C508.496 57.5395 504.019 53.5591 499.789 49.8274C495.56 46.0958 491.331 42.613 487.351 39.3789C483.37 36.1448 479.39 33.1595 475.658 30.6717C474.663 29.9254 473.917 29.4279 472.673 28.6815C471.429 28.184 469.936 27.4377 468.692 26.9401C465.956 25.945 463.219 24.7011 460.483 23.9548C455.507 21.7158 449.786 20.2232 444.81 18.7305C439.586 17.2379 435.108 15.7452 430.381 14.5014C426.401 13.755 422.669 13.0087 418.937 12.2624C430.63 15.2477 443.566 19.4769 456.751 25.6962C461.478 27.9352 466.205 30.423 471.18 33.1595L474.663 35.3985C475.658 36.1448 476.404 36.8911 477.151 37.6375C478.892 39.3789 480.634 40.8715 482.375 42.613C489.341 49.5787 496.804 57.2907 504.267 66.2466C506.755 68.9831 508.745 71.7197 510.984 74.4562C513.223 77.1927 515.462 79.6805 517.452 82.1682C521.184 87.3925 525.413 92.1192 528.896 96.8459C536.359 106.051 542.33 114.758 547.554 121.723C556.013 133.416 561.237 141.625 562.978 144.113C561.486 144.611 559.744 145.357 558.003 145.855C558.003 145.606 558.003 145.606 558.003 145.606V145.855C553.027 147.596 548.301 149.338 543.325 150.83C540.589 146.85 537.603 142.123 533.872 136.899C530.14 131.426 525.911 125.455 521.184 118.489C511.482 104.807 499.043 88.1388 483.121 69.9782C482.375 69.2319 481.878 68.4856 481.131 67.988L478.892 65.9978C477.4 64.7539 475.658 63.2613 474.165 62.0174C470.931 59.5297 467.449 57.0419 464.214 54.8029C457.498 50.0762 450.283 46.0958 443.317 42.3642C429.137 35.1497 414.957 29.6766 402.021 26.1938C395.553 24.4524 389.582 22.9597 384.358 21.7158C378.885 20.7207 373.909 19.9744 369.929 19.4769C361.968 18.4818 357.739 17.7354 357.739 17.7354C357.739 17.7354 361.222 18.9793 367.938 21.2183C371.173 22.2134 375.153 23.706 379.88 25.1987C384.358 26.9401 389.333 28.9303 394.806 31.4181C416.698 40.6228 444.064 55.798 471.926 75.4513C474.663 77.4415 477.4 79.4317 479.887 81.4219C482.375 83.4121 485.112 85.4023 487.102 87.3925C491.082 91.3729 494.814 95.3533 498.545 98.8362C505.76 106.299 512.228 113.265 518.199 119.733C529.891 132.67 538.349 142.621 543.823 150.83V151.079C541.832 151.825 540.091 152.323 538.101 153.069C527.403 156.303 516.208 159.04 505.014 161.776C493.57 164.513 482.126 167.001 470.683 169.737C465.956 170.732 460.98 171.976 456.005 173.22C455.01 172.225 453.02 170.235 450.034 167.498C445.308 163.269 437.844 157.547 427.396 150.83C406.499 137.645 372.665 121.475 324.403 111.772C285.345 104.309 249.024 102.568 216.932 103.563C185.089 104.558 157.475 109.036 136.826 112.519L135.831 112.768C156.728 109.036 183.347 105.802 213.947 106.299C244.546 106.797 278.877 110.777 315.447 119.733C360.226 130.928 395.801 144.611 419.684 155.308C439.088 164.015 451.029 170.732 455.259 172.971C448.79 174.464 442.322 176.205 435.605 177.698C427.396 179.688 419.435 181.927 411.474 183.917C409.235 182.425 398.289 175.459 378.387 166.254C367.192 161.03 353.261 155.557 336.095 150.084C318.93 145.108 297.784 140.382 273.155 139.138C233.6 136.65 197.776 138.889 166.431 143.616C150.758 146.103 136.08 149.089 122.895 153.069C116.178 154.811 109.71 157.298 103.739 159.537C100.505 160.781 97.0223 162.025 94.037 163.766C97.0223 162.274 99.7589 161.279 102.744 160.035C108.715 157.796 115.183 155.557 121.651 154.064C134.836 150.83 148.768 148.342 163.943 146.85C194.045 143.616 228.376 143.864 265.941 147.845C289.326 150.333 308.979 154.064 326.642 158.542C344.056 163.02 359.231 167.498 371.919 171.23C384.358 175.21 394.557 178.195 401.274 180.434C406.499 182.176 409.982 183.171 411.225 183.668C407.991 184.664 404.508 185.41 401.274 186.405C394.06 188.395 387.094 190.137 380.128 192.127C376.148 190.137 365.202 185.161 347.788 178.942C325.149 171.479 291.564 162.025 246.536 160.035C210.215 158.293 176.63 161.279 147.026 167.498C118.666 173.717 93.7882 183.42 74.3838 193.619C93.7882 183.668 117.671 174.961 144.538 170.981C172.899 166.503 204.493 165.508 238.824 168.991C281.365 173.22 316.442 179.937 341.568 184.912C360.475 188.644 373.66 191.381 378.885 192.624C374.904 193.868 370.924 194.863 366.943 196.107C362.217 197.6 357.49 198.844 352.763 200.336C351.519 199.839 348.285 198.844 343.31 197.6C336.593 195.61 326.642 193.122 313.705 190.634C300.769 188.146 284.599 185.907 265.941 184.166C246.785 183.171 224.893 182.425 200.015 184.912C160.211 188.893 123.89 196.605 92.0468 209.541C88.0664 211.283 84.086 212.775 80.3544 214.517C76.374 216.507 72.6424 218.248 69.1595 219.99C61.6963 223.473 54.7305 228.199 48.0136 232.18C41.2967 236.409 34.8285 241.633 28.8579 246.36C25.6238 249.345 22.3897 252.33 19.6532 255.316C22.3897 252.579 25.1263 249.843 28.1116 247.106C30.8481 242.877 37.3163 238.15 43.7844 233.921Z" fill="url(#paint12_linear_563_1667)" fill-opacity="0.7"/>
<path d="M15.9211 256.56C14.926 257.555 14.1807 258.55 13.1856 259.545C13.9319 258.55 14.926 257.555 15.9211 256.56Z" fill="url(#paint13_linear_563_1667)" fill-opacity="0.7"/>
<path d="M16.6677 255.564C16.4189 255.813 16.1699 256.062 15.9211 256.56C16.1699 256.311 16.4189 256.062 16.6677 255.564Z" fill="url(#paint14_linear_563_1667)" fill-opacity="0.7"/>
<path d="M36.5704 269.745C37.068 268.998 37.5655 268.501 38.0631 268.003C37.8143 268.252 37.5655 268.749 37.068 268.998L36.5704 269.745Z" fill="url(#paint15_linear_563_1667)" fill-opacity="0.7"/>
<path d="M41.794 263.525C41.5452 264.023 41.0474 264.272 40.7986 264.769C41.2962 264.272 41.5452 263.774 41.794 263.525Z" fill="url(#paint16_linear_563_1667)" fill-opacity="0.7"/>
<path d="M38.0631 268.003C38.5606 267.506 39.0572 266.759 39.5548 266.262C38.8084 266.759 38.5606 267.257 38.0631 268.003Z" fill="url(#paint17_linear_563_1667)" fill-opacity="0.7"/>
<path d="M62.1933 247.853C67.1688 244.867 72.3931 241.633 77.8662 238.897C83.3392 236.409 89.061 233.672 95.0316 231.185C101.002 228.946 107.222 226.956 113.441 224.965C119.66 223.224 126.377 221.731 132.845 220.487C139.314 219.492 146.279 218.497 153.245 217.751C160.211 217.253 167.425 216.507 174.888 216.009C211.458 214.019 242.804 214.268 265.194 214.517C287.584 214.766 301.266 215.014 301.266 215.014C301.266 215.014 298.281 214.268 292.808 213.273C287.335 212.278 279.125 210.785 268.677 209.541C247.78 207.054 217.429 204.566 179.366 208.546C171.654 209.292 164.191 210.288 156.977 211.283C149.762 212.278 142.796 213.77 135.831 215.263C121.899 218.497 108.465 223.224 96.2755 228.448C84.0855 233.921 72.6419 239.892 62.6909 246.609C57.7154 249.843 52.9886 253.574 48.5107 257.057C46.2717 258.799 44.2815 260.789 42.2913 262.53C42.0425 262.779 42.0425 262.779 41.7937 263.028C43.7839 261.038 45.7742 259.296 47.7644 257.555C52.4911 254.321 57.2178 250.589 62.1933 247.853Z" fill="url(#paint18_linear_563_1667)" fill-opacity="0.7"/>
<path d="M0.497543 364.777C1.49264 362.04 2.48775 359.055 3.73163 356.318C2.48775 359.552 1.24388 362.786 0 366.021L0.497543 364.777Z" fill="url(#paint19_linear_563_1667)" fill-opacity="0.7"/>
<path d="M60.9504 305.319C63.9357 302.832 67.1698 300.593 70.4039 298.105C73.638 295.617 77.1208 293.13 80.6036 290.891C94.535 280.94 110.208 273.228 127.125 265.764C153.992 254.321 176.631 248.848 194.791 245.116C199.269 244.37 203.747 243.623 207.728 242.877C211.708 242.379 215.689 241.882 219.171 241.633C226.137 240.887 232.357 240.638 237.581 240.389H238.078C227.879 240.638 214.196 240.887 196.284 242.877C178.372 244.867 156.231 248.35 128.866 258.052C111.949 264.272 95.5302 271.984 80.8524 282.432C66.1747 292.383 53.4872 303.827 43.5362 315.519C41.0484 318.505 38.8094 321.49 36.5704 324.226C34.3315 326.963 32.3413 329.699 30.5998 332.436C27.117 337.909 24.1317 342.636 21.8927 346.616C17.6635 355.075 15.4245 359.801 15.4245 359.801C15.4245 359.801 17.9123 355.821 22.639 348.358C24.878 344.626 28.1121 340.646 31.5949 335.919C35.0778 330.943 39.5557 326.217 44.2825 320.992C45.5263 319.748 46.7702 318.256 48.0141 317.012C49.258 315.768 50.7506 314.524 51.9945 313.28C54.9798 310.544 57.9651 307.807 60.9504 305.319Z" fill="url(#paint20_linear_563_1667)" fill-opacity="0.7"/>
<path d="M169.914 267.506C173.646 266.262 177.128 265.018 180.114 264.023C183.099 263.028 185.836 262.281 187.826 261.535C192.055 260.042 194.294 259.296 194.294 259.296C194.294 259.296 192.304 259.296 188.323 259.794C184.343 260.291 178.621 260.789 171.158 262.281C156.48 265.018 134.837 270.491 109.71 284.671C89.5595 296.115 72.6428 310.046 59.9553 324.226C47.2678 338.655 38.5606 353.084 33.0876 364.528L32.8388 365.025C35.8241 359.304 39.0582 352.836 43.7849 346.367C46.0239 343.133 48.5117 339.65 51.2482 336.416C53.9847 333.182 56.97 329.948 60.2041 326.714C73.1404 313.778 89.5595 301.837 109.213 292.134C133.593 280.193 154.739 272.73 169.914 267.506Z" fill="url(#paint21_linear_563_1667)" fill-opacity="0.7"/>
<path d="M136.08 292.134C141.553 288.9 146.279 286.91 149.265 285.169C152.499 283.427 154.24 282.681 154.24 282.681C154.24 282.681 148.021 283.427 136.577 286.91C125.631 290.642 108.963 297.359 91.3 312.285C87.8172 315.519 84.3343 318.256 81.349 321.49C78.3637 324.724 75.3784 327.709 72.6419 330.943C69.9053 334.177 67.4176 337.411 65.1786 340.646C62.6909 343.631 60.7007 346.865 58.7105 350.099C56.7203 353.333 54.9788 356.318 53.4862 359.304C51.9935 362.289 50.7497 365.274 49.257 368.011C46.5205 373.484 45.0278 378.459 43.2864 382.689L43.0376 383.186C44.779 378.957 46.5205 373.733 49.257 368.757C50.7497 366.269 52.2423 363.533 53.735 360.548C55.2276 357.811 57.4666 355.075 59.4568 352.338C63.4372 346.616 68.4127 341.392 73.8857 335.421C79.6076 329.948 85.5782 324.475 92.5439 319.5C109.709 307.061 124.885 298.105 136.08 292.134Z" fill="url(#paint22_linear_563_1667)" fill-opacity="0.7"/>
<path d="M99.012 398.859C99.2608 398.113 99.5096 397.117 99.7583 396.122C99.7583 397.117 99.5096 398.113 99.012 398.859Z" fill="url(#paint23_linear_563_1667)" fill-opacity="0.7"/>
<path d="M98.7642 399.854C98.7642 399.605 99.013 399.108 99.013 398.859C99.013 399.108 98.7642 399.357 98.7642 399.605V399.854Z" fill="url(#paint24_linear_563_1667)" fill-opacity="0.7"/>
<path d="M181.606 279.447C185.587 273.725 188.821 269.247 191.06 266.262C193.299 263.028 194.294 261.535 194.294 261.535C194.294 261.535 192.552 263.028 189.318 265.764C186.084 268.501 181.606 272.73 176.382 278.203C165.934 288.9 152.748 305.32 144.29 324.973C137.324 340.646 135.832 353.831 134.09 363.782C133.593 369.006 131.851 373.484 131.354 377.464C130.856 379.454 130.11 381.196 129.612 382.937C129.364 384.679 128.866 386.171 128.617 387.664V387.913C128.866 386.42 129.364 384.928 129.861 383.186C130.359 381.445 131.105 379.703 131.851 377.713C132.598 375.723 132.846 373.484 134.09 371.245C135.085 369.006 135.832 366.518 136.329 363.782C139.563 353.084 143.046 340.148 151.753 324.973C162.451 306.563 173.646 290.642 181.606 279.447Z" fill="url(#paint25_linear_563_1667)" fill-opacity="0.7"/>
<path d="M180.113 318.007C195.786 296.115 210.712 277.457 220.912 264.272C231.36 251.086 237.331 243.126 237.331 243.126C237.331 243.126 235.092 244.867 231.36 248.101C227.629 251.584 222.156 256.311 215.688 262.779C203 275.466 186.083 293.876 172.898 316.514C162.201 334.675 155.733 350.348 151.752 362.786C148.021 375.225 147.026 384.43 145.035 390.898V391.147C147.026 384.927 148.518 375.723 153.743 363.284C158.967 351.094 167.425 335.67 180.113 318.007Z" fill="url(#paint26_linear_563_1667)" fill-opacity="0.7"/>
<path d="M247.034 251.584C232.853 265.764 214.195 286.91 198.274 311.788C185.586 331.938 177.128 349.353 171.655 363.035C166.182 376.718 163.943 387.167 160.46 393.137L160.211 393.386C163.694 387.415 166.679 377.216 173.396 363.782C180.113 350.099 190.313 333.182 205.239 313.28C223.4 288.652 240.565 267.754 252.258 252.828C264.199 237.901 270.667 229.194 270.667 229.194C270.667 229.194 268.428 231.184 263.95 234.916C260.219 238.648 254.248 244.37 247.034 251.584Z" fill="url(#paint27_linear_563_1667)" fill-opacity="0.7"/>
<path d="M179.367 389.903C179.864 389.405 180.113 388.908 180.611 388.41C180.113 388.908 179.616 389.654 179.118 390.152L179.367 389.903Z" fill="url(#paint28_linear_563_1667)" fill-opacity="0.7"/>
<path d="M193.299 396.869C193.547 396.869 193.547 396.62 193.796 396.62C193.547 396.869 193.299 397.118 193.05 397.118L193.299 396.869Z" fill="url(#paint29_linear_563_1667)" fill-opacity="0.7"/>
<path d="M196.035 394.63C195.288 395.376 194.542 395.874 193.796 396.371C194.293 396.122 195.04 395.376 196.035 394.63Z" fill="url(#paint30_linear_563_1667)" fill-opacity="0.7"/>
<path d="M236.834 397.366C236.834 397.366 236.337 397.615 236.088 397.864C236.337 397.615 236.585 397.615 236.834 397.366Z" fill="url(#paint31_linear_563_1667)" fill-opacity="0.7"/>
<path d="M237.58 396.62C237.331 396.869 237.082 396.869 237.082 397.118C237.331 397.118 237.331 396.869 237.58 396.62Z" fill="url(#paint32_linear_563_1667)" fill-opacity="0.7"/>
<path d="M233.351 399.605C233.6 399.605 233.6 399.356 233.849 399.356C233.6 399.605 233.351 399.605 232.854 399.854L233.351 399.605Z" fill="url(#paint33_linear_563_1667)" fill-opacity="0.7"/>
<path d="M368.436 293.13C372.417 288.9 376.148 284.422 379.382 279.944C382.368 275.715 385.353 271.735 388.338 267.754C394.309 259.794 400.031 252.33 405.504 245.116C416.947 230.936 426.898 218.248 435.357 207.8C443.815 197.351 450.532 188.893 455.259 183.171C459.737 177.449 462.225 174.215 462.225 174.215C462.225 174.215 458.742 177.2 452.771 182.425C446.8 187.649 438.093 195.858 427.894 205.809C417.694 216.009 406.25 228.448 394.309 242.628C388.338 249.594 382.368 257.555 376.646 265.516C373.661 269.496 370.924 273.725 367.939 277.954C366.446 279.944 365.451 281.686 363.71 283.925C361.968 285.915 360.475 287.905 358.734 290.144C347.539 303.578 336.096 316.017 326.393 327.461C316.442 338.904 307.486 349.353 299.526 358.806C291.814 368.26 284.848 376.469 278.877 383.684C272.907 390.649 267.682 397.118 261.961 400.849L261.463 401.347C267.185 397.615 272.409 391.645 278.877 384.679C285.594 377.464 293.306 369.504 301.516 360.548C310.472 351.592 320.174 341.143 331.369 330.197C342.812 318.753 355.5 306.812 368.436 293.13Z" fill="url(#paint34_linear_563_1667)" fill-opacity="0.7"/>
<path d="M348.285 380.699C348.534 380.45 348.783 380.201 349.032 380.201C349.032 380.201 349.032 380.201 348.783 380.201L348.285 380.699Z" fill="url(#paint35_linear_563_1667)" fill-opacity="0.7"/>
<path d="M358.485 371.991C355.002 374.977 351.768 377.713 349.032 380.201C352.017 377.713 355.002 374.977 358.485 371.991Z" fill="url(#paint36_linear_563_1667)" fill-opacity="0.7"/>
<path d="M621.192 190.883C615.719 179.19 610.246 169.737 605.519 161.527C596.066 145.357 589.349 135.904 589.349 135.904C589.349 135.904 591.339 147.098 596.315 165.259C598.802 174.215 602.285 185.161 606.266 196.854C607.51 202.078 607.012 209.292 605.519 216.756C604.275 224.219 602.036 232.428 599.549 240.887C595.071 254.321 589.598 266.759 583.13 278.452C579.895 284.422 576.413 289.895 572.93 295.368C569.447 300.593 565.715 305.568 561.735 310.295C554.023 319.748 545.813 328.207 537.604 335.67C536.609 336.665 535.613 337.411 534.37 338.407C533.126 339.402 532.877 339.899 532.131 340.894C530.887 342.387 529.643 343.88 528.399 345.372C525.911 348.109 523.423 350.597 520.936 353.084L520.438 353.582C522.926 351.343 525.414 348.855 528.15 346.119C529.394 344.626 530.887 343.382 532.379 341.889L533.375 340.646C533.623 340.148 534.121 339.899 534.618 339.402C535.862 338.407 536.857 337.66 538.101 336.665C547.306 329.202 556.759 320.744 565.964 311.29C568.203 309.051 570.691 306.563 572.93 304.076C575.169 301.588 577.408 298.851 579.647 295.866C584.125 290.393 588.354 284.422 592.583 278.452C596.812 272.481 600.544 266.013 604.275 259.545C608.007 252.828 611.241 245.613 614.226 238.399C617.709 229.443 620.446 220.985 621.69 213.024C623.182 205.312 623.68 197.849 621.192 190.883Z" fill="url(#paint37_linear_563_1667)" fill-opacity="0.7"/>
<path d="M657.264 205.312C652.039 178.195 635.62 160.035 623.182 147.845C610.245 135.904 600.543 130.431 600.543 130.431C600.543 130.431 606.016 138.64 614.474 152.572C622.684 166.752 634.128 186.405 642.586 211.034C645.82 220.985 647.81 230.936 648.308 240.389C648.805 249.843 648.059 259.296 645.571 267.755C645.074 271.984 643.084 275.964 641.591 279.945C639.849 283.925 638.357 287.657 636.864 291.139C632.386 298.354 628.157 305.071 624.177 310.544L623.928 311.041C627.908 305.568 632.386 298.851 637.859 291.388C639.849 287.657 642.088 283.925 644.327 279.696C646.566 275.467 649.054 271.237 650.547 266.759C652.288 262.281 653.781 257.306 655.522 252.331C656.517 247.355 657.264 242.379 658.259 237.155C659.254 227.204 659.254 216.258 657.264 205.312Z" fill="url(#paint38_linear_563_1667)" fill-opacity="0.7"/>
<path d="M641.84 105.802C641.84 105.802 646.069 114.011 653.781 126.948C661.493 139.884 672.688 157.547 686.122 177.698C696.819 193.868 704.283 208.795 707.517 222.477C710.751 236.16 708.76 249.345 704.283 260.291L704.034 260.789C708.014 250.091 712.741 235.911 712.243 220.487C711.746 204.814 707.765 187.4 699.307 169.24C688.859 146.85 673.186 131.426 661.742 121.226C650.05 111.026 641.84 105.802 641.84 105.802Z" fill="url(#paint39_linear_563_1667)" fill-opacity="0.7"/>
<defs>
<linearGradient id="paint0_linear_563_1667" x1="634" y1="75" x2="76" y2="317" gradientUnits="userSpaceOnUse">
<stop stop-color="#163127" stop-opacity="0"/>
<stop offset="1" stop-color="#163127"/>
</linearGradient>
<linearGradient id="paint1_linear_563_1667" x1="634" y1="75" x2="76" y2="317" gradientUnits="userSpaceOnUse">
<stop stop-color="#163127" stop-opacity="0"/>
<stop offset="1" stop-color="#163127"/>
</linearGradient>
<linearGradient id="paint2_linear_563_1667" x1="634" y1="75" x2="76" y2="317" gradientUnits="userSpaceOnUse">
<stop stop-color="#163127" stop-opacity="0"/>
<stop offset="1" stop-color="#163127"/>
</linearGradient>
<linearGradient id="paint3_linear_563_1667" x1="634" y1="75" x2="76" y2="317" gradientUnits="userSpaceOnUse">
<stop stop-color="#163127" stop-opacity="0"/>
<stop offset="1" stop-color="#163127"/>
</linearGradient>
<linearGradient id="paint4_linear_563_1667" x1="634" y1="75" x2="76" y2="317" gradientUnits="userSpaceOnUse">
<stop stop-color="#163127" stop-opacity="0"/>
<stop offset="1" stop-color="#163127"/>
</linearGradient>
<linearGradient id="paint5_linear_563_1667" x1="634" y1="75" x2="76" y2="317" gradientUnits="userSpaceOnUse">
<stop stop-color="#163127" stop-opacity="0"/>
<stop offset="1" stop-color="#163127"/>
</linearGradient>
<linearGradient id="paint6_linear_563_1667" x1="634" y1="75" x2="76" y2="317" gradientUnits="userSpaceOnUse">
<stop stop-color="#163127" stop-opacity="0"/>
<stop offset="1" stop-color="#163127"/>
</linearGradient>
<linearGradient id="paint7_linear_563_1667" x1="634" y1="75" x2="76" y2="317" gradientUnits="userSpaceOnUse">
<stop stop-color="#163127" stop-opacity="0"/>
<stop offset="1" stop-color="#163127"/>
</linearGradient>
<linearGradient id="paint8_linear_563_1667" x1="634" y1="75" x2="76" y2="317" gradientUnits="userSpaceOnUse">
<stop stop-color="#163127" stop-opacity="0"/>
<stop offset="1" stop-color="#163127"/>
</linearGradient>
<linearGradient id="paint9_linear_563_1667" x1="634" y1="75" x2="76" y2="317" gradientUnits="userSpaceOnUse">
<stop stop-color="#163127" stop-opacity="0"/>
<stop offset="1" stop-color="#163127"/>
</linearGradient>
<linearGradient id="paint10_linear_563_1667" x1="634" y1="75" x2="76" y2="317" gradientUnits="userSpaceOnUse">
<stop stop-color="#163127" stop-opacity="0"/>
<stop offset="1" stop-color="#163127"/>
</linearGradient>
<linearGradient id="paint11_linear_563_1667" x1="634" y1="75" x2="76" y2="317" gradientUnits="userSpaceOnUse">
<stop stop-color="#163127" stop-opacity="0"/>
<stop offset="1" stop-color="#163127"/>
</linearGradient>
<linearGradient id="paint12_linear_563_1667" x1="634" y1="75" x2="76" y2="317" gradientUnits="userSpaceOnUse">
<stop stop-color="#163127" stop-opacity="0"/>
<stop offset="1" stop-color="#163127"/>
</linearGradient>
<linearGradient id="paint13_linear_563_1667" x1="634" y1="75" x2="76" y2="317" gradientUnits="userSpaceOnUse">
<stop stop-color="#163127" stop-opacity="0"/>
<stop offset="1" stop-color="#163127"/>
</linearGradient>
<linearGradient id="paint14_linear_563_1667" x1="634" y1="75" x2="76" y2="317" gradientUnits="userSpaceOnUse">
<stop stop-color="#163127" stop-opacity="0"/>
<stop offset="1" stop-color="#163127"/>
</linearGradient>
<linearGradient id="paint15_linear_563_1667" x1="634" y1="75" x2="76" y2="317" gradientUnits="userSpaceOnUse">
<stop stop-color="#163127" stop-opacity="0"/>
<stop offset="1" stop-color="#163127"/>
</linearGradient>
<linearGradient id="paint16_linear_563_1667" x1="634" y1="75" x2="76" y2="317" gradientUnits="userSpaceOnUse">
<stop stop-color="#163127" stop-opacity="0"/>
<stop offset="1" stop-color="#163127"/>
</linearGradient>
<linearGradient id="paint17_linear_563_1667" x1="634" y1="75" x2="76" y2="317" gradientUnits="userSpaceOnUse">
<stop stop-color="#163127" stop-opacity="0"/>
<stop offset="1" stop-color="#163127"/>
</linearGradient>
<linearGradient id="paint18_linear_563_1667" x1="634" y1="75" x2="76" y2="317" gradientUnits="userSpaceOnUse">
<stop stop-color="#163127" stop-opacity="0"/>
<stop offset="1" stop-color="#163127"/>
</linearGradient>
<linearGradient id="paint19_linear_563_1667" x1="634" y1="75" x2="76" y2="317" gradientUnits="userSpaceOnUse">
<stop stop-color="#163127" stop-opacity="0"/>
<stop offset="1" stop-color="#163127"/>
</linearGradient>
<linearGradient id="paint20_linear_563_1667" x1="634" y1="75" x2="76" y2="317" gradientUnits="userSpaceOnUse">
<stop stop-color="#163127" stop-opacity="0"/>
<stop offset="1" stop-color="#163127"/>
</linearGradient>
<linearGradient id="paint21_linear_563_1667" x1="634" y1="75" x2="76" y2="317" gradientUnits="userSpaceOnUse">
<stop stop-color="#163127" stop-opacity="0"/>
<stop offset="1" stop-color="#163127"/>
</linearGradient>
<linearGradient id="paint22_linear_563_1667" x1="634" y1="75" x2="76" y2="317" gradientUnits="userSpaceOnUse">
<stop stop-color="#163127" stop-opacity="0"/>
<stop offset="1" stop-color="#163127"/>
</linearGradient>
<linearGradient id="paint23_linear_563_1667" x1="634" y1="75" x2="76" y2="317" gradientUnits="userSpaceOnUse">
<stop stop-color="#163127" stop-opacity="0"/>
<stop offset="1" stop-color="#163127"/>
</linearGradient>
<linearGradient id="paint24_linear_563_1667" x1="634" y1="75" x2="76" y2="317" gradientUnits="userSpaceOnUse">
<stop stop-color="#163127" stop-opacity="0"/>
<stop offset="1" stop-color="#163127"/>
</linearGradient>
<linearGradient id="paint25_linear_563_1667" x1="634" y1="75" x2="76" y2="317" gradientUnits="userSpaceOnUse">
<stop stop-color="#163127" stop-opacity="0"/>
<stop offset="1" stop-color="#163127"/>
</linearGradient>
<linearGradient id="paint26_linear_563_1667" x1="634" y1="75" x2="76" y2="317" gradientUnits="userSpaceOnUse">
<stop stop-color="#163127" stop-opacity="0"/>
<stop offset="1" stop-color="#163127"/>
</linearGradient>
<linearGradient id="paint27_linear_563_1667" x1="634" y1="75" x2="76" y2="317" gradientUnits="userSpaceOnUse">
<stop stop-color="#163127" stop-opacity="0"/>
<stop offset="1" stop-color="#163127"/>
</linearGradient>
<linearGradient id="paint28_linear_563_1667" x1="634" y1="75" x2="76" y2="317" gradientUnits="userSpaceOnUse">
<stop stop-color="#163127" stop-opacity="0"/>
<stop offset="1" stop-color="#163127"/>
</linearGradient>
<linearGradient id="paint29_linear_563_1667" x1="634" y1="75" x2="76" y2="317" gradientUnits="userSpaceOnUse">
<stop stop-color="#163127" stop-opacity="0"/>
<stop offset="1" stop-color="#163127"/>
</linearGradient>
<linearGradient id="paint30_linear_563_1667" x1="634" y1="75" x2="76" y2="317" gradientUnits="userSpaceOnUse">
<stop stop-color="#163127" stop-opacity="0"/>
<stop offset="1" stop-color="#163127"/>
</linearGradient>
<linearGradient id="paint31_linear_563_1667" x1="634" y1="75" x2="76" y2="317" gradientUnits="userSpaceOnUse">
<stop stop-color="#163127" stop-opacity="0"/>
<stop offset="1" stop-color="#163127"/>
</linearGradient>
<linearGradient id="paint32_linear_563_1667" x1="634" y1="75" x2="76" y2="317" gradientUnits="userSpaceOnUse">
<stop stop-color="#163127" stop-opacity="0"/>
<stop offset="1" stop-color="#163127"/>
</linearGradient>
<linearGradient id="paint33_linear_563_1667" x1="634" y1="75" x2="76" y2="317" gradientUnits="userSpaceOnUse">
<stop stop-color="#163127" stop-opacity="0"/>
<stop offset="1" stop-color="#163127"/>
</linearGradient>
<linearGradient id="paint34_linear_563_1667" x1="634" y1="75" x2="76" y2="317" gradientUnits="userSpaceOnUse">
<stop stop-color="#163127" stop-opacity="0"/>
<stop offset="1" stop-color="#163127"/>
</linearGradient>
<linearGradient id="paint35_linear_563_1667" x1="634" y1="75" x2="76" y2="317" gradientUnits="userSpaceOnUse">
<stop stop-color="#163127" stop-opacity="0"/>
<stop offset="1" stop-color="#163127"/>
</linearGradient>
<linearGradient id="paint36_linear_563_1667" x1="634" y1="75" x2="76" y2="317" gradientUnits="userSpaceOnUse">
<stop stop-color="#163127" stop-opacity="0"/>
<stop offset="1" stop-color="#163127"/>
</linearGradient>
<linearGradient id="paint37_linear_563_1667" x1="634" y1="75" x2="76" y2="317" gradientUnits="userSpaceOnUse">
<stop stop-color="#163127" stop-opacity="0"/>
<stop offset="1" stop-color="#163127"/>
</linearGradient>
<linearGradient id="paint38_linear_563_1667" x1="634" y1="75" x2="76" y2="317" gradientUnits="userSpaceOnUse">
<stop stop-color="#163127" stop-opacity="0"/>
<stop offset="1" stop-color="#163127"/>
</linearGradient>
<linearGradient id="paint39_linear_563_1667" x1="634" y1="75" x2="76" y2="317" gradientUnits="userSpaceOnUse">
<stop stop-color="#163127" stop-opacity="0"/>
<stop offset="1" stop-color="#163127"/>
</linearGradient>
</defs>
</svg>
