<svg width="343" height="225" viewBox="0 0 343 225" fill="none" xmlns="http://www.w3.org/2000/svg">
<path d="M222.574 6.27438C219.92 5.61098 217.399 5.08026 215.144 4.68222C217.266 5.21294 219.787 5.74366 222.574 6.27438Z" fill="url(#paint0_linear_1409_37848)" fill-opacity="0.2"/>
<path d="M214.612 4.54957C214.745 4.54957 214.878 4.54957 215.01 4.68225L214.612 4.54957Z" fill="url(#paint1_linear_1409_37848)" fill-opacity="0.2"/>
<path d="M158.887 24.0535C162.071 24.5842 165.521 25.115 169.502 25.911C185.025 28.83 204.662 34.9333 224.431 44.2209C240.485 51.651 252.294 59.3464 261.449 65.9804C269.675 72.6144 276.176 78.187 280.687 82.5654L280.953 82.8308C276.442 78.4524 270.604 72.6144 263.439 65.317C261.714 63.4595 259.459 61.602 257.203 59.6118C254.815 57.6216 252.294 55.6314 249.64 53.5085C244.2 49.3954 237.832 45.017 230.402 40.7712C211.959 30.0241 190.2 24.4516 172.819 22.7267C168.44 22.4614 164.46 22.196 160.877 21.9306C157.295 21.9306 153.978 22.0633 151.457 22.196C148.803 22.3287 146.813 22.4614 145.486 22.4614C144.16 22.594 143.364 22.594 143.364 22.594C143.364 22.594 146.017 22.7267 150.661 23.2574C152.651 23.5228 155.57 23.6555 158.887 24.0535Z" fill="url(#paint2_linear_1409_37848)" fill-opacity="0.2"/>
<path d="M109.53 40.1078L109 40.2405C109.265 40.1078 109.53 40.1078 109.796 39.9751C109.663 39.9751 109.53 40.1078 109.53 40.1078Z" fill="url(#paint3_linear_1409_37848)" fill-opacity="0.2"/>
<path d="M117.756 38.7809C120.808 38.5156 123.86 38.6483 127.177 38.5156C133.545 38.6483 140.577 39.0463 148.14 39.9751C151.988 40.3731 155.835 40.9038 159.816 41.5672C163.796 42.2306 167.909 42.894 172.288 43.8228C180.647 45.5476 189.138 48.0685 197.63 51.3855C218.328 59.7444 233.984 68.8993 245.129 75.666C256.142 82.4327 262.378 86.8111 262.378 86.8111C262.378 86.8111 261.449 85.4843 259.326 83.0961C257.203 80.7078 254.019 77.3908 249.508 73.4104C240.353 65.5823 225.891 55.1006 203.07 47.5378C193.782 44.6189 184.494 42.496 175.472 41.1692C166.317 39.9751 157.958 39.0463 149.998 38.6483C142.169 38.1175 134.739 38.1175 128.238 38.1175C122.931 38.3829 118.154 38.5156 113.511 39.3117H113.643C114.705 39.0463 116.164 38.9136 117.756 38.7809Z" fill="url(#paint4_linear_1409_37848)" fill-opacity="0.2"/>
<path d="M109.796 39.9751C110.857 39.7097 112.051 39.4444 113.112 39.3117C111.918 39.4444 110.857 39.7097 109.796 39.9751Z" fill="url(#paint5_linear_1409_37848)" fill-opacity="0.2"/>
<path d="M47.0376 88.536C47.5684 88.2707 48.2318 87.8726 48.7625 87.6073C48.0991 87.8726 47.5684 88.138 47.0376 88.536Z" fill="url(#paint6_linear_1409_37848)" fill-opacity="0.2"/>
<path d="M48.7625 87.6073C48.8952 87.6073 49.0276 87.4746 49.1602 87.4746C49.0276 87.4746 48.8952 87.4746 48.7625 87.6073Z" fill="url(#paint7_linear_1409_37848)" fill-opacity="0.2"/>
<path d="M44.6497 89.9955C45.0477 89.7301 45.5784 89.3321 46.1092 89.0667C45.8438 89.1994 45.4457 89.4648 45.1804 89.5974L44.6497 89.9955Z" fill="url(#paint8_linear_1409_37848)" fill-opacity="0.2"/>
<path d="M37.3519 104.06C37.7499 103.794 38.148 103.662 38.6787 103.396C38.148 103.662 37.4845 103.927 36.9538 104.325L37.3519 104.06Z" fill="url(#paint9_linear_1409_37848)" fill-opacity="0.2"/>
<path d="M5.64119 141.077C6.03923 140.547 6.43727 139.883 6.968 139.353C6.70264 139.751 6.3046 140.149 6.03924 140.414L5.64119 141.077Z" fill="url(#paint10_linear_1409_37848)" fill-opacity="0.2"/>
<path d="M7.63191 138.424C7.36655 138.689 7.10119 139.087 6.83583 139.353C7.10119 139.087 7.36655 138.822 7.63191 138.424Z" fill="url(#paint11_linear_1409_37848)" fill-opacity="0.2"/>
<path d="M23.9513 124.758C27.5337 122.767 31.2487 120.512 35.0964 118.787C38.9442 117.062 42.9246 115.205 47.0376 113.878C63.49 108.04 82.0652 104.856 102.631 103.794C115.501 102.998 126.778 103.264 137.127 103.396C147.344 103.794 156.366 104.458 163.796 104.988C176.401 106.05 184.892 106.846 187.015 106.979C186.219 107.244 185.423 107.509 184.76 107.642C184.76 107.642 184.76 107.642 184.627 107.775C176.135 110.428 167.777 113.082 159.683 115.868C154.11 117.858 148.671 119.849 143.363 121.839C140.71 121.441 135.005 120.645 126.646 120.247C120.675 119.981 113.245 120.114 104.355 121.043C95.5986 121.971 85.5149 123.829 74.2371 127.544C65.0821 130.463 56.5906 134.443 48.6298 138.954C44.6494 141.343 40.8017 143.731 37.2193 146.385C33.6369 148.905 30.1873 151.957 27.0029 154.876C15.5925 165.358 7.36629 178.36 2.58981 189.904C7.36629 178.493 15.5925 166.154 26.7376 156.336C39.4749 145.19 55.3965 136.566 72.9103 131.657C83.6574 128.473 93.6084 126.615 102.365 125.288C104.488 125.023 106.611 124.625 108.734 124.36C110.724 124.094 112.714 123.962 114.704 123.696C118.42 123.298 122.002 123.033 125.186 122.767C131.422 122.237 136.464 122.237 139.914 121.971C140.975 121.971 141.904 121.971 142.567 121.971C137.393 123.962 132.484 125.952 127.574 127.942C122.533 130.065 117.623 132.32 112.847 134.576C110.459 135.637 108.203 136.832 105.948 137.893C103.692 139.087 101.436 140.149 99.3136 141.343C95.2005 143.598 91.2201 145.721 87.3724 147.977C87.3724 147.977 87.3724 147.977 87.2397 148.109C83.2593 150.498 79.6769 152.886 76.2273 155.141C69.5933 159.785 63.888 164.031 59.5096 168.144C58.5808 168.94 57.7847 169.736 56.9887 170.532C56.856 170.665 56.5906 170.798 56.4579 170.93C55.2638 171.726 53.6716 173.053 51.5488 174.645C49.4259 176.37 47.1703 178.758 44.6494 181.545C43.4553 183.004 42.2612 184.596 40.9344 186.454C39.6076 188.179 38.5461 190.302 37.4847 192.292C36.5559 193.884 35.7598 195.742 35.0964 197.334C34.433 199.059 33.637 200.518 33.1062 202.243C32.1775 205.427 30.9834 208.346 30.5853 211.132C29.2585 216.705 28.9931 221.083 28.1971 224.4V224.533C28.8605 221.216 29.5239 216.97 31.3814 211.796C33.1062 206.621 35.8925 200.783 39.7402 194.68C44.5167 186.985 49.4259 181.147 52.7429 176.636C54.4677 174.513 55.9272 172.788 56.856 171.594C57.7847 170.4 58.3155 169.736 58.3155 169.736C58.3155 169.736 58.0501 169.869 57.3867 170.267C58.0501 169.604 58.8462 168.94 59.6423 168.277C62.0305 166.021 64.8168 163.766 68.0011 161.377C67.7357 161.643 67.3377 162.041 66.9397 162.439C65.8782 163.633 64.2861 165.225 62.5612 167.613C58.9789 172.124 54.7331 178.758 51.8141 186.719C50.7527 190.036 49.6912 192.955 49.1605 195.742C48.8952 197.068 48.4971 198.395 48.2318 199.722C47.9664 201.049 47.8337 202.243 47.5684 203.437C47.0376 205.693 46.905 207.948 46.5069 209.806C46.3742 210.734 46.1089 211.663 45.8435 212.459C45.7108 213.255 45.4455 213.919 45.1801 214.449C45.4455 213.919 45.7108 213.388 45.9762 212.592C46.2416 211.796 46.5069 210.867 46.7723 209.938C47.303 208.081 47.8337 205.825 48.6298 203.57C49.0278 202.376 49.4259 201.181 49.8239 199.855C50.3546 198.528 50.8854 197.201 51.4161 195.874C51.9468 194.415 52.6102 193.088 53.2736 191.496C53.937 190.036 54.6004 188.444 55.5292 186.852C59.3769 179.024 63.0919 172.655 65.3475 168.011C67.3377 164.296 68.3991 161.775 68.7972 160.979C71.1854 159.122 73.839 157.264 76.6253 155.407C79.677 153.284 82.9939 151.161 86.4436 149.171C86.1783 149.436 85.7802 149.834 85.2495 150.232C83.79 151.559 81.6672 153.682 79.2789 156.468C74.5024 161.908 68.2664 169.736 63.7553 179.555C60.0403 187.383 57.9174 194.282 56.5906 199.855C55.3965 204.498 54.8658 208.346 54.0697 211.398C54.9985 208.346 55.9272 204.631 57.6521 200.12C59.6423 194.547 62.6939 187.648 67.3377 180.085C73.0429 170.665 78.3501 162.704 82.0652 157.264C83.9227 154.478 85.2495 152.222 86.3109 150.763C86.8417 149.967 87.2397 149.304 87.3724 148.905C91.2201 146.65 95.3332 144.262 99.7116 142.006C101.835 140.945 104.09 139.751 106.346 138.689C108.601 137.628 110.989 136.566 113.245 135.505C118.021 133.249 122.798 131.126 127.973 129.003C133.412 126.748 138.985 124.625 144.69 122.502C145.221 122.502 145.354 122.502 145.354 122.502C145.354 122.502 145.221 122.502 144.956 122.369C149.997 120.512 155.039 118.654 160.214 116.93C161.673 116.399 163.133 116.001 164.592 115.47C163.531 116.399 158.356 120.777 151.059 128.075C142.833 136.168 131.953 147.977 122.4 162.173C114.572 173.584 109.265 183.402 105.417 191.23C103.559 195.211 101.967 198.661 100.64 201.579C100.242 202.243 99.977 203.039 99.5789 203.702C99.3136 204.366 99.0482 205.029 98.6502 205.56C98.5175 205.825 98.3848 206.091 98.1195 206.356C98.2522 206.091 98.3848 205.958 98.5175 205.693C99.1809 204.498 99.8443 203.172 100.64 201.845C102.1 198.926 103.957 195.609 106.213 191.761C110.724 184.066 117.225 174.38 126.115 163.102C136.995 149.171 147.078 137.362 153.845 128.871C160.214 121.175 163.929 116.399 164.592 115.603C170.828 113.48 177.197 111.49 183.698 109.632C181.575 111.888 177.197 116.664 171.492 123.431C169.501 125.819 167.378 128.473 164.99 131.392C162.735 134.311 160.214 137.362 157.693 140.547C156.499 142.271 155.039 143.731 153.712 145.323C152.12 147.048 150.528 148.905 148.936 150.63C147.476 152.488 145.884 154.345 144.425 156.203C142.965 158.06 141.373 160.051 139.914 162.041C130.228 174.778 123.063 185.791 117.491 194.415C112.582 201.845 108.999 207.683 105.55 210.867C108.999 207.815 112.847 202.376 118.287 195.078C124.523 186.587 132.882 175.707 143.761 163.102C147.078 159.122 150.395 155.407 153.447 151.824C155.039 150.1 156.631 148.375 158.091 146.65C159.683 144.792 161.275 143.068 162.469 141.343C167.644 134.576 171.624 128.738 174.941 123.829C178.258 118.92 180.912 114.939 182.637 112.286C183.433 111.092 184.096 110.03 184.494 109.367C188.077 108.305 191.792 107.111 195.507 106.05C200.15 104.723 204.662 103.396 209.438 102.202C208.509 102.865 207.183 103.927 205.192 105.519C201.875 108.173 197.232 112.02 191.659 116.93C188.873 119.45 185.954 122.237 182.902 125.288C181.443 126.881 179.85 128.473 178.258 130.198C176.799 131.922 175.339 133.647 173.88 135.505C170.961 139.087 167.909 142.935 164.99 146.915C161.939 150.763 158.489 154.876 155.039 159.122C143.629 172.788 133.943 184.464 127.176 193.884C120.144 203.172 115.766 210.336 111.653 213.786C115.633 210.336 120.542 203.57 128.238 194.68C135.933 185.525 146.68 174.247 159.816 160.581C163.796 156.336 167.644 152.222 170.961 148.109C174.145 143.996 177.197 140.149 179.983 136.566C181.31 134.841 182.637 132.984 183.964 131.392C185.29 129.667 186.75 128.207 188.077 126.615C190.73 123.564 193.118 120.645 195.507 118.124C203.202 109.632 208.377 104.06 209.969 102.202C211.296 101.804 212.622 101.539 213.817 101.141C219.92 99.5485 226.023 97.8236 232.259 96.3642C232.79 96.2315 233.188 96.0988 233.719 95.9661C232.79 96.6295 231.463 97.8236 229.605 99.2831C226.288 102.069 221.512 106.182 215.939 111.49C210.234 116.664 203.6 123.166 196.701 130.463C193.251 134.178 189.801 138.158 186.219 142.271C182.769 146.385 178.789 150.498 174.809 155.009C161.806 169.338 151.457 181.545 143.761 191.628C140.179 196.405 136.862 200.916 133.81 204.896C132.351 206.754 131.024 208.479 129.697 209.938C129.034 210.602 128.503 211.265 127.84 211.796C128.371 211.265 129.034 210.734 129.565 210.204C130.891 208.744 132.351 207.019 133.81 205.294C136.862 201.579 140.444 197.334 144.823 192.425C153.447 182.739 164.99 170.665 179.452 156.734C183.831 152.355 188.209 148.109 191.924 143.864C195.507 139.751 198.956 135.77 202.273 132.055C208.907 124.492 214.878 117.858 219.654 112.551C227.217 103.794 232.259 97.9563 234.117 95.8334C239.689 94.5066 245.262 93.1798 250.702 91.9857C254.682 91.057 258.662 90.1282 262.643 89.3321C260.255 91.7204 255.08 97.0276 248.579 104.723C244.068 110.03 238.76 116.664 233.453 123.962C230.8 127.677 228.013 131.657 225.36 135.77C224.033 137.893 222.706 139.883 221.114 142.006C219.522 144.129 217.797 146.252 216.072 148.375C204.794 162.439 195.374 174.513 187.679 184.464C183.831 189.506 180.381 193.884 177.197 197.732C173.88 201.447 171.094 205.029 167.644 207.019L167.378 207.285C170.828 205.294 173.747 201.845 177.329 198.13C180.912 194.282 184.76 189.904 189.005 185.127C197.762 175.441 208.642 163.633 221.379 149.702C223.37 147.579 225.227 145.456 227.085 143.2C228.942 141.077 230.667 138.822 231.994 136.832C234.78 132.719 237.566 128.738 240.087 125.023C245.129 117.46 249.64 110.959 253.223 105.386C256.805 99.8138 259.724 95.4354 261.581 92.3838C262.51 90.9243 263.174 89.7302 263.704 88.9341C265.694 88.536 267.552 88.138 269.542 87.6073C270.869 87.2092 272.196 86.9439 273.523 86.6785C273.125 87.3419 272.328 88.8014 271.002 90.9243C269.144 93.9759 266.358 98.2217 262.908 103.529C256.141 114.011 246.589 128.871 235.311 146.385C219.654 170.532 204.264 187.781 192.588 198.395C194.18 197.068 195.772 195.742 197.497 194.149C201.212 190.567 205.856 186.719 210.234 182.075C219.522 172.921 230.136 161.377 240.751 147.446C254.019 130.198 262.51 114.807 267.287 103.927C269.675 98.487 271.4 93.9759 272.328 90.9243C272.992 88.6687 273.39 87.2092 273.523 86.5458C277.636 85.4844 281.881 84.5556 285.862 83.3615C285.464 84.1576 284.8 85.219 284.004 86.6785C282.279 89.5975 279.891 93.8432 276.972 99.1504C275.38 101.804 273.655 104.856 271.798 107.907C269.94 111.092 268.348 114.276 266.491 117.858C262.776 124.89 258.928 132.719 254.947 141.077C253.355 144.394 251.498 147.579 249.906 150.763C248.181 153.815 246.456 156.866 244.598 159.653C241.149 165.358 237.832 170.532 234.515 175.176C227.881 184.331 220.981 191.628 213.551 195.476L213.286 195.609C220.583 191.894 228.146 184.862 235.974 175.84C239.955 171.328 243.935 166.154 248.181 160.449C250.304 157.662 252.426 154.611 254.549 151.559C256.54 148.375 258.795 145.058 260.918 141.741C265.96 133.249 269.94 125.421 273.39 118.389C277.37 110.959 280.024 104.458 281.881 99.1504C283.739 93.8432 284.933 89.5975 285.596 86.6785C285.995 85.219 286.127 84.0249 286.26 83.3615C286.525 83.2288 286.791 83.2288 287.056 83.0961C290.373 81.902 293.69 80.8406 296.874 79.7791C296.742 80.4425 296.476 81.2386 296.211 82.3001C295.282 85.219 294.088 89.4648 292.23 94.9047C290.373 100.477 287.985 106.581 284.8 113.745C283.208 117.328 281.483 121.043 279.361 125.023C278.299 127.013 277.238 129.003 276.176 131.126C275.247 133.117 274.319 135.107 273.39 137.23C267.419 150.365 261.051 161.51 254.151 170.4C247.385 179.289 239.822 186.056 233.055 190.036L232.79 190.302C239.424 186.189 247.65 179.82 255.611 171.063C259.591 166.685 263.704 161.643 267.685 156.203C269.675 153.417 271.665 150.498 273.655 147.446C274.584 145.987 275.645 144.394 276.574 142.802C277.105 142.006 277.503 141.21 278.166 140.414C278.83 139.485 279.493 138.689 280.024 137.76C286.127 129.003 290.108 120.91 292.761 113.613C295.415 106.315 296.609 99.6812 297.272 94.5066C297.936 89.1994 297.936 85.0863 297.936 82.3001C297.936 81.2386 297.803 80.4425 297.803 79.7791C299.926 79.1157 302.049 78.3197 304.172 77.5236C304.702 77.2582 305.1 77.1255 305.631 76.8602C305.631 77.5236 305.498 78.7177 305.498 80.3099C305.366 81.7693 305.233 83.3615 305.1 85.3517C304.968 87.3419 304.702 89.4648 304.437 91.9857C303.906 96.8949 303.11 102.998 301.783 109.765C301.12 113.215 300.324 116.797 299.395 120.645C298.864 122.502 298.334 124.492 297.803 126.483C297.272 128.473 296.609 130.463 295.945 132.453C293.69 138.954 290.771 145.058 287.454 150.63C285.729 153.417 283.872 156.203 282.014 158.724C280.555 161.112 279.36 163.368 277.901 165.623C272.328 174.247 266.358 180.881 260.918 185.392L260.653 185.658C265.96 181.147 272.594 174.778 279.493 166.287C280.289 165.225 281.218 164.164 282.014 162.97C282.412 162.439 283.076 161.775 283.606 161.112C284.27 160.449 284.8 159.785 285.464 159.122C287.852 156.468 290.24 153.682 292.363 150.763C296.742 144.925 300.589 138.822 303.774 131.657C311.336 114.276 311.071 100.477 309.744 90.6589C308.683 83.0962 306.958 78.3197 306.162 76.5948C308.285 75.6661 310.275 74.87 312.398 73.9412C315.051 72.7471 317.705 71.8183 320.093 70.3589C322.614 69.0321 325.002 67.8379 327.523 66.5111C328.717 65.8477 329.912 65.317 331.106 64.6536C332.3 63.9902 333.361 63.1941 334.555 62.5307C339.067 59.7445 343.578 57.0909 347.558 54.0392C349.548 52.5797 351.538 51.1202 353.529 49.7934C355.386 48.334 357.244 46.7418 358.969 45.2823C373.165 33.4738 382.851 21.6653 388.689 12.9084C391.608 8.52994 393.598 5.08026 394.925 2.69202C396.252 0.303778 396.782 -0.890345 396.782 -0.890345C397.18 -1.68643 397.048 -2.88054 396.384 -3.01322C395.986 -3.1459 395.588 -2.88054 395.323 -2.61518C394.925 -2.34982 394.66 -2.08447 394.527 -1.55375C394.527 -1.55375 394.394 -1.28838 394.129 -0.624983C393.863 0.0384178 393.333 0.834497 392.802 2.02862C392.139 3.22274 391.342 4.68222 390.414 6.27438C389.352 7.99922 388.158 9.85674 386.831 11.9796C381.126 20.4711 371.706 32.147 357.642 43.9555C355.917 45.415 354.192 47.0072 352.335 48.4666C350.477 49.9261 348.487 51.2529 346.497 52.7124C344.108 54.5699 341.587 56.1621 339.067 57.7542C339.067 57.3562 339.067 56.8255 339.067 56.1621C339.199 53.6412 339.066 50.1915 338.27 45.813C336.546 37.3215 332.565 26.0437 324.339 15.4293C322.747 13.3064 321.155 11.1835 319.695 9.19335C318.103 7.20314 316.511 5.4783 315.051 3.75346C312 0.303776 309.479 -2.88054 306.958 -5.66683C301.783 -10.974 297.803 -15.6178 295.017 -19.0675L294.884 -19.2002C297.67 -15.7505 301.253 -10.8414 305.764 -4.87075C308.019 -1.81911 310.01 1.76326 312.531 5.4783C313.725 7.33582 315.051 9.32602 316.246 11.4489C317.44 13.5718 318.634 15.96 319.828 18.2156C326.064 29.7588 330.708 40.1078 334.025 47.5379C335.617 51.3856 336.811 54.4372 337.607 56.5601C337.872 57.0909 338.005 57.6216 338.138 58.1523C336.678 59.0811 335.219 60.0098 333.627 60.9386C332.565 61.602 331.371 62.3981 330.177 63.0615C328.983 63.7249 327.789 64.2556 326.595 64.919C324.737 65.8477 322.88 66.9092 321.022 67.8379C321.42 65.9804 322.349 60.8059 321.818 54.0392C321.42 49.6608 320.359 44.4862 318.368 39.179C316.246 33.7392 313.194 28.1666 308.948 22.594C302.049 13.7045 295.017 7.07046 289.179 1.89594C286.26 -0.492302 283.474 -2.88055 281.085 -4.87075C278.564 -6.72827 276.442 -8.45311 274.717 -10.0453L274.584 -10.178C276.309 -8.58579 278.432 -6.86095 280.687 -4.87075C282.943 -2.74787 285.331 -0.0942631 288.117 2.69202C293.159 8.39726 298.997 15.6947 304.304 25.115C310.938 36.6581 315.051 47.5379 317.572 55.6314C319.563 62 320.491 66.5111 320.757 68.1033C320.359 68.3687 319.828 68.634 319.43 68.7667C317.042 70.0935 314.388 71.1549 311.734 72.3491C310.673 72.7471 309.744 73.2778 308.683 73.6759C308.152 68.7667 306.693 62.6634 303.774 55.366C300.722 47.6706 295.813 38.9137 288.25 29.3607C283.739 23.5228 278.564 18.3483 273.788 13.9698C269.011 9.59138 264.633 6.27438 260.653 3.22274C259.724 2.42666 258.795 1.76326 257.999 1.09986C257.07 0.436457 256.274 -0.0942631 255.478 -0.624983C253.886 -1.68642 252.559 -2.61518 251.498 -3.27859C249.375 -4.73807 248.181 -5.40146 248.048 -5.40146C248.048 -5.40146 248.579 -5.1361 248.977 -4.73806C249.375 -4.20734 250.038 -3.54395 250.834 -2.61518C251.63 -1.68642 252.692 -0.624983 254.019 0.701818C254.682 1.36522 255.345 2.02862 256.009 2.8247C256.672 3.62078 257.468 4.41686 258.264 5.21294C261.581 8.66262 265.429 12.643 269.675 17.0215C273.921 21.3999 278.697 26.4418 283.739 32.0143C287.852 36.5254 291.302 40.6385 294.353 44.6189C297.405 48.5993 299.926 52.3144 301.916 55.8967C305.896 62.7961 308.019 68.7667 308.683 73.6759C307.091 74.3393 305.498 75.1353 303.774 75.7987C302.845 76.1968 301.783 76.5948 300.855 76.8602C300.722 75.268 299.793 70.3589 296.742 63.3268C294.751 59.2137 292.23 54.1719 288.383 48.9974C286.658 46.3438 284.27 43.6902 282.014 40.9039C280.82 39.5771 279.493 38.2503 278.166 36.7908C276.84 35.464 275.513 34.0045 274.053 32.8104C271.798 30.6875 269.409 28.5646 267.154 26.5744C264.898 24.5842 262.643 22.7267 260.52 21.0019C258.397 19.277 256.274 17.6849 254.284 16.3581C253.753 15.96 253.355 15.6947 252.692 15.2966C252.028 15.0313 251.232 14.6332 250.569 14.3679C249.109 13.8371 247.65 13.1737 246.19 12.7757C243.537 11.5816 240.485 10.7855 237.832 9.98942C235.045 9.19334 232.657 8.39726 230.136 7.73386C228.013 7.33582 226.023 6.93778 224.033 6.53974C230.269 8.1319 237.168 10.3875 244.2 13.7045C246.721 14.8986 249.242 16.2254 251.896 17.6849L253.753 18.879C254.284 19.277 254.682 19.6751 255.08 20.0731C256.009 21.0019 256.938 21.798 257.866 22.7267C261.581 26.4418 265.562 30.5548 269.542 35.3313C270.869 36.7908 271.93 38.2503 273.125 39.7098C274.319 41.1692 275.513 42.496 276.574 43.8228C278.564 46.6091 280.82 49.1301 282.677 51.651C286.658 56.5601 289.842 61.2039 292.629 64.919C297.14 71.1549 299.926 75.5334 300.855 76.8602C300.059 77.1255 299.13 77.5236 298.201 77.7889C298.201 77.6563 298.201 77.6563 298.201 77.6563V77.7889C295.547 78.7177 293.027 79.6465 290.373 80.4426C288.913 78.3197 287.321 75.7987 285.331 73.0125C283.341 70.0935 281.085 66.9092 278.564 63.1941C273.39 55.8967 266.756 47.0072 258.264 37.3215C257.866 36.9235 257.601 36.5254 257.203 36.2601L256.009 35.1986C255.213 34.5352 254.284 33.7392 253.488 33.0758C251.763 31.749 249.906 30.4222 248.181 29.228C244.598 26.7071 240.751 24.5842 237.036 22.594C229.473 18.7463 221.91 15.8273 215.011 13.9698C211.561 13.0411 208.377 12.245 205.59 11.5816C202.671 11.0509 200.018 10.6528 197.895 10.3875C193.649 9.85674 191.394 9.4587 191.394 9.4587C191.394 9.4587 193.251 10.1221 196.833 11.3162C198.558 11.8469 200.681 12.643 203.202 13.4391C205.59 14.3679 208.244 15.4293 211.163 16.7561C222.839 21.6653 237.434 29.7588 252.294 40.2405C253.753 41.3019 255.213 42.3634 256.54 43.4248C257.866 44.4862 259.326 45.5477 260.387 46.6091C262.51 48.732 264.5 50.8549 266.491 52.7124C270.338 56.6928 273.788 60.4079 276.972 63.8575C283.208 70.7569 287.719 76.0641 290.638 80.4426V80.5752C289.577 80.9733 288.648 81.2386 287.587 81.6367C281.881 83.3615 275.911 84.821 269.94 86.2805C263.837 87.74 257.734 89.0667 251.63 90.5262C249.109 91.057 246.456 91.7204 243.802 92.3838C243.272 91.853 242.21 90.7916 240.618 89.3321C238.097 87.0766 234.117 84.0249 228.544 80.4426C217.399 73.4105 199.354 64.7863 173.614 59.6118C152.784 55.6314 133.412 54.7026 116.297 55.2333C99.3136 55.764 84.5861 58.1523 73.5737 60.0098L73.0429 60.1425C84.1881 58.1523 98.3848 56.4275 114.704 56.6928C131.024 56.9582 149.334 59.0811 168.838 63.8575C192.72 69.8281 211.694 77.1255 224.431 82.8308C234.78 87.4746 241.149 91.057 243.404 92.2511C239.954 93.0472 236.505 93.9759 232.922 94.772C228.544 95.8334 224.298 97.0276 220.053 98.089C218.858 97.2929 213.02 93.5779 202.406 88.6687C196.435 85.8824 189.005 82.9635 179.85 80.0445C170.695 77.3909 159.418 74.87 146.282 74.2066C125.186 72.8798 106.08 74.0739 89.3626 76.5948C81.0037 77.9216 73.1756 79.5138 66.1436 81.6367C62.5612 82.5654 59.1115 83.8922 55.9272 85.0863C54.2024 85.7497 52.3449 86.4132 50.7527 87.3419C52.3449 86.5458 53.8043 86.0151 55.3965 85.3517C58.5808 84.1576 62.0305 82.9635 65.4802 82.1674C72.5122 80.4426 79.9423 79.1157 88.0358 78.3197C104.09 76.5948 122.4 76.7275 142.435 78.8504C154.907 80.1772 165.388 82.1674 174.809 84.5556C184.096 86.9439 192.19 89.3321 198.956 91.3223C205.59 93.4452 211.03 95.0374 214.613 96.2315C217.399 97.1602 219.256 97.691 219.92 97.9563C218.195 98.487 216.337 98.8851 214.613 99.4158C210.765 100.477 207.05 101.406 203.335 102.467C201.212 101.406 195.374 98.7524 186.086 95.4354C174.012 91.455 156.101 86.4132 132.086 85.3517C112.714 84.423 94.8025 86.0151 79.0135 89.3321C63.888 92.6491 50.62 97.8236 40.271 103.264C50.62 97.9563 63.3573 93.3125 77.6867 91.1896C92.8123 88.8014 109.663 88.2707 127.973 90.1282C150.661 92.3838 169.369 95.9661 182.769 98.6197C192.853 100.61 199.885 102.069 202.671 102.733C200.549 103.396 198.426 103.927 196.303 104.59C193.782 105.386 191.261 106.05 188.74 106.846C188.077 106.581 186.352 106.05 183.698 105.386C180.116 104.325 174.809 102.998 167.909 101.671C161.01 100.345 152.386 99.1504 142.435 98.2217C132.218 97.691 120.542 97.2929 107.274 98.6197C86.0456 100.743 66.6743 104.856 49.6912 111.755C47.5684 112.684 45.4455 113.48 43.4553 114.409C41.3324 115.47 39.3422 116.399 37.4847 117.328C33.5043 119.185 29.7892 121.706 26.2069 123.829C22.6245 126.085 19.1748 128.871 15.9905 131.392C14.2657 132.984 12.5408 134.576 11.0813 136.168C12.5408 134.709 14.0003 133.249 15.5925 131.79C17.0519 129.534 20.5016 127.013 23.9513 124.758Z" fill="url(#paint12_linear_1409_37848)" fill-opacity="0.2"/>
<path d="M9.09087 136.832C8.56015 137.362 8.16263 137.893 7.63191 138.424C8.02995 137.893 8.56015 137.362 9.09087 136.832Z" fill="url(#paint13_linear_1409_37848)" fill-opacity="0.2"/>
<path d="M9.48905 136.301C9.35637 136.433 9.22355 136.566 9.09087 136.832C9.22355 136.699 9.35637 136.566 9.48905 136.301Z" fill="url(#paint14_linear_1409_37848)" fill-opacity="0.2"/>
<path d="M20.1038 143.864C20.3692 143.466 20.6346 143.2 20.8999 142.935C20.7672 143.067 20.6346 143.333 20.3692 143.466L20.1038 143.864Z" fill="url(#paint15_linear_1409_37848)" fill-opacity="0.2"/>
<path d="M22.8897 140.547C22.7571 140.812 22.4916 140.945 22.3589 141.21C22.6242 140.945 22.7571 140.679 22.8897 140.547Z" fill="url(#paint16_linear_1409_37848)" fill-opacity="0.2"/>
<path d="M20.8999 142.935C21.1653 142.669 21.4301 142.271 21.6955 142.006C21.2974 142.271 21.1653 142.537 20.8999 142.935Z" fill="url(#paint17_linear_1409_37848)" fill-opacity="0.2"/>
<path d="M33.7694 132.188C36.423 130.596 39.2093 128.871 42.1282 127.411C45.0472 126.085 48.0988 124.625 51.2831 123.298C54.4675 122.104 57.7845 121.043 61.1015 119.981C64.4185 119.053 68.0008 118.256 71.4505 117.593C74.9002 117.062 78.6152 116.532 82.3303 116.134C86.0453 115.868 89.8931 115.47 93.8735 115.205C113.377 114.143 130.095 114.276 142.036 114.409C153.978 114.541 161.275 114.674 161.275 114.674C161.275 114.674 159.683 114.276 156.764 113.745C153.845 113.215 149.466 112.419 143.894 111.755C132.749 110.428 116.562 109.102 96.2617 111.224C92.1486 111.622 88.1682 112.153 84.3205 112.684C80.4728 113.215 76.7577 114.011 73.0427 114.807C65.6126 116.532 58.4479 119.053 51.9466 121.839C45.4452 124.758 39.3419 127.942 34.0347 131.524C31.3811 133.249 28.8602 135.24 26.472 137.097C25.2779 138.026 24.2164 139.087 23.155 140.016C23.0223 140.149 23.0223 140.149 22.8896 140.281C23.951 139.22 25.0125 138.291 26.0739 137.362C28.5949 135.638 31.1158 133.647 33.7694 132.188Z" fill="url(#paint18_linear_1409_37848)" fill-opacity="0.2"/>
<path d="M0.864966 194.547C1.39569 193.088 1.92641 191.496 2.58981 190.036C1.92641 191.761 1.26301 193.486 0.599609 195.211L0.864966 194.547Z" fill="url(#paint19_linear_1409_37848)" fill-opacity="0.2"/>
<path d="M33.1065 162.837C34.6987 161.51 36.4235 160.316 38.1483 158.989C39.8732 157.662 41.7307 156.336 43.5882 155.141C51.0183 149.834 59.3771 145.721 68.3994 141.741C82.7289 135.637 94.8027 132.718 104.488 130.728C106.877 130.33 109.265 129.932 111.388 129.534C113.511 129.269 115.634 129.003 117.491 128.871C121.206 128.473 124.523 128.34 127.309 128.207H127.575C122.135 128.34 114.837 128.473 105.284 129.534C95.7315 130.596 83.923 132.453 69.3282 137.628C60.3059 140.945 51.549 145.058 43.7209 150.63C35.8928 155.937 29.1261 162.041 23.8189 168.277C22.4921 169.869 21.298 171.461 20.1038 172.921C18.9097 174.38 17.8483 175.839 16.9195 177.299C15.062 180.218 13.4698 182.739 12.2757 184.862C10.0202 189.373 8.82603 191.894 8.82603 191.894C8.82603 191.894 10.1528 189.771 12.6738 185.79C13.8679 183.8 15.5927 181.677 17.4502 179.156C19.3078 176.503 21.696 173.982 24.2169 171.196C24.8803 170.532 25.5437 169.736 26.2071 169.073C26.8705 168.409 27.6666 167.746 28.33 167.083C29.9222 165.623 31.5143 164.164 33.1065 162.837Z" fill="url(#paint20_linear_1409_37848)" fill-opacity="0.2"/>
<path d="M91.2204 142.669C93.2106 142.006 95.0681 141.343 96.6603 140.812C98.2524 140.281 99.7119 139.883 100.773 139.485C103.029 138.689 104.223 138.291 104.223 138.291C104.223 138.291 103.162 138.291 101.039 138.556C98.9158 138.822 95.8642 139.087 91.8838 139.883C84.0557 141.343 72.5125 144.262 59.1118 151.824C48.3647 157.928 39.3424 165.358 32.5758 172.921C25.8091 180.616 21.1653 188.311 18.2463 194.415L18.1136 194.68C19.7058 191.628 21.4306 188.179 23.9516 184.729C25.1457 183.004 26.4725 181.147 27.932 179.422C29.3915 177.697 30.9836 175.972 32.7085 174.247C39.6078 167.348 48.3647 160.979 58.8464 155.805C71.8491 149.436 83.1269 145.456 91.2204 142.669Z" fill="url(#paint21_linear_1409_37848)" fill-opacity="0.2"/>
<path d="M73.1754 155.805C76.0943 154.08 78.6153 153.019 80.2074 152.09C81.9323 151.161 82.861 150.763 82.861 150.763C82.861 150.763 79.544 151.161 73.4407 153.019C67.6028 155.009 58.7132 158.591 49.2929 166.552C47.4354 168.277 45.5779 169.736 43.9857 171.461C42.3936 173.186 40.8014 174.778 39.3419 176.503C37.8825 178.228 36.5557 179.953 35.3615 181.677C34.0347 183.27 32.9733 184.994 31.9119 186.719C30.8504 188.444 29.9217 190.036 29.1256 191.628C28.3295 193.221 27.6661 194.813 26.87 196.272C25.4105 199.191 24.6144 201.845 23.6857 204.1L23.553 204.366C24.4818 202.11 25.4105 199.324 26.87 196.67C27.6661 195.343 28.4622 193.884 29.2583 192.292C30.0543 190.832 31.2485 189.373 32.3099 187.913C34.4328 184.862 37.0864 182.075 40.0053 178.891C43.057 175.972 46.2413 173.053 49.9563 170.4C59.1113 163.766 67.2048 158.989 73.1754 155.805Z" fill="url(#paint22_linear_1409_37848)" fill-opacity="0.2"/>
<path d="M53.406 212.725C53.5387 212.327 53.6714 211.796 53.8041 211.265C53.8041 211.796 53.6714 212.327 53.406 212.725Z" fill="url(#paint23_linear_1409_37848)" fill-opacity="0.2"/>
<path d="M53.2739 213.255C53.2739 213.123 53.4066 212.857 53.4066 212.725C53.4066 212.857 53.2739 212.99 53.2739 213.123V213.255Z" fill="url(#paint24_linear_1409_37848)" fill-opacity="0.2"/>
<path d="M97.4563 149.038C99.5792 145.986 101.304 143.598 102.498 142.006C103.692 140.281 104.223 139.485 104.223 139.485C104.223 139.485 103.294 140.281 101.569 141.741C99.8446 143.2 97.4563 145.456 94.6701 148.375C89.0975 154.08 82.0655 162.837 77.5543 173.319C73.8393 181.677 73.0432 188.709 72.1144 194.017C71.8491 196.803 70.9203 199.191 70.655 201.314C70.3896 202.376 69.9916 203.304 69.7262 204.233C69.5935 205.162 69.3282 205.958 69.1955 206.754V206.887C69.3282 206.091 69.5935 205.294 69.8589 204.366C70.1242 203.437 70.5223 202.508 70.9203 201.447C71.3184 200.385 71.451 199.191 72.1144 197.997C72.6452 196.803 73.0432 195.476 73.3086 194.017C75.0334 188.311 76.8909 181.412 81.5347 173.319C87.24 163.5 93.2106 155.009 97.4563 149.038Z" fill="url(#paint25_linear_1409_37848)" fill-opacity="0.2"/>
<path d="M96.6597 169.604C105.019 157.928 112.979 147.977 118.419 140.945C123.992 133.913 127.176 129.667 127.176 129.667C127.176 129.667 125.982 130.596 123.992 132.32C122.002 134.178 119.083 136.699 115.633 140.149C108.866 146.915 99.8441 156.734 92.812 168.807C87.1068 178.493 83.6571 186.852 81.5342 193.486C79.544 200.12 79.0133 205.029 77.9519 208.479V208.611C79.0133 205.294 79.8094 200.385 82.5957 193.751C85.3819 187.25 89.893 179.024 96.6597 169.604Z" fill="url(#paint26_linear_1409_37848)" fill-opacity="0.2"/>
<path d="M132.351 134.178C124.788 141.741 114.837 153.019 106.346 166.287C99.5788 177.034 95.0677 186.321 92.1488 193.619C89.2298 200.916 88.0357 206.489 86.1782 209.673L86.0455 209.806C87.903 206.621 89.4951 201.181 93.0775 194.017C96.6599 186.719 102.1 177.697 110.061 167.083C119.746 153.947 128.901 142.802 135.137 134.841C141.506 126.881 144.955 122.237 144.955 122.237C144.955 122.237 143.761 123.298 141.373 125.288C139.383 127.279 136.199 130.33 132.351 134.178Z" fill="url(#paint27_linear_1409_37848)" fill-opacity="0.2"/>
<path d="M96.262 207.948C96.5273 207.683 96.66 207.417 96.9254 207.152C96.66 207.417 96.3946 207.815 96.1293 208.081L96.262 207.948Z" fill="url(#paint28_linear_1409_37848)" fill-opacity="0.2"/>
<path d="M103.692 211.663C103.825 211.663 103.825 211.531 103.958 211.531C103.825 211.663 103.692 211.796 103.56 211.796L103.692 211.663Z" fill="url(#paint29_linear_1409_37848)" fill-opacity="0.2"/>
<path d="M105.151 210.469C104.753 210.867 104.355 211.132 103.957 211.398C104.223 211.265 104.621 210.867 105.151 210.469Z" fill="url(#paint30_linear_1409_37848)" fill-opacity="0.2"/>
<path d="M126.911 211.928C126.911 211.928 126.646 212.061 126.513 212.194C126.646 212.061 126.778 212.061 126.911 211.928Z" fill="url(#paint31_linear_1409_37848)" fill-opacity="0.2"/>
<path d="M127.309 211.531C127.176 211.663 127.043 211.663 127.043 211.796C127.176 211.796 127.176 211.663 127.309 211.531Z" fill="url(#paint32_linear_1409_37848)" fill-opacity="0.2"/>
<path d="M125.054 213.123C125.186 213.123 125.186 212.99 125.319 212.99C125.186 213.123 125.054 213.123 124.788 213.255L125.054 213.123Z" fill="url(#paint33_linear_1409_37848)" fill-opacity="0.2"/>
<path d="M197.099 156.336C199.222 154.08 201.212 151.692 202.937 149.304C204.529 147.048 206.121 144.925 207.713 142.802C210.898 138.556 213.949 134.576 216.868 130.728C222.972 123.166 228.279 116.399 232.79 110.826C237.301 105.254 240.883 100.743 243.404 97.691C245.793 94.6393 247.119 92.9145 247.119 92.9145C247.119 92.9145 245.262 94.5066 242.078 97.2929C238.893 100.079 234.249 104.458 228.809 109.765C223.37 115.205 217.266 121.839 210.898 129.402C207.713 133.117 204.529 137.362 201.477 141.608C199.885 143.731 198.426 145.986 196.834 148.242C196.038 149.303 195.507 150.232 194.578 151.426C193.649 152.488 192.853 153.549 191.924 154.743C185.954 161.908 179.851 168.542 174.676 174.645C169.369 180.749 164.592 186.321 160.347 191.363C156.234 196.405 152.518 200.783 149.334 204.631C146.15 208.346 143.364 211.796 140.312 213.786L140.047 214.051C143.098 212.061 145.884 208.877 149.334 205.162C152.917 201.314 157.03 197.068 161.408 192.292C166.185 187.515 171.359 181.943 177.33 176.105C183.433 170.002 190.2 163.633 197.099 156.336Z" fill="url(#paint34_linear_1409_37848)" fill-opacity="0.2"/>
<path d="M186.352 203.039C186.484 202.906 186.617 202.774 186.75 202.774C186.75 202.774 186.75 202.774 186.617 202.774L186.352 203.039Z" fill="url(#paint35_linear_1409_37848)" fill-opacity="0.2"/>
<path d="M191.791 198.395C189.934 199.987 188.209 201.447 186.75 202.774C188.342 201.447 189.934 199.987 191.791 198.395Z" fill="url(#paint36_linear_1409_37848)" fill-opacity="0.2"/>
<path d="M331.902 101.804C328.983 95.568 326.064 90.5262 323.543 86.1478C318.501 77.5236 314.919 72.4817 314.919 72.4817C314.919 72.4817 315.98 78.4523 318.634 88.138C319.961 92.9145 321.818 98.7524 323.941 104.988C324.605 107.775 324.339 111.622 323.543 115.603C322.88 119.583 321.686 123.962 320.359 128.473C317.971 135.637 315.052 142.271 311.602 148.507C309.877 151.692 308.02 154.611 306.162 157.53C304.305 160.316 302.314 162.97 300.192 165.49C296.078 170.532 291.7 175.043 287.322 179.024C286.791 179.555 286.26 179.953 285.597 180.483C284.933 181.014 284.801 181.279 284.403 181.81C283.739 182.606 283.076 183.402 282.412 184.198C281.086 185.658 279.759 186.985 278.432 188.311L278.167 188.577C279.493 187.383 280.82 186.056 282.28 184.596C282.943 183.8 283.739 183.137 284.535 182.341L285.066 181.677C285.199 181.412 285.464 181.279 285.729 181.014C286.393 180.483 286.924 180.085 287.587 179.555C292.496 175.574 297.538 171.063 302.447 166.021C303.641 164.827 304.968 163.5 306.162 162.173C307.356 160.847 308.55 159.387 309.744 157.795C312.133 154.876 314.388 151.692 316.644 148.507C318.899 145.323 320.89 141.873 322.88 138.424C324.87 134.841 326.595 130.994 328.187 127.146C330.045 122.369 331.504 117.858 332.167 113.613C332.964 109.499 333.229 105.519 331.902 101.804Z" fill="url(#paint37_linear_1409_37848)" fill-opacity="0.2"/>
<path d="M351.14 109.5C348.354 95.0374 339.597 85.3518 332.963 78.8504C326.064 72.4818 320.889 69.5628 320.889 69.5628C320.889 69.5628 323.808 73.9413 328.319 81.3713C332.698 88.9341 338.801 99.4158 343.312 112.551C345.037 117.858 346.098 123.166 346.364 128.207C346.629 133.249 346.231 138.291 344.904 142.802C344.639 145.058 343.578 147.181 342.781 149.304C341.853 151.426 341.057 153.417 340.26 155.274C337.872 159.122 335.617 162.704 333.494 165.623L333.361 165.889C335.484 162.97 337.872 159.387 340.791 155.407C341.853 153.417 343.047 151.426 344.241 149.171C345.435 146.915 346.762 144.66 347.558 142.271C348.487 139.883 349.283 137.23 350.212 134.576C350.742 131.922 351.14 129.269 351.671 126.483C352.202 121.175 352.202 115.337 351.14 109.5Z" fill="url(#paint38_linear_1409_37848)" fill-opacity="0.2"/>
<path d="M342.914 56.4275C342.914 56.4275 345.17 60.8059 349.283 67.7053C353.396 74.6046 359.367 84.0249 366.531 94.772C372.237 103.396 376.217 111.357 377.942 118.654C379.667 125.952 378.605 132.984 376.217 138.822L376.084 139.087C378.207 133.382 380.728 125.819 380.463 117.593C380.197 109.234 378.075 99.9465 373.563 90.2609C367.991 78.3197 359.632 70.0935 353.529 64.6536C347.293 59.2137 342.914 56.4275 342.914 56.4275Z" fill="url(#paint39_linear_1409_37848)" fill-opacity="0.2"/>
<defs>
<linearGradient id="paint0_linear_1409_37848" x1="338.733" y1="39.9998" x2="41.1329" y2="169.066" gradientUnits="userSpaceOnUse">
<stop stop-color="#C4A767" stop-opacity="0"/>
<stop offset="1" stop-color="#C4A767"/>
</linearGradient>
<linearGradient id="paint1_linear_1409_37848" x1="338.733" y1="39.9998" x2="41.1329" y2="169.066" gradientUnits="userSpaceOnUse">
<stop stop-color="#C4A767" stop-opacity="0"/>
<stop offset="1" stop-color="#C4A767"/>
</linearGradient>
<linearGradient id="paint2_linear_1409_37848" x1="338.733" y1="39.9998" x2="41.1329" y2="169.066" gradientUnits="userSpaceOnUse">
<stop stop-color="#C4A767" stop-opacity="0"/>
<stop offset="1" stop-color="#C4A767"/>
</linearGradient>
<linearGradient id="paint3_linear_1409_37848" x1="338.733" y1="39.9998" x2="41.1329" y2="169.066" gradientUnits="userSpaceOnUse">
<stop stop-color="#C4A767" stop-opacity="0"/>
<stop offset="1" stop-color="#C4A767"/>
</linearGradient>
<linearGradient id="paint4_linear_1409_37848" x1="338.733" y1="39.9998" x2="41.1329" y2="169.066" gradientUnits="userSpaceOnUse">
<stop stop-color="#C4A767" stop-opacity="0"/>
<stop offset="1" stop-color="#C4A767"/>
</linearGradient>
<linearGradient id="paint5_linear_1409_37848" x1="338.733" y1="39.9998" x2="41.1329" y2="169.066" gradientUnits="userSpaceOnUse">
<stop stop-color="#C4A767" stop-opacity="0"/>
<stop offset="1" stop-color="#C4A767"/>
</linearGradient>
<linearGradient id="paint6_linear_1409_37848" x1="338.733" y1="39.9998" x2="41.1329" y2="169.066" gradientUnits="userSpaceOnUse">
<stop stop-color="#C4A767" stop-opacity="0"/>
<stop offset="1" stop-color="#C4A767"/>
</linearGradient>
<linearGradient id="paint7_linear_1409_37848" x1="338.733" y1="39.9998" x2="41.1329" y2="169.066" gradientUnits="userSpaceOnUse">
<stop stop-color="#C4A767" stop-opacity="0"/>
<stop offset="1" stop-color="#C4A767"/>
</linearGradient>
<linearGradient id="paint8_linear_1409_37848" x1="338.733" y1="39.9998" x2="41.1329" y2="169.066" gradientUnits="userSpaceOnUse">
<stop stop-color="#C4A767" stop-opacity="0"/>
<stop offset="1" stop-color="#C4A767"/>
</linearGradient>
<linearGradient id="paint9_linear_1409_37848" x1="338.733" y1="39.9998" x2="41.1329" y2="169.066" gradientUnits="userSpaceOnUse">
<stop stop-color="#C4A767" stop-opacity="0"/>
<stop offset="1" stop-color="#C4A767"/>
</linearGradient>
<linearGradient id="paint10_linear_1409_37848" x1="338.733" y1="39.9998" x2="41.1329" y2="169.066" gradientUnits="userSpaceOnUse">
<stop stop-color="#C4A767" stop-opacity="0"/>
<stop offset="1" stop-color="#C4A767"/>
</linearGradient>
<linearGradient id="paint11_linear_1409_37848" x1="338.733" y1="39.9998" x2="41.1329" y2="169.066" gradientUnits="userSpaceOnUse">
<stop stop-color="#C4A767" stop-opacity="0"/>
<stop offset="1" stop-color="#C4A767"/>
</linearGradient>
<linearGradient id="paint12_linear_1409_37848" x1="338.733" y1="39.9998" x2="41.1329" y2="169.066" gradientUnits="userSpaceOnUse">
<stop stop-color="#C4A767" stop-opacity="0"/>
<stop offset="1" stop-color="#C4A767"/>
</linearGradient>
<linearGradient id="paint13_linear_1409_37848" x1="338.733" y1="39.9998" x2="41.1329" y2="169.066" gradientUnits="userSpaceOnUse">
<stop stop-color="#C4A767" stop-opacity="0"/>
<stop offset="1" stop-color="#C4A767"/>
</linearGradient>
<linearGradient id="paint14_linear_1409_37848" x1="338.733" y1="39.9998" x2="41.1329" y2="169.066" gradientUnits="userSpaceOnUse">
<stop stop-color="#C4A767" stop-opacity="0"/>
<stop offset="1" stop-color="#C4A767"/>
</linearGradient>
<linearGradient id="paint15_linear_1409_37848" x1="338.733" y1="39.9998" x2="41.1329" y2="169.066" gradientUnits="userSpaceOnUse">
<stop stop-color="#C4A767" stop-opacity="0"/>
<stop offset="1" stop-color="#C4A767"/>
</linearGradient>
<linearGradient id="paint16_linear_1409_37848" x1="338.733" y1="39.9998" x2="41.1329" y2="169.066" gradientUnits="userSpaceOnUse">
<stop stop-color="#C4A767" stop-opacity="0"/>
<stop offset="1" stop-color="#C4A767"/>
</linearGradient>
<linearGradient id="paint17_linear_1409_37848" x1="338.733" y1="39.9998" x2="41.1329" y2="169.066" gradientUnits="userSpaceOnUse">
<stop stop-color="#C4A767" stop-opacity="0"/>
<stop offset="1" stop-color="#C4A767"/>
</linearGradient>
<linearGradient id="paint18_linear_1409_37848" x1="338.733" y1="39.9998" x2="41.1329" y2="169.066" gradientUnits="userSpaceOnUse">
<stop stop-color="#C4A767" stop-opacity="0"/>
<stop offset="1" stop-color="#C4A767"/>
</linearGradient>
<linearGradient id="paint19_linear_1409_37848" x1="338.733" y1="39.9998" x2="41.1329" y2="169.066" gradientUnits="userSpaceOnUse">
<stop stop-color="#C4A767" stop-opacity="0"/>
<stop offset="1" stop-color="#C4A767"/>
</linearGradient>
<linearGradient id="paint20_linear_1409_37848" x1="338.733" y1="39.9998" x2="41.1329" y2="169.066" gradientUnits="userSpaceOnUse">
<stop stop-color="#C4A767" stop-opacity="0"/>
<stop offset="1" stop-color="#C4A767"/>
</linearGradient>
<linearGradient id="paint21_linear_1409_37848" x1="338.733" y1="39.9998" x2="41.1329" y2="169.066" gradientUnits="userSpaceOnUse">
<stop stop-color="#C4A767" stop-opacity="0"/>
<stop offset="1" stop-color="#C4A767"/>
</linearGradient>
<linearGradient id="paint22_linear_1409_37848" x1="338.733" y1="39.9998" x2="41.1329" y2="169.066" gradientUnits="userSpaceOnUse">
<stop stop-color="#C4A767" stop-opacity="0"/>
<stop offset="1" stop-color="#C4A767"/>
</linearGradient>
<linearGradient id="paint23_linear_1409_37848" x1="338.733" y1="39.9998" x2="41.1329" y2="169.066" gradientUnits="userSpaceOnUse">
<stop stop-color="#C4A767" stop-opacity="0"/>
<stop offset="1" stop-color="#C4A767"/>
</linearGradient>
<linearGradient id="paint24_linear_1409_37848" x1="338.733" y1="39.9998" x2="41.1329" y2="169.066" gradientUnits="userSpaceOnUse">
<stop stop-color="#C4A767" stop-opacity="0"/>
<stop offset="1" stop-color="#C4A767"/>
</linearGradient>
<linearGradient id="paint25_linear_1409_37848" x1="338.733" y1="39.9998" x2="41.1329" y2="169.066" gradientUnits="userSpaceOnUse">
<stop stop-color="#C4A767" stop-opacity="0"/>
<stop offset="1" stop-color="#C4A767"/>
</linearGradient>
<linearGradient id="paint26_linear_1409_37848" x1="338.733" y1="39.9998" x2="41.1329" y2="169.066" gradientUnits="userSpaceOnUse">
<stop stop-color="#C4A767" stop-opacity="0"/>
<stop offset="1" stop-color="#C4A767"/>
</linearGradient>
<linearGradient id="paint27_linear_1409_37848" x1="338.733" y1="39.9998" x2="41.1329" y2="169.066" gradientUnits="userSpaceOnUse">
<stop stop-color="#C4A767" stop-opacity="0"/>
<stop offset="1" stop-color="#C4A767"/>
</linearGradient>
<linearGradient id="paint28_linear_1409_37848" x1="338.733" y1="39.9998" x2="41.1329" y2="169.066" gradientUnits="userSpaceOnUse">
<stop stop-color="#C4A767" stop-opacity="0"/>
<stop offset="1" stop-color="#C4A767"/>
</linearGradient>
<linearGradient id="paint29_linear_1409_37848" x1="338.733" y1="39.9998" x2="41.1329" y2="169.066" gradientUnits="userSpaceOnUse">
<stop stop-color="#C4A767" stop-opacity="0"/>
<stop offset="1" stop-color="#C4A767"/>
</linearGradient>
<linearGradient id="paint30_linear_1409_37848" x1="338.733" y1="39.9998" x2="41.1329" y2="169.066" gradientUnits="userSpaceOnUse">
<stop stop-color="#C4A767" stop-opacity="0"/>
<stop offset="1" stop-color="#C4A767"/>
</linearGradient>
<linearGradient id="paint31_linear_1409_37848" x1="338.733" y1="39.9998" x2="41.1329" y2="169.066" gradientUnits="userSpaceOnUse">
<stop stop-color="#C4A767" stop-opacity="0"/>
<stop offset="1" stop-color="#C4A767"/>
</linearGradient>
<linearGradient id="paint32_linear_1409_37848" x1="338.733" y1="39.9998" x2="41.1329" y2="169.066" gradientUnits="userSpaceOnUse">
<stop stop-color="#C4A767" stop-opacity="0"/>
<stop offset="1" stop-color="#C4A767"/>
</linearGradient>
<linearGradient id="paint33_linear_1409_37848" x1="338.733" y1="39.9998" x2="41.1329" y2="169.066" gradientUnits="userSpaceOnUse">
<stop stop-color="#C4A767" stop-opacity="0"/>
<stop offset="1" stop-color="#C4A767"/>
</linearGradient>
<linearGradient id="paint34_linear_1409_37848" x1="338.733" y1="39.9998" x2="41.1329" y2="169.066" gradientUnits="userSpaceOnUse">
<stop stop-color="#C4A767" stop-opacity="0"/>
<stop offset="1" stop-color="#C4A767"/>
</linearGradient>
<linearGradient id="paint35_linear_1409_37848" x1="338.733" y1="39.9998" x2="41.1329" y2="169.066" gradientUnits="userSpaceOnUse">
<stop stop-color="#C4A767" stop-opacity="0"/>
<stop offset="1" stop-color="#C4A767"/>
</linearGradient>
<linearGradient id="paint36_linear_1409_37848" x1="338.733" y1="39.9998" x2="41.1329" y2="169.066" gradientUnits="userSpaceOnUse">
<stop stop-color="#C4A767" stop-opacity="0"/>
<stop offset="1" stop-color="#C4A767"/>
</linearGradient>
<linearGradient id="paint37_linear_1409_37848" x1="338.733" y1="39.9998" x2="41.1329" y2="169.066" gradientUnits="userSpaceOnUse">
<stop stop-color="#C4A767" stop-opacity="0"/>
<stop offset="1" stop-color="#C4A767"/>
</linearGradient>
<linearGradient id="paint38_linear_1409_37848" x1="338.733" y1="39.9998" x2="41.1329" y2="169.066" gradientUnits="userSpaceOnUse">
<stop stop-color="#C4A767" stop-opacity="0"/>
<stop offset="1" stop-color="#C4A767"/>
</linearGradient>
<linearGradient id="paint39_linear_1409_37848" x1="338.733" y1="39.9998" x2="41.1329" y2="169.066" gradientUnits="userSpaceOnUse">
<stop stop-color="#C4A767" stop-opacity="0"/>
<stop offset="1" stop-color="#C4A767"/>
</linearGradient>
</defs>
</svg>
