<svg width="271" height="108" viewBox="0 0 271 108" fill="none" xmlns="http://www.w3.org/2000/svg">
<path d="M142.745 -72.9619C140.745 -73.1187 138.832 -73.2309 137.091 -73.2537C138.873 -73.0998 140.7 -73.0323 142.745 -72.9619Z" fill="#C4A767" fill-opacity="0.03"/>
<path d="M136.873 -73.2565C136.96 -73.2118 137.091 -73.2536 137.177 -73.209L136.873 -73.2565Z" fill="#C4A767" fill-opacity="0.03"/>
<path d="M98.6132 -52.8262C100.92 -52.8394 103.617 -52.7605 106.445 -52.7234C117.973 -52.3545 132.958 -50.1995 148.348 -45.6457C160.834 -42.0439 170.266 -37.8293 177.614 -34.0338C184.351 -30.1158 189.706 -26.9121 193.456 -24.2083L193.629 -24.119C189.879 -26.8228 185.052 -30.4112 178.931 -34.8869C177.422 -35.9947 175.696 -37.1053 173.797 -38.3052C171.898 -39.5051 169.868 -40.6633 167.62 -41.8242C163.169 -44.2327 158.066 -46.6496 152.22 -48.9023C137.629 -54.5771 121.156 -56.1859 108.482 -55.3948C105.258 -55.089 102.296 -54.8667 99.7685 -54.6388C97.1521 -54.2379 94.7951 -53.7031 92.8761 -53.3802C91.0434 -53.0126 89.5595 -52.6839 88.5553 -52.4359C87.5511 -52.188 87.0714 -52.1073 87.0714 -52.1073C87.0714 -52.1073 89.0322 -52.2991 92.3849 -52.4292C94.0835 -52.5375 96.2619 -52.7265 98.6132 -52.8262Z" fill="#C4A767" fill-opacity="0.03"/>
<path d="M64.6611 -35.6468L64.3096 -35.3903C64.4854 -35.5185 64.6611 -35.6468 64.8787 -35.6439C64.7922 -35.6886 64.7922 -35.6886 64.6611 -35.6468Z" fill="#C4A767" fill-opacity="0.03"/>
<path d="M70.5607 -37.5276C72.7001 -38.0653 74.9232 -38.3407 77.322 -38.7444C82.0303 -39.3789 87.1291 -39.9213 92.6573 -40.0228C95.4884 -40.2032 98.3166 -40.1661 101.276 -40.1708C104.235 -40.1755 107.368 -40.0908 110.5 -40.0062C116.806 -39.7059 123.279 -38.8811 129.744 -37.4037C145.711 -33.7561 158.049 -28.8072 166.837 -25.2539C175.58 -21.6141 180.552 -19.1554 180.552 -19.1554C180.552 -19.1554 179.693 -20.037 177.928 -21.4963C176.163 -22.9556 173.405 -25.0371 169.694 -27.3923C162.139 -32.0609 150.51 -37.958 133.098 -40.9282C126.106 -42.0209 119.105 -42.4609 112.403 -42.4183C105.611 -42.2028 99.4719 -41.9787 93.6758 -41.3585C87.9243 -40.8247 82.6051 -40.0677 77.8075 -39.2603C73.9665 -38.3968 70.4771 -37.7898 67.2859 -36.7002L67.417 -36.742C68.4212 -36.9899 69.4254 -37.2379 70.5607 -37.5276Z" fill="#C4A767" fill-opacity="0.03"/>
<path d="M24.9415 6.48018C25.3377 6.13723 25.6892 5.88074 26.1272 5.6689C25.6892 5.88074 25.293 6.22368 24.9415 6.48018Z" fill="#C4A767" fill-opacity="0.03"/>
<path d="M24.9415 6.48018C24.7211 6.69488 24.5453 6.82313 24.3249 7.03783C24.5007 6.90958 24.7211 6.69488 24.9415 6.48018Z" fill="#C4A767" fill-opacity="0.03"/>
<path d="M26.1272 5.6689C26.1718 5.58244 26.3031 5.54059 26.3477 5.45414C26.2166 5.49594 26.1718 5.58244 26.1272 5.6689Z" fill="#C4A767" fill-opacity="0.03"/>
<path d="M23.3568 7.85195C23.6218 7.5508 23.9734 7.29433 24.3249 7.03783C24.1492 7.16608 23.9287 7.38076 23.7529 7.50901L23.3568 7.85195Z" fill="#C4A767" fill-opacity="0.03"/>
<path d="M19.7303 18.9017C20.0372 18.7317 20.2576 18.517 20.6091 18.2605C20.2576 18.517 19.775 18.8152 19.4235 19.0717L19.7303 18.9017Z" fill="#C4A767" fill-opacity="0.03"/>
<path d="M0.921875 49.3789C1.14514 48.9467 1.41306 48.428 1.63633 47.9957C1.45772 48.3415 1.32375 48.6009 1.14514 48.9467L0.921875 49.3789Z" fill="#C4A767" fill-opacity="0.03"/>
<path d="M2.08317 47.1312C1.94921 47.3905 1.81524 47.6499 1.68128 47.9093C1.81524 47.6499 1.90455 47.477 2.08317 47.1312Z" fill="#C4A767" fill-opacity="0.03"/>
<path d="M12.3339 35.3416C14.6216 33.4568 17.0851 31.4438 19.7186 29.7376C22.3074 28.1179 25.0303 26.2388 27.8338 24.8395C39.1848 18.7653 52.2117 14.3233 66.9618 11.2094C76.2141 9.19844 84.3673 8.04339 91.9095 7.01089C99.3625 6.15129 105.898 5.58429 111.387 5.13411C120.578 4.51491 126.806 4.11794 128.505 4.00967C127.935 4.26331 127.453 4.56161 126.884 4.81525L126.928 4.7288C126.928 4.7288 126.928 4.7288 126.884 4.81525C121.014 7.69749 115.276 10.5379 109.666 13.5541C105.853 15.6365 102.171 17.677 98.4882 19.7176C96.5302 19.6919 92.352 19.7241 86.1625 20.4697C81.8475 20.9789 76.439 21.9088 70.1071 23.5665C63.8616 25.2688 56.7791 27.7434 49.0239 31.7324C42.7167 34.8265 36.9642 38.7547 31.775 42.8644C29.2223 45.0503 26.7142 47.1498 24.3761 49.5561C21.9962 51.8314 19.9175 54.3717 17.8388 56.912C10.7153 65.8269 6.27182 76.126 4.15211 85.1065C6.31362 76.2571 10.9243 66.4824 17.8663 58.1309C25.8686 48.5748 36.3751 40.5312 48.546 34.99C55.9914 31.3886 62.9428 28.9558 69.0601 27.0777C70.6333 26.5761 72.0755 26.1164 73.6041 25.7012C75.0015 25.3279 76.399 24.9546 77.7965 24.5813C80.4604 23.8764 82.9486 23.2998 85.3056 22.765C89.8021 21.6925 93.4226 21.0437 95.8661 20.5536C96.6081 20.3892 97.3054 20.3114 97.7851 20.2306C94.3204 22.274 90.9002 24.231 87.653 26.2773C84.1435 28.4072 80.9381 30.5845 77.7773 32.6755C76.2402 33.7433 74.6166 34.7664 73.0794 35.8342C71.5422 36.902 70.0915 38.0144 68.6855 39.0404C65.8734 41.0924 63.2788 43.1472 60.8571 45.2914C60.8571 45.2914 60.8571 45.2914 60.8125 45.3778C58.2597 47.5638 55.838 49.7079 53.6786 51.7685C49.4043 55.8031 45.7856 59.6288 43.0428 63.0308C42.468 63.7195 41.9379 64.3218 41.4496 65.0552C41.2738 65.1835 41.2292 65.2699 41.0534 65.3982C40.3475 66.1288 39.2455 67.2022 37.9202 68.708C36.5948 70.2138 35.2638 72.1546 33.7542 74.4413C33.0426 75.6069 32.3281 76.9902 31.6137 78.3734C30.8992 79.7566 30.3995 81.3602 29.7686 83.0057C29.2299 84.2606 28.9506 85.6496 28.5848 86.9939C28.2637 88.2517 27.9425 89.5095 27.7525 90.7255C27.4589 93.2022 26.9506 95.4585 26.8802 97.503C26.4773 101.675 26.8696 104.945 26.7071 107.379L26.7489 107.51C26.8249 105.031 26.8231 101.854 27.6136 97.9913C28.2312 94.0392 29.683 89.5323 31.7931 84.5989C34.3972 78.497 37.3329 73.6614 39.1637 70.1169C40.1879 68.3461 40.9888 67.0075 41.5246 65.9701C42.0158 65.0191 42.4148 64.4586 42.4148 64.4586C42.4148 64.4586 42.1944 64.6733 41.8429 64.9298C42.2419 64.3693 42.7274 63.8535 43.2575 63.2512C44.7614 61.3996 46.5722 59.378 48.5141 57.3146C48.3802 57.574 48.1151 57.8751 47.8501 58.1763C47.2278 59.169 46.2093 60.5047 45.2269 62.4067C43.1339 66.0347 40.8452 71.314 39.6328 77.4777C39.2081 79.9962 38.8309 82.2107 38.7159 84.3416C38.6152 85.3847 38.5591 86.3414 38.4584 87.3845C38.4023 88.3412 38.4773 89.2561 38.4659 90.1263C38.3566 91.8221 38.5095 93.4343 38.4478 94.8261C38.4392 95.4787 38.386 96.2178 38.291 96.8259C38.2406 97.3474 38.1456 97.9554 37.967 98.3013C38.1456 97.9554 38.1959 97.4339 38.2463 96.9123C38.3413 96.3043 38.481 95.6098 38.5342 94.8707C38.7271 93.4371 38.7917 91.8278 39.1632 90.0484C39.3058 89.1364 39.4483 88.2244 39.6355 87.2259C39.8226 86.2274 40.0963 85.2736 40.3281 84.1887C40.5599 83.1038 40.7918 82.0188 41.1993 80.8057C41.5623 79.679 41.797 78.3765 42.291 77.2079C44.2425 71.0974 46.1797 66.0747 47.2714 62.477C48.3098 59.6184 48.8153 57.5797 48.9968 57.0163C50.5843 55.427 52.2165 53.7511 54.0662 52.0782C56.0052 50.2323 58.2065 48.3029 60.4942 46.4181C60.2738 46.6328 60.0952 46.9786 59.7854 47.3662C58.8563 48.529 57.6146 50.297 56.1496 52.4972C53.3061 56.9423 49.6531 63.3786 47.5087 70.9227C45.6883 76.9914 44.9671 82.2042 44.6507 86.4214C44.301 89.8547 44.3503 92.7276 44.146 95.0314C44.4368 92.7723 44.6914 89.9469 45.4344 86.3881C46.2306 82.0902 47.6492 76.7996 50.1222 70.7394C53.2233 63.2514 56.1343 56.9794 58.1076 52.5229C59.051 50.2723 59.8576 48.4986 60.3963 47.2437C60.7089 46.6385 60.8457 46.1616 61.0243 45.8158C63.5324 43.7163 66.3027 41.5332 69.1595 39.3948C70.5656 38.3688 72.1027 37.301 73.5535 36.1886C75.0906 35.1208 76.5831 34.1394 78.2514 33.0298C81.4122 30.9389 84.7487 28.7197 88.1271 26.6316C91.8122 24.3735 95.5839 22.1601 99.5284 20.0359C99.8771 19.997 100.008 19.9552 100.008 19.9552C100.008 19.9552 99.8771 19.997 99.7042 19.9077C103.08 18.0371 106.586 16.1248 110.093 14.2125C111.013 13.7023 112.065 13.1504 113.072 12.6849C112.453 13.4601 109.183 17.2468 104.62 23.3231C99.57 30.1328 93.0878 39.9264 87.6733 51.2572C83.2887 60.3821 80.5335 68.0487 78.6684 74.2039C77.7583 77.2382 77.0267 79.9268 76.3873 82.2249C76.2058 82.7882 76.0243 83.3516 75.8875 83.8285C75.7507 84.3054 75.6139 84.7823 75.4771 85.2592C75.3878 85.4321 75.3402 85.7362 75.2509 85.9091C75.3402 85.7362 75.4296 85.5632 75.5189 85.3904C75.8789 84.4812 76.1972 83.4409 76.6466 82.3588C77.3725 80.1054 78.3216 77.4197 79.5805 74.3464C81.9671 68.2416 85.5507 60.4553 90.6744 51.3837C97.0456 40.1089 102.917 30.4378 106.969 23.441C110.664 17.1357 112.891 13.2483 113.248 12.5567C117.541 10.3936 121.965 8.18867 126.39 5.98376C125.103 7.83818 122.528 11.7646 119.104 17.3335C117.946 19.3637 116.656 21.4357 115.32 23.8117C113.983 26.1876 112.602 28.6501 111 31.3272C110.285 32.7104 109.443 33.9179 108.642 35.2565C107.71 36.6368 106.688 38.1901 105.798 39.7015C104.908 41.213 104.018 42.7245 103.128 44.2359C102.324 45.7921 101.389 47.39 100.54 49.0326C94.9646 59.4038 90.9762 68.1858 87.9701 75.0658C85.3242 81.0366 83.348 85.7107 81.2246 88.3374C83.4345 85.7553 85.6253 81.3017 88.6617 75.423C92.234 68.5069 97.0062 59.6917 103.452 49.3319C105.367 46.0496 107.365 43.0295 109.232 40.0512C110.208 38.5844 111.14 37.2041 111.986 35.779C112.876 34.2676 113.853 32.8008 114.567 31.4175C117.511 25.9293 119.705 21.2581 121.628 17.3231C123.464 13.3435 124.854 10.2284 125.84 8.10896C126.244 7.11334 126.646 6.33527 126.828 5.77191C129.324 4.54264 131.908 3.35802 134.404 2.12875C137.556 0.690491 140.84 -0.789566 143.992 -2.22783C143.462 -1.62553 142.536 -0.680275 141.3 0.65258C139.182 2.84423 136.222 6.24335 132.728 10.4623C130.959 12.615 129.187 14.9853 127.326 17.5285C126.439 18.8224 125.507 20.2027 124.575 21.5831C123.729 23.0081 122.884 24.4332 121.994 25.9446C120.258 28.8811 118.564 31.9487 116.781 35.1892C115.042 38.3432 112.996 41.6673 110.862 45.1643C104.187 56.3915 98.4909 65.9344 94.5614 73.5421C90.5455 81.1051 88.1646 86.7748 85.5586 89.6999C88.0782 86.7301 90.7602 81.3255 95.4259 73.9886C99.9634 66.4759 106.485 57.0309 114.379 45.7762C116.731 42.2821 119.125 38.919 121.042 35.4192C122.87 32.0922 124.609 28.9382 126.3 26.0882C127.059 24.6185 127.905 23.1935 128.619 21.8103C129.42 20.4717 130.221 19.1331 131.064 17.9257C132.576 15.4215 134.044 13.0037 135.551 10.9346C140.169 3.90164 143.233 -0.758163 144.21 -2.22498C145.085 -2.64867 146.048 -3.0277 146.924 -3.45139C151.169 -5.31049 155.415 -7.16959 159.747 -8.98403C160.054 -9.15408 160.448 -9.27947 160.754 -9.44952C160.224 -8.84721 159.298 -7.90197 158.148 -6.52446C156.028 -4.11525 153.023 -0.629684 149.613 3.8515C146.117 8.28803 141.998 13.7173 137.871 19.7993C135.829 22.9058 133.742 26.0988 131.651 29.5093C129.606 32.8334 127.254 36.3276 124.812 39.9946C117.085 51.7738 110.859 61.9189 106.444 70.0425C104.304 73.9746 102.473 77.5191 100.69 80.7596C99.8861 82.3157 99.0852 83.6543 98.3289 84.9064C97.9299 85.4669 97.5756 85.9409 97.1765 86.5014C97.5309 86.0274 97.8406 85.6398 98.195 85.1657C98.9512 83.9136 99.8386 82.6197 100.729 81.1082C102.509 78.0853 104.644 74.5883 107.178 70.5308C112.332 62.4605 119.339 52.4996 128.284 40.6929C130.943 37.0288 133.644 33.4957 135.866 30.0434C137.956 26.6328 140.088 23.3534 142.086 20.3333C146.085 14.0756 149.637 8.68238 152.48 4.23728C156.97 -2.9714 160.037 -7.84875 161.017 -9.53312C164.911 -11.1357 168.76 -12.6519 172.654 -14.2545C175.455 -15.4362 178.211 -16.5315 181.009 -17.4958C179.547 -15.5131 176.441 -10.9844 172.529 -4.68201C169.816 -0.278717 166.744 5.03374 163.749 11.0435C162.186 14.0693 160.665 17.2262 159.186 20.5142C158.424 22.2014 157.707 23.8022 156.727 25.4866C155.748 27.1709 154.855 28.9 153.831 30.6708C147.326 42.2049 141.8 52.0546 137.343 60.047C135.158 64.0656 133.065 67.6937 131.195 70.8895C129.239 74.0407 127.593 76.8043 125.391 78.7337L125.171 78.9484C127.459 77.0636 129.105 74.3001 131.365 71.1964C133.453 68.0034 135.763 64.3782 138.339 60.4518C143.579 52.4261 150.062 42.6324 157.786 31.0708C158.941 29.2582 160.051 27.5321 161.162 25.8059C162.273 24.0797 163.21 22.2642 163.972 20.577C165.583 17.2472 167.017 14.0457 168.449 11.0617C171.226 5.04905 173.732 -0.227333 175.706 -4.68385C177.766 -9.09571 179.248 -12.6013 180.28 -15.0248C180.774 -16.1933 181.134 -17.1024 181.447 -17.7076C182.803 -18.212 184.158 -18.7165 185.472 -19.352C186.435 -19.731 187.311 -20.1547 188.273 -20.5338C188.092 -19.9704 187.642 -18.8883 186.88 -17.2011C185.847 -14.7776 184.324 -11.4032 182.44 -7.11955C178.761 1.27477 173.558 13.0436 167.368 27.1494C158.715 46.4451 149.521 60.642 142.308 69.7298C143.323 68.6117 144.297 67.3624 145.402 66.0713C147.618 63.0541 150.62 59.7861 153.282 55.9044C158.996 48.233 165.258 38.6541 171.543 27.3347C179.212 13.3353 183.592 1.25114 185.792 -7.24963C186.892 -11.5 187.677 -14.9277 188.013 -17.2733C188.253 -19.0109 188.354 -20.054 188.404 -20.5756C191.336 -21.7991 194.137 -22.9809 197.027 -24.3355C196.801 -23.6857 196.485 -22.863 196.122 -21.7363C195.265 -19.4411 193.959 -16.0638 192.468 -11.9055C191.614 -9.82786 190.712 -7.44617 189.766 -4.97803C188.82 -2.50989 187.915 0.0893555 187.053 2.8197C185.196 8.3222 183.245 14.4327 181.287 20.9783C180.469 23.6222 179.523 26.0904 178.794 28.5614C177.848 31.0295 176.947 33.4112 176.003 35.6618C174.203 40.2076 172.322 44.2737 170.488 48.0357C166.692 55.384 162.521 61.5525 157.644 65.057L157.424 65.2717C162.3 61.7672 166.904 55.822 171.615 48.3987C173.97 44.687 176.289 40.409 178.742 35.8718C179.948 33.5376 181.153 31.2034 182.362 28.6517C183.439 26.1418 184.692 23.5036 185.859 20.8207C188.558 14.1108 190.596 8.04492 192.149 2.49492C194.139 -3.26693 195.337 -8.34289 196.13 -12.4232C196.924 -16.5036 197.271 -19.7194 197.43 -21.9367C197.531 -22.9799 197.542 -23.8501 197.551 -24.5027C197.727 -24.631 197.944 -24.6281 198.12 -24.7564C200.399 -25.9885 202.634 -27.1342 204.868 -28.2799C204.818 -27.7583 204.723 -27.1503 204.67 -26.4112C204.379 -24.152 203.901 -20.8944 203.194 -16.7694C202.442 -12.558 201.423 -7.82783 199.871 -2.27782C199.094 0.497177 198.229 3.44508 197.187 6.52123C196.688 8.12486 196.101 9.68384 195.602 11.2875C195.102 12.8911 194.778 14.3665 194.278 15.9701C191.447 26.1163 188.067 34.9932 184.143 42.1658C180.174 49.4249 175.487 55.1078 171.043 58.8356L170.822 59.0503C175.18 55.2779 180.386 49.8628 185.183 42.4841C187.625 38.8171 189.941 34.7567 192.218 30.3477C193.379 28.1 194.454 25.8076 195.531 23.2977C196.07 22.0427 196.564 20.8742 197.147 19.5328C197.46 18.9276 197.599 18.2332 197.957 17.5415C198.314 16.8499 198.671 16.1583 199.028 15.4667C202.472 8.37486 204.427 2.04679 205.499 -3.42247C206.53 -9.02284 206.682 -13.982 206.603 -17.8562C206.437 -21.775 205.997 -24.7401 205.632 -26.7902C205.468 -27.5322 205.345 -28.1431 205.264 -28.6228C206.754 -29.3866 208.157 -30.195 209.56 -31.0035C209.867 -31.1735 210.219 -31.43 210.526 -31.6001C210.562 -31.0339 210.681 -30.2054 210.754 -29.073C210.87 -28.027 210.984 -26.7635 211.14 -25.3688C211.251 -23.8878 211.318 -22.3202 211.468 -20.4905C211.637 -16.7892 211.666 -12.3934 211.556 -7.30318C211.435 -4.73717 211.27 -2.0847 211.057 0.871765C210.951 2.35 210.758 3.78358 210.52 5.30361C210.283 6.82365 210.09 8.25723 209.807 9.86371C208.872 14.8561 207.548 19.5387 205.661 24.0399C204.718 26.2905 203.733 28.4099 202.616 30.5712C201.851 32.476 201.218 34.339 200.456 36.0262C197.363 42.8616 193.766 48.3412 190.407 52.3008L190.318 52.4737C193.632 48.6006 197.751 43.1713 201.714 36.3473C202.16 35.4828 202.738 34.5765 203.184 33.712C203.408 33.2798 203.807 32.7193 204.161 32.2452C204.56 31.6847 204.914 31.2106 205.227 30.6055C206.692 28.4053 208.07 26.1604 209.276 23.8262C211.818 19.1161 213.884 14.2691 215.35 8.67442C218.921 -4.813 217.05 -14.7598 215.008 -21.619C213.38 -26.9496 211.596 -30.2805 210.872 -31.4215C212.319 -32.3163 213.636 -33.1694 215.084 -34.0643C216.406 -35.3525 218.248 -36.3728 219.919 -37.7C221.545 -38.9406 223.258 -40.1367 224.84 -41.2909C225.674 -41.8457 226.422 -42.4452 227.301 -43.0864C228.048 -43.6859 228.841 -44.3718 229.588 -44.9712C232.537 -47.5001 235.528 -49.8979 238 -52.5636C239.322 -53.8518 240.6 -55.0536 241.836 -56.3864C243.028 -57.6328 244.177 -59.0103 245.282 -60.3014C254.25 -70.4541 259.948 -80.2145 263.172 -87.0916C264.74 -90.5526 265.865 -93.3665 266.499 -95.2295C267.133 -97.0925 267.406 -98.0463 267.406 -98.0463C267.632 -98.6961 267.426 -99.5692 266.86 -99.5331C266.642 -99.5359 266.336 -99.3659 266.07 -99.0647C265.85 -98.85 265.716 -98.5907 265.537 -98.2449C265.537 -98.2449 265.535 -98.0273 265.398 -97.5504C265.261 -97.0735 265.035 -96.4237 264.761 -95.4699C264.488 -94.5161 264.038 -93.434 263.455 -92.0926C262.872 -90.7511 262.199 -89.2368 261.523 -87.5049C258.344 -80.7142 252.822 -71.0821 244.03 -61.0576C242.925 -59.7666 241.82 -58.4755 240.629 -57.2291C239.437 -55.9827 238.16 -54.781 236.837 -53.4928C235.381 -51.9452 233.707 -50.4005 231.991 -48.9869C231.952 -49.3356 231.913 -49.6842 231.832 -50.164C231.596 -52.0384 231.106 -54.4819 230.058 -57.5419C227.918 -63.5756 223.622 -71.1607 216.531 -77.9991C215.156 -79.3662 213.782 -80.7333 212.449 -81.9694C211.116 -83.2054 209.694 -84.2685 208.489 -85.3287C205.862 -87.4521 203.671 -89.5697 201.56 -91.2076C197.252 -94.5281 193.763 -97.3155 191.443 -99.6089L191.27 -99.6982C193.721 -97.4466 196.858 -94.4027 200.767 -90.5217C202.744 -88.6245 204.585 -86.2503 206.815 -83.784C207.93 -82.5509 209.046 -81.3177 210.245 -79.8223C211.357 -78.3716 212.425 -76.8345 213.579 -75.2527C219.398 -67.6476 223.962 -60.5812 227.159 -55.5346C228.693 -52.9904 230.014 -50.8842 230.778 -49.3945C230.99 -48.9565 231.16 -48.6497 231.33 -48.3428C230.362 -47.5287 229.394 -46.7145 228.381 -45.8139C227.633 -45.2145 226.927 -44.4839 226.18 -43.8845C225.432 -43.285 224.598 -42.7302 223.85 -42.1308C222.62 -41.233 221.389 -40.3353 220.114 -39.3511C220.221 -40.8293 220.314 -44.6142 219.116 -49.504C218.331 -52.6477 216.985 -56.1903 214.944 -59.8727C212.817 -63.5997 209.906 -67.2934 206.253 -70.8229C200.323 -76.5146 194.413 -80.5523 189.623 -83.5745C187.16 -84.9559 184.96 -86.4209 182.93 -87.579C180.855 -88.6507 179.171 -89.6302 177.79 -90.5622L177.617 -90.6515C179.084 -89.6748 180.768 -88.6953 182.668 -87.4954C184.522 -86.209 186.633 -84.5711 188.917 -82.8439C193.222 -79.3059 198.297 -74.7134 203.176 -68.4697C209.299 -60.8171 213.467 -53.4078 216.223 -47.9318C218.342 -43.5521 219.563 -40.4028 219.939 -39.2228C219.632 -39.0528 219.367 -38.7516 219.06 -38.5816C217.433 -37.3409 215.679 -36.276 213.879 -35.1246C213.221 -34.698 212.563 -34.2715 211.818 -33.8896C210.862 -37.3401 209.134 -41.6276 206.241 -46.6267C203.132 -51.8462 198.596 -57.6937 192.06 -63.698C188.148 -67.3614 183.795 -70.5954 179.868 -73.171C175.856 -75.7913 172.356 -77.7085 169.115 -79.4918C168.337 -79.8936 167.604 -80.382 166.912 -80.7392C166.221 -81.0964 165.529 -81.4536 164.879 -81.6798C163.624 -82.2184 162.587 -82.7543 161.722 -83.2008C160.035 -83.9628 159.171 -84.4093 158.908 -84.3257C158.908 -84.3257 159.299 -84.2335 159.555 -83.882C159.943 -83.5723 160.459 -83.0868 161.147 -82.5121C161.836 -81.9373 162.784 -81.2285 163.819 -80.4751C164.379 -80.0761 164.94 -79.6771 165.587 -79.2334C166.189 -78.7033 166.836 -78.2596 167.438 -77.7295C170.196 -75.6479 173.515 -73.1673 177.048 -70.4663C180.667 -67.7207 184.674 -64.6653 188.938 -61.2584C192.426 -58.471 195.483 -55.9068 198.104 -53.3483C200.725 -50.7898 203 -48.41 204.84 -46.0358C208.437 -41.5497 210.82 -37.4712 211.731 -33.9342C210.59 -33.2094 209.58 -32.5264 208.439 -31.8015C207.781 -31.375 207.081 -31.0795 206.423 -30.653C206.133 -31.7883 204.96 -35.2416 201.932 -39.9814C200.011 -42.8353 197.53 -46.0882 194.223 -49.4391C192.592 -51.1577 190.698 -52.7927 188.677 -54.6035C187.687 -55.4434 186.566 -56.2414 185.489 -57.1259C184.368 -57.9239 183.292 -58.8084 182.04 -59.5647C180.141 -60.7646 178.2 -62.0956 176.301 -63.2956C174.402 -64.4955 172.545 -65.5643 170.86 -66.5438C169.176 -67.5233 167.36 -68.4611 165.804 -69.2648C165.372 -69.4881 165.071 -69.7532 164.463 -69.8482C163.899 -70.0296 163.291 -70.1247 162.814 -70.2615C161.73 -70.4933 160.558 -70.7698 159.473 -71.0016C157.479 -71.5935 155.131 -71.7114 153.089 -71.9993C151.048 -72.2872 149.092 -72.5304 147.224 -72.729C145.614 -72.7937 144.136 -72.9002 142.745 -72.9619C147.439 -72.5087 152.693 -71.6563 158.198 -70.0174C160.192 -69.4255 162.142 -68.7471 164.133 -67.9377L165.692 -67.3515C166.124 -67.1282 166.425 -66.8631 166.858 -66.6399C167.591 -66.1516 168.411 -65.6186 169.186 -64.9991C172.29 -62.7389 175.65 -60.1273 179.049 -57.1669C180.126 -56.2824 181.157 -55.3115 182.102 -54.3852C183.134 -53.4142 184.169 -52.6608 185.028 -51.7792C186.832 -49.9712 188.683 -48.4673 190.359 -46.8351C193.8 -43.7437 196.633 -40.7472 199.126 -38.3645C203.077 -34.3525 205.65 -31.49 206.423 -30.653C205.809 -30.3129 205.24 -30.0592 204.626 -29.7192L204.584 -29.8503L204.54 -29.7638C202.743 -28.83 200.947 -27.8961 199.15 -26.9623C197.906 -28.3712 196.404 -29.9141 194.644 -31.8085C192.885 -33.7029 190.866 -35.7312 188.635 -38.1976C184.04 -42.8708 178.24 -48.6044 171.052 -54.6172C170.751 -54.8823 170.536 -55.1027 170.19 -55.2813L169.197 -55.9036C168.55 -56.3473 167.772 -56.7492 167.081 -57.1064C165.611 -57.8655 164.228 -58.5799 162.758 -59.339C159.861 -60.7261 156.829 -61.8539 153.971 -62.8923C148.078 -64.841 142.263 -66.0923 137.005 -66.727C134.397 -66.9788 132.052 -67.3143 129.921 -67.4293C127.745 -67.4578 125.787 -67.4835 124.22 -67.417C121.129 -67.3706 119.344 -67.307 119.344 -67.307C119.344 -67.307 120.864 -67.0694 123.469 -66.6C124.772 -66.3653 126.378 -66.0832 128.289 -65.7535C130.068 -65.382 132.107 -64.8765 134.405 -64.2371C143.427 -61.9863 154.948 -57.7878 166.881 -51.8433C168.091 -51.2181 169.215 -50.6376 170.339 -50.0571C171.418 -49.3902 172.673 -48.8515 173.449 -48.2321C175.172 -46.9039 176.94 -45.6622 178.535 -44.5097C181.767 -42.0738 184.739 -39.7718 187.366 -37.6485C192.706 -33.3571 196.579 -30.0424 199.153 -27.1799L199.239 -27.1352C198.494 -26.7533 197.881 -26.4132 197.136 -26.0313C193.194 -24.1247 189.038 -22.4385 184.923 -20.6212C180.636 -18.8932 176.393 -17.2517 172.105 -15.5237C170.312 -14.8074 168.518 -14.0912 166.68 -13.2884C166.206 -13.6428 165.344 -14.3069 164.005 -15.1078C161.934 -16.397 158.738 -18.2667 154.237 -20.1536C145.365 -23.9691 131.32 -28.1571 112.053 -29.0192C96.5228 -29.4842 82.317 -28.0604 70.0579 -25.7408C57.7987 -23.4211 47.4415 -20.119 39.7034 -17.4354L39.3101 -17.31C47.1793 -20.0354 57.2686 -22.8188 69.0841 -24.4915C80.8995 -26.1642 94.4412 -26.7263 109.134 -25.489C127.13 -23.8603 141.71 -20.7097 151.597 -18.0123C159.576 -15.8622 164.73 -13.9668 166.376 -13.3359C163.968 -12.2796 161.519 -11.3543 159.112 -10.2979C156.049 -9.03257 153.072 -7.72256 150.096 -6.41254C149.187 -6.77262 144.471 -8.87989 136.277 -11.2504C131.681 -12.5292 125.91 -13.867 119.005 -14.915C112.141 -15.832 103.617 -16.292 94.0305 -15.3298C78.6059 -13.8785 64.9017 -10.8815 53.1024 -7.11973C47.2027 -5.23882 41.7352 -3.13462 36.8312 -0.848976C34.4238 0.20739 32.0135 1.48132 29.8208 2.75809C28.5934 3.43829 27.4524 4.16312 26.2667 4.97442C27.2766 4.29137 28.373 3.65298 29.4693 3.01459C31.6173 1.82426 34.0276 0.550323 36.3903 -0.419594C41.2915 -2.48769 46.5804 -4.24605 52.3014 -5.78116C63.7436 -8.85136 77.043 -10.8528 91.7618 -11.5735C100.994 -12.0616 108.823 -11.7412 115.821 -11.0837C122.819 -10.4261 128.944 -9.56236 134.07 -8.88583C139.152 -8.12284 143.235 -7.54703 146.057 -7.0748C148.186 -6.74224 149.619 -6.54935 150.096 -6.41254C148.827 -5.86346 147.644 -5.26972 146.375 -4.72063C143.705 -3.58067 141.122 -2.39606 138.539 -1.21143C136.849 -1.75584 132.384 -3.07647 125.219 -4.25847C116.057 -5.81483 102.544 -7.42829 84.893 -5.484C70.729 -3.92914 57.9369 -0.789597 46.9155 3.3741C36.2875 7.4124 27.2964 12.7342 20.3972 17.8224C27.2517 12.8207 36.0614 8.06223 46.1564 4.84377C56.8205 1.37169 69.035 -0.861542 82.4931 -1.68585C99.1727 -2.59843 113.093 -2.19814 123.14 -1.71815C130.665 -1.44532 135.97 -1.11459 138.101 -0.999588C136.656 -0.322258 135.124 0.310425 133.635 1.07421C131.883 1.92159 130.131 2.76898 128.424 3.52991C127.902 3.47955 126.6 3.24485 124.6 3.08805C121.906 2.79158 117.951 2.39153 112.774 2.23656C107.597 2.08158 101.244 2.08524 93.8382 2.64083C86.3434 3.36932 77.8863 4.47685 68.4107 6.9201C53.2587 10.812 39.6989 16.0739 28.1635 22.929C26.7157 23.8239 25.3125 24.6323 23.951 25.5718C22.5896 26.5114 21.2282 27.4509 19.8668 28.3905C17.1887 30.1831 14.7224 32.4137 12.39 34.3849C10.013 36.4426 7.89249 38.8519 5.90594 41.0017C4.80103 42.2928 3.78256 43.6284 2.85055 45.0088C3.69325 43.8014 4.66707 42.5521 5.59622 41.3893C7.92572 39.6356 10.0434 37.444 12.3339 35.3416Z" fill="#C4A767" fill-opacity="0.03"/>
<path d="M2.83933 45.8792C2.52962 46.2668 2.26169 46.7855 2.03842 47.2177C2.30634 46.699 2.61607 46.3114 2.83933 45.8792Z" fill="#C4A767" fill-opacity="0.03"/>
<path d="M3.14923 45.4915C3.05992 45.6644 3.01527 45.7509 2.92596 45.9238C3.01527 45.7509 3.10458 45.578 3.14923 45.4915Z" fill="#C4A767" fill-opacity="0.03"/>
<path d="M12.6007 48.1831C12.7347 47.9237 12.9551 47.709 13.0444 47.5361C12.8686 47.6644 12.7347 47.9237 12.6007 48.1831Z" fill="#C4A767" fill-opacity="0.03"/>
<path d="M11.7107 49.6945C11.8446 49.4351 11.9786 49.1758 12.1572 48.83C12.0679 49.0029 11.9786 49.1758 11.8893 49.3487L11.7107 49.6945Z" fill="#C4A767" fill-opacity="0.03"/>
<path d="M13.3565 46.9312C13.2672 47.104 13.1779 47.277 13.0021 47.4052C13.0914 47.2323 13.2254 46.9729 13.4011 46.8447L13.3565 46.9312Z" fill="#C4A767" fill-opacity="0.03"/>
<path d="M20.2845 39.6673C22.045 38.1673 23.85 36.5808 25.8252 35.3011C27.845 33.935 29.8647 32.569 32.0574 31.2922C34.2054 30.1019 36.4846 28.8697 38.8055 27.7687C41.2129 26.7123 43.5756 25.7424 46.0248 24.8171C48.5158 24.023 51.0932 23.2735 53.7571 22.5686C56.3764 21.9502 59.1713 21.2036 62.0081 20.588C76.0163 17.6385 88.1386 15.7957 96.8162 14.4735C105.449 13.2377 110.768 12.4807 110.768 12.4807C110.768 12.4807 109.594 12.4218 107.377 12.2621C105.201 12.2336 101.938 12.1907 97.8461 12.2676C89.5733 12.5942 77.7245 13.4831 63.2698 17.2971C60.3437 18.0856 57.5488 18.8323 54.7956 19.71C52.087 20.5013 49.3756 21.5102 46.8818 22.5219C41.6319 24.6289 36.8114 27.1768 32.3786 30.0343C27.9903 32.8055 23.9897 35.8863 20.466 39.1039C18.7056 40.604 17.1152 42.4109 15.6141 44.0449C14.8636 44.8619 14.1995 45.7236 13.5354 46.5852C13.4907 46.6717 13.4458 46.7583 13.4011 46.8447C14.0652 45.983 14.685 45.2077 15.4355 44.3907C16.9366 42.7567 18.5688 41.0809 20.2845 39.6673Z" fill="#C4A767" fill-opacity="0.03"/>
<path d="M3.5404 88.6235C3.68578 87.494 3.96227 86.3226 4.23875 85.1512C3.87296 86.4955 3.63828 87.798 3.40359 89.1004L3.5404 88.6235Z" fill="#C4A767" fill-opacity="0.03"/>
<path d="M23.2565 61.9008C24.2721 60.7827 25.3741 59.7092 26.4344 58.5046C27.5811 57.3446 28.7278 56.1847 29.961 55.0694C34.7235 50.3013 40.4314 46.4595 46.4014 42.5342C56.0984 36.4818 64.5005 32.9365 71.3655 30.459C73.0698 29.9156 74.6877 29.3276 76.261 28.826C77.7896 28.4109 79.2317 27.9511 80.6292 27.5778C83.2931 26.873 85.6501 26.3382 87.6556 26.0598L87.8732 26.0627C83.904 26.7504 78.6266 27.6386 71.8567 29.5081C65.0868 31.3775 56.6961 34.0526 46.7036 39.4048C40.4799 42.7611 34.6828 46.7758 29.6133 51.7139C24.5467 56.4344 20.3447 61.6015 17.2304 66.7829C16.4295 68.1214 15.7597 69.4182 15.1345 70.6285C14.5094 71.8389 13.8842 73.0492 13.3902 74.2177C12.4021 76.5547 11.5062 78.5013 10.9171 80.2778C9.78368 83.7444 9.19177 85.7385 9.19177 85.7385C9.19177 85.7385 9.95373 84.0513 11.2572 80.8915C11.8434 79.3326 12.954 77.6064 14.0257 75.5316C15.0974 73.4567 16.5177 71.343 18.072 68.9699C18.4711 68.4094 18.8283 67.7177 19.2273 67.1572C19.6263 66.5967 20.1565 65.9944 20.5555 65.4339C21.3535 64.3129 22.2827 63.1501 23.2565 61.9008Z" fill="#C4A767" fill-opacity="0.03"/>
<path d="M63.093 40.7512C64.4515 40.0292 65.7654 39.3937 66.8618 38.7553C67.9999 38.248 68.9205 37.7379 69.6653 37.356C71.1996 36.5057 72.0755 36.0821 72.0755 36.0821C72.0755 36.0821 71.2471 36.2017 69.805 36.6615C68.2764 37.0766 66.1369 37.6143 63.2944 38.665C57.7852 40.638 49.7764 44.0579 40.9382 50.9919C33.8575 56.6435 28.1601 63.0095 24.1613 69.2672C20.1178 75.6113 17.6448 81.6715 16.1455 86.4824L16.0562 86.6553C16.8267 84.3154 17.7341 81.4986 19.2048 78.8633C19.9192 77.48 20.5919 75.9657 21.5239 74.5854C22.4559 73.205 23.3461 71.6935 24.4092 70.2714C28.5752 64.5381 34.2641 58.8248 41.2469 53.9988C49.7697 47.8875 57.5276 43.681 63.093 40.7512Z" fill="#C4A767" fill-opacity="0.03"/>
<path d="M51.5392 52.3061C53.4307 50.7643 55.1854 49.6993 56.2846 48.8434C57.3838 47.9874 58.0422 47.5609 58.0422 47.5609C58.0422 47.5609 55.6405 48.1821 51.5231 50.217C47.4474 52.383 41.5249 56.0043 35.5177 62.7579C34.3235 64.2219 33.2186 65.5129 32.1555 66.9351C31.1788 68.4019 30.1604 69.7376 29.3148 71.1626C28.4692 72.5876 27.7101 74.0573 27.0403 75.3541C26.2394 76.6926 25.6561 78.0341 25.0728 79.3755C24.4894 80.7169 23.9507 81.9719 23.5431 83.185C23.222 84.4429 22.8144 85.6561 22.4515 86.7828C21.7256 89.0362 21.4377 91.0778 20.9797 92.8125L20.8904 92.9854C21.2619 91.206 21.6363 89.2091 22.4486 87.0003C22.8115 85.8736 23.2609 84.7915 23.6685 83.5784C24.0761 82.3652 24.743 81.286 25.3682 80.0757C26.6185 77.655 28.1728 75.2819 29.9475 72.6941C31.764 70.2374 33.798 67.7835 36.2226 65.4218C42.1736 59.6249 47.5832 55.3005 51.5392 52.3061Z" fill="#C4A767" fill-opacity="0.03"/>
<path d="M37.8388 98.1256L37.8834 98.0392C37.7523 98.081 37.8388 98.1256 37.8388 98.1256Z" fill="#C4A767" fill-opacity="0.03"/>
<path d="M43.6579 95.7647C43.7501 95.3743 43.7976 95.0703 43.8033 94.6352C43.7976 95.0703 43.7054 95.4607 43.6579 95.7647Z" fill="#C4A767" fill-opacity="0.03"/>
<path d="M43.6523 96.1999C43.697 96.1135 43.6999 95.8959 43.7445 95.8095C43.6999 95.8959 43.7416 96.027 43.697 96.1135L43.6523 96.1999Z" fill="#C4A767" fill-opacity="0.03"/>
<path d="M68.3938 44.6941C69.6441 42.2734 70.54 40.3268 71.2098 39.0301C71.7931 37.6887 72.1504 36.9971 72.1504 36.9971C72.1504 36.9971 71.5756 37.6858 70.4707 38.9769C69.3658 40.2679 67.9483 42.1641 66.2629 44.5791C62.8921 49.4089 58.7954 56.4922 56.6871 64.6025C54.861 71.1063 55.1858 76.2023 55.0898 80.2047C55.237 82.252 54.8208 84.1178 54.8873 85.6854C54.7894 86.511 54.6498 87.2054 54.5965 87.9445C54.5433 88.6837 54.5348 89.3363 54.4844 89.8579L54.4397 89.9444C54.5348 89.3363 54.5433 88.6837 54.6383 88.0757C54.778 87.3812 54.9623 86.6003 55.1466 85.8194C55.331 85.0384 55.2559 84.1236 55.5296 83.1697C55.8032 82.2159 55.9039 81.1728 56.0047 80.1297C56.5833 75.8289 57.2181 70.5715 59.6522 64.1627C62.6278 56.2814 65.9379 49.4489 68.3938 44.6941Z" fill="#C4A767" fill-opacity="0.03"/>
<path d="M70.0684 59.6863C74.8045 50.3049 79.437 42.1842 82.6881 36.526C85.9839 30.7813 87.7253 27.4097 87.7253 27.4097C87.7253 27.4097 86.9748 28.2267 85.6495 29.7324C84.4106 31.2828 82.597 33.522 80.5154 36.2799C76.3941 41.9267 70.9778 50.0806 67.2402 59.6492C64.1809 67.2683 62.617 73.6886 61.8541 78.7702C61.0911 83.8519 61.3047 87.4667 60.9665 90.0299L60.9218 90.1163C61.2601 87.5532 61.3951 83.8994 62.5932 78.8234C63.9224 73.7057 66.27 67.2522 70.0684 59.6863Z" fill="#C4A767" fill-opacity="0.03"/>
<path d="M91.9139 29.9017C87.3043 36.282 81.3522 45.4733 76.73 56.1182C72.9621 64.6854 70.8652 71.9255 69.6167 77.5231C68.3236 83.207 68.0965 87.2513 67.0609 89.8923L67.0162 89.9787C68.0072 87.4242 68.4519 83.3828 70.3112 77.6627C72.1259 72.0291 75.0065 64.7558 79.5583 56.1553C85.1371 45.5665 90.4783 36.4977 94.0895 29.9303C97.7425 23.4939 99.8383 19.6483 99.8383 19.6483C99.8383 19.6483 99.0431 20.5517 97.5839 22.3168C96.2975 24.1713 94.2188 26.7116 91.9139 29.9017Z" fill="#C4A767" fill-opacity="0.03"/>
<path d="M75.0335 85.9061C74.8549 86.2519 74.6763 86.5977 74.5423 86.8571C74.7209 86.5113 74.8549 86.2519 75.0335 85.9061Z" fill="#C4A767" fill-opacity="0.03"/>
<path d="M75.0783 85.8197L75.0335 85.9061C75.0782 85.8197 75.0783 85.8197 75.0783 85.8197Z" fill="#C4A767" fill-opacity="0.03"/>
<path d="M74.1433 87.4178C74.2326 87.2449 74.3665 86.9855 74.5869 86.7708C74.453 87.0302 74.319 87.2895 74.0986 87.5042L74.1433 87.4178Z" fill="#C4A767" fill-opacity="0.03"/>
<path d="M79.9497 89.3217C79.9943 89.2353 79.9943 89.2353 80.1254 89.1935C80.0808 89.28 79.905 89.4082 79.8604 89.4946L79.9497 89.3217Z" fill="#C4A767" fill-opacity="0.03"/>
<path d="M85.4721 89.6553C85.4274 89.7418 85.4274 89.7418 85.3828 89.8282L85.4721 89.6553Z" fill="#C4A767" fill-opacity="0.03"/>
<path d="M96.5156 87.1455C96.471 87.232 96.2952 87.3602 96.2506 87.4467C96.4264 87.3184 96.471 87.232 96.5156 87.1455Z" fill="#C4A767" fill-opacity="0.03"/>
<path d="M96.7804 86.8444L96.825 86.7579C96.7357 86.9308 96.6046 86.9726 96.5599 87.0591C96.691 87.0173 96.7357 86.9308 96.7804 86.8444Z" fill="#C4A767" fill-opacity="0.03"/>
<path d="M95.6339 88.0044C95.6786 87.9179 95.6786 87.9179 95.8097 87.8761C95.6786 87.9179 95.6339 88.0044 95.4582 88.1326L95.6339 88.0044Z" fill="#C4A767" fill-opacity="0.03"/>
<path d="M141.366 38.6887C142.653 36.8343 143.766 34.8906 144.793 32.9022C145.731 31.0867 146.624 29.3577 147.517 27.6287C149.303 24.1706 151.086 20.9302 152.78 17.8626C156.299 11.6856 159.375 6.15556 162.045 1.62115C164.629 -2.9579 166.722 -6.58598 168.235 -9.09022C169.661 -11.6391 170.462 -12.9777 170.462 -12.9777C170.462 -12.9777 169.312 -11.6002 167.278 -9.14629C165.244 -6.69243 162.412 -3.11755 159.089 1.40829C155.766 5.93412 152.038 11.4556 148.256 17.7161C146.345 20.7809 144.603 24.1525 142.773 27.697C141.879 29.426 141.073 31.1997 140.222 33.0598C139.775 33.9243 139.504 34.6606 139.013 35.6115C138.567 36.476 137.989 37.3824 137.498 38.3333C134.026 44.2063 130.343 49.6413 127.273 54.7362C124.031 59.7418 121.315 64.3627 118.782 68.4202C116.334 72.5223 114.241 76.1504 112.285 79.3016C110.374 82.3663 108.727 85.1299 106.833 86.8893L106.657 87.0175C108.638 85.3028 110.284 82.5392 112.369 79.5638C114.587 76.329 116.984 72.7484 119.646 68.8667C122.484 64.8567 125.721 60.2862 129.398 55.2863C133.034 50.1553 137.153 44.726 141.366 38.6887Z" fill="#C4A767" fill-opacity="0.03"/>
<path d="M138.949 73.6895C138.993 73.603 139.038 73.5166 139.169 73.4748C139.169 73.4748 139.169 73.4747 139.124 73.5612L138.949 73.6895Z" fill="#C4A767" fill-opacity="0.03"/>
<path d="M142.221 69.6852C141.072 71.0627 140.011 72.2673 139.082 73.4302C140.098 72.312 141.158 71.1074 142.221 69.6852Z" fill="#C4A767" fill-opacity="0.03"/>
<path d="M232.865 -16.1188C230.091 -20.2895 227.35 -23.6764 224.994 -26.536C220.369 -32.2106 217.104 -35.4303 217.104 -35.4303C217.104 -35.4303 218.572 -31.2768 221.574 -24.579C223.054 -21.2957 225.047 -17.3094 227.383 -12.9269C228.228 -10.9574 228.408 -8.12637 228.282 -5.12525C228.287 -2.16592 227.895 1.13634 227.414 4.61153C226.559 10.0836 225.099 15.2432 223.337 20.1377C222.478 22.6505 221.49 24.9875 220.415 27.2799C219.341 29.5723 218.182 31.6024 216.98 33.7191C214.532 37.8212 211.915 41.6165 209.13 44.8874C208.821 45.275 208.466 45.749 208.07 46.092C207.629 46.5214 207.582 46.8254 207.403 47.1712C206.959 47.8181 206.602 48.5098 206.203 49.0703C205.36 50.2777 204.562 51.3987 203.764 52.5197L203.675 52.6926C204.428 51.6581 205.313 50.5817 206.2 49.2878C206.644 48.6409 207.088 47.9939 207.531 47.3469L207.841 46.9593C207.93 46.7864 208.02 46.6135 208.24 46.3988C208.681 45.9694 208.991 45.5818 209.431 45.1524C212.523 41.7115 215.706 37.8801 218.72 33.7419C219.473 32.7074 220.271 31.5863 220.938 30.5071C221.65 29.3415 222.362 28.1758 223.073 27.0101C224.455 24.5477 225.836 22.0853 227.044 19.5335C228.253 16.9818 229.42 14.299 230.413 11.5268C231.452 8.66822 232.317 5.72031 232.965 2.76955C233.753 -0.875664 234.32 -4.30619 234.319 -7.48307C234.448 -10.7017 234.226 -13.6639 232.865 -16.1188Z" fill="#C4A767" fill-opacity="0.03"/>
<path d="M247.661 -12.7479C244.007 -22.8486 236.559 -28.9954 231.083 -32.8099C225.388 -36.6272 221.275 -38.2044 221.275 -38.2044C221.275 -38.2044 223.935 -35.2972 228.005 -30.4568C232.031 -25.5298 237.641 -18.5803 242.397 -9.55305C244.22 -5.87356 245.608 -2.19978 246.388 1.37897C247.167 4.95773 247.423 8.70368 246.987 12.0924C247.009 13.7464 246.551 15.4811 246.182 17.043C245.769 18.6913 245.4 20.2531 244.99 21.6838C243.731 24.7571 242.475 27.6129 241.269 29.947L241.18 30.1199C242.385 27.7858 243.728 24.9747 245.338 21.6449C245.924 20.0859 246.511 18.5269 247.1 16.7504C247.689 14.9738 248.409 13.1555 248.694 11.3315C249.024 9.42099 249.353 7.5105 249.772 5.4271C249.798 3.4691 249.868 1.42466 249.939 -0.619789C249.814 -4.40754 249.13 -8.59431 247.661 -12.7479Z" fill="#C4A767" fill-opacity="0.03"/>
<path d="M235.707 -50.2438C235.707 -50.2438 237.845 -47.387 241.615 -42.8116C245.385 -38.2362 250.788 -32.1597 257.137 -25.157C262.242 -19.5631 266.045 -14.2039 268.155 -9.17161C270.22 -4.05283 270.283 1.12671 269.266 5.6393L269.263 5.85685C270.235 1.43071 271.093 -4.25896 269.996 -10.1919C268.857 -16.2559 266.243 -22.6439 261.933 -29.1413C256.555 -37.1757 249.569 -42.098 244.522 -45.4716C239.212 -48.7617 235.707 -50.2438 235.707 -50.2438Z" fill="#C4A767" fill-opacity="0.03"/>
</svg>
