<svg width="546" height="502" viewBox="0 0 546 502" fill="none" xmlns="http://www.w3.org/2000/svg">
<path d="M520.981 238.285C519.751 233.424 518.484 228.803 517.145 224.662C518.207 229.007 519.511 233.387 520.981 238.285Z" fill="#C4A767" fill-opacity="0.07"/>
<path d="M516.977 224.145C516.94 224.385 517.144 224.662 517.108 224.903L516.977 224.145Z" fill="#C4A767" fill-opacity="0.07"/>
<path d="M437.953 149.895C439.832 155.347 441.805 161.798 443.982 168.526C452.34 196.122 459.237 233.337 460.776 273.43C462.245 305.885 459.817 331.597 456.713 352.039C452.829 371.133 449.53 386.379 446.13 397.427L446.057 397.908C449.457 386.86 454.089 372.555 459.787 354.475C461.203 350.015 462.451 345.037 463.772 339.579C465.093 334.12 466.209 328.385 467.159 322.132C469.299 309.663 470.936 295.641 471.589 279.993C473.344 240.892 463.963 200.593 451.94 171.21C448.633 163.819 445.735 156.982 443.171 151.18C440.127 145.304 436.973 140.151 434.671 135.864C432.333 131.819 430.366 128.567 428.975 126.388C427.583 124.208 427.008 123.137 427.008 123.137C427.008 123.137 429.032 127.627 432.025 135.463C433.642 139.399 435.834 144.406 437.953 149.895Z" fill="#C4A767" fill-opacity="0.07"/>
<path d="M370.079 83.2449L369.19 82.6178C369.634 82.9314 370.079 83.2449 370.246 83.7624C370.283 83.5219 370.283 83.5219 370.079 83.2449Z" fill="#C4A767" fill-opacity="0.07"/>
<path d="M379.257 95.7104C382.244 100.347 384.676 105.391 387.554 110.749C392.827 121.391 398.194 133.032 402.862 146.043C405.556 152.603 407.733 159.331 410.114 166.336C412.495 173.341 414.803 180.826 417.111 188.312C421.45 203.487 424.681 219.479 426.359 235.972C430.507 276.708 428.667 309.89 427.289 333.547C425.67 357.168 423.829 370.913 423.829 370.913C423.829 370.913 425.23 368.173 427.272 362.824C429.314 357.475 432.036 349.277 434.641 338.6C439.648 316.971 444.301 284.707 437.391 241.092C434.38 223.658 429.816 206.726 424.347 190.887C418.398 174.975 412.951 160.615 406.841 147.385C400.971 134.192 394.918 122.201 389.164 111.485C384.043 103.08 379.811 95.3025 374.675 88.6175L374.879 88.8945C376.271 91.0741 377.662 93.2538 379.257 95.7104Z" fill="#C4A767" fill-opacity="0.07"/>
<path d="M238.503 22.9139C239.632 23.5775 240.521 24.2046 241.373 25.0722C240.521 24.2046 239.392 23.541 238.503 22.9139Z" fill="#C4A767" fill-opacity="0.07"/>
<path d="M238.503 22.9139C237.818 22.5638 237.373 22.2503 236.688 21.9002C237.133 22.2138 237.818 22.5638 238.503 22.9139Z" fill="#C4A767" fill-opacity="0.07"/>
<path d="M241.373 25.0722C241.614 25.1087 241.818 25.386 242.059 25.4225C241.855 25.1455 241.614 25.1087 241.373 25.0722Z" fill="#C4A767" fill-opacity="0.07"/>
<path d="M233.985 20.2593C234.91 20.6459 235.799 21.2731 236.688 21.9002C236.244 21.5867 235.559 21.2365 235.114 20.9229L233.985 20.2593Z" fill="#C4A767" fill-opacity="0.07"/>
<path d="M204.912 20.5197C205.56 21.1103 206.245 21.4603 207.134 22.0874C206.245 21.4603 205.152 20.5563 204.264 19.9292L204.912 20.5197Z" fill="#C4A767" fill-opacity="0.07"/>
<path d="M117.672 0.382725C118.874 0.565327 120.317 0.784436 121.52 0.967038C120.558 0.820957 119.836 0.711399 118.874 0.565318L117.672 0.382725Z" fill="#C4A767" fill-opacity="0.07"/>
<path d="M123.925 1.33295C123.203 1.22339 122.482 1.11384 121.76 1.00427C122.482 1.11384 122.963 1.18687 123.925 1.33295Z" fill="#C4A767" fill-opacity="0.07"/>
<path d="M160.055 16.1683C166.35 20.0768 173.091 24.2989 179.24 29.1694C185.149 34.0034 191.78 38.947 197.339 44.466C220.814 66.484 241.766 93.7778 260.953 126.217C273.125 146.518 282.389 164.902 290.875 181.937C298.879 198.899 305.455 213.923 310.917 226.562C319.743 247.832 325.671 262.264 327.288 266.201C326.232 265.056 325.139 264.152 324.082 263.007L324.323 263.044C324.323 263.044 324.323 263.044 324.082 263.007C312.556 251.415 301.234 240.1 289.598 229.23C281.613 221.866 273.831 214.78 266.05 207.693C264.543 203.035 261.12 193.166 254.398 179.105C249.737 169.293 243.203 157.229 234.207 143.561C225.174 130.133 213.642 115.342 197.984 100.17C185.606 87.7102 171.696 77.2326 157.807 68.2344C150.586 63.9393 143.606 59.6807 136.034 56.0706C128.74 52.2565 121.059 49.3679 113.379 46.4792C86.5612 36.748 58.6117 34.4722 35.6459 36.6439C58.3347 34.6762 85.1761 37.7679 110.514 47.5205C139.554 58.8194 167.017 77.2602 189.886 101.647C204.378 116.395 215.706 130.91 225.053 143.893C227.5 147.217 229.744 150.265 231.952 153.552C233.955 156.563 235.958 159.574 237.961 162.584C241.764 168.329 245.122 173.76 248.276 178.913C254.417 188.703 258.853 196.758 261.97 202.153C262.954 203.778 263.697 205.367 264.272 206.439C256.658 199.87 249.284 193.337 241.838 187.285C233.983 180.68 226.26 174.832 218.777 169.021C215.017 166.236 211.294 163.21 207.534 160.424C203.774 157.639 199.978 155.094 196.422 152.586C189.31 147.569 182.366 143.07 175.349 139.052C175.349 139.052 175.349 139.052 175.108 139.016C167.887 134.721 160.87 130.702 154.261 127.238C141.283 120.347 129.325 114.84 119.071 111.069C116.98 110.259 115.129 109.486 113.001 108.917C112.556 108.603 112.316 108.567 111.872 108.253C109.576 107.167 106.151 105.416 101.524 103.484C96.8965 101.551 91.2341 99.9527 84.6097 98.2087C81.2793 97.4569 77.4313 96.8726 73.5833 96.2883C69.7354 95.704 65.5373 95.8046 61.1352 95.6283C57.7317 95.3575 54.2187 95.8082 50.7422 96.0184C47.5061 96.2652 44.2701 96.5119 41.2381 97.0357C35.1374 98.3237 29.3868 98.9267 24.4887 100.397C14.2844 102.785 6.85661 106.331 0.959912 107.896L0.682967 108.1C6.61612 106.295 14.1384 103.746 23.9195 102.525C33.7736 100.823 45.6098 100.652 58.9833 101.699C75.5197 102.979 89.3226 106.06 99.183 107.557C104.197 108.564 108.008 109.389 110.894 109.827C113.54 110.229 115.187 110.725 115.187 110.725C115.187 110.725 114.502 110.375 113.613 109.748C115.26 110.244 116.87 110.981 118.721 111.754C124.311 113.833 130.548 116.502 136.99 119.449C136.269 119.339 135.343 118.953 134.418 118.566C131.568 117.888 127.589 116.545 122.298 115.742C112.03 113.69 97.6946 112.498 82.1264 114.563C75.8217 115.574 70.2752 116.454 65.1365 117.888C62.5854 118.484 60.2749 119.118 57.7238 119.715C55.4132 120.348 53.3067 121.258 51.2366 121.928C47.133 123.027 43.4373 124.68 40.0917 125.649C38.5392 126.151 36.7461 126.617 35.2301 126.879C33.9545 127.177 32.4385 127.439 31.4765 127.293C32.4385 127.439 33.714 127.141 34.9896 126.842C36.5056 126.58 38.2621 126.355 40.0552 125.889C43.6047 125.198 47.4679 124.062 51.9794 123.517C54.2535 123.124 56.5275 122.732 59.0421 122.375C61.5566 122.019 64.0347 121.903 66.7897 121.583C69.5448 121.264 72.2998 120.944 75.4993 120.938C78.4583 120.895 81.7309 120.408 84.8939 120.642C100.928 120.37 114.375 120.936 123.769 120.64C131.371 120.81 136.604 120.374 138.083 120.353C143.118 122.84 148.394 125.363 153.838 128.404C159.762 131.518 166.094 135.186 172.39 139.095C171.705 138.745 170.743 138.599 169.577 138.176C166.079 136.906 160.898 135.382 154.514 133.674C141.709 130.499 123.541 127.002 103.957 127.965C88.1272 128.514 75.2045 130.981 64.9637 133.608C56.5525 135.53 49.7883 137.947 44.1686 139.308C49.7517 138.188 56.6469 136.528 65.67 135.438C76.4862 133.882 90.1519 133.004 106.484 134.008C126.701 135.356 143.886 137.227 156.021 138.332C162.106 138.764 166.953 139.253 170.356 139.524C172.04 139.78 173.279 139.722 174.241 139.868C181.221 144.127 188.61 148.939 195.962 153.992C199.518 156.501 203.278 159.286 207.074 161.831C210.834 164.616 214.353 167.365 218.317 170.427C225.8 176.238 233.728 182.363 241.378 188.692C249.677 195.611 257.94 202.771 266.129 210.411C266.501 211.206 266.705 211.483 266.705 211.483C266.705 211.483 266.501 211.206 266.574 210.725C273.707 217.221 281.044 223.994 288.381 230.767C290.326 232.539 292.475 234.588 294.384 236.6C292.052 235.754 280.466 231.042 262.422 225.103C242.25 218.596 213.865 211.087 182.695 207.338C157.574 204.261 137.21 203.875 121.14 204.388C113.225 204.662 106.272 205.082 100.317 205.408C98.8376 205.43 97.3581 205.451 96.1191 205.509C94.8801 205.567 93.6411 205.625 92.4021 205.683C91.9211 205.61 91.163 205.741 90.682 205.668C91.163 205.741 91.644 205.814 92.125 205.887C94.5665 206.012 97.285 205.932 100.208 206.13C106.126 206.044 113.246 206.142 121.533 206.662C137.902 207.425 159.212 209.677 184.799 214.546C216.602 220.606 244.208 226.766 264.023 230.759C281.915 234.46 292.905 236.621 294.829 236.913C303.389 245.349 312.154 254.061 320.919 262.773C315.497 261.212 304.136 258.256 288.205 254.607C282.47 253.49 276.53 252.096 269.833 250.833C263.135 249.57 256.198 248.27 248.575 246.621C244.727 246.036 241.192 245.008 237.381 244.183C233.365 243.081 228.869 241.906 224.576 241.008C220.284 240.11 215.992 239.213 211.699 238.315C207.37 237.657 202.837 236.723 198.268 236.029C169.24 231.129 145.249 228.716 126.548 227.107C110.288 225.622 97.6361 224.685 89.7147 221.76C97.5995 224.925 109.901 226.547 126.255 229.031C145.495 231.952 170.194 236.195 199.891 243.165C209.197 245.07 217.949 247.383 226.498 249.419C230.754 250.558 234.769 251.66 238.821 252.521C243.113 253.419 247.369 254.557 251.217 255.141C266.573 257.719 279.392 259.174 290.251 260.577C301.147 261.739 309.637 262.536 315.446 263.172C318.128 263.333 320.292 263.662 321.772 263.641C326.682 268.569 331.556 273.738 336.467 278.666C342.398 284.98 348.532 291.571 354.463 297.884C352.612 297.111 349.631 295.674 345.485 293.814C338.599 290.554 328.178 286.265 315.389 281.371C308.874 278.905 301.842 276.607 294.328 274.236C290.553 273.171 286.538 272.069 282.522 270.967C278.47 270.106 274.418 269.244 270.126 268.347C261.782 266.587 253.16 265.032 244.058 263.404C235.196 261.812 225.685 259.63 215.694 257.375C183.759 250.557 156.598 244.71 135.434 241.497C114.307 238.042 98.9731 236.944 89.9589 233.115C99.0097 236.704 113.957 238.727 135.069 243.902C156.495 248.631 184.085 256.512 217.061 266.194C227.22 268.967 237.102 271.943 246.926 273.681C256.269 275.346 265.131 276.938 273.235 278.66C277.323 279.281 281.375 280.142 285.223 280.727C289.035 281.552 292.846 282.376 296.38 283.405C303.522 284.982 310.424 286.522 316.531 288.433C336.885 293.739 350.374 297.263 354.63 298.402C356.335 300.137 358.003 302.112 359.708 303.847C367.511 312.414 375.314 320.98 383.08 329.787C383.729 330.377 384.341 331.208 384.989 331.799C383.138 331.026 380.158 329.589 375.975 327.969C368.571 324.877 357.91 320.551 344.567 316.065C331.26 311.338 315.104 305.932 297.395 301.028C288.402 298.679 279.169 296.292 269.418 294.074C259.908 291.891 249.749 289.119 239.109 286.273C205.025 277.406 176.013 270.787 153.238 266.836C142.212 264.916 132.352 263.418 123.249 261.79C118.92 261.133 115.109 260.308 111.538 259.52C109.891 259.024 108.484 258.564 106.837 258.068C108.244 258.527 109.41 258.951 110.816 259.41C114.387 260.198 118.162 261.264 122.455 262.162C131.04 263.957 141.031 266.213 152.669 268.964C175.909 274.708 205.11 283.324 240.236 295.055C251.043 298.419 261.573 301.986 271.528 304.482C281.279 306.701 290.753 309.123 299.505 311.437C317.527 315.896 333.145 319.989 345.949 323.164C366.617 328.025 380.623 331.382 385.397 332.353C392.311 340.292 398.984 348.194 405.898 356.133C410.94 361.82 415.741 367.47 420.265 373.324C414.398 371.449 401.186 367.72 383.127 363.502C370.527 360.604 355.485 357.582 338.854 355.303C330.437 354.024 321.742 352.95 312.771 352.08C308.165 351.627 303.799 351.21 299.026 350.239C294.253 349.268 289.443 348.538 284.429 347.53C251.903 341.361 224.152 336.163 201.654 332.008C190.388 330.051 180.119 328 171.053 326.131C162.024 324.022 154.161 322.336 147.828 318.668L147.143 318.318C153.439 322.226 161.302 323.913 170.463 326.78C179.696 329.166 190.132 331.735 201.493 334.69C224.697 340.674 253.082 348.183 286.648 357.217C291.866 358.501 296.844 359.749 301.821 360.997C306.799 362.245 311.849 363.012 316.455 363.465C325.631 364.613 334.362 365.446 342.575 366.447C359.038 368.209 373.541 369.919 385.676 371.024C397.774 372.369 407.263 373.072 413.829 373.577C416.992 373.811 419.434 373.936 421.117 374.191C423.398 376.998 425.678 379.805 428.235 382.407C429.904 384.383 431.608 386.118 433.277 388.094C431.797 388.115 428.875 387.918 424.269 387.464C417.702 386.959 408.49 386.052 396.837 385.021C374.011 383.031 341.973 380.134 303.609 376.769C250.983 371.731 209.997 361.324 182.699 351.52C186.16 353.03 189.899 354.336 193.841 355.918C202.761 358.749 212.904 363.242 224.229 366.438C246.973 373.828 274.673 380.987 306.514 386.806C345.809 393.757 377.935 394.453 399.83 392.857C410.777 392.059 419.523 391.172 425.346 390.088C429.654 389.266 432.205 388.669 433.481 388.371C438.726 394.334 443.768 400.021 449.29 405.78C447.57 405.765 445.369 405.677 442.41 405.72C436.288 405.528 427.244 405.139 416.202 404.939C410.598 404.58 404.235 404.352 397.632 404.087C391.029 403.823 384.149 403.762 376.992 403.905C362.474 403.915 346.44 404.187 329.371 404.794C322.454 404.974 315.851 404.709 309.416 404.962C302.813 404.697 296.45 404.469 290.365 404.037C278.157 403.414 267.021 402.215 256.643 400.885C236.201 397.781 218.252 392.841 206.047 384.099L205.362 383.748C217.567 392.491 235.333 398.633 256.686 403.844C267.362 406.45 279.351 408.516 292.061 410.692C298.554 411.678 305.048 412.664 312.058 413.483C318.865 414.024 326.117 414.879 333.405 415.494C351.457 416.513 367.455 416.482 381.842 415.714C397.082 415.814 410.062 414.586 420.361 413.197C430.66 411.809 438.553 410.055 443.933 408.657C446.484 408.061 448.554 407.391 450.106 406.888C450.551 407.202 450.718 407.719 451.163 408.033C455.906 412.444 460.409 416.818 464.911 421.193C463.636 421.491 462.12 421.753 460.327 422.219C454.743 423.339 446.646 424.816 436.311 426.445C425.735 428.038 413.716 429.412 399.329 430.179C392.136 430.563 384.461 430.874 376.342 430.872C372.144 430.972 367.982 430.832 363.784 430.933C359.586 431.034 355.833 431.448 351.635 431.549C325.339 432.968 301.608 432.072 281.48 428.523C261.11 424.938 243.898 418.387 231.51 410.847L230.825 410.497C243.249 417.797 260.243 425.79 281.559 431.241C292.199 434.087 303.67 436.321 315.935 438.184C322.188 439.133 328.477 439.842 335.284 440.384C338.688 440.655 341.851 440.889 345.495 441.196C347.178 441.452 348.935 441.226 350.859 441.519C352.783 441.811 354.707 442.103 356.631 442.395C376.184 444.872 392.736 444.433 406.548 442.594C420.636 440.55 432.503 436.939 441.614 433.648C450.762 430.116 457.432 426.7 461.995 424.194C463.621 423.211 464.969 422.432 466.041 421.856C469.042 424.772 472.081 427.448 475.119 430.124C475.767 430.715 476.656 431.342 477.305 431.932C475.993 432.471 474.127 433.418 471.503 434.496C469.119 435.61 466.218 436.892 463.04 438.378C459.621 439.827 455.962 441.239 451.749 443.06C443.119 446.425 432.732 450.014 420.588 453.829C414.415 455.598 408 457.331 400.828 459.194C397.242 460.126 393.693 460.817 389.903 461.472C386.112 462.126 382.563 462.818 378.532 463.436C365.96 465.217 353.81 465.833 341.639 464.969C335.554 464.537 329.745 463.901 323.733 462.988C318.609 462.702 313.69 462.693 309.084 462.24C290.419 460.39 274.561 456.259 262.494 451.474L262.013 451.401C273.84 456.15 289.996 461.556 309.33 465.476C311.735 465.841 314.344 466.483 316.749 466.848C317.952 467.031 319.599 467.527 321.005 467.987C322.652 468.483 324.059 468.943 325.742 469.198C332.126 470.906 338.546 472.373 345.04 473.359C358.231 475.608 371.364 476.618 385.787 475.61C420.589 473.267 442.647 460.87 457.256 450.54C468.578 442.417 475.037 435.525 477.159 432.894C480.438 435.606 483.512 438.042 486.791 440.754C490.901 442.854 494.792 446.398 499.273 449.293C503.514 452.151 507.718 455.25 511.718 458.072C513.7 459.603 515.719 460.893 517.941 462.461C519.96 463.752 522.218 465.079 524.237 466.37C532.588 471.328 540.661 476.491 548.954 480.211C553.064 482.311 556.933 484.375 561.079 486.235C564.985 488.058 569.168 489.677 573.111 491.26C604.336 504.367 632.015 510.047 650.883 512.174C660.336 513.117 667.901 513.527 672.82 513.536C677.74 513.545 680.218 513.43 680.218 513.43C681.938 513.445 683.841 512.257 683.302 510.945C683.134 510.428 682.486 509.837 681.56 509.451C680.875 509.101 680.154 508.991 679.192 508.845C679.192 508.845 678.674 509.012 677.435 509.07C676.196 509.128 674.476 509.113 671.998 509.229C669.52 509.345 666.598 509.147 662.954 508.84C659.31 508.532 655.185 508.152 650.542 507.939C631.914 505.849 604.68 500.483 573.899 487.689C569.957 486.106 566.014 484.524 562.108 482.7C558.202 480.877 554.333 478.813 550.223 476.713C545.392 474.503 540.393 471.776 535.671 468.844C536.466 468.473 537.26 468.101 538.332 467.526C542.582 465.465 547.976 462.347 554.384 457.415C566.959 447.515 581.483 431.267 591.999 408.997C594.136 404.647 596.273 400.297 598.133 396.15C599.993 392.004 601.372 387.784 602.918 384.083C605.843 376.161 609.103 369.275 611.292 362.964C615.705 350.102 619.513 339.608 623.087 332.277L623.16 331.796C619.79 339.404 615.093 349.271 609.033 361.637C606.123 367.838 601.974 374.097 597.919 381.355C595.892 384.984 593.865 388.613 591.283 392.65C588.738 396.446 585.953 400.206 583.131 404.206C569.78 424.077 556.7 440.544 547.309 452.158C542.511 457.827 538.581 462.643 535.665 465.645C534.797 466.497 534.207 467.146 533.616 467.794C530.913 466.153 528.21 464.512 525.266 462.835C523.247 461.545 520.952 460.458 518.933 459.167C516.915 457.877 514.933 456.345 512.915 455.055C509.803 452.86 506.692 450.665 503.34 448.434C506.926 447.502 515.965 444.692 526.586 437.939C533.402 433.561 540.714 427.536 547.8 419.755C554.923 411.733 561.34 401.881 566.774 390.404C575.504 371.8 580.334 354.573 583.655 340.806C584.954 333.868 586.662 327.484 587.779 321.749C588.655 315.977 589.626 311.204 590.728 307.188L590.801 306.707C589.663 310.963 588.692 315.736 587.371 321.195C585.809 326.617 583.621 332.928 581.359 339.72C576.428 352.749 569.616 368.446 558.737 385.001C545.516 405.63 531.307 421.433 520.546 432.347C511.87 440.872 505.389 446.285 502.896 448.12C502.247 447.53 501.322 447.143 500.673 446.553C496.433 443.694 492.505 440.391 488.338 437.052C486.8 435.834 485.263 434.617 483.762 433.159C491.168 428.132 499.938 420.606 509.46 409.75C519.332 398.209 529.548 382.783 538.534 362.496C544.077 350.297 548.25 337.398 551.205 326.037C554.197 314.435 555.935 304.611 557.563 295.509C557.892 293.344 558.461 291.216 558.753 289.292C559.046 287.368 559.338 285.444 559.353 283.724C559.624 280.321 560.062 277.435 560.427 275.03C560.88 270.424 561.246 268.019 560.838 267.465C560.838 267.465 560.932 268.464 560.305 269.352C559.882 270.518 559.145 272.129 558.336 274.22C557.526 276.312 556.607 279.125 555.651 282.178C555.155 283.825 554.659 285.472 554.126 287.36C553.353 289.211 552.82 291.098 552.047 292.949C549.326 301.147 546.109 310.993 542.541 321.523C538.937 332.294 534.91 344.23 530.256 357.056C526.448 367.55 522.823 376.841 518.863 385.097C514.903 393.354 511.089 400.648 506.94 406.907C499.196 419.017 491.445 427.928 483.798 432.918C481.168 430.797 478.742 428.952 476.111 426.83C474.574 425.612 473.314 424.191 471.776 422.973C474.233 421.378 481.472 415.834 490.272 404.868C495.493 398.033 501.209 389.552 506.497 379.037C509.261 373.797 511.617 368.004 514.286 361.766C515.483 358.749 516.475 355.455 517.708 352.198C518.7 348.904 519.933 345.647 520.721 342.076C522.042 336.617 523.64 330.955 524.961 325.496C526.282 320.038 527.326 314.784 528.297 310.01C529.267 305.237 530.034 300.186 530.692 295.857C530.874 294.655 531.261 293.729 530.999 292.213C530.978 290.734 530.716 289.218 530.658 287.979C530.338 285.224 530.055 282.228 529.735 279.473C529.54 274.277 527.938 268.62 526.985 263.555C526.032 258.489 525.043 253.664 524.016 249.079C522.881 245.216 521.949 241.631 520.981 238.285C523.667 249.765 525.856 262.891 526.383 277.242C526.578 282.438 526.533 287.598 526.21 292.962L526.071 297.124C525.888 298.326 525.501 299.252 525.319 300.454C524.75 302.582 524.144 304.951 523.298 307.283C520.43 316.443 516.936 326.492 512.647 336.913C511.414 340.17 509.941 343.391 508.504 346.372C507.031 349.593 506.075 352.646 504.675 355.386C501.838 361.106 499.759 366.696 497.236 371.971C492.67 382.596 487.842 391.705 484.196 399.517C477.858 412.087 473.14 420.474 471.776 422.973C470.479 421.792 469.423 420.647 468.126 419.466L468.403 419.262L468.162 419.226C464.512 415.719 460.862 412.212 457.212 408.705C459.553 404.632 462.003 399.837 465.08 394.153C468.158 388.47 471.345 382.064 475.4 374.807C482.787 360.182 491.721 341.855 500.205 320.015C500.591 319.089 500.941 318.404 501.087 317.442L501.766 314.593C502.299 312.706 502.627 310.541 502.919 308.617C503.54 304.529 504.125 300.681 504.745 296.592C505.71 288.619 505.953 280.537 506.123 272.935C506.019 257.419 504.326 242.645 501.619 229.686C500.127 223.308 499.043 217.484 497.609 212.346C495.934 207.17 494.427 202.513 493.014 198.854C490.429 191.572 488.849 187.395 488.849 187.395C488.849 187.395 489.504 191.185 490.478 197.73C490.966 201.003 491.584 205.034 492.333 209.822C492.878 214.334 493.314 219.567 493.64 225.521C495.534 248.691 494.817 279.338 490.295 312.359C489.784 315.726 489.309 318.853 488.834 321.979C488.119 325.069 487.848 328.472 487.002 330.804C485.237 335.949 483.712 341.131 482.26 345.831C479.079 355.436 476.008 364.319 473.083 372.241C467.196 388.324 462.447 400.151 457.729 408.538L457.693 408.778C456.192 407.32 454.895 406.139 453.394 404.681C445.722 396.873 438.4 388.38 430.801 380.091C423.275 371.32 415.99 362.587 408.464 353.817C405.332 350.142 402.199 346.468 398.826 342.757C399.285 341.351 400.168 338.778 400.993 334.967C402.387 329.028 404.256 319.962 405.12 307.791C407.051 283.726 405.722 247.109 392.335 200.789C380.999 163.637 366.251 131.134 350.94 103.959C335.629 76.7833 319.515 54.8989 306.963 38.7223L306.351 37.8912C319.107 54.3448 333.778 76.0101 347.202 102.653C360.625 129.296 372.801 160.916 381.637 196.704C392.19 240.626 396.405 277.68 397.935 303.255C399.233 323.874 398.871 337.597 398.695 341.999C394.265 337.144 390.112 332.085 385.683 327.229C380.233 320.989 374.747 314.989 369.261 308.989C369.386 306.547 370.6 293.691 369.652 272.388C369 260.478 367.547 245.741 364.499 228.547C361.174 211.558 355.438 191.003 345.482 169.07C329.693 133.702 311.62 103.647 293.262 78.7154C284.083 66.2496 274.722 54.9863 265.381 45.2025C260.952 40.3471 256.005 35.6591 251.225 31.4887C248.631 29.1265 246.001 27.0047 243.13 24.8465C245.556 26.6912 247.946 28.7764 250.336 30.8616C254.875 34.9955 259.822 39.6835 264.012 44.5023C272.834 54.4536 281.234 65.5709 289.451 77.8906C305.885 102.53 321.275 132.424 334.769 166.705C343.318 188.179 348.829 206.977 352.876 224.076C356.923 241.175 359.782 256.372 362.285 269.054C364.547 281.7 366.454 291.831 367.596 298.894C368.512 304.2 369.203 307.75 369.261 308.989C366.944 306.423 364.591 304.097 362.274 301.531C357.437 296.121 352.563 290.952 347.688 285.783C347.624 281.345 347.176 269.713 344.238 251.797C340.587 228.853 333.586 195.558 314.847 155.314C299.822 123.015 282.143 95.2341 263.456 72.4669C245.381 50.5309 225.577 33.4992 208.002 21.2347C225.337 33.4627 243.661 50.5157 259.367 71.8461C276.13 94.3211 291.2 121.46 303.93 152.672C319.448 191.443 329.648 224.732 336.557 248.909C341.937 266.949 345.402 279.777 346.836 284.916C344.075 282.036 341.35 278.916 338.348 276C334.939 272.529 331.529 269.059 328.359 265.625C328.061 264.35 327.574 261.077 326.344 256.216C324.888 249.597 322.669 239.911 318.89 227.527C315.112 215.143 310.015 200.098 302.769 183.005C295.041 165.839 285.646 146.697 272.271 126.213C250.92 93.4455 227.6 65.546 202.128 43.7168C198.849 41.0045 195.811 38.3288 192.495 35.857C189.18 33.3852 185.865 30.9135 182.549 28.4417C176.159 23.5346 168.902 19.48 162.365 15.535C155.589 11.5534 148.185 8.46081 141.502 5.47776C137.56 3.89494 133.581 2.55255 129.566 1.45071C133.1 2.4795 136.839 3.78536 140.336 5.05465C146.355 9.16718 153.241 12.4272 160.055 16.1683Z" fill="#C4A767" fill-opacity="0.07"/>
<path d="M127.496 2.12112C126.33 1.69802 124.887 1.47888 123.684 1.29628C125.127 1.5154 126.293 1.93851 127.496 2.12112Z" fill="#C4A767" fill-opacity="0.07"/>
<path d="M128.662 2.54463C128.181 2.47159 127.94 2.43507 127.459 2.36203C127.94 2.43507 128.421 2.50811 128.662 2.54463Z" fill="#C4A767" fill-opacity="0.07"/>
<path d="M129.856 27.0838C130.578 27.1934 131.263 27.5433 131.744 27.6164C131.299 27.3028 130.578 27.1934 129.856 27.0838Z" fill="#C4A767" fill-opacity="0.07"/>
<path d="M125.564 26.1862C126.286 26.2958 127.007 26.4053 127.969 26.5514C127.488 26.4784 127.007 26.4053 126.526 26.3323L125.564 26.1862Z" fill="#C4A767" fill-opacity="0.07"/>
<path d="M133.426 27.871C132.945 27.798 132.464 27.725 132.02 27.4115C132.501 27.4845 133.222 27.594 133.667 27.9075L133.426 27.871Z" fill="#C4A767" fill-opacity="0.07"/>
<path d="M156.177 38.4615C161.14 41.4295 166.342 44.4339 170.954 48.0868C175.807 51.7762 180.66 55.4656 185.44 59.636C189.979 63.7699 194.722 68.1808 199.188 72.7957C203.618 77.6511 207.807 82.4699 211.96 87.5293C215.835 92.7926 219.674 98.2965 223.477 104.041C227.039 109.749 231.045 115.77 234.775 121.995C252.978 152.808 267.05 180.042 277.13 199.534C286.97 218.989 293.023 230.98 293.023 230.98C293.023 230.98 292.222 228.152 290.825 222.773C289.15 217.598 286.638 209.835 283.179 200.206C275.781 180.875 264.187 153.526 243.579 122.348C239.368 116.05 235.362 110.028 231.078 104.211C227.035 98.4301 222.475 92.8167 218.082 87.7208C208.887 76.975 198.993 67.5991 188.676 59.3892C178.599 51.2159 168.099 44.2085 157.657 38.4401C152.694 35.4722 147.142 33.1528 142.07 30.9063C139.534 29.7831 136.961 28.9004 134.389 28.0177C134.148 27.9812 133.907 27.9441 133.667 27.9075C136.239 28.7903 138.572 29.6371 141.108 30.7603C146.18 33.0067 151.455 35.5301 156.177 38.4615Z" fill="#C4A767" fill-opacity="0.07"/>
<path d="M26.8268 38.0116C29.6183 37.4514 32.6139 37.1681 35.6094 36.8848C32.1329 37.0951 28.8603 37.5823 25.5878 38.0695L26.8268 38.0116Z" fill="#C4A767" fill-opacity="0.07"/>
<path d="M105.902 63.3048C109.364 64.8146 112.788 66.5649 116.49 68.1112C120.156 69.898 123.821 71.6848 127.45 73.7121C142.556 81.1728 156.225 91.614 170.302 102.609C192.402 120.728 207.526 137.787 218.891 152.061C221.543 155.662 224.231 159.023 226.679 162.347C228.886 165.635 231.13 168.682 233.133 171.693C236.936 177.437 240.09 182.591 242.355 187.117L242.522 187.635C237.715 178.786 231.386 166.998 221.537 152.463C211.688 137.927 198.633 120.198 177.956 100.819C165.023 88.7672 150.873 78.253 135.118 70.2017C119.881 61.9829 104.279 56.1691 89.5144 52.9429C85.703 52.1181 82.0955 51.5703 78.7285 51.059C75.3615 50.5478 71.9946 50.0365 68.8316 49.8022C62.5056 49.3337 57.1781 48.7708 52.4991 48.7984C43.3815 48.8902 38.1849 49.0853 38.1849 49.0853C38.1849 49.0853 42.7909 49.5386 51.318 50.0953C55.4795 50.2351 60.4569 51.483 66.2289 52.3595C72.0008 53.236 78.1442 54.907 85.0091 56.6876C86.6561 57.1837 88.5801 57.4759 90.227 57.972C91.874 58.4681 93.7249 59.2413 95.3719 59.7374C98.6658 60.7297 102.164 61.999 105.902 63.3048Z" fill="#C4A767" fill-opacity="0.07"/>
<path d="M187.892 140.711C190.689 143.351 193.247 145.953 195.637 148.039C197.75 150.328 199.695 152.099 201.196 153.558C204.438 156.51 206.143 158.246 206.143 158.246C206.143 158.246 205.196 156.379 202.952 153.332C200.745 150.045 197.758 145.408 192.994 139.518C183.909 128.051 169.396 111.822 145.897 96.4438C126.842 84.2007 107.204 75.8056 89.1813 71.3466C70.9185 66.8511 54.586 65.8473 41.9919 66.1492L41.5109 66.0762C47.6695 66.0272 55.067 65.9203 62.4859 67.2929C66.3339 67.8772 70.4589 68.2576 74.4743 69.3594C78.4898 70.4612 82.7822 71.359 87.0017 72.7379C103.916 78.0128 122.002 86.9103 139.023 99.5828C160.322 114.873 176.496 129.877 187.892 140.711Z" fill="#C4A767" fill-opacity="0.07"/>
<path d="M151.274 122.602C156.44 125.847 160.368 129.15 163.275 131.068C166.182 132.985 167.72 134.203 167.72 134.203C167.72 134.203 164.325 129.013 156.209 120.891C147.815 112.973 134.496 101.847 113.691 93.029C109.268 91.3732 105.326 89.7903 101.106 88.4115C96.8502 87.2731 92.8713 85.9308 88.8193 85.0695C84.7674 84.2081 80.6789 83.5873 77.0715 83.0395C73.26 82.2147 69.616 81.9074 65.972 81.6001C62.328 81.2928 58.9245 81.022 55.725 81.0283C52.489 81.275 49.2894 81.2812 46.3304 81.324C40.4124 81.4095 35.3468 82.3626 30.8717 82.6673L30.3907 82.5942C34.9023 82.0491 39.9314 81.3365 45.8129 81.4915C48.7719 81.4487 51.6944 81.6465 54.8939 81.6402C58.0934 81.634 61.1834 82.3492 64.5504 82.8605C71.2843 83.883 78.1492 85.6636 85.6991 87.7943C92.972 90.1289 100.412 92.9809 107.947 96.8316C126.441 106.283 141.015 115.631 151.274 122.602Z" fill="#C4A767" fill-opacity="0.07"/>
<path d="M31.7898 126.849L32.0303 126.885C31.8263 126.608 31.7898 126.849 31.7898 126.849Z" fill="#C4A767" fill-opacity="0.07"/>
<path d="M42.0411 138.739C43.0396 138.645 43.7976 138.514 44.8326 138.179C43.7976 138.514 42.7991 138.609 42.0411 138.739Z" fill="#C4A767" fill-opacity="0.07"/>
<path d="M41.006 139.075C41.2465 139.111 41.764 138.944 42.0044 138.98C41.764 138.944 41.4869 139.148 41.2464 139.111L41.006 139.075Z" fill="#C4A767" fill-opacity="0.07"/>
<path d="M182.799 156.423C189.533 157.445 194.86 158.008 198.468 158.556C202.112 158.863 204.036 159.155 204.036 159.155C204.036 159.155 201.944 158.346 198.002 156.763C194.06 155.18 188.434 153.342 181.365 151.284C167.227 147.169 147.171 143.139 126.276 144.641C109.41 145.525 97.602 150.375 88.0462 153.353C83.3155 155.341 78.5634 155.849 74.9043 157.262C72.8707 157.691 71.1142 157.917 69.3212 158.383C67.5281 158.848 65.9756 159.351 64.7 159.649L64.4595 159.613C65.9755 159.351 67.5281 158.848 69.0441 158.587C70.8007 158.361 72.7977 158.172 74.7947 157.984C76.7918 157.795 78.8983 156.884 81.3764 156.769C83.8544 156.653 86.4055 156.056 88.9565 155.459C99.6053 153.385 112.564 150.679 129.692 151.311C150.74 152.047 169.572 154.414 182.799 156.423Z" fill="#C4A767" fill-opacity="0.07"/>
<path d="M148.634 172.395C174.645 176.098 197.586 180.566 213.59 183.734C229.835 186.939 239.214 188.364 239.214 188.364C239.214 188.364 236.678 187.24 232.051 185.307C227.387 183.615 220.631 181.113 212.433 178.392C195.759 173.153 172.111 166.856 146.457 165.667C125.963 164.523 109.506 165.961 96.8603 168.223C84.2146 170.486 75.8248 173.887 69.4836 175.138L69.2431 175.102C75.5843 173.85 84.3455 171.244 97.3262 170.016C110.511 169.066 127.674 169.458 148.634 172.395Z" fill="#C4A767" fill-opacity="0.07"/>
<path d="M236.666 200.279C217.865 194.471 191.331 187.736 162.419 185.314C139.112 183.251 120.287 184.083 106.03 185.609C91.5337 187.098 81.7739 189.799 74.6899 189.461L74.4494 189.425C81.2929 189.726 91.2202 187.543 106.256 187.365C121.051 187.151 140.583 188.149 164.596 192.042C194.141 196.774 219.896 202.161 238.341 205.454C256.509 208.951 267.295 210.835 267.295 210.835C267.295 210.835 264.519 209.675 259.17 207.633C253.748 206.071 246.067 203.183 236.666 200.279Z" fill="#C4A767" fill-opacity="0.07"/>
<path d="M90.5149 205.15C89.5529 205.004 88.5909 204.858 87.8694 204.749C88.8314 204.895 89.5529 205.004 90.5149 205.15Z" fill="#C4A767" fill-opacity="0.07"/>
<path d="M90.7554 205.187L90.5149 205.15C90.7554 205.187 90.7554 205.187 90.7554 205.187Z" fill="#C4A767" fill-opacity="0.07"/>
<path d="M86.2219 204.253C86.7029 204.326 87.4244 204.435 88.1094 204.785C87.3879 204.676 86.6664 204.566 85.9814 204.216L86.2219 204.253Z" fill="#C4A767" fill-opacity="0.07"/>
<path d="M86.3627 219.529C86.6032 219.565 86.6032 219.565 86.8071 219.842C86.5666 219.806 86.1222 219.492 85.8817 219.455L86.3627 219.529Z" fill="#C4A767" fill-opacity="0.07"/>
<path d="M89.9951 232.874C89.7546 232.838 89.7546 232.838 89.5141 232.801L89.9951 232.874Z" fill="#C4A767" fill-opacity="0.07"/>
<path d="M104.783 257.018C104.542 256.982 104.098 256.668 103.857 256.632C104.302 256.945 104.542 256.982 104.783 257.018Z" fill="#C4A767" fill-opacity="0.07"/>
<path d="M105.708 257.404L105.948 257.441C105.467 257.368 105.263 257.091 105.023 257.054C105.227 257.331 105.467 257.368 105.708 257.404Z" fill="#C4A767" fill-opacity="0.07"/>
<path d="M102.043 255.618C102.283 255.655 102.283 255.655 102.487 255.932C102.283 255.655 102.043 255.618 101.598 255.305L102.043 255.618Z" fill="#C4A767" fill-opacity="0.07"/>
<path d="M255.458 324.432C260.88 325.993 266.375 327.074 271.907 327.914C276.957 328.681 281.767 329.411 286.577 330.141C296.197 331.602 305.299 333.231 313.921 334.786C331.368 338.173 346.927 341.028 359.804 343.721C372.718 346.175 382.987 348.226 390.129 349.802C397.307 351.139 401.118 351.963 401.118 351.963C401.118 351.963 396.936 350.344 389.495 347.492C382.055 344.64 371.321 340.795 357.941 336.549C344.561 332.303 328.5 327.896 310.645 323.954C301.856 321.882 292.476 320.457 282.616 318.96C277.806 318.23 272.96 317.74 267.873 317.213C265.468 316.848 263.507 316.797 260.862 316.395C258.457 316.03 255.848 315.387 253.202 314.986C236.513 311.467 220.692 307.097 206.168 303.907C191.716 300.236 178.599 297.506 166.96 294.755C155.285 292.244 145.017 290.192 135.988 288.083C127.199 286.01 119.335 284.324 113.652 281.247L113.207 280.933C118.854 284.251 126.718 285.937 135.434 288.491C144.871 291.154 155.27 293.964 166.595 297.16C178.364 300.669 191.781 304.675 206.567 309.38C221.63 313.882 237.786 319.288 255.458 324.432Z" fill="#C4A767" fill-opacity="0.07"/>
<path d="M170.631 346.735C170.872 346.772 171.112 346.808 171.316 347.085C171.316 347.085 171.316 347.085 171.076 347.049L170.631 346.735Z" fill="#C4A767" fill-opacity="0.07"/>
<path d="M182.735 351.279C178.552 349.66 174.85 348.113 171.352 346.844C174.814 348.354 178.516 349.9 182.735 351.279Z" fill="#C4A767" fill-opacity="0.07"/>
<path d="M458.531 497.236C466.187 487.326 472.013 478.123 476.899 470.253C486.633 454.755 491.644 444.443 491.644 444.443C491.644 444.443 482.983 451.248 469.525 463.721C462.935 469.855 455.09 477.768 446.582 486.81C442.594 490.387 436.034 493.081 428.825 495.185C421.82 497.566 413.686 499.284 405.071 500.928C391.426 503.285 378.038 503.958 365.036 503.706C358.396 503.682 352.07 503.214 345.781 502.505C339.491 501.796 333.756 500.679 327.78 499.525C316.105 497.014 305.021 493.855 295.045 489.879C293.879 489.456 292.472 488.997 291.343 488.333C289.973 487.633 289.215 487.764 288.253 487.618C286.365 487.085 284.441 486.793 282.794 486.297C279.26 485.268 275.966 484.276 272.672 483.284L272.191 483.21C275.244 484.166 278.502 485.399 282.277 486.464C284.164 486.997 286.052 487.53 287.939 488.062L289.105 488.485C289.586 488.558 290.067 488.631 290.752 488.982C292.122 489.682 293.288 490.105 294.658 490.805C305.283 495.371 316.906 499.842 329.12 503.665C332.173 504.621 335.467 505.613 338.557 506.328C341.887 507.08 345.218 507.832 348.548 508.584C355.486 509.883 362.424 511.183 369.435 512.001C376.446 512.82 383.734 513.435 391.095 513.568C398.697 513.738 406.371 513.428 413.878 512.599C423.142 511.545 431.721 510.142 439.243 507.593C446.969 505.322 453.806 502.423 458.531 497.236Z" fill="#C4A767" fill-opacity="0.07"/>
<path d="M462.396 534.975C483.392 518.234 491.984 495.673 496.632 479.647C501.113 463.105 501.553 452.1 501.553 452.1C501.553 452.1 496.799 460.727 488.595 474.244C480.151 487.724 468.185 506.575 450.614 525.067C443.36 532.331 435.771 538.56 427.92 543.273C420.069 547.986 411.402 551.59 403.028 553.271C399.128 554.647 394.653 554.952 390.659 555.33C386.424 555.671 382.43 556.049 378.713 556.222C370.427 555.702 362.658 555.014 356.164 554.028L355.683 553.955C362.177 554.941 369.909 555.87 379.085 557.017C383.246 557.157 387.408 557.296 392.087 557.269C396.766 557.241 401.649 557.491 406.197 556.705C410.986 555.956 415.774 555.207 421.044 554.531C425.701 553.023 430.6 551.553 435.498 550.082C444.369 546.754 453.735 541.78 462.396 534.975Z" fill="#C4A767" fill-opacity="0.07"/>
<path d="M541.624 476.638C541.624 476.638 536.571 483.99 528.754 496.582C520.936 509.173 510.873 526.836 499.373 547.48C490.213 564.05 480.567 577.348 470.338 586.375C459.87 595.365 447.653 599.661 436.152 600.867L435.635 601.035C446.895 599.792 461.057 597.268 474.229 589.918C487.678 582.365 500.713 571.058 512.649 555.647C527.37 536.477 533.433 515.992 537.381 501.336C540.921 486.127 541.624 476.638 541.624 476.638Z" fill="#C4A767" fill-opacity="0.07"/>
</svg>
