<svg width="421" height="375" viewBox="0 0 421 375" fill="none" xmlns="http://www.w3.org/2000/svg">
<path d="M385.052 94.1169C385.139 94.313 385.226 94.5092 385.226 94.5092L385.052 94.1169Z" fill="url(#paint0_linear_1772_22349)" fill-opacity="0.03"/>
<path d="M316.426 55.7729C318.667 59.2387 321.255 63.4891 323.93 67.9356C334.716 85.9177 346.04 110.936 354.246 138.98C360.976 161.576 363.854 180.247 365.276 195.104C365.959 209.351 366.208 220.504 365.721 228.934L365.698 229.413C365.99 221.07 366.786 210.158 367.715 196.37C367.871 193.016 368.049 189.182 367.857 185.043C367.665 180.904 367.474 176.765 367.304 172.147C366.573 163.084 365.32 152.845 362.957 141.69C357.43 113.867 343.69 87.1032 329.963 68.3121C326.243 63.6249 322.98 59.4392 320.173 55.755C316.888 52.0484 313.95 49.1265 311.578 46.4229C309.097 44.0025 307.269 41.9965 305.985 40.6882C304.701 39.3799 303.961 38.7692 303.961 38.7692C303.961 38.7692 306.137 41.5597 309.748 46.53C311.641 49.2112 313.903 52.1978 316.426 55.7729Z" fill="url(#paint1_linear_1772_22349)" fill-opacity="0.03"/>
<path d="M256.773 20.728L256.12 20.3134C256.403 20.4226 256.773 20.7279 257.056 20.8371C257.056 20.8371 257.056 20.8372 256.773 20.728Z" fill="url(#paint2_linear_1772_22349)" fill-opacity="0.03"/>
<path d="M265.37 27.9471C268.308 30.869 270.963 33.6818 273.879 37.083C279.34 43.58 285.236 51.0576 291 59.2976C293.981 63.3741 296.852 67.7337 299.613 72.3763C302.571 76.932 305.42 81.7708 308.356 86.8057C314.14 96.6794 319.118 107.38 323.202 118.711C333.238 146.648 337.897 170.396 340.951 187.346C344.005 204.297 345.171 214.34 345.171 214.34C345.171 214.34 345.652 212.249 346.136 208.046C346.62 203.842 347.192 197.722 346.983 189.836C346.672 173.782 344.409 150.145 331.761 120.55C326.545 108.782 320.435 97.6444 313.801 87.443C306.972 77.3286 300.38 68.2819 293.853 59.9105C287.414 51.7352 281.038 44.2352 275.098 37.7159C270.049 32.6788 265.85 27.9694 260.843 24.0868C260.843 24.0868 260.93 24.283 261.126 24.196C262.519 25.2213 264 26.4426 265.37 27.9471Z" fill="url(#paint3_linear_1772_22349)" fill-opacity="0.03"/>
<path d="M155.907 2.30384C156.19 2.41305 156.191 2.41306 156.474 2.52227C156.191 2.41306 155.907 2.30384 155.907 2.30384Z" fill="url(#paint4_linear_1772_22349)" fill-opacity="0.03"/>
<path d="M149.657 0.380371C150.419 0.511855 150.986 0.730304 151.835 1.05793C151.356 1.03565 150.986 0.730287 150.506 0.708009L149.657 0.380371Z" fill="url(#paint5_linear_1772_22349)" fill-opacity="0.03"/>
<path d="M129.24 5.6752C129.806 5.89362 130.373 6.11201 130.939 6.33042C130.089 6.0028 129.24 5.67519 128.391 5.34757L129.24 5.6752Z" fill="url(#paint6_linear_1772_22349)" fill-opacity="0.03"/>
<path d="M64.2557 6.78451C65.1272 6.63293 66.2819 6.59054 67.1534 6.43896C66.478 6.50361 65.8026 6.56829 65.3234 6.54601L64.2557 6.78451Z" fill="url(#paint7_linear_1772_22349)" fill-opacity="0.03"/>
<path d="M68.7 6.22208C68.2207 6.1998 67.5453 6.26444 67.0661 6.24217C67.8284 6.37365 68.3077 6.39594 68.7 6.22208Z" fill="url(#paint8_linear_1772_22349)" fill-opacity="0.03"/>
<path d="M96.8414 10.4123C102.046 12.0949 107.534 13.8868 112.52 16.1356C117.507 18.3844 123.059 20.8516 127.914 23.8627C148.227 35.2762 167.97 50.6972 187.033 70.4087C199.155 82.4019 208.989 94.0007 217.823 104.4C226.461 114.887 233.705 124.348 239.862 132.414C249.89 146.039 256.678 154.999 258.484 157.484C257.547 156.96 256.611 156.436 255.675 155.913C255.675 155.913 255.675 155.913 255.479 156C245.486 149.868 235.297 143.824 225.369 138.368C218.533 134.592 211.696 130.817 205.033 127.434C203.163 124.273 198.944 117.93 191.851 109.34C186.76 103.148 179.992 95.8223 171.33 87.9279C162.668 80.0335 151.915 71.6577 138.264 63.6275C127.422 57.1685 115.751 52.0157 104.209 48.2135C98.2421 46.3994 92.5581 44.6944 86.6556 43.5556C80.8624 42.1337 74.9377 41.4741 69.013 40.8145C48.3634 38.7021 28.2311 41.9924 12.6059 47.5092C28.2311 41.9924 47.8396 39.6382 67.4215 41.9892C89.8565 44.9531 112.439 53.0143 132.772 66.0615C145.464 74.0472 156.13 82.2268 165.098 89.7513C167.318 91.5833 169.538 93.4154 171.562 95.3344C173.586 97.2534 175.523 98.9762 177.46 100.699C181.334 104.145 184.642 107.372 187.58 110.294C193.652 116.051 198.221 121.066 201.333 124.38C202.247 125.383 203.074 126.19 203.705 127.084C197.239 123.614 190.946 120.536 184.457 117.545C177.882 114.358 171.197 111.453 164.882 108.855C161.681 107.457 158.567 106.256 155.366 104.859C152.252 103.657 149.138 102.456 146.024 101.255C140.08 98.9615 134.309 97.0604 128.821 95.2685C128.821 95.2685 128.821 95.2685 128.625 95.3555C122.854 93.4544 117.257 91.9456 111.746 90.6329C101.205 88.0299 91.9706 86.2559 84.129 85.5072C82.4082 85.3312 80.9704 85.2644 79.4458 85.0014C79.1627 84.8922 78.8796 84.783 78.5965 84.6738C76.7888 84.3016 73.9357 83.6887 70.4071 83.1405C66.8786 82.5923 62.5655 82.3918 57.3808 82.3429C54.8754 82.5146 52.1738 82.7732 49.1892 82.9226C46.2915 83.2682 43.2846 83.8968 40.2777 84.5254C37.6631 84.9801 35.4185 85.7402 33.1739 86.5003C30.9293 87.2604 28.6847 88.0205 26.7232 88.8898C22.604 90.7153 18.7902 92.1709 15.5203 94.324C8.82895 97.7589 4.14142 101.479 0.196133 103.697L0 103.784C3.94529 101.566 8.6105 98.325 15.4535 95.7616C22.1226 92.806 30.2941 90.5925 39.881 88.9251C51.6903 86.9768 61.8857 86.6824 69.315 85.9712C72.975 85.7571 75.9597 85.6077 77.9858 85.4138C80.012 85.2198 81.1666 85.1775 81.1666 85.1775C81.1666 85.1775 80.6004 84.959 79.8381 84.8275C81.0796 84.9813 82.3212 85.1351 83.7589 85.2019C88.159 85.5985 92.9291 86.3005 97.8731 87.3947C97.3938 87.3725 96.7184 87.4371 95.9561 87.3056C93.843 87.3035 90.6845 87.0606 86.8283 87.3616C79.3121 87.8766 68.9629 89.4126 58.3061 93.4314C53.9908 95.3439 50.177 96.7994 46.8201 98.7564C45.1417 99.735 43.5725 100.43 42.0903 101.322C40.608 102.214 39.1257 103.105 37.8396 103.91C34.9843 105.41 32.6951 107.128 30.7114 108.477C29.6214 109.195 28.4445 109.716 27.4637 110.151C26.483 110.585 25.6984 110.933 24.8268 111.085C25.6984 110.933 26.483 110.586 27.2676 110.238C28.2483 109.803 29.4252 109.282 30.6021 108.76C32.9559 107.717 35.5282 106.107 38.5574 105C40.1266 104.304 41.6958 103.609 43.265 102.913C45.1173 102.327 46.6865 101.632 48.7349 100.959C50.5003 100.176 52.5487 99.503 54.6841 99.026C56.7325 98.3528 58.9771 97.5927 61.1125 97.1157C72.4001 93.9905 81.9001 92.127 88.5247 90.1298C94.0593 88.8503 97.5677 87.7648 98.5484 87.3301C102.447 88.1837 106.629 89.1464 111.093 90.2184C115.841 91.3996 120.959 92.8861 126.077 94.3726C125.598 94.3503 124.835 94.2189 123.877 94.1743C121.198 93.9537 117.364 93.7755 112.375 93.6397C102.768 93.6733 89.4788 94.4002 75.5543 98.4593C64.5497 101.694 55.723 105.606 49.1185 109.236C43.5171 111.954 39.2441 115.021 35.4081 116.955C39.1349 115.304 43.8648 112.738 49.9232 110.523C57.2677 107.502 66.7253 104.484 78.4476 102.34C92.9807 99.6536 105.443 98.1198 114.245 96.8001C118.603 96.0422 122.176 95.632 124.508 95.0681C125.771 94.7426 126.643 94.591 127.318 94.5264C133.089 96.4275 138.947 98.5247 145.088 100.731C148.202 101.932 151.12 103.221 154.234 104.422C157.348 105.623 160.353 107.107 163.553 108.505C169.955 111.3 176.357 114.095 183.02 117.478C189.965 120.97 197.194 124.572 204.314 128.457C204.771 128.958 204.857 129.154 204.857 129.154C204.857 129.154 204.771 128.958 204.597 128.566C210.78 131.927 217.246 135.397 223.517 138.954C225.389 140.002 226.978 140.94 228.851 141.987C227.043 141.615 218.069 140.43 204.28 139.501C189.054 138.505 167.553 138.178 144.938 141.16C126.767 143.581 112.211 146.747 100.924 149.872C95.28 151.434 90.5078 152.845 86.4109 154.192C85.3432 154.43 84.3624 154.865 83.4909 155.016C82.7063 155.364 81.6386 155.603 80.7671 155.754C80.3748 155.928 79.8955 155.906 79.5032 156.08C79.8955 155.906 80.1786 156.015 80.3748 155.928C82.1178 155.625 83.9701 155.039 86.1055 154.562C90.2893 153.411 95.2355 152.393 101.249 151.136C112.885 148.795 128.354 146.633 147.329 145.498C170.836 143.997 191.314 143.604 206.041 142.944C219.221 142.5 227.413 141.921 228.764 141.791C236.34 146.178 244.004 150.76 251.667 155.342C247.637 155.251 238.902 155.133 227.072 155.448C222.933 155.639 218.315 155.809 213.413 155.869C208.598 156.126 203.304 156.36 197.814 156.681C195.113 156.939 192.237 156.806 189.449 156.868C186.377 156.822 183.11 156.862 179.842 156.902C176.661 157.138 173.59 157.092 170.126 157.219C166.945 157.455 163.568 157.778 160.3 157.818C138.993 159.517 121.585 162.07 108.142 164.038C96.4417 165.703 87.334 167.393 81.2131 166.82C87.4209 167.589 96.114 166.553 108.358 165.585C122.345 164.314 140.558 163.048 162.67 162.635C169.598 162.381 176.22 162.496 182.472 162.307C185.544 162.354 188.615 162.4 191.687 162.447C194.955 162.407 198.222 162.367 200.924 162.108C212.296 161.292 221.578 159.995 229.596 159.023C237.33 157.941 243.714 156.99 247.963 156.515C249.902 156.125 251.449 155.908 252.603 155.866C256.805 158.462 261.29 161.168 265.579 163.961C270.89 167.473 276.398 170.899 281.71 174.412C280.186 174.149 277.899 173.754 274.762 173.032C269.143 172.003 261.324 170.775 251.391 169.545C246.425 168.929 241.066 168.488 235.316 168.221C232.44 168.087 229.369 168.041 226.493 167.907C223.508 168.056 220.437 168.01 217.256 168.246C211.091 168.632 204.642 168.908 198.084 169.468C191.636 169.744 184.512 170.085 177.105 170.317C153.25 171.034 133.142 171.732 117.892 173.328C102.467 174.532 91.42 176.612 84.3629 175.515C91.333 176.415 102.335 175.294 117.999 175.158C133.967 174.651 154.771 175.522 179.8 176.398C187.577 176.471 195.049 176.914 202.173 176.573C209.013 176.123 215.658 175.759 221.627 175.461C224.612 175.311 227.51 174.966 230.298 174.903C233.283 174.754 235.875 174.778 238.664 174.716C244.044 174.678 249.142 174.531 253.848 174.557C269.206 174.791 279.292 174.779 282.363 174.826C283.756 175.851 285.346 176.79 286.935 177.728C293.923 182.375 300.911 187.022 307.986 191.865C308.639 192.28 309.009 192.585 309.662 193C308.138 192.737 305.851 192.342 302.605 191.903C296.877 191.157 288.578 189.906 278.34 189.046C268.016 187.99 255.861 187.041 242.333 186.7C235.71 186.585 228.609 186.447 221.289 186.875C214.078 187.02 206.497 186.859 198.524 186.873C172.797 186.541 151.447 187.086 134.672 188.419C126.763 189.108 119.247 189.623 112.689 190.183C109.509 190.419 106.524 190.568 104.019 190.74C102.864 190.782 101.622 190.629 100.468 190.671C101.426 190.716 102.472 190.956 103.626 190.914C106.219 190.938 109.203 190.789 112.275 190.836C118.723 190.559 126.217 190.523 134.779 190.249C152.163 190.289 174.317 191.03 201.11 193.236C209.344 193.811 217.382 194.473 224.789 194.241C232.086 194.292 239.101 194.234 245.833 194.067C259.187 194.015 270.994 194.18 280.601 194.146C296.068 194.097 306.459 193.715 310.01 193.784C316.149 198.104 322.571 202.532 328.513 206.938C332.976 210.123 337.439 213.308 341.705 216.58C337.109 216.27 327.328 215.912 313.865 216.247C304.541 216.389 293.278 216.922 281.208 218.282C275.129 218.864 268.658 219.62 262.274 220.572C258.984 221.091 255.891 221.524 252.231 221.738C248.767 221.865 245.107 222.079 241.447 222.293C217.373 223.575 197.047 224.839 180.381 225.89C171.993 226.556 164.586 226.788 157.941 227.152C151.21 227.319 145.437 227.531 140.232 225.848L139.753 225.826C144.957 227.508 150.731 227.297 157.636 227.522C164.651 227.463 172.428 227.537 180.967 227.742C198.351 227.781 219.656 228.195 244.991 228.701C248.825 228.879 252.768 228.774 256.428 228.56C260.175 228.542 264.031 228.241 267.125 227.809C273.792 226.966 279.98 226.101 285.971 225.323C297.954 223.767 308.39 222.427 317.193 221.108C325.799 219.875 332.771 218.662 337.412 218.013C339.634 217.733 341.377 217.429 342.641 217.104C344.774 218.74 346.821 220.18 349.15 221.729C350.739 222.667 352.219 223.888 353.613 224.914C352.545 225.152 350.409 225.629 347.119 226.148C342.369 227.08 335.702 227.923 327.379 229.265C310.929 231.862 287.703 235.585 260.229 239.782C222.405 245.516 191.384 245.418 170.538 243.393C173.304 243.81 176.07 244.226 179.033 244.556C185.829 245.064 193.845 246.205 202.471 246.606C219.897 247.8 240.636 247.996 264.056 246.299C292.966 244.282 315.78 239.099 330.991 234.235C338.596 231.803 344.654 229.588 348.49 227.653C351.433 226.349 353.111 225.37 353.896 225.023C358.641 228.317 363.3 231.415 367.959 234.513C366.891 234.751 365.235 235.251 363.012 235.532C358.546 236.573 352.336 237.917 344.383 239.564C340.308 240.431 335.754 241.276 331.004 242.208C326.254 243.14 321.395 244.354 316.34 245.656C306.229 248.26 294.854 251.189 283.065 254.771C278.293 256.182 273.543 257.114 268.967 258.438C264.304 259.566 259.75 260.41 255.392 261.168C246.764 262.88 238.55 263.939 230.924 264.737C215.87 266.247 202.538 265.819 192.26 261.691L191.694 261.473C201.885 265.404 215.368 266.703 231.511 266.589C239.484 266.576 248.351 265.932 257.61 265.113C262.338 264.661 267.066 264.208 272.186 263.582C277.023 262.846 282.339 262.133 287.568 261.223C300.358 258.84 311.732 255.911 321.865 252.829C332.651 250.16 341.434 247.207 348.582 244.274C355.534 241.427 360.743 238.884 364.296 236.84C365.975 235.861 367.261 235.057 368.242 234.622C368.525 234.731 368.895 235.037 369.178 235.146C373.206 237.35 377.124 239.837 381.152 242.042C380.368 242.389 379.191 242.911 378.014 243.433C374.287 245.084 368.882 247.714 361.93 250.561C354.781 253.494 346.565 256.666 336.628 259.662C331.66 261.16 326.299 262.832 320.568 264.198C317.648 265.023 314.642 265.651 311.722 266.476C308.802 267.301 306.165 268.235 303.245 269.06C284.918 274.835 268.14 278.281 253.304 279.224C238.272 280.254 225.181 278.781 215.054 275.525L214.575 275.503C224.614 278.563 238.14 281.017 253.977 281.273C261.841 281.542 270.512 280.985 279.488 280.057C284.02 279.692 288.661 279.043 293.497 278.307C295.916 277.939 298.334 277.572 300.666 277.008C302.017 276.878 302.997 276.444 304.348 276.314C305.699 276.185 307.246 275.969 308.597 275.84C322.889 274.199 334.373 270.987 343.766 267.293C353.268 263.317 360.875 258.772 366.914 254.923C372.865 250.877 376.877 247.222 379.777 244.763C380.78 243.849 381.587 243.022 382.285 242.478C384.81 243.941 387.532 245.316 390.057 246.778C390.623 246.996 391.277 247.411 391.843 247.629C391.145 248.173 389.946 249.174 388.158 250.435C386.763 251.523 384.866 253.068 382.773 254.699C380.68 256.331 378.391 258.049 375.709 259.942C370.347 263.726 363.698 268.316 355.698 273.035C351.839 275.448 347.502 277.84 342.685 280.21C340.418 281.449 337.868 282.579 335.405 283.905C332.855 285.035 330.501 286.078 327.755 287.295C319.234 290.837 310.67 293.225 302.042 294.937C297.684 295.694 293.522 296.365 289.187 296.644C285.505 297.337 282.105 298.14 278.815 298.659C265.372 300.628 253.369 300.55 244.112 299.255L243.633 299.233C252.89 300.528 265.045 301.477 279.576 300.904C281.406 300.797 283.236 300.69 285.066 300.583C285.937 300.431 287.179 300.585 288.333 300.542C289.488 300.5 290.73 300.654 291.884 300.612C296.59 300.638 301.491 300.578 306.219 300.125C315.957 299.329 325.435 297.945 335.198 294.557C359.191 286.74 372.645 274.207 381.173 264.326C387.782 256.469 391.034 250.569 392.104 248.218C394.825 249.593 397.46 250.772 400.182 252.147C403.666 253.653 407.04 255.443 410.437 256.754C413.834 258.064 417.428 259.288 420.912 260.794C422.61 261.45 424.309 262.105 426.007 262.76C427.706 263.415 429.513 263.787 431.125 264.247C437.854 266.192 444.475 268.421 451.139 269.691C454.276 270.413 457.608 271.048 460.744 271.77C463.88 272.493 467.039 272.735 470.088 273.261C494.505 276.99 514.809 276.205 528.731 274.258C535.594 273.329 540.933 272.136 544.332 271.334C547.927 270.444 549.583 269.945 549.583 269.945C550.847 269.62 551.959 268.423 551.416 267.725C551.242 267.333 550.675 267.114 549.913 266.983C549.347 266.765 548.672 266.829 548.083 267.09C548.083 267.09 547.691 267.264 546.819 267.415C545.948 267.567 544.684 267.892 543.028 268.392C541.372 268.891 539.149 269.172 536.622 269.823C534.007 270.278 531.109 270.623 527.623 271.229C514.093 273.002 494.072 273.896 470.026 270.473C466.976 269.947 463.818 269.704 460.965 269.091C457.828 268.369 454.692 267.647 451.556 266.925C447.744 266.268 443.759 265.218 439.883 263.885C440.384 263.428 440.886 262.971 441.387 262.515C443.982 260.426 447.209 257.118 450.874 252.678C457.832 243.493 465.493 229.538 468.714 211.919C469.545 208.5 470.18 205.168 470.815 201.835C471.254 198.59 471.693 195.345 472.023 192.383C472.879 186.372 473.799 181.036 474.132 175.96C474.882 166.006 475.827 158.078 476.966 152.176L477.075 151.893C476.133 157.708 474.425 165.505 472.433 175.305C471.339 180.249 469.656 185.453 467.951 191.137C467.142 194.077 466.333 197.017 465.414 200.24C464.213 203.353 463.012 206.467 461.701 209.864C455.846 226.304 449.536 240.13 444.951 249.906C442.419 254.783 440.694 258.832 439.036 261.445C438.621 262.098 438.293 262.947 437.988 263.317C435.81 262.639 433.632 261.962 431.259 261.371C429.647 260.912 427.839 260.54 426.141 259.885C424.442 259.23 422.744 258.574 421.045 257.919C418.497 256.936 415.753 256.04 413.119 254.861C415.386 253.622 421.315 250.056 427.574 243.527C431.521 239.196 435.709 233.82 439.398 226.788C442.891 219.843 445.949 211.917 447.527 202.77C450.417 188.113 450.736 175.065 450.637 164.783C450.294 159.773 450.43 154.785 450.238 150.646C449.763 146.398 449.832 142.847 449.683 139.863L449.596 139.666C449.549 142.738 449.567 146.484 449.672 150.427C449.581 154.457 449.162 159.336 448.83 164.411C447.687 174.539 445.583 186.735 440.82 200.345C435.138 217.177 427.87 230.959 422.24 240.494C417.657 248.157 413.97 253.076 412.64 254.839C412.073 254.621 411.311 254.489 410.658 254.075C407.065 252.851 403.69 251.061 400.402 249.468C399.183 248.835 397.767 248.289 396.548 247.656C400.91 242.672 405.928 235.99 410.49 226.693C415.271 216.83 419.706 204.07 422.555 188.258C424.351 178.545 424.993 168.874 425.198 160.335C425.316 151.6 424.691 144.368 424.328 137.723C424.308 136.09 424.091 134.543 423.962 133.192C423.833 131.841 423.617 130.295 423.378 129.227C423.01 126.809 422.729 124.587 422.513 123.04C421.994 119.75 421.887 117.92 421.517 117.615C421.517 117.615 421.777 118.203 421.45 119.052C421.318 119.815 421.251 121.252 420.988 122.777C420.812 124.497 420.723 126.414 420.416 128.897C420.262 130.139 420.304 131.293 420.237 132.731C420.171 134.169 419.821 135.497 419.841 137.131C419.355 143.447 418.629 150.809 418.054 159.043C417.479 167.276 416.576 176.359 415.629 186.4C414.771 194.524 413.871 201.494 412.601 208.158C411.243 214.626 409.821 220.419 408.138 225.623C404.795 235.553 400.888 243.151 396.439 247.939C394.37 246.978 392.215 245.822 389.95 244.948C388.731 244.315 387.512 243.682 386.292 243.049C387.71 241.482 391.985 236.302 396.068 226.983C398.449 221.235 401.266 214.354 402.909 205.882C403.872 201.701 404.464 197.214 405.363 192.358C405.67 189.875 405.781 187.479 406.089 184.996C406.397 182.513 406.421 179.921 406.445 177.328C406.45 173.103 406.454 168.877 406.546 164.847C406.441 160.904 406.336 156.961 406.122 153.301C405.908 149.642 405.584 146.265 405.261 142.888C405.109 142.017 405.241 141.254 404.806 140.274C404.372 139.293 404.133 138.225 403.698 137.245C403.025 135.196 402.243 133.431 401.57 131.383C400.397 127.679 398.549 124.039 396.788 120.595C395.027 117.152 393.832 113.927 392.245 110.875C390.832 108.216 389.396 106.037 388.157 103.77C392.223 111.355 395.939 120.268 398.739 130.291C399.824 133.799 400.605 137.677 401.385 141.555L401.927 144.366C402.078 145.237 401.947 146 401.902 146.958C401.922 148.592 401.746 150.313 401.766 151.946C401.345 158.938 400.706 166.496 399.455 174.794C399.148 177.277 398.644 179.847 398.25 182.134C397.746 184.704 397.548 186.904 397.153 189.191C396.277 193.568 395.684 198.055 394.722 202.236C393.275 210.621 391.503 217.742 390.255 223.928C387.87 233.902 386.121 240.544 385.639 242.634C384.703 242.111 383.484 241.478 382.461 240.758L382.657 240.671C382.657 240.671 382.657 240.671 382.461 240.758C379.282 238.881 376.103 237.005 372.816 235.411C373.647 231.992 374.587 228.29 375.856 223.738C376.928 219.274 378.131 214.047 379.553 208.254C382.31 196.473 385.179 182.295 387.418 165.11C387.55 164.348 387.572 163.869 387.704 163.107L387.706 160.994C387.773 159.556 387.556 158.009 387.427 156.658C387.278 153.674 386.932 150.777 386.587 147.879C385.895 142.084 384.812 136.463 383.336 131.016C380.581 120.034 376.54 109.857 372.518 101.314C370.409 97.086 368.475 93.2501 366.517 89.8935C364.277 86.4277 362.581 83.6595 361.058 81.2836C357.817 76.6187 356.208 74.0466 356.208 74.0466C356.208 74.0466 357.338 76.5964 359.055 80.9984C360.011 83.1559 361.228 85.9018 362.51 89.323C363.704 92.5482 364.986 95.9694 366.333 100.066C371.741 115.973 376.685 137.718 379.122 161.747C379.294 164.252 379.575 166.475 379.659 168.784C379.744 171.093 380.112 173.511 379.936 175.232C379.648 179.348 379.383 182.986 379.118 186.623C378.588 193.898 377.884 200.781 377.311 206.902C375.969 219.229 374.674 228.486 372.729 235.215L372.816 235.411C371.596 234.778 370.377 234.145 369.071 233.316C362.257 229.061 355.552 224.523 348.847 219.986C342.055 215.252 335.176 210.322 328.384 205.588C325.598 203.537 322.615 201.574 319.742 199.327C319.787 198.369 319.985 196.169 319.923 193.38C319.84 188.958 319.477 182.314 318.157 173.512C315.408 156.192 307.853 130.676 290.239 100.467C275.712 76.1637 259.46 55.9105 243.988 39.5354C228.429 22.9643 213.062 10.5321 201.395 1.15332L200.742 0.738762C212.605 10.0306 226.904 22.7013 241.025 39.2056C255.147 55.71 269.199 75.7649 281.831 99.4997C297.094 128.639 306.675 153.961 312.19 171.698C316.706 186.123 318.853 195.732 319.568 198.935C315.759 196.164 311.753 193.481 307.748 190.798C302.915 187.307 297.973 184.1 293.032 180.893C292.728 179.15 291.235 169.956 286.741 155.052C284.244 146.771 280.682 136.617 275.356 125.132C270.031 113.647 262.399 100.133 251.498 86.66C234.181 64.5323 216.096 46.4991 198.705 32.1479C190.108 24.9288 181.466 18.6681 173.062 13.4751C169.057 10.7917 164.746 8.47823 160.718 6.27399C158.562 5.11726 156.211 4.04747 153.859 2.97768C155.928 3.93827 157.996 4.89884 159.869 5.94636C163.897 8.1506 168.011 10.551 171.821 13.3214C179.832 18.6883 187.602 25.1005 195.721 32.2973C211.565 46.8647 227.819 65.005 243.416 86.9566C253.162 100.472 260.469 112.722 266.273 124.229C271.991 135.541 276.991 145.762 280.729 154.196C284.467 162.63 287.51 169.495 289.793 174.115C291.357 177.645 292.401 179.999 292.835 180.98C290.789 179.54 288.83 178.296 286.587 176.943C282.212 173.955 277.923 171.162 273.438 168.456C272.526 165.34 270.117 157.256 265.119 144.922C258.447 129.34 247.665 107.132 227.409 82.0825C211.244 62.0254 193.855 45.5613 176.484 32.8438C159.766 20.5409 142.87 12.0717 128.433 6.50211C142.87 12.0717 158.699 20.7794 173.5 32.9932C189.324 45.9269 204.6 62.3889 219.044 82.2699C236.729 106.816 249.843 128.46 258.998 144.349C265.848 156.097 270.545 164.576 272.502 167.933C269.977 166.47 267.56 164.725 265.035 163.263C262.139 161.496 259.157 159.532 256.065 157.852C255.63 156.871 254.674 154.714 253 151.466C250.804 147.042 247.456 140.547 242.737 132.548C238.018 124.549 231.645 114.936 223.509 103.992C214.981 93.2226 205.059 81.4278 191.979 69.39C171.173 49.9816 149.993 34.4938 128.023 23.5796C125.302 22.2045 122.58 20.8293 119.945 19.6503C117.114 18.5583 114.48 17.3793 111.649 16.2872C106.379 13.9292 100.499 12.3112 95.0983 10.7154C89.6974 9.11971 83.8819 8.17703 78.5456 7.25664C75.5833 6.92684 72.4248 6.68397 69.3532 6.63724C71.9455 6.6617 74.9079 6.99149 77.5872 7.21209C86.0173 7.7 91.5274 9.01268 96.8414 10.4123Z" fill="url(#paint9_linear_1772_22349)" fill-opacity="0.03"/>
<path d="M72.4471 6.20437C72.164 6.09517 71.9678 6.18211 71.4886 6.15983C71.7717 6.26904 72.2509 6.29131 72.4471 6.20437Z" fill="url(#paint10_linear_1772_22349)" fill-opacity="0.03"/>
<path d="M74.4334 23.3934C74.9127 23.4157 75.5881 23.3511 76.0673 23.3734C75.7842 23.2641 75.3919 23.438 75.1088 23.3288L74.4334 23.3934Z" fill="url(#paint11_linear_1772_22349)" fill-opacity="0.03"/>
<path d="M80.2934 23.3772C79.8141 23.3549 79.618 23.4418 79.1387 23.4195C79.618 23.4418 80.0103 23.268 80.2934 23.3772Z" fill="url(#paint12_linear_1772_22349)" fill-opacity="0.03"/>
<path d="M76.0673 23.3734C76.5465 23.3956 77.2219 23.3311 77.7012 23.3534C77.0258 23.418 76.5465 23.3956 76.0673 23.3734Z" fill="url(#paint13_linear_1772_22349)" fill-opacity="0.03"/>
<path d="M98.1973 26.7076C102.27 27.9534 106.342 29.1992 110.392 30.9243C114.442 32.6493 118.493 34.3744 122.52 36.5786C126.548 38.7829 130.576 40.9871 134.495 43.4744C138.413 45.9617 142.223 48.7321 146.119 51.6986C149.82 54.7521 153.324 57.8924 157.111 61.142C160.702 64.4785 164.38 68.0112 168.145 71.74C186.403 90.1655 201.09 106.888 211.578 118.902C222.066 130.915 228.354 138.219 228.354 138.219C228.354 138.219 227.288 136.344 225.331 132.988C223.374 129.631 220.242 124.683 215.826 118.427C207.278 106.023 194.334 88.9974 174.158 70.4827C170.11 66.6447 166.04 63.286 162.166 59.8403C158.292 56.3945 154.113 53.3188 150.02 50.4392C141.748 44.4839 133.039 39.6609 124.482 35.7093C115.925 31.7577 107.236 28.5684 98.9819 26.3598C94.9095 25.114 90.6186 24.4343 86.6109 23.8638C84.607 23.5786 82.6031 23.2934 80.6861 23.2043C80.49 23.2912 80.403 23.095 80.2069 23.182C82.1238 23.2711 83.9316 23.6432 85.9354 23.9285C90.0302 24.6951 94.4079 25.571 98.1973 26.7076Z" fill="url(#paint14_linear_1772_22349)" fill-opacity="0.03"/>
<path d="M6.96213 49.0715C8.92363 48.2022 10.9721 47.5291 13.0205 46.8559C10.5798 47.7029 8.33516 48.463 6.17751 49.4193L6.96213 49.0715Z" fill="url(#paint15_linear_1772_22349)" fill-opacity="0.03"/>
<path d="M66.996 53.2066C69.7622 53.6234 72.4192 54.3232 75.4685 54.8491C78.3217 55.462 81.1748 56.0748 84.1149 56.8838C96.0936 59.5537 107.395 64.4012 119.349 69.6632C138.249 78.4177 151.833 87.8856 162.216 95.956C164.806 98.0935 167.222 99.8386 169.529 101.867C171.749 103.699 173.773 105.618 175.71 107.341C179.585 110.786 182.609 113.905 184.981 116.608L185.264 116.717C180.325 111.397 173.84 104.18 164.155 95.5659C154.557 87.1478 142.259 76.8753 124.188 66.8146C112.954 60.5295 100.977 55.7467 88.6285 52.7715C76.4759 49.7093 64.3434 48.2809 53.4726 48.64C50.6841 48.7025 47.9825 48.9611 45.4771 49.1328C42.9717 49.3045 40.6625 49.3892 38.3309 49.9532C33.7771 50.798 30.0078 51.2951 26.6086 52.0976C20.0933 53.8118 16.5849 54.8973 16.5849 54.8973C16.5849 54.8973 19.8749 54.3779 25.9756 53.3168C28.9825 52.6882 32.7295 52.6703 36.7818 52.2824C41.0303 51.8075 45.5396 51.9211 50.7243 51.97C51.8789 51.9276 53.3166 51.9944 54.7543 52.0613C55.9959 52.215 57.4336 52.2819 58.6751 52.4356C61.5506 52.5693 64.2298 52.7899 66.996 53.2066Z" fill="url(#paint16_linear_1772_22349)" fill-opacity="0.03"/>
<path d="M138.517 93.318C141.043 94.7801 143.198 95.9368 145.157 97.1805C147.117 98.4242 148.706 99.3625 150.208 100.105C153.017 101.676 154.41 102.701 154.41 102.701C154.41 102.701 153.496 101.698 151.385 99.583C149.361 97.664 146.227 94.829 141.961 91.5572C133.428 85.0134 120.584 76.1563 101.007 69.5794C85.5017 64.2483 70.146 61.9017 56.5089 61.8441C42.9588 61.9826 31.0404 64.214 22.4766 66.6013L22.0843 66.7752C26.5512 65.7342 31.5196 64.2363 37.2058 63.8282C39.9073 63.5696 43.0012 63.1372 46.0728 63.1839C49.1444 63.2306 52.2159 63.2773 55.4836 63.2371C68.3138 64.1217 82.5795 67.186 96.9077 73.0387C114.546 80.0057 128.502 87.6659 138.517 93.318Z" fill="url(#paint17_linear_1772_22349)" fill-opacity="0.03"/>
<path d="M109.42 86.9711C113.775 88.3262 117.063 89.9197 119.328 90.7934C121.592 91.667 123.008 92.2131 123.008 92.2131C123.008 92.2131 119.787 89.1819 112.493 84.9049C105.287 80.824 93.921 75.3012 77.6068 72.91C74.1653 72.558 71.116 72.032 67.9575 71.7891C64.799 71.5463 61.7274 71.4996 58.7427 71.649C55.7581 71.7984 52.7735 71.9478 50.0719 72.2064C47.2834 72.2689 44.6688 72.7236 42.0542 73.1784C39.4396 73.6331 37.0211 74.0009 34.6896 74.5649C32.445 75.325 30.1135 75.8889 28.065 76.5621C23.8812 77.7123 20.3505 79.277 17.3213 80.3848L17.1252 80.4718C20.1544 79.364 23.6851 77.7992 27.7597 76.9321C29.895 76.4551 32.0304 75.9781 34.1658 75.501C36.4973 74.9371 38.8066 74.8523 41.225 74.4845C46.1489 73.945 51.3336 73.9939 57.0844 74.2612C62.6391 74.6155 68.3677 75.362 74.3571 76.6969C89.102 79.7836 101.014 83.8911 109.42 86.9711Z" fill="url(#paint18_linear_1772_22349)" fill-opacity="0.03"/>
<path d="M25.8942 110.845C26.1782 110.955 26.1782 110.955 25.8942 110.845V110.845Z" fill="url(#paint19_linear_1772_22349)" fill-opacity="0.03"/>
<path d="M34.6882 117.978C34.8843 117.891 35.0805 117.804 35.4728 117.63C35.0805 117.804 35.0805 117.804 34.6882 117.978Z" fill="url(#paint20_linear_1772_22349)" fill-opacity="0.03"/>
<path d="M137.677 105.189C142.601 104.65 146.37 104.153 149.072 103.894C151.773 103.635 153.32 103.419 153.32 103.419C153.32 103.419 151.599 103.243 148.637 102.913C145.675 102.583 141.274 102.187 136.003 101.942C125.263 101.539 110.34 102.286 96.0012 106.998C84.299 110.776 76.8431 116.192 70.5218 119.932C67.5349 122.195 64.3096 123.39 61.9335 124.912C60.5605 125.52 59.3836 126.042 58.2067 126.564C57.1167 127.281 56.1359 127.716 55.1552 128.151L54.959 128.238C55.9398 127.803 56.8336 127.172 58.0105 126.651C59.1874 126.129 60.4512 125.804 62.0204 125.108C63.3935 124.5 64.6796 123.695 66.5319 123.109C68.188 122.609 69.8665 121.631 71.6318 120.848C78.8894 117.632 87.3461 113.415 99.5699 110.814C114.408 107.757 128.025 106.181 137.677 105.189Z" fill="url(#paint21_linear_1772_22349)" fill-opacity="0.03"/>
<path d="M116.419 122.354C135.526 120.456 152.279 119.602 164.327 118.722C176.266 118.124 183.303 117.587 183.303 117.587C183.303 117.587 181.299 117.301 177.77 116.753C174.242 116.205 169.079 115.677 162.566 115.278C149.823 114.59 132.069 114.245 113.744 117.907C99.0151 120.68 87.6829 124.764 79.2484 128.502C70.814 132.24 65.538 136.22 61.2227 138.133L61.0265 138.22C65.3419 136.307 70.7917 132.719 79.9662 129.592C88.8354 126.834 100.972 124.037 116.419 122.354Z" fill="url(#paint22_linear_1772_22349)" fill-opacity="0.03"/>
<path d="M183.359 126.714C169.178 125.959 149.202 125.895 128.394 129.25C111.748 131.933 98.4117 135.732 88.7356 139.316C78.7765 142.791 72.259 146.618 67.509 147.55L67.3129 147.637C72.259 146.618 78.8412 143.466 89.3442 140.689C99.8472 137.912 113.705 135.29 131.265 133.609C152.964 131.736 172.114 130.994 185.599 130.18C199.085 129.366 206.993 128.677 206.993 128.677C206.993 128.677 204.793 128.479 200.785 127.908C196.472 127.708 190.547 127.048 183.359 126.714Z" fill="url(#paint23_linear_1772_22349)" fill-opacity="0.03"/>
<path d="M77.8695 156.1C78.3487 156.122 78.8279 156.144 79.2203 155.97C78.741 155.948 78.0657 156.013 77.5864 155.991L77.8695 156.1Z" fill="url(#paint24_linear_1772_22349)" fill-opacity="0.03"/>
<path d="M80.6469 166.602L80.93 166.711C80.6469 166.602 80.4508 166.689 80.1677 166.579L80.6469 166.602Z" fill="url(#paint25_linear_1772_22349)" fill-opacity="0.03"/>
<path d="M101.165 190.127C101.165 190.127 100.882 190.017 100.599 189.908C100.599 189.908 100.882 190.017 101.165 190.127Z" fill="url(#paint26_linear_1772_22349)" fill-opacity="0.03"/>
<path d="M99.641 189.864C99.1618 189.842 98.7918 189.536 98.5087 189.427C98.9879 189.449 99.3579 189.755 99.641 189.864Z" fill="url(#paint27_linear_1772_22349)" fill-opacity="0.03"/>
<path d="M101.841 190.062C101.645 190.149 101.558 189.953 101.362 190.04C101.362 190.04 101.645 190.149 101.841 190.062Z" fill="url(#paint28_linear_1772_22349)" fill-opacity="0.03"/>
<path d="M98.5087 189.427C98.2256 189.318 97.9424 189.209 97.9424 189.209L98.5087 189.427Z" fill="url(#paint29_linear_1772_22349)" fill-opacity="0.03"/>
<path d="M218.541 210.855C222.571 210.946 226.797 210.951 230.85 210.563C234.423 210.152 238.083 209.938 241.46 209.615C248.497 209.078 255.25 208.431 261.699 208.155C274.509 207.405 285.968 206.786 295.685 206.469C305.314 205.956 312.917 205.637 318.211 205.403C323.505 205.169 326.206 204.91 326.206 204.91C326.206 204.91 322.961 204.471 317.232 203.725C311.504 202.978 303.183 202.207 293.032 201.543C282.881 200.879 270.791 200.605 257.611 201.049C251.075 201.13 244.038 201.667 237.088 202.4C233.515 202.811 229.942 203.221 226.369 203.631C224.539 203.738 223.079 204.15 221.249 204.257C219.419 204.364 217.589 204.471 215.759 204.578C203.341 205.154 191.447 204.793 180.489 204.956C169.728 205.032 159.925 205.153 151.167 205.514C142.409 205.875 134.806 206.194 128.271 206.274C121.735 206.355 115.962 206.567 111.214 205.386L110.735 205.363C115.287 206.631 121.06 206.42 127.769 206.731C134.871 206.869 142.735 207.139 151.274 207.344C160.183 207.854 170.356 208.039 181.553 208.943C192.771 209.369 205.209 210.427 218.541 210.855Z" fill="url(#paint30_linear_1772_22349)" fill-opacity="0.03"/>
<path d="M162.458 241.576C162.654 241.489 162.937 241.598 162.937 241.598L162.458 241.576Z" fill="url(#paint31_linear_1772_22349)" fill-opacity="0.03"/>
<path d="M171.824 242.588C168.579 242.149 165.812 241.732 163.133 241.512C165.703 242.015 168.665 242.345 171.824 242.588Z" fill="url(#paint32_linear_1772_22349)" fill-opacity="0.03"/>
<path d="M392.053 296.815C395.613 288.432 398.169 280.963 400.289 274.626C404.528 261.953 406.149 253.96 406.149 253.96C406.149 253.96 401.24 260.359 393.996 271.549C390.374 277.143 386.206 284.153 381.82 291.729C379.66 294.798 375.474 298.061 370.831 300.823C366.275 303.781 360.87 306.411 355.268 309.128C346.049 313.214 336.701 315.949 327.571 318.118C322.908 319.246 318.354 320.09 313.713 320.739C309.269 321.301 304.933 321.58 300.598 321.858C292.036 322.133 283.693 321.841 275.764 320.896C274.806 320.852 273.761 320.611 272.802 320.566C271.757 320.326 271.168 320.586 270.406 320.455C268.968 320.388 267.617 320.517 266.18 320.451C263.587 320.426 260.908 320.205 258.512 320.094L258.033 320.072C260.429 320.183 262.912 320.491 265.591 320.711C267.029 320.778 268.467 320.845 269.904 320.912L271.059 320.869C271.538 320.892 271.734 320.805 272.301 321.023C273.346 321.264 274.304 321.308 275.35 321.549C283.735 322.995 292.623 323.985 302.011 324.517C304.407 324.629 306.803 324.74 309.113 324.655C311.509 324.767 314.014 324.595 316.52 324.423C321.53 324.08 326.737 323.65 331.857 323.023C336.977 322.397 342.207 321.487 347.349 320.382C352.687 319.189 358.048 317.517 363.322 315.649C369.773 313.26 375.461 310.739 380.213 307.694C385.248 304.759 389.434 301.496 392.053 296.815Z" fill="url(#paint33_linear_1772_22349)" fill-opacity="0.03"/>
<path d="M401.219 322.79C413.086 307.205 415.043 289.912 415.709 277.648C416.092 265.276 414.249 257.41 414.249 257.41C414.249 257.41 412.586 264.249 409.002 275.224C405.418 286.199 400.283 301.616 391.269 317.813C387.516 324.17 383.218 329.829 378.377 334.791C373.645 339.469 368.173 343.537 362.571 346.254C359.999 347.863 356.97 348.971 354.137 349.992C351.304 351.013 348.471 352.034 345.943 352.685C339.842 353.746 334.613 354.655 329.689 355.195L329.21 355.172C333.938 354.72 339.733 354.029 346.204 353.273C349.211 352.644 352.218 352.016 355.421 351.3C358.624 350.585 362.306 349.891 365.248 348.587C368.474 347.393 371.808 345.915 375.339 344.35C378.303 342.567 381.464 340.697 384.734 338.544C390.795 334.215 396.507 329.102 401.219 322.79Z" fill="url(#paint34_linear_1772_22349)" fill-opacity="0.03"/>
<path d="M447.002 267.77C447.002 267.77 444.709 273.714 441.343 284.123C438.087 294.249 433.955 308.752 429.537 325.259C426.038 338.543 421.583 349.67 415.823 357.854C410.063 366.039 402.041 371.237 394.131 374.038L393.738 374.212C401.366 371.301 411.064 367.238 418.915 359.535C427.048 351.941 434.444 341.623 439.947 328.624C446.847 312.425 447.757 297.003 447.79 285.959C448.128 274.545 447.002 267.77 447.002 267.77Z" fill="url(#paint35_linear_1772_22349)" fill-opacity="0.03"/>
<defs>
<linearGradient id="paint0_linear_1772_22349" x1="332.26" y1="267.818" x2="167.015" y2="-30.2405" gradientUnits="userSpaceOnUse">
<stop stop-color="#C4A767"/>
<stop offset="0.959324" stop-color="#C4A767" stop-opacity="0"/>
</linearGradient>
<linearGradient id="paint1_linear_1772_22349" x1="332.26" y1="267.818" x2="167.015" y2="-30.2405" gradientUnits="userSpaceOnUse">
<stop stop-color="#C4A767"/>
<stop offset="0.959324" stop-color="#C4A767" stop-opacity="0"/>
</linearGradient>
<linearGradient id="paint2_linear_1772_22349" x1="332.26" y1="267.818" x2="167.015" y2="-30.2405" gradientUnits="userSpaceOnUse">
<stop stop-color="#C4A767"/>
<stop offset="0.959324" stop-color="#C4A767" stop-opacity="0"/>
</linearGradient>
<linearGradient id="paint3_linear_1772_22349" x1="332.26" y1="267.818" x2="167.015" y2="-30.2405" gradientUnits="userSpaceOnUse">
<stop stop-color="#C4A767"/>
<stop offset="0.959324" stop-color="#C4A767" stop-opacity="0"/>
</linearGradient>
<linearGradient id="paint4_linear_1772_22349" x1="332.26" y1="267.818" x2="167.015" y2="-30.2405" gradientUnits="userSpaceOnUse">
<stop stop-color="#C4A767"/>
<stop offset="0.959324" stop-color="#C4A767" stop-opacity="0"/>
</linearGradient>
<linearGradient id="paint5_linear_1772_22349" x1="332.26" y1="267.818" x2="167.015" y2="-30.2405" gradientUnits="userSpaceOnUse">
<stop stop-color="#C4A767"/>
<stop offset="0.959324" stop-color="#C4A767" stop-opacity="0"/>
</linearGradient>
<linearGradient id="paint6_linear_1772_22349" x1="332.26" y1="267.818" x2="167.015" y2="-30.2405" gradientUnits="userSpaceOnUse">
<stop stop-color="#C4A767"/>
<stop offset="0.959324" stop-color="#C4A767" stop-opacity="0"/>
</linearGradient>
<linearGradient id="paint7_linear_1772_22349" x1="332.26" y1="267.818" x2="167.015" y2="-30.2405" gradientUnits="userSpaceOnUse">
<stop stop-color="#C4A767"/>
<stop offset="0.959324" stop-color="#C4A767" stop-opacity="0"/>
</linearGradient>
<linearGradient id="paint8_linear_1772_22349" x1="332.26" y1="267.818" x2="167.015" y2="-30.2405" gradientUnits="userSpaceOnUse">
<stop stop-color="#C4A767"/>
<stop offset="0.959324" stop-color="#C4A767" stop-opacity="0"/>
</linearGradient>
<linearGradient id="paint9_linear_1772_22349" x1="332.26" y1="267.818" x2="167.015" y2="-30.2405" gradientUnits="userSpaceOnUse">
<stop stop-color="#C4A767"/>
<stop offset="0.959324" stop-color="#C4A767" stop-opacity="0"/>
</linearGradient>
<linearGradient id="paint10_linear_1772_22349" x1="332.26" y1="267.818" x2="167.015" y2="-30.2405" gradientUnits="userSpaceOnUse">
<stop stop-color="#C4A767"/>
<stop offset="0.959324" stop-color="#C4A767" stop-opacity="0"/>
</linearGradient>
<linearGradient id="paint11_linear_1772_22349" x1="332.26" y1="267.818" x2="167.015" y2="-30.2405" gradientUnits="userSpaceOnUse">
<stop stop-color="#C4A767"/>
<stop offset="0.959324" stop-color="#C4A767" stop-opacity="0"/>
</linearGradient>
<linearGradient id="paint12_linear_1772_22349" x1="332.26" y1="267.818" x2="167.015" y2="-30.2405" gradientUnits="userSpaceOnUse">
<stop stop-color="#C4A767"/>
<stop offset="0.959324" stop-color="#C4A767" stop-opacity="0"/>
</linearGradient>
<linearGradient id="paint13_linear_1772_22349" x1="332.26" y1="267.818" x2="167.015" y2="-30.2405" gradientUnits="userSpaceOnUse">
<stop stop-color="#C4A767"/>
<stop offset="0.959324" stop-color="#C4A767" stop-opacity="0"/>
</linearGradient>
<linearGradient id="paint14_linear_1772_22349" x1="332.26" y1="267.818" x2="167.015" y2="-30.2405" gradientUnits="userSpaceOnUse">
<stop stop-color="#C4A767"/>
<stop offset="0.959324" stop-color="#C4A767" stop-opacity="0"/>
</linearGradient>
<linearGradient id="paint15_linear_1772_22349" x1="332.26" y1="267.818" x2="167.015" y2="-30.2405" gradientUnits="userSpaceOnUse">
<stop stop-color="#C4A767"/>
<stop offset="0.959324" stop-color="#C4A767" stop-opacity="0"/>
</linearGradient>
<linearGradient id="paint16_linear_1772_22349" x1="332.26" y1="267.818" x2="167.015" y2="-30.2405" gradientUnits="userSpaceOnUse">
<stop stop-color="#C4A767"/>
<stop offset="0.959324" stop-color="#C4A767" stop-opacity="0"/>
</linearGradient>
<linearGradient id="paint17_linear_1772_22349" x1="332.26" y1="267.818" x2="167.015" y2="-30.2405" gradientUnits="userSpaceOnUse">
<stop stop-color="#C4A767"/>
<stop offset="0.959324" stop-color="#C4A767" stop-opacity="0"/>
</linearGradient>
<linearGradient id="paint18_linear_1772_22349" x1="332.26" y1="267.818" x2="167.015" y2="-30.2405" gradientUnits="userSpaceOnUse">
<stop stop-color="#C4A767"/>
<stop offset="0.959324" stop-color="#C4A767" stop-opacity="0"/>
</linearGradient>
<linearGradient id="paint19_linear_1772_22349" x1="332.26" y1="267.818" x2="167.015" y2="-30.2405" gradientUnits="userSpaceOnUse">
<stop stop-color="#C4A767"/>
<stop offset="0.959324" stop-color="#C4A767" stop-opacity="0"/>
</linearGradient>
<linearGradient id="paint20_linear_1772_22349" x1="332.26" y1="267.818" x2="167.015" y2="-30.2405" gradientUnits="userSpaceOnUse">
<stop stop-color="#C4A767"/>
<stop offset="0.959324" stop-color="#C4A767" stop-opacity="0"/>
</linearGradient>
<linearGradient id="paint21_linear_1772_22349" x1="332.26" y1="267.818" x2="167.015" y2="-30.2405" gradientUnits="userSpaceOnUse">
<stop stop-color="#C4A767"/>
<stop offset="0.959324" stop-color="#C4A767" stop-opacity="0"/>
</linearGradient>
<linearGradient id="paint22_linear_1772_22349" x1="332.26" y1="267.818" x2="167.015" y2="-30.2405" gradientUnits="userSpaceOnUse">
<stop stop-color="#C4A767"/>
<stop offset="0.959324" stop-color="#C4A767" stop-opacity="0"/>
</linearGradient>
<linearGradient id="paint23_linear_1772_22349" x1="332.26" y1="267.818" x2="167.015" y2="-30.2405" gradientUnits="userSpaceOnUse">
<stop stop-color="#C4A767"/>
<stop offset="0.959324" stop-color="#C4A767" stop-opacity="0"/>
</linearGradient>
<linearGradient id="paint24_linear_1772_22349" x1="332.26" y1="267.818" x2="167.015" y2="-30.2405" gradientUnits="userSpaceOnUse">
<stop stop-color="#C4A767"/>
<stop offset="0.959324" stop-color="#C4A767" stop-opacity="0"/>
</linearGradient>
<linearGradient id="paint25_linear_1772_22349" x1="332.26" y1="267.818" x2="167.015" y2="-30.2405" gradientUnits="userSpaceOnUse">
<stop stop-color="#C4A767"/>
<stop offset="0.959324" stop-color="#C4A767" stop-opacity="0"/>
</linearGradient>
<linearGradient id="paint26_linear_1772_22349" x1="332.26" y1="267.818" x2="167.015" y2="-30.2405" gradientUnits="userSpaceOnUse">
<stop stop-color="#C4A767"/>
<stop offset="0.959324" stop-color="#C4A767" stop-opacity="0"/>
</linearGradient>
<linearGradient id="paint27_linear_1772_22349" x1="332.26" y1="267.818" x2="167.015" y2="-30.2405" gradientUnits="userSpaceOnUse">
<stop stop-color="#C4A767"/>
<stop offset="0.959324" stop-color="#C4A767" stop-opacity="0"/>
</linearGradient>
<linearGradient id="paint28_linear_1772_22349" x1="332.26" y1="267.818" x2="167.015" y2="-30.2405" gradientUnits="userSpaceOnUse">
<stop stop-color="#C4A767"/>
<stop offset="0.959324" stop-color="#C4A767" stop-opacity="0"/>
</linearGradient>
<linearGradient id="paint29_linear_1772_22349" x1="332.26" y1="267.818" x2="167.015" y2="-30.2405" gradientUnits="userSpaceOnUse">
<stop stop-color="#C4A767"/>
<stop offset="0.959324" stop-color="#C4A767" stop-opacity="0"/>
</linearGradient>
<linearGradient id="paint30_linear_1772_22349" x1="332.26" y1="267.818" x2="167.015" y2="-30.2405" gradientUnits="userSpaceOnUse">
<stop stop-color="#C4A767"/>
<stop offset="0.959324" stop-color="#C4A767" stop-opacity="0"/>
</linearGradient>
<linearGradient id="paint31_linear_1772_22349" x1="332.26" y1="267.818" x2="167.015" y2="-30.2405" gradientUnits="userSpaceOnUse">
<stop stop-color="#C4A767"/>
<stop offset="0.959324" stop-color="#C4A767" stop-opacity="0"/>
</linearGradient>
<linearGradient id="paint32_linear_1772_22349" x1="332.26" y1="267.818" x2="167.015" y2="-30.2405" gradientUnits="userSpaceOnUse">
<stop stop-color="#C4A767"/>
<stop offset="0.959324" stop-color="#C4A767" stop-opacity="0"/>
</linearGradient>
<linearGradient id="paint33_linear_1772_22349" x1="332.26" y1="267.818" x2="167.015" y2="-30.2405" gradientUnits="userSpaceOnUse">
<stop stop-color="#C4A767"/>
<stop offset="0.959324" stop-color="#C4A767" stop-opacity="0"/>
</linearGradient>
<linearGradient id="paint34_linear_1772_22349" x1="332.26" y1="267.818" x2="167.015" y2="-30.2405" gradientUnits="userSpaceOnUse">
<stop stop-color="#C4A767"/>
<stop offset="0.959324" stop-color="#C4A767" stop-opacity="0"/>
</linearGradient>
<linearGradient id="paint35_linear_1772_22349" x1="332.26" y1="267.818" x2="167.015" y2="-30.2405" gradientUnits="userSpaceOnUse">
<stop stop-color="#C4A767"/>
<stop offset="0.959324" stop-color="#C4A767" stop-opacity="0"/>
</linearGradient>
</defs>
</svg>
