<svg width="257" height="169" viewBox="0 0 257 169" fill="none" xmlns="http://www.w3.org/2000/svg">
<path d="M166.68 4.70555C164.69 4.20799 162.799 3.80995 161.107 3.51142C162.699 3.90946 164.59 4.3075 166.68 4.70555Z" fill="url(#paint0_linear_1409_37995)" fill-opacity="0.2"/>
<path d="M160.709 3.41194C160.808 3.41194 160.908 3.41194 161.007 3.51145L160.709 3.41194Z" fill="url(#paint1_linear_1409_37995)" fill-opacity="0.2"/>
<path d="M118.915 18.0399C121.303 18.4379 123.89 18.836 126.876 19.433C138.518 21.6223 153.246 26.1997 168.073 33.1654C180.114 38.738 188.97 44.5096 195.836 49.4851C202.006 54.4606 206.882 58.64 210.265 61.9238L210.464 62.1229C207.081 58.839 202.702 54.4606 197.329 48.9875C196.035 47.5944 194.343 46.2012 192.652 44.7086C190.861 43.2159 188.97 41.7233 186.98 40.1311C182.9 37.0463 178.123 33.7625 172.551 30.5782C158.719 22.5178 142.399 18.3384 129.363 17.0448C126.08 16.8458 123.094 16.6468 120.407 16.4477C117.721 16.4477 115.233 16.5472 113.342 16.6468C111.352 16.7463 109.859 16.8458 108.864 16.8458C107.869 16.9453 107.272 16.9453 107.272 16.9453C107.272 16.9453 109.262 17.0448 112.745 17.4428C114.238 17.6419 116.427 17.7414 118.915 18.0399Z" fill="url(#paint2_linear_1409_37995)" fill-opacity="0.2"/>
<path d="M81.8972 30.0806L81.4991 30.1801C81.6982 30.0806 81.8972 30.0806 82.0962 29.9811C81.9967 29.9811 81.8972 30.0806 81.8972 30.0806Z" fill="url(#paint3_linear_1409_37995)" fill-opacity="0.2"/>
<path d="M88.0667 29.0855C90.3555 28.8864 92.6442 28.986 95.1319 28.8864C99.9084 28.986 105.182 29.2845 110.855 29.9811C113.74 30.2796 116.626 30.6776 119.611 31.1752C122.597 31.6727 125.682 32.1703 128.965 32.8668C135.234 34.1605 141.603 36.0512 147.972 38.5389C163.495 44.8081 175.238 51.6742 183.596 56.7493C191.856 61.8243 196.533 65.1081 196.533 65.1081C196.533 65.1081 195.836 64.113 194.244 62.3218C192.652 60.5306 190.264 58.0429 186.88 55.0576C180.014 49.1865 169.167 41.3252 152.052 35.6531C145.086 33.4639 138.12 31.8717 131.354 30.8766C124.487 29.9811 118.218 29.2845 112.248 28.986C106.377 28.5879 100.804 28.5879 95.928 28.5879C91.9476 28.7869 88.3652 28.8864 84.8824 29.4835H84.9819C85.778 29.2845 86.8726 29.185 88.0667 29.0855Z" fill="url(#paint4_linear_1409_37995)" fill-opacity="0.2"/>
<path d="M82.0962 29.9811C82.8923 29.7821 83.7875 29.583 84.5836 29.4835C83.688 29.583 82.8923 29.7821 82.0962 29.9811Z" fill="url(#paint5_linear_1409_37995)" fill-opacity="0.2"/>
<path d="M35.0277 66.4018C35.4258 66.2028 35.9233 65.9042 36.3214 65.7052C35.8238 65.9042 35.4258 66.1033 35.0277 66.4018Z" fill="url(#paint6_linear_1409_37995)" fill-opacity="0.2"/>
<path d="M36.3214 65.7052C36.4209 65.7052 36.5202 65.6057 36.6197 65.6057C36.5202 65.6057 36.4209 65.6057 36.3214 65.7052Z" fill="url(#paint7_linear_1409_37995)" fill-opacity="0.2"/>
<path d="M33.2368 67.4964C33.5353 67.2974 33.9333 66.9988 34.3314 66.7998C34.1324 66.8993 33.8338 67.0983 33.6348 67.1978L33.2368 67.4964Z" fill="url(#paint8_linear_1409_37995)" fill-opacity="0.2"/>
<path d="M27.7634 78.0445C28.0619 77.8455 28.3605 77.746 28.7585 77.5469C28.3605 77.746 27.8629 77.945 27.4649 78.2435L27.7634 78.0445Z" fill="url(#paint9_linear_1409_37995)" fill-opacity="0.2"/>
<path d="M3.98041 105.808C4.27894 105.41 4.57747 104.912 4.97551 104.514C4.77649 104.813 4.47796 105.111 4.27894 105.31L3.98041 105.808Z" fill="url(#paint10_linear_1409_37995)" fill-opacity="0.2"/>
<path d="M5.47345 103.818C5.27443 104.017 5.07541 104.315 4.87639 104.514C5.07541 104.315 5.27443 104.116 5.47345 103.818Z" fill="url(#paint11_linear_1409_37995)" fill-opacity="0.2"/>
<path d="M17.713 93.568C20.3998 92.0754 23.186 90.3837 26.0718 89.0901C28.9576 87.7964 31.9429 86.4033 35.0277 85.4082C47.367 81.0298 61.2984 78.6415 76.7225 77.8454C86.3749 77.2484 94.8333 77.4474 102.595 77.5469C110.257 77.8454 117.024 78.343 122.597 78.741C132.05 79.5371 138.419 80.1342 140.011 80.2337C139.414 80.4327 138.817 80.6317 138.319 80.7312C138.319 80.7312 138.319 80.7312 138.22 80.8307C131.851 82.8209 125.582 84.8111 119.512 86.9009C115.332 88.3935 111.252 89.8862 107.272 91.3788C105.282 91.0803 101.003 90.4832 94.7338 90.1847C90.2558 89.9857 84.6833 90.0852 78.0161 90.7818C71.4484 91.4783 63.8857 92.8715 55.4273 95.6577C48.5611 97.847 42.1925 100.832 36.2219 104.216C33.2366 106.007 30.3508 107.798 27.664 109.788C24.9772 111.679 22.39 113.968 20.0017 116.157C11.4439 124.018 5.27423 133.77 1.69187 142.427C5.27423 133.87 11.4439 124.615 19.8027 117.251C29.3557 108.893 41.2969 102.424 54.4322 98.7426C62.4925 96.3543 69.9558 94.9612 76.5234 93.9661C78.1156 93.7671 79.7078 93.4685 81.2999 93.2695C82.7926 93.0705 84.2852 92.971 85.7779 92.7719C88.5642 92.4734 91.2509 92.2744 93.6392 92.0754C98.3161 91.6773 102.098 91.6773 104.685 91.4783C105.481 91.4783 106.177 91.4783 106.675 91.4783C102.794 92.971 99.1122 94.4636 95.4304 95.9563C91.649 97.5484 87.9671 99.2401 84.3847 100.932C82.5936 101.728 80.9019 102.623 79.2102 103.42C77.5185 104.315 75.8269 105.111 74.2347 106.007C71.1499 107.698 68.1646 109.291 65.2788 110.982C65.2788 110.982 65.2788 110.982 65.1793 111.082C62.194 112.873 59.5072 114.664 56.92 116.356C51.9445 119.839 47.6655 123.023 44.3817 126.108C43.6851 126.705 43.0881 127.302 42.491 127.899C42.3915 127.999 42.1925 128.098 42.0929 128.198C41.1974 128.795 40.0032 129.79 38.4111 130.984C36.8189 132.277 35.1273 134.069 33.2366 136.158C32.341 137.253 31.4454 138.447 30.4503 139.84C29.4552 141.134 28.6591 142.726 27.863 144.219C27.1665 145.413 26.5694 146.806 26.0718 148C25.5743 149.294 24.9772 150.388 24.5792 151.682C23.8826 154.07 22.987 156.259 22.6885 158.349C21.6934 162.529 21.4944 165.812 20.8973 168.3V168.4C21.3949 165.912 21.8924 162.728 23.2856 158.847C24.5792 154.966 26.6689 150.587 29.5547 146.01C33.1371 140.238 36.8189 135.86 39.3067 132.476C40.6003 130.884 41.6949 129.591 42.3915 128.695C43.0881 127.799 43.4861 127.302 43.4861 127.302C43.4861 127.302 43.2871 127.401 42.7895 127.7C43.2871 127.202 43.8841 126.705 44.4812 126.207C46.2724 124.516 48.3621 122.824 50.7503 121.033C50.5513 121.232 50.2528 121.53 49.9543 121.829C49.1582 122.724 47.9641 123.919 46.6704 125.71C43.9836 129.093 40.7993 134.069 38.6101 140.039C37.814 142.527 37.0179 144.716 36.6199 146.806C36.4209 147.801 36.1223 148.796 35.9233 149.791C35.7243 150.786 35.6248 151.682 35.4258 152.577C35.0277 154.269 34.9282 155.961 34.6297 157.354C34.5302 158.051 34.3312 158.747 34.1321 159.344C34.0326 159.941 33.8336 160.439 33.6346 160.837C33.8336 160.439 34.0326 160.041 34.2317 159.444C34.4307 158.847 34.6297 158.15 34.8287 157.453C35.2268 156.06 35.6248 154.369 36.2219 152.677C36.5204 151.781 36.8189 150.886 37.1174 149.891C37.5155 148.896 37.9135 147.901 38.3116 146.905C38.7096 145.811 39.2072 144.816 39.7047 143.622C40.2023 142.527 40.6998 141.333 41.3964 140.139C44.2822 134.268 47.0685 129.491 48.7601 126.008C50.2528 123.222 51.0489 121.331 51.3474 120.734C53.1386 119.341 55.1288 117.948 57.2185 116.555C59.5072 114.963 61.995 113.371 64.5822 111.878C64.3832 112.077 64.0847 112.375 63.6866 112.674C62.592 113.669 60.9999 115.261 59.2087 117.351C55.6263 121.431 50.9493 127.302 47.566 134.666C44.7797 140.537 43.1876 145.711 42.1925 149.891C41.2969 153.374 40.8988 156.259 40.3018 158.548C40.9984 156.259 41.6949 153.473 42.9886 150.09C44.4812 145.91 46.7699 140.736 50.2528 135.064C54.5317 127.999 58.5121 122.028 61.2984 117.948C62.6915 115.858 63.6866 114.167 64.4827 113.072C64.8808 112.475 65.1793 111.977 65.2788 111.679C68.1646 109.987 71.2494 108.196 74.5332 106.504C76.1254 105.708 77.8171 104.813 79.5087 104.017C81.2004 103.221 82.9916 102.424 84.6833 101.628C88.2656 99.9367 91.848 98.3445 95.7289 96.7524C99.8088 95.0607 103.988 93.4685 108.267 91.8764C108.665 91.8764 108.765 91.8764 108.765 91.8764C108.765 91.8764 108.665 91.8764 108.466 91.7769C112.248 90.3837 116.029 88.9906 119.91 87.6969C121.004 87.2989 122.099 87.0004 123.194 86.6023C122.398 87.2989 118.517 90.5827 113.044 96.0558C106.874 102.126 98.7142 110.982 91.5495 121.63C85.6784 130.188 81.698 137.551 78.8122 143.423C77.419 146.408 76.2249 148.995 75.2298 151.184C74.9313 151.682 74.7323 152.279 74.4337 152.777C74.2347 153.274 74.0357 153.772 73.7372 154.17C73.6376 154.369 73.5381 154.568 73.3391 154.767C73.4386 154.568 73.5381 154.468 73.6377 154.269C74.1352 153.374 74.6327 152.378 75.2298 151.383C76.3244 149.194 77.7176 146.706 79.4092 143.821C82.7926 138.049 87.6686 130.785 94.3357 122.326C102.496 111.878 110.058 103.021 115.133 96.6528C119.91 90.8813 122.696 87.2989 123.194 86.7018C127.871 85.1097 132.647 83.617 137.523 82.2239C135.931 83.9156 132.647 87.4979 128.368 92.5729C126.876 94.3641 125.283 96.3543 123.492 98.5435C121.801 100.733 119.91 103.021 118.019 105.41C117.124 106.703 116.029 107.798 115.034 108.992C113.84 110.286 112.646 111.679 111.451 112.972C110.357 114.366 109.163 115.759 108.068 117.152C106.974 118.545 105.779 120.038 104.685 121.53C97.4206 131.083 92.047 139.343 87.8676 145.811C84.1857 151.383 81.4989 155.762 78.9117 158.15C81.4989 155.861 84.3847 151.781 88.4647 146.308C93.1416 139.94 99.4108 131.78 107.571 122.326C110.058 119.341 112.546 116.555 114.835 113.868C116.029 112.574 117.223 111.281 118.318 109.987C119.512 108.594 120.706 107.3 121.602 106.007C125.482 100.932 128.468 96.5533 130.955 92.8715C133.443 89.1896 135.433 86.2043 136.727 84.2141C137.324 83.3185 137.822 82.5224 138.12 82.0249C140.807 81.2288 143.593 80.3332 146.38 79.5371C149.862 78.542 153.246 77.5469 156.828 76.6513C156.132 77.1489 155.136 77.945 153.644 79.1391C151.156 81.1293 147.673 84.0151 143.494 87.6969C141.404 89.5876 139.215 91.6773 136.926 93.9661C135.831 95.1602 134.637 96.3543 133.443 97.6479C132.349 98.9416 131.254 100.235 130.159 101.628C127.97 104.315 125.681 107.201 123.492 110.186C121.203 113.072 118.616 116.157 116.029 119.341C107.471 129.591 100.207 138.348 95.1318 145.413C89.8578 152.378 86.574 157.752 83.4891 160.339C86.4744 157.752 90.1563 152.677 95.9279 146.01C101.699 139.144 109.76 130.685 119.611 120.436C122.597 117.251 125.482 114.167 127.97 111.082C130.358 107.997 132.647 105.111 134.737 102.424C135.732 101.131 136.727 99.7377 137.722 98.5435C138.717 97.2499 139.812 96.1553 140.807 94.9612C142.797 92.6725 144.588 90.4832 146.38 88.5925C152.151 82.2239 156.032 78.0445 157.226 76.6513C158.221 76.3528 159.216 76.1538 160.112 75.8552C164.689 74.6611 169.267 73.3675 173.944 72.2729C174.342 72.1734 174.64 72.0739 175.038 71.9744C174.342 72.4719 173.347 73.3675 171.954 74.4621C169.466 76.5518 165.883 79.6366 161.704 83.617C157.425 87.4979 152.45 92.3739 147.275 97.847C144.688 100.633 142.101 103.619 139.414 106.703C136.827 109.788 133.841 112.873 130.856 116.256C121.104 127.003 113.342 136.158 107.571 143.721C104.884 147.303 102.396 150.687 100.107 153.672C99.0127 155.065 98.0176 156.359 97.0225 157.453C96.525 157.951 96.1269 158.449 95.6294 158.847C96.0274 158.449 96.525 158.051 96.923 157.653C97.9181 156.558 99.0127 155.264 100.107 153.971C102.396 151.184 105.083 148 108.367 144.318C114.835 137.054 123.492 127.999 134.339 117.55C137.623 114.266 140.906 111.082 143.693 107.897C146.38 104.813 148.967 101.827 151.455 99.0411C156.43 93.369 160.908 88.3935 164.49 84.4131C170.162 77.8454 173.944 73.467 175.337 71.8748C179.516 70.8797 183.696 69.8846 187.776 68.9891C190.761 68.2925 193.746 67.5959 196.732 66.9988C194.94 68.79 191.06 72.7704 186.184 78.542C182.8 82.5224 178.82 87.4979 174.839 92.971C172.849 95.7573 170.759 98.7426 168.769 101.827C167.774 103.42 166.779 104.912 165.585 106.504C164.391 108.097 163.097 109.689 161.804 111.281C153.345 121.829 146.28 130.884 140.508 138.348C137.623 142.129 135.035 145.413 132.647 148.299C130.159 151.085 128.07 153.772 125.482 155.264L125.283 155.463C127.871 153.971 130.06 151.383 132.747 148.597C135.433 145.711 138.319 142.427 141.504 138.845C148.071 131.581 156.231 122.724 165.784 112.276C167.277 110.684 168.67 109.092 170.063 107.4C171.456 105.808 172.75 104.116 173.745 102.623C175.835 99.5386 177.924 96.5533 179.815 93.7671C183.596 88.095 186.98 83.219 189.666 79.0396C192.353 74.8601 194.542 71.5763 195.936 69.2876C196.632 68.193 197.13 67.2974 197.528 66.7003C199.02 66.4018 200.413 66.1033 201.906 65.7052C202.901 65.4067 203.896 65.2077 204.891 65.0087C204.593 65.5062 203.996 66.6008 203.001 68.193C201.608 70.4817 199.518 73.666 196.931 77.6464C191.856 85.5077 184.691 96.6529 176.233 109.788C164.49 127.899 152.947 140.835 144.19 148.796C145.384 147.801 146.579 146.806 147.872 145.612C150.658 142.925 154.141 140.039 157.425 136.556C164.391 129.69 172.352 121.033 180.312 110.584C190.263 97.6479 196.632 86.1048 200.214 77.945C202.006 73.865 203.299 70.4817 203.996 68.193C204.493 66.5013 204.792 65.4067 204.891 64.9091C207.976 64.1131 211.161 63.4165 214.146 62.5209C213.847 63.118 213.35 63.914 212.753 65.0087C211.459 67.1979 209.668 70.3822 207.479 74.3626C206.285 76.3528 204.991 78.6415 203.598 80.9303C202.205 83.3185 201.011 85.7067 199.617 88.3935C196.831 93.6676 193.945 99.5386 190.96 105.808C189.766 108.296 188.373 110.684 187.179 113.072C185.885 115.361 184.591 117.649 183.198 119.739C180.611 124.018 178.123 127.899 175.635 131.382C170.66 138.248 165.485 143.721 159.913 146.607L159.714 146.706C165.187 143.92 170.859 138.646 176.73 131.879C179.715 128.496 182.701 124.615 185.885 120.336C187.477 118.247 189.069 115.958 190.661 113.669C192.154 111.281 193.846 108.793 195.438 106.305C199.219 99.9367 202.205 94.0656 204.792 88.7916C207.777 83.219 209.767 78.343 211.161 74.3626C212.554 70.3822 213.449 67.1979 213.947 65.0087C214.245 63.914 214.345 63.0184 214.444 62.5209C214.643 62.4214 214.842 62.4214 215.041 62.3219C217.529 61.4263 220.017 60.6302 222.405 59.8341C222.306 60.3317 222.107 60.9287 221.908 61.7248C221.211 63.914 220.316 67.0984 218.922 71.1783C217.529 75.3577 215.738 79.9352 213.35 85.3087C212.156 87.9955 210.862 90.7818 209.27 93.7671C208.474 95.2597 207.678 96.7524 206.882 98.3445C206.185 99.8372 205.488 101.33 204.792 102.922C200.314 112.773 195.537 121.132 190.363 127.799C185.288 134.467 179.616 139.542 174.541 142.527L174.342 142.726C179.317 139.641 185.487 134.865 191.458 128.297C194.443 125.013 197.528 121.232 200.513 117.152C202.006 115.062 203.498 112.873 204.991 110.584C205.688 109.49 206.484 108.296 207.18 107.101C207.578 106.504 207.877 105.907 208.374 105.31C208.872 104.614 209.369 104.017 209.767 103.32C214.345 96.7524 217.33 90.6822 219.32 85.2092C221.311 79.7361 222.206 74.7606 222.704 70.8797C223.201 66.8993 223.201 63.8145 223.201 61.7248C223.201 60.9287 223.102 60.3317 223.102 59.8341C224.694 59.3366 226.286 58.7395 227.878 58.1424C228.276 57.9434 228.575 57.8439 228.973 57.6449C228.973 58.1425 228.873 59.038 228.873 60.2322C228.774 61.3268 228.674 62.5209 228.575 64.0135C228.475 65.5062 228.276 67.0984 228.077 68.9891C227.679 72.6709 227.082 77.2484 226.087 82.3234C225.59 84.9107 224.992 87.5974 224.296 90.4832C223.898 91.8764 223.5 93.369 223.102 94.8617C222.704 96.3543 222.206 97.847 221.709 99.3396C220.017 104.216 217.828 108.793 215.34 112.972C214.046 115.062 212.653 117.152 211.26 119.043C210.165 120.834 209.27 122.525 208.175 124.217C203.996 130.685 199.518 135.661 195.438 139.044L195.239 139.243C199.219 135.86 204.195 131.083 209.369 124.715C209.966 123.919 210.663 123.123 211.26 122.227C211.559 121.829 212.056 121.331 212.454 120.834C212.952 120.336 213.35 119.839 213.847 119.341C215.639 117.351 217.43 115.261 219.022 113.072C222.306 108.694 225.191 104.116 227.58 98.7426C233.252 85.7067 233.053 75.3577 232.058 67.9939C231.262 62.3219 229.968 58.7395 229.371 57.4459C230.963 56.7493 232.456 56.1522 234.048 55.4557C236.038 54.5601 238.028 53.8635 239.819 52.7689C241.71 51.7738 243.501 50.8782 245.392 49.8831C246.288 49.3856 247.183 48.9875 248.079 48.49C248.974 47.9924 249.77 47.3954 250.666 46.8978C254.049 44.8081 257.433 42.8179 260.418 40.5292C261.911 39.4346 263.403 38.3399 264.896 37.3448C266.289 36.2502 267.682 35.0561 268.976 33.9615C279.623 25.1051 286.888 16.2487 291.266 9.68105C293.455 6.39721 294.948 3.80995 295.943 2.01877C296.938 0.227591 297.336 -0.668002 297.336 -0.668002C297.635 -1.26506 297.535 -2.16065 297.038 -2.26016C296.739 -2.35967 296.441 -2.16065 296.242 -1.96163C295.943 -1.76261 295.744 -1.56359 295.645 -1.16555C295.645 -1.16555 295.545 -0.966531 295.346 -0.46898C295.147 0.0285702 294.749 0.62563 294.351 1.52122C293.853 2.41681 293.256 3.51142 292.56 4.70554C291.764 5.99917 290.868 7.39231 289.873 8.98448C285.594 15.3531 278.529 24.11 267.981 32.9664C266.687 34.061 265.394 35.2551 264 36.3497C262.607 37.4444 261.115 38.4395 259.622 39.5341C257.831 40.9272 255.94 42.1213 254.049 43.3154C254.049 43.0169 254.049 42.6189 254.049 42.1213C254.149 40.2306 254.049 37.6434 253.452 34.3595C252.159 27.9909 249.173 19.5325 243.004 11.5717C241.81 9.97958 240.616 8.38742 239.521 6.89477C238.327 5.40211 237.133 4.10848 236.038 2.81485C233.749 0.227589 231.859 -2.16065 229.968 -4.25036C226.087 -8.23077 223.102 -11.7136 221.012 -14.3009L220.913 -14.4004C223.002 -11.8131 225.689 -8.13126 229.072 -3.6533C230.764 -1.36457 232.257 1.3222 234.147 4.10848C235.043 5.50162 236.038 6.99427 236.934 8.58644C237.829 10.1786 238.725 11.9698 239.62 13.6615C244.297 22.3188 247.78 30.0806 250.268 35.6532C251.462 38.539 252.358 40.8277 252.955 42.4199C253.154 42.8179 253.253 43.2159 253.353 43.614C252.258 44.3105 251.164 45.0071 249.969 45.7037C249.173 46.2012 248.278 46.7983 247.382 47.2958C246.487 47.7934 245.591 48.1914 244.695 48.689C243.302 49.3856 241.909 50.1816 240.516 50.8782C240.815 49.4851 241.511 45.6042 241.113 40.5292C240.815 37.2453 240.018 33.3644 238.526 29.384C236.934 25.3041 234.645 21.1247 231.461 16.9453C226.286 10.2781 221.012 5.3026 216.634 1.42171C214.444 -0.36947 212.355 -2.16065 210.564 -3.6533C208.673 -5.04644 207.081 -6.34007 205.787 -7.53419L205.688 -7.63371C206.981 -6.43959 208.573 -5.14596 210.265 -3.6533C211.957 -2.06114 213.748 -0.07094 215.838 2.01877C219.619 6.2977 223.997 11.7708 227.978 18.836C232.953 27.4934 236.038 35.6532 237.929 41.7233C239.421 46.4998 240.118 49.8831 240.317 51.0772C240.018 51.2763 239.62 51.4753 239.322 51.5748C237.531 52.5699 235.541 53.366 233.55 54.2616C232.754 54.5601 232.058 54.9581 231.262 55.2567C230.864 51.5748 229.769 46.9973 227.58 41.5243C225.291 35.7527 221.609 29.185 215.937 22.0203C212.554 17.6419 208.673 13.761 205.09 10.4771C201.508 7.19329 198.224 4.70554 195.239 2.41681C194.542 1.81975 193.846 1.3222 193.249 0.824649C192.552 0.327099 191.955 -0.07094 191.358 -0.46898C190.164 -1.26506 189.169 -1.96163 188.373 -2.45918C186.781 -3.55379 185.885 -4.05134 185.785 -4.05134C185.785 -4.05134 186.184 -3.85232 186.482 -3.55379C186.781 -3.15575 187.278 -2.6582 187.875 -1.96163C188.472 -1.26506 189.268 -0.468981 190.263 0.52612C190.761 1.02367 191.259 1.52122 191.756 2.11828C192.254 2.71534 192.851 3.3124 193.448 3.90946C195.936 6.49673 198.821 9.48203 202.006 12.7659C205.19 16.0497 208.772 19.8311 212.554 24.0105C215.639 27.3938 218.226 30.4786 220.515 33.464C222.803 36.4493 224.694 39.2355 226.187 41.9223C229.172 47.0968 230.764 51.5748 231.262 55.2567C230.067 55.7542 228.873 56.3513 227.58 56.8488C226.883 57.1473 226.087 57.4459 225.391 57.6449C225.291 56.4508 224.594 52.7689 222.306 47.4949C220.813 44.4101 218.922 40.6287 216.037 36.7478C214.743 34.7576 212.952 32.7674 211.26 30.6777C210.364 29.6826 209.369 28.6875 208.374 27.5929C207.379 26.5978 206.384 25.5031 205.289 24.6076C203.598 23.0154 201.807 21.4232 200.115 19.9306C198.423 18.4379 196.732 17.0448 195.139 15.7512C193.547 14.4575 191.955 13.2634 190.462 12.2683C190.064 11.9698 189.766 11.7708 189.268 11.4722C188.771 11.2732 188.174 10.9747 187.676 10.7757C186.582 10.3776 185.487 9.88007 184.392 9.58154C182.402 8.68595 180.113 8.08888 178.123 7.49183C176.034 6.89476 174.242 6.2977 172.352 5.80015C170.759 5.50162 169.267 5.20309 167.774 4.90456C172.451 6.09868 177.626 7.79035 182.9 10.2781C184.79 11.1737 186.681 12.1688 188.671 13.2634L190.064 14.159C190.462 14.4575 190.761 14.7561 191.06 15.0546C191.756 15.7512 192.453 16.3482 193.149 17.0448C195.936 19.8311 198.921 22.9159 201.906 26.4982C202.901 27.5929 203.697 28.6875 204.593 29.7821C205.488 30.8767 206.384 31.8718 207.18 32.8669C208.673 34.9566 210.364 36.8473 211.758 38.738C214.743 42.4199 217.131 45.9027 219.221 48.689C222.604 53.366 224.694 56.6498 225.391 57.6449C224.793 57.8439 224.097 58.1424 223.4 58.3415C223.4 58.242 223.4 58.242 223.4 58.242V58.3415C221.41 59.038 219.519 59.7346 217.529 60.3317C216.435 58.7395 215.24 56.8488 213.748 54.7591C212.255 52.5699 210.563 50.1816 208.673 47.3954C204.792 41.9223 199.816 35.2551 193.448 27.9909C193.149 27.6924 192.95 27.3938 192.652 27.1948L191.756 26.3987C191.159 25.9012 190.462 25.3041 189.865 24.8066C188.572 23.8115 187.179 22.8164 185.885 21.9208C183.198 20.0301 180.312 18.4379 177.526 16.9453C171.854 14.0595 166.182 11.8703 161.007 10.4771C158.42 9.78056 156.032 9.1835 153.942 8.68595C151.753 8.28791 149.763 7.98937 148.171 7.79035C144.986 7.39231 143.295 7.09378 143.295 7.09378C143.295 7.09378 144.688 7.59134 147.375 8.48693C148.668 8.88497 150.26 9.48203 152.151 10.0791C153.942 10.7757 155.932 11.5717 158.122 12.5668C166.879 16.2487 177.825 22.3188 188.97 30.1801C190.064 30.9762 191.159 31.7723 192.154 32.5684C193.149 33.3644 194.244 34.1605 195.04 34.9566C196.632 36.5488 198.125 38.1409 199.617 39.5341C202.503 42.5194 205.09 45.3057 207.479 47.8929C212.156 53.0674 215.539 57.0478 217.728 60.3317V60.4312C216.932 60.7297 216.236 60.9287 215.439 61.2273C211.161 62.5209 206.683 63.6155 202.205 64.7101C197.627 65.8047 193.05 66.7998 188.472 67.8944C186.582 68.2925 184.591 68.79 182.601 69.2876C182.203 68.8895 181.407 68.0935 180.213 66.9988C178.322 65.3072 175.337 63.0184 171.158 60.3317C162.799 55.0576 149.265 48.5895 129.96 44.7086C114.337 41.7233 99.8088 41.0267 86.972 41.4248C74.2347 41.8228 63.1891 43.614 54.9298 45.0071L54.5317 45.1066C62.8906 43.614 73.5381 42.3204 85.7779 42.5194C98.0176 42.7184 111.75 44.3106 126.378 47.8929C144.29 52.3709 158.52 57.8439 168.073 62.1229C175.834 65.6057 180.611 68.2925 182.303 69.1881C179.715 69.7851 177.128 70.4817 174.441 71.0788C171.158 71.8748 167.973 72.7704 164.789 73.5665C163.893 72.9695 159.515 70.1832 151.554 66.5013C147.076 64.4116 141.504 62.2224 134.637 60.0331C127.771 58.0429 119.313 56.1523 109.461 55.6547C93.6392 54.6596 79.3097 55.5552 66.7714 57.4459C60.5023 58.441 54.6312 59.6351 49.3572 61.2273C46.6704 61.9238 44.0832 62.9189 41.6949 63.8145C40.4013 64.3121 39.0082 64.8096 37.814 65.5062C39.0082 64.9091 40.1028 64.5111 41.2969 64.0135C43.6851 63.118 46.2724 62.2224 48.8596 61.6253C54.1337 60.3317 59.7062 59.3366 65.7764 58.7395C77.8171 57.4459 91.5495 57.5454 106.575 59.1376C115.929 60.1327 123.791 61.6253 130.856 63.4165C137.822 65.2077 143.892 66.9988 148.967 68.4915C153.942 70.0837 158.022 71.2778 160.709 72.1734C162.799 72.8699 164.192 73.268 164.689 73.467C163.396 73.865 162.003 74.1636 160.709 74.5616C157.823 75.3577 155.037 76.0543 152.251 76.8503C150.658 76.0543 146.28 74.0641 139.314 71.5763C130.259 68.591 116.825 64.8096 98.8137 64.0135C84.2852 63.317 70.8514 64.5111 59.0097 66.9988C47.6655 69.4866 37.7145 73.3675 29.9527 77.4474C37.7145 73.467 47.2675 69.9841 58.0146 68.392C69.3587 66.6008 81.9965 66.2028 95.7289 67.5959C112.745 69.2876 126.776 71.9743 136.827 73.9646C144.389 75.4572 149.663 76.5518 151.753 77.0494C150.161 77.5469 148.569 77.945 146.977 78.4425C145.086 79.0396 143.195 79.5371 141.305 80.1342C140.807 79.9352 139.513 79.5371 137.523 79.0396C134.836 78.2435 130.856 77.2484 125.681 76.2533C120.507 75.2582 114.039 74.3626 106.575 73.666C98.9132 73.268 90.1563 72.9695 80.2053 73.9646C64.2837 75.5567 49.7552 78.6415 37.0179 83.816C35.4258 84.5126 33.8336 85.1097 32.341 85.8062C30.7488 86.6023 29.2562 87.2989 27.863 87.9955C24.8777 89.3886 22.0914 91.2793 19.4047 92.8715C16.7179 94.5631 14.1306 96.6529 11.7424 98.5435C10.4488 99.7377 9.15512 100.932 8.06051 102.126C9.15512 101.031 10.2497 99.9367 11.4439 98.8421C12.5385 97.1504 15.1257 95.2597 17.713 93.568Z" fill="url(#paint12_linear_1409_37995)" fill-opacity="0.2"/>
<path d="M6.56767 102.623C6.16963 103.021 5.87149 103.42 5.47345 103.818C5.77198 103.42 6.16963 103.021 6.56767 102.623Z" fill="url(#paint13_linear_1409_37995)" fill-opacity="0.2"/>
<path d="M6.8663 102.225C6.76679 102.325 6.66718 102.424 6.56767 102.623C6.66718 102.524 6.76679 102.424 6.8663 102.225Z" fill="url(#paint14_linear_1409_37995)" fill-opacity="0.2"/>
<path d="M14.8274 107.897C15.0264 107.599 15.2254 107.4 15.4245 107.201C15.3249 107.3 15.2254 107.499 15.0264 107.599L14.8274 107.897Z" fill="url(#paint15_linear_1409_37995)" fill-opacity="0.2"/>
<path d="M16.9168 105.41C16.8173 105.609 16.6182 105.708 16.5187 105.907C16.7177 105.708 16.8173 105.509 16.9168 105.41Z" fill="url(#paint16_linear_1409_37995)" fill-opacity="0.2"/>
<path d="M15.4245 107.201C15.6235 107.002 15.8221 106.703 16.0211 106.504C15.7226 106.703 15.6235 106.902 15.4245 107.201Z" fill="url(#paint17_linear_1409_37995)" fill-opacity="0.2"/>
<path d="M25.0765 99.1407C27.0667 97.9465 29.1565 96.6529 31.3457 95.5583C33.5349 94.5632 35.8236 93.4686 38.2119 92.4735C40.6001 91.5779 43.0879 90.7818 45.5756 89.9857C48.0634 89.2892 50.7501 88.6921 53.3374 88.1946C55.9247 87.7965 58.7109 87.3985 61.4972 87.0999C64.2835 86.9009 67.1693 86.6024 70.1546 86.4034C84.7826 85.6073 97.3209 85.7068 106.277 85.8063C115.233 85.9058 120.706 86.0053 120.706 86.0053C120.706 86.0053 119.512 85.7068 117.322 85.3088C115.133 84.9107 111.849 84.3137 107.67 83.8161C99.3111 82.821 87.1708 81.8259 71.9458 83.4181C68.861 83.7166 65.8757 84.1146 62.9899 84.5127C60.1041 84.9107 57.3178 85.5078 54.5315 86.1049C48.959 87.3985 43.5854 89.2892 38.7094 91.3789C33.8334 93.5681 29.256 95.9563 25.2756 98.6431C23.2854 99.9367 21.3947 101.429 19.6035 102.823C18.7079 103.519 17.9118 104.315 17.1157 105.012C17.0162 105.111 17.0162 105.111 16.9167 105.211C17.7128 104.415 18.5089 103.718 19.305 103.022C21.1957 101.728 23.0863 100.235 25.0765 99.1407Z" fill="url(#paint18_linear_1409_37995)" fill-opacity="0.2"/>
<path d="M0.398236 145.91C0.796276 144.816 1.19432 143.622 1.69187 142.527C1.19432 143.821 0.696769 145.114 0.199219 146.408L0.398236 145.91Z" fill="url(#paint19_linear_1409_37995)" fill-opacity="0.2"/>
<path d="M24.5794 122.127C25.7735 121.132 27.0671 120.237 28.3608 119.242C29.6544 118.247 31.0475 117.251 32.4407 116.356C38.0132 112.375 44.2824 109.291 51.0491 106.305C61.7961 101.728 70.8516 99.5386 78.1158 98.046C79.907 97.7474 81.6982 97.4489 83.2903 97.1504C84.8825 96.9514 86.4746 96.7523 87.8678 96.6528C90.6541 96.3543 93.1418 96.2548 95.2315 96.1553H95.4306C91.3506 96.2548 85.8776 96.3543 78.7129 97.1504C71.5481 97.9465 62.6918 99.3396 51.7456 103.22C44.979 105.708 38.4113 108.793 32.5402 112.972C26.6691 116.953 21.5941 121.53 17.6137 126.207C16.6186 127.401 15.723 128.596 14.8274 129.69C13.9318 130.785 13.1357 131.879 12.4392 132.974C11.046 135.163 9.85189 137.054 8.9563 138.646C7.26463 142.029 6.36904 143.92 6.36904 143.92C6.36904 143.92 7.36414 142.328 9.25483 139.343C10.1504 137.85 11.4441 136.258 12.8372 134.367C14.2303 132.377 16.0215 130.486 17.9122 128.397C18.4098 127.899 18.9073 127.302 19.4049 126.804C19.9024 126.307 20.4995 125.809 20.997 125.312C22.1911 124.217 23.3853 123.123 24.5794 122.127Z" fill="url(#paint20_linear_1409_37995)" fill-opacity="0.2"/>
<path d="M68.1648 107.002C69.6574 106.504 71.0506 106.007 72.2447 105.609C73.4388 105.211 74.5334 104.912 75.3295 104.614C77.0212 104.017 77.9168 103.718 77.9168 103.718C77.9168 103.718 77.1207 103.718 75.5285 103.917C73.9364 104.116 71.6477 104.315 68.6623 104.912C62.7913 106.007 54.1339 108.196 44.0833 113.868C36.023 118.446 29.2563 124.018 24.1813 129.69C19.1063 135.462 15.6235 141.233 13.4343 145.811L13.3347 146.01C14.5289 143.721 15.8225 141.134 17.7132 138.547C18.6088 137.253 19.6039 135.86 20.6985 134.566C21.7931 133.273 22.9872 131.979 24.2809 130.685C29.4554 125.511 36.023 120.734 43.8843 116.853C53.6363 112.077 62.0947 109.092 68.1648 107.002Z" fill="url(#paint21_linear_1409_37995)" fill-opacity="0.2"/>
<path d="M54.631 116.853C56.8203 115.56 58.711 114.764 59.9051 114.067C61.1987 113.371 61.8953 113.072 61.8953 113.072C61.8953 113.072 59.4075 113.371 54.8301 114.764C50.4516 116.256 43.7844 118.943 36.7192 124.914C35.3261 126.207 33.9329 127.302 32.7388 128.596C31.5447 129.889 30.3506 131.083 29.256 132.377C28.1614 133.671 27.1663 134.964 26.2707 136.258C25.2756 137.452 24.4795 138.746 23.6834 140.039C22.8873 141.333 22.1908 142.527 21.5937 143.721C20.9966 144.915 20.4991 146.109 19.902 147.204C18.8074 149.393 18.2103 151.383 17.5138 153.075L17.4143 153.274C18.1108 151.582 18.8074 149.493 19.902 147.502C20.4991 146.507 21.0961 145.413 21.6932 144.219C22.2903 143.124 23.1859 142.029 23.9819 140.935C25.5741 138.646 27.5643 136.556 29.7535 134.168C32.0422 131.979 34.4305 129.79 37.2168 127.799C44.083 122.824 50.1531 119.242 54.631 116.853Z" fill="url(#paint22_linear_1409_37995)" fill-opacity="0.2"/>
<path d="M39.804 159.543C39.9035 159.245 40.003 158.847 40.1026 158.449C40.1026 158.847 40.0031 159.245 39.804 159.543Z" fill="url(#paint23_linear_1409_37995)" fill-opacity="0.2"/>
<path d="M39.7049 159.941C39.7049 159.842 39.8044 159.643 39.8044 159.543C39.8044 159.643 39.7049 159.742 39.7049 159.842V159.941Z" fill="url(#paint24_linear_1409_37995)" fill-opacity="0.2"/>
<path d="M72.8418 111.778C74.4339 109.49 75.7276 107.698 76.6232 106.504C77.5187 105.211 77.9168 104.614 77.9168 104.614C77.9168 104.614 77.2202 105.211 75.9266 106.305C74.6329 107.4 72.8418 109.092 70.7521 111.281C66.5726 115.56 61.2986 122.127 57.9153 129.989C55.129 136.258 54.5319 141.532 53.8353 145.512C53.6363 147.602 52.9398 149.393 52.7407 150.985C52.5417 151.781 52.2432 152.478 52.0442 153.175C51.9446 153.871 51.7456 154.468 51.6461 155.065V155.165C51.7456 154.568 51.9447 153.971 52.1437 153.274C52.3427 152.577 52.6412 151.881 52.9398 151.085C53.2383 150.289 53.3378 149.393 53.8353 148.498C54.2334 147.602 54.5319 146.607 54.7309 145.512C56.0246 141.233 57.4177 136.059 60.9006 129.989C65.1795 122.625 69.6574 116.256 72.8418 111.778Z" fill="url(#paint25_linear_1409_37995)" fill-opacity="0.2"/>
<path d="M72.2443 127.202C78.5134 118.446 84.4841 110.982 88.564 105.708C92.7434 100.434 95.1316 97.2499 95.1316 97.2499C95.1316 97.2499 94.236 97.9464 92.7434 99.2401C91.2507 100.633 89.0615 102.524 86.4743 105.111C81.3992 110.186 74.6326 117.55 69.3585 126.605C65.0796 133.87 62.4923 140.139 60.9002 145.114C59.4075 150.09 59.0095 153.772 58.2134 156.359V156.458C59.0095 153.971 59.6065 150.289 61.6963 145.313C63.786 140.437 67.1693 134.268 72.2443 127.202Z" fill="url(#paint26_linear_1409_37995)" fill-opacity="0.2"/>
<path d="M99.0126 100.633C93.3406 106.305 85.8773 114.764 79.5087 124.715C74.4336 132.775 71.0503 139.741 68.8611 145.214C66.6719 150.687 65.7763 154.866 64.3831 157.254L64.2836 157.354C65.6768 154.966 66.8709 150.886 69.5576 145.512C72.2444 140.039 76.3243 133.273 82.2949 125.312C89.5592 115.46 96.4254 107.101 101.102 101.131C105.879 95.1602 108.466 91.6773 108.466 91.6773C108.466 91.6773 107.57 92.4734 105.779 93.9661C104.287 95.4587 101.898 97.7474 99.0126 100.633Z" fill="url(#paint27_linear_1409_37995)" fill-opacity="0.2"/>
<path d="M71.946 155.961C72.145 155.762 72.2445 155.563 72.4435 155.364C72.2445 155.563 72.0455 155.861 71.8465 156.06L71.946 155.961Z" fill="url(#paint28_linear_1409_37995)" fill-opacity="0.2"/>
<path d="M77.5187 158.747C77.6182 158.747 77.6182 158.648 77.7177 158.648C77.6182 158.747 77.5186 158.847 77.4191 158.847L77.5187 158.747Z" fill="url(#paint29_linear_1409_37995)" fill-opacity="0.2"/>
<path d="M78.6131 157.852C78.3145 158.15 78.016 158.349 77.7175 158.548C77.9165 158.449 78.215 158.15 78.6131 157.852Z" fill="url(#paint30_linear_1409_37995)" fill-opacity="0.2"/>
<path d="M94.9327 158.946C94.9327 158.946 94.7339 159.046 94.6344 159.145C94.7339 159.046 94.8332 159.046 94.9327 158.946Z" fill="url(#paint31_linear_1409_37995)" fill-opacity="0.2"/>
<path d="M95.2311 158.648C95.1316 158.747 95.0321 158.747 95.0321 158.847C95.1316 158.847 95.1316 158.747 95.2311 158.648Z" fill="url(#paint32_linear_1409_37995)" fill-opacity="0.2"/>
<path d="M93.5398 159.842C93.6393 159.842 93.6392 159.742 93.7387 159.742C93.6392 159.842 93.5398 159.842 93.3407 159.941L93.5398 159.842Z" fill="url(#paint33_linear_1409_37995)" fill-opacity="0.2"/>
<path d="M147.574 117.251C149.166 115.56 150.659 113.769 151.952 111.977C153.146 110.286 154.34 108.694 155.535 107.101C157.923 103.917 160.212 100.932 162.401 98.046C166.978 92.3739 170.959 87.2989 174.342 83.1195C177.725 78.9401 180.412 75.5567 182.303 73.268C184.094 70.9792 185.089 69.6856 185.089 69.6856C185.089 69.6856 183.696 70.8797 181.308 72.9695C178.919 75.0592 175.437 78.343 171.357 82.3234C167.277 86.4033 162.699 91.3788 157.923 97.0509C155.535 99.8372 153.146 103.021 150.858 106.206C149.663 107.798 148.569 109.49 147.375 111.181C146.778 111.977 146.38 112.674 145.683 113.57C144.986 114.366 144.389 115.162 143.693 116.057C139.215 121.431 134.637 126.406 130.757 130.984C126.776 135.561 123.194 139.741 120.009 143.522C116.925 147.303 114.138 150.587 111.75 153.473C109.362 156.259 107.272 158.847 104.983 160.339L104.784 160.538C107.073 159.046 109.163 156.657 111.75 153.871C114.437 150.985 117.522 147.801 120.806 144.219C124.388 140.636 128.269 136.457 132.747 132.078C137.324 127.501 142.399 122.725 147.574 117.251Z" fill="url(#paint34_linear_1409_37995)" fill-opacity="0.2"/>
<path d="M139.513 152.279C139.613 152.18 139.712 152.08 139.812 152.08C139.812 152.08 139.812 152.08 139.712 152.08L139.513 152.279Z" fill="url(#paint35_linear_1409_37995)" fill-opacity="0.2"/>
<path d="M143.593 148.796C142.2 149.99 140.906 151.085 139.812 152.08C141.006 151.085 142.2 149.99 143.593 148.796Z" fill="url(#paint36_linear_1409_37995)" fill-opacity="0.2"/>
<path d="M248.676 76.3528C246.487 71.6758 244.298 67.8944 242.407 64.6106C238.626 58.1424 235.939 54.361 235.939 54.361C235.939 54.361 236.735 58.839 238.725 66.1032C239.72 69.6856 241.113 74.064 242.705 78.741C243.203 80.8307 243.004 83.7165 242.407 86.7018C241.909 89.6871 241.014 92.971 240.019 96.3543C238.227 101.728 236.038 106.703 233.451 111.38C232.157 113.769 230.764 115.958 229.371 118.147C227.978 120.237 226.485 122.227 224.893 124.118C221.808 127.899 218.525 131.282 215.241 134.268C214.843 134.666 214.445 134.964 213.947 135.362C213.449 135.76 213.35 135.959 213.051 136.357C212.554 136.954 212.056 137.551 211.559 138.149C210.564 139.243 209.569 140.238 208.574 141.233L208.374 141.432C209.37 140.537 210.365 139.542 211.459 138.447C211.957 137.85 212.554 137.352 213.151 136.755L213.549 136.258C213.649 136.059 213.848 135.959 214.047 135.76C214.544 135.362 214.942 135.064 215.44 134.666C219.122 131.68 222.903 128.297 226.585 124.516C227.48 123.62 228.476 122.625 229.371 121.63C230.267 120.635 231.162 119.54 232.058 118.346C233.849 116.157 235.541 113.769 237.232 111.38C238.924 108.992 240.417 106.405 241.909 103.818C243.402 101.131 244.696 98.245 245.89 95.3592C247.283 91.7768 248.378 88.3935 248.875 85.2092C249.472 82.1244 249.671 79.1391 248.676 76.3528Z" fill="url(#paint37_linear_1409_37995)" fill-opacity="0.2"/>
<path d="M263.105 82.1244C261.015 71.2778 254.447 64.0136 249.472 59.1376C244.297 54.3611 240.416 52.1719 240.416 52.1719C240.416 52.1719 242.606 55.4557 245.989 61.0283C249.273 66.7003 253.85 74.5616 257.234 84.4131C258.527 88.3935 259.323 92.3739 259.522 96.1553C259.721 99.9367 259.423 103.718 258.428 107.101C258.229 108.793 257.433 110.385 256.836 111.977C256.139 113.57 255.542 115.062 254.945 116.455C253.154 119.341 251.462 122.028 249.87 124.217L249.77 124.416C251.363 122.227 253.154 119.54 255.343 116.555C256.139 115.062 257.035 113.57 257.93 111.878C258.826 110.186 259.821 108.495 260.418 106.703C261.115 104.912 261.712 102.922 262.408 100.932C262.806 98.9416 263.105 96.9514 263.503 94.8617C263.901 90.8813 263.901 86.5028 263.105 82.1244Z" fill="url(#paint38_linear_1409_37995)" fill-opacity="0.2"/>
<path d="M256.935 42.3204C256.935 42.3204 258.627 45.6042 261.712 50.7787C264.797 55.9532 269.274 63.0184 274.648 71.0788C278.927 77.5469 281.912 83.5175 283.206 88.9906C284.5 94.4636 283.703 99.7377 281.912 104.116L281.813 104.315C283.405 100.036 285.296 94.3641 285.097 88.1945C284.898 81.9254 283.305 74.9597 279.922 67.6954C275.743 58.7395 269.473 52.5699 264.896 48.49C260.219 44.4101 256.935 42.3204 256.935 42.3204Z" fill="url(#paint39_linear_1409_37995)" fill-opacity="0.2"/>
<defs>
<linearGradient id="paint0_linear_1409_37995" x1="253.799" y1="29.9996" x2="30.5992" y2="126.8" gradientUnits="userSpaceOnUse">
<stop stop-color="#C4A767" stop-opacity="0"/>
<stop offset="1" stop-color="#C4A767"/>
</linearGradient>
<linearGradient id="paint1_linear_1409_37995" x1="253.799" y1="29.9996" x2="30.5992" y2="126.8" gradientUnits="userSpaceOnUse">
<stop stop-color="#C4A767" stop-opacity="0"/>
<stop offset="1" stop-color="#C4A767"/>
</linearGradient>
<linearGradient id="paint2_linear_1409_37995" x1="253.799" y1="29.9996" x2="30.5992" y2="126.8" gradientUnits="userSpaceOnUse">
<stop stop-color="#C4A767" stop-opacity="0"/>
<stop offset="1" stop-color="#C4A767"/>
</linearGradient>
<linearGradient id="paint3_linear_1409_37995" x1="253.799" y1="29.9996" x2="30.5992" y2="126.8" gradientUnits="userSpaceOnUse">
<stop stop-color="#C4A767" stop-opacity="0"/>
<stop offset="1" stop-color="#C4A767"/>
</linearGradient>
<linearGradient id="paint4_linear_1409_37995" x1="253.799" y1="29.9996" x2="30.5992" y2="126.8" gradientUnits="userSpaceOnUse">
<stop stop-color="#C4A767" stop-opacity="0"/>
<stop offset="1" stop-color="#C4A767"/>
</linearGradient>
<linearGradient id="paint5_linear_1409_37995" x1="253.799" y1="29.9996" x2="30.5992" y2="126.8" gradientUnits="userSpaceOnUse">
<stop stop-color="#C4A767" stop-opacity="0"/>
<stop offset="1" stop-color="#C4A767"/>
</linearGradient>
<linearGradient id="paint6_linear_1409_37995" x1="253.799" y1="29.9996" x2="30.5992" y2="126.8" gradientUnits="userSpaceOnUse">
<stop stop-color="#C4A767" stop-opacity="0"/>
<stop offset="1" stop-color="#C4A767"/>
</linearGradient>
<linearGradient id="paint7_linear_1409_37995" x1="253.799" y1="29.9996" x2="30.5992" y2="126.8" gradientUnits="userSpaceOnUse">
<stop stop-color="#C4A767" stop-opacity="0"/>
<stop offset="1" stop-color="#C4A767"/>
</linearGradient>
<linearGradient id="paint8_linear_1409_37995" x1="253.799" y1="29.9996" x2="30.5992" y2="126.8" gradientUnits="userSpaceOnUse">
<stop stop-color="#C4A767" stop-opacity="0"/>
<stop offset="1" stop-color="#C4A767"/>
</linearGradient>
<linearGradient id="paint9_linear_1409_37995" x1="253.799" y1="29.9996" x2="30.5992" y2="126.8" gradientUnits="userSpaceOnUse">
<stop stop-color="#C4A767" stop-opacity="0"/>
<stop offset="1" stop-color="#C4A767"/>
</linearGradient>
<linearGradient id="paint10_linear_1409_37995" x1="253.799" y1="29.9996" x2="30.5992" y2="126.8" gradientUnits="userSpaceOnUse">
<stop stop-color="#C4A767" stop-opacity="0"/>
<stop offset="1" stop-color="#C4A767"/>
</linearGradient>
<linearGradient id="paint11_linear_1409_37995" x1="253.799" y1="29.9996" x2="30.5992" y2="126.8" gradientUnits="userSpaceOnUse">
<stop stop-color="#C4A767" stop-opacity="0"/>
<stop offset="1" stop-color="#C4A767"/>
</linearGradient>
<linearGradient id="paint12_linear_1409_37995" x1="253.799" y1="29.9996" x2="30.5992" y2="126.8" gradientUnits="userSpaceOnUse">
<stop stop-color="#C4A767" stop-opacity="0"/>
<stop offset="1" stop-color="#C4A767"/>
</linearGradient>
<linearGradient id="paint13_linear_1409_37995" x1="253.799" y1="29.9996" x2="30.5992" y2="126.8" gradientUnits="userSpaceOnUse">
<stop stop-color="#C4A767" stop-opacity="0"/>
<stop offset="1" stop-color="#C4A767"/>
</linearGradient>
<linearGradient id="paint14_linear_1409_37995" x1="253.799" y1="29.9996" x2="30.5992" y2="126.8" gradientUnits="userSpaceOnUse">
<stop stop-color="#C4A767" stop-opacity="0"/>
<stop offset="1" stop-color="#C4A767"/>
</linearGradient>
<linearGradient id="paint15_linear_1409_37995" x1="253.799" y1="29.9996" x2="30.5992" y2="126.8" gradientUnits="userSpaceOnUse">
<stop stop-color="#C4A767" stop-opacity="0"/>
<stop offset="1" stop-color="#C4A767"/>
</linearGradient>
<linearGradient id="paint16_linear_1409_37995" x1="253.799" y1="29.9996" x2="30.5992" y2="126.8" gradientUnits="userSpaceOnUse">
<stop stop-color="#C4A767" stop-opacity="0"/>
<stop offset="1" stop-color="#C4A767"/>
</linearGradient>
<linearGradient id="paint17_linear_1409_37995" x1="253.799" y1="29.9996" x2="30.5992" y2="126.8" gradientUnits="userSpaceOnUse">
<stop stop-color="#C4A767" stop-opacity="0"/>
<stop offset="1" stop-color="#C4A767"/>
</linearGradient>
<linearGradient id="paint18_linear_1409_37995" x1="253.799" y1="29.9996" x2="30.5992" y2="126.8" gradientUnits="userSpaceOnUse">
<stop stop-color="#C4A767" stop-opacity="0"/>
<stop offset="1" stop-color="#C4A767"/>
</linearGradient>
<linearGradient id="paint19_linear_1409_37995" x1="253.799" y1="29.9996" x2="30.5992" y2="126.8" gradientUnits="userSpaceOnUse">
<stop stop-color="#C4A767" stop-opacity="0"/>
<stop offset="1" stop-color="#C4A767"/>
</linearGradient>
<linearGradient id="paint20_linear_1409_37995" x1="253.799" y1="29.9996" x2="30.5992" y2="126.8" gradientUnits="userSpaceOnUse">
<stop stop-color="#C4A767" stop-opacity="0"/>
<stop offset="1" stop-color="#C4A767"/>
</linearGradient>
<linearGradient id="paint21_linear_1409_37995" x1="253.799" y1="29.9996" x2="30.5992" y2="126.8" gradientUnits="userSpaceOnUse">
<stop stop-color="#C4A767" stop-opacity="0"/>
<stop offset="1" stop-color="#C4A767"/>
</linearGradient>
<linearGradient id="paint22_linear_1409_37995" x1="253.799" y1="29.9996" x2="30.5992" y2="126.8" gradientUnits="userSpaceOnUse">
<stop stop-color="#C4A767" stop-opacity="0"/>
<stop offset="1" stop-color="#C4A767"/>
</linearGradient>
<linearGradient id="paint23_linear_1409_37995" x1="253.799" y1="29.9996" x2="30.5992" y2="126.8" gradientUnits="userSpaceOnUse">
<stop stop-color="#C4A767" stop-opacity="0"/>
<stop offset="1" stop-color="#C4A767"/>
</linearGradient>
<linearGradient id="paint24_linear_1409_37995" x1="253.799" y1="29.9996" x2="30.5992" y2="126.8" gradientUnits="userSpaceOnUse">
<stop stop-color="#C4A767" stop-opacity="0"/>
<stop offset="1" stop-color="#C4A767"/>
</linearGradient>
<linearGradient id="paint25_linear_1409_37995" x1="253.799" y1="29.9996" x2="30.5992" y2="126.8" gradientUnits="userSpaceOnUse">
<stop stop-color="#C4A767" stop-opacity="0"/>
<stop offset="1" stop-color="#C4A767"/>
</linearGradient>
<linearGradient id="paint26_linear_1409_37995" x1="253.799" y1="29.9996" x2="30.5992" y2="126.8" gradientUnits="userSpaceOnUse">
<stop stop-color="#C4A767" stop-opacity="0"/>
<stop offset="1" stop-color="#C4A767"/>
</linearGradient>
<linearGradient id="paint27_linear_1409_37995" x1="253.799" y1="29.9996" x2="30.5992" y2="126.8" gradientUnits="userSpaceOnUse">
<stop stop-color="#C4A767" stop-opacity="0"/>
<stop offset="1" stop-color="#C4A767"/>
</linearGradient>
<linearGradient id="paint28_linear_1409_37995" x1="253.799" y1="29.9996" x2="30.5992" y2="126.8" gradientUnits="userSpaceOnUse">
<stop stop-color="#C4A767" stop-opacity="0"/>
<stop offset="1" stop-color="#C4A767"/>
</linearGradient>
<linearGradient id="paint29_linear_1409_37995" x1="253.799" y1="29.9996" x2="30.5992" y2="126.8" gradientUnits="userSpaceOnUse">
<stop stop-color="#C4A767" stop-opacity="0"/>
<stop offset="1" stop-color="#C4A767"/>
</linearGradient>
<linearGradient id="paint30_linear_1409_37995" x1="253.799" y1="29.9996" x2="30.5992" y2="126.8" gradientUnits="userSpaceOnUse">
<stop stop-color="#C4A767" stop-opacity="0"/>
<stop offset="1" stop-color="#C4A767"/>
</linearGradient>
<linearGradient id="paint31_linear_1409_37995" x1="253.799" y1="29.9996" x2="30.5992" y2="126.8" gradientUnits="userSpaceOnUse">
<stop stop-color="#C4A767" stop-opacity="0"/>
<stop offset="1" stop-color="#C4A767"/>
</linearGradient>
<linearGradient id="paint32_linear_1409_37995" x1="253.799" y1="29.9996" x2="30.5992" y2="126.8" gradientUnits="userSpaceOnUse">
<stop stop-color="#C4A767" stop-opacity="0"/>
<stop offset="1" stop-color="#C4A767"/>
</linearGradient>
<linearGradient id="paint33_linear_1409_37995" x1="253.799" y1="29.9996" x2="30.5992" y2="126.8" gradientUnits="userSpaceOnUse">
<stop stop-color="#C4A767" stop-opacity="0"/>
<stop offset="1" stop-color="#C4A767"/>
</linearGradient>
<linearGradient id="paint34_linear_1409_37995" x1="253.799" y1="29.9996" x2="30.5992" y2="126.8" gradientUnits="userSpaceOnUse">
<stop stop-color="#C4A767" stop-opacity="0"/>
<stop offset="1" stop-color="#C4A767"/>
</linearGradient>
<linearGradient id="paint35_linear_1409_37995" x1="253.799" y1="29.9996" x2="30.5992" y2="126.8" gradientUnits="userSpaceOnUse">
<stop stop-color="#C4A767" stop-opacity="0"/>
<stop offset="1" stop-color="#C4A767"/>
</linearGradient>
<linearGradient id="paint36_linear_1409_37995" x1="253.799" y1="29.9996" x2="30.5992" y2="126.8" gradientUnits="userSpaceOnUse">
<stop stop-color="#C4A767" stop-opacity="0"/>
<stop offset="1" stop-color="#C4A767"/>
</linearGradient>
<linearGradient id="paint37_linear_1409_37995" x1="253.799" y1="29.9996" x2="30.5992" y2="126.8" gradientUnits="userSpaceOnUse">
<stop stop-color="#C4A767" stop-opacity="0"/>
<stop offset="1" stop-color="#C4A767"/>
</linearGradient>
<linearGradient id="paint38_linear_1409_37995" x1="253.799" y1="29.9996" x2="30.5992" y2="126.8" gradientUnits="userSpaceOnUse">
<stop stop-color="#C4A767" stop-opacity="0"/>
<stop offset="1" stop-color="#C4A767"/>
</linearGradient>
<linearGradient id="paint39_linear_1409_37995" x1="253.799" y1="29.9996" x2="30.5992" y2="126.8" gradientUnits="userSpaceOnUse">
<stop stop-color="#C4A767" stop-opacity="0"/>
<stop offset="1" stop-color="#C4A767"/>
</linearGradient>
</defs>
</svg>
