<svg width="419" height="247" viewBox="0 0 419 247" fill="none" xmlns="http://www.w3.org/2000/svg">
<path d="M88.801 136.577C88.7481 136.4 88.6952 136.223 88.6952 136.223L88.801 136.577Z" fill="url(#paint0_linear_1409_37893)" fill-opacity="0.7"/>
<path d="M143.203 176.737C141.667 173.536 139.92 169.628 138.119 165.544C130.864 149.03 123.913 126.452 119.951 101.632C116.658 81.6196 116.226 65.3744 116.623 52.5413C117.585 40.3096 118.581 30.7648 119.911 23.6242L119.982 23.2177C118.828 30.3054 116.967 39.5315 114.679 51.1967C114.183 54.0423 113.615 57.2945 113.33 60.8474C113.045 64.4002 112.76 67.9531 112.404 71.9124C112.046 79.7253 112.005 88.599 112.812 98.3747C114.512 122.717 123.335 147.045 133.011 164.569C135.678 168.972 138.009 172.898 140.004 176.346C142.406 179.865 144.596 182.677 146.327 185.241C148.181 187.575 149.524 189.485 150.477 190.741C151.431 191.997 151.997 192.598 151.997 192.598C151.997 192.598 150.443 189.981 147.9 185.348C146.576 182.855 144.969 180.061 143.203 176.737Z" fill="url(#paint1_linear_1409_37893)" fill-opacity="0.7"/>
<path d="M190.307 213.109L190.819 213.533C190.59 213.409 190.307 213.109 190.077 212.985C190.077 212.985 190.077 212.985 190.307 213.109Z" fill="url(#paint2_linear_1409_37893)" fill-opacity="0.7"/>
<path d="M183.753 206.016C181.563 203.204 179.603 200.516 177.483 197.298C173.528 191.161 169.307 184.141 165.281 176.485C163.18 172.683 161.203 168.651 159.35 164.39C157.319 160.182 155.413 155.744 153.454 151.129C149.588 142.076 146.5 132.405 144.244 122.293C138.709 97.3651 137.307 76.5941 136.539 61.7982C135.77 47.0023 135.864 38.3055 135.864 38.3055C135.864 38.3055 135.226 40.0374 134.358 43.5722C133.49 47.107 132.337 52.2679 131.662 59.02C130.186 72.7539 129.555 93.1701 137.14 119.796C140.315 130.404 144.321 140.57 148.876 149.995C153.608 159.366 158.251 167.801 162.913 175.652C167.522 183.327 172.149 190.418 176.512 196.625C180.274 201.471 183.347 205.945 187.198 209.801C187.198 209.801 187.145 209.624 186.968 209.677C185.891 208.651 184.76 207.449 183.753 206.016Z" fill="url(#paint3_linear_1409_37893)" fill-opacity="0.7"/>
<path d="M274.379 239.764C274.149 239.64 274.149 239.64 273.92 239.516C274.149 239.64 274.379 239.764 274.379 239.764Z" fill="url(#paint4_linear_1409_37893)" fill-opacity="0.7"/>
<path d="M279.504 242.083C278.868 241.888 278.408 241.64 277.719 241.269C278.126 241.34 278.408 241.64 278.815 241.711L279.504 242.083Z" fill="url(#paint5_linear_1409_37893)" fill-opacity="0.7"/>
<path d="M297.5 239.778C297.04 239.53 296.581 239.282 296.122 239.034C296.811 239.406 297.5 239.778 298.189 240.149L297.5 239.778Z" fill="url(#paint6_linear_1409_37893)" fill-opacity="0.7"/>
<path d="M353.072 245.875C352.312 245.91 351.322 245.821 350.562 245.856C351.145 245.874 351.728 245.892 352.135 245.963L353.072 245.875Z" fill="url(#paint7_linear_1409_37893)" fill-opacity="0.7"/>
<path d="M349.218 245.873C349.625 245.944 350.208 245.962 350.615 246.033C349.979 245.838 349.572 245.767 349.218 245.873Z" fill="url(#paint8_linear_1409_37893)" fill-opacity="0.7"/>
<path d="M325.659 239.247C321.4 237.247 316.912 235.123 312.901 232.663C308.89 230.204 304.419 227.496 300.603 224.401C284.507 212.459 269.332 197.159 255.202 178.272C246.158 166.724 239.024 155.76 232.613 145.927C226.379 136.042 221.223 127.183 216.844 119.633C209.763 106.919 204.943 98.537 203.671 96.2205C204.414 96.769 205.156 97.3174 205.898 97.8658C205.898 97.8658 205.898 97.8658 206.075 97.8129C213.937 104.128 221.976 110.391 229.856 116.123C235.281 120.086 240.705 124.049 246.023 127.658C247.277 130.558 250.19 136.428 255.311 144.527C258.984 150.363 263.965 157.348 270.5 165.024C277.036 172.7 285.304 181.013 296.081 189.345C304.633 196.032 314.033 201.694 323.47 206.19C328.365 208.385 333.03 210.456 337.944 212.068C342.733 213.909 347.717 215.114 352.701 216.319C370.092 220.36 387.628 219.734 401.559 216.72C387.628 219.734 370.641 219.618 354.186 215.489C335.364 210.528 316.968 201.201 301.032 187.863C291.067 179.673 282.852 171.536 276.016 164.143C274.32 162.339 272.624 160.535 271.105 158.678C269.586 156.821 268.12 155.141 266.654 153.461C263.722 150.101 261.249 146.988 259.059 144.176C254.501 138.605 251.146 133.83 248.85 130.665C248.179 129.71 247.56 128.932 247.119 128.101C252.261 131.763 257.297 135.071 262.509 138.327C267.775 141.76 273.164 144.962 278.271 147.865C280.851 149.404 283.378 150.767 285.958 152.306C288.485 153.669 291.011 155.031 293.538 156.394C298.363 158.996 303.081 161.243 307.569 163.367C307.569 163.367 307.569 163.367 307.746 163.314C312.465 165.562 317.077 167.456 321.637 169.174C330.349 172.538 338.037 175.053 344.647 176.542C346.096 176.878 347.316 177.091 348.589 177.481C348.818 177.605 349.048 177.729 349.278 177.852C350.78 178.366 353.148 179.198 356.099 180.048C359.051 180.899 362.71 181.537 367.128 182.141C369.285 182.266 371.618 182.338 374.181 182.534C376.691 182.554 379.325 182.343 381.959 182.133C384.24 182.028 386.237 181.622 388.235 181.217C390.233 180.812 392.23 180.406 393.998 179.877C397.711 178.766 401.123 177.937 404.147 176.454C410.229 174.248 414.632 171.582 418.239 170.117L418.416 170.064C414.809 171.529 410.477 173.789 404.36 175.235C398.349 177.034 391.136 178.037 382.775 178.421C372.487 178.804 363.755 177.95 357.338 177.751C354.192 177.537 351.629 177.341 349.879 177.287C348.129 177.233 347.139 177.144 347.139 177.144C347.139 177.144 347.599 177.392 348.235 177.587C347.192 177.321 346.149 177.055 344.93 176.842C341.218 176.027 337.224 174.911 333.124 173.441C333.53 173.512 334.114 173.53 334.75 173.725C336.553 173.956 339.222 174.505 342.545 174.666C349.014 175.042 358.012 174.853 367.541 172.578C371.43 171.414 374.843 170.585 377.919 169.279C379.457 168.626 380.872 168.203 382.233 167.602C383.595 167.002 384.956 166.402 386.141 165.855C388.74 164.884 390.88 163.666 392.719 162.73C393.726 162.236 394.787 161.918 395.671 161.654C396.555 161.389 397.262 161.177 398.023 161.142C397.262 161.177 396.555 161.389 395.848 161.601C394.964 161.865 393.903 162.183 392.842 162.5C390.721 163.135 388.352 164.23 385.647 164.847C384.232 165.27 382.818 165.694 381.403 166.117C379.759 166.417 378.345 166.84 376.524 167.192C374.933 167.669 373.112 168.021 371.238 168.197C369.417 168.549 367.419 168.954 365.546 169.13C355.575 170.573 347.267 171.134 341.397 172.12C336.536 172.612 333.424 173.158 332.54 173.423C329.306 172.272 325.842 170.997 322.149 169.598C318.226 168.076 314.02 166.253 309.814 164.429C310.22 164.5 310.857 164.695 311.67 164.837C313.932 165.316 317.184 165.883 321.426 166.54C329.627 167.553 341.046 168.373 353.368 166.418C363.109 164.851 371.065 162.469 377.094 160.087C382.168 158.375 386.147 156.221 389.63 154.986C386.271 155.991 381.957 157.668 376.547 158.902C369.952 160.683 361.555 162.234 351.32 162.793C338.627 163.51 327.827 163.468 320.173 163.64C316.372 163.815 313.279 163.777 311.228 164.006C310.114 164.147 309.354 164.182 308.771 164.163C304.053 161.916 299.281 159.491 294.281 156.943C291.754 155.58 289.403 154.164 286.877 152.802C284.35 151.439 281.946 149.847 279.367 148.307C274.207 145.228 269.047 142.149 263.729 138.54C258.181 134.807 252.403 130.95 246.749 126.863C246.413 126.385 246.36 126.209 246.36 126.209C246.36 126.209 246.413 126.385 246.519 126.739C241.607 123.201 236.465 119.539 231.5 115.823C230.016 114.726 228.762 113.754 227.277 112.657C228.78 113.17 236.309 115.155 247.974 117.442C260.859 119.942 279.17 122.552 298.792 122.458C314.559 122.362 327.322 121.238 337.293 119.795C342.278 119.073 346.503 118.386 350.145 117.681C351.082 117.594 351.966 117.329 352.726 117.294C353.434 117.082 354.37 116.995 355.131 116.96C355.484 116.854 355.891 116.925 356.244 116.819C355.891 116.925 355.661 116.801 355.484 116.854C353.964 116.924 352.32 117.223 350.446 117.399C346.751 117.927 342.42 118.26 337.152 118.681C326.97 119.417 313.536 119.586 297.221 118.497C276.999 117.23 259.483 115.346 246.845 114.313C235.55 113.263 228.497 112.87 227.33 112.833C221.341 108.269 215.298 103.528 209.256 98.7871C212.685 99.3018 220.126 100.349 230.254 101.363C233.807 101.648 237.766 102.004 241.955 102.484C246.092 102.787 250.634 103.161 255.354 103.482C257.687 103.554 260.126 103.98 262.512 104.229C265.128 104.602 267.921 104.921 270.714 105.241C273.454 105.384 276.069 105.757 279.039 106.024C281.779 106.167 284.695 106.258 287.488 106.577C305.854 107.437 320.985 107.146 332.67 106.923C342.834 106.77 350.789 106.316 355.95 107.468C350.736 106.139 343.205 106.081 332.653 105.58C320.58 105.148 304.901 104.255 285.988 102.21C280.049 101.676 274.411 100.86 269.055 100.344C266.439 99.9711 263.823 99.5983 261.207 99.2254C258.415 98.9055 255.622 98.5857 253.289 98.5135C243.496 97.9772 235.435 98.0784 228.488 98.0388C221.771 98.123 216.221 98.2434 212.544 98.1881C210.847 98.3108 209.504 98.3276 208.514 98.2386C205.21 95.5674 201.676 92.7723 198.319 89.9243C194.167 86.3511 189.839 82.8308 185.687 79.2575C186.959 79.6472 188.868 80.2317 191.466 81.1879C196.15 82.6756 202.689 84.571 211.031 86.6973C215.202 87.7605 219.727 88.7178 224.605 89.5692C227.044 89.995 229.66 90.3678 232.099 90.7935C234.662 90.9895 237.278 91.3623 240.018 91.5054C245.321 91.8445 250.853 92.3075 256.509 92.5408C262.042 93.0038 268.158 93.4848 274.503 94.0897C294.936 96.0643 312.17 97.6481 325.357 97.939C338.649 98.5835 348.301 98.0061 354.204 99.7067C348.354 98.1829 338.844 97.9473 325.464 96.3658C311.783 95.0671 294.126 92.0689 272.863 88.6089C266.235 87.7033 259.907 86.5151 253.791 86.0341C247.905 85.6769 242.196 85.2669 237.07 84.8749C234.507 84.6788 231.997 84.6596 229.61 84.4107C227.047 84.2147 224.838 83.9128 222.452 83.6639C217.856 83.1131 213.49 82.6862 209.478 82.1534C196.398 80.2893 187.791 79.2058 185.175 78.833C184.097 77.8071 182.843 76.8341 181.588 75.8611C176.129 71.1381 170.67 66.415 165.158 61.5152C164.645 61.0907 164.363 60.79 163.85 60.3654C165.123 60.7551 167.031 61.3396 169.753 62.066C174.56 63.324 181.506 65.2904 190.149 67.134C198.845 69.1545 209.114 71.282 220.62 73.039C226.258 73.8556 232.303 74.7432 238.596 75.1713C244.765 75.8291 251.216 76.7876 258.021 77.6402C279.938 80.7117 298.215 82.5613 312.674 83.2419C319.497 83.5112 325.967 83.8864 331.623 84.1196C334.363 84.2627 336.926 84.4588 339.082 84.5838C340.072 84.6728 341.115 84.9386 342.105 85.0276C341.292 84.8857 340.426 84.567 339.436 84.478C337.226 84.1761 334.663 83.9801 332.048 83.6073C326.515 83.1443 320.117 82.3626 312.781 81.6687C297.952 79.7505 279.128 76.7163 256.504 71.9297C249.541 70.5467 242.754 69.1107 236.408 68.5058C230.186 67.6712 224.194 66.9604 218.432 66.3736C207.032 64.9701 196.974 63.5499 188.773 62.5373C175.569 60.9029 166.661 60.102 163.638 59.6582C158.868 55.3068 153.869 50.8316 149.275 46.4272C145.813 43.2256 142.35 40.024 139.064 36.7695C142.953 37.532 151.26 38.8982 162.784 40.0719C170.756 40.9606 180.425 41.7266 190.872 41.8745C196.121 42.0368 201.725 42.0932 207.275 41.9729C210.139 41.8863 212.826 41.8526 215.972 42.0666C218.942 42.3336 222.088 42.5476 225.234 42.7617C245.915 44.2769 263.397 45.4012 277.732 46.3115C284.962 46.6518 291.307 47.2567 297.017 47.6667C302.779 48.2536 307.728 48.6986 311.987 50.6986L312.393 50.7696C308.135 48.7695 303.185 48.3246 297.317 47.3841C291.325 46.6734 284.697 45.7678 277.433 44.6674C262.603 42.7492 244.468 40.0866 222.905 36.9093C219.653 36.3416 216.277 36.0037 213.13 35.7896C209.931 35.3988 206.608 35.2377 203.921 35.2714C198.141 35.2678 192.767 35.3352 187.57 35.3497C177.176 35.3787 168.126 35.3908 160.471 35.5629C152.994 35.6821 146.913 35.9612 142.883 36.0117C140.956 36.0106 139.436 36.0803 138.322 36.2211C136.679 34.5938 135.089 33.1433 133.269 31.569C132.015 30.596 130.884 29.3933 129.807 28.3674C130.744 28.2796 132.617 28.104 135.481 28.0173C139.635 27.737 145.416 27.7406 152.663 27.4976C166.982 27.0644 187.204 26.4051 211.104 25.801C244 25.0081 270.46 28.4536 288.029 32.4416C285.713 31.7861 283.398 31.1307 280.906 30.5281C275.162 29.358 268.446 27.5155 261.128 26.2383C246.388 23.3302 228.713 20.9154 208.544 19.8247C183.656 18.413 163.627 20.3629 150.121 22.8647C143.367 24.1156 137.958 25.3497 134.474 26.5849C131.822 27.3787 130.284 28.0318 129.577 28.2435C125.885 24.918 122.245 21.7693 118.606 18.6207C119.543 18.5328 121.01 18.2863 122.937 18.2875C126.861 17.8833 132.306 17.4094 139.271 16.8657C142.842 16.5673 146.819 16.34 150.973 16.0597C155.127 15.7794 159.406 15.2694 163.86 14.7065C172.77 13.5806 182.794 12.314 193.242 10.5351C197.467 9.84829 201.621 9.56801 205.669 8.93413C209.771 8.47704 213.748 8.24969 217.549 8.07525C225.097 7.54957 232.221 7.53625 238.814 7.68171C251.824 8.02554 263.154 9.83549 271.476 14.4719L271.936 14.7197C263.666 10.2601 252.301 7.68997 238.515 6.03759C231.71 5.18494 224.073 4.7737 216.084 4.46831C212 4.34206 207.917 4.21582 203.48 4.19543C199.273 4.29891 194.66 4.33144 190.099 4.54077C178.927 5.18797 168.903 6.45454 159.923 7.98691C150.43 9.09473 142.616 10.6632 136.198 12.3916C129.957 14.067 125.236 15.6727 121.983 17.0318C120.445 17.6849 119.26 18.2322 118.376 18.4968C118.146 18.3729 117.864 18.0722 117.634 17.9483C114.436 15.6307 111.362 13.0834 108.164 10.7658C108.871 10.5541 109.932 10.2366 110.992 9.91906C114.352 8.91354 119.249 7.25493 125.49 5.57946C131.908 3.85107 139.262 2.03487 148.066 0.55542C152.468 -0.184303 157.224 -1.02986 162.262 -1.57475C164.843 -1.96206 167.477 -2.17258 170.058 -2.55988C172.639 -2.94719 174.99 -3.45837 177.571 -3.84568C193.836 -6.78773 208.526 -7.91003 221.288 -7.10676C234.227 -6.35641 245.238 -3.68048 253.526 0.195793L253.932 0.266747C245.697 -3.43273 234.422 -6.99265 220.935 -8.92767C214.254 -10.01 206.795 -10.4742 199.035 -10.6557C195.129 -10.8349 191.098 -10.7843 186.891 -10.6809C184.788 -10.6291 182.684 -10.5774 180.633 -10.3488C179.467 -10.3849 178.583 -10.1203 177.416 -10.1564C176.249 -10.1924 174.906 -10.1756 173.739 -10.2116C161.366 -10.3606 151.218 -8.86433 142.803 -6.73061C134.264 -4.36716 127.279 -1.31336 121.71 1.31706C116.193 4.12428 112.373 6.8088 109.632 8.59247C108.677 9.2636 107.899 9.88181 107.245 10.2703C105.248 8.74888 103.075 7.28037 101.078 5.75896C100.619 5.5112 100.106 5.08665 99.647 4.83889C100.301 4.45041 101.433 3.72635 103.095 2.84353C104.404 2.06656 106.19 0.954018 108.153 -0.211441C110.115 -1.3769 112.255 -2.59528 114.748 -3.91951C119.735 -6.56796 125.906 -9.76367 133.244 -12.9233C136.798 -14.5651 140.758 -16.1359 145.125 -17.6357C147.194 -18.4476 149.492 -19.1355 151.738 -20.0003C154.036 -20.6883 156.158 -21.3234 158.633 -22.0643C166.288 -24.1631 173.855 -25.2721 181.403 -25.7978C185.203 -25.9722 188.827 -26.0938 192.557 -25.8617C195.774 -26.0541 198.762 -26.3705 201.625 -26.4571C213.31 -26.6798 223.544 -25.3124 231.303 -23.2041L231.709 -23.1332C223.95 -25.2414 213.682 -27.3689 201.22 -28.4549C199.647 -28.5619 198.074 -28.6689 196.501 -28.7759C195.74 -28.741 194.698 -29.0068 193.708 -29.0958C192.718 -29.1848 191.675 -29.4506 190.685 -29.5396C186.673 -30.0723 182.484 -30.5522 178.401 -30.6784C170.005 -31.0548 161.767 -30.9007 153.069 -29.0677C131.748 -24.9974 118.91 -15.7604 110.562 -8.25287C104.071 -2.26444 100.656 2.41779 99.4882 4.30849C97.3149 2.83999 95.1945 1.54829 93.0211 0.0797882C90.2116 -1.58354 87.5259 -3.4766 84.7692 -4.96313C82.0126 -6.44967 79.0791 -7.88327 76.2695 -9.5466C74.8912 -10.2899 73.5129 -11.0331 72.1345 -11.7764C70.7562 -12.5197 69.254 -13.0332 67.9285 -13.5997C62.3972 -15.9894 56.9897 -18.6089 51.4403 -20.4153C48.8425 -21.3714 46.0678 -22.2747 43.4699 -23.2308C40.872 -24.1869 38.2031 -24.7365 35.6582 -25.5159C15.2275 -31.344 -2.18314 -32.8749 -14.2741 -32.7232C-20.2312 -32.6738 -24.9158 -32.2348 -27.9034 -31.9184C-31.0677 -31.5492 -32.5351 -31.3026 -32.5351 -31.3026C-33.6488 -31.1618 -34.7276 -30.261 -34.3391 -29.6067C-34.2332 -29.2531 -33.7738 -29.0054 -33.1376 -28.8105C-32.6781 -28.5628 -32.0948 -28.5447 -31.5644 -28.7035C-31.5644 -28.7035 -31.2108 -28.8094 -30.4507 -28.8443C-29.6906 -28.8791 -28.5769 -29.0199 -27.1095 -29.2664C-25.6422 -29.513 -23.7155 -29.5118 -21.488 -29.7933C-19.2077 -29.898 -16.6976 -29.8787 -13.6571 -30.0183C-1.91973 -30.0641 15.2612 -28.6571 35.4092 -23.1297C37.9542 -22.3503 40.6231 -21.8007 42.9912 -20.9685C45.5891 -20.0123 48.187 -19.0562 50.7849 -18.1001C53.9661 -17.1259 57.2532 -15.7981 60.4164 -14.2406C59.9389 -13.9051 59.4614 -13.5695 58.9839 -13.2339C56.5436 -11.7329 53.431 -9.26009 49.8229 -5.86837C42.8893 1.21574 34.8396 12.2941 30.1816 26.9806C29.1016 29.8082 28.1984 32.5829 27.2952 35.3576C26.5688 38.0794 25.8423 40.8012 25.2398 43.2932C23.8579 48.3302 22.4941 52.7839 21.6606 57.0788C19.9408 65.4919 18.2752 72.155 16.6636 77.0681L16.5397 77.2979C17.9745 72.4376 20.2764 65.9694 23.039 57.8221C24.5087 53.722 26.5087 49.4632 28.5798 44.7978C29.5888 42.3767 30.5979 39.9556 31.7308 37.3048C33.0935 34.7778 34.4561 32.2509 35.9427 29.4942C42.7211 16.0994 49.6041 4.98499 54.5761 -2.86042C57.2653 -6.74765 59.1764 -10.0167 60.8746 -12.0661C61.2992 -12.5785 61.6708 -13.2677 61.9715 -13.5503C63.7564 -12.7361 65.5412 -11.9219 67.5029 -11.1606C68.8283 -10.5941 70.3305 -10.0805 71.7088 -9.33728C73.0871 -8.59401 74.4654 -7.85075 75.8438 -7.10748C77.9112 -5.99258 80.1556 -4.9306 82.276 -3.63891C80.2073 -2.82704 74.7614 -0.426338 68.7129 4.46641C64.8751 7.73425 60.7186 11.868 56.8086 17.4692C53.0754 23.0174 49.6068 29.4496 47.2688 37.0845C43.2134 49.2789 41.5273 60.3789 40.4967 69.1636C40.2465 73.4765 39.5899 77.7186 39.3049 81.2714C39.2496 84.9481 38.8058 87.9706 38.6098 90.5336L38.6627 90.7104C39.0355 88.0945 39.4264 84.8952 39.7643 81.5191C40.279 78.0902 41.1654 73.972 41.9988 69.6771C44.0722 61.1582 47.1896 50.9783 52.7292 39.8808C59.4017 26.1324 67.0978 15.1598 72.9358 7.63312C77.6768 1.59058 81.3559 -2.20765 82.6825 -3.56794C83.1419 -3.32019 83.7782 -3.12536 84.2905 -2.70081C87.224 -1.26719 89.9097 0.625862 92.5425 2.34212C93.5143 3.01443 94.6629 3.63382 95.6347 4.30613C91.3723 8.08633 86.3666 13.2449 81.4656 20.6838C76.3168 28.5821 71.1489 38.9905 67.0044 52.1748C64.4187 60.2692 62.8228 68.4525 61.7224 75.7169C60.6749 83.1582 60.4235 89.3979 60.0135 95.1073C59.8535 96.5036 59.8704 97.8471 59.8344 99.0137C59.7983 100.18 59.8151 101.524 59.903 102.461C59.9547 104.564 59.9535 106.491 59.9703 107.834C60.057 110.698 59.95 112.271 60.2326 112.572C60.2326 112.572 60.0738 112.042 60.4455 111.352C60.6403 110.716 60.8532 109.497 61.2428 108.224C61.5796 106.775 61.8634 105.149 62.395 103.063C62.6608 102.02 62.7498 101.031 62.9626 99.8111C63.1755 98.5915 63.6181 97.4958 63.7781 96.0995C64.8773 90.7618 66.2952 84.5581 67.6783 77.5943C69.0613 70.6306 70.816 62.9776 72.7126 54.5116C74.3254 47.6717 75.8492 41.8217 77.6556 36.2723C79.5149 30.8997 81.3562 26.1104 83.3563 21.8516C87.2855 13.7404 91.4432 7.67982 95.7586 4.07641C97.4195 5.12035 99.1335 6.34109 100.971 7.33211C101.943 8.00442 102.915 8.67674 103.887 9.34905C102.507 10.5325 98.2977 14.4895 93.8032 21.9994C91.1488 26.6467 87.9989 32.213 85.6789 39.2646C84.4041 42.7284 83.4119 46.493 82.119 50.5401C81.5875 52.6257 81.2327 54.6583 80.7011 56.7438C80.1695 58.8293 79.8676 61.0387 79.5658 63.2481C79.104 66.8539 78.6422 70.4597 78.1275 73.8886C77.7895 77.2647 77.4516 80.6407 77.2376 83.787C77.0235 86.9334 76.9333 89.85 76.8432 92.7666C76.8781 93.5267 76.6832 94.1629 76.9479 95.047C77.2125 95.9309 77.3003 96.8679 77.5649 97.7519C77.9173 99.5728 78.3936 101.164 78.746 102.985C79.345 106.273 80.5273 109.579 81.6567 112.709C82.7861 115.838 83.456 118.72 84.4796 121.496C85.3973 123.918 86.3859 125.934 87.1978 128.003C84.5505 121.089 82.3458 113.081 81.0432 104.224C80.4971 101.112 80.2517 97.7182 80.0063 94.3241L79.8488 91.8669C79.8139 91.1068 80.0087 90.4705 80.1506 89.6575C80.3106 88.2611 80.6473 86.8118 80.8073 85.4155C81.9245 79.4945 83.2895 73.114 85.2559 66.1683C85.7875 64.0827 86.4958 61.9443 87.0803 60.0356C87.7887 57.8971 88.1965 56.0413 88.781 54.1326C90.0029 50.4919 90.9951 46.7274 92.2699 43.2635C94.4131 36.2649 96.697 30.3799 98.4325 25.2371C101.549 16.984 103.762 11.5055 104.399 9.77361C105.141 10.322 106.113 10.9943 106.908 11.7196L106.731 11.7725C106.731 11.7725 106.731 11.7725 106.908 11.7196C109.417 13.6656 111.926 15.6115 114.559 17.3278C113.478 20.1554 112.275 23.2127 110.699 26.9592C109.3 30.6528 107.707 34.9826 105.865 39.7719C102.236 49.5272 98.2513 61.3151 94.4773 75.737C94.2825 76.3733 94.2115 76.7798 94.0167 77.416L93.7857 79.2189C93.5729 80.4385 93.5898 81.7819 93.5537 82.9486C93.3577 85.5116 93.3384 88.0217 93.3192 90.5317C93.2808 95.5519 93.596 100.466 94.2648 105.275C95.4255 114.945 97.7709 124.067 100.276 131.793C101.617 135.63 102.853 139.113 104.159 142.19C105.695 145.39 106.842 147.936 107.884 150.129C110.144 154.461 111.238 156.83 111.238 156.83C111.238 156.83 110.55 154.532 109.563 150.589C108.981 148.645 108.24 146.169 107.517 143.111C106.847 140.229 106.124 137.171 105.419 133.529C102.529 119.368 100.667 100.276 101.192 79.5063C101.317 77.3498 101.318 75.423 101.496 73.4433C101.674 71.4637 101.623 69.3601 101.959 67.9108C102.651 64.4289 103.271 61.3536 103.892 58.2782C105.133 52.1275 106.48 46.3303 107.632 41.1694C110.113 30.7947 112.222 23.0359 114.611 17.5046L114.559 17.3278C115.53 18.0001 116.502 18.6724 117.527 19.5215C122.88 23.8909 128.11 28.4901 133.339 33.0892C138.622 37.8652 143.957 42.8179 149.239 47.5939C151.395 49.6457 153.727 51.6446 155.935 53.8732C155.793 54.6863 155.385 56.5421 155.136 58.9283C154.727 62.7108 154.317 68.4202 154.49 76.0743C154.958 91.1528 158.638 113.746 170.394 141.435C180.155 163.749 191.828 182.794 203.255 198.445C214.736 214.272 226.501 226.547 235.439 235.815L235.952 236.24C226.836 227.025 216.008 214.662 205.747 199.047C195.487 183.432 185.67 164.795 177.464 143.172C167.598 116.65 162.168 94.0032 159.385 78.2692C157.095 65.4699 156.304 57.0376 156.041 54.2268C158.991 57.0039 162.118 59.728 165.245 62.4521C168.991 65.9544 172.86 69.227 176.729 72.4996C176.799 74.0198 177.077 82.0275 179.296 95.2334C180.529 102.57 182.468 111.622 185.767 122C189.066 132.378 194.114 144.737 201.955 157.416C214.333 178.176 227.81 195.525 241.094 209.657C247.648 216.75 254.344 223.029 260.951 228.371C264.079 231.096 267.506 233.537 270.704 235.855C272.418 237.075 274.309 238.243 276.2 239.411C274.539 238.367 272.878 237.323 271.394 236.226C268.196 233.909 264.945 231.414 261.994 228.637C255.74 223.189 249.805 216.875 243.657 209.853C231.717 195.705 219.813 178.462 208.884 158.039C202.033 145.449 197.126 134.204 193.42 123.755C189.767 113.482 186.609 104.218 184.333 96.6152C182.057 89.0129 180.205 82.8249 178.758 78.6346C177.806 75.4522 177.17 73.3306 176.906 72.4466C178.496 73.8971 180.033 75.1708 181.8 76.5683C185.21 79.5931 188.566 82.4411 192.1 85.2362C192.54 87.994 193.72 95.1538 196.648 106.221C200.652 120.241 207.445 140.362 222.014 163.934C233.634 182.802 246.687 198.736 260.131 211.472C273.063 223.783 286.562 232.842 298.278 239.159C286.562 232.842 274 223.695 262.694 211.668C250.593 198.916 239.343 183.212 229.172 164.68C216.742 141.817 207.898 121.925 201.809 107.373C197.237 96.6055 194.148 88.8612 192.842 85.7846C194.839 87.306 196.711 89.0572 198.708 90.5786C200.987 92.4007 203.319 94.3996 205.775 96.1688C206.04 97.0528 206.622 98.9976 207.698 101.95C209.092 105.964 211.245 111.869 214.405 119.207C217.564 126.545 221.961 135.439 227.717 145.659C233.827 155.774 241.014 166.915 250.871 178.605C266.521 197.423 282.915 212.935 300.479 224.63C302.652 226.099 304.826 227.567 306.946 228.859C309.243 230.098 311.364 231.39 313.661 232.628C317.902 235.212 322.744 237.23 327.18 239.177C331.615 241.124 336.475 242.559 340.929 243.923C343.421 244.525 346.09 245.075 348.706 245.448C346.497 245.146 344.004 244.543 341.742 244.065C334.602 242.735 330.042 241.017 325.659 239.247Z" fill="url(#paint9_linear_1409_37893)" fill-opacity="0.7"/>
<path d="M346.019 245.482C346.249 245.606 346.426 245.553 346.832 245.624C346.602 245.5 346.196 245.429 346.019 245.482Z" fill="url(#paint10_linear_1409_37893)" fill-opacity="0.7"/>
<path d="M346.187 230.598C345.781 230.527 345.197 230.509 344.791 230.438C345.021 230.562 345.374 230.456 345.604 230.58L346.187 230.598Z" fill="url(#paint11_linear_1409_37893)" fill-opacity="0.7"/>
<path d="M341.185 229.977C341.592 230.048 341.769 229.995 342.175 230.066C341.769 229.995 341.415 230.101 341.185 229.977Z" fill="url(#paint12_linear_1409_37893)" fill-opacity="0.7"/>
<path d="M344.791 230.438C344.384 230.367 343.801 230.349 343.395 230.278C343.978 230.296 344.384 230.367 344.791 230.438Z" fill="url(#paint13_linear_1409_37893)" fill-opacity="0.7"/>
<path d="M326.269 225.194C322.929 223.69 319.589 222.185 316.32 220.274C313.051 218.363 309.782 216.452 306.584 214.134C303.386 211.817 300.188 209.499 297.113 206.952C294.039 204.404 291.089 201.627 288.086 198.673C285.259 195.667 282.61 192.607 279.73 189.423C277.028 186.187 274.272 182.774 271.464 179.183C257.881 161.481 247.161 145.618 239.514 134.23C231.867 122.841 227.293 115.927 227.293 115.927C227.293 115.927 227.999 117.642 229.305 120.718C230.612 123.795 232.748 128.357 235.837 134.174C241.787 145.686 250.987 161.618 266.196 179.604C269.234 183.318 272.343 186.626 275.275 189.986C278.208 193.347 281.441 196.424 284.621 199.325C291.034 205.304 297.942 210.364 304.816 214.663C311.689 218.963 318.758 222.626 325.562 225.406C328.902 226.91 332.489 227.956 335.847 228.877C337.526 229.337 339.205 229.798 340.831 230.082C341.008 230.029 341.061 230.206 341.238 230.153C339.612 229.869 338.11 229.355 336.431 228.895C333.02 227.797 329.379 226.575 326.269 225.194Z" fill="url(#paint14_linear_1409_37893)" fill-opacity="0.7"/>
<path d="M406.544 215.999C404.776 216.528 402.956 216.88 401.135 217.233C403.309 216.774 405.307 216.369 407.252 215.787L406.544 215.999Z" fill="url(#paint15_linear_1409_37893)" fill-opacity="0.7"/>
<path d="M355.766 205.963C353.45 205.307 351.259 204.422 348.714 203.643C346.346 202.811 343.978 201.978 341.557 200.969C331.624 197.392 322.507 192.031 312.876 186.245C297.698 176.725 287.133 167.173 279.148 159.161C277.17 157.056 275.297 155.305 273.548 153.324C271.852 151.52 270.333 149.663 268.867 147.983C265.935 144.623 263.692 141.634 261.961 139.07L261.731 138.946C265.369 144.021 270.12 150.883 277.451 159.284C284.729 167.508 294.109 177.607 308.438 188.151C317.343 194.732 327.045 200.112 337.259 203.989C347.297 207.92 357.495 210.454 366.81 211.326C369.196 211.575 371.53 211.647 373.686 211.772C375.843 211.897 377.822 212.075 379.873 211.846C383.85 211.619 387.121 211.603 390.108 211.287C395.854 210.53 398.965 209.984 398.965 209.984C398.965 209.984 396.101 210.071 390.781 210.315C388.147 210.526 384.947 210.135 381.447 210.026C377.771 209.971 373.935 209.386 369.516 208.782C368.527 208.693 367.307 208.48 366.087 208.267C365.045 208.001 363.825 207.788 362.782 207.523C360.343 207.097 358.081 206.618 355.766 205.963Z" fill="url(#paint16_linear_1409_37893)" fill-opacity="0.7"/>
<path d="M299.084 163.981C297.088 162.459 295.374 161.239 293.837 159.965C292.3 158.691 291.045 157.718 289.844 156.922C287.617 155.277 286.54 154.251 286.54 154.251C286.54 154.251 287.211 155.206 288.783 157.24C290.302 159.097 292.669 161.856 295.955 165.11C302.526 171.619 312.526 180.57 328.519 188.304C341.171 194.534 354.02 198.201 365.65 199.729C377.228 201.079 387.64 200.467 395.206 199.358L395.56 199.252C391.635 199.656 387.233 200.396 382.337 200.128C380.004 200.056 377.317 200.089 374.701 199.716C372.085 199.344 369.469 198.971 366.676 198.651C355.824 196.505 343.983 192.344 332.391 185.797C318.096 177.939 307.017 169.89 299.084 163.981Z" fill="url(#paint17_linear_1409_37893)" fill-opacity="0.7"/>
<path d="M323.225 172.551C319.656 170.923 317.023 169.206 315.185 168.215C313.347 167.224 312.199 166.605 312.199 166.605C312.199 166.605 314.619 169.541 320.379 173.981C326.085 178.245 335.185 184.19 348.847 187.999C351.746 188.672 354.291 189.451 356.959 190.001C359.628 190.551 362.244 190.923 364.807 191.119C367.37 191.315 369.933 191.511 372.267 191.584C374.653 191.832 376.933 191.728 379.213 191.623C381.494 191.518 383.597 191.467 385.648 191.238C387.646 190.833 389.696 190.604 391.517 190.252C395.212 189.724 398.394 188.771 401.099 188.154L401.276 188.101C398.571 188.718 395.389 189.671 391.818 189.969C389.944 190.145 388.07 190.32 386.196 190.496C384.146 190.725 382.166 190.547 380.063 190.598C375.803 190.525 371.384 189.921 366.505 189.07C361.804 188.166 356.997 186.908 352.031 185.119C339.783 180.887 330.064 176.091 323.225 172.551Z" fill="url(#paint18_linear_1409_37893)" fill-opacity="0.7"/>
<path d="M397.086 161.231C396.856 161.107 396.856 161.107 397.086 161.231V161.231Z" fill="url(#paint19_linear_1409_37893)" fill-opacity="0.7"/>
<path d="M390.355 154.191C390.178 154.244 390.002 154.297 389.648 154.403C390.002 154.297 390.002 154.297 390.355 154.191Z" fill="url(#paint20_linear_1409_37893)" fill-opacity="0.7"/>
<path d="M301.088 153.941C296.828 153.868 293.558 153.884 291.224 153.812C288.891 153.74 287.548 153.756 287.548 153.756C287.548 153.756 288.997 154.093 291.489 154.696C293.981 155.298 297.693 156.114 302.164 156.894C311.285 158.402 324.1 159.382 336.846 156.915C347.241 154.96 354.19 151.146 359.99 148.639C362.784 147.032 365.666 146.362 367.858 145.321C369.096 144.95 370.156 144.633 371.217 144.315C372.225 143.821 373.109 143.556 373.993 143.292L374.17 143.239C373.286 143.503 372.455 143.945 371.394 144.262C370.333 144.58 369.22 144.721 367.805 145.144C366.568 145.514 365.383 146.062 363.739 146.361C362.271 146.608 360.733 147.261 359.142 147.737C352.6 149.695 344.927 152.377 334.214 153.272C321.221 154.272 309.431 154.141 301.088 153.941Z" fill="url(#paint21_linear_1409_37893)" fill-opacity="0.7"/>
<path d="M321.088 141.598C304.578 141.146 290.19 140.059 279.814 139.505C269.562 138.721 263.499 138.417 263.499 138.417C263.499 138.417 265.178 138.877 268.13 139.727C271.081 140.578 275.429 141.588 280.943 142.634C291.743 144.603 306.855 146.822 322.888 145.683C335.758 144.913 345.87 142.656 353.472 140.381C361.075 138.105 366.008 135.28 369.898 134.116L370.075 134.063C366.185 135.227 361.146 137.699 352.978 139.373C345.111 140.764 334.451 141.836 321.088 141.598Z" fill="url(#paint22_linear_1409_37893)" fill-opacity="0.7"/>
<path d="M264.441 130.622C276.459 132.803 293.498 135.023 311.617 134.416C326.113 133.929 337.904 132.134 346.549 130.124C355.424 128.238 361.4 125.678 365.555 125.398L365.731 125.345C361.4 125.678 355.442 127.655 346.179 128.886C336.915 130.118 324.806 130.853 309.64 130.384C290.921 129.63 274.5 128.188 262.905 127.421C251.309 126.654 244.486 126.385 244.486 126.385C244.486 126.385 246.342 126.792 249.7 127.714C253.359 128.352 258.343 129.557 264.441 130.622Z" fill="url(#paint23_linear_1409_37893)" fill-opacity="0.7"/>
<path d="M357.641 116.979C357.234 116.908 356.828 116.837 356.474 116.943C356.88 117.014 357.464 117.032 357.87 117.103L357.641 116.979Z" fill="url(#paint24_linear_1409_37893)" fill-opacity="0.7"/>
<path d="M356.409 107.716L356.179 107.592C356.409 107.716 356.586 107.663 356.816 107.787L356.409 107.716Z" fill="url(#paint25_linear_1409_37893)" fill-opacity="0.7"/>
<path d="M341.451 85.4166C341.451 85.4166 341.68 85.5405 341.91 85.6644C341.91 85.6644 341.68 85.5405 341.451 85.4166Z" fill="url(#paint26_linear_1409_37893)" fill-opacity="0.7"/>
<path d="M342.723 85.806C343.129 85.877 343.412 86.1778 343.642 86.3017C343.235 86.2307 342.953 85.9299 342.723 85.806Z" fill="url(#paint27_linear_1409_37893)" fill-opacity="0.7"/>
<path d="M340.867 85.3986C341.044 85.3457 341.097 85.5225 341.274 85.4696C341.274 85.4696 341.044 85.3457 340.867 85.3986Z" fill="url(#paint28_linear_1409_37893)" fill-opacity="0.7"/>
<path d="M343.642 86.3017C343.872 86.4256 344.101 86.5493 344.101 86.5493L343.642 86.3017Z" fill="url(#paint29_linear_1409_37893)" fill-opacity="0.7"/>
<path d="M243.54 55.0052C240.111 54.4905 236.505 54.0287 233.005 53.9205C229.912 53.8833 226.766 53.6692 223.849 53.579C217.786 53.2748 211.953 53.0945 206.42 52.6315C195.408 51.8823 185.563 51.1692 177.238 50.3863C168.965 49.7803 162.443 49.2283 157.9 48.8543C153.357 48.4803 151.024 48.4082 151.024 48.4082C151.024 48.4082 153.746 49.1346 158.553 50.3926C163.361 51.6506 170.377 53.2104 178.967 54.8773C187.557 56.5442 197.844 58.0883 209.139 59.1382C214.724 59.778 220.787 60.0822 226.797 60.2096C229.89 60.2469 232.984 60.2841 236.077 60.3214C237.65 60.4284 238.941 60.2347 240.514 60.3418C242.087 60.4488 243.66 60.5558 245.234 60.6628C255.892 61.5178 266.002 63.1149 275.37 64.1636C284.561 65.2652 292.94 66.2249 300.452 66.8658C307.964 67.5068 314.486 68.0588 320.072 68.6986C325.657 69.3383 330.607 69.7833 334.53 71.3059L334.936 71.3768C331.19 69.8013 326.241 69.3564 320.549 68.363C314.504 67.4754 307.823 66.3931 300.559 65.2927C293.012 63.8916 284.351 62.6312 274.895 60.6456C265.368 59.0666 254.87 56.8152 243.54 55.0052Z" fill="url(#paint30_linear_1409_37893)" fill-opacity="0.7"/>
<path d="M294.727 34.868C294.55 34.9209 294.32 34.7971 294.32 34.7971L294.727 34.868Z" fill="url(#paint31_linear_1409_37893)" fill-opacity="0.7"/>
<path d="M286.844 32.9892C289.566 33.7157 291.881 34.3711 294.143 34.8498C292.005 34.1414 289.513 33.5389 286.844 32.9892Z" fill="url(#paint32_linear_1409_37893)" fill-opacity="0.7"/>
<path d="M104.799 -37.1572C100.853 -30.3895 97.862 -24.2928 95.3664 -19.1151C90.3752 -8.75958 88.1262 -2.11452 88.1262 -2.11452C88.1262 -2.11452 93.008 -7.04333 100.402 -15.8064C104.099 -20.188 108.416 -25.7182 112.98 -31.7078C115.156 -34.0928 119.081 -36.4237 123.343 -38.2772C127.551 -40.3074 132.448 -41.966 137.523 -43.6776C145.832 -46.1649 154.106 -47.4856 162.132 -48.3468C166.233 -48.8039 170.21 -49.0313 174.241 -49.0818C178.094 -49.0795 181.824 -48.8474 185.553 -48.6153C192.889 -47.9214 199.976 -46.7681 206.64 -45.1024C207.453 -44.9605 208.319 -44.6418 209.132 -44.4998C209.998 -44.1811 210.528 -44.3399 211.164 -44.1451C212.384 -43.9322 213.55 -43.8961 214.77 -43.6833C216.979 -43.3814 219.242 -42.9028 221.274 -42.548L221.681 -42.477C219.648 -42.8318 217.563 -43.3634 215.3 -43.842C214.081 -44.0549 212.861 -44.2678 211.642 -44.4806L210.652 -44.5696C210.245 -44.6406 210.069 -44.5877 209.609 -44.8354C208.743 -45.1541 207.93 -45.296 207.064 -45.6148C200.065 -47.7579 192.589 -49.5655 184.636 -51.0376C182.603 -51.3923 180.57 -51.7471 178.591 -51.9251C176.558 -52.2799 174.402 -52.4049 172.245 -52.53C167.932 -52.7801 163.442 -52.9773 159.006 -52.9977C154.569 -53.0181 150.008 -52.8088 145.5 -52.4227C140.816 -51.9836 136.06 -51.138 131.357 -50.1157C125.594 -48.7758 120.467 -47.241 116.082 -45.1579C111.467 -43.1986 107.541 -40.8677 104.799 -37.1572Z" fill="url(#paint33_linear_1409_37893)" fill-opacity="0.7"/>
<path d="M99.7931 -60.3168C87.9777 -48.3039 84.4335 -33.7581 82.5357 -23.3654C80.8676 -12.8487 81.5882 -5.93672 81.5882 -5.93672C81.5882 -5.93672 83.7481 -11.5919 87.9961 -20.5691C92.244 -29.5463 98.2971 -42.1461 107.744 -54.9912C111.636 -60.0091 115.917 -64.3726 120.586 -68.0818C125.131 -71.5614 130.241 -74.4395 135.315 -76.1511C137.685 -77.2456 140.39 -77.8626 142.918 -78.4267C145.446 -78.9908 147.974 -79.5549 150.201 -79.8364C155.522 -80.0806 160.083 -80.2899 164.343 -80.2166L164.749 -80.1456C160.666 -80.2719 155.646 -80.3103 150.043 -80.3668C147.409 -80.1563 144.775 -79.9458 141.964 -79.6823C139.153 -79.4189 135.936 -79.2264 133.284 -78.4326C130.402 -77.7627 127.397 -76.863 124.214 -75.9104C121.491 -74.71 118.592 -73.4568 115.568 -71.9738C109.927 -68.9368 104.498 -65.1927 99.7931 -60.3168Z" fill="url(#paint34_linear_1409_37893)" fill-opacity="0.7"/>
<path d="M54.7624 -18.3271C54.7624 -18.3271 57.3638 -23.1513 61.3639 -31.669C65.2402 -39.957 70.3384 -51.8857 75.8972 -65.4933C80.3231 -76.4502 85.3312 -85.4623 91.133 -91.8223C96.9349 -98.1824 104.344 -101.749 111.398 -103.282L111.751 -103.388C104.927 -101.731 96.2108 -99.3141 88.677 -93.5915C80.9135 -87.9927 73.4844 -79.9897 67.3795 -69.4935C59.7352 -56.4174 57.2877 -43.3558 56.0623 -33.9349C54.5361 -24.2313 54.7624 -18.3271 54.7624 -18.3271Z" fill="url(#paint35_linear_1409_37893)" fill-opacity="0.7"/>
<defs>
<linearGradient id="paint0_linear_1409_37893" x1="55.4661" y1="9.06668" x2="248.575" y2="241.284" gradientUnits="userSpaceOnUse">
<stop stop-color="#163127" stop-opacity="0.1"/>
<stop offset="0.693762" stop-color="#163127"/>
</linearGradient>
<linearGradient id="paint1_linear_1409_37893" x1="55.4661" y1="9.06668" x2="248.575" y2="241.284" gradientUnits="userSpaceOnUse">
<stop stop-color="#163127" stop-opacity="0.1"/>
<stop offset="0.693762" stop-color="#163127"/>
</linearGradient>
<linearGradient id="paint2_linear_1409_37893" x1="55.4661" y1="9.06668" x2="248.575" y2="241.284" gradientUnits="userSpaceOnUse">
<stop stop-color="#163127" stop-opacity="0.1"/>
<stop offset="0.693762" stop-color="#163127"/>
</linearGradient>
<linearGradient id="paint3_linear_1409_37893" x1="55.4661" y1="9.06668" x2="248.575" y2="241.284" gradientUnits="userSpaceOnUse">
<stop stop-color="#163127" stop-opacity="0.1"/>
<stop offset="0.693762" stop-color="#163127"/>
</linearGradient>
<linearGradient id="paint4_linear_1409_37893" x1="55.4661" y1="9.06668" x2="248.575" y2="241.284" gradientUnits="userSpaceOnUse">
<stop stop-color="#163127" stop-opacity="0.1"/>
<stop offset="0.693762" stop-color="#163127"/>
</linearGradient>
<linearGradient id="paint5_linear_1409_37893" x1="55.4661" y1="9.06668" x2="248.575" y2="241.284" gradientUnits="userSpaceOnUse">
<stop stop-color="#163127" stop-opacity="0.1"/>
<stop offset="0.693762" stop-color="#163127"/>
</linearGradient>
<linearGradient id="paint6_linear_1409_37893" x1="55.4661" y1="9.06668" x2="248.575" y2="241.284" gradientUnits="userSpaceOnUse">
<stop stop-color="#163127" stop-opacity="0.1"/>
<stop offset="0.693762" stop-color="#163127"/>
</linearGradient>
<linearGradient id="paint7_linear_1409_37893" x1="55.4661" y1="9.06668" x2="248.575" y2="241.284" gradientUnits="userSpaceOnUse">
<stop stop-color="#163127" stop-opacity="0.1"/>
<stop offset="0.693762" stop-color="#163127"/>
</linearGradient>
<linearGradient id="paint8_linear_1409_37893" x1="55.4661" y1="9.06668" x2="248.575" y2="241.284" gradientUnits="userSpaceOnUse">
<stop stop-color="#163127" stop-opacity="0.1"/>
<stop offset="0.693762" stop-color="#163127"/>
</linearGradient>
<linearGradient id="paint9_linear_1409_37893" x1="55.4661" y1="9.06668" x2="248.575" y2="241.284" gradientUnits="userSpaceOnUse">
<stop stop-color="#163127" stop-opacity="0.1"/>
<stop offset="0.693762" stop-color="#163127"/>
</linearGradient>
<linearGradient id="paint10_linear_1409_37893" x1="55.4661" y1="9.06668" x2="248.575" y2="241.284" gradientUnits="userSpaceOnUse">
<stop stop-color="#163127" stop-opacity="0.1"/>
<stop offset="0.693762" stop-color="#163127"/>
</linearGradient>
<linearGradient id="paint11_linear_1409_37893" x1="55.4661" y1="9.06668" x2="248.575" y2="241.284" gradientUnits="userSpaceOnUse">
<stop stop-color="#163127" stop-opacity="0.1"/>
<stop offset="0.693762" stop-color="#163127"/>
</linearGradient>
<linearGradient id="paint12_linear_1409_37893" x1="55.4661" y1="9.06668" x2="248.575" y2="241.284" gradientUnits="userSpaceOnUse">
<stop stop-color="#163127" stop-opacity="0.1"/>
<stop offset="0.693762" stop-color="#163127"/>
</linearGradient>
<linearGradient id="paint13_linear_1409_37893" x1="55.4661" y1="9.06668" x2="248.575" y2="241.284" gradientUnits="userSpaceOnUse">
<stop stop-color="#163127" stop-opacity="0.1"/>
<stop offset="0.693762" stop-color="#163127"/>
</linearGradient>
<linearGradient id="paint14_linear_1409_37893" x1="55.4661" y1="9.06668" x2="248.575" y2="241.284" gradientUnits="userSpaceOnUse">
<stop stop-color="#163127" stop-opacity="0.1"/>
<stop offset="0.693762" stop-color="#163127"/>
</linearGradient>
<linearGradient id="paint15_linear_1409_37893" x1="55.4661" y1="9.06668" x2="248.575" y2="241.284" gradientUnits="userSpaceOnUse">
<stop stop-color="#163127" stop-opacity="0.1"/>
<stop offset="0.693762" stop-color="#163127"/>
</linearGradient>
<linearGradient id="paint16_linear_1409_37893" x1="55.4661" y1="9.06668" x2="248.575" y2="241.284" gradientUnits="userSpaceOnUse">
<stop stop-color="#163127" stop-opacity="0.1"/>
<stop offset="0.693762" stop-color="#163127"/>
</linearGradient>
<linearGradient id="paint17_linear_1409_37893" x1="55.4661" y1="9.06668" x2="248.575" y2="241.284" gradientUnits="userSpaceOnUse">
<stop stop-color="#163127" stop-opacity="0.1"/>
<stop offset="0.693762" stop-color="#163127"/>
</linearGradient>
<linearGradient id="paint18_linear_1409_37893" x1="55.4661" y1="9.06668" x2="248.575" y2="241.284" gradientUnits="userSpaceOnUse">
<stop stop-color="#163127" stop-opacity="0.1"/>
<stop offset="0.693762" stop-color="#163127"/>
</linearGradient>
<linearGradient id="paint19_linear_1409_37893" x1="55.4661" y1="9.06668" x2="248.575" y2="241.284" gradientUnits="userSpaceOnUse">
<stop stop-color="#163127" stop-opacity="0.1"/>
<stop offset="0.693762" stop-color="#163127"/>
</linearGradient>
<linearGradient id="paint20_linear_1409_37893" x1="55.4661" y1="9.06668" x2="248.575" y2="241.284" gradientUnits="userSpaceOnUse">
<stop stop-color="#163127" stop-opacity="0.1"/>
<stop offset="0.693762" stop-color="#163127"/>
</linearGradient>
<linearGradient id="paint21_linear_1409_37893" x1="55.4661" y1="9.06668" x2="248.575" y2="241.284" gradientUnits="userSpaceOnUse">
<stop stop-color="#163127" stop-opacity="0.1"/>
<stop offset="0.693762" stop-color="#163127"/>
</linearGradient>
<linearGradient id="paint22_linear_1409_37893" x1="55.4661" y1="9.06668" x2="248.575" y2="241.284" gradientUnits="userSpaceOnUse">
<stop stop-color="#163127" stop-opacity="0.1"/>
<stop offset="0.693762" stop-color="#163127"/>
</linearGradient>
<linearGradient id="paint23_linear_1409_37893" x1="55.4661" y1="9.06668" x2="248.575" y2="241.284" gradientUnits="userSpaceOnUse">
<stop stop-color="#163127" stop-opacity="0.1"/>
<stop offset="0.693762" stop-color="#163127"/>
</linearGradient>
<linearGradient id="paint24_linear_1409_37893" x1="55.4661" y1="9.06668" x2="248.575" y2="241.284" gradientUnits="userSpaceOnUse">
<stop stop-color="#163127" stop-opacity="0.1"/>
<stop offset="0.693762" stop-color="#163127"/>
</linearGradient>
<linearGradient id="paint25_linear_1409_37893" x1="55.4661" y1="9.06668" x2="248.575" y2="241.284" gradientUnits="userSpaceOnUse">
<stop stop-color="#163127" stop-opacity="0.1"/>
<stop offset="0.693762" stop-color="#163127"/>
</linearGradient>
<linearGradient id="paint26_linear_1409_37893" x1="55.4661" y1="9.06668" x2="248.575" y2="241.284" gradientUnits="userSpaceOnUse">
<stop stop-color="#163127" stop-opacity="0.1"/>
<stop offset="0.693762" stop-color="#163127"/>
</linearGradient>
<linearGradient id="paint27_linear_1409_37893" x1="55.4661" y1="9.06668" x2="248.575" y2="241.284" gradientUnits="userSpaceOnUse">
<stop stop-color="#163127" stop-opacity="0.1"/>
<stop offset="0.693762" stop-color="#163127"/>
</linearGradient>
<linearGradient id="paint28_linear_1409_37893" x1="55.4661" y1="9.06668" x2="248.575" y2="241.284" gradientUnits="userSpaceOnUse">
<stop stop-color="#163127" stop-opacity="0.1"/>
<stop offset="0.693762" stop-color="#163127"/>
</linearGradient>
<linearGradient id="paint29_linear_1409_37893" x1="55.4661" y1="9.06668" x2="248.575" y2="241.284" gradientUnits="userSpaceOnUse">
<stop stop-color="#163127" stop-opacity="0.1"/>
<stop offset="0.693762" stop-color="#163127"/>
</linearGradient>
<linearGradient id="paint30_linear_1409_37893" x1="55.4661" y1="9.06668" x2="248.575" y2="241.284" gradientUnits="userSpaceOnUse">
<stop stop-color="#163127" stop-opacity="0.1"/>
<stop offset="0.693762" stop-color="#163127"/>
</linearGradient>
<linearGradient id="paint31_linear_1409_37893" x1="55.4661" y1="9.06668" x2="248.575" y2="241.284" gradientUnits="userSpaceOnUse">
<stop stop-color="#163127" stop-opacity="0.1"/>
<stop offset="0.693762" stop-color="#163127"/>
</linearGradient>
<linearGradient id="paint32_linear_1409_37893" x1="55.4661" y1="9.06668" x2="248.575" y2="241.284" gradientUnits="userSpaceOnUse">
<stop stop-color="#163127" stop-opacity="0.1"/>
<stop offset="0.693762" stop-color="#163127"/>
</linearGradient>
<linearGradient id="paint33_linear_1409_37893" x1="55.4661" y1="9.06668" x2="248.575" y2="241.284" gradientUnits="userSpaceOnUse">
<stop stop-color="#163127" stop-opacity="0.1"/>
<stop offset="0.693762" stop-color="#163127"/>
</linearGradient>
<linearGradient id="paint34_linear_1409_37893" x1="55.4661" y1="9.06668" x2="248.575" y2="241.284" gradientUnits="userSpaceOnUse">
<stop stop-color="#163127" stop-opacity="0.1"/>
<stop offset="0.693762" stop-color="#163127"/>
</linearGradient>
<linearGradient id="paint35_linear_1409_37893" x1="55.4661" y1="9.06668" x2="248.575" y2="241.284" gradientUnits="userSpaceOnUse">
<stop stop-color="#163127" stop-opacity="0.1"/>
<stop offset="0.693762" stop-color="#163127"/>
</linearGradient>
</defs>
</svg>
