<svg width="419" height="247" viewBox="0 0 419 247" fill="none" xmlns="http://www.w3.org/2000/svg">
<path d="M88.801 136.577C88.7481 136.4 88.6952 136.223 88.6952 136.223L88.801 136.577Z" fill="url(#paint0_linear_1409_37846)" fill-opacity="0.2"/>
<path d="M143.203 176.737C141.667 173.536 139.92 169.629 138.119 165.544C130.864 149.03 123.913 126.452 119.951 101.632C116.658 81.6198 116.226 65.3746 116.623 52.5416C117.585 40.3099 118.581 30.765 119.911 23.6245L119.982 23.2179C118.828 30.3056 116.967 39.5317 114.679 51.1969C114.183 54.0426 113.615 57.2948 113.33 60.8476C113.045 64.4004 112.76 67.9533 112.404 71.9127C112.046 79.7256 112.005 88.5992 112.812 98.3749C114.512 122.717 123.335 147.045 133.011 164.569C135.678 168.972 138.009 172.898 140.004 176.346C142.406 179.865 144.596 182.677 146.327 185.241C148.181 187.576 149.524 189.486 150.477 190.741C151.431 191.997 151.997 192.598 151.997 192.598C151.997 192.598 150.443 189.981 147.9 185.348C146.576 182.855 144.969 180.061 143.203 176.737Z" fill="url(#paint1_linear_1409_37846)" fill-opacity="0.2"/>
<path d="M190.307 213.109L190.819 213.533C190.59 213.41 190.307 213.109 190.077 212.985C190.077 212.985 190.077 212.985 190.307 213.109Z" fill="url(#paint2_linear_1409_37846)" fill-opacity="0.2"/>
<path d="M183.753 206.016C181.563 203.204 179.603 200.516 177.483 197.298C173.528 191.162 169.307 184.141 165.281 176.485C163.18 172.683 161.203 168.652 159.35 164.39C157.319 160.182 155.413 155.744 153.454 151.129C149.588 142.076 146.5 132.405 144.244 122.293C138.709 97.3654 137.307 76.5943 136.539 61.7985C135.77 47.0026 135.864 38.3057 135.864 38.3057C135.864 38.3057 135.226 40.0376 134.358 43.5724C133.49 47.1073 132.337 52.2681 131.662 59.0202C130.186 72.7541 129.555 93.1704 137.14 119.796C140.315 130.404 144.321 140.571 148.876 149.995C153.608 159.367 158.251 167.801 162.913 175.653C167.522 183.327 172.149 190.418 176.512 196.626C180.274 201.471 183.347 205.945 187.198 209.801C187.198 209.801 187.145 209.625 186.968 209.677C185.891 208.652 184.76 207.449 183.753 206.016Z" fill="url(#paint3_linear_1409_37846)" fill-opacity="0.2"/>
<path d="M274.379 239.764C274.149 239.64 274.149 239.64 273.92 239.517C274.149 239.64 274.379 239.764 274.379 239.764Z" fill="url(#paint4_linear_1409_37846)" fill-opacity="0.2"/>
<path d="M279.504 242.083C278.868 241.888 278.408 241.641 277.719 241.269C278.126 241.34 278.408 241.641 278.815 241.712L279.504 242.083Z" fill="url(#paint5_linear_1409_37846)" fill-opacity="0.2"/>
<path d="M297.5 239.778C297.04 239.53 296.581 239.282 296.122 239.035C296.811 239.406 297.5 239.778 298.189 240.15L297.5 239.778Z" fill="url(#paint6_linear_1409_37846)" fill-opacity="0.2"/>
<path d="M353.072 245.875C352.312 245.91 351.322 245.821 350.562 245.856C351.145 245.874 351.728 245.892 352.135 245.963L353.072 245.875Z" fill="url(#paint7_linear_1409_37846)" fill-opacity="0.2"/>
<path d="M349.218 245.873C349.625 245.944 350.208 245.962 350.615 246.033C349.979 245.838 349.572 245.767 349.218 245.873Z" fill="url(#paint8_linear_1409_37846)" fill-opacity="0.2"/>
<path d="M325.659 239.247C321.4 237.247 316.912 235.123 312.901 232.664C308.89 230.204 304.419 227.497 300.603 224.401C284.507 212.459 269.332 197.16 255.202 178.272C246.158 166.724 239.024 155.76 232.613 145.928C226.379 136.043 221.223 127.183 216.844 119.633C209.763 106.919 204.943 98.5372 203.671 96.2208C204.414 96.7692 205.156 97.3176 205.898 97.8661C205.898 97.8661 205.898 97.8661 206.075 97.8132C213.937 104.129 221.976 110.391 229.856 116.123C235.281 120.086 240.705 124.049 246.023 127.658C247.277 130.558 250.19 136.428 255.311 144.528C258.984 150.363 263.965 157.348 270.5 165.024C277.036 172.7 285.304 181.013 296.081 189.345C304.633 196.032 314.033 201.695 323.47 206.19C328.365 208.385 333.03 210.456 337.944 212.068C342.733 213.909 347.717 215.114 352.701 216.319C370.092 220.36 387.628 219.735 401.559 216.72C387.628 219.735 370.641 219.618 354.186 215.489C335.364 210.528 316.968 201.202 301.032 187.863C291.067 179.673 282.852 171.537 276.016 164.144C274.32 162.34 272.624 160.536 271.105 158.679C269.586 156.822 268.12 155.141 266.654 153.461C263.722 150.101 261.249 146.988 259.059 144.176C254.501 138.605 251.146 133.831 248.85 130.665C248.179 129.71 247.56 128.932 247.119 128.101C252.261 131.763 257.297 135.072 262.509 138.327C267.775 141.76 273.164 144.963 278.271 147.865C280.851 149.404 283.378 150.767 285.958 152.306C288.485 153.669 291.011 155.032 293.538 156.394C298.363 158.996 303.081 161.244 307.569 163.368C307.569 163.368 307.569 163.368 307.746 163.315C312.465 165.562 317.077 167.457 321.637 169.174C330.349 172.538 338.037 175.053 344.647 176.542C346.096 176.878 347.316 177.091 348.589 177.481C348.818 177.605 349.048 177.729 349.278 177.853C350.78 178.366 353.148 179.198 356.099 180.049C359.051 180.899 362.71 181.538 367.128 182.141C369.285 182.266 371.618 182.339 374.181 182.535C376.691 182.554 379.325 182.343 381.959 182.133C384.24 182.028 386.237 181.623 388.235 181.217C390.233 180.812 392.23 180.407 393.998 179.878C397.711 178.766 401.123 177.937 404.147 176.454C410.229 174.249 414.632 171.582 418.239 170.117L418.416 170.064C414.809 171.529 410.477 173.789 404.36 175.235C398.349 177.034 391.136 178.037 382.775 178.421C372.487 178.804 363.755 177.95 357.338 177.752C354.192 177.538 351.629 177.341 349.879 177.287C348.129 177.233 347.139 177.144 347.139 177.144C347.139 177.144 347.599 177.392 348.235 177.587C347.192 177.321 346.149 177.055 344.93 176.842C341.218 176.027 337.224 174.911 333.124 173.441C333.53 173.512 334.114 173.53 334.75 173.725C336.553 173.956 339.222 174.506 342.545 174.667C349.014 175.042 358.012 174.853 367.541 172.578C371.43 171.414 374.843 170.586 377.919 169.279C379.457 168.626 380.872 168.203 382.233 167.603C383.595 167.002 384.956 166.402 386.141 165.855C388.74 164.884 390.88 163.666 392.719 162.73C393.726 162.236 394.787 161.918 395.671 161.654C396.555 161.389 397.262 161.178 398.023 161.143C397.262 161.178 396.555 161.389 395.848 161.601C394.964 161.866 393.903 162.183 392.842 162.501C390.721 163.136 388.352 164.23 385.647 164.847C384.232 165.271 382.818 165.694 381.403 166.117C379.759 166.417 378.345 166.84 376.524 167.193C374.933 167.669 373.112 168.021 371.238 168.197C369.417 168.549 367.419 168.955 365.546 169.13C355.575 170.574 347.267 171.134 341.397 172.121C336.536 172.613 333.424 173.159 332.54 173.423C329.306 172.272 325.842 170.997 322.149 169.599C318.226 168.076 314.02 166.253 309.814 164.43C310.22 164.5 310.857 164.695 311.67 164.837C313.932 165.316 317.184 165.884 321.426 166.54C329.627 167.553 341.046 168.373 353.368 166.418C363.109 164.851 371.065 162.47 377.094 160.087C382.168 158.375 386.147 156.221 389.63 154.986C386.271 155.992 381.957 157.668 376.547 158.902C369.952 160.684 361.555 162.234 351.32 162.793C338.627 163.51 327.827 163.468 320.173 163.64C316.372 163.815 313.279 163.778 311.228 164.006C310.114 164.147 309.354 164.182 308.771 164.164C304.053 161.916 299.281 159.491 294.281 156.943C291.754 155.58 289.403 154.165 286.877 152.802C284.35 151.439 281.946 149.847 279.367 148.307C274.207 145.228 269.047 142.15 263.729 138.54C258.181 134.807 252.403 130.95 246.749 126.863C246.413 126.386 246.36 126.209 246.36 126.209C246.36 126.209 246.413 126.386 246.519 126.739C241.607 123.201 236.465 119.539 231.5 115.824C230.016 114.727 228.762 113.754 227.277 112.657C228.78 113.17 236.309 115.155 247.974 117.442C260.859 119.943 279.17 122.552 298.792 122.458C314.559 122.362 327.322 121.238 337.293 119.795C342.278 119.073 346.503 118.386 350.145 117.682C351.082 117.594 351.966 117.329 352.726 117.294C353.434 117.083 354.37 116.995 355.131 116.96C355.484 116.854 355.891 116.925 356.244 116.819C355.891 116.925 355.661 116.801 355.484 116.854C353.964 116.924 352.32 117.223 350.446 117.399C346.751 117.927 342.42 118.26 337.152 118.681C326.97 119.417 313.536 119.586 297.221 118.498C276.999 117.23 259.483 115.346 246.845 114.313C235.55 113.263 228.497 112.87 227.33 112.834C221.341 108.269 215.298 103.528 209.256 98.7873C212.685 99.302 220.126 100.35 230.254 101.363C233.807 101.648 237.766 102.004 241.955 102.484C246.092 102.787 250.634 103.161 255.354 103.482C257.687 103.554 260.126 103.98 262.512 104.229C265.128 104.602 267.921 104.922 270.714 105.242C273.454 105.385 276.069 105.758 279.039 106.024C281.779 106.168 284.695 106.258 287.488 106.578C305.854 107.437 320.985 107.146 332.67 106.923C342.834 106.771 350.789 106.316 355.95 107.468C350.736 106.139 343.205 106.081 332.653 105.58C320.58 105.148 304.901 104.255 285.988 102.211C280.049 101.677 274.411 100.86 269.055 100.344C266.439 99.9713 263.823 99.5985 261.207 99.2257C258.415 98.9058 255.622 98.5859 253.289 98.5138C243.496 97.9775 235.435 98.0786 228.488 98.039C221.771 98.1233 216.221 98.2436 212.544 98.1883C210.847 98.311 209.504 98.3279 208.514 98.2389C205.21 95.5677 201.676 92.7726 198.319 89.9246C194.167 86.3513 189.839 82.831 185.687 79.2578C186.959 79.6474 188.868 80.232 191.466 81.1881C196.15 82.6758 202.689 84.5712 211.031 86.6975C215.202 87.7607 219.727 88.718 224.605 89.5695C227.044 89.9952 229.66 90.368 232.099 90.7937C234.662 90.9897 237.278 91.3626 240.018 91.5057C245.321 91.8448 250.853 92.3078 256.509 92.541C262.042 93.004 268.158 93.485 274.503 94.0899C294.936 96.0645 312.17 97.6483 325.357 97.9392C338.649 98.5838 348.301 98.0063 354.204 99.7069C348.354 98.1831 338.844 97.9475 325.464 96.3661C311.783 95.0673 294.126 92.0691 272.863 88.6091C266.235 87.7036 259.907 86.5154 253.791 86.0343C247.905 85.6772 242.196 85.2671 237.07 84.8751C234.507 84.6791 231.997 84.6599 229.61 84.4109C227.047 84.2149 224.838 83.9131 222.452 83.6641C217.856 83.1133 213.49 82.6864 209.478 82.1537C196.398 80.2896 187.791 79.206 185.175 78.8332C184.097 77.8073 182.843 76.8343 181.588 75.8613C176.129 71.1383 170.67 66.4153 165.158 61.5155C164.645 61.0909 164.363 60.7902 163.85 60.3657C165.123 60.7553 167.031 61.3398 169.753 62.0663C174.56 63.3242 181.506 65.2906 190.149 67.1343C198.845 69.1548 209.114 71.2823 220.62 73.0393C226.258 73.8559 232.303 74.7434 238.596 75.1715C244.765 75.8293 251.216 76.7878 258.021 77.6405C279.938 80.712 298.215 82.5616 312.674 83.2421C319.497 83.5115 325.967 83.8866 331.623 84.1199C334.363 84.263 336.926 84.459 339.082 84.5841C340.072 84.673 341.115 84.9388 342.105 85.0278C341.292 84.8859 340.426 84.5672 339.436 84.4782C337.226 84.1764 334.663 83.9803 332.048 83.6075C326.515 83.1445 320.117 82.3629 312.781 81.669C297.952 79.7508 279.128 76.7165 256.504 71.93C249.541 70.5469 242.754 69.111 236.408 68.5061C230.186 67.6714 224.194 66.9607 218.432 66.3738C207.032 64.9704 196.974 63.5501 188.773 62.5375C175.569 60.9032 166.661 60.1022 163.638 59.6585C158.868 55.3071 153.869 50.8318 149.275 46.4275C145.813 43.2259 142.35 40.0243 139.064 36.7697C142.953 37.5322 151.26 38.8984 162.784 40.0721C170.756 40.9609 180.425 41.7269 190.872 41.8747C196.121 42.037 201.725 42.0935 207.275 41.9731C210.139 41.8865 212.826 41.8528 215.972 42.0668C218.942 42.3338 222.088 42.5479 225.234 42.7619C245.915 44.2771 263.397 45.4014 277.732 46.3117C284.962 46.652 291.307 47.2569 297.017 47.667C302.779 48.2538 307.728 48.6988 311.987 50.6989L312.393 50.7698C308.135 48.7698 303.185 48.3248 297.317 47.3844C291.325 46.6736 284.697 45.768 277.433 44.6676C262.603 42.7495 244.468 40.0868 222.905 36.9095C219.653 36.3418 216.277 36.0039 213.13 35.7899C209.931 35.399 206.608 35.2379 203.921 35.2716C198.141 35.2681 192.767 35.3355 187.57 35.35C177.176 35.379 168.126 35.3911 160.471 35.5632C152.994 35.6823 146.913 35.9614 142.883 36.012C140.956 36.0108 139.436 36.0806 138.322 36.2213C136.679 34.5941 135.089 33.1436 133.269 31.5692C132.015 30.5963 130.884 29.3936 129.807 28.3676C130.744 28.2798 132.617 28.1042 135.481 28.0176C139.635 27.7373 145.416 27.7408 152.663 27.4978C166.982 27.0647 187.204 26.4053 211.104 25.8013C244 25.0083 270.46 28.4538 288.029 32.4418C285.713 31.7864 283.398 31.1309 280.906 30.5284C275.162 29.3582 268.446 27.5157 261.128 26.2385C246.388 23.3305 228.713 20.9156 208.544 19.825C183.656 18.4133 163.627 20.3631 150.121 22.865C143.367 24.1159 137.958 25.3499 134.474 26.5851C131.822 27.379 130.284 28.0321 129.577 28.2438C125.885 24.9183 122.245 21.7696 118.606 18.6209C119.543 18.5331 121.01 18.2865 122.937 18.2877C126.861 17.8835 132.306 17.4096 139.271 16.8659C142.842 16.5676 146.819 16.3402 150.973 16.0599C155.127 15.7797 159.406 15.2696 163.86 14.7067C172.77 13.5809 182.794 12.3143 193.242 10.5353C197.467 9.84853 201.621 9.56825 205.669 8.93437C209.771 8.47729 213.748 8.24993 217.549 8.07549C225.097 7.54981 232.221 7.5365 238.814 7.68195C251.824 8.02578 263.154 9.83574 271.476 14.4721L271.936 14.7199C263.666 10.2603 252.301 7.69022 238.515 6.03783C231.71 5.18518 224.073 4.77395 216.084 4.46855C212 4.34231 207.917 4.21606 203.48 4.19567C199.273 4.29916 194.66 4.33169 190.099 4.54102C178.927 5.18821 168.903 6.45478 159.923 7.98715C150.43 9.09497 142.616 10.6634 136.198 12.3918C129.957 14.0673 125.236 15.673 121.983 17.0321C120.445 17.6852 119.26 18.2324 118.376 18.497C118.146 18.3732 117.864 18.0725 117.634 17.9486C114.436 15.631 111.362 13.0837 108.164 10.7661C108.871 10.5544 109.932 10.2368 110.992 9.9193C114.352 8.91379 119.249 7.25517 125.49 5.5797C131.908 3.85132 139.262 2.03512 148.066 0.555664C152.468 -0.184059 157.224 -1.02962 162.262 -1.57451C164.843 -1.96181 167.477 -2.17233 170.058 -2.55964C172.639 -2.94695 174.99 -3.45812 177.571 -3.84544C193.836 -6.78748 208.526 -7.90979 221.288 -7.10651C234.227 -6.35617 245.238 -3.68024 253.526 0.196037L253.932 0.266991C245.697 -3.43249 234.422 -6.99241 220.935 -8.92743C214.254 -10.0098 206.795 -10.474 199.035 -10.6555C195.129 -10.8346 191.098 -10.7841 186.891 -10.6806C184.788 -10.6289 182.684 -10.5771 180.633 -10.3486C179.467 -10.3847 178.583 -10.12 177.416 -10.1561C176.249 -10.1922 174.906 -10.1753 173.739 -10.2114C161.366 -10.3604 151.218 -8.86409 142.803 -6.73036C134.264 -4.36691 127.279 -1.31312 121.71 1.31731C116.193 4.12452 112.373 6.80904 109.632 8.59271C108.677 9.26384 107.899 9.88206 107.245 10.2705C105.248 8.74912 103.075 7.28062 101.078 5.7592C100.619 5.51144 100.106 5.08689 99.647 4.83913C100.301 4.45065 101.433 3.72659 103.095 2.84377C104.404 2.0668 106.19 0.954262 108.153 -0.211197C110.115 -1.37666 112.255 -2.59504 114.748 -3.91927C119.735 -6.56772 125.906 -9.76343 133.244 -12.9231C136.798 -14.5648 140.758 -16.1356 145.125 -17.6355C147.194 -18.4473 149.492 -19.1353 151.738 -20.0001C154.036 -20.6881 156.158 -21.3231 158.633 -22.064C166.288 -24.1629 173.855 -25.2719 181.403 -25.7976C185.203 -25.972 188.827 -26.0935 192.557 -25.8614C195.774 -26.0539 198.762 -26.3703 201.625 -26.4569C213.31 -26.6795 223.544 -25.3121 231.303 -23.2039L231.709 -23.1329C223.95 -25.2412 213.682 -27.3687 201.22 -28.4546C199.647 -28.5616 198.074 -28.6687 196.501 -28.7757C195.74 -28.7408 194.698 -29.0066 193.708 -29.0956C192.718 -29.1846 191.675 -29.4504 190.685 -29.5393C186.673 -30.0721 182.484 -30.5519 178.401 -30.6782C170.005 -31.0545 161.767 -30.9005 153.069 -29.0674C131.748 -24.9972 118.91 -15.7601 110.562 -8.25262C104.071 -2.2642 100.656 2.41804 99.4882 4.30873C97.3149 2.84023 95.1945 1.54853 93.0211 0.0800323C90.2116 -1.5833 87.5259 -3.47636 84.7692 -4.96289C82.0126 -6.44942 79.0791 -7.88303 76.2695 -9.54636C74.8912 -10.2896 73.5129 -11.0329 72.1345 -11.7762C70.7562 -12.5194 69.254 -13.033 67.9285 -13.5994C62.3972 -15.9892 56.9897 -18.6086 51.4403 -20.4151C48.8425 -21.3712 46.0678 -22.2744 43.4699 -23.2306C40.872 -24.1867 38.2031 -24.7363 35.6582 -25.5156C15.2275 -31.3438 -2.18314 -32.8747 -14.2741 -32.723C-20.2312 -32.6736 -24.9158 -32.2345 -27.9034 -31.9182C-31.0677 -31.5489 -32.5351 -31.3023 -32.5351 -31.3023C-33.6488 -31.1616 -34.7276 -30.2608 -34.3391 -29.6065C-34.2332 -29.2529 -33.7738 -29.0051 -33.1376 -28.8103C-32.6781 -28.5625 -32.0948 -28.5445 -31.5644 -28.7033C-31.5644 -28.7033 -31.2108 -28.8091 -30.4507 -28.844C-29.6906 -28.8789 -28.5769 -29.0196 -27.1095 -29.2662C-25.6422 -29.5128 -23.7155 -29.5116 -21.488 -29.793C-19.2077 -29.8977 -16.6976 -29.8785 -13.6571 -30.0181C-1.91973 -30.0639 15.2612 -28.6569 35.4092 -23.1294C37.9542 -22.3501 40.6231 -21.8005 42.9912 -20.9682C45.5891 -20.0121 48.187 -19.056 50.7849 -18.0998C53.9661 -17.1257 57.2532 -15.7979 60.4164 -14.2404C59.9389 -13.9048 59.4614 -13.5693 58.9839 -13.2337C56.5436 -11.7327 53.431 -9.25985 49.8229 -5.86813C42.8893 1.21599 34.8396 12.2944 30.1816 26.9809C29.1016 29.8085 28.1984 32.5831 27.2952 35.3578C26.5688 38.0796 25.8423 40.8014 25.2398 43.2934C23.8579 48.3305 22.4941 52.7842 21.6606 57.0791C19.9408 65.4922 18.2752 72.1552 16.6636 77.0684L16.5397 77.2981C17.9745 72.4379 20.2764 65.9696 23.039 57.8224C24.5087 53.7223 26.5087 49.4634 28.5798 44.798C29.5888 42.3769 30.5979 39.9558 31.7308 37.305C33.0935 34.7781 34.4561 32.2511 35.9427 29.4945C42.7211 16.0997 49.6041 4.98524 54.5761 -2.86018C57.2653 -6.74741 59.1764 -10.0164 60.8746 -12.0659C61.2992 -12.5782 61.6708 -13.2674 61.9715 -13.5501C63.7564 -12.7358 65.5412 -11.9216 67.5029 -11.1603C68.8283 -10.5938 70.3305 -10.0803 71.7088 -9.33704C73.0871 -8.59377 74.4654 -7.8505 75.8438 -7.10723C77.9112 -5.99233 80.1556 -4.93036 82.276 -3.63866C80.2073 -2.8268 74.7614 -0.426094 68.7129 4.46665C64.8751 7.7345 60.7186 11.8683 56.8086 17.4694C53.0754 23.0176 49.6068 29.4498 47.2688 37.0847C43.2134 49.2792 41.5273 60.3791 40.4967 69.1638C40.2465 73.4768 39.5899 77.7188 39.3049 81.2716C39.2496 84.9484 38.8058 87.9708 38.6098 90.5338L38.6627 90.7106C39.0355 88.0947 39.4264 84.8954 39.7643 81.5194C40.279 78.0904 41.1654 73.9723 41.9988 69.6774C44.0722 61.1585 47.1896 50.9786 52.7292 39.881C59.4017 26.1326 67.0978 15.1601 72.9358 7.63336C77.6768 1.59083 81.3559 -2.20741 82.6825 -3.5677C83.1419 -3.31995 83.7782 -3.12511 84.2905 -2.70056C87.224 -1.26694 89.9097 0.626106 92.5425 2.34236C93.5143 3.01467 94.6629 3.63406 95.6347 4.30637C91.3723 8.08658 86.3666 13.2451 81.4656 20.684C76.3168 28.5824 71.1489 38.9908 67.0044 52.175C64.4187 60.2694 62.8228 68.4527 61.7224 75.7172C60.6749 83.1584 60.4235 89.3982 60.0135 95.1075C59.8535 96.5039 59.8704 97.8473 59.8344 99.0139C59.7983 100.181 59.8151 101.524 59.903 102.461C59.9547 104.565 59.9535 106.491 59.9703 107.835C60.057 110.698 59.95 112.272 60.2326 112.572C60.2326 112.572 60.0738 112.042 60.4455 111.353C60.6403 110.716 60.8532 109.497 61.2428 108.224C61.5796 106.775 61.8634 105.149 62.395 103.063C62.6608 102.021 62.7498 101.031 62.9626 99.8113C63.1755 98.5918 63.6181 97.4961 63.7781 96.0997C64.8773 90.762 66.2952 84.5584 67.6783 77.5946C69.0613 70.6308 70.816 62.9779 72.7126 54.5119C74.3254 47.672 75.8492 41.8219 77.6556 36.2725C79.5149 30.8999 81.3562 26.1107 83.3563 21.8518C87.2855 13.7406 91.4432 7.68006 95.7586 4.07665C97.4195 5.1206 99.1335 6.34133 100.971 7.33235C101.943 8.00466 102.915 8.67699 103.887 9.3493C102.507 10.5328 98.2977 14.4898 93.8032 21.9996C91.1488 26.647 87.9989 32.2132 85.6789 39.2648C84.4041 42.7287 83.4119 46.4932 82.119 50.5404C81.5875 52.6259 81.2327 54.6585 80.7011 56.744C80.1695 58.8296 79.8676 61.039 79.5658 63.2484C79.104 66.8541 78.6422 70.4599 78.1275 73.8889C77.7895 77.2649 77.4516 80.641 77.2376 83.7873C77.0235 86.9336 76.9333 89.8502 76.8432 92.7668C76.8781 93.5269 76.6832 94.1632 76.9479 95.0472C77.2125 95.9312 77.3003 96.8681 77.5649 97.7521C77.9173 99.573 78.3936 101.164 78.746 102.985C79.345 106.273 80.5273 109.58 81.6567 112.709C82.7861 115.839 83.456 118.72 84.4796 121.496C85.3973 123.918 86.3859 125.934 87.1978 128.003C84.5505 121.09 82.3458 113.081 81.0432 104.224C80.4971 101.112 80.2517 97.7184 80.0063 94.3243L79.8488 91.8671C79.8139 91.107 80.0087 90.4708 80.1506 89.6577C80.3106 88.2614 80.6473 86.8121 80.8073 85.4157C81.9245 79.4947 83.2895 73.1143 85.2559 66.1685C85.7875 64.083 86.4958 61.9445 87.0803 60.0358C87.7887 57.8974 88.1965 56.0416 88.781 54.1328C90.0029 50.4922 90.9951 46.7276 92.2699 43.2638C94.4131 36.2651 96.697 30.3802 98.4325 25.2373C101.549 16.9842 103.762 11.5058 104.399 9.77385C105.141 10.3223 106.113 10.9946 106.908 11.7198L106.731 11.7728C106.731 11.7728 106.731 11.7727 106.908 11.7198C109.417 13.6658 111.926 15.6118 114.559 17.328C113.478 20.1556 112.275 23.213 110.699 26.9595C109.3 30.653 107.707 34.9829 105.865 39.7721C102.236 49.5275 98.2513 61.3154 94.4773 75.7373C94.2825 76.3735 94.2115 76.78 94.0167 77.4163L93.7857 79.2192C93.5729 80.4387 93.5898 81.7822 93.5537 82.9488C93.3577 85.5118 93.3384 88.0219 93.3192 90.532C93.2808 95.5521 93.596 100.466 94.2648 105.275C95.4255 114.945 97.7709 124.067 100.276 131.794C101.617 135.63 102.853 139.113 104.159 142.19C105.695 145.39 106.842 147.937 107.884 150.129C110.144 154.461 111.238 156.831 111.238 156.831C111.238 156.831 110.55 154.532 109.563 150.59C108.981 148.645 108.24 146.17 107.517 143.111C106.847 140.23 106.124 137.171 105.419 133.529C102.529 119.368 100.667 100.276 101.192 79.5065C101.317 77.35 101.318 75.4233 101.496 73.4436C101.674 71.4639 101.623 69.3604 101.959 67.9111C102.651 64.4292 103.271 61.3538 103.892 58.2785C105.133 52.1277 106.48 46.3306 107.632 41.1697C110.113 30.795 112.222 23.0362 114.611 17.5048L114.559 17.328C115.53 18.0003 116.502 18.6727 117.527 19.5218C122.88 23.8912 128.11 28.4903 133.339 33.0895C138.622 37.8654 143.957 42.8182 149.239 47.5941C151.395 49.646 153.727 51.6448 155.935 53.8735C155.793 54.6865 155.385 56.5423 155.136 58.9285C154.727 62.7111 154.317 68.4204 154.49 76.0746C154.958 91.1531 158.638 113.746 170.394 141.435C180.155 163.749 191.828 182.794 203.255 198.445C214.736 214.273 226.501 226.547 235.439 235.816L235.952 236.24C226.836 227.025 216.008 214.662 205.747 199.048C195.487 183.433 185.67 164.795 177.464 143.172C167.598 116.651 162.168 94.0034 159.385 78.2695C157.095 65.4701 156.304 57.0378 156.041 54.2271C158.991 57.0041 162.118 59.7283 165.245 62.4524C168.991 65.9547 172.86 69.2272 176.729 72.4998C176.799 74.02 177.077 82.0278 179.296 95.2336C180.529 102.57 182.468 111.622 185.767 122C189.066 132.378 194.114 144.738 201.955 157.417C214.333 178.177 227.81 195.526 241.094 209.658C247.648 216.75 254.344 223.029 260.951 228.372C264.079 231.096 267.506 233.537 270.704 235.855C272.418 237.076 274.309 238.243 276.2 239.411C274.539 238.367 272.878 237.323 271.394 236.226C268.196 233.909 264.945 231.414 261.994 228.637C255.74 223.189 249.805 216.875 243.657 209.854C231.717 195.705 219.813 178.463 208.884 158.039C202.033 145.449 197.126 134.204 193.42 123.755C189.767 113.482 186.609 104.218 184.333 96.6155C182.057 89.0131 180.205 82.8251 178.758 78.6349C177.806 75.4525 177.17 73.3309 176.906 72.4469C178.496 73.8973 180.033 75.171 181.8 76.5685C185.21 79.5934 188.566 82.4413 192.1 85.2364C192.54 87.9943 193.72 95.1541 196.648 106.221C200.652 120.242 207.445 140.362 222.014 163.934C233.634 182.802 246.687 198.737 260.131 211.472C273.063 223.783 286.562 232.842 298.278 239.16C286.562 232.842 274 223.695 262.694 211.668C250.593 198.916 239.343 183.212 229.172 164.681C216.742 141.817 207.898 121.925 201.809 107.374C197.237 96.6057 194.148 88.8614 192.842 85.7849C194.839 87.3063 196.711 89.0574 198.708 90.5789C200.987 92.401 203.319 94.3999 205.775 96.169C206.04 97.053 206.622 98.9978 207.698 101.95C209.092 105.964 211.245 111.869 214.405 119.207C217.564 126.545 221.961 135.439 227.717 145.66C233.827 155.774 241.014 166.915 250.871 178.605C266.521 197.423 282.915 212.936 300.479 224.631C302.652 226.099 304.826 227.568 306.946 228.859C309.243 230.098 311.364 231.39 313.661 232.629C317.902 235.212 322.744 237.23 327.18 239.177C331.615 241.124 336.475 242.559 340.929 243.923C343.421 244.526 346.09 245.075 348.706 245.448C346.497 245.146 344.004 244.544 341.742 244.065C334.602 242.735 330.042 241.017 325.659 239.247Z" fill="url(#paint9_linear_1409_37846)" fill-opacity="0.2"/>
<path d="M346.019 245.482C346.249 245.606 346.426 245.553 346.832 245.624C346.602 245.5 346.196 245.429 346.019 245.482Z" fill="url(#paint10_linear_1409_37846)" fill-opacity="0.2"/>
<path d="M346.187 230.598C345.781 230.527 345.197 230.509 344.791 230.438C345.021 230.562 345.374 230.456 345.604 230.58L346.187 230.598Z" fill="url(#paint11_linear_1409_37846)" fill-opacity="0.2"/>
<path d="M341.185 229.977C341.592 230.048 341.769 229.995 342.175 230.066C341.769 229.995 341.415 230.101 341.185 229.977Z" fill="url(#paint12_linear_1409_37846)" fill-opacity="0.2"/>
<path d="M344.791 230.438C344.384 230.367 343.801 230.349 343.395 230.278C343.978 230.296 344.384 230.367 344.791 230.438Z" fill="url(#paint13_linear_1409_37846)" fill-opacity="0.2"/>
<path d="M326.269 225.194C322.929 223.69 319.589 222.185 316.32 220.274C313.051 218.363 309.782 216.452 306.584 214.134C303.386 211.817 300.188 209.499 297.113 206.952C294.039 204.405 291.089 201.627 288.086 198.674C285.259 195.667 282.61 192.607 279.73 189.424C277.028 186.187 274.272 182.774 271.464 179.184C257.881 161.481 247.161 145.618 239.514 134.23C231.867 122.841 227.293 115.927 227.293 115.927C227.293 115.927 227.999 117.642 229.305 120.719C230.612 123.795 232.748 128.357 235.837 134.175C241.787 145.686 250.987 161.618 266.196 179.605C269.234 183.319 272.343 186.626 275.275 189.986C278.208 193.347 281.441 196.425 284.621 199.326C291.034 205.304 297.942 210.364 304.816 214.664C311.689 218.963 318.758 222.627 325.562 225.406C328.902 226.911 332.489 227.956 335.847 228.877C337.526 229.338 339.205 229.798 340.831 230.082C341.008 230.029 341.061 230.206 341.238 230.153C339.612 229.869 338.11 229.356 336.431 228.895C333.02 227.797 329.379 226.575 326.269 225.194Z" fill="url(#paint14_linear_1409_37846)" fill-opacity="0.2"/>
<path d="M406.544 215.999C404.776 216.528 402.956 216.881 401.135 217.233C403.309 216.775 405.307 216.369 407.252 215.787L406.544 215.999Z" fill="url(#paint15_linear_1409_37846)" fill-opacity="0.2"/>
<path d="M355.766 205.963C353.45 205.308 351.259 204.422 348.714 203.643C346.346 202.811 343.978 201.979 341.557 200.969C331.624 197.393 322.507 192.031 312.876 186.245C297.698 176.726 287.133 167.174 279.148 159.161C277.17 157.056 275.297 155.305 273.548 153.324C271.852 151.52 270.333 149.663 268.867 147.983C265.935 144.623 263.692 141.634 261.961 139.07L261.731 138.946C265.369 144.021 270.12 150.883 277.451 159.284C284.729 167.508 294.109 177.607 308.438 188.151C317.343 194.732 327.045 200.112 337.259 203.99C347.297 207.92 357.495 210.454 366.81 211.326C369.196 211.575 371.53 211.647 373.686 211.772C375.843 211.897 377.822 212.075 379.873 211.846C383.85 211.619 387.121 211.603 390.108 211.287C395.854 210.531 398.965 209.984 398.965 209.984C398.965 209.984 396.101 210.071 390.781 210.315C388.147 210.526 384.947 210.135 381.447 210.027C377.771 209.971 373.935 209.386 369.516 208.782C368.527 208.693 367.307 208.48 366.087 208.267C365.045 208.002 363.825 207.789 362.782 207.523C360.343 207.097 358.081 206.618 355.766 205.963Z" fill="url(#paint16_linear_1409_37846)" fill-opacity="0.2"/>
<path d="M299.084 163.981C297.088 162.46 295.374 161.239 293.837 159.965C292.3 158.692 291.045 157.719 289.844 156.922C287.617 155.277 286.54 154.251 286.54 154.251C286.54 154.251 287.211 155.206 288.783 157.24C290.302 159.097 292.669 161.856 295.955 165.11C302.526 171.62 312.526 180.57 328.519 188.305C341.171 194.535 354.02 198.201 365.65 199.729C377.228 201.079 387.64 200.467 395.206 199.358L395.56 199.252C391.635 199.656 387.233 200.396 382.337 200.128C380.004 200.056 377.317 200.089 374.701 199.717C372.085 199.344 369.469 198.971 366.676 198.651C355.824 196.506 343.983 192.344 332.391 185.797C318.096 177.94 307.017 169.89 299.084 163.981Z" fill="url(#paint17_linear_1409_37846)" fill-opacity="0.2"/>
<path d="M323.225 172.551C319.656 170.923 317.023 169.207 315.185 168.216C313.347 167.225 312.199 166.605 312.199 166.605C312.199 166.605 314.619 169.541 320.379 173.981C326.085 178.245 335.185 184.19 348.847 187.999C351.746 188.672 354.291 189.452 356.959 190.001C359.628 190.551 362.244 190.924 364.807 191.12C367.37 191.316 369.933 191.512 372.267 191.584C374.653 191.833 376.933 191.728 379.213 191.623C381.494 191.519 383.597 191.467 385.648 191.238C387.646 190.833 389.696 190.605 391.517 190.252C395.212 189.724 398.394 188.772 401.099 188.155L401.276 188.102C398.571 188.719 395.389 189.671 391.818 189.97C389.944 190.145 388.07 190.321 386.196 190.496C384.146 190.725 382.166 190.547 380.063 190.599C375.803 190.525 371.384 189.922 366.505 189.07C361.804 188.166 356.997 186.908 352.031 185.119C339.783 180.887 330.064 176.091 323.225 172.551Z" fill="url(#paint18_linear_1409_37846)" fill-opacity="0.2"/>
<path d="M397.086 161.231C396.856 161.107 396.856 161.107 397.086 161.231V161.231Z" fill="url(#paint19_linear_1409_37846)" fill-opacity="0.2"/>
<path d="M390.355 154.191C390.178 154.244 390.002 154.297 389.648 154.403C390.002 154.297 390.002 154.297 390.355 154.191Z" fill="url(#paint20_linear_1409_37846)" fill-opacity="0.2"/>
<path d="M301.088 153.942C296.828 153.868 293.558 153.884 291.224 153.812C288.891 153.74 287.548 153.757 287.548 153.757C287.548 153.757 288.997 154.093 291.489 154.696C293.981 155.299 297.693 156.114 302.164 156.894C311.285 158.402 324.1 159.383 336.846 156.916C347.241 154.96 354.19 151.146 359.99 148.639C362.784 147.033 365.666 146.363 367.858 145.321C369.096 144.951 370.156 144.633 371.217 144.316C372.225 143.821 373.109 143.557 373.993 143.292L374.17 143.239C373.286 143.504 372.455 143.945 371.394 144.263C370.333 144.58 369.22 144.721 367.805 145.144C366.568 145.515 365.383 146.062 363.739 146.361C362.271 146.608 360.733 147.261 359.142 147.737C352.6 149.696 344.927 152.378 334.214 153.273C321.221 154.272 309.431 154.141 301.088 153.942Z" fill="url(#paint21_linear_1409_37846)" fill-opacity="0.2"/>
<path d="M321.088 141.598C304.578 141.146 290.19 140.059 279.814 139.505C269.562 138.721 263.499 138.417 263.499 138.417C263.499 138.417 265.178 138.877 268.13 139.728C271.081 140.578 275.429 141.588 280.943 142.635C291.743 144.603 306.855 146.822 322.888 145.683C335.758 144.913 345.87 142.657 353.472 140.381C361.075 138.105 366.008 135.28 369.898 134.116L370.075 134.063C366.185 135.227 361.146 137.699 352.978 139.373C345.111 140.765 334.451 141.836 321.088 141.598Z" fill="url(#paint22_linear_1409_37846)" fill-opacity="0.2"/>
<path d="M264.441 130.622C276.459 132.803 293.498 135.023 311.617 134.416C326.113 133.93 337.904 132.134 346.549 130.124C355.424 128.238 361.4 125.679 365.555 125.398L365.731 125.345C361.4 125.679 355.442 127.655 346.179 128.886C336.915 130.118 324.806 130.853 309.64 130.384C290.921 129.63 274.5 128.189 262.905 127.421C251.309 126.654 244.486 126.385 244.486 126.385C244.486 126.385 246.342 126.793 249.7 127.714C253.359 128.352 258.343 129.557 264.441 130.622Z" fill="url(#paint23_linear_1409_37846)" fill-opacity="0.2"/>
<path d="M357.641 116.979C357.234 116.908 356.828 116.837 356.474 116.943C356.88 117.014 357.464 117.032 357.87 117.103L357.641 116.979Z" fill="url(#paint24_linear_1409_37846)" fill-opacity="0.2"/>
<path d="M356.409 107.716L356.179 107.592C356.409 107.716 356.586 107.663 356.816 107.787L356.409 107.716Z" fill="url(#paint25_linear_1409_37846)" fill-opacity="0.2"/>
<path d="M341.451 85.4169C341.451 85.4169 341.68 85.5407 341.91 85.6646C341.91 85.6646 341.68 85.5407 341.451 85.4169Z" fill="url(#paint26_linear_1409_37846)" fill-opacity="0.2"/>
<path d="M342.723 85.8063C343.129 85.8772 343.412 86.1781 343.642 86.3019C343.235 86.231 342.953 85.9301 342.723 85.8063Z" fill="url(#paint27_linear_1409_37846)" fill-opacity="0.2"/>
<path d="M340.867 85.3989C341.044 85.346 341.097 85.5228 341.274 85.4698C341.274 85.4698 341.044 85.346 340.867 85.3989Z" fill="url(#paint28_linear_1409_37846)" fill-opacity="0.2"/>
<path d="M343.642 86.3019C343.872 86.4258 344.101 86.5495 344.101 86.5495L343.642 86.3019Z" fill="url(#paint29_linear_1409_37846)" fill-opacity="0.2"/>
<path d="M243.54 55.0055C240.111 54.4908 236.505 54.0289 233.005 53.9207C229.912 53.8835 226.766 53.6694 223.849 53.5793C217.786 53.2751 211.953 53.0947 206.42 52.6317C195.408 51.8826 185.563 51.1694 177.238 50.3866C168.965 49.7805 162.443 49.2286 157.9 48.8546C153.357 48.4806 151.024 48.4084 151.024 48.4084C151.024 48.4084 153.746 49.1348 158.553 50.3928C163.361 51.6508 170.377 53.2107 178.967 54.8775C187.557 56.5444 197.844 58.0886 209.139 59.1384C214.724 59.7782 220.787 60.0824 226.797 60.2099C229.89 60.2471 232.984 60.2844 236.077 60.3216C237.65 60.4286 238.941 60.235 240.514 60.342C242.087 60.449 243.66 60.556 245.234 60.6631C255.892 61.5181 266.002 63.1152 275.37 64.1638C284.561 65.2654 292.94 66.2251 300.452 66.8661C307.964 67.507 314.486 68.059 320.072 68.6988C325.657 69.3386 330.607 69.7835 334.53 71.3061L334.936 71.3771C331.19 69.8015 326.241 69.3566 320.549 68.3632C314.504 67.4757 307.823 66.3933 300.559 65.2929C293.012 63.8918 284.351 62.6315 274.895 60.6459C265.368 59.0668 254.87 56.8154 243.54 55.0055Z" fill="url(#paint30_linear_1409_37846)" fill-opacity="0.2"/>
<path d="M294.727 34.8683C294.55 34.9212 294.32 34.7973 294.32 34.7973L294.727 34.8683Z" fill="url(#paint31_linear_1409_37846)" fill-opacity="0.2"/>
<path d="M286.844 32.9895C289.566 33.7159 291.881 34.3714 294.143 34.85C292.005 34.1417 289.513 33.5391 286.844 32.9895Z" fill="url(#paint32_linear_1409_37846)" fill-opacity="0.2"/>
<path d="M104.799 -37.157C100.853 -30.3892 97.862 -24.2926 95.3664 -19.1148C90.3752 -8.75934 88.1262 -2.11427 88.1262 -2.11427C88.1262 -2.11427 93.008 -7.04308 100.402 -15.8062C104.099 -20.1878 108.416 -25.7179 112.98 -31.7075C115.156 -34.0926 119.081 -36.4235 123.343 -38.2769C127.551 -40.3072 132.448 -41.9658 137.523 -43.6773C145.832 -46.1646 154.106 -47.4853 162.132 -48.3466C166.233 -48.8037 170.21 -49.031 174.241 -49.0816C178.094 -49.0792 181.824 -48.8471 185.553 -48.6151C192.889 -47.9212 199.976 -46.7678 206.64 -45.1021C207.453 -44.9602 208.319 -44.6415 209.132 -44.4996C209.998 -44.1809 210.528 -44.3397 211.164 -44.1448C212.384 -43.932 213.55 -43.8959 214.77 -43.683C216.979 -43.3812 219.242 -42.9025 221.274 -42.5477L221.681 -42.4768C219.648 -42.8316 217.563 -43.3631 215.3 -43.8418C214.081 -44.0547 212.861 -44.2675 211.642 -44.4804L210.652 -44.5694C210.245 -44.6403 210.069 -44.5874 209.609 -44.8352C208.743 -45.1539 207.93 -45.2958 207.064 -45.6145C200.065 -47.7577 192.589 -49.5653 184.636 -51.0373C182.603 -51.3921 180.57 -51.7469 178.591 -51.9249C176.558 -52.2796 174.402 -52.4047 172.245 -52.5298C167.932 -52.7799 163.442 -52.9771 159.006 -52.9975C154.569 -53.0179 150.008 -52.8085 145.5 -52.4224C140.816 -51.9834 136.06 -51.1378 131.357 -50.1154C125.594 -48.7755 120.467 -47.2408 116.082 -45.1576C111.467 -43.1983 107.541 -40.8674 104.799 -37.157Z" fill="url(#paint33_linear_1409_37846)" fill-opacity="0.2"/>
<path d="M99.7931 -60.3166C87.9777 -48.3036 84.4335 -33.7579 82.5357 -23.3651C80.8676 -12.8485 81.5882 -5.93648 81.5882 -5.93648C81.5882 -5.93648 83.7481 -11.5917 87.9961 -20.5689C92.244 -29.546 98.2971 -42.1458 107.744 -54.991C111.636 -60.0088 115.917 -64.3723 120.586 -68.0816C125.131 -71.5611 130.241 -74.4393 135.315 -76.1508C137.685 -77.2453 140.39 -77.8624 142.918 -78.4265C145.446 -78.9906 147.974 -79.5547 150.201 -79.8361C155.522 -80.0804 160.083 -80.2897 164.343 -80.2164L164.749 -80.1454C160.666 -80.2716 155.646 -80.3101 150.043 -80.3665C147.409 -80.156 144.775 -79.9455 141.964 -79.6821C139.153 -79.4187 135.936 -79.2262 133.284 -78.4324C130.402 -77.7624 127.397 -76.8627 124.214 -75.9102C121.491 -74.7098 118.592 -73.4565 115.568 -71.9735C109.927 -68.9366 104.498 -65.1925 99.7931 -60.3166Z" fill="url(#paint34_linear_1409_37846)" fill-opacity="0.2"/>
<path d="M54.7624 -18.3269C54.7624 -18.3269 57.3638 -23.151 61.3639 -31.6688C65.2402 -39.9568 70.3384 -51.8854 75.8972 -65.4931C80.3231 -76.45 85.3312 -85.462 91.133 -91.8221C96.9349 -98.1821 104.344 -101.748 111.398 -103.282L111.751 -103.388C104.927 -101.73 96.2108 -99.3139 88.677 -93.5913C80.9135 -87.9925 73.4844 -79.9895 67.3795 -69.4933C59.7352 -56.4172 57.2877 -43.3556 56.0623 -33.9346C54.5361 -24.231 54.7624 -18.3269 54.7624 -18.3269Z" fill="url(#paint35_linear_1409_37846)" fill-opacity="0.2"/>
<defs>
<linearGradient id="paint0_linear_1409_37846" x1="55.4661" y1="9.06692" x2="248.575" y2="241.285" gradientUnits="userSpaceOnUse">
<stop stop-color="#C4A767" stop-opacity="0.1"/>
<stop offset="0.693762" stop-color="#C4A767"/>
</linearGradient>
<linearGradient id="paint1_linear_1409_37846" x1="55.4661" y1="9.06692" x2="248.575" y2="241.285" gradientUnits="userSpaceOnUse">
<stop stop-color="#C4A767" stop-opacity="0.1"/>
<stop offset="0.693762" stop-color="#C4A767"/>
</linearGradient>
<linearGradient id="paint2_linear_1409_37846" x1="55.4661" y1="9.06692" x2="248.575" y2="241.285" gradientUnits="userSpaceOnUse">
<stop stop-color="#C4A767" stop-opacity="0.1"/>
<stop offset="0.693762" stop-color="#C4A767"/>
</linearGradient>
<linearGradient id="paint3_linear_1409_37846" x1="55.4661" y1="9.06692" x2="248.575" y2="241.285" gradientUnits="userSpaceOnUse">
<stop stop-color="#C4A767" stop-opacity="0.1"/>
<stop offset="0.693762" stop-color="#C4A767"/>
</linearGradient>
<linearGradient id="paint4_linear_1409_37846" x1="55.4661" y1="9.06692" x2="248.575" y2="241.285" gradientUnits="userSpaceOnUse">
<stop stop-color="#C4A767" stop-opacity="0.1"/>
<stop offset="0.693762" stop-color="#C4A767"/>
</linearGradient>
<linearGradient id="paint5_linear_1409_37846" x1="55.4661" y1="9.06692" x2="248.575" y2="241.285" gradientUnits="userSpaceOnUse">
<stop stop-color="#C4A767" stop-opacity="0.1"/>
<stop offset="0.693762" stop-color="#C4A767"/>
</linearGradient>
<linearGradient id="paint6_linear_1409_37846" x1="55.4661" y1="9.06692" x2="248.575" y2="241.285" gradientUnits="userSpaceOnUse">
<stop stop-color="#C4A767" stop-opacity="0.1"/>
<stop offset="0.693762" stop-color="#C4A767"/>
</linearGradient>
<linearGradient id="paint7_linear_1409_37846" x1="55.4661" y1="9.06692" x2="248.575" y2="241.285" gradientUnits="userSpaceOnUse">
<stop stop-color="#C4A767" stop-opacity="0.1"/>
<stop offset="0.693762" stop-color="#C4A767"/>
</linearGradient>
<linearGradient id="paint8_linear_1409_37846" x1="55.4661" y1="9.06692" x2="248.575" y2="241.285" gradientUnits="userSpaceOnUse">
<stop stop-color="#C4A767" stop-opacity="0.1"/>
<stop offset="0.693762" stop-color="#C4A767"/>
</linearGradient>
<linearGradient id="paint9_linear_1409_37846" x1="55.4661" y1="9.06692" x2="248.575" y2="241.285" gradientUnits="userSpaceOnUse">
<stop stop-color="#C4A767" stop-opacity="0.1"/>
<stop offset="0.693762" stop-color="#C4A767"/>
</linearGradient>
<linearGradient id="paint10_linear_1409_37846" x1="55.4661" y1="9.06692" x2="248.575" y2="241.285" gradientUnits="userSpaceOnUse">
<stop stop-color="#C4A767" stop-opacity="0.1"/>
<stop offset="0.693762" stop-color="#C4A767"/>
</linearGradient>
<linearGradient id="paint11_linear_1409_37846" x1="55.4661" y1="9.06692" x2="248.575" y2="241.285" gradientUnits="userSpaceOnUse">
<stop stop-color="#C4A767" stop-opacity="0.1"/>
<stop offset="0.693762" stop-color="#C4A767"/>
</linearGradient>
<linearGradient id="paint12_linear_1409_37846" x1="55.4661" y1="9.06692" x2="248.575" y2="241.285" gradientUnits="userSpaceOnUse">
<stop stop-color="#C4A767" stop-opacity="0.1"/>
<stop offset="0.693762" stop-color="#C4A767"/>
</linearGradient>
<linearGradient id="paint13_linear_1409_37846" x1="55.4661" y1="9.06692" x2="248.575" y2="241.285" gradientUnits="userSpaceOnUse">
<stop stop-color="#C4A767" stop-opacity="0.1"/>
<stop offset="0.693762" stop-color="#C4A767"/>
</linearGradient>
<linearGradient id="paint14_linear_1409_37846" x1="55.4661" y1="9.06692" x2="248.575" y2="241.285" gradientUnits="userSpaceOnUse">
<stop stop-color="#C4A767" stop-opacity="0.1"/>
<stop offset="0.693762" stop-color="#C4A767"/>
</linearGradient>
<linearGradient id="paint15_linear_1409_37846" x1="55.4661" y1="9.06692" x2="248.575" y2="241.285" gradientUnits="userSpaceOnUse">
<stop stop-color="#C4A767" stop-opacity="0.1"/>
<stop offset="0.693762" stop-color="#C4A767"/>
</linearGradient>
<linearGradient id="paint16_linear_1409_37846" x1="55.4661" y1="9.06692" x2="248.575" y2="241.285" gradientUnits="userSpaceOnUse">
<stop stop-color="#C4A767" stop-opacity="0.1"/>
<stop offset="0.693762" stop-color="#C4A767"/>
</linearGradient>
<linearGradient id="paint17_linear_1409_37846" x1="55.4661" y1="9.06692" x2="248.575" y2="241.285" gradientUnits="userSpaceOnUse">
<stop stop-color="#C4A767" stop-opacity="0.1"/>
<stop offset="0.693762" stop-color="#C4A767"/>
</linearGradient>
<linearGradient id="paint18_linear_1409_37846" x1="55.4661" y1="9.06692" x2="248.575" y2="241.285" gradientUnits="userSpaceOnUse">
<stop stop-color="#C4A767" stop-opacity="0.1"/>
<stop offset="0.693762" stop-color="#C4A767"/>
</linearGradient>
<linearGradient id="paint19_linear_1409_37846" x1="55.4661" y1="9.06692" x2="248.575" y2="241.285" gradientUnits="userSpaceOnUse">
<stop stop-color="#C4A767" stop-opacity="0.1"/>
<stop offset="0.693762" stop-color="#C4A767"/>
</linearGradient>
<linearGradient id="paint20_linear_1409_37846" x1="55.4661" y1="9.06692" x2="248.575" y2="241.285" gradientUnits="userSpaceOnUse">
<stop stop-color="#C4A767" stop-opacity="0.1"/>
<stop offset="0.693762" stop-color="#C4A767"/>
</linearGradient>
<linearGradient id="paint21_linear_1409_37846" x1="55.4661" y1="9.06692" x2="248.575" y2="241.285" gradientUnits="userSpaceOnUse">
<stop stop-color="#C4A767" stop-opacity="0.1"/>
<stop offset="0.693762" stop-color="#C4A767"/>
</linearGradient>
<linearGradient id="paint22_linear_1409_37846" x1="55.4661" y1="9.06692" x2="248.575" y2="241.285" gradientUnits="userSpaceOnUse">
<stop stop-color="#C4A767" stop-opacity="0.1"/>
<stop offset="0.693762" stop-color="#C4A767"/>
</linearGradient>
<linearGradient id="paint23_linear_1409_37846" x1="55.4661" y1="9.06692" x2="248.575" y2="241.285" gradientUnits="userSpaceOnUse">
<stop stop-color="#C4A767" stop-opacity="0.1"/>
<stop offset="0.693762" stop-color="#C4A767"/>
</linearGradient>
<linearGradient id="paint24_linear_1409_37846" x1="55.4661" y1="9.06692" x2="248.575" y2="241.285" gradientUnits="userSpaceOnUse">
<stop stop-color="#C4A767" stop-opacity="0.1"/>
<stop offset="0.693762" stop-color="#C4A767"/>
</linearGradient>
<linearGradient id="paint25_linear_1409_37846" x1="55.4661" y1="9.06692" x2="248.575" y2="241.285" gradientUnits="userSpaceOnUse">
<stop stop-color="#C4A767" stop-opacity="0.1"/>
<stop offset="0.693762" stop-color="#C4A767"/>
</linearGradient>
<linearGradient id="paint26_linear_1409_37846" x1="55.4661" y1="9.06692" x2="248.575" y2="241.285" gradientUnits="userSpaceOnUse">
<stop stop-color="#C4A767" stop-opacity="0.1"/>
<stop offset="0.693762" stop-color="#C4A767"/>
</linearGradient>
<linearGradient id="paint27_linear_1409_37846" x1="55.4661" y1="9.06692" x2="248.575" y2="241.285" gradientUnits="userSpaceOnUse">
<stop stop-color="#C4A767" stop-opacity="0.1"/>
<stop offset="0.693762" stop-color="#C4A767"/>
</linearGradient>
<linearGradient id="paint28_linear_1409_37846" x1="55.4661" y1="9.06692" x2="248.575" y2="241.285" gradientUnits="userSpaceOnUse">
<stop stop-color="#C4A767" stop-opacity="0.1"/>
<stop offset="0.693762" stop-color="#C4A767"/>
</linearGradient>
<linearGradient id="paint29_linear_1409_37846" x1="55.4661" y1="9.06692" x2="248.575" y2="241.285" gradientUnits="userSpaceOnUse">
<stop stop-color="#C4A767" stop-opacity="0.1"/>
<stop offset="0.693762" stop-color="#C4A767"/>
</linearGradient>
<linearGradient id="paint30_linear_1409_37846" x1="55.4661" y1="9.06692" x2="248.575" y2="241.285" gradientUnits="userSpaceOnUse">
<stop stop-color="#C4A767" stop-opacity="0.1"/>
<stop offset="0.693762" stop-color="#C4A767"/>
</linearGradient>
<linearGradient id="paint31_linear_1409_37846" x1="55.4661" y1="9.06692" x2="248.575" y2="241.285" gradientUnits="userSpaceOnUse">
<stop stop-color="#C4A767" stop-opacity="0.1"/>
<stop offset="0.693762" stop-color="#C4A767"/>
</linearGradient>
<linearGradient id="paint32_linear_1409_37846" x1="55.4661" y1="9.06692" x2="248.575" y2="241.285" gradientUnits="userSpaceOnUse">
<stop stop-color="#C4A767" stop-opacity="0.1"/>
<stop offset="0.693762" stop-color="#C4A767"/>
</linearGradient>
<linearGradient id="paint33_linear_1409_37846" x1="55.4661" y1="9.06692" x2="248.575" y2="241.285" gradientUnits="userSpaceOnUse">
<stop stop-color="#C4A767" stop-opacity="0.1"/>
<stop offset="0.693762" stop-color="#C4A767"/>
</linearGradient>
<linearGradient id="paint34_linear_1409_37846" x1="55.4661" y1="9.06692" x2="248.575" y2="241.285" gradientUnits="userSpaceOnUse">
<stop stop-color="#C4A767" stop-opacity="0.1"/>
<stop offset="0.693762" stop-color="#C4A767"/>
</linearGradient>
<linearGradient id="paint35_linear_1409_37846" x1="55.4661" y1="9.06692" x2="248.575" y2="241.285" gradientUnits="userSpaceOnUse">
<stop stop-color="#C4A767" stop-opacity="0.1"/>
<stop offset="0.693762" stop-color="#C4A767"/>
</linearGradient>
</defs>
</svg>
