<svg width="91" height="261" viewBox="0 0 91 261" fill="none" xmlns="http://www.w3.org/2000/svg">
<path d="M62.4396 56.337C63.8599 57.6414 65.1866 58.8701 66.3442 60.1167C65.2044 59.0393 63.8688 57.726 62.4396 56.337Z" fill="#C4A767" fill-opacity="0.03"/>
<path d="M66.5403 60.3527C66.4468 60.277 66.4377 60.1923 66.3442 60.1167L66.5403 60.3527Z" fill="#C4A767" fill-opacity="0.03"/>
<path d="M77.2041 100.71C75.6636 99.0764 73.9273 97.2066 72.004 95.1854C64.1592 87.2876 52.8464 78.1301 39.6102 70.2013C28.9207 63.7149 19.7004 59.8107 12.2298 57.0907C4.98181 54.8604 -0.832603 53.2489 -5.19563 52.4253L-5.37372 52.3586C-1.00179 53.2667 4.67461 54.3796 11.8335 55.764C13.5787 56.0934 15.5955 56.5652 17.6301 57.2063C19.6558 57.7627 21.8685 58.4706 24.1747 59.2541C28.7025 60.83 33.7912 62.86 39.2896 65.5311C52.815 72.1465 64.7869 82.6887 72.5381 92.1357C74.4214 94.5888 76.2023 96.8815 77.6849 98.778C79.1096 100.937 80.3384 102.861 81.2689 104.388C82.1994 105.915 82.934 107.206 83.446 108.007C83.958 108.808 84.1806 109.298 84.1806 109.298C84.1806 109.298 83.0899 107.873 80.935 105.278C79.9555 104.098 78.6688 102.438 77.2041 100.71Z" fill="#C4A767" fill-opacity="0.03"/>
<path d="M87.2399 135.917L87.369 136.331C87.3512 136.162 87.2399 135.917 87.2221 135.748C87.231 135.832 87.231 135.832 87.2399 135.917Z" fill="#C4A767" fill-opacity="0.03"/>
<path d="M84.7155 130.623C83.6648 128.767 82.4538 127.013 81.216 125.005C78.6071 121.346 75.6152 117.299 72.1158 113.305C70.3616 111.266 68.514 109.152 66.5906 107.13C64.6584 105.025 62.557 102.937 60.3532 100.688C56.0568 96.4369 51.1862 92.4168 45.9282 88.7796C32.8479 79.8936 21.3169 74.3511 13.0449 70.5181C4.78185 66.7697 -0.297989 64.8242 -0.297989 64.8242C-0.297989 64.8242 0.90406 64.8687 3.07222 65.1536C5.24037 65.4385 8.55272 66.0305 12.6041 67.1434C20.8004 69.4449 32.6296 73.7587 46.124 84.1405C51.5289 88.3609 56.3773 92.9821 60.736 97.8258C65.019 102.763 68.8256 107.237 72.2092 111.756C75.584 116.19 78.5091 120.415 81.1448 124.328C83.1082 127.543 84.9514 130.428 86.2961 133.45C86.2961 133.45 86.2872 133.366 86.2026 133.375C85.7573 132.395 85.2453 131.594 84.7155 130.623Z" fill="#C4A767" fill-opacity="0.03"/>
<path d="M87.1372 135.757C86.8879 135.013 86.554 134.278 86.22 133.544C86.6385 134.27 86.9725 135.004 87.1372 135.757Z" fill="#C4A767" fill-opacity="0.03"/>
<path d="M83.5283 191.643C83.555 191.897 83.5817 192.151 83.5327 192.498C83.506 192.244 83.555 191.897 83.5283 191.643Z" fill="#C4A767" fill-opacity="0.03"/>
<path d="M83.5727 193.691C83.6128 193.259 83.5773 192.921 83.5327 192.498C83.5595 192.752 83.5861 193.006 83.5282 193.268L83.5727 193.691Z" fill="#C4A767" fill-opacity="0.03"/>
<path d="M78.1814 203.41C78.1458 203.072 78.1102 202.733 78.0745 202.395C78.1191 202.818 78.1725 203.325 78.217 203.748L78.1814 203.41Z" fill="#C4A767" fill-opacity="0.03"/>
<path d="M69.0289 236.703C69.2381 236.253 69.3539 235.728 69.5631 235.278C69.4296 235.634 69.3717 235.897 69.2381 236.253L69.0289 236.703Z" fill="#C4A767" fill-opacity="0.03"/>
<path d="M69.7279 234.405C69.67 234.668 69.5275 234.94 69.4697 235.202C69.6121 234.931 69.67 234.668 69.7279 234.405Z" fill="#C4A767" fill-opacity="0.03"/>
<path d="M71.317 219.442C71.0987 216.557 70.9473 213.494 70.4664 210.551C69.9855 207.609 69.4957 204.581 68.583 201.598C65.4395 189.614 60.0611 177.522 52.5903 165.052C48.0045 157.239 43.3742 150.628 39.2381 144.648C35.0352 138.848 31.0817 133.79 27.8182 129.601C22.2129 122.665 18.4731 118.012 17.4001 116.757C17.5471 117.34 17.7697 117.83 17.9166 118.413L17.9077 118.329C17.9077 118.329 17.9077 118.329 17.9166 118.413C19.751 124.463 21.483 130.353 23.0458 136.261C24.0743 140.344 25.085 144.257 26.0112 148.179C27.3557 149.577 29.978 152.551 33.5665 157.39C36.0642 160.805 38.9225 165.208 41.812 170.72C44.7015 176.231 47.6223 182.851 49.9242 190.905C51.8031 197.378 52.845 204.025 53.3438 210.387C53.5131 213.619 53.6823 216.851 53.4197 220.044C53.3263 223.218 52.8857 226.343 52.4361 229.384C50.7579 240.251 46.4174 250.202 41.4535 257.481C46.3239 250.126 50.1836 240.483 51.5679 230.074C53.0546 218.2 51.8033 205.503 47.8629 193.26C45.521 185.638 42.7026 179.178 39.9734 173.565C39.3145 172.18 38.6555 170.795 38.0055 169.495C37.3555 168.195 36.7143 166.98 36.0732 165.765C34.7999 163.418 33.6289 161.233 32.4847 159.3C30.2808 155.427 28.3441 152.467 27.0975 150.374C26.6879 149.733 26.3807 149.252 26.0735 148.771C26.9818 152.524 27.7966 156.202 28.4423 159.897C29.1903 163.752 29.8359 167.448 30.3881 171.067C30.6686 172.919 30.9402 174.687 31.2118 176.454C31.3989 178.23 31.6705 179.998 31.8486 181.69C32.196 184.989 32.4498 188.212 32.6012 191.275C32.6012 191.275 32.6012 191.275 32.6101 191.36C32.7794 194.592 32.8463 197.664 32.8107 200.575C32.7218 206.229 32.486 211.3 31.8138 215.476C31.6491 216.349 31.5601 217.128 31.4711 217.907C31.4889 218.076 31.5067 218.245 31.4399 218.424C31.3776 219.456 31.3598 220.912 31.1328 222.818C30.9904 224.714 30.4607 226.994 29.7885 229.545C29.4056 230.783 28.956 232.198 28.4218 233.623C27.8876 235.048 27.0996 236.499 26.4051 238.026C25.8531 239.282 25.1141 240.386 24.3662 241.405C23.6272 242.509 23.0484 243.511 22.2916 244.446C20.778 246.316 19.5092 248.075 18.0356 249.513C15.3511 252.447 12.8223 254.423 11.2063 256.133L11.1306 256.226C12.7467 254.517 15.0973 252.473 17.3321 249.33C19.6694 246.347 21.9844 242.34 24.0589 237.674C26.6098 231.847 28.1144 226.642 29.4322 222.911C30.0064 221.055 30.4471 219.554 30.8478 218.486C31.1639 217.426 31.3642 216.892 31.3642 216.892C31.3642 216.892 31.3909 217.146 31.4444 217.653C31.5423 216.959 31.6402 216.264 31.7382 215.57C32.0987 213.308 32.3391 210.717 32.477 207.966C32.4191 208.228 32.3702 208.576 32.2455 209.016C31.9384 210.161 31.6757 211.728 31.0169 213.593C29.7926 217.4 27.6024 222.591 24.0898 227.408C22.5851 229.362 21.3163 231.121 19.8427 232.559C19.1526 233.316 18.5383 233.979 17.8482 234.736C17.1493 235.408 16.526 235.987 15.9027 236.566C14.7497 237.799 13.561 238.694 12.635 239.647C12.172 240.123 11.709 240.6 11.3306 241.067C10.9433 241.45 10.6494 241.909 10.4313 242.274C10.6494 241.909 10.8676 241.544 11.1703 241.17C11.5487 240.702 11.9182 240.15 12.3812 239.674C13.2983 238.636 14.3757 237.497 15.4263 236.103C15.9561 235.449 16.5616 234.701 17.167 233.953C17.679 233.129 18.2756 232.297 18.8721 231.464C19.5533 230.622 20.0474 229.63 20.6351 228.713C21.2138 227.711 21.9617 226.691 22.447 225.614C25.5588 220.24 27.8025 215.557 29.6144 212.458C30.9633 209.836 32.0719 208.179 32.3568 207.636C32.4725 205.486 32.4947 203.26 32.4991 200.865C32.5613 198.207 32.4455 195.482 32.3119 192.588C32.2629 192.936 32.214 193.283 32.1739 193.715C31.9781 195.104 31.5151 197.205 30.9186 199.663C29.641 204.587 27.4418 211.318 23.5153 217.89C20.3945 223.179 17.2158 227.105 14.4467 230.048C12.2341 232.59 10.1105 234.354 8.66368 236.045C10.1105 234.354 11.9447 232.279 13.8769 229.51C16.3388 226.086 19.2102 221.678 21.8546 215.926C25.1267 208.825 27.6419 202.659 29.4894 198.274C30.4599 196.119 31.1366 194.423 31.6975 193.252C31.9735 192.624 32.1828 192.174 32.3252 191.903C32.1649 188.755 31.9021 185.447 31.4524 181.988C31.2743 180.296 31.0026 178.529 30.8156 176.752C30.544 174.985 30.2724 173.218 29.9919 171.365C29.4397 167.746 28.7852 163.966 28.046 160.195C27.1956 156.18 26.3273 151.995 25.2899 147.828C25.0851 147.507 24.9916 147.431 24.9916 147.431C24.9916 147.431 25.0851 147.507 25.1875 147.667C24.2881 143.999 23.3887 140.33 22.3958 136.586C22.1198 135.589 21.8348 134.507 21.5587 133.51C21.4875 134.458 20.8777 139.226 19.5868 146.461C18.0377 154.492 15.4291 165.458 10.9684 176.704C7.3847 185.719 3.76537 192.772 0.644608 198.061C-0.958069 200.71 -2.3426 202.994 -3.50899 204.912C-3.80281 205.371 -4.08773 205.914 -4.29697 206.364C-4.59079 206.822 -4.80893 207.187 -5.01817 207.637C-5.16953 207.824 -5.2274 208.087 -5.29417 208.265C-5.2274 208.087 -5.16062 207.909 -5.09385 207.731C-4.66647 206.916 -4.16341 206.008 -3.67816 204.93C-2.60526 202.936 -1.32314 200.492 0.0925446 197.691C2.83041 192.015 5.95556 184.33 9.05395 174.767C12.8513 162.907 15.8428 152.329 18.1488 144.987C20.1787 138.274 21.5365 134.111 21.7279 133.492C20.4857 129.004 19.1589 124.526 17.7385 119.971C17.2756 122.073 16.2072 126.547 14.4443 132.548C13.8122 134.668 13.1133 136.965 12.3565 139.525C11.5908 142 10.7583 144.654 9.8591 147.485C9.32489 148.91 9.04445 150.308 8.59483 151.724C8.2476 153.3 7.82471 154.969 7.31721 156.648C6.80081 158.241 6.369 159.826 5.8615 161.505C5.34511 163.099 4.75303 164.786 4.24554 166.464C0.586212 177.198 -3.0509 185.706 -5.93566 192.425C-8.40195 198.243 -10.4186 202.647 -10.8504 205.856C-10.4186 202.647 -8.74921 198.194 -6.64799 192.157C-4.13721 185.136 -1.07888 176.005 2.08625 164.639C3.08342 161.113 3.92922 157.774 4.86852 154.511C5.30034 152.926 5.64756 151.35 6.07937 149.765C6.59577 148.171 6.92518 146.426 7.46829 145.086C9.43596 139.405 11.2567 134.766 12.8104 130.839C14.3641 126.912 15.6684 123.867 16.5633 121.806C16.9728 120.822 17.3245 120.1 17.5248 119.566C16.7412 116.997 15.9576 114.429 15.0894 111.869C14.0653 108.641 12.9567 105.422 11.8481 102.203C11.8436 102.974 11.7234 104.269 11.5543 105.912C11.3496 108.841 10.949 113.16 10.2146 118.369C9.88962 120.969 9.32873 123.765 8.70997 126.823C8.35384 128.315 8.00661 129.891 7.65939 131.467C7.21868 132.967 6.78687 134.552 6.27047 136.146C5.31335 139.24 4.28947 142.512 3.10531 145.887C2.08141 149.159 1.01746 152.863 -0.0464859 156.568C-3.5633 168.655 -6.59044 178.895 -9.45292 186.637C-12.1373 194.446 -14.6481 199.842 -15.0265 203.559C-14.6481 199.842 -12.5692 194.406 -10.3433 186.303C-8.03292 178.191 -5.66025 167.422 -2.84242 154.382C-1.89869 150.348 -1.10632 146.502 0.0511322 142.873C1.22639 139.414 2.24136 136.057 3.20739 133.047C3.73269 131.538 4.17341 130.038 4.70762 128.613C5.14833 127.113 5.51337 125.706 5.8784 124.299C6.61737 121.57 7.37416 119.01 7.88609 116.561C9.79137 108.663 11.1269 103.477 11.5498 101.807C11.198 100.903 10.9309 99.9907 10.5791 99.0869C9.10986 94.8798 7.63168 90.588 6.07781 86.3898C5.9576 86.0603 5.83739 85.7309 5.71717 85.4015C5.62815 86.1806 5.50797 87.4761 5.33883 89.1189C4.97384 92.1508 4.49758 96.5628 3.61176 101.959C2.81052 107.346 1.69321 113.792 0.0283203 120.724C-0.799675 124.232 -1.70335 127.834 -2.7673 131.538C-3.84015 135.158 -4.6993 139.182 -5.72762 143.225C-8.95058 156.479 -12.0757 167.413 -14.9515 175.841C-16.3271 179.834 -17.6448 183.565 -18.8289 186.94C-19.3453 188.534 -19.786 190.034 -20.2446 191.365C-20.436 191.984 -20.5428 192.594 -20.6497 193.204C-20.6185 192.688 -20.5028 192.162 -20.3959 191.552C-20.022 190.23 -19.6659 188.739 -19.1584 187.06C-18.2102 183.881 -17.0794 179.999 -15.9265 175.516C-13.6116 166.634 -11.1499 155.085 -8.68383 141.141C-7.8514 136.863 -7.10356 132.593 -6.04852 128.805C-5.07807 125.025 -4.08981 121.414 -3.244 118.075C-1.48561 111.219 0.0991745 105.151 1.36788 100.142C3.44234 92.2265 4.9381 86.9374 5.51237 85.0809C4.08762 81.2967 2.66287 77.5125 1.24703 73.8129C0.276413 71.0927 -0.86338 68.3903 -1.90968 65.7636C-2.34592 68.1188 -3.43654 73.1942 -5.3552 80.1528C-6.73521 84.9165 -8.44912 90.5706 -10.7195 96.6255C-11.8547 99.6529 -13.0567 102.858 -14.4278 106.082C-15.198 107.702 -15.8079 109.22 -16.3822 111.077C-16.9653 112.849 -17.5396 114.705 -18.1985 116.571C-22.0536 128.694 -25.3256 139.045 -28.2015 147.473C-29.6349 151.729 -30.7745 155.527 -31.7895 158.883C-32.711 162.316 -33.677 165.326 -33.5523 168.135L-33.5256 168.389C-33.7349 165.588 -32.8624 162.503 -32.119 159.004C-31.2153 155.402 -30.2627 151.453 -29.1008 147.054C-26.7948 138.088 -24.2708 127.131 -21.1146 114.055C-20.6427 112.039 -20.162 110.107 -19.5966 108.165C-19.0313 106.224 -18.3724 104.359 -17.7714 102.756C-16.4092 99.4482 -15.1983 96.3273 -13.9696 93.3755C-11.5968 87.481 -9.41542 82.2052 -7.64361 77.9134C-5.8718 73.6216 -4.34929 70.2113 -3.39661 67.8873C-2.91136 66.8099 -2.49288 65.9106 -2.21687 65.2828C-2.69772 63.965 -3.26317 62.6562 -3.74403 61.3384C-4.09576 60.4346 -4.44749 59.5308 -4.71464 58.6182C-4.92387 59.0678 -5.40912 60.1452 -6.17928 61.7658C-7.21655 64.0987 -8.66338 67.4155 -10.4619 71.4536C-13.9744 79.5208 -18.9248 90.9894 -24.77 104.519C-32.7209 123.231 -36.7852 139.054 -38.4456 150.091C-38.2586 148.617 -38.1562 147.152 -37.9025 145.501C-37.2526 141.926 -36.8431 137.692 -35.8593 133.226C-34.1633 124.153 -31.528 113.441 -27.6372 101.657C-22.7536 87.1162 -17.0731 76.0839 -12.6079 68.9427C-10.333 65.3676 -8.40083 62.5984 -6.96287 60.822C-5.90331 59.5131 -5.21326 58.7562 -4.90163 58.4668C-5.97464 55.5864 -6.95416 52.7816 -7.8491 49.9679C-8.13401 50.5111 -8.56138 51.3258 -9.05553 52.3186C-10.1106 54.4824 -11.6688 57.5543 -13.5786 61.3475C-14.5669 63.3331 -15.622 65.4969 -16.7438 67.8387C-17.8657 70.1805 -19.0811 72.4466 -20.4478 74.8997C-23.0966 79.797 -26.2085 85.1707 -29.5474 90.8249C-30.9319 93.1089 -32.0538 95.4507 -33.2023 97.5387C-34.3331 99.7959 -35.3882 101.96 -36.3587 104.114C-38.3932 108.348 -40.0225 112.369 -41.4159 116.193C-44.127 123.748 -45.7073 130.671 -45.0171 136.414L-44.9904 136.668C-45.6806 130.925 -44.5589 123.708 -42.333 115.605C-41.229 111.469 -39.8045 107.129 -38.1618 102.423C-37.2937 100.108 -36.4434 97.6234 -35.5086 95.1302C-34.4802 92.7127 -33.3851 90.1171 -32.2899 87.5215C-29.3517 81.3109 -26.3423 75.7769 -23.5064 71.031C-20.724 65.7775 -17.9861 61.726 -15.591 58.4804C-13.1959 55.2348 -11.1346 52.8796 -9.75453 51.3659C-9.06448 50.609 -8.44122 50.0303 -8.05389 49.6474C-8.07171 49.4782 -8.1741 49.3179 -8.20082 49.0642C-8.79745 46.6467 -9.46977 44.3228 -10.1421 41.9988C-10.4448 42.3728 -10.8232 42.8403 -11.2773 43.4012C-12.6396 45.0841 -14.6919 47.5239 -17.0871 50.7695C-19.5668 54.024 -22.2379 57.8974 -25.1673 62.5677C-26.6275 64.9451 -28.1634 67.416 -29.6725 70.1407C-30.4694 71.5075 -31.1728 72.95 -31.9608 74.4014C-32.7577 75.7682 -33.5635 77.0504 -34.4449 78.4261C-39.7738 87.1122 -43.7938 95.2328 -46.3358 102.77C-48.1832 110.405 -49.1535 117.435 -48.913 122.969L-48.8863 123.223C-49.1268 117.689 -48.6061 110.45 -46.643 102.289C-45.7081 98.1712 -44.2836 93.8304 -42.7077 89.3026C-41.8307 87.0721 -40.9626 84.757 -39.9342 82.3396C-39.4579 81.1776 -38.8969 80.0067 -38.3449 78.7512C-38.0689 78.1234 -37.784 77.5803 -37.5169 76.8679C-37.2498 76.1556 -36.9827 75.4433 -36.7156 74.7309C-33.951 67.6833 -30.7724 62.1315 -27.6383 57.7818C-24.3438 53.3296 -21.0093 50.0706 -18.1957 47.5507C-15.3732 45.1154 -12.9869 43.4102 -11.2996 42.3773C-10.6585 41.9677 -10.1777 41.6605 -9.77258 41.4468C-10.1867 39.9509 -10.6096 38.3704 -10.9391 36.8656C-10.9748 36.5273 -11.1039 36.1132 -11.1395 35.7749C-11.5357 36.0732 -12.1679 36.5674 -13.036 37.2575C-13.8285 37.854 -14.7723 38.6376 -15.8853 39.439C-16.9894 40.325 -18.1692 41.3045 -19.5092 42.3864C-22.1715 44.7193 -25.3813 47.5375 -28.8672 50.9835C-30.5678 52.702 -32.4198 54.6076 -34.254 56.6823C-35.1711 57.7196 -36.0793 58.8416 -37.0721 59.9724C-37.9803 61.0943 -38.8885 62.2163 -39.7878 63.4228C-42.7127 67.3229 -45.1033 71.4233 -47.1467 75.5726C-48.1261 77.6429 -49.012 79.7888 -49.7198 82.0014C-50.5568 83.8001 -51.4115 85.4296 -52.0882 87.1258C-54.8973 93.7505 -56.3886 99.8944 -56.9806 104.832L-57.0384 105.094C-56.531 100.166 -55.4048 93.804 -53.0988 86.4625C-52.7649 85.5721 -52.5245 84.606 -52.1907 83.7155C-51.9814 83.2659 -51.8746 82.656 -51.7678 82.046C-51.6609 81.4361 -51.4695 80.8172 -51.3627 80.2073C-50.7662 77.7498 -50.0851 75.2833 -49.2259 72.8836C-47.5164 67.9997 -45.5265 63.3428 -42.5125 58.6636C-35.1491 47.3686 -26.9664 42.2307 -20.7113 39.0919C-15.823 36.7812 -12.3237 35.8996 -11.0727 35.5968C-11.4111 34.0074 -11.656 32.4937 -11.9944 30.9044C-12.3773 28.892 -12.836 26.9732 -12.9651 24.9342C-13.17 22.9886 -13.3748 21.0431 -13.6642 19.1065C-13.7622 18.176 -13.8691 17.1609 -13.967 16.2304C-14.065 15.3 -14.0784 14.3606 -14.0918 13.4212C-14.2299 9.67258 -14.4437 6.01746 -14.3013 2.49588C-14.2345 0.692802 -14.1589 -1.02569 -14.1678 -2.73528C-14.0922 -4.45377 -13.8385 -6.10549 -13.6693 -7.74829C-12.2984 -20.7216 -9.20451 -31.1395 -6.41325 -37.9334C-4.97532 -41.3348 -3.79559 -43.9392 -2.86515 -45.6622C-1.93472 -47.3852 -1.41384 -48.1242 -1.41384 -48.1242C-1.04433 -48.6763 -0.318665 -49.0948 -0.029274 -48.7832C0.157715 -48.6318 0.193344 -48.2934 0.144379 -47.9462C0.171097 -47.6924 0.0375443 -47.3363 -0.104912 -47.0647C-0.104912 -47.0647 -0.256279 -46.8777 -0.474419 -46.5126C-0.683655 -46.0629 -1.05316 -45.5109 -1.48054 -44.6962C-1.90792 -43.8814 -2.39316 -42.804 -3.03867 -41.6242C-3.5907 -40.3687 -4.28519 -38.8416 -4.97076 -37.23C-7.68635 -30.5296 -10.807 -20.3655 -12.1957 -7.56134C-12.3738 -6.00312 -12.6275 -4.35141 -12.7031 -2.63292C-12.7788 -0.914425 -12.8633 0.719479 -12.93 2.52256C-13.0547 4.58831 -13.0012 6.72085 -12.9388 8.93797C-12.7028 8.74207 -12.3823 8.53727 -12.0618 8.33247C-10.6371 7.24168 -8.5447 5.99505 -5.68206 4.75286C-0.0324707 2.36197 8.13255 0.304924 17.6065 0.93243C19.4942 0.990261 21.2973 1.057 23.1004 1.12373C24.8278 1.28397 26.4795 1.53769 28.1223 1.70683C31.3322 2.1386 34.2617 2.34332 36.8706 2.75285C42.0127 3.66539 46.2644 4.24405 49.4477 4.42205L49.6168 4.40424C46.4247 4.14165 42.2175 3.98593 36.9685 3.68332C34.3107 3.62106 31.4258 3.83928 28.2603 3.83045C26.6442 3.91508 25.0192 3.91512 23.234 4.01756C21.5422 4.19569 19.6813 4.39162 17.8203 4.58756C8.52445 5.65182 0.626549 6.99654 -5.08095 8.02511C-7.92134 8.66627 -10.1874 9.07591 -11.7679 9.49889C-12.1819 9.62801 -12.6049 9.67255 -12.8497 9.78385C-12.8096 10.977 -12.7606 12.2547 -12.7116 13.5325C-12.6982 14.4719 -12.6849 15.4112 -12.5869 16.3417C-12.4889 17.2722 -12.391 18.2027 -12.2841 19.2177C-12.1327 20.6557 -11.9724 22.1783 -11.8121 23.7009C-10.895 22.6636 -8.25051 20.1615 -3.97215 17.7439C-1.22083 16.2568 2.13154 14.792 6.13836 13.857C10.1452 12.922 14.6373 12.5345 19.5479 12.8728C27.4726 13.4068 34.1329 14.9293 39.4041 16.2559C41.973 17.0972 44.5151 17.6848 46.6343 18.317C48.7624 19.0337 50.5343 19.6169 52.1193 20.0487L52.2973 20.1155C50.7124 19.6836 48.8648 19.194 46.7545 18.6464C44.6531 18.1834 42.1288 17.765 39.4264 17.2798C34.1329 16.5543 27.5795 16.0469 19.9487 16.6793C10.5326 17.4141 2.60356 19.2752 -3.12619 20.9048C-7.60492 22.2317 -10.6367 23.4917 -11.7008 23.9458C-11.6651 24.2841 -11.6295 24.6225 -11.585 25.0454C-11.4647 26.9999 -11.0061 28.9187 -10.6232 30.931C-10.4584 31.6834 -10.3783 32.4447 -10.2135 33.1971C-7.13276 31.5899 -2.94343 29.9514 2.40791 28.7893C8.0976 27.5915 15.2209 27.0126 23.7555 27.6535C28.9287 28.0496 34.0709 28.9621 38.4606 30.0394C42.935 31.1078 46.5723 32.3498 49.947 33.534C50.7439 33.7922 51.5409 34.0504 52.2532 34.3175C52.9655 34.5846 53.6779 34.8517 54.3056 35.1277C55.5522 35.5952 56.545 36.0893 57.4354 36.4232C59.1317 37.0999 60.0221 37.4337 60.0399 37.6029C60.0399 37.6029 59.6748 37.3848 59.243 37.3447C58.8111 37.3047 58.1166 37.2067 57.2529 37.1266C56.3803 36.9619 55.3385 36.815 54.0341 36.6103C53.4241 36.5034 52.7207 36.3209 52.0262 36.223C51.3316 36.1251 50.5525 36.036 49.7645 35.8624C46.4522 35.2704 42.5299 34.5715 38.2604 33.8237C33.9908 33.0758 29.196 32.2122 23.9025 31.4867C19.6418 30.8234 15.8398 30.454 12.3093 30.227C8.77882 30.0001 5.61342 29.9912 2.72849 30.2095C-2.87218 30.6281 -7.20844 31.6833 -10.2892 33.2906C-10.071 34.5505 -9.86176 35.7259 -9.64359 36.9858C-9.47884 37.7382 -9.323 38.406 -9.15826 39.1584C-8.18772 38.6286 -4.91996 37.1727 0.373505 36.2732C3.57006 35.7656 7.54573 35.347 12.1002 35.5517C14.4108 35.565 16.8416 35.9077 19.3392 36.0724C20.6348 36.1926 21.8635 36.4908 23.2526 36.6867C24.5571 36.8915 25.8615 37.0962 27.2773 37.5458C29.3875 38.0934 31.5824 38.632 33.6927 39.1796C35.803 39.7271 37.7441 40.2925 39.6095 40.9514C41.466 41.5256 43.2469 42.1934 44.8496 42.7944C45.2993 43.0036 45.6466 43.0526 46.1051 43.3464C46.5637 43.6402 47.0223 43.9341 47.4808 44.2279C48.398 44.8155 49.324 45.4878 50.1566 46.0843C51.8973 47.1839 53.5046 48.6397 55.094 49.9263C56.5988 51.2218 58.0858 52.3482 59.4126 53.5769C60.5523 54.6543 61.514 55.6648 62.5602 56.6665C59.1588 53.6036 55.1563 50.5184 50.4104 47.6826C48.6785 46.6676 46.8709 45.746 45.0634 44.8245L43.6209 44.1211C43.1801 43.9965 42.7394 43.8718 42.3075 43.8318C41.4349 43.6671 40.5534 43.4178 39.6808 43.2531C36.0123 42.5275 32.0054 41.8375 27.678 41.3523C26.289 41.1565 24.9934 41.0363 23.7068 41.0007C22.4113 40.8805 21.2003 40.7515 19.9047 40.6313C17.5006 40.5423 15.1544 40.1907 12.9284 40.1684C8.52529 39.7768 4.58968 39.7635 1.23728 39.6033C-4.24764 39.4966 -7.92949 39.4566 -9.03805 39.4878C-8.88221 40.1556 -8.73528 40.7389 -8.57944 41.4067C-8.49485 41.3978 -8.49485 41.3978 -8.49485 41.3978C-8.49485 41.3978 -8.49485 41.3978 -8.57053 41.4912C-8.11192 43.4101 -7.57763 45.2354 -7.03443 47.1453C-5.24026 47.1275 -3.09882 47.1586 -0.703621 47.163C1.77618 47.1584 4.60322 47.2029 7.77753 47.2963C14.1262 47.4831 21.8638 47.8658 30.9594 48.9608C31.3066 49.0098 31.6539 49.0587 32.0012 49.1077L33.1454 49.4149C33.8488 49.5974 34.6457 49.8556 35.358 50.1227C36.8673 50.648 38.292 51.1822 39.7166 51.7164C42.5749 52.8694 45.3663 54.2005 47.9976 55.634C53.2599 58.501 57.9747 61.8533 61.7413 65.1343C63.629 66.8172 65.4054 68.2551 66.8434 69.7287C68.2904 71.2869 69.5414 72.6091 70.5966 73.6954C72.6312 75.9615 73.7042 77.2169 73.7042 77.2169C73.7042 77.2169 72.5912 76.3933 70.5432 74.8129C69.5147 73.9804 68.2236 73.09 66.8123 71.8702C65.3342 70.8284 63.678 69.7199 61.7502 68.4689C54.3018 63.5229 43.8127 58.1273 31.7965 53.6622C30.5499 53.1947 29.3968 52.803 28.2437 52.4112C26.8858 51.6989 25.7238 51.2226 24.7666 51.0668C22.6742 50.6884 20.6663 50.3011 18.743 49.9049C14.9053 49.1972 11.3392 48.6318 8.12036 48.1155C1.6159 47.2608 -3.32144 46.6688 -6.99438 46.7135L-7.07896 46.7224C-6.91422 47.4748 -6.6738 48.1337 -6.50905 48.886C-5.31135 52.9507 -3.77529 56.9798 -2.32383 61.0178C-0.778862 65.1314 0.850677 69.2362 2.40455 73.4344C3.09911 75.1573 3.71799 76.9738 4.41256 78.6967C4.9379 78.8124 5.97968 78.9593 7.48003 79.4C9.7684 80.0144 13.1342 81.1139 17.4349 82.9703C25.9518 86.692 38.1773 93.9575 51.2622 106.948C61.796 117.642 70.0459 128.576 76.4215 138.766C82.797 148.957 87.2137 158.413 90.4594 165.683L90.5797 166.013C87.4096 158.649 82.6991 149.652 76.1499 140.249C69.5918 130.762 61.1104 120.878 50.6078 111.293C37.6654 99.6561 25.9341 91.3979 17.5196 86.2114C10.7435 81.9643 6.13552 79.6271 4.51495 78.857C5.36536 81.2477 6.30034 83.6295 7.14184 85.9357C8.22375 88.9007 9.22109 91.8746 10.303 94.8397C11.1934 95.1736 15.6811 97.1813 22.8045 101.477C26.7357 103.886 31.4327 107.069 36.6684 111.307C41.8196 115.554 47.7231 121.262 53.2973 128.714C62.3219 140.508 69.205 152.27 74.3563 163.017C76.8897 168.395 78.9823 173.648 80.6163 178.608C81.4756 181.083 82.0811 183.585 82.6689 185.918C82.9805 187.254 83.2833 188.505 83.4258 189.858C83.2165 188.683 83.0072 187.507 82.7134 186.341C82.1257 184.008 81.4355 181.515 80.594 179.209C78.8932 174.427 76.6671 169.53 73.9913 164.424C68.6486 154.295 61.3648 143.602 52.269 132.757C46.588 125.914 41.2365 120.576 36.1432 116.066C31.05 111.557 26.5444 107.755 22.6265 104.661C18.7932 101.558 15.7079 99.0601 13.5664 97.404C11.8924 96.1263 10.864 95.2938 10.4811 94.9065C10.8685 96.1486 11.3404 97.3818 11.7278 98.6239C12.6049 101.268 13.4731 103.828 14.3502 106.473C15.8016 107.261 19.6482 109.678 25.3069 113.872C32.3858 119.37 42.4254 127.806 52.5942 141.532C60.7684 152.559 66.8947 163.631 71.1734 174.214C75.2383 184.391 77.38 194.172 78.3285 202.368C77.3889 194.257 75.038 184.925 70.6392 175.638C66.1023 165.853 59.7356 155.747 51.4056 145.677C41.1255 133.331 31.6468 123.724 24.8573 116.913C19.7017 111.811 16.0777 108.258 14.5639 106.878C15.0626 108.365 15.5613 109.852 15.9753 111.348C16.5007 113.088 17.035 114.914 17.645 116.646C18.019 116.948 19.0474 117.781 20.4587 119.001C22.431 120.675 25.3561 123.275 28.8021 126.76C32.3415 130.322 36.4019 134.769 40.9253 140.366C45.2974 146.149 50.1147 152.911 54.5758 161.165C61.7885 174.432 66.9175 187.405 69.6247 200.12C69.9631 201.71 70.2926 203.214 70.5464 204.813C70.8002 206.411 70.9694 208.018 71.2143 209.532C71.7041 212.559 71.6953 215.725 71.8378 218.703C71.8958 221.69 71.7089 224.789 71.4106 227.643C71.2415 229.286 70.8943 230.862 70.5471 232.438C70.8275 231.04 71.099 229.557 71.2949 228.168C71.2548 225.35 71.4595 222.421 71.317 219.442Z" fill="#C4A767" fill-opacity="0.03"/>
<path d="M70.1777 232.99C70.062 233.515 69.9373 233.956 69.8127 234.397C69.9373 233.956 70.0531 233.43 70.1777 232.99Z" fill="#C4A767" fill-opacity="0.03"/>
<path d="M70.302 232.549C70.2352 232.727 70.2445 232.812 70.1777 232.99C70.1599 232.821 70.2263 232.642 70.302 232.549Z" fill="#C4A767" fill-opacity="0.03"/>
<path d="M62.1679 227.59C62.2258 227.327 62.2836 227.064 62.3415 226.802C62.2925 227.149 62.2347 227.412 62.1679 227.59Z" fill="#C4A767" fill-opacity="0.03"/>
<path d="M61.6607 229.268C61.7186 229.005 61.8611 228.734 61.91 228.387C61.8432 228.565 61.7765 228.743 61.7943 228.912L61.6607 229.268Z" fill="#C4A767" fill-opacity="0.03"/>
<path d="M62.5419 226.267C62.4751 226.445 62.4083 226.623 62.4261 226.793C62.484 226.53 62.5508 226.352 62.6087 226.089C62.533 226.183 62.5419 226.267 62.5419 226.267Z" fill="#C4A767" fill-opacity="0.03"/>
<path d="M61.91 228.387C61.9679 228.124 62.11 227.852 62.1679 227.59C62.11 227.852 62.0525 228.115 61.91 228.387Z" fill="#C4A767" fill-opacity="0.03"/>
<path d="M63.1517 216.624C63.0047 214.416 62.9334 212.114 62.6084 209.839C62.2833 207.564 61.8647 205.214 61.3616 202.872C60.7739 200.539 60.1862 198.206 59.4203 195.806C58.5788 193.5 57.7284 191.11 56.7178 188.821C55.6225 186.542 54.5273 184.262 53.2539 181.916C51.9806 179.57 50.6226 177.233 49.2558 174.811C42.1945 162.982 35.5251 153.25 30.7657 146.225C26.0152 139.284 23.0055 135.068 23.0055 135.068C23.0055 135.068 23.8559 135.834 25.2939 137.307C26.7409 138.866 28.9358 141.029 31.4825 144.097C36.6514 150.138 43.7482 159.055 50.5602 171.766C51.9448 174.357 53.236 176.872 54.349 179.321C55.5467 181.76 56.5841 184.302 57.6126 186.76C59.5939 191.768 60.9073 196.933 61.8558 201.879C62.7196 206.834 63.2272 211.656 63.2763 216.183C63.3387 218.401 63.1562 220.729 62.947 222.804C62.8001 223.845 62.6532 224.887 62.5063 225.929C62.5153 226.014 62.4396 226.107 62.4485 226.192C62.6043 225.234 62.7512 224.193 62.8981 223.151C63.1073 221.076 63.2897 218.748 63.1517 216.624Z" fill="#C4A767" fill-opacity="0.03"/>
<path d="M39.5479 260.504C40.2202 259.578 40.8924 258.652 41.5647 257.726C40.8256 258.83 40.0866 259.934 39.3298 260.869L39.5479 260.504Z" fill="#C4A767" fill-opacity="0.03"/>
<path d="M45.3928 229.099C45.5797 227.626 45.5975 226.17 45.6909 224.62C45.7844 223.071 45.8779 221.522 45.7932 219.906C45.9622 213.388 45.0227 206.901 43.8784 200.094C41.799 189.28 38.7937 181.044 36.0599 174.575C35.3832 173.021 34.6218 171.477 34.0475 170.083C33.3886 168.699 32.7385 167.399 32.0974 166.183C30.8241 163.837 29.6709 161.82 28.5623 160.226L28.4599 160.066C30.5169 163.356 33.3663 167.675 36.4784 173.676C39.5905 179.677 43.2192 187.335 45.9574 197.908C47.5915 204.493 48.5577 211.233 48.4154 218.005C48.4334 224.674 47.4764 231.018 45.9317 236.654C45.482 238.07 45.0235 239.401 44.6407 240.639C44.2578 241.877 43.7904 243.123 43.3051 244.201C42.3435 246.44 41.5155 248.323 40.6518 249.868C38.9245 252.958 37.9006 254.605 37.9006 254.605C37.9006 254.605 38.5862 252.993 39.984 250.024C40.6874 248.581 41.2617 246.725 41.9784 244.597C42.7797 242.46 43.3006 240.096 43.9639 237.46C44.1464 236.757 44.3378 236.138 44.4357 235.443C44.5337 234.749 44.6316 234.054 44.8141 233.351C45.0189 232.046 45.2058 230.573 45.3928 229.099Z" fill="#C4A767" fill-opacity="0.03"/>
<path d="M34.3819 187.068C33.9678 185.572 33.6651 184.321 33.3712 183.154C33.0773 181.988 32.7167 181 32.5519 180.247C32.129 178.667 31.8618 177.754 31.8618 177.754C31.8618 177.754 32.2714 178.395 33.006 179.686C33.7407 180.977 34.8003 182.918 35.8466 185.545C38.1084 190.781 40.9 198.612 41.7016 209.475C42.3652 218.214 41.5106 226.344 39.77 233.369C37.9448 240.403 35.207 246.08 32.8252 250.265L32.6739 250.452C33.8224 248.364 35.1892 245.91 36.173 243.07C36.7072 241.645 37.2414 240.221 37.6732 238.636C38.105 237.051 38.4523 235.475 38.8752 233.805C40.1349 227.087 40.433 219.358 39.4089 211.256C38.0018 201.141 35.9447 192.976 34.3819 187.068Z" fill="#C4A767" fill-opacity="0.03"/>
<path d="M33.7368 202.873C33.572 200.495 33.2826 198.558 33.149 197.29C33.0065 195.936 32.9353 195.26 32.9353 195.26C32.9353 195.26 34.0127 197.37 35.3217 201.679C36.4526 205.922 37.8329 212.533 36.8626 221.188C36.6178 222.924 36.4576 224.652 36.1103 226.228C35.772 227.889 35.4248 229.465 34.9841 230.965C34.5434 232.465 34.0181 233.974 33.5595 235.306C33.1099 236.721 32.5668 238.062 32.0148 239.317C31.3782 240.581 30.9018 241.743 30.2563 242.923C29.6019 244.018 29.0231 245.02 28.4444 246.022C27.3715 248.016 26.0849 249.606 25.1188 250.99L25.0432 251.084C26.0092 249.699 27.2023 248.034 28.1906 246.049C28.6848 245.056 29.2635 244.054 29.7488 242.977C30.3186 241.89 30.7014 240.653 31.1778 239.491C32.1216 237.082 32.6914 234.371 33.4125 231.472C33.8799 228.601 34.3206 225.476 34.414 222.301C34.6765 214.234 34.2356 207.609 33.7368 202.873Z" fill="#C4A767" fill-opacity="0.03"/>
<path d="M7.92458 237.149C8.00026 237.056 8.07581 236.962 8.15149 236.869C8.07581 236.962 8.08485 237.047 7.92458 237.149Z" fill="#C4A767" fill-opacity="0.03"/>
<path d="M28.1045 185.933C29.0483 183.524 29.7829 181.565 30.2414 180.234C30.7845 178.894 31.0516 178.181 31.0516 178.181C31.0516 178.181 30.9715 179.045 30.7089 180.612C30.5308 182.171 30.0857 184.441 29.5248 187.237C28.3095 192.753 26.0302 200.348 21.6051 207.058C18.1638 212.552 14.3885 215.686 11.5927 218.375C10.0924 219.559 9.05954 221.122 7.87977 222.102C7.43458 222.747 6.98049 223.308 6.51749 223.784C6.05449 224.261 5.59148 224.737 5.28875 225.111L5.21307 225.205C5.60039 224.822 5.97881 224.354 6.4329 223.793C6.88699 223.232 7.24759 222.596 7.69278 221.95C8.13797 221.305 8.76124 220.726 9.27321 219.902C9.78517 219.079 10.3995 218.415 11.1653 217.565C13.8142 214.292 17.1709 210.432 20.0601 204.569C23.6884 197.601 26.3951 190.816 28.1045 185.933Z" fill="#C4A767" fill-opacity="0.03"/>
<path d="M16.4449 194.601C19.9751 185.078 22.6639 176.499 24.596 170.48C26.528 164.46 27.6944 160.917 27.6944 160.917C27.6944 160.917 27.5475 161.958 27.4051 163.855C27.178 165.76 26.7774 168.454 26.1008 171.775C24.8321 178.409 22.544 187.544 18.2658 196.462C14.8334 203.665 11.3654 208.906 8.26244 212.739C5.15945 216.572 2.48828 218.82 0.890038 220.699L0.814362 220.793C2.41261 218.914 4.88788 216.43 7.69257 212.2C10.5151 208.14 13.5735 202.259 16.4449 194.601Z" fill="#C4A767" fill-opacity="0.03"/>
<path d="M23.1086 159.603C21.6663 167.025 18.9775 177.229 14.5035 187.536C10.9242 195.781 7.21583 201.987 4.02383 206.6C0.916405 211.203 -1.86161 214.061 -2.97456 216.488L-3.05024 216.581C-1.92838 214.239 0.662636 211.23 3.46285 206.145C6.27197 201.146 9.49509 194.392 12.589 185.599C16.4086 174.763 19.3957 164.955 21.5949 158.223C23.7005 151.416 25.1607 147.414 25.1607 147.414C25.1607 147.414 25.0316 148.624 24.7378 150.708C24.3595 152.801 23.8342 155.935 23.1086 159.603Z" fill="#C4A767" fill-opacity="0.03"/>
<path d="M-5.37859 208.274C-5.51214 208.63 -5.6546 208.902 -5.70357 209.249C-5.57001 208.893 -5.52105 208.545 -5.37859 208.274Z" fill="#C4A767" fill-opacity="0.03"/>
<path d="M-5.31213 208.096C-5.31213 208.096 -5.30322 208.18 -5.38781 208.189C-5.30322 208.18 -5.30322 208.18 -5.31213 208.096Z" fill="#C4A767" fill-opacity="0.03"/>
<path d="M-5.8952 209.868C-5.82842 209.69 -5.77056 209.427 -5.71268 209.164C-5.77056 209.427 -5.91302 209.698 -5.97089 209.961L-5.8952 209.868Z" fill="#C4A767" fill-opacity="0.03"/>
<path d="M-10.9793 207.067C-10.9882 206.983 -10.9971 206.898 -10.9971 206.898C-10.9882 206.983 -11.055 207.161 -11.0461 207.246L-10.9793 207.067Z" fill="#C4A767" fill-opacity="0.03"/>
<path d="M-10.9438 205.781C-10.9928 206.128 -11.0327 206.56 -10.9971 206.898C-10.9571 206.466 -10.9928 206.128 -10.9438 205.781Z" fill="#C4A767" fill-opacity="0.03"/>
<path d="M-14.7906 203.363C-14.7817 203.448 -14.7817 203.448 -14.8573 203.542L-14.7906 203.363Z" fill="#C4A767" fill-opacity="0.03"/>
<path d="M-20.3247 193.854C-20.3069 194.023 -20.3826 194.117 -20.3648 194.286C-20.3826 194.117 -20.4004 193.947 -20.3247 193.854Z" fill="#C4A767" fill-opacity="0.03"/>
<path d="M-20.3604 193.516L-20.3693 193.431C-20.3515 193.6 -20.4271 193.694 -20.4093 193.863C-20.3425 193.685 -20.3515 193.6 -20.3604 193.516Z" fill="#C4A767" fill-opacity="0.03"/>
<path d="M-20.3201 193.084C-20.3112 193.168 -20.3869 193.262 -20.378 193.346C-20.2934 193.338 -20.3023 193.253 -20.3201 193.084Z" fill="#C4A767" fill-opacity="0.03"/>
<path d="M-20.2847 195.047C-20.2936 194.962 -20.2939 194.963 -20.3028 194.878C-20.2939 194.963 -20.2758 195.132 -20.2669 195.216L-20.2847 195.047Z" fill="#C4A767" fill-opacity="0.03"/>
<path d="M-15.4513 130.479C-14.9883 128.378 -14.3562 126.258 -13.6305 124.215C-12.9628 122.434 -12.3885 120.578 -11.7118 118.881C-10.452 115.413 -9.36131 111.963 -8.24392 108.766C-6.19614 102.222 -4.32197 96.465 -2.86627 91.6078C-1.32598 86.7417 -0.195251 82.8595 0.646118 80.2906C1.47858 77.6372 1.92822 76.2214 1.92822 76.2214C1.92822 76.2214 1.76798 77.9488 1.3184 80.9895C0.953407 84.0214 0.21447 88.3755 -0.764847 93.6958C-1.82876 99.0249 -3.22655 105.244 -5.25652 111.958C-6.17801 115.391 -7.36217 118.765 -8.6977 122.327C-9.36546 124.108 -10.0332 125.889 -10.7856 127.678C-11.1195 128.569 -11.4712 129.29 -11.7204 130.172C-12.0454 131.147 -12.2947 132.028 -12.6197 133.003C-14.5161 139.361 -16.0074 145.505 -17.4853 150.963C-18.9544 156.506 -20.4012 161.448 -21.6387 165.94C-22.9698 170.356 -24.1005 174.238 -25.022 177.671C-25.9524 181.019 -26.8427 183.935 -26.8293 186.499L-26.8872 186.762C-26.9006 184.198 -26.0949 181.29 -25.3515 177.791C-24.5413 174.114 -23.5975 170.08 -22.5291 165.606C-21.5632 160.971 -20.4058 155.718 -19.3107 149.872C-18.0643 143.84 -16.947 137.393 -15.4513 130.479Z" fill="#C4A767" fill-opacity="0.03"/>
<path d="M-38.5967 155.153C-38.6056 155.068 -38.53 154.975 -38.5478 154.806L-38.5389 154.89L-38.5967 155.153Z" fill="#C4A767" fill-opacity="0.03"/>
<path d="M-37.9201 150.207C-38.0804 151.934 -38.2584 153.492 -38.5389 154.89C-38.3519 153.416 -38.1739 151.858 -37.9201 150.207Z" fill="#C4A767" fill-opacity="0.03"/>
<path d="M-36.6365 29.9923C-31.8417 29.2309 -27.679 28.9636 -24.1085 28.7588C-17.052 28.3579 -12.6756 28.4958 -12.6756 28.4958C-12.6756 28.4958 -16.6023 30.1921 -23.2936 32.4361C-26.597 33.5537 -30.7463 34.7603 -35.3185 36.0114C-37.2195 36.6392 -39.3431 38.4023 -41.44 40.4191C-43.5458 42.3513 -45.5981 44.7911 -47.7261 47.3244C-50.9716 51.4293 -53.6738 55.819 -56.02 60.3424C-57.1507 62.5996 -58.1969 64.8479 -59.1585 67.0873C-60.0355 69.3178 -60.7433 71.5305 -61.4511 73.7432C-62.7822 78.1596 -63.6992 82.447 -64.2868 86.6141C-64.3179 87.1306 -64.4337 87.6559 -64.4648 88.1723C-64.4871 88.7734 -64.6384 88.9604 -64.7631 89.4011C-64.9456 90.1045 -65.1281 90.808 -65.3106 91.5114C-65.6757 92.9182 -65.8804 94.2227 -66.0941 95.4426L-66.152 95.7052C-65.9383 94.4854 -65.7335 93.1809 -65.462 91.6984C-65.2795 90.9949 -65.1815 90.3004 -65.0079 89.5124L-64.8922 88.9871C-64.8254 88.809 -64.7586 88.6309 -64.7943 88.2925C-64.7631 87.7761 -64.7409 87.1751 -64.6251 86.6497C-64.2335 82.2466 -63.6236 77.4785 -62.5998 72.5812C-62.3861 71.3614 -62.0879 70.1326 -61.7896 68.9038C-61.4914 67.675 -61.1174 66.3528 -60.65 65.1062C-59.8932 62.5462 -58.9672 59.9685 -57.9567 57.3818C-56.9461 54.7951 -55.8421 52.2842 -54.5689 49.7554C-53.211 47.2177 -51.6841 44.6622 -50.0636 42.1823C-47.9801 39.2261 -45.9456 36.6172 -43.773 34.5068C-41.5159 32.3876 -39.3077 30.6156 -36.6365 29.9923Z" fill="#C4A767" fill-opacity="0.03"/>
<path d="M-48.7062 21.7697C-39.13 17.6825 -30.0077 19.0312 -23.6279 20.3266C-17.2302 21.7912 -13.4371 23.701 -13.4371 23.701C-13.4371 23.701 -17.2035 23.6699 -23.3295 23.9728C-29.4466 24.3603 -38.0168 25.0061 -47.5085 27.4594C-51.3283 28.5458 -54.7653 30.0195 -57.9128 31.8048C-60.9669 33.6659 -63.7315 35.8385 -65.8596 38.3718C-67.0304 39.4359 -67.9876 40.9051 -68.878 42.1962C-69.7594 43.5719 -70.6498 44.863 -71.3799 46.0517C-72.6932 49.0124 -73.864 51.7014 -74.8078 54.11L-74.8746 54.2881C-73.9308 51.8795 -72.8535 49.1148 -71.6604 45.8247C-70.957 44.3822 -70.169 42.9308 -69.3989 41.3102C-68.5352 39.7654 -67.7829 37.9756 -66.6387 36.6578C-65.597 35.1797 -64.3861 33.6837 -63.0994 32.0943C-61.7861 30.7587 -60.3882 29.4141 -58.9057 28.0607C-55.9986 25.6164 -52.5483 23.4571 -48.7062 21.7697Z" fill="#C4A767" fill-opacity="0.03"/>
<path d="M-14.4036 5.58562C-14.4036 5.58562 -17.7871 5.94187 -23.4813 6.28482C-29.1755 6.62777 -37.02 6.85501 -46.0843 6.8686C-53.4391 6.87323 -59.672 7.78605 -64.6983 9.59816C-69.7246 11.4103 -73.3796 14.8741 -75.8994 18.5604L-76.0508 18.7474C-73.5132 15.2302 -70.1342 10.7692 -65.148 7.76392C-60.0104 4.57168 -53.7598 2.20303 -46.3605 0.996346C-37.1938 -0.481956 -29.0598 1.22743 -23.4413 2.60297C-17.7293 4.0542 -14.4036 5.58562 -14.4036 5.58562Z" fill="#C4A767" fill-opacity="0.03"/>
</svg>
