<svg width="675" height="269" viewBox="0 0 675 269" fill="none" xmlns="http://www.w3.org/2000/svg">
<path d="M354.864 -182.405C349.864 -182.797 345.081 -183.077 340.73 -183.134C345.185 -182.749 349.752 -182.581 354.864 -182.405Z" fill="#163127" fill-opacity="0.3"/>
<path d="M340.186 -183.141C340.402 -183.03 340.729 -183.134 340.946 -183.022L340.186 -183.141Z" fill="#163127" fill-opacity="0.3"/>
<path d="M244.535 -132.065C250.302 -132.099 257.044 -131.901 264.115 -131.808C292.934 -130.886 330.398 -125.499 368.871 -114.114C400.087 -105.11 423.666 -94.5733 442.037 -85.0845C458.88 -75.2894 472.266 -67.2804 481.643 -60.5207L482.075 -60.2975C472.698 -67.0571 460.631 -76.028 445.329 -87.2173C441.557 -89.9867 437.242 -92.7632 432.494 -95.763C427.746 -98.7628 422.671 -101.658 417.052 -104.561C405.925 -110.582 393.166 -116.624 378.552 -122.256C342.074 -136.443 300.893 -140.465 269.207 -138.487C261.146 -137.722 253.741 -137.167 247.423 -136.597C240.882 -135.595 234.99 -134.258 230.192 -133.45C225.611 -132.531 221.901 -131.71 219.39 -131.09C216.88 -130.47 215.68 -130.268 215.68 -130.268C215.68 -130.268 220.583 -130.748 228.964 -131.073C233.211 -131.344 238.657 -131.816 244.535 -132.065Z" fill="#163127" fill-opacity="0.3"/>
<path d="M159.655 -89.1169L158.776 -88.4757C159.215 -88.7963 159.655 -89.1169 160.199 -89.1098C159.983 -89.2214 159.983 -89.2214 159.655 -89.1169Z" fill="#163127" fill-opacity="0.3"/>
<path d="M174.404 -93.819C179.752 -95.1631 185.31 -95.8517 191.307 -96.861C203.078 -98.4473 215.825 -99.8031 229.645 -100.057C236.723 -100.508 243.794 -100.415 251.192 -100.427C258.59 -100.439 266.421 -100.227 274.251 -100.016C290.017 -99.2647 306.201 -97.2027 322.363 -93.5091C362.28 -84.3904 393.125 -72.0179 415.094 -63.1347C436.951 -54.0353 449.382 -47.8884 449.382 -47.8884C449.382 -47.8884 447.235 -50.0925 442.823 -53.7407C438.41 -57.3889 431.515 -62.5928 422.236 -68.4808C403.35 -80.1523 374.277 -94.895 330.747 -102.32C313.267 -105.052 295.765 -106.152 279.009 -106.046C262.029 -105.507 246.682 -104.947 232.191 -103.396C217.813 -102.062 204.515 -100.169 192.521 -98.1507C182.918 -95.9919 174.195 -94.4745 166.217 -91.7505L166.544 -91.855C169.055 -92.4748 171.565 -93.0946 174.404 -93.819Z" fill="#163127" fill-opacity="0.3"/>
<path d="M60.3557 16.2004C61.3462 15.3431 62.225 14.7018 63.3199 14.1722C62.225 14.7018 61.2345 15.5592 60.3557 16.2004Z" fill="#163127" fill-opacity="0.3"/>
<path d="M60.3557 16.2004C59.8047 16.7372 59.3653 17.0578 58.8143 17.5946C59.2537 17.274 59.8047 16.7372 60.3557 16.2004Z" fill="#163127" fill-opacity="0.3"/>
<path d="M63.3199 14.1722C63.4315 13.9561 63.7597 13.8515 63.8713 13.6353C63.5435 13.7398 63.4315 13.9561 63.3199 14.1722Z" fill="#163127" fill-opacity="0.3"/>
<path d="M56.3938 19.6299C57.0565 18.877 57.9355 18.2358 58.8143 17.5946C58.3749 17.9152 57.8237 18.4519 57.3843 18.7725L56.3938 19.6299Z" fill="#163127" fill-opacity="0.3"/>
<path d="M47.3278 47.2542C48.095 46.8291 48.646 46.2924 49.5248 45.6511C48.646 46.2924 47.4395 47.0381 46.5607 47.6794L47.3278 47.2542Z" fill="#163127" fill-opacity="0.3"/>
<path d="M0.306641 123.447C0.864805 122.367 1.53461 121.07 2.09277 119.989C1.64624 120.854 1.31134 121.502 0.864805 122.367L0.306641 123.447Z" fill="#163127" fill-opacity="0.3"/>
<path d="M3.20987 117.828C2.87497 118.476 2.54006 119.125 2.20516 119.773C2.54006 119.125 2.76334 118.692 3.20987 117.828Z" fill="#163127" fill-opacity="0.3"/>
<path d="M28.8368 88.354C34.556 83.6421 40.7147 78.6094 47.2984 74.344C53.7706 70.2946 60.5776 65.5969 67.5865 62.0986C95.9641 46.9131 128.531 35.8081 165.406 28.0236C188.537 22.9961 208.92 20.1085 227.776 17.5272C246.408 15.3782 262.746 13.9607 276.469 12.8353C299.446 11.2873 315.017 10.2948 319.263 10.0242C317.841 10.6583 316.634 11.404 315.211 12.0381L315.323 11.822C315.323 11.822 315.323 11.822 315.211 12.0381C300.538 19.2437 286.193 26.3448 272.168 33.8853C262.634 39.0912 253.428 44.1926 244.222 49.294C239.327 49.2298 228.882 49.3103 213.408 51.1744C202.621 52.4471 189.099 54.772 173.27 58.9161C157.656 63.1719 139.95 69.3585 120.562 79.3309C104.794 87.0661 90.4124 96.8867 77.4396 107.161C71.0576 112.626 64.7874 117.874 58.9422 123.89C52.9926 129.578 47.7958 135.929 42.599 142.28C24.7903 164.567 13.6815 190.315 8.38223 212.766C13.786 190.643 25.3128 166.206 42.6678 145.327C62.6735 121.437 88.9398 101.328 119.367 87.475C137.981 78.4716 155.359 72.3894 170.652 67.6943C174.585 66.4404 178.191 65.2909 182.012 64.2531C185.506 63.3198 189 62.3864 192.493 61.4531C199.153 59.691 205.373 58.2495 211.266 56.9125C222.507 54.2313 231.558 52.6093 237.667 51.3839C239.522 50.9731 241.265 50.7784 242.465 50.5765C233.803 55.6851 225.252 60.5775 217.134 65.6932C208.361 71.0179 200.347 76.4613 192.445 81.6887C188.602 84.3581 184.543 86.916 180.7 89.5854C176.858 92.2549 173.231 95.036 169.716 97.601C162.685 102.731 156.199 107.868 150.145 113.228C150.145 113.228 150.145 113.228 150.033 113.445C143.651 118.909 137.597 124.27 132.198 129.421C121.513 139.508 112.466 149.072 105.609 157.577C104.172 159.299 102.847 160.805 101.626 162.638C101.187 162.959 101.075 163.175 100.635 163.495C98.8708 165.322 96.1156 168.006 92.8023 171.77C89.489 175.534 86.1615 180.387 82.3874 186.103C80.6084 189.017 78.8223 192.475 77.0361 195.933C75.25 199.392 74.0006 203.401 72.4235 207.514C71.0768 210.652 70.3784 214.124 69.4639 217.485C68.6611 220.629 67.8583 223.774 67.3832 226.814C66.6491 233.006 65.3783 238.646 65.2025 243.757C64.1952 254.189 65.1759 262.361 64.7696 268.449L64.8741 268.776C65.0643 262.577 65.0597 254.635 67.036 244.978C68.58 235.098 72.2093 223.831 77.4846 211.497C83.995 196.242 91.3343 184.153 95.9112 175.292C98.4716 170.865 100.474 167.519 101.813 164.925C103.041 162.548 104.039 161.147 104.039 161.147C104.039 161.147 103.488 161.683 102.609 162.325C103.607 160.923 104.82 159.634 106.146 158.128C109.906 153.499 114.433 148.445 119.287 143.287C118.952 143.935 118.29 144.688 117.627 145.441C116.071 147.923 113.525 151.262 111.069 156.017C105.837 165.087 100.115 178.285 97.0841 193.694C96.0223 199.99 95.0792 205.527 94.7917 210.854C94.5399 213.462 94.3997 215.853 94.1479 218.461C94.0077 220.853 94.1953 223.14 94.1668 225.316C93.8935 229.555 94.2758 233.586 94.1213 237.065C94.0999 238.697 93.9669 240.545 93.7293 242.065C93.6034 243.369 93.3659 244.889 92.9193 245.753C93.3659 244.889 93.4918 243.585 93.6177 242.281C93.8552 240.761 94.2044 239.025 94.3374 237.177C94.8197 233.593 94.9813 229.569 95.91 225.121C96.2663 222.841 96.6227 220.561 97.0906 218.065C97.5585 215.569 98.2426 213.184 98.8222 210.472C99.4018 207.759 99.9813 205.047 101 202.014C101.908 199.197 102.494 195.941 103.729 193.02C108.608 177.744 113.451 165.187 116.18 156.193C118.777 149.046 120.04 143.949 120.494 142.541C124.463 138.567 128.543 134.378 133.167 130.195C138.015 125.581 143.518 120.757 149.237 116.045C148.686 116.582 148.24 117.447 147.466 118.416C145.143 121.323 142.038 125.742 138.376 131.243C131.267 142.356 122.135 158.447 116.774 177.307C112.223 192.479 110.42 205.51 109.629 216.053C108.754 224.637 108.878 231.819 108.367 237.579C109.094 231.931 109.73 224.867 111.588 215.97C113.579 205.226 117.125 191.999 123.307 176.849C131.06 158.129 138.338 142.449 143.271 131.307C145.629 125.681 147.646 121.247 148.993 118.109C149.774 116.596 150.116 115.404 150.563 114.539C156.833 109.291 163.759 103.833 170.901 98.4869C174.416 95.922 178.259 93.2525 181.886 90.4714C185.728 87.8019 189.46 85.3485 193.63 82.5746C201.532 77.3472 209.874 71.7993 218.32 66.5791C227.533 60.9338 236.962 55.4001 246.823 50.0898C247.695 49.9924 248.022 49.8879 248.022 49.8879C248.022 49.8879 247.695 49.9924 247.262 49.7691C255.701 45.0928 264.468 40.312 273.234 35.5312C275.535 34.2559 278.165 32.876 280.682 31.7123C279.134 33.6503 270.959 43.1171 259.553 58.3077C246.927 75.3319 230.721 99.816 217.185 128.143C206.224 150.955 199.336 170.122 194.673 185.51C192.398 193.096 190.569 199.817 188.97 205.562C188.516 206.971 188.063 208.379 187.721 209.571C187.379 210.764 187.037 211.956 186.695 213.148C186.471 213.58 186.353 214.34 186.129 214.773C186.353 214.34 186.576 213.908 186.799 213.476C187.699 211.203 188.495 208.602 189.618 205.897C191.433 200.263 193.806 193.549 196.953 185.866C202.92 170.604 211.879 151.138 224.688 128.459C240.616 100.272 255.294 76.0945 265.424 58.6024C274.661 42.8393 280.229 33.1207 281.122 31.3917C291.855 25.9839 302.916 20.4717 313.976 14.9594C310.76 19.5955 304.321 29.4114 295.761 43.3338C292.866 48.4093 289.643 53.5892 286.301 59.5291C282.959 65.4691 279.506 71.6252 275.501 78.318C273.715 81.776 271.608 84.7947 269.606 88.1411C267.276 91.592 264.723 95.4752 262.497 99.2538C260.272 103.033 258.046 106.811 255.821 110.59C253.811 114.48 251.474 118.475 249.353 122.581C235.413 148.51 225.442 170.464 217.927 187.664C211.312 202.592 206.372 214.277 201.064 220.844C206.588 214.388 212.065 203.254 219.656 188.557C228.587 171.267 240.517 149.229 256.633 123.33C261.419 115.124 266.414 107.574 271.081 100.128C273.522 96.4611 275.852 93.0101 277.966 89.4476C280.192 85.6689 282.633 82.0019 284.42 78.5439C291.78 64.8233 297.265 53.1452 302.072 43.3078C306.663 33.3588 310.138 25.5711 312.601 20.2724C313.613 17.7834 314.618 15.8382 315.071 14.4298C321.313 11.3566 327.771 8.39508 334.013 5.32188C341.893 1.72623 350.101 -1.97392 357.982 -5.56958C356.657 -4.06383 354.341 -1.7007 351.251 1.63144C345.957 7.11057 338.556 15.6084 329.822 26.1558C325.4 31.5376 320.97 37.4633 316.317 43.8212C314.099 47.056 311.769 50.5069 309.439 53.9578C307.325 57.5203 305.211 61.0829 302.986 64.8616C298.646 72.2028 294.411 79.8717 289.953 87.973C285.607 95.8581 280.493 104.168 275.156 112.911C258.468 140.979 244.229 164.836 234.406 183.855C224.366 202.763 218.413 216.937 211.898 224.25C218.197 216.825 224.902 203.314 236.567 184.972C247.911 166.19 264.213 142.577 283.948 114.44C289.829 105.705 295.815 97.2975 300.608 88.5479C305.178 80.2306 309.524 72.3455 313.752 65.2204C315.65 61.5463 317.764 57.9837 319.55 54.5257C321.552 51.1793 323.554 47.8329 325.661 44.8142C329.442 38.5536 333.112 32.5092 336.879 27.3364C348.424 9.75409 356.084 -1.8954 358.526 -5.56244C360.716 -6.62166 363.122 -7.56926 365.311 -8.62848C375.926 -13.2762 386.54 -17.924 397.37 -22.4601C398.137 -22.8852 399.121 -23.1987 399.888 -23.6238C398.563 -22.118 396.247 -19.7549 393.373 -16.3112C388.072 -10.2881 380.559 -1.5742 372.035 9.62875C363.294 20.7201 352.998 34.2933 342.68 49.4982C337.574 57.2645 332.356 65.247 327.13 73.7733C322.017 82.0836 316.136 90.8189 310.032 99.9865C290.715 129.434 275.15 154.797 264.113 175.106C258.762 184.936 254.185 193.798 249.727 201.899C247.717 205.789 245.715 209.136 243.824 212.266C242.827 213.667 241.941 214.852 240.943 216.254C241.829 215.068 242.604 214.099 243.489 212.914C245.38 209.784 247.598 206.549 249.824 202.771C254.275 195.213 259.612 186.471 265.947 176.327C278.832 156.151 296.348 131.249 318.713 101.732C325.361 92.5719 332.113 83.7392 337.666 75.1084C342.891 66.582 348.221 58.3835 353.216 50.8333C363.213 35.189 372.094 21.7059 379.203 10.5932C390.428 -7.4285 398.095 -19.6219 400.543 -23.8328C410.279 -27.8393 419.903 -31.6297 429.638 -35.6362C436.64 -38.5906 443.53 -41.3289 450.525 -43.7394C446.869 -38.7827 439.105 -27.461 429.324 -11.705C422.543 -0.696808 414.862 12.5844 407.375 27.6088C403.468 35.1733 399.665 43.0655 395.967 51.2855C394.062 55.5036 392.269 59.5055 389.82 63.7164C387.372 67.9274 385.139 72.2499 382.578 76.6769C366.316 105.512 352.502 130.137 341.36 150.118C335.897 160.164 330.665 169.234 325.99 177.224C321.1 185.102 316.984 192.011 311.481 196.834L310.93 197.371C316.649 192.659 320.765 185.75 326.415 177.991C331.634 170.009 337.41 160.945 343.849 151.129C356.95 131.065 373.156 106.581 392.466 77.6771C395.354 73.1455 398.131 68.8301 400.907 64.5147C403.684 60.1993 406.028 55.6606 407.933 51.4425C411.959 43.118 415.545 35.1142 419.125 27.6542C426.067 12.6226 432.333 -0.568329 437.266 -11.7096C442.416 -22.7393 446.121 -31.5032 448.703 -37.5619C449.938 -40.4832 450.838 -42.7561 451.62 -44.269C455.009 -45.5301 458.398 -46.7912 461.683 -48.38C464.089 -49.3276 466.279 -50.3868 468.685 -51.3344C468.231 -49.926 467.107 -47.2208 465.203 -43.0028C462.621 -36.9441 458.811 -28.5079 454.101 -17.7989C444.904 3.18692 431.898 32.6089 416.421 67.8734C394.79 116.113 371.803 151.605 353.772 174.325C356.311 171.529 358.745 168.406 361.507 165.178C367.046 157.635 374.551 149.465 381.207 139.761C395.493 120.583 411.148 96.6353 426.859 68.3368C446.032 33.3383 456.981 3.12784 462.482 -18.1241C465.233 -28.75 467.195 -37.3192 468.034 -43.1832C468.635 -47.5272 468.886 -50.135 469.012 -51.4389C476.342 -54.4978 483.344 -57.4522 490.569 -60.8389C490.003 -59.2144 489.215 -57.1576 488.307 -54.3408C486.165 -48.6027 482.899 -40.1594 479.172 -29.7639C477.037 -24.5696 474.783 -18.6154 472.417 -12.4451C470.052 -6.27472 467.79 0.223389 465.634 7.04926C460.992 20.8055 456.114 36.0818 451.221 52.4458C449.176 59.0556 446.81 65.2259 444.988 71.4034C442.622 77.5737 440.368 83.528 438.01 89.1544C433.509 100.519 428.806 110.684 424.222 120.089C414.733 138.46 404.304 153.881 392.112 162.642L391.561 163.179C403.753 154.418 415.263 139.555 427.039 120.997C432.927 111.717 438.724 101.023 444.857 89.6795C447.871 83.844 450.885 78.0086 453.906 71.6292C456.6 65.3544 459.733 58.7589 462.649 52.0518C469.397 35.2769 474.492 20.1123 478.373 6.23729C483.35 -8.16733 486.345 -20.8572 488.328 -31.0581C490.312 -41.2589 491.179 -49.2984 491.578 -54.8418C491.83 -57.4496 491.858 -59.6252 491.88 -61.2569C492.319 -61.5775 492.863 -61.5704 493.302 -61.891C499 -64.9713 504.586 -67.8355 510.173 -70.6997C510.047 -69.3958 509.809 -67.8757 509.676 -66.0279C508.949 -60.3801 507.754 -52.236 505.987 -41.9235C504.108 -31.3949 501.559 -19.5696 497.678 -5.69456C495.738 1.24294 493.574 8.61267 490.971 16.3031C489.721 20.3121 488.256 24.2096 487.006 28.2187C485.757 32.2277 484.947 35.9162 483.698 39.9253C476.619 65.2907 468.168 87.4831 458.359 105.415C448.438 123.562 436.719 137.77 425.608 147.089L425.057 147.626C435.952 138.195 448.967 124.657 460.96 106.21C467.064 97.0427 472.854 86.8918 478.548 75.8693C481.45 70.25 484.136 64.519 486.83 58.2442C488.177 55.1068 489.412 52.1855 490.87 48.8319C491.651 47.319 492.001 45.5829 492.894 43.8539C493.787 42.1248 494.68 40.3958 495.573 38.6667C504.183 20.9371 509.069 5.11697 511.751 -8.55618C514.328 -22.5571 514.708 -34.9549 514.509 -44.6404C514.093 -54.4376 512.994 -61.8501 512.082 -66.9755C511.671 -68.8305 511.365 -70.3576 511.163 -71.557C514.887 -73.4665 518.395 -75.4876 521.903 -77.5087C522.67 -77.9338 523.549 -78.575 524.316 -79.0002C524.406 -77.5846 524.706 -75.5136 524.886 -72.6825C525.178 -70.0676 525.463 -66.9087 525.853 -63.4221C526.13 -59.7194 526.296 -55.8005 526.672 -51.2262C527.094 -41.9729 527.168 -30.9835 526.892 -18.258C526.59 -11.8429 526.177 -5.21176 525.644 2.17941C525.378 5.875 524.896 9.45895 524.302 13.259C523.708 17.0591 523.226 20.6431 522.521 24.6593C520.181 37.1402 516.872 48.8467 512.155 60.0997C509.797 65.7261 507.333 71.0248 504.543 76.428C502.631 81.19 501.046 85.8475 499.141 90.0655C491.41 107.154 482.418 120.853 474.019 130.752L473.796 131.184C482.083 121.501 492.379 107.928 502.286 90.8683C503.402 88.7071 504.846 86.4413 505.963 84.28C506.521 83.1994 507.518 81.7981 508.404 80.613C509.402 79.2117 510.288 78.0266 511.069 76.5137C514.732 71.0132 518.178 65.401 521.192 59.5655C527.548 47.7901 532.712 35.6727 536.377 21.686C545.305 -12.0325 540.627 -36.8995 535.521 -54.0475C531.453 -67.3741 526.993 -75.7012 525.181 -78.5536C528.8 -80.7909 532.092 -82.9236 535.712 -85.1608C539.018 -88.3813 543.621 -90.932 547.799 -94.2499C551.865 -97.3516 556.147 -100.342 560.102 -103.227C562.187 -104.614 564.056 -106.113 566.253 -107.716C568.122 -109.215 570.103 -110.929 571.973 -112.428C579.345 -118.75 586.822 -124.745 593.002 -131.409C596.308 -134.63 599.503 -137.634 602.593 -140.966C605.571 -144.082 608.445 -147.526 611.207 -150.753C633.626 -176.135 647.872 -200.536 655.931 -217.729C659.852 -226.381 662.665 -233.416 664.249 -238.074C665.833 -242.731 666.517 -245.116 666.517 -245.116C667.083 -246.74 666.567 -248.923 665.152 -248.833C664.608 -248.84 663.841 -248.415 663.178 -247.662C662.627 -247.125 662.292 -246.477 661.846 -245.612C661.846 -245.612 661.838 -245.068 661.496 -243.876C661.154 -242.684 660.589 -241.059 659.905 -238.675C659.221 -236.29 658.097 -233.585 656.639 -230.231C655.181 -226.878 653.499 -223.092 651.81 -218.762C643.863 -201.786 630.056 -177.705 608.077 -152.644C605.315 -149.416 602.552 -146.189 599.574 -143.073C596.595 -139.957 593.401 -136.952 590.095 -133.732C586.454 -129.863 582.269 -126.001 577.979 -122.467C577.882 -123.339 577.785 -124.211 577.583 -125.41C576.991 -130.096 575.766 -136.205 573.147 -143.855C567.796 -158.939 557.056 -177.902 539.329 -194.998C535.893 -198.416 532.456 -201.833 529.124 -204.923C525.792 -208.013 522.236 -210.671 519.225 -213.322C512.658 -218.63 507.179 -223.924 501.901 -228.019C491.131 -236.32 482.41 -243.289 476.61 -249.022L476.178 -249.246C482.305 -243.617 490.148 -236.007 499.921 -226.304C504.863 -221.561 509.463 -215.626 515.04 -209.46C517.828 -206.377 520.616 -203.294 523.614 -199.556C526.395 -195.929 529.064 -192.086 531.95 -188.132C546.497 -169.119 557.906 -151.453 565.9 -138.836C569.733 -132.476 573.037 -127.21 574.946 -123.486C575.476 -122.391 575.901 -121.624 576.326 -120.857C573.906 -118.822 571.486 -116.786 568.954 -114.535C567.085 -113.036 565.32 -111.21 563.451 -109.711C561.582 -108.213 559.496 -106.826 557.627 -105.327C554.551 -103.083 551.476 -100.838 548.288 -98.3777C548.554 -102.073 548.787 -111.536 545.793 -123.76C543.829 -131.619 540.463 -140.476 535.362 -149.682C530.044 -158.999 522.767 -168.234 513.635 -177.057C498.808 -191.286 484.036 -201.381 472.058 -208.936C465.902 -212.39 460.402 -216.052 455.326 -218.947C450.139 -221.627 445.928 -224.075 442.477 -226.405L442.045 -226.629C445.712 -224.187 449.923 -221.738 454.671 -218.738C459.307 -215.523 464.584 -211.428 470.294 -207.11C481.057 -198.265 493.745 -186.784 505.943 -171.174C521.249 -152.043 531.668 -133.52 538.56 -119.83C543.857 -108.88 546.908 -101.007 547.849 -98.0571C547.082 -97.632 546.419 -96.8791 545.652 -96.454C541.586 -93.3523 537.199 -90.6899 532.7 -87.8115C531.054 -86.7451 529.409 -85.6787 527.546 -84.724C525.157 -93.3503 520.837 -104.069 513.603 -116.567C505.832 -129.616 494.492 -144.234 478.152 -159.245C468.371 -168.404 457.489 -176.488 447.673 -182.927C437.641 -189.478 428.891 -194.271 420.79 -198.729C418.845 -199.734 417.011 -200.955 415.282 -201.848C413.553 -202.741 411.824 -203.634 410.2 -204.199C407.062 -205.546 404.469 -206.886 402.308 -208.002C398.09 -209.907 395.928 -211.023 395.273 -210.814C395.273 -210.814 396.249 -210.584 396.89 -209.705C397.859 -208.931 399.149 -207.717 400.871 -206.28C402.593 -204.843 404.963 -203.071 407.549 -201.188C408.951 -200.19 410.352 -199.193 411.969 -198.084C413.475 -196.758 415.092 -195.649 416.598 -194.324C423.493 -189.12 431.789 -182.918 440.621 -176.166C449.67 -169.302 459.688 -161.663 470.347 -153.146C479.068 -146.177 486.709 -139.767 493.261 -133.371C499.814 -126.975 505.502 -121.025 510.102 -115.09C519.094 -103.874 525.053 -93.678 527.33 -84.8356C524.478 -83.0235 521.953 -81.3159 519.101 -79.5038C517.455 -78.4375 515.704 -77.6989 514.058 -76.6325C513.334 -79.4707 510.401 -88.1041 502.832 -99.9535C498.03 -107.088 491.826 -115.221 483.559 -123.598C479.481 -127.894 474.748 -131.982 469.694 -136.509C467.219 -138.608 464.416 -140.604 461.725 -142.815C458.923 -144.81 456.232 -147.021 453.102 -148.912C448.354 -151.912 443.502 -155.239 438.754 -158.239C434.006 -161.239 429.363 -163.911 425.152 -166.36C420.941 -168.808 416.403 -171.153 412.512 -173.162C411.432 -173.72 410.679 -174.383 409.159 -174.62C407.75 -175.074 406.23 -175.312 405.038 -175.654C402.326 -176.233 399.397 -176.924 396.685 -177.504C391.7 -178.984 385.829 -179.278 380.725 -179.998C375.621 -180.718 370.733 -181.326 366.061 -181.823C362.038 -181.984 358.343 -182.25 354.864 -182.405C366.599 -181.272 379.734 -179.141 393.498 -175.044C398.483 -173.564 403.357 -171.868 408.335 -169.844L412.232 -168.379C413.313 -167.821 414.066 -167.158 415.146 -166.6C416.98 -165.379 419.029 -164.046 420.967 -162.498C428.727 -156.847 437.127 -150.318 445.625 -142.917C448.316 -140.706 450.895 -138.279 453.258 -135.963C455.837 -133.536 458.424 -131.652 460.571 -129.448C465.081 -124.928 469.71 -121.168 473.899 -117.088C482.502 -109.359 489.584 -101.868 495.816 -95.9113C505.694 -85.8812 512.127 -78.725 514.058 -76.6325C512.524 -75.7823 511.101 -75.1481 509.567 -74.2979L509.462 -74.6257L509.351 -74.4095C504.86 -72.075 500.368 -69.7404 495.877 -67.4058C492.768 -70.9281 489.011 -74.7853 484.612 -79.5213C480.214 -84.2572 475.167 -89.3281 469.59 -95.4939C458.103 -107.177 443.603 -121.511 425.631 -136.543C424.879 -137.206 424.342 -137.757 423.477 -138.203L420.995 -139.759C419.378 -140.868 417.433 -141.873 415.704 -142.766C412.03 -144.664 408.572 -146.45 404.897 -148.348C397.654 -151.815 390.075 -154.635 382.928 -157.231C368.196 -162.102 353.658 -165.231 340.515 -166.818C333.995 -167.447 328.131 -168.286 322.804 -168.573C317.365 -168.645 312.47 -168.709 308.551 -168.543C300.825 -168.426 296.362 -168.267 296.362 -168.267C296.362 -168.267 300.162 -167.674 306.675 -166.5C309.931 -165.913 313.947 -165.208 318.724 -164.384C323.172 -163.455 328.269 -162.191 334.014 -160.593C356.57 -154.966 385.372 -144.47 415.205 -129.608C418.231 -128.045 421.04 -126.594 423.85 -125.143C426.548 -123.475 429.685 -122.129 431.623 -120.58C435.932 -117.26 440.352 -114.155 444.339 -111.274C452.419 -105.185 459.85 -99.4296 466.417 -94.1212C479.767 -83.3927 489.45 -75.1059 495.884 -67.9497L496.1 -67.8381C494.238 -66.8833 492.704 -66.0331 490.842 -65.0784C480.988 -60.3119 470.597 -56.0963 460.31 -51.5531C449.591 -47.2331 438.984 -43.1293 428.265 -38.8093C423.781 -37.0186 419.297 -35.2279 414.701 -33.2211C413.516 -34.107 411.362 -35.7672 408.016 -37.7695C402.836 -40.9925 394.846 -45.6668 383.593 -50.384C361.415 -59.9227 326.302 -70.3928 278.134 -72.5481C239.309 -73.7104 203.795 -70.1511 173.147 -64.3519C142.499 -58.5527 116.606 -50.2976 97.2606 -43.5885L96.2773 -43.275C115.95 -50.0886 141.173 -57.0469 170.712 -61.2287C200.251 -65.4105 234.105 -66.8158 270.838 -63.7226C315.826 -59.6507 352.278 -51.7741 376.995 -45.0308C396.943 -39.6555 409.828 -34.917 413.941 -33.3398C407.923 -30.6989 401.8 -28.3858 395.781 -25.7448C388.124 -22.5814 380.683 -19.3064 373.242 -16.0314C370.969 -16.9316 359.179 -22.1997 338.695 -28.126C327.204 -31.3231 312.778 -34.6675 295.514 -37.2876C278.354 -39.5799 257.045 -40.7299 233.078 -38.3246C194.517 -34.6964 160.256 -27.2039 130.758 -17.7993C116.009 -13.097 102.34 -7.83656 90.0798 -2.12245C84.0614 0.518478 78.0357 3.70328 72.554 6.89523C69.4854 8.5957 66.6329 10.4078 63.6688 12.436C66.1935 10.7284 68.9343 9.13245 71.6752 7.53647C77.0453 4.56064 83.0709 1.37581 88.9778 -1.049C101.231 -6.21922 114.453 -10.6151 128.756 -14.4529C157.361 -22.1284 190.61 -27.1319 227.406 -28.9337C250.487 -30.1539 270.06 -29.3531 287.555 -27.7092C305.049 -26.0652 320.361 -23.9059 333.177 -22.2146C345.881 -20.3071 356.089 -18.8676 363.146 -17.687C368.466 -16.8556 372.05 -16.3734 373.242 -16.0314C370.069 -14.6586 367.112 -13.1743 363.939 -11.8016C357.265 -8.95168 350.807 -5.99014 344.349 -3.02859C340.124 -4.3896 328.961 -7.69119 311.048 -10.6462C288.143 -14.5371 254.361 -18.5707 210.234 -13.71C174.824 -9.82286 142.844 -1.974 115.291 8.43524C88.7208 18.531 66.2429 31.8356 48.9949 44.556C66.1313 32.0517 88.1555 20.1555 113.393 12.1094C140.053 3.42921 170.59 -2.15387 204.235 -4.21463C245.934 -6.49609 280.735 -5.49538 305.852 -4.29538C324.665 -3.6133 337.927 -2.78648 343.254 -2.49898C339.642 -0.805649 335.813 0.776062 332.089 2.68552C327.709 4.80397 323.329 6.92245 319.061 8.82477C317.758 8.69885 314.501 8.11212 309.502 7.72012C302.766 6.97894 292.879 5.97882 279.937 5.59138C266.995 5.20395 251.111 5.21309 232.597 6.60207C213.861 8.42331 192.718 11.1921 169.029 17.3002C131.149 27.03 97.2491 40.1847 68.4107 57.3224C64.7911 59.5596 61.2831 61.5807 57.8796 63.9296C54.4761 66.2784 51.0725 68.6273 47.669 70.9761C40.9736 75.4577 34.8078 81.0342 28.977 85.9623C23.0344 91.1066 17.7332 97.1296 12.7668 102.504C10.0045 105.732 7.45835 109.071 5.12834 112.522C7.23509 109.503 9.66962 106.38 11.9925 103.473C17.8162 99.0891 23.1104 93.6099 28.8368 88.354Z" fill="#163127" fill-opacity="0.3"/>
<path d="M5.10028 114.698C4.32599 115.667 3.65617 116.964 3.09801 118.044C3.76781 116.748 4.54212 115.779 5.10028 114.698Z" fill="#163127" fill-opacity="0.3"/>
<path d="M5.87503 113.729C5.65176 114.161 5.54013 114.377 5.31686 114.809C5.54013 114.377 5.76339 113.945 5.87503 113.729Z" fill="#163127" fill-opacity="0.3"/>
<path d="M29.5038 120.458C29.8387 119.809 30.3897 119.272 30.613 118.84C30.1736 119.161 29.8387 119.809 29.5038 120.458Z" fill="#163127" fill-opacity="0.3"/>
<path d="M27.2787 124.236C27.6136 123.588 27.9485 122.939 28.395 122.075C28.1717 122.507 27.9485 122.939 27.7252 123.372L27.2787 124.236Z" fill="#163127" fill-opacity="0.3"/>
<path d="M31.3932 117.328C31.1699 117.76 30.9467 118.192 30.5073 118.513C30.7306 118.081 31.0654 117.432 31.5048 117.112L31.3932 117.328Z" fill="#163127" fill-opacity="0.3"/>
<path d="M48.7133 99.1683C53.1144 95.4182 57.6271 91.4519 62.5649 88.2528C67.6144 84.8376 72.6638 81.4224 78.1455 78.2304C83.5156 75.2546 89.2134 72.1743 95.0158 69.4217C101.034 66.7808 106.941 64.356 113.064 62.0428C119.291 60.0574 125.735 58.1837 132.395 56.4215C138.943 54.8755 145.93 53.0089 153.022 51.47C188.043 44.0963 218.349 39.4893 240.042 36.1837C261.625 33.0943 274.923 31.2017 274.923 31.2017C274.923 31.2017 271.987 31.0544 266.444 30.6552C261.005 30.5839 252.847 30.4768 242.617 30.6689C221.935 31.4855 192.313 33.7078 156.177 43.2429C148.861 45.214 141.874 47.0806 134.991 49.275C128.22 51.2533 121.441 53.7755 115.206 56.3047C102.082 61.5723 90.0305 67.942 78.9483 75.0859C67.9778 82.0137 57.9762 89.7157 49.167 97.7599C44.7659 101.51 40.7899 106.027 37.0372 110.112C35.1609 112.155 33.5006 114.309 31.8404 116.463C31.7288 116.679 31.6164 116.896 31.5048 117.112C33.165 114.958 34.7143 113.019 36.5907 110.977C40.3434 106.892 44.4238 102.702 48.7133 99.1683Z" fill="#163127" fill-opacity="0.3"/>
<path d="M6.85296 221.559C7.21641 218.735 7.90762 215.806 8.59883 212.878C7.68436 216.239 7.09765 219.495 6.51094 222.751L6.85296 221.559Z" fill="#163127" fill-opacity="0.3"/>
<path d="M56.1431 154.752C58.6822 151.957 61.4373 149.273 64.0879 146.261C66.9547 143.362 69.8215 140.462 72.9044 137.673C84.8108 125.753 99.0804 116.149 114.005 106.335C138.248 91.2045 159.253 82.3413 176.416 76.1476C180.677 74.7891 184.721 73.319 188.654 72.0651C192.476 71.0273 196.081 69.8779 199.575 68.9445C206.235 67.1824 212.127 65.8454 217.141 65.1496L217.685 65.1567C207.762 66.876 194.568 69.0964 177.644 73.7701C160.719 78.4439 139.742 85.1316 114.761 98.5121C99.2017 106.903 84.7089 116.939 72.0353 129.285C59.3688 141.086 48.8636 154.004 41.0779 166.957C39.0756 170.304 37.4011 173.546 35.8383 176.571C34.2754 179.597 32.7125 182.623 31.4774 185.544C29.0072 191.387 26.7675 196.253 25.2948 200.695C22.4612 209.361 20.9814 214.346 20.9814 214.346C20.9814 214.346 22.8863 210.128 26.145 202.229C27.6105 198.331 30.3871 194.016 33.0663 188.829C35.7455 183.642 39.2963 178.357 43.182 172.425C44.1796 171.023 45.0727 169.294 46.0702 167.893C47.0678 166.492 48.3931 164.986 49.3907 163.585C51.3858 160.782 53.7086 157.875 56.1431 154.752Z" fill="#163127" fill-opacity="0.3"/>
<path d="M155.734 101.878C159.131 100.073 162.415 98.4842 165.156 96.8882C168.002 95.62 170.303 94.3447 172.165 93.3899C176.001 91.2643 178.191 90.2051 178.191 90.2051C178.191 90.2051 176.12 90.5043 172.514 91.6538C168.693 92.6916 163.344 94.0358 156.238 96.6624C142.465 101.595 122.443 110.145 100.347 127.48C82.6457 141.609 68.4021 157.524 58.4051 173.168C48.2965 189.028 42.1138 204.179 38.3657 216.206L38.1424 216.638C40.0688 210.788 42.3371 203.746 46.0138 197.158C47.8 193.7 49.4816 189.914 51.8116 186.463C54.1416 183.012 56.3671 179.234 59.0249 175.678C69.4399 161.345 83.6621 147.062 101.119 134.997C122.426 119.719 141.821 109.202 155.734 101.878Z" fill="#163127" fill-opacity="0.3"/>
<path d="M126.85 130.765C131.579 126.911 135.965 124.248 138.713 122.108C141.461 119.969 143.107 118.902 143.107 118.902C143.107 118.902 137.103 120.455 126.81 125.543C116.62 130.957 101.814 140.011 86.7962 156.895C83.8107 160.555 81.0484 163.782 78.3906 167.338C75.949 171.005 73.4028 174.344 71.289 177.907C69.1751 181.469 67.2773 185.143 65.6028 188.385C63.6006 191.732 62.1422 195.085 60.6838 198.439C59.2255 201.792 57.8787 204.93 56.8598 207.963C56.0569 211.107 55.0379 214.14 54.1306 216.957C52.3159 222.591 51.5962 227.695 50.4513 232.031L50.228 232.464C51.1568 228.015 52.0927 223.023 54.1235 217.501C55.0308 214.684 56.1543 211.979 57.1732 208.946C58.1922 205.913 59.8596 203.215 61.4224 200.189C64.5481 194.138 68.4339 188.205 72.8707 181.735C77.4119 175.593 82.497 169.459 88.5583 163.554C103.436 149.062 116.96 138.251 126.85 130.765Z" fill="#163127" fill-opacity="0.3"/>
<path d="M92.5989 245.314L92.7106 245.098C92.3828 245.202 92.5989 245.314 92.5989 245.314Z" fill="#163127" fill-opacity="0.3"/>
<path d="M107.147 239.412C107.377 238.436 107.496 237.676 107.51 236.588C107.496 237.676 107.266 238.652 107.147 239.412Z" fill="#163127" fill-opacity="0.3"/>
<path d="M107.133 240.5C107.244 240.284 107.252 239.74 107.363 239.524C107.252 239.74 107.356 240.068 107.244 240.284L107.133 240.5Z" fill="#163127" fill-opacity="0.3"/>
<path d="M168.986 111.735C172.112 105.684 174.352 100.817 176.026 97.5752C177.485 94.2216 178.378 92.4926 178.378 92.4926C178.378 92.4926 176.941 94.2145 174.179 97.4422C171.416 100.67 167.873 105.41 163.659 111.448C155.232 123.522 144.991 141.23 139.72 161.506C135.155 177.766 135.967 190.506 135.726 200.512C136.094 205.63 135.054 210.295 135.22 214.213C134.976 216.277 134.626 218.014 134.493 219.861C134.36 221.709 134.339 223.341 134.213 224.645L134.101 224.861C134.339 223.341 134.36 221.709 134.598 220.189C134.947 218.453 135.408 216.501 135.869 214.548C136.329 212.596 136.142 210.309 136.826 207.924C137.51 205.54 137.762 202.932 138.014 200.324C139.46 189.572 141.047 176.429 147.132 160.407C154.572 140.703 162.847 123.622 168.986 111.735Z" fill="#163127" fill-opacity="0.3"/>
<path d="M173.173 149.216C185.013 125.762 196.594 105.461 204.722 91.3149C212.962 76.9532 217.315 68.5242 217.315 68.5242C217.315 68.5242 215.439 70.5667 212.126 74.3311C209.029 78.2071 204.494 83.805 199.29 90.6997C188.987 104.817 175.446 125.202 166.102 149.123C158.454 168.171 154.545 184.221 152.637 196.926C150.73 209.63 151.264 218.667 150.418 225.075L150.306 225.291C151.152 218.883 151.49 209.748 154.485 197.059C157.808 184.264 163.677 168.131 173.173 149.216Z" fill="#163127" fill-opacity="0.3"/>
<path d="M227.787 74.7542C216.263 90.7049 201.382 113.683 189.827 140.296C180.407 161.714 175.165 179.814 172.044 193.808C168.811 208.018 168.243 218.128 165.654 224.731L165.542 224.947C168.02 218.56 169.132 208.457 173.78 194.157C178.317 180.073 185.518 161.889 196.898 140.388C210.845 113.916 224.198 91.2442 233.226 74.8256C242.358 58.7348 247.598 49.1207 247.598 49.1207C247.598 49.1207 245.61 51.3793 241.962 55.7921C238.746 60.4282 233.549 66.7789 227.787 74.7542Z" fill="#163127" fill-opacity="0.3"/>
<path d="M185.586 214.765C185.139 215.63 184.693 216.494 184.358 217.143C184.804 216.278 185.139 215.63 185.586 214.765Z" fill="#163127" fill-opacity="0.3"/>
<path d="M185.698 214.549L185.586 214.765C185.697 214.549 185.698 214.549 185.698 214.549Z" fill="#163127" fill-opacity="0.3"/>
<path d="M183.36 218.544C183.583 218.112 183.918 217.464 184.469 216.927C184.134 217.575 183.799 218.224 183.248 218.761L183.36 218.544Z" fill="#163127" fill-opacity="0.3"/>
<path d="M197.876 223.304C197.988 223.088 197.988 223.088 198.316 222.984C198.204 223.2 197.765 223.52 197.653 223.737L197.876 223.304Z" fill="#163127" fill-opacity="0.3"/>
<path d="M211.682 224.138C211.571 224.354 211.571 224.354 211.459 224.571L211.682 224.138Z" fill="#163127" fill-opacity="0.3"/>
<path d="M239.291 217.864C239.179 218.08 238.74 218.401 238.628 218.617C239.068 218.296 239.179 218.08 239.291 217.864Z" fill="#163127" fill-opacity="0.3"/>
<path d="M239.953 217.111L240.064 216.895C239.841 217.327 239.513 217.432 239.402 217.648C239.73 217.543 239.841 217.327 239.953 217.111Z" fill="#163127" fill-opacity="0.3"/>
<path d="M237.087 220.011C237.198 219.795 237.198 219.795 237.526 219.69C237.198 219.795 237.087 220.011 236.647 220.332L237.087 220.011Z" fill="#163127" fill-opacity="0.3"/>
<path d="M351.418 96.7218C354.633 92.0858 357.417 87.2264 359.985 82.2555C362.329 77.7168 364.562 73.3943 366.794 69.0717C371.26 60.4266 375.718 52.3254 379.953 44.6564C388.75 29.214 396.439 15.3889 403.115 4.05289C409.576 -7.39476 414.808 -16.465 418.589 -22.7255C422.155 -29.0977 424.157 -32.4442 424.157 -32.4442C424.157 -32.4442 421.283 -29.0004 416.198 -22.8657C411.113 -16.7311 404.032 -7.79388 395.724 3.52071C387.416 14.8353 378.096 28.6389 368.643 44.2904C363.864 51.9522 359.51 60.3812 354.933 69.2424C352.701 73.565 350.684 77.9992 348.556 82.6495C347.44 84.8108 346.763 86.6514 345.535 89.0288C344.418 91.1901 342.974 93.4559 341.746 95.8333C333.068 110.516 323.859 124.103 316.185 136.841C308.079 149.355 301.29 160.907 294.956 171.05C288.837 181.306 283.605 190.376 278.715 198.254C273.936 205.916 269.82 212.825 265.084 217.223L264.644 217.544C269.596 213.257 273.712 206.348 278.924 198.909C284.47 190.823 290.462 181.871 297.117 172.167C304.212 162.142 312.304 150.716 321.498 138.216C330.588 125.388 340.884 111.815 351.418 96.7218Z" fill="#163127" fill-opacity="0.3"/>
<path d="M345.373 184.224C345.485 184.008 345.597 183.791 345.924 183.687C345.924 183.687 345.924 183.687 345.813 183.903L345.373 184.224Z" fill="#163127" fill-opacity="0.3"/>
<path d="M353.555 174.213C350.681 177.657 348.03 180.668 345.708 183.575C348.247 180.78 350.897 177.768 353.555 174.213Z" fill="#163127" fill-opacity="0.3"/>
<path d="M580.165 -40.2971C573.23 -50.7237 566.378 -59.191 560.488 -66.34C548.924 -80.5266 540.761 -88.5758 540.761 -88.5758C540.761 -88.5758 544.433 -78.192 551.938 -61.4476C555.638 -53.2393 560.621 -43.2735 566.461 -32.3172C568.572 -27.3936 569.023 -20.3159 568.707 -12.8131C568.719 -5.41481 567.74 2.84087 566.538 11.5288C564.4 25.2091 560.749 38.108 556.346 50.3442C554.196 56.6262 551.726 62.4688 549.04 68.1997C546.353 73.9307 543.458 79.0061 540.451 84.2977C534.333 94.553 527.789 104.041 520.828 112.218C520.053 113.187 519.167 114.373 518.177 115.23C517.075 116.303 516.956 117.063 516.51 117.928C515.4 119.545 514.507 121.274 513.51 122.676C511.403 125.694 509.408 128.497 507.413 131.299L507.19 131.732C509.073 129.145 511.284 126.454 513.503 123.22C514.612 121.602 515.721 119.985 516.83 118.367L517.604 117.398C517.828 116.966 518.051 116.534 518.602 115.997C519.704 114.924 520.478 113.955 521.58 112.881C529.309 104.279 537.268 94.7003 544.802 84.3548C546.686 81.7684 548.681 78.9659 550.348 76.2678C552.127 73.3537 553.906 70.4395 555.685 67.5253C559.138 61.3693 562.592 55.2132 565.613 48.8339C568.634 42.4545 571.551 35.7474 574.036 28.817C576.632 21.6706 578.796 14.3008 580.416 6.92389C582.385 -2.18918 583.803 -10.7655 583.798 -18.7077C584.121 -26.7544 583.566 -34.1598 580.165 -40.2971Z" fill="#163127" fill-opacity="0.3"/>
<path d="M617.154 -31.8696C608.02 -57.1215 589.4 -72.4886 575.708 -82.0247C561.472 -91.5681 551.188 -95.5109 551.188 -95.5109C551.188 -95.5109 557.838 -88.2431 568.015 -76.1419C578.08 -63.8246 592.105 -46.4507 603.994 -23.8826C608.551 -14.6839 612.021 -5.49947 613.971 3.44743C615.92 12.3943 616.559 21.7592 615.469 30.231C615.523 34.366 614.378 38.7029 613.457 42.6074C612.424 46.7281 611.502 50.6327 610.476 54.2095C607.329 61.8928 604.189 69.0321 601.175 74.8676L600.951 75.2998C603.966 69.4644 607.322 62.4366 611.348 54.1122C612.813 50.2147 614.279 46.3173 615.751 41.8759C617.224 37.4346 619.024 32.8888 619.737 28.3287C620.561 23.5525 621.385 18.7762 622.433 13.5677C622.497 8.67276 622.673 3.56165 622.849 -1.54948C622.538 -11.0189 620.826 -21.4858 617.154 -31.8696Z" fill="#163127" fill-opacity="0.3"/>
<path d="M587.269 -125.61C587.269 -125.61 592.615 -118.468 602.039 -107.029C611.463 -95.5906 624.972 -80.3994 640.844 -62.8924C653.608 -48.9078 663.115 -35.5098 668.389 -22.929C673.552 -10.1321 673.709 2.81676 671.167 14.0982L671.16 14.6421C673.59 3.57677 675.735 -10.6474 672.992 -25.4797C670.145 -40.6398 663.609 -56.6099 652.834 -72.8531C639.389 -92.9393 621.926 -105.245 609.307 -113.679C596.033 -121.904 587.269 -125.61 587.269 -125.61Z" fill="#163127" fill-opacity="0.3"/>
</svg>
